<svg width="24" height="24" viewBox="0 0 24 24" fill="none" xmlns="http://www.w3.org/2000/svg">
<path fill-rule="evenodd" clip-rule="evenodd" d="M10 16.3496C12.0795 16.3496 14.2139 17.0109 15.7143 18.4041C16.0931 18.7559 16.4224 19.1676 16.6709 19.6645C16.8561 20.035 16.7059 20.4855 16.3355 20.6707C15.965 20.8559 15.5145 20.7058 15.3292 20.3353C15.1722 20.0212 14.9599 19.7505 14.6937 19.5034C13.5316 18.4244 11.7933 17.8496 10 17.8496C8.20682 17.8496 6.46845 18.4244 5.30638 19.5034C5.0402 19.7505 4.82789 20.0212 4.67086 20.3353C4.48562 20.7058 4.03512 20.8559 3.66463 20.6707C3.29415 20.4855 3.14398 20.035 3.32922 19.6645C3.57764 19.1676 3.90696 18.7559 4.28574 18.4041C5.78623 17.0109 7.92056 16.3496 10 16.3496Z" fill="#23294A"/>
<path fill-rule="evenodd" clip-rule="evenodd" d="M19 10.25C19.4142 10.25 19.75 10.5858 19.75 11V15C19.75 15.4142 19.4142 15.75 19 15.75C18.5858 15.75 18.25 15.4142 18.25 15V11C18.25 10.5858 18.5858 10.25 19 10.25Z" fill="#23294A"/>
<path fill-rule="evenodd" clip-rule="evenodd" d="M16.25 13C16.25 12.5858 16.5858 12.25 17 12.25H21C21.4142 12.25 21.75 12.5858 21.75 13C21.75 13.4142 21.4142 13.75 21 13.75H17C16.5858 13.75 16.25 13.4142 16.25 13Z" fill="#23294A"/>
<path fill-rule="evenodd" clip-rule="evenodd" d="M10 4.75C7.65279 4.75 5.75 6.65279 5.75 9C5.75 11.3472 7.65279 13.25 10 13.25C12.3472 13.25 14.25 11.3472 14.25 9C14.25 8.4683 14.1527 7.96106 13.9756 7.49394C13.8288 7.10662 14.0238 6.67361 14.4111 6.52679C14.7984 6.37997 15.2314 6.57494 15.3783 6.96226C15.6187 7.59663 15.75 8.28386 15.75 9C15.75 12.1756 13.1756 14.75 10 14.75C6.82436 14.75 4.25 12.1756 4.25 9C4.25 5.82436 6.82436 3.25 10 3.25C10.763 3.25 11.4931 3.39902 12.1614 3.67025C12.5452 3.82602 12.73 4.26344 12.5742 4.64725C12.4185 5.03105 11.981 5.21591 11.5972 5.06013C11.1051 4.86039 10.5664 4.75 10 4.75Z" fill="#23294A"/>
</svg>
