<svg width="24" height="24" viewBox="0 0 24 24" fill="none" xmlns="http://www.w3.org/2000/svg">
<path fill-rule="evenodd" clip-rule="evenodd" d="M13.0094 7.81807C12.6734 7.93851 12.2885 8.07644 11.9343 8.16365C11.7632 8.20575 11.5592 8.22621 11.3407 8.18748C11.0139 8.12956 10.6503 7.98823 10.3472 7.87043C10.2678 7.83958 10.1926 7.81035 10.1233 7.78465C9.75258 7.64722 9.38456 7.53545 8.97337 7.50782C7.56354 7.59526 6.62887 8.36787 6.13895 9.53488C5.88783 10.133 5.75168 10.8443 5.75002 11.6277C5.74916 12.0294 5.78372 12.4477 5.85526 12.8759C5.92352 13.2844 5.64766 13.671 5.23911 13.7392C4.83056 13.8075 4.44403 13.5316 4.37577 13.1231C4.29106 12.6161 4.24898 12.114 4.25002 11.6245C4.25203 10.6739 4.41682 9.76192 4.75588 8.95425C5.45384 7.29171 6.87949 6.11531 8.93528 6.00757L8.97504 6.00548L9.0148 6.00762C9.6646 6.04256 10.2097 6.21692 10.6447 6.3782C10.7799 6.42831 10.8959 6.47311 10.9981 6.51258C11.2496 6.60965 11.4173 6.67439 11.5795 6.7062C11.8609 6.63667 12.111 6.54641 12.3976 6.44295C12.5659 6.3822 12.7468 6.31691 12.954 6.24858C13.4645 6.08029 14.0666 5.92391 14.7298 5.97304L14.736 5.97349L14.736 5.97352C16.177 6.09227 17.3514 6.68793 18.1415 7.8016C18.4411 8.22378 18.2835 8.76042 17.9118 9.00421C15.9092 10.3177 16.3611 13.0978 18.22 13.9358C18.61 14.1116 18.8329 14.5702 18.6699 15.0088C18.1735 16.3445 17.4953 17.763 16.337 18.8389C15.8006 19.3671 15.1976 19.6236 14.565 19.6552C13.9522 19.6858 13.3773 19.502 12.8868 19.2804C12.1433 18.9559 11.5047 18.9413 10.716 19.2818C10.0432 19.5817 9.41969 19.7395 8.80987 19.6518C8.18408 19.5618 7.69951 19.2319 7.27442 18.827L7.25879 18.8121L7.24404 18.7964C6.71181 18.2275 6.25184 17.6227 5.86314 16.9978C5.64437 16.6461 5.75215 16.1836 6.10388 15.9648C6.4556 15.746 6.91808 15.8538 7.13686 16.2055C7.47087 16.7425 7.86627 17.2637 8.32424 17.7554C8.62789 18.0414 8.83387 18.1398 9.02348 18.1671C9.23093 18.1969 9.54897 18.1601 10.1087 17.9102L10.1166 17.9067L10.1166 17.9067C11.2962 17.3962 12.3701 17.4169 13.4922 17.908L13.5011 17.9118L13.5011 17.9119C13.8924 18.0892 14.2157 18.1708 14.4902 18.1571C14.7365 18.1447 15.0028 18.0535 15.2998 17.755L15.5654 18.0152L15.3129 17.7429C16.0884 17.0238 16.6256 16.0685 17.0608 15.0072C14.8546 13.5769 14.2966 10.1915 16.5019 8.20181C16.0348 7.78553 15.4183 7.53537 14.616 7.46872C14.2503 7.44222 13.874 7.52472 13.4237 7.67317C13.3001 7.71391 13.1596 7.76424 13.0094 7.81807Z" fill="#23294A"/>
<path fill-rule="evenodd" clip-rule="evenodd" d="M11.542 5.64893C11.4005 5.66664 11.2624 5.59772 11.1914 5.47397C10.9058 4.97581 10.8979 4.26133 11.2249 3.60597C11.552 2.95061 12.1276 2.52731 12.6974 2.45602C12.8389 2.43831 12.9771 2.50723 13.048 2.63098C13.3336 3.12913 13.3415 3.84362 13.0145 4.49898C12.6875 5.15434 12.1118 5.57764 11.542 5.64893Z" fill="#23294A"/>
</svg>
