<svg width="24" height="24" viewBox="0 0 24 24" fill="none" xmlns="http://www.w3.org/2000/svg">
<path fill-rule="evenodd" clip-rule="evenodd" d="M9.94253 6.99828C10.2196 6.6904 10.6938 6.66544 11.0017 6.94254L15.1758 10.6992C15.9483 11.3944 15.9483 12.6056 15.1758 13.3008L14.1267 14.245C13.8188 14.5221 13.3446 14.4971 13.0675 14.1892C12.7904 13.8813 12.8154 13.4071 13.1233 13.13L14.1724 12.1858C14.2827 12.0865 14.2827 11.9135 14.1724 11.8142L9.99828 8.05748C9.69039 7.78038 9.66543 7.30617 9.94253 6.99828ZM12.9325 14.3108C13.2096 14.6187 13.1846 15.0929 12.8767 15.37L11.0017 17.0575C10.6938 17.3346 10.2196 17.3096 9.94253 17.0017C9.66543 16.6938 9.69039 16.2196 9.99828 15.9425L11.8733 14.255C12.1812 13.9779 12.6554 14.0029 12.9325 14.3108Z" fill="#23294A"/>
</svg>
