<svg width="24" height="24" viewBox="0 0 24 24" fill="none" xmlns="http://www.w3.org/2000/svg">
<path fill-rule="evenodd" clip-rule="evenodd" d="M12 3.75C11.314 3.75 10.6486 3.83356 10.0129 3.99071C9.61079 4.09011 9.20423 3.84471 9.10483 3.44261C9.00543 3.0405 9.25082 2.63394 9.65293 2.53454C10.4055 2.34851 11.1917 2.25 12 2.25C17.3848 2.25 21.75 6.61522 21.75 12C21.75 17.3848 17.3848 21.75 12 21.75C6.61522 21.75 2.25 17.3848 2.25 12C2.25 9.50333 3.1894 7.22428 4.73283 5.49981C4.97413 5.23021 5.23021 4.97413 5.49981 4.73283C5.80846 4.45658 6.28261 4.48285 6.55885 4.7915C6.8351 5.10014 6.80883 5.57429 6.50019 5.85053C6.27183 6.05492 6.05492 6.27183 5.85053 6.50019C4.54373 7.96026 3.75 9.88655 3.75 12C3.75 16.5563 7.44365 20.25 12 20.25C16.5563 20.25 20.25 16.5563 20.25 12C20.25 7.44365 16.5563 3.75 12 3.75Z" fill="#23294A"/>
<path fill-rule="evenodd" clip-rule="evenodd" d="M8.46967 9.96982C8.76256 9.67693 9.23744 9.67693 9.53033 9.96982L9.90533 10.3448C10.1982 10.6377 10.1982 11.1126 9.90533 11.4055C9.61244 11.6984 9.13756 11.6984 8.84467 11.4055L8.46967 11.0305C8.17678 10.7376 8.17678 10.2627 8.46967 9.96982ZM10.1572 11.6573C10.4501 11.3644 10.9249 11.3644 11.2178 11.6573L11.8232 12.2627C11.9209 12.3603 12.0791 12.3603 12.1768 12.2627L14.4697 9.96982C14.7626 9.67693 15.2374 9.67693 15.5303 9.96982C15.8232 10.2627 15.8232 10.7376 15.5303 11.0305L13.2374 13.3234C12.554 14.0068 11.446 14.0068 10.7626 13.3234L10.1572 12.718C9.86428 12.4251 9.86428 11.9502 10.1572 11.6573Z" fill="#23294A"/>
</svg>
