<svg width="24" height="24" viewBox="0 0 24 24" fill="none" xmlns="http://www.w3.org/2000/svg">
<path fill-rule="evenodd" clip-rule="evenodd" d="M12 3.75C11.314 3.75 10.6486 3.83356 10.0129 3.99071C9.61079 4.09011 9.20423 3.84471 9.10483 3.44261C9.00543 3.0405 9.25082 2.63394 9.65293 2.53454C10.4055 2.34851 11.1917 2.25 12 2.25C17.3848 2.25 21.75 6.61522 21.75 12C21.75 17.3848 17.3848 21.75 12 21.75C6.61522 21.75 2.25 17.3848 2.25 12C2.25 9.50333 3.1894 7.22428 4.73283 5.49981C4.97413 5.23021 5.23021 4.97413 5.49981 4.73283C5.80846 4.45658 6.28261 4.48285 6.55885 4.7915C6.8351 5.10014 6.80883 5.57429 6.50019 5.85053C6.27183 6.05492 6.05492 6.27183 5.85053 6.50019C4.54373 7.96026 3.75 9.88655 3.75 12C3.75 16.5563 7.44365 20.25 12 20.25C16.5563 20.25 20.25 16.5563 20.25 12C20.25 7.44365 16.5563 3.75 12 3.75Z" fill="#23294A"/>
<path fill-rule="evenodd" clip-rule="evenodd" d="M15.5303 14.0302C15.2374 14.3231 14.7626 14.3231 14.4697 14.0302L14.0947 13.6552C13.8018 13.3623 13.8018 12.8874 14.0947 12.5945C14.3876 12.3016 14.8624 12.3016 15.1553 12.5945L15.5303 12.9695C15.8232 13.2624 15.8232 13.7373 15.5303 14.0302ZM13.8428 12.3427C13.5499 12.6356 13.0751 12.6356 12.7822 12.3427L12.1768 11.7373C12.0791 11.6397 11.9209 11.6397 11.8232 11.7373L9.53033 14.0302C9.23744 14.3231 8.76256 14.3231 8.46967 14.0302C8.17678 13.7373 8.17678 13.2624 8.46967 12.9695L10.7626 10.6766C11.446 9.99321 12.554 9.99321 13.2374 10.6766L13.8428 11.282C14.1357 11.5749 14.1357 12.0498 13.8428 12.3427Z" fill="#23294A"/>
</svg>
