<svg width="24" height="24" viewBox="0 0 24 24" fill="none" xmlns="http://www.w3.org/2000/svg">
<path fill-rule="evenodd" clip-rule="evenodd" d="M5.25 12C5.25 11.5858 5.58579 11.25 6 11.25L12 11.25C12.4142 11.25 12.75 11.5858 12.75 12C12.75 12.4142 12.4142 12.75 12 12.75L6 12.75C5.58579 12.75 5.25 12.4142 5.25 12ZM14.25 12C14.25 11.5858 14.5858 11.25 15 11.25L18 11.25C18.4142 11.25 18.75 11.5858 18.75 12C18.75 12.4142 18.4142 12.75 18 12.75L15 12.75C14.5858 12.75 14.25 12.4142 14.25 12Z" fill="#23294A"/>
<path fill-rule="evenodd" clip-rule="evenodd" d="M9.53033 16.5303C9.23744 16.8232 8.76256 16.8232 8.46967 16.5303L4.82322 12.8839C4.33507 12.3957 4.33507 11.6043 4.82322 11.1161L8.46967 7.46967C8.76256 7.17678 9.23744 7.17678 9.53033 7.46967C9.82322 7.76256 9.82322 8.23744 9.53033 8.53033L6.06066 12L9.53033 15.4697C9.82322 15.7626 9.82322 16.2374 9.53033 16.5303Z" fill="#23294A"/>
</svg>
