<svg width="24" height="24" viewBox="0 0 24 24" fill="none" xmlns="http://www.w3.org/2000/svg">
<path fill-rule="evenodd" clip-rule="evenodd" d="M12 3.75C11.314 3.75 10.6486 3.83356 10.0129 3.99071C9.61079 4.09011 9.20423 3.84471 9.10483 3.44261C9.00543 3.0405 9.25082 2.63394 9.65293 2.53454C10.4055 2.34851 11.1917 2.25 12 2.25C17.3848 2.25 21.75 6.61522 21.75 12C21.75 17.3848 17.3848 21.75 12 21.75C6.61522 21.75 2.25 17.3848 2.25 12C2.25 9.50333 3.1894 7.22428 4.73283 5.49981C4.97413 5.23021 5.23021 4.97413 5.49981 4.73283C5.80846 4.45658 6.28261 4.48285 6.55885 4.7915C6.8351 5.10014 6.80883 5.57429 6.50019 5.85053C6.27183 6.05492 6.05492 6.27183 5.85053 6.50019C4.54373 7.96026 3.75 9.88655 3.75 12C3.75 16.5563 7.44365 20.25 12 20.25C16.5563 20.25 20.25 16.5563 20.25 12C20.25 7.44365 16.5563 3.75 12 3.75Z" fill="#23294A"/>
<path fill-rule="evenodd" clip-rule="evenodd" d="M13.5303 8.46967C13.8232 8.76256 13.8232 9.23744 13.5303 9.53033L13.1553 9.90533C12.8624 10.1982 12.3875 10.1982 12.0946 9.90533C11.8017 9.61244 11.8017 9.13756 12.0946 8.84467L12.4696 8.46967C12.7625 8.17678 13.2374 8.17678 13.5303 8.46967ZM11.8428 10.1572C12.1357 10.4501 12.1357 10.9249 11.8428 11.2178L11.2374 11.8232C11.1398 11.9209 11.1398 12.0791 11.2374 12.1768L13.5303 14.4697C13.8232 14.7626 13.8232 15.2374 13.5303 15.5303C13.2374 15.8232 12.7625 15.8232 12.4696 15.5303L10.1767 13.2374C9.49333 12.554 9.49333 11.446 10.1767 10.7626L10.7821 10.1572C11.075 9.86428 11.5499 9.86428 11.8428 10.1572Z" fill="#23294A"/>
</svg>
