<svg width="24" height="24" viewBox="0 0 24 24" fill="none" xmlns="http://www.w3.org/2000/svg">
<path fill-rule="evenodd" clip-rule="evenodd" d="M12 7.25C12.4142 7.25 12.75 7.58579 12.75 8L12.75 8.5C12.75 8.91421 12.4142 9.25 12 9.25C11.5858 9.25 11.25 8.91421 11.25 8.5L11.25 8C11.25 7.58579 11.5858 7.25 12 7.25ZM12 9.875C12.4142 9.875 12.75 10.2108 12.75 10.625L12.75 15C12.75 15.4142 12.4142 15.75 12 15.75C11.5858 15.75 11.25 15.4142 11.25 15L11.25 10.625C11.25 10.2108 11.5858 9.875 12 9.875Z" fill="#23294A"/>
<path fill-rule="evenodd" clip-rule="evenodd" d="M15.5303 12.4697C15.8232 12.7626 15.8232 13.2374 15.5303 13.5303L12.8839 16.1768C12.3957 16.6649 11.6043 16.6649 11.1161 16.1768L8.46967 13.5303C8.17678 13.2374 8.17678 12.7626 8.46967 12.4697C8.76256 12.1768 9.23744 12.1768 9.53033 12.4697L12 14.9393L14.4697 12.4697C14.7626 12.1768 15.2374 12.1768 15.5303 12.4697Z" fill="#23294A"/>
<path fill-rule="evenodd" clip-rule="evenodd" d="M2.25 8C2.25 4.82436 4.82436 2.25 8 2.25H16C19.1756 2.25 21.75 4.82436 21.75 8V16C21.75 19.1756 19.1756 21.75 16 21.75H8C4.82436 21.75 2.25 19.1756 2.25 16V13.5C2.25 13.0858 2.58579 12.75 3 12.75C3.41421 12.75 3.75 13.0858 3.75 13.5V16C3.75 18.3472 5.65279 20.25 8 20.25H16C18.3472 20.25 20.25 18.3472 20.25 16V8C20.25 5.65279 18.3472 3.75 16 3.75H8C5.65279 3.75 3.75 5.65279 3.75 8V10C3.75 10.4142 3.41421 10.75 3 10.75C2.58579 10.75 2.25 10.4142 2.25 10V8Z" fill="#23294A"/>
</svg>
