<svg width="24" height="24" viewBox="0 0 24 24" fill="none" xmlns="http://www.w3.org/2000/svg">
<path fill-rule="evenodd" clip-rule="evenodd" d="M8.46967 15.5303C8.17678 15.2374 8.17678 14.7626 8.46967 14.4697L11.1161 11.8232C11.6043 11.3351 12.3957 11.3351 12.8839 11.8232L15.5303 14.4697C15.8232 14.7626 15.8232 15.2374 15.5303 15.5303C15.2374 15.8232 14.7626 15.8232 14.4697 15.5303L12 13.0607L9.53033 15.5303C9.23744 15.8232 8.76256 15.8232 8.46967 15.5303Z" fill="#23294A"/>
<path fill-rule="evenodd" clip-rule="evenodd" d="M8.46967 11.5303C8.17678 11.2374 8.17678 10.7626 8.46967 10.4697L11.1161 7.82322C11.6043 7.33507 12.3957 7.33507 12.8839 7.82322L15.5303 10.4697C15.8232 10.7626 15.8232 11.2374 15.5303 11.5303C15.2374 11.8232 14.7626 11.8232 14.4697 11.5303L12 9.06066L9.53033 11.5303C9.23744 11.8232 8.76256 11.8232 8.46967 11.5303Z" fill="#23294A"/>
<path fill-rule="evenodd" clip-rule="evenodd" d="M2.25 8C2.25 4.82436 4.82436 2.25 8 2.25H16C19.1756 2.25 21.75 4.82436 21.75 8V16C21.75 19.1756 19.1756 21.75 16 21.75H8C4.82436 21.75 2.25 19.1756 2.25 16V13.5C2.25 13.0858 2.58579 12.75 3 12.75C3.41421 12.75 3.75 13.0858 3.75 13.5V16C3.75 18.3472 5.65279 20.25 8 20.25H16C18.3472 20.25 20.25 18.3472 20.25 16V8C20.25 5.65279 18.3472 3.75 16 3.75H8C5.65279 3.75 3.75 5.65279 3.75 8V10C3.75 10.4142 3.41421 10.75 3 10.75C2.58579 10.75 2.25 10.4142 2.25 10V8Z" fill="#23294A"/>
</svg>
