<svg width="24" height="24" viewBox="0 0 24 24" fill="none" xmlns="http://www.w3.org/2000/svg">
<path fill-rule="evenodd" clip-rule="evenodd" d="M10.6992 9.32443C11.3944 8.55201 12.6056 8.55201 13.3008 9.32443L17.0575 13.4985C17.3346 13.8064 17.3096 14.2806 17.0017 14.5577C16.6938 14.8348 16.2196 14.8099 15.9425 14.502L12.1858 10.3279C12.0865 10.2175 11.9135 10.2175 11.8142 10.3279L10.87 11.377C10.5929 11.6849 10.1187 11.7098 9.81078 11.4327C9.5029 11.1556 9.47794 10.6814 9.75504 10.3735L10.6992 9.32443ZM9.68923 11.5678C9.99711 11.8449 10.0221 12.3191 9.74498 12.627L8.05748 14.502C7.78038 14.8099 7.30617 14.8348 6.99828 14.5577C6.6904 14.2806 6.66544 13.8064 6.94254 13.4985L8.63004 11.6235C8.90713 11.3157 9.38135 11.2907 9.68923 11.5678Z" fill="#23294A"/>
</svg>
