<svg width="24" height="24" viewBox="0 0 24 24" fill="none" xmlns="http://www.w3.org/2000/svg">
<path fill-rule="evenodd" clip-rule="evenodd" d="M6.99828 9.44254C7.30616 9.16544 7.78038 9.1904 8.05747 9.49828L9.74497 11.3733C10.0221 11.6812 9.9971 12.1554 9.68922 12.4325C9.38134 12.7096 8.90712 12.6846 8.63003 12.3767L6.94253 10.5017C6.66543 10.1938 6.69039 9.71963 6.99828 9.44254ZM17.0017 9.44254C17.3096 9.71963 17.3346 10.1938 17.0575 10.5017L13.3008 14.6758C12.6056 15.4483 11.3944 15.4483 10.6992 14.6758L9.75503 13.6267C9.47793 13.3188 9.50289 12.8446 9.81078 12.5675C10.1187 12.2904 10.5929 12.3154 10.87 12.6233L11.8142 13.6724C11.9135 13.7827 12.0865 13.7827 12.1858 13.6724L15.9425 9.49828C16.2196 9.1904 16.6938 9.16544 17.0017 9.44254Z" fill="#23294A"/>
</svg>
