<svg width="24" height="24" viewBox="0 0 24 24" fill="none" xmlns="http://www.w3.org/2000/svg">
<path fill-rule="evenodd" clip-rule="evenodd" d="M14.0575 6.99828C14.3346 7.30617 14.3096 7.78038 14.0017 8.05748L12.1267 9.74498C11.8188 10.0221 11.3446 9.99711 11.0675 9.68923C10.7904 9.38135 10.8154 8.90713 11.1233 8.63004L12.9983 6.94254C13.3062 6.66544 13.7804 6.6904 14.0575 6.99828ZM10.9325 9.81078C11.2096 10.1187 11.1846 10.5929 10.8767 10.87L9.82761 11.8142C9.71726 11.9135 9.71726 12.0865 9.82761 12.1858L14.0017 15.9425C14.3096 16.2196 14.3346 16.6938 14.0575 17.0017C13.7804 17.3096 13.3062 17.3346 12.9983 17.0575L8.82416 13.3008L9.32588 12.7433L8.82416 13.3008C8.05174 12.6056 8.05174 11.3944 8.82416 10.6992L9.87328 9.75504C10.1812 9.47794 10.6554 9.5029 10.9325 9.81078Z" fill="#23294A"/>
</svg>
