<svg width="24" height="24" viewBox="0 0 24 24" fill="none" xmlns="http://www.w3.org/2000/svg">
<path fill-rule="evenodd" clip-rule="evenodd" d="M12 3.75C11.314 3.75 10.6486 3.83356 10.0129 3.99071C9.61079 4.09011 9.20423 3.84471 9.10483 3.44261C9.00543 3.0405 9.25082 2.63394 9.65293 2.53454C10.4055 2.34851 11.1917 2.25 12 2.25C17.3848 2.25 21.75 6.61522 21.75 12C21.75 17.3848 17.3848 21.75 12 21.75C6.61522 21.75 2.25 17.3848 2.25 12C2.25 9.50333 3.1894 7.22428 4.73283 5.49981C4.97413 5.23021 5.23021 4.97413 5.49981 4.73283C5.80846 4.45658 6.28261 4.48285 6.55885 4.7915C6.8351 5.10014 6.80883 5.57429 6.50019 5.85053C6.27183 6.05492 6.05492 6.27183 5.85053 6.50019C4.54373 7.96026 3.75 9.88655 3.75 12C3.75 16.5563 7.44365 20.25 12 20.25C16.5563 20.25 20.25 16.5563 20.25 12C20.25 7.44365 16.5563 3.75 12 3.75Z" fill="#23294A"/>
<path fill-rule="evenodd" clip-rule="evenodd" d="M10.4697 15.5303C10.1768 15.2374 10.1768 14.7626 10.4697 14.4697L10.8447 14.0947C11.1376 13.8018 11.6125 13.8018 11.9054 14.0947C12.1983 14.3876 12.1983 14.8624 11.9054 15.1553L11.5304 15.5303C11.2375 15.8232 10.7626 15.8232 10.4697 15.5303ZM12.1572 13.8428C11.8643 13.5499 11.8643 13.0751 12.1572 12.7822L12.7626 12.1768C12.8602 12.0791 12.8602 11.9209 12.7626 11.8232L10.4697 9.53033C10.1768 9.23744 10.1768 8.76256 10.4697 8.46967C10.7626 8.17678 11.2375 8.17678 11.5304 8.46967L13.8233 10.7626C14.5067 11.446 14.5067 12.554 13.8233 13.2374L13.2179 13.8428C12.925 14.1357 12.4501 14.1357 12.1572 13.8428Z" fill="#23294A"/>
</svg>
