<svg width="24" height="24" viewBox="0 0 24 24" fill="none" xmlns="http://www.w3.org/2000/svg">
<path fill-rule="evenodd" clip-rule="evenodd" d="M12.8529 4.82153C12.3726 4.37329 11.6274 4.37329 11.1471 4.82153L5.6471 9.95487C5.39381 10.1913 5.25 10.5222 5.25 10.8687V12.4996C5.25 12.9138 4.91421 13.2496 4.5 13.2496C4.08579 13.2496 3.75 12.9138 3.75 12.4996V10.8687C3.75 10.1064 4.06638 9.37838 4.62362 8.85828L5.13536 9.40657L4.62362 8.85828L10.1236 3.72495C11.1802 2.73882 12.8198 2.73882 13.8764 3.72495L19.3764 8.85828C19.9336 9.37838 20.25 10.1064 20.25 10.8687V17.9996C20.25 19.5184 19.0188 20.7496 17.5 20.7496H6.5C4.98122 20.7496 3.75 19.5184 3.75 17.9996V16.2496C3.75 15.8354 4.08579 15.4996 4.5 15.4996C4.91421 15.4996 5.25 15.8354 5.25 16.2496V17.9996C5.25 18.6899 5.80964 19.2496 6.5 19.2496H17.5C18.1904 19.2496 18.75 18.6899 18.75 17.9996V10.8687C18.75 10.5222 18.6062 10.1913 18.3529 9.95487L12.8529 4.82153Z" fill="#23294A"/>
</svg>
