<svg width="24" height="24" viewBox="0 0 24 24" fill="none" xmlns="http://www.w3.org/2000/svg">
<path fill-rule="evenodd" clip-rule="evenodd" d="M16.5303 14.4697C16.8232 14.7626 16.8232 15.2374 16.5303 15.5303L12.8839 19.1768C12.3957 19.6649 11.6043 19.6649 11.1161 19.1768L7.46967 15.5303C7.17678 15.2374 7.17678 14.7626 7.46967 14.4697C7.76256 14.1768 8.23744 14.1768 8.53033 14.4697L12 17.9393L15.4697 14.4697C15.7626 14.1768 16.2374 14.1768 16.5303 14.4697Z" fill="#23294A"/>
<path fill-rule="evenodd" clip-rule="evenodd" d="M12 5.25C12.4142 5.25 12.75 5.58579 12.75 6V9C12.75 9.41421 12.4142 9.75 12 9.75C11.5858 9.75 11.25 9.41421 11.25 9V6C11.25 5.58579 11.5858 5.25 12 5.25ZM12 11.25C12.4142 11.25 12.75 11.5858 12.75 12V18C12.75 18.4142 12.4142 18.75 12 18.75C11.5858 18.75 11.25 18.4142 11.25 18V12C11.25 11.5858 11.5858 11.25 12 11.25Z" fill="#23294A"/>
</svg>
