<svg width="24" height="24" viewBox="0 0 24 24" fill="none" xmlns="http://www.w3.org/2000/svg">
<path fill-rule="evenodd" clip-rule="evenodd" d="M12 3.75C10.178 3.75 8.49587 4.33978 7.13128 5.33905C6.79709 5.58378 6.32779 5.51125 6.08307 5.17706C5.83834 4.84287 5.91087 4.37357 6.24506 4.12884C7.85808 2.94765 9.84866 2.25 12 2.25C17.3848 2.25 21.75 6.61522 21.75 12C21.75 14.3212 20.9379 16.4548 19.583 18.1291C19.3225 18.4511 18.8502 18.5009 18.5282 18.2404C18.2062 17.9798 18.1564 17.5075 18.417 17.1855C19.5637 15.7685 20.25 13.9654 20.25 12C20.25 7.44365 16.5563 3.75 12 3.75ZM4.57958 6.8508C4.93813 7.0582 5.06065 7.517 4.85324 7.87554C4.15173 9.08825 3.75 10.4961 3.75 12C3.75 16.5563 7.44365 20.25 12 20.25C13.697 20.25 15.2723 19.7384 16.5828 18.8612C16.927 18.6308 17.3928 18.723 17.6233 19.0673C17.8537 19.4115 17.7614 19.8773 17.4172 20.1077C15.8675 21.145 14.0033 21.75 12 21.75C6.61522 21.75 2.25 17.3848 2.25 12C2.25 10.2253 2.72481 8.55931 3.55484 7.12446C3.76224 6.76591 4.22104 6.64339 4.57958 6.8508Z" fill="#23294A"/>
<path fill-rule="evenodd" clip-rule="evenodd" d="M10.5596 8.72365C11.394 8.02831 12.606 8.02832 13.4404 8.72365L14.8799 9.9232C15.4728 10.4173 15.7185 11.2148 15.5065 11.9569L14.9698 13.8353C14.7306 14.6724 13.9655 15.2496 13.0948 15.2496H10.9052C10.0345 15.2496 9.26937 14.6724 9.03019 13.8353L8.49351 11.9569C8.28146 11.2148 8.52715 10.4173 9.12013 9.9232L10.5596 8.72365ZM12.4801 9.87598C12.202 9.6442 11.798 9.6442 11.5199 9.87598L10.0804 11.0755C9.94356 11.1896 9.88686 11.3736 9.9358 11.5449L10.4725 13.4232C10.5277 13.6164 10.7042 13.7496 10.9052 13.7496H13.0948C13.2958 13.7496 13.4723 13.6164 13.5275 13.4232L14.0642 11.5449C14.1131 11.3736 14.0564 11.1896 13.9196 11.0755L12.4801 9.87598Z" fill="#23294A"/>
<path fill-rule="evenodd" clip-rule="evenodd" d="M8.46967 2.96967C8.76256 2.67678 9.23744 2.67678 9.53033 2.96967L10.7626 4.2019C11.446 4.88532 12.554 4.88532 13.2374 4.2019L14.4697 2.96967C14.7626 2.67678 15.2374 2.67678 15.5303 2.96967C15.8232 3.26256 15.8232 3.73744 15.5303 4.03033L14.2981 5.26256C13.0289 6.53177 10.9711 6.53177 9.7019 5.26256L8.46967 4.03033C8.17678 3.73744 8.17678 3.26256 8.46967 2.96967Z" fill="#23294A"/>
<path fill-rule="evenodd" clip-rule="evenodd" d="M9.9194 18.2572C11.1247 17.2528 12.8754 17.2528 14.0806 18.2572L15.4801 19.4235C15.7983 19.6886 15.8413 20.1616 15.5762 20.4798C15.311 20.798 14.8381 20.841 14.5199 20.5758L13.1203 19.4095C12.4713 18.8687 11.5287 18.8687 10.8797 19.4095L9.48014 20.5758C9.16193 20.841 8.68901 20.798 8.42384 20.4798C8.15866 20.1616 8.20166 19.6886 8.51987 19.4235L9.9194 18.2572Z" fill="#23294A"/>
<path fill-rule="evenodd" clip-rule="evenodd" d="M21.0303 8.46967C21.3232 8.76256 21.3232 9.23744 21.0303 9.53033L19.091 11.4697C18.7981 11.7626 18.7981 12.2374 19.091 12.5303L21.0303 14.4697C21.3232 14.7626 21.3232 15.2374 21.0303 15.5303C20.7374 15.8232 20.2626 15.8232 19.9697 15.5303L18.0303 13.591C17.1517 12.7123 17.1517 11.2877 18.0303 10.409L19.9697 8.46967C20.2626 8.17678 20.7374 8.17678 21.0303 8.46967Z" fill="#23294A"/>
<path fill-rule="evenodd" clip-rule="evenodd" d="M2.96967 8.46967C3.26256 8.17678 3.73744 8.17678 4.03033 8.46967L5.96967 10.409C6.84835 11.2877 6.84835 12.7123 5.96967 13.591L4.03033 15.5303C3.73744 15.8232 3.26256 15.8232 2.96967 15.5303C2.67678 15.2374 2.67678 14.7626 2.96967 14.4697L4.90901 12.5303C5.2019 12.2374 5.2019 11.7626 4.90901 11.4697L2.96967 9.53033C2.67678 9.23744 2.67678 8.76256 2.96967 8.46967Z" fill="#23294A"/>
</svg>
