<svg width="24" height="24" viewBox="0 0 24 24" fill="none" xmlns="http://www.w3.org/2000/svg">
<path fill-rule="evenodd" clip-rule="evenodd" d="M8.51879 5.13194C10.5896 3.6075 13.4123 3.60888 15.4826 5.13297C18.0194 7.00051 18.635 10.5379 16.8746 13.1512L16.1458 14.2331C15.5619 15.0998 15.25 16.1212 15.25 17.1662V18.0005C15.25 18.4147 14.9142 18.7505 14.5 18.7505C14.0858 18.7505 13.75 18.4147 13.75 18.0005V17.1662C13.75 15.8226 14.151 14.5095 14.9017 13.395L15.6305 12.3132C16.9413 10.3674 16.4833 7.7323 14.5933 6.34094C13.0515 5.20587 10.9494 5.2052 9.40806 6.33991C7.5182 7.73117 7.06381 10.3663 8.37857 12.3102L9.14379 13.4415C9.86472 14.5074 10.25 15.7648 10.25 17.0516C10.25 17.1614 10.3391 17.2505 10.4489 17.2505H12C12.4142 17.2505 12.75 17.5863 12.75 18.0005C12.75 18.4147 12.4142 18.7505 12 18.7505H10.4489C9.51064 18.7505 8.75 17.9899 8.75 17.0516C8.75 16.0643 8.45441 15.0997 7.90131 14.2819L8.52255 13.8617L7.90131 14.2819L7.13608 13.1505C5.37024 10.5398 5.98053 7.00053 8.51879 5.13194Z" fill="#23294A"/>
<path fill-rule="evenodd" clip-rule="evenodd" d="M12 9.25C12.4142 9.25 12.75 9.58579 12.75 10V12C12.75 12.4142 12.4142 12.75 12 12.75C11.5858 12.75 11.25 12.4142 11.25 12V10C11.25 9.58579 11.5858 9.25 12 9.25ZM12 13.25C12.4142 13.25 12.75 13.5858 12.75 14V18C12.75 18.4142 12.4142 18.75 12 18.75C11.5858 18.75 11.25 18.4142 11.25 18V14C11.25 13.5858 11.5858 13.25 12 13.25Z" fill="#23294A"/>
<path fill-rule="evenodd" clip-rule="evenodd" d="M9.75 11C9.75 10.5858 10.0858 10.25 10.5 10.25H13.5C13.9142 10.25 14.25 10.5858 14.25 11C14.25 11.4142 13.9142 11.75 13.5 11.75H10.5C10.0858 11.75 9.75 11.4142 9.75 11Z" fill="#23294A"/>
<path fill-rule="evenodd" clip-rule="evenodd" d="M9.75 20C9.75 19.5858 10.0858 19.25 10.5 19.25H13.5C13.9142 19.25 14.25 19.5858 14.25 20C14.25 20.4142 13.9142 20.75 13.5 20.75H10.5C10.0858 20.75 9.75 20.4142 9.75 20Z" fill="#23294A"/>
</svg>
