<svg width="24" height="24" viewBox="0 0 24 24" fill="none" xmlns="http://www.w3.org/2000/svg">
<path fill-rule="evenodd" clip-rule="evenodd" d="M8.00731 4.51617C10.3823 2.827 13.6141 2.8285 15.9886 4.51733C18.9084 6.59396 19.6292 10.547 17.5912 13.4699C17.3543 13.8097 16.8868 13.8931 16.547 13.6562C16.2072 13.4192 16.1238 12.9517 16.3607 12.612C17.9184 10.3781 17.3823 7.34927 15.1193 5.7397C13.2648 4.42071 10.7307 4.41988 8.8767 5.73853C6.6137 7.34805 6.0819 10.377 7.64433 12.6087L8.54024 13.8885C9.37325 15.0783 9.82022 16.4848 9.82022 17.9267C9.82022 18.0811 9.95726 18.25 10.1812 18.25H13.8218C14.041 18.25 14.1741 18.0849 14.1741 17.9351C14.1741 16.9933 14.3662 16.0663 14.7334 15.2057C14.8959 14.8247 15.3365 14.6476 15.7175 14.8102C16.0985 14.9727 16.2756 15.4133 16.113 15.7943C15.8244 16.4708 15.6741 17.1977 15.6741 17.9351C15.6741 18.9616 14.8202 19.75 13.8218 19.75H10.1812C9.17798 19.75 8.32022 18.9578 8.32022 17.9267C8.32022 16.7963 7.97003 15.6895 7.31143 14.7487L6.41553 13.469C4.37126 10.5489 5.08597 6.59392 8.00731 4.51617Z" fill="#23294A"/>
<path fill-rule="evenodd" clip-rule="evenodd" d="M9.75 21C9.75 20.5858 10.0858 20.25 10.5 20.25H13.5C13.9142 20.25 14.25 20.5858 14.25 21C14.25 21.4142 13.9142 21.75 13.5 21.75H10.5C10.0858 21.75 9.75 21.4142 9.75 21Z" fill="#23294A"/>
<path fill-rule="evenodd" clip-rule="evenodd" d="M13.0303 6.96967C13.3232 7.26256 13.3232 7.73744 13.0303 8.03033L12.3209 8.73976C12.3117 8.74898 12.3084 8.75614 12.3067 8.76172C12.3046 8.76861 12.3036 8.77779 12.3053 8.78818C12.307 8.79857 12.3108 8.80698 12.315 8.81284C12.3184 8.81759 12.3238 8.82335 12.3354 8.82918C13.2852 9.3041 13.4907 10.57 12.7398 11.3209L12.0303 12.0303C11.7374 12.3232 11.2626 12.3232 10.9697 12.0303C10.6768 11.7374 10.6768 11.2626 10.9697 10.9697L11.6791 10.2602C11.6883 10.251 11.6916 10.2439 11.6933 10.2383C11.6954 10.2314 11.6964 10.2222 11.6947 10.2118C11.693 10.2014 11.6892 10.193 11.685 10.1872C11.6816 10.1824 11.6762 10.1767 11.6646 10.1708C10.7148 9.6959 10.5093 8.43001 11.2602 7.6791L11.9697 6.96967C12.2626 6.67678 12.7374 6.67678 13.0303 6.96967Z" fill="#23294A"/>
</svg>
