<svg width="24" height="24" viewBox="0 0 24 24" fill="none" xmlns="http://www.w3.org/2000/svg">
<path fill-rule="evenodd" clip-rule="evenodd" d="M9.75 11.5C9.75 11.0858 10.0858 10.75 10.5 10.75H13.5C13.9142 10.75 14.25 11.0858 14.25 11.5C14.25 11.9142 13.9142 12.25 13.5 12.25H10.5C10.0858 12.25 9.75 11.9142 9.75 11.5Z" fill="#23294A"/>
<path fill-rule="evenodd" clip-rule="evenodd" d="M9.75 20.5C9.75 20.0858 10.0858 19.75 10.5 19.75H13.5C13.9142 19.75 14.25 20.0858 14.25 20.5C14.25 20.9142 13.9142 21.25 13.5 21.25H10.5C10.0858 21.25 9.75 20.9142 9.75 20.5Z" fill="#23294A"/>
<path fill-rule="evenodd" clip-rule="evenodd" d="M18.75 9C18.75 8.58579 19.0858 8.25 19.5 8.25H20.5C20.9142 8.25 21.25 8.58579 21.25 9C21.25 9.41421 20.9142 9.75 20.5 9.75H19.5C19.0858 9.75 18.75 9.41421 18.75 9Z" fill="#23294A"/>
<path fill-rule="evenodd" clip-rule="evenodd" d="M2.75 9C2.75 8.58579 3.08579 8.25 3.5 8.25H4.5C4.91421 8.25 5.25 8.58579 5.25 9C5.25 9.41421 4.91421 9.75 4.5 9.75H3.5C3.08579 9.75 2.75 9.41421 2.75 9Z" fill="#23294A"/>
<path fill-rule="evenodd" clip-rule="evenodd" d="M12 1.25C12.4142 1.25 12.75 1.58579 12.75 2V2.5C12.75 2.91421 12.4142 3.25 12 3.25C11.5858 3.25 11.25 2.91421 11.25 2.5V2C11.25 1.58579 11.5858 1.25 12 1.25Z" fill="#23294A"/>
<path fill-rule="evenodd" clip-rule="evenodd" d="M4.96967 3.96967C5.26256 3.67678 5.73744 3.67678 6.03033 3.96967L6.53033 4.46967C6.82322 4.76256 6.82322 5.23744 6.53033 5.53033C6.23744 5.82322 5.76256 5.82322 5.46967 5.53033L4.96967 5.03033C4.67678 4.73744 4.67678 4.26256 4.96967 3.96967Z" fill="#23294A"/>
<path fill-rule="evenodd" clip-rule="evenodd" d="M19.0303 3.96967C19.3232 4.26256 19.3232 4.73744 19.0303 5.03033L18.5303 5.53033C18.2374 5.82322 17.7626 5.82322 17.4697 5.53033C17.1768 5.23744 17.1768 4.76256 17.4697 4.46967L17.9697 3.96967C18.2626 3.67678 18.7374 3.67678 19.0303 3.96967Z" fill="#23294A"/>
<path fill-rule="evenodd" clip-rule="evenodd" d="M12 9.25C12.4142 9.25 12.75 9.58579 12.75 10V12C12.75 12.4142 12.4142 12.75 12 12.75C11.5858 12.75 11.25 12.4142 11.25 12V10C11.25 9.58579 11.5858 9.25 12 9.25ZM12 13.25C12.4142 13.25 12.75 13.5858 12.75 14V18C12.75 18.4142 12.4142 18.75 12 18.75C11.5858 18.75 11.25 18.4142 11.25 18V14C11.25 13.5858 11.5858 13.25 12 13.25Z" fill="#23294A"/>
<path fill-rule="evenodd" clip-rule="evenodd" d="M8.51879 5.13194C10.5896 3.6075 13.4123 3.60888 15.4826 5.13297C18.0194 7.00051 18.635 10.5379 16.8746 13.1512L16.1458 14.2331C15.5619 15.0998 15.25 16.1212 15.25 17.1662V18.0005C15.25 18.4147 14.9142 18.7505 14.5 18.7505C14.0858 18.7505 13.75 18.4147 13.75 18.0005V17.1662C13.75 15.8226 14.151 14.5095 14.9017 13.395L15.6305 12.3132C16.9413 10.3674 16.4833 7.7323 14.5933 6.34094C13.0515 5.20587 10.9494 5.2052 9.40806 6.33991C7.5182 7.73117 7.06381 10.3663 8.37857 12.3102L9.14379 13.4415C9.86472 14.5074 10.25 15.7648 10.25 17.0516C10.25 17.1614 10.3391 17.2505 10.4489 17.2505H12C12.4142 17.2505 12.75 17.5863 12.75 18.0005C12.75 18.4147 12.4142 18.7505 12 18.7505H10.4489C9.51064 18.7505 8.75 17.9899 8.75 17.0516C8.75 16.0643 8.45441 15.0997 7.90131 14.2819L8.52255 13.8617L7.90131 14.2819L7.13608 13.1505C5.37024 10.5398 5.98053 7.00053 8.51879 5.13194Z" fill="#23294A"/>
</svg>
