<svg width="24" height="24" viewBox="0 0 24 24" fill="none" xmlns="http://www.w3.org/2000/svg">
<path fill-rule="evenodd" clip-rule="evenodd" d="M14.5303 8.46967C14.8232 8.76256 14.8232 9.23744 14.5303 9.53033L14.1553 9.90533C13.8624 10.1982 13.3876 10.1982 13.0947 9.90533C12.8018 9.61244 12.8018 9.13756 13.0947 8.84467L13.4697 8.46967C13.7626 8.17678 14.2374 8.17678 14.5303 8.46967ZM12.8428 10.1572C13.1357 10.4501 13.1357 10.9249 12.8428 11.2178L11.601 12.4596C11.2691 12.7916 10.7309 12.7916 10.399 12.4596L9.46967 11.5303C9.17678 11.2374 9.17678 10.7626 9.46967 10.4697C9.76256 10.1768 10.2374 10.1768 10.5303 10.4697L11 10.9393L11.7822 10.1572C12.0751 9.86428 12.5499 9.86428 12.8428 10.1572Z" fill="#23294A"/>
<path fill-rule="evenodd" clip-rule="evenodd" d="M4.25 6.5C4.25 4.15279 6.15279 2.25 8.5 2.25H15.5C17.8472 2.25 19.75 4.15279 19.75 6.5V7.5C19.75 7.91421 19.4142 8.25 19 8.25C18.5858 8.25 18.25 7.91421 18.25 7.5V6.5C18.25 4.98122 17.0188 3.75 15.5 3.75H8.5C6.98122 3.75 5.75 4.98122 5.75 6.5V17.9669C5.75 18.8643 6.66756 19.4694 7.4924 19.1159L10.5228 17.8171C11.4661 17.4128 12.5339 17.4128 13.4772 17.8171L16.5076 19.1159C17.3324 19.4694 18.25 18.8643 18.25 17.9669V12C18.25 11.5858 18.5858 11.25 19 11.25C19.4142 11.25 19.75 11.5858 19.75 12V17.9669C19.75 19.9412 17.7314 21.2723 15.9167 20.4946L12.8863 19.1958C12.3203 18.9533 11.6797 18.9533 11.1137 19.1958L8.08328 20.4946C6.26864 21.2723 4.25 19.9412 4.25 17.9669V6.5Z" fill="#23294A"/>
</svg>
