<svg width="24" height="24" viewBox="0 0 24 24" fill="none" xmlns="http://www.w3.org/2000/svg">
<path fill-rule="evenodd" clip-rule="evenodd" d="M7.25881 7.75C6.50842 7.75 5.92714 8.40651 6.01801 9.15137L6.18432 10.5147C6.44446 12.647 8.25488 14.25 10.403 14.25H13.6864C15.8751 14.25 17.7058 12.5878 17.9166 10.4093L18.0413 9.12038C18.1124 8.38589 17.5351 7.75 16.7971 7.75H13.75C13.3358 7.75 13 7.41421 13 7C13 6.58579 13.3358 6.25 13.75 6.25H16.7971C18.4206 6.25 19.6907 7.64895 19.5344 9.26484L19.4097 10.5538C19.1245 13.5011 16.6475 15.75 13.6864 15.75H10.403C7.4967 15.75 5.04731 13.5813 4.69536 10.6963L4.52905 9.33302C4.32913 7.69431 5.60795 6.25 7.25881 6.25H10.25C10.6642 6.25 11 6.58579 11 7C11 7.41421 10.6642 7.75 10.25 7.75H7.25881Z" fill="#23294A"/>
<path fill-rule="evenodd" clip-rule="evenodd" d="M3.27239 4.81828C3.37285 4.41643 3.78005 4.17211 4.1819 4.27257L4.64797 4.38909C5.85211 4.69013 6.819 5.58549 7.21151 6.76301C7.34249 7.15596 7.13012 7.5807 6.73717 7.71169C6.34421 7.84268 5.91947 7.63031 5.78848 7.23735C5.55816 6.54637 4.99077 6.02095 4.28416 5.8443L3.81809 5.72778C3.41625 5.62732 3.17193 5.22012 3.27239 4.81828Z" fill="#23294A"/>
<path fill-rule="evenodd" clip-rule="evenodd" d="M15.5 17.75C15.0858 17.75 14.75 18.0858 14.75 18.5C14.75 18.9142 15.0858 19.25 15.5 19.25C15.9142 19.25 16.25 18.9142 16.25 18.5C16.25 18.0858 15.9142 17.75 15.5 17.75ZM13.25 18.5C13.25 17.2574 14.2574 16.25 15.5 16.25C16.7426 16.25 17.75 17.2574 17.75 18.5C17.75 19.7426 16.7426 20.75 15.5 20.75C14.2574 20.75 13.25 19.7426 13.25 18.5Z" fill="#23294A"/>
<path fill-rule="evenodd" clip-rule="evenodd" d="M8.5 17.75C8.08579 17.75 7.75 18.0858 7.75 18.5C7.75 18.9142 8.08579 19.25 8.5 19.25C8.91421 19.25 9.25 18.9142 9.25 18.5C9.25 18.0858 8.91421 17.75 8.5 17.75ZM6.25 18.5C6.25 17.2574 7.25736 16.25 8.5 16.25C9.74264 16.25 10.75 17.2574 10.75 18.5C10.75 19.7426 9.74264 20.75 8.5 20.75C7.25736 20.75 6.25 19.7426 6.25 18.5Z" fill="#23294A"/>
</svg>
