<svg width="24" height="24" viewBox="0 0 24 24" fill="none" xmlns="http://www.w3.org/2000/svg">
<path fill-rule="evenodd" clip-rule="evenodd" d="M12.2724 5.81828C12.3729 5.41643 12.7801 5.17211 13.182 5.27257C15.9128 5.95527 18.045 8.08748 18.7277 10.8183C18.8281 11.2201 18.5838 11.6273 18.182 11.7278C17.7801 11.8282 17.3729 11.5839 17.2724 11.1821C16.7241 8.98871 15.0115 7.27613 12.8182 6.72778C12.4163 6.62732 12.172 6.22012 12.2724 5.81828Z" fill="#23294A"/>
<path fill-rule="evenodd" clip-rule="evenodd" d="M4.34464 3.50907C5.62739 2.6539 7.36244 3.02015 8.19013 4.32081L9.73196 6.74368C10.4239 7.83109 10.2678 9.25322 9.35643 10.1646L8.84993 10.6711L8.92277 10.8411C9.61591 12.4584 10.8375 13.7898 12.3842 14.6196L12.9347 14.2067C13.8292 13.5359 15.0408 13.4734 15.9996 14.0486L18.2665 15.4088C19.4943 16.1454 19.8924 17.7379 19.1557 18.9656L19.1242 19.0182L18.481 18.6324L19.1242 19.0182C18.7108 19.7071 18.1096 20.2638 17.3911 20.6231L17.0529 20.7922C16.41 21.1136 15.6766 21.2056 14.9743 21.053L15.1336 20.3201L14.9743 21.053L14.709 20.9953C13.385 20.7075 12.1254 20.2586 10.9509 19.6705C10.5805 19.485 10.4306 19.0344 10.616 18.6641C10.8015 18.2937 11.2521 18.1438 11.6224 18.3292C12.6862 18.8618 13.8273 19.2686 15.0277 19.5295L14.8683 20.2624L15.0277 19.5295L15.2929 19.5872C15.6609 19.6672 16.0452 19.619 16.3821 19.4506L16.7203 19.2815L17.0557 19.9523L16.7203 19.2815C17.1837 19.0498 17.5714 18.6907 17.8379 18.2465L17.8695 18.1939L18.4904 18.5664L17.8695 18.1939C18.1799 17.6765 18.0122 17.0055 17.4948 16.6951L15.2278 15.3349C14.792 15.0734 14.2413 15.1018 13.8347 15.4067L13.1017 15.9565L12.6517 15.3565L13.1017 15.9565C12.7573 16.2148 12.2965 16.2564 11.9115 16.0638L12.2469 15.393L11.9115 16.0638C9.9537 15.085 8.40628 13.4438 7.54405 11.432L7.38744 11.0665C7.19642 10.6208 7.296 10.1037 7.63889 9.76085L8.29577 9.10397C8.71005 8.68969 8.78101 8.04327 8.46647 7.54899L6.92464 5.12612C6.54842 4.53491 5.75976 4.36844 5.17669 4.75715L5.02154 4.86058C4.44004 5.24825 4.02391 5.83874 3.8544 6.51675L3.79752 6.7443C3.74841 6.94072 3.73724 7.1447 3.76459 7.34531C4.2474 10.8859 6.00056 14.027 8.57091 16.2779C8.88252 16.5508 8.91391 17.0247 8.64102 17.3363C8.36813 17.6479 7.8943 17.6793 7.58268 17.4064C4.74678 14.9229 2.81124 11.4558 2.27835 7.54798C2.22521 7.15829 2.24692 6.76205 2.3423 6.3805L2.39919 6.15295C2.65919 5.11293 3.29751 4.20716 4.18949 3.61251L4.34464 3.50907Z" fill="#23294A"/>
</svg>
