<svg width="24" height="24" viewBox="0 0 24 24" fill="none" xmlns="http://www.w3.org/2000/svg">
<path fill-rule="evenodd" clip-rule="evenodd" d="M12.2724 5.81828C12.3728 5.41643 12.78 5.17211 13.1819 5.27257C15.9127 5.95527 18.0449 8.08748 18.7276 10.8183C18.8281 11.2201 18.5837 11.6273 18.1819 11.7278C17.78 11.8282 17.3728 11.5839 17.2724 11.1821C16.724 8.98871 15.0115 7.27613 12.8181 6.72778C12.4162 6.62732 12.1719 6.22012 12.2724 5.81828Z" fill="#23294A"/>
<path fill-rule="evenodd" clip-rule="evenodd" d="M14.2724 3.81828C14.3728 3.41643 14.78 3.17211 15.1819 3.27257C17.9127 3.95527 20.0449 6.08748 20.7276 8.81828C20.8281 9.22012 20.5837 9.62732 20.1819 9.72778C19.78 9.82825 19.3728 9.58393 19.2724 9.18208C18.724 6.98871 17.0115 5.27613 14.8181 4.72778C14.4162 4.62732 14.1719 4.22012 14.2724 3.81828Z" fill="#23294A"/>
<path fill-rule="evenodd" clip-rule="evenodd" d="M5.34464 3.7122C6.62739 2.85703 8.36244 3.22328 9.19013 4.52393L10.732 6.9468C11.4239 8.03422 11.2678 9.45635 10.3564 10.3678L9.84993 10.8743L9.92277 11.0442C10.6159 12.6616 11.8375 13.993 13.3842 14.8227L13.9347 14.4099C14.8292 13.739 16.0408 13.6765 16.9996 14.2518L19.2665 15.6119C20.4943 16.3486 20.8924 17.941 20.1557 19.1687L20.1242 19.2214L19.481 18.8355L20.1242 19.2214C19.7108 19.9102 19.1096 20.467 18.3911 20.8262L18.0529 20.9953C17.41 21.3168 16.6766 21.4088 15.9743 21.2561L16.1336 20.5232L15.9743 21.2561L15.709 21.1984C14.385 20.9106 13.1254 20.4617 11.9509 19.8736C11.5805 19.6882 11.4306 19.2376 11.616 18.8672C11.8015 18.4968 12.2521 18.3469 12.6224 18.5323C13.6862 19.0649 14.8273 19.4717 16.0277 19.7327L15.8683 20.4655L16.0277 19.7327L16.2929 19.7903C16.6609 19.8703 17.0452 19.8221 17.3821 19.6537L17.7203 19.4846L18.0557 20.1554L17.7203 19.4846C18.1837 19.2529 18.5714 18.8939 18.8379 18.4496L18.8695 18.397L19.4904 18.7696L18.8695 18.397C19.1799 17.8796 19.0122 17.2086 18.4948 16.8982L16.2278 15.538C15.792 15.2765 15.2413 15.3049 14.8347 15.6099L14.1017 16.1596L13.6517 15.5596L14.1017 16.1596C13.7573 16.4179 13.2965 16.4595 12.9115 16.267L13.2469 15.5961L12.9115 16.267C10.9537 15.2881 9.40628 13.647 8.54405 11.6351L8.38744 11.2697C8.19642 10.824 8.296 10.3069 8.63889 9.96397L9.29577 9.30709C9.71005 8.89282 9.78101 8.2464 9.46647 7.75212L7.92464 5.32925C7.54842 4.73804 6.75976 4.57156 6.17669 4.96028L6.02154 5.06371C5.44004 5.45138 5.02391 6.04187 4.8544 6.71988L4.79752 6.94742C4.74841 7.14384 4.73724 7.34783 4.76459 7.54844C5.2474 11.089 7.00056 14.2301 9.57091 16.4811C9.88252 16.754 9.91391 17.2278 9.64102 17.5394C9.36813 17.851 8.8943 17.8824 8.58268 17.6095C5.74678 15.126 3.81124 11.6589 3.27835 7.75111C3.22521 7.36142 3.24692 6.96517 3.3423 6.58362L3.39919 6.35607C3.65919 5.31606 4.29751 4.41029 5.18949 3.81563L5.34464 3.7122Z" fill="#23294A"/>
</svg>
