<svg width="24" height="24" viewBox="0 0 24 24" fill="none" xmlns="http://www.w3.org/2000/svg">
<path fill-rule="evenodd" clip-rule="evenodd" d="M9.64667 4.75C8.97737 4.75 8.38068 5.17168 8.15724 5.80258C7.78905 6.84215 6.89316 7.60554 5.80833 7.80407L5.75103 7.81456L5.61601 7.07681L5.75103 7.81456C4.59196 8.02667 3.75 9.0367 3.75 10.215V10.6667C3.75 11.0809 3.41421 11.4167 3 11.4167C2.58579 11.4167 2.25 11.0809 2.25 10.6667V10.215C2.25 8.31242 3.60949 6.68156 5.481 6.33906L5.5383 6.32857L5.67332 7.06632L5.5383 6.32857C6.09482 6.22673 6.55442 5.83511 6.74329 5.30181C7.17886 4.07199 8.342 3.25 9.64667 3.25H14.3533C15.658 3.25 16.8211 4.07199 17.2567 5.30181C17.4456 5.83511 17.9052 6.22673 18.4617 6.32857L18.519 6.33906C20.3905 6.68156 21.75 8.31242 21.75 10.215V15.8C21.75 18.5338 19.5338 20.75 16.8 20.75H7.2C4.46619 20.75 2.25 18.5338 2.25 15.8V13.7778C2.25 13.3636 2.58579 13.0278 3 13.0278C3.41421 13.0278 3.75 13.3636 3.75 13.7778V15.8C3.75 17.7054 5.29462 19.25 7.2 19.25H16.8C18.7054 19.25 20.25 17.7054 20.25 15.8V10.215C20.25 9.0367 19.408 8.02667 18.249 7.81456L18.1917 7.80407C17.1068 7.60554 16.2109 6.84215 15.8428 5.80258C15.6193 5.17168 15.0226 4.75 14.3533 4.75H9.64667Z" fill="#23294A"/>
<path fill-rule="evenodd" clip-rule="evenodd" d="M12 10.75C10.7574 10.75 9.75 11.7574 9.75 13C9.75 14.2426 10.7574 15.25 12 15.25C13.2426 15.25 14.25 14.2426 14.25 13C14.25 12.7357 14.2047 12.4836 14.1222 12.2499C13.9841 11.8594 14.1888 11.4309 14.5794 11.2929C14.9699 11.1548 15.3984 11.3595 15.5364 11.7501C15.675 12.142 15.75 12.563 15.75 13C15.75 15.0711 14.0711 16.75 12 16.75C9.92893 16.75 8.25 15.0711 8.25 13C8.25 10.9289 9.92893 9.25 12 9.25C12.52 9.25 13.0172 9.35628 13.4694 9.54902C13.8504 9.71143 14.0277 10.152 13.8652 10.533C13.7028 10.9141 13.2623 11.0913 12.8812 10.9289C12.6116 10.814 12.3142 10.75 12 10.75Z" fill="#23294A"/>
</svg>
