<svg width="24" height="24" viewBox="0 0 24 24" fill="none" xmlns="http://www.w3.org/2000/svg">
<path fill-rule="evenodd" clip-rule="evenodd" d="M4.25 15.5C4.25 13.7051 5.70507 12.25 7.5 12.25C9.29493 12.25 10.75 13.7051 10.75 15.5C10.75 17.2949 9.29493 18.75 7.5 18.75C5.70507 18.75 4.25 17.2949 4.25 15.5ZM7.5 13.75C6.5335 13.75 5.75 14.5335 5.75 15.5C5.75 16.4665 6.5335 17.25 7.5 17.25C8.4665 17.25 9.25 16.4665 9.25 15.5C9.25 14.5335 8.4665 13.75 7.5 13.75Z" fill="#23294A"/>
<path fill-rule="evenodd" clip-rule="evenodd" d="M13.25 7.5C13.25 5.70507 14.7051 4.25 16.5 4.25C18.2949 4.25 19.75 5.70507 19.75 7.5C19.75 9.29493 18.2949 10.75 16.5 10.75C14.7051 10.75 13.25 9.29493 13.25 7.5ZM16.5 5.75C15.5335 5.75 14.75 6.5335 14.75 7.5C14.75 8.4665 15.5335 9.25 16.5 9.25C17.4665 9.25 18.25 8.4665 18.25 7.5C18.25 6.5335 17.4665 5.75 16.5 5.75Z" fill="#23294A"/>
<path fill-rule="evenodd" clip-rule="evenodd" d="M13.25 15.5C13.25 13.7051 14.7051 12.25 16.5 12.25C18.2949 12.25 19.75 13.7051 19.75 15.5C19.75 17.2949 18.2949 18.75 16.5 18.75C14.7051 18.75 13.25 17.2949 13.25 15.5ZM16.5 13.75C15.5335 13.75 14.75 14.5335 14.75 15.5C14.75 16.4665 15.5335 17.25 16.5 17.25C17.4665 17.25 18.25 16.4665 18.25 15.5C18.25 14.5335 17.4665 13.75 16.5 13.75Z" fill="#23294A"/>
<path fill-rule="evenodd" clip-rule="evenodd" d="M7.5 5.75C6.5335 5.75 5.75 6.5335 5.75 7.5C5.75 8.4665 6.5335 9.25 7.5 9.25C8.4665 9.25 9.25 8.4665 9.25 7.5C9.25 7.08579 9.58579 6.75 10 6.75C10.4142 6.75 10.75 7.08579 10.75 7.5C10.75 9.29493 9.29493 10.75 7.5 10.75C5.70507 10.75 4.25 9.29493 4.25 7.5C4.25 5.70507 5.70507 4.25 7.5 4.25C7.96083 4.25 8.40114 4.34636 8.80028 4.52076C9.17984 4.6866 9.3531 5.12873 9.18726 5.5083C9.02143 5.88787 8.57929 6.06113 8.19972 5.89529C7.9864 5.80208 7.75027 5.75 7.5 5.75Z" fill="#23294A"/>
</svg>
