<svg width="24" height="24" viewBox="0 0 24 24" fill="none" xmlns="http://www.w3.org/2000/svg">
<path fill-rule="evenodd" clip-rule="evenodd" d="M4.75 7.7C4.75 5.51848 6.51848 3.75 8.7 3.75H15.3C17.4815 3.75 19.25 5.51848 19.25 7.7C19.25 8.11421 18.9142 8.45 18.5 8.45C18.0858 8.45 17.75 8.11421 17.75 7.7C17.75 6.3469 16.6531 5.25 15.3 5.25H8.7C7.3469 5.25 6.25 6.3469 6.25 7.7V9.8C6.25 11.1531 7.3469 12.25 8.7 12.25H15.3C16.4137 12.25 17.3556 11.5063 17.6526 10.4869C17.7685 10.0892 18.1848 9.86076 18.5824 9.97662C18.9801 10.0925 19.2086 10.5088 19.0927 10.9065C18.6143 12.5488 17.0984 13.75 15.3 13.75H8.7C6.51848 13.75 4.75 11.9815 4.75 9.8V7.7Z" fill="#23294A"/>
<path fill-rule="evenodd" clip-rule="evenodd" d="M9 12.75C9.41421 12.75 9.75 13.0858 9.75 13.5V14C9.75 14.9665 10.5335 15.75 11.5 15.75H12.5C13.4665 15.75 14.25 14.9665 14.25 14V13.5C14.25 13.0858 14.5858 12.75 15 12.75C15.4142 12.75 15.75 13.0858 15.75 13.5V14C15.75 15.7949 14.2949 17.25 12.5 17.25H11.5C9.70507 17.25 8.25 15.7949 8.25 14V13.5C8.25 13.0858 8.58579 12.75 9 12.75Z" fill="#23294A"/>
<path fill-rule="evenodd" clip-rule="evenodd" d="M12 16.25C12.4142 16.25 12.75 16.5858 12.75 17V19.5C12.75 19.9142 12.4142 20.25 12 20.25C11.5858 20.25 11.25 19.9142 11.25 19.5V17C11.25 16.5858 11.5858 16.25 12 16.25Z" fill="#23294A"/>
<path fill-rule="evenodd" clip-rule="evenodd" d="M12.95 5.90004C13.2814 6.14857 13.3485 6.61867 13.1 6.95004L12.4175 7.86011C13.1267 8.18881 13.3816 9.1791 12.7569 9.80383L11.5303 11.0304C11.2374 11.3233 10.7626 11.3233 10.4697 11.0304C10.1768 10.7375 10.1768 10.2626 10.4697 9.96971L11.3322 9.10723C10.7248 8.77822 10.477 7.94741 10.9437 7.32511L11.9 6.05004C12.1485 5.71867 12.6186 5.65152 12.95 5.90004Z" fill="#23294A"/>
</svg>
