<svg width="24" height="24" viewBox="0 0 24 24" fill="none" xmlns="http://www.w3.org/2000/svg">
<path fill-rule="evenodd" clip-rule="evenodd" d="M13.25 12C13.25 11.5858 13.5858 11.25 14 11.25H16C16.4142 11.25 16.75 11.5858 16.75 12C16.75 12.4142 16.4142 12.75 16 12.75H14C13.5858 12.75 13.25 12.4142 13.25 12Z" fill="#23294A"/>
<path fill-rule="evenodd" clip-rule="evenodd" d="M7.25 12C7.25 11.5858 7.58579 11.25 8 11.25H10C10.4142 11.25 10.75 11.5858 10.75 12C10.75 12.4142 10.4142 12.75 10 12.75H8C7.58579 12.75 7.25 12.4142 7.25 12Z" fill="#23294A"/>
<path fill-rule="evenodd" clip-rule="evenodd" d="M12 3.75C7.44365 3.75 3.75 7.44365 3.75 12C3.75 13.5235 4.16227 14.9485 4.88087 16.1718L4.23418 16.5517L4.88087 16.1718C5.01647 16.4027 5.06291 16.6821 4.99782 16.9529L4.29196 19.8904C4.24699 20.0775 4.42146 20.2431 4.60599 20.1885L7.54892 19.3174C7.81032 19.2401 8.08556 19.2689 8.31995 19.386C9.42695 19.9387 10.676 20.25 12 20.25C16.5563 20.25 20.25 16.5563 20.25 12C20.25 11.0462 20.0885 10.1318 19.7919 9.28154C19.6554 8.89045 19.8619 8.46279 20.253 8.32636C20.6441 8.18993 21.0717 8.39637 21.2081 8.78747C21.5594 9.79437 21.75 10.8757 21.75 12C21.75 17.3848 17.3848 21.75 12 21.75C10.5007 21.75 9.07866 21.4111 7.80793 20.8051L5.03172 21.6268C3.73996 22.0092 2.51872 20.8498 2.83347 19.5399L3.49775 16.7755C2.7031 15.3635 2.25 13.7336 2.25 12C2.25 6.61522 6.61522 2.25 12 2.25C13.5552 2.25 15.0274 2.61468 16.3338 3.26388C16.7047 3.44822 16.856 3.89836 16.6716 4.26929C16.4873 4.64023 16.0372 4.79149 15.6662 4.60716C14.5627 4.05873 13.3185 3.75 12 3.75ZM7.97466 20.7558C7.97442 20.7558 7.97418 20.7559 7.97394 20.756L7.97466 20.7558Z" fill="#23294A"/>
</svg>
