<svg width="24" height="24" viewBox="0 0 24 24" fill="none" xmlns="http://www.w3.org/2000/svg">
<path d="M17 12C17 12.5523 16.5523 13 16 13C15.4477 13 15 12.5523 15 12C15 11.4477 15.4477 11 16 11C16.5523 11 17 11.4477 17 12Z" fill="#23294A"/>
<path d="M13 12C13 12.5523 12.5523 13 12 13C11.4477 13 11 12.5523 11 12C11 11.4477 11.4477 11 12 11C12.5523 11 13 11.4477 13 12Z" fill="#23294A"/>
<path d="M9 12C9 12.5523 8.55228 13 8 13C7.44772 13 7 12.5523 7 12C7 11.4477 7.44772 11 8 11C8.55228 11 9 11.4477 9 12Z" fill="#23294A"/>
<path fill-rule="evenodd" clip-rule="evenodd" d="M2.25 7.75C2.25 5.26472 4.26472 3.25 6.75 3.25H16.8C19.5338 3.25 21.75 5.46619 21.75 8.2V14.8C21.75 17.5338 19.5338 19.75 16.8 19.75H16.2426C15.6459 19.75 15.0736 19.9871 14.6516 20.409L13.3789 21.6818C12.6173 22.4433 11.3827 22.4433 10.6211 21.6818L9.34835 20.409C8.92639 19.9871 8.3541 19.75 7.75736 19.75H6.75C4.26472 19.75 2.25 17.7353 2.25 15.25V14.3125C2.25 13.8983 2.58579 13.5625 3 13.5625C3.41421 13.5625 3.75 13.8983 3.75 14.3125V15.25C3.75 16.9069 5.09315 18.25 6.75 18.25H7.75736C8.75192 18.25 9.70575 18.6451 10.409 19.3483L11.6818 20.6211C11.8575 20.7969 12.1425 20.7969 12.3182 20.6211L13.591 19.3484C14.2943 18.6451 15.2481 18.25 16.2426 18.25H16.8C18.7054 18.25 20.25 16.7054 20.25 14.8V8.2C20.25 6.29462 18.7054 4.75 16.8 4.75H6.75C5.09315 4.75 3.75 6.09315 3.75 7.75V8.6875C3.75 9.10171 3.41421 9.4375 3 9.4375C2.58579 9.4375 2.25 9.10171 2.25 8.6875V7.75Z" fill="#23294A"/>
</svg>
