<svg width="24" height="24" viewBox="0 0 24 24" fill="none" xmlns="http://www.w3.org/2000/svg">
<path fill-rule="evenodd" clip-rule="evenodd" d="M12 3.75C7.44365 3.75 3.75 7.44365 3.75 12C3.75 16.5563 7.44365 20.25 12 20.25C14.1135 20.25 16.0397 19.4563 17.4998 18.1495C17.8085 17.8732 18.2826 17.8995 18.5589 18.2081C18.8351 18.5168 18.8088 18.9909 18.5002 19.2672C16.7757 20.8106 14.4967 21.75 12 21.75C6.61522 21.75 2.25 17.3848 2.25 12C2.25 6.61522 6.61522 2.25 12 2.25C17.3848 2.25 21.75 6.61522 21.75 12C21.75 12.4142 21.4142 12.75 21 12.75C20.5858 12.75 20.25 12.4142 20.25 12C20.25 7.44365 16.5563 3.75 12 3.75Z" fill="#23294A"/>
</svg>
