<svg width="24" height="24" viewBox="0 0 24 24" fill="none" xmlns="http://www.w3.org/2000/svg">
<path fill-rule="evenodd" clip-rule="evenodd" d="M7.46967 7.46967C7.76256 7.17678 8.23744 7.17678 8.53033 7.46967L14.2803 13.2197C14.5732 13.5126 14.5732 13.9874 14.2803 14.2803C13.9874 14.5732 13.5126 14.5732 13.2197 14.2803L7.46967 8.53033C7.17678 8.23744 7.17678 7.76256 7.46967 7.46967ZM14.4697 14.4697C14.7626 14.1768 15.2374 14.1768 15.5303 14.4697L16.5303 15.4697C16.8232 15.7626 16.8232 16.2374 16.5303 16.5303C16.2374 16.8232 15.7626 16.8232 15.4697 16.5303L14.4697 15.5303C14.1768 15.2374 14.1768 14.7626 14.4697 14.4697Z" fill="#23294A"/>
<path fill-rule="evenodd" clip-rule="evenodd" d="M16.5303 7.46967C16.8232 7.76256 16.8232 8.23744 16.5303 8.53033L8.53033 16.5303C8.23744 16.8232 7.76256 16.8232 7.46967 16.5303C7.17678 16.2374 7.17678 15.7626 7.46967 15.4697L15.4697 7.46967C15.7626 7.17678 16.2374 7.17678 16.5303 7.46967Z" fill="#23294A"/>
</svg>
