<svg width="24" height="24" viewBox="0 0 24 24" fill="none" xmlns="http://www.w3.org/2000/svg">
<path fill-rule="evenodd" clip-rule="evenodd" d="M14.6517 9.34869C14.9445 9.64158 14.9445 10.1165 14.6517 10.4093L10.409 14.652C10.1161 14.9449 9.64125 14.9449 9.34835 14.652C9.05546 14.3591 9.05546 13.8842 9.34835 13.5913L13.591 9.34869C13.8839 9.0558 14.3588 9.0558 14.6517 9.34869Z" fill="#23294A"/>
<path fill-rule="evenodd" clip-rule="evenodd" d="M9.34835 9.34858C9.64125 9.05568 10.1161 9.05568 10.409 9.34858L10.9393 9.87891C11.2322 10.1718 11.2322 10.6467 10.9393 10.9396C10.6465 11.2325 10.1716 11.2325 9.87868 10.9396L9.34835 10.4092C9.05546 10.1163 9.05546 9.64147 9.34835 9.34858ZM11.4697 11.4699C11.7626 11.177 12.2374 11.177 12.5303 11.4699L14.6517 13.5912C14.9445 13.8841 14.9445 14.359 14.6517 14.6519C14.3588 14.9448 13.8839 14.9448 13.591 14.6519L11.4697 12.5306C11.1768 12.2377 11.1768 11.7628 11.4697 11.4699Z" fill="#23294A"/>
<path fill-rule="evenodd" clip-rule="evenodd" d="M12 3.75C7.44365 3.75 3.75 7.44365 3.75 12C3.75 16.5563 7.44365 20.25 12 20.25C14.1135 20.25 16.0397 19.4563 17.4998 18.1495C17.8085 17.8732 18.2826 17.8995 18.5589 18.2081C18.8351 18.5168 18.8088 18.9909 18.5002 19.2672C16.7757 20.8106 14.4967 21.75 12 21.75C6.61522 21.75 2.25 17.3848 2.25 12C2.25 6.61522 6.61522 2.25 12 2.25C17.3848 2.25 21.75 6.61522 21.75 12C21.75 12.4142 21.4142 12.75 21 12.75C20.5858 12.75 20.25 12.4142 20.25 12C20.25 7.44365 16.5563 3.75 12 3.75Z" fill="#23294A"/>
</svg>
