<svg width="24" height="24" viewBox="0 0 24 24" fill="none" xmlns="http://www.w3.org/2000/svg">
<path fill-rule="evenodd" clip-rule="evenodd" d="M14.6517 9.34869C14.9445 9.64158 14.9445 10.1165 14.6517 10.4093L10.409 14.652C10.1161 14.9449 9.64125 14.9449 9.34835 14.652C9.05546 14.3591 9.05546 13.8842 9.34835 13.5913L13.591 9.34869C13.8839 9.0558 14.3588 9.0558 14.6517 9.34869Z" fill="#23294A"/>
<path fill-rule="evenodd" clip-rule="evenodd" d="M2.25 8C2.25 4.82436 4.82436 2.25 8 2.25H16C19.1756 2.25 21.75 4.82436 21.75 8V16C21.75 19.1756 19.1756 21.75 16 21.75H8C4.82436 21.75 2.25 19.1756 2.25 16V13.5C2.25 13.0858 2.58579 12.75 3 12.75C3.41421 12.75 3.75 13.0858 3.75 13.5V16C3.75 18.3472 5.65279 20.25 8 20.25H16C18.3472 20.25 20.25 18.3472 20.25 16V8C20.25 5.65279 18.3472 3.75 16 3.75H8C5.65279 3.75 3.75 5.65279 3.75 8V10C3.75 10.4142 3.41421 10.75 3 10.75C2.58579 10.75 2.25 10.4142 2.25 10V8Z" fill="#23294A"/>
<path fill-rule="evenodd" clip-rule="evenodd" d="M9.34837 9.34858C9.64126 9.05568 10.1161 9.05568 10.409 9.34858L10.9394 9.87891C11.2323 10.1718 11.2323 10.6467 10.9394 10.9396C10.6465 11.2325 10.1716 11.2325 9.8787 10.9396L9.34837 10.4092C9.05548 10.1163 9.05548 9.64147 9.34837 9.34858ZM11.4697 11.4699C11.7626 11.177 12.2375 11.177 12.5303 11.4699L14.6517 13.5912C14.9446 13.8841 14.9446 14.359 14.6517 14.6519C14.3588 14.9448 13.8839 14.9448 13.591 14.6519L11.4697 12.5306C11.1768 12.2377 11.1768 11.7628 11.4697 11.4699Z" fill="#23294A"/>
</svg>
