<svg width="24" height="24" viewBox="0 0 24 24" fill="none" xmlns="http://www.w3.org/2000/svg">
<path fill-rule="evenodd" clip-rule="evenodd" d="M9.60004 5.44095C10.995 4.08574 12.9005 3.25 15 3.25C19.2802 3.25 22.75 6.71979 22.75 11C22.75 15.2463 19.335 18.6949 15.1015 18.7493C14.7173 18.7664 14.3771 18.487 14.3256 18.0985C14.2712 17.6879 14.56 17.3109 14.9706 17.2565L15.0186 17.2501L15.0643 17.2497C18.4864 17.2153 21.25 14.4303 21.25 11C21.25 7.54822 18.4518 4.75 15 4.75C13.2528 4.75 11.6741 5.46598 10.5391 6.62245C10.2374 6.92982 9.79459 7.04606 9.38439 6.93425C8.94418 6.81427 8.48019 6.75 8 6.75C5.10051 6.75 2.75 9.10051 2.75 12C2.75 14.8995 5.10051 17.25 8 17.25L8.0186 17.25C8.43281 17.2486 8.76973 17.5832 8.77114 17.9974C8.77254 18.4116 8.43789 18.7486 8.02368 18.75L8 18.75C4.27208 18.75 1.25 15.7279 1.25 12C1.25 8.27208 4.27208 5.25 8 5.25C8.55045 5.25 9.08643 5.31604 9.60004 5.44095Z" fill="#23294A"/>
</svg>
