<svg width="24" height="24" viewBox="0 0 24 24" fill="none" xmlns="http://www.w3.org/2000/svg">
<path fill-rule="evenodd" clip-rule="evenodd" d="M7.25 8.2C7.25 5.46619 9.46619 3.25 12.2 3.25H15.8C18.5338 3.25 20.75 5.46619 20.75 8.2V8.5C20.75 8.91421 20.4142 9.25 20 9.25C19.5858 9.25 19.25 8.91421 19.25 8.5V8.2C19.25 6.29462 17.7054 4.75 15.8 4.75H12.2C10.2946 4.75 8.75 6.29462 8.75 8.2V11.8C8.75 13.7054 10.2946 15.25 12.2 15.25H15.8C17.7054 15.25 19.25 13.7054 19.25 11.8V11.5C19.25 11.0858 19.5858 10.75 20 10.75C20.4142 10.75 20.75 11.0858 20.75 11.5V11.8C20.75 14.5338 18.5338 16.75 15.8 16.75H12.2C9.46619 16.75 7.25 14.5338 7.25 11.8V8.2Z" fill="#23294A"/>
<path fill-rule="evenodd" clip-rule="evenodd" d="M3.25 13C3.25 10.3766 5.37665 8.25 8 8.25C8.41421 8.25 8.75 8.58579 8.75 9C8.75 9.41421 8.41421 9.75 8 9.75C6.20507 9.75 4.75 11.2051 4.75 13V16.5C4.75 18.2949 6.20507 19.75 8 19.75C8.41421 19.75 8.75 20.0858 8.75 20.5C8.75 20.9142 8.41421 21.25 8 21.25C5.37665 21.25 3.25 19.1234 3.25 16.5V13ZM14.5 15.25C14.9142 15.25 15.25 15.5858 15.25 16V16.5C15.25 19.1234 13.1234 21.25 10.5 21.25H10C9.58579 21.25 9.25 20.9142 9.25 20.5C9.25 20.0858 9.58579 19.75 10 19.75H10.5C12.2949 19.75 13.75 18.2949 13.75 16.5V16C13.75 15.5858 14.0858 15.25 14.5 15.25Z" fill="#23294A"/>
</svg>
