<svg width="24" height="24" viewBox="0 0 24 24" fill="none" xmlns="http://www.w3.org/2000/svg">
<path fill-rule="evenodd" clip-rule="evenodd" d="M12.2109 5.22808C12.1127 5.07371 11.8873 5.07371 11.7891 5.22809L9.62734 8.62512C9.11242 9.43427 7.96786 9.52954 7.32625 8.81665L4.75 5.95414V14.4997C4.75 16.2946 6.20507 17.7497 8 17.7497H10C10.4142 17.7497 10.75 18.0855 10.75 18.4997C10.75 18.9139 10.4142 19.2497 10 19.2497H8C5.37665 19.2497 3.25 17.123 3.25 14.4997V5.82385C3.25 4.49494 4.88879 3.86608 5.77778 4.85385L8.39717 7.76429L10.5236 4.42277C11.2113 3.34215 12.7887 3.34215 13.4764 4.42277L15.6028 7.76429L18.2222 4.85385C19.1112 3.86608 20.75 4.49494 20.75 5.82385V14.4997C20.75 17.123 18.6234 19.2497 16 19.2497H14C13.5858 19.2497 13.25 18.9139 13.25 18.4997C13.25 18.0855 13.5858 17.7497 14 17.7497H16C17.7949 17.7497 19.25 16.2946 19.25 14.4997V5.95414L16.6737 8.81665C16.0321 9.52954 14.8876 9.43427 14.3727 8.62512L12.2109 5.22808L12.8377 4.82921L12.2109 5.22808Z" fill="#23294A"/>
</svg>
