<svg width="24" height="24" viewBox="0 0 24 24" fill="none" xmlns="http://www.w3.org/2000/svg">
<path fill-rule="evenodd" clip-rule="evenodd" d="M10.275 5.13018C11.3424 4.5139 12.6576 4.5139 13.725 5.13018L17.0872 7.07134C18.1546 7.68762 18.8122 8.82656 18.8122 10.0591V13.9513C18.8122 15.1778 18.1579 16.3111 17.0958 16.9243C16.737 17.1314 16.2783 17.0085 16.0712 16.6498C15.8641 16.291 15.987 15.8323 16.3458 15.6252C16.9438 15.28 17.3122 14.6419 17.3122 13.9513V10.0591C17.3122 9.36246 16.9405 8.71871 16.3372 8.37037L12.975 6.42922C12.3717 6.08089 11.6283 6.08089 11.025 6.42922L7.66284 8.37037C7.0595 8.71871 6.68784 9.36245 6.68784 10.0591V13.9414C6.68784 14.6381 7.0595 15.2818 7.66284 15.6302L11.025 17.5713C11.6283 17.9197 12.3717 17.9197 12.975 17.5713L14.2772 16.8195C14.6359 16.6124 15.0946 16.7353 15.3017 17.094C15.5088 17.4527 15.3859 17.9114 15.0272 18.1185L13.725 18.8704C12.6576 19.4867 11.3424 19.4867 10.275 18.8704L6.91284 16.9292C5.8454 16.3129 5.18784 15.174 5.18784 13.9414V10.0591C5.18784 8.82656 5.8454 7.68762 6.91284 7.07134L10.275 5.13018Z" fill="#23294A"/>
<path fill-rule="evenodd" clip-rule="evenodd" d="M17.7133 8.53728C17.9686 8.93124 17.8562 9.45756 17.4622 9.71284L13.0097 12.5981C12.9101 12.6626 12.85 12.7732 12.85 12.8918V17.9995C12.85 18.469 12.4694 18.8495 12 18.8495C11.5306 18.8495 11.15 18.469 11.15 17.9995V12.8918C11.15 12.1969 11.502 11.5493 12.0852 11.1715L16.5378 8.28619C16.9317 8.0309 17.458 8.14332 17.7133 8.53728Z" fill="#23294A"/>
<path fill-rule="evenodd" clip-rule="evenodd" d="M6.27113 8.56222C6.51266 8.15968 7.03478 8.02915 7.43732 8.27067L12.4373 11.2707C12.8399 11.5122 12.9704 12.0343 12.7289 12.4369C12.4873 12.8394 11.9652 12.9699 11.5627 12.7284L6.56268 9.72841C6.16014 9.48689 6.02961 8.96476 6.27113 8.56222Z" fill="#23294A"/>
</svg>
