<svg width="24" height="24" viewBox="0 0 24 24" fill="none" xmlns="http://www.w3.org/2000/svg">
<path fill-rule="evenodd" clip-rule="evenodd" d="M8.84441 6.13607C10.2198 3.66037 13.7803 3.66037 15.1556 6.13607L20.1796 15.1791C21.5682 17.6786 19.7608 20.7503 16.9015 20.7503H7.09857C4.21858 20.7503 2.46591 17.6174 3.84441 15.1361L5.09441 12.8861C5.29557 12.524 5.75218 12.3935 6.11426 12.5947C6.47635 12.7958 6.60681 13.2524 6.40565 13.6145L5.15565 15.8645C4.31238 17.3824 5.40367 19.2503 7.09857 19.2503H16.9015C18.6171 19.2503 19.7015 17.4073 18.8683 15.9076L13.8444 6.86454C13.0405 5.41755 10.9595 5.41755 10.1556 6.86454L8.90565 9.11454C8.70449 9.47663 8.24789 9.60708 7.8858 9.40592C7.52371 9.20476 7.39325 8.74816 7.59441 8.38607L8.84441 6.13607Z" fill="#23294A"/>
<path fill-rule="evenodd" clip-rule="evenodd" d="M12 13.75C11.5858 13.75 11.25 13.4142 11.25 13L11.25 10C11.25 9.58579 11.5858 9.25 12 9.25C12.4142 9.25 12.75 9.58579 12.75 10L12.75 13C12.75 13.4142 12.4142 13.75 12 13.75Z" fill="#23294A"/>
<path d="M13 16C13 16.5523 12.5523 17 12 17C11.4477 17 11 16.5523 11 16C11 15.4477 11.4477 15 12 15C12.5523 15 13 15.4477 13 16Z" fill="#23294A"/>
</svg>
