<svg width="24" height="24" viewBox="0 0 24 24" fill="none" xmlns="http://www.w3.org/2000/svg">
<path fill-rule="evenodd" clip-rule="evenodd" d="M2.25 13.5C2.25 12.8096 2.80964 12.25 3.5 12.25H6.55848C7.74217 12.25 8.79305 13.0074 9.16736 14.1304L9.25566 14.3953C9.42581 14.9057 9.90348 15.25 10.4415 15.25H13.5585C14.0965 15.25 14.5742 14.9057 14.7443 14.3953L15.4558 14.6325L14.7443 14.3953L14.8326 14.1304C15.207 13.0074 16.2578 12.25 17.4415 12.25H20.5C20.9142 12.25 21.25 12.5858 21.25 13C21.25 13.4142 20.9142 13.75 20.5 13.75H17.4415C16.9035 13.75 16.4258 14.0943 16.2557 14.6047L15.5442 14.3675L16.2557 14.6047L16.1674 14.8696C15.793 15.9926 14.7422 16.75 13.5585 16.75H10.4415C9.25783 16.75 8.20695 15.9926 7.83264 14.8696L7.74434 14.6047C7.57419 14.0943 7.09652 13.75 6.55848 13.75H3.70732C3.60436 14.0413 3.32655 14.25 3 14.25C2.58579 14.25 2.25 13.9142 2.25 13.5Z" fill="#23294A"/>
<path fill-rule="evenodd" clip-rule="evenodd" d="M2.25 8C2.25 4.82436 4.82436 2.25 8 2.25H16C19.1756 2.25 21.75 4.82436 21.75 8V16C21.75 19.1756 19.1756 21.75 16 21.75H8C4.82436 21.75 2.25 19.1756 2.25 16V13.5C2.25 13.0858 2.58579 12.75 3 12.75C3.41421 12.75 3.75 13.0858 3.75 13.5V16C3.75 18.3472 5.65279 20.25 8 20.25H16C18.3472 20.25 20.25 18.3472 20.25 16V8C20.25 5.65279 18.3472 3.75 16 3.75H8C5.65279 3.75 3.75 5.65279 3.75 8V9C3.75 9.41421 3.41421 9.75 3 9.75C2.58579 9.75 2.25 9.41421 2.25 9V8Z" fill="#23294A"/>
</svg>
