<svg width="24" height="24" viewBox="0 0 24 24" fill="none" xmlns="http://www.w3.org/2000/svg">
<path d="M16 15C16 15.5523 15.5523 16 15 16C14.4477 16 14 15.5523 14 15C14 14.4477 14.4477 14 15 14C15.5523 14 16 14.4477 16 15Z" fill="#23294A"/>
<path d="M10 9C10 9.55228 9.55228 10 9 10C8.44772 10 8 9.55228 8 9C8 8.44772 8.44772 8 9 8C9.55228 8 10 8.44772 10 9Z" fill="#23294A"/>
<path fill-rule="evenodd" clip-rule="evenodd" d="M15.5303 8.46967C15.8232 8.76256 15.8232 9.23744 15.5303 9.53033L13.2803 11.7803C12.9874 12.0732 12.5126 12.0732 12.2197 11.7803C11.9268 11.4874 11.9268 11.0126 12.2197 10.7197L14.4697 8.46967C14.7626 8.17678 15.2374 8.17678 15.5303 8.46967ZM11.7803 12.2197C12.0732 12.5126 12.0732 12.9874 11.7803 13.2803L9.53033 15.5303C9.23744 15.8232 8.76256 15.8232 8.46967 15.5303C8.17678 15.2374 8.17678 14.7626 8.46967 14.4697L10.7197 12.2197C11.0126 11.9268 11.4874 11.9268 11.7803 12.2197Z" fill="#23294A"/>
<path fill-rule="evenodd" clip-rule="evenodd" d="M12.8839 3.94424C12.3957 3.45609 11.6043 3.45609 11.1161 3.94424L10.1161 4.94424C9.6004 5.45997 8.90092 5.7497 8.17158 5.7497H7C6.30965 5.7497 5.75 6.30934 5.75 6.9997V8.17127C5.75 8.90062 5.46027 9.60009 4.94455 10.1158L3.94455 11.1158C3.45639 11.604 3.45639 12.3954 3.94455 12.8836L4.94455 13.8836C5.46027 14.3993 5.75 15.0988 5.75 15.8281V16.9997C5.75 17.6901 6.30965 18.2497 7 18.2497H8.17158C8.90092 18.2497 9.60039 18.5394 10.1161 19.0552L11.1161 20.0552C11.6043 20.5433 12.3957 20.5433 12.8839 20.0552L13.8839 19.0552C14.3996 18.5394 15.0991 18.2497 15.8284 18.2497H17C17.6904 18.2497 18.25 17.6901 18.25 16.9997V15.8281C18.25 15.0988 18.5397 14.3993 19.0555 13.8836L20.0555 12.8836C20.5436 12.3954 20.5436 11.604 20.0555 11.1158L19.0555 10.1158C18.5397 9.60009 18.25 8.90062 18.25 8.17127V6.9997C18.25 6.69547 18.1423 6.41838 17.9621 6.20157C17.6974 5.883 17.741 5.41014 18.0596 5.14539C18.3781 4.88065 18.851 4.92428 19.1157 5.24285C19.5114 5.719 19.75 6.33248 19.75 6.9997V8.17127C19.75 8.50279 19.8817 8.82073 20.1161 9.05515L21.1161 10.0552C22.1901 11.1291 22.1901 12.8703 21.1161 13.9442L20.1161 14.9442C19.8817 15.1787 19.75 15.4966 19.75 15.8281V16.9997C19.75 18.5185 18.5188 19.7497 17 19.7497H15.8284C15.4969 19.7497 15.179 19.8814 14.9445 20.1158L13.9445 21.1158C12.8706 22.1898 11.1294 22.1898 10.0555 21.1158L9.05546 20.1158C8.82104 19.8814 8.5031 19.7497 8.17158 19.7497H7C5.48122 19.7497 4.25 18.5185 4.25 16.9997V15.8281C4.25 15.4966 4.11831 15.1787 3.88389 14.9442L2.88389 13.9442L3.40665 13.4215L2.88389 13.9442C1.80994 12.8703 1.80994 11.1291 2.88389 10.0552L3.88389 9.05515C4.11831 8.82073 4.25 8.50279 4.25 8.17127V6.9997C4.25 5.48091 5.48122 4.2497 7 4.2497H8.17158C8.5031 4.2497 8.82104 4.118 9.05546 3.88358L10.0555 2.88358C11.1294 1.80964 12.8706 1.80964 13.9445 2.88358C14.2374 3.17648 14.2374 3.65135 13.9445 3.94424C13.6517 4.23714 13.1768 4.23714 12.8839 3.94424Z" fill="#23294A"/>
</svg>
