<svg width="24" height="24" viewBox="0 0 24 24" fill="none" xmlns="http://www.w3.org/2000/svg">
<path fill-rule="evenodd" clip-rule="evenodd" d="M3.25 6C3.25 3.92893 4.92893 2.25 7 2.25H13.5617C14.5955 2.25 15.5714 2.72728 16.206 3.5433L19.5443 7.83538C20.0017 8.42341 20.25 9.14712 20.25 9.89208V18C20.25 20.0711 18.5711 21.75 16.5 21.75H7C4.92893 21.75 3.25 20.0711 3.25 18V14C3.25 13.5858 3.58579 13.25 4 13.25C4.41421 13.25 4.75 13.5858 4.75 14V18C4.75 19.2426 5.75736 20.25 7 20.25H16.5C17.7426 20.25 18.75 19.2426 18.75 18V9.89208C18.75 9.48069 18.6129 9.08103 18.3603 8.75629L15.022 4.46421C14.6715 4.01357 14.1326 3.75 13.5617 3.75H7C5.75736 3.75 4.75 4.75736 4.75 6V10C4.75 10.4142 4.41421 10.75 4 10.75C3.58579 10.75 3.25 10.4142 3.25 10V6Z" fill="#23294A"/>
<path fill-rule="evenodd" clip-rule="evenodd" d="M13 2.25C13.4142 2.25 13.75 2.58579 13.75 3V7.5C13.75 8.4665 14.5335 9.25 15.5 9.25H19C19.4142 9.25 19.75 9.58579 19.75 10C19.75 10.4142 19.4142 10.75 19 10.75H15.5C13.7051 10.75 12.25 9.29493 12.25 7.5V3C12.25 2.58579 12.5858 2.25 13 2.25Z" fill="#23294A"/>
<path fill-rule="evenodd" clip-rule="evenodd" d="M6.25 11C6.25 10.5858 6.58579 10.25 7 10.25H9C9.41421 10.25 9.75 10.5858 9.75 11C9.75 11.4142 9.41421 11.75 9 11.75H7C6.58579 11.75 6.25 11.4142 6.25 11Z" fill="#23294A"/>
<path fill-rule="evenodd" clip-rule="evenodd" d="M6.25 14C6.25 13.5858 6.58579 13.25 7 13.25H11C11.4142 13.25 11.75 13.5858 11.75 14C11.75 14.4142 11.4142 14.75 11 14.75H7C6.58579 14.75 6.25 14.4142 6.25 14Z" fill="#23294A"/>
<path fill-rule="evenodd" clip-rule="evenodd" d="M6.25 17C6.25 16.5858 6.58579 16.25 7 16.25H15C15.4142 16.25 15.75 16.5858 15.75 17C15.75 17.4142 15.4142 17.75 15 17.75H7C6.58579 17.75 6.25 17.4142 6.25 17Z" fill="#23294A"/>
</svg>
