<svg width="24" height="24" viewBox="0 0 24 24" fill="none" xmlns="http://www.w3.org/2000/svg">
<path fill-rule="evenodd" clip-rule="evenodd" d="M8.75 9.66667C8.75 8.33198 9.83198 7.25 11.1667 7.25H12.5C14.0188 7.25 15.25 8.48122 15.25 10C15.25 10.4142 14.9142 10.75 14.5 10.75C14.0858 10.75 13.75 10.4142 13.75 10C13.75 9.30964 13.1904 8.75 12.5 8.75H11.1667C10.6604 8.75 10.25 9.16041 10.25 9.66667C10.25 10.0052 10.4366 10.3162 10.7353 10.4755L13.9706 12.201C14.7581 12.621 15.25 13.4408 15.25 14.3333C15.25 15.668 14.168 16.75 12.8333 16.75H11.5833C10.0185 16.75 8.75 15.4815 8.75 13.9167V13.3333C8.75 12.9191 9.08579 12.5833 9.5 12.5833C9.91421 12.5833 10.25 12.9191 10.25 13.3333V13.9167C10.25 14.653 10.847 15.25 11.5833 15.25H12.8333C13.3396 15.25 13.75 14.8396 13.75 14.3333C13.75 13.9948 13.5634 13.6838 13.2647 13.5245L13.5682 12.9555L13.2647 13.5245L10.0294 11.799C9.24191 11.379 8.75 10.5592 8.75 9.66667Z" fill="#23294A"/>
<path fill-rule="evenodd" clip-rule="evenodd" d="M12 6.25C12.4142 6.25 12.75 6.58579 12.75 7V17C12.75 17.4142 12.4142 17.75 12 17.75C11.5858 17.75 11.25 17.4142 11.25 17V7C11.25 6.58579 11.5858 6.25 12 6.25Z" fill="#23294A"/>
<path fill-rule="evenodd" clip-rule="evenodd" d="M12 3.75C7.44365 3.75 3.75 7.44365 3.75 12C3.75 16.5563 7.44365 20.25 12 20.25C16.5563 20.25 20.25 16.5563 20.25 12C20.25 9.88655 19.4563 7.96026 18.1495 6.50019C17.8533 6.16933 17.5309 5.86251 17.1855 5.58303C16.8636 5.32247 16.8137 4.85021 17.0743 4.52822C17.3349 4.20622 17.8071 4.15641 18.1291 4.41697C18.5369 4.74699 18.9176 5.10922 19.2672 5.49981C20.8106 7.22428 21.75 9.50333 21.75 12C21.75 17.3848 17.3848 21.75 12 21.75C6.61522 21.75 2.25 17.3848 2.25 12C2.25 6.61522 6.61522 2.25 12 2.25C12.7436 2.25 13.4687 2.33338 14.166 2.49161C14.5699 2.58327 14.8231 2.98504 14.7314 3.38898C14.6397 3.79293 14.238 4.04608 13.834 3.95442C13.2449 3.82074 12.6312 3.75 12 3.75Z" fill="#23294A"/>
</svg>
