<svg width="24" height="24" viewBox="0 0 24 24" fill="none" xmlns="http://www.w3.org/2000/svg">
<path fill-rule="evenodd" clip-rule="evenodd" d="M6.5 9.75C4.98122 9.75 3.75 10.9812 3.75 12.5V16.5C3.75 18.0188 4.98122 19.25 6.5 19.25H9.75C10.1642 19.25 10.5 19.5858 10.5 20C10.5 20.4142 10.1642 20.75 9.75 20.75H6.5C4.15279 20.75 2.25 18.8472 2.25 16.5V12.5C2.25 10.1528 4.15279 8.25 6.5 8.25H8.14286C8.55707 8.25 8.89286 8.58579 8.89286 9C8.89286 9.41421 8.55707 9.75 8.14286 9.75H6.5ZM15.1071 9C15.1071 8.58579 15.4429 8.25 15.8571 8.25H17.5C19.8472 8.25 21.75 10.1528 21.75 12.5V16.5C21.75 18.8472 19.8472 20.75 17.5 20.75H14.25C13.8358 20.75 13.5 20.4142 13.5 20C13.5 19.5858 13.8358 19.25 14.25 19.25H17.5C19.0188 19.25 20.25 18.0188 20.25 16.5V12.5C20.25 10.9812 19.0188 9.75 17.5 9.75H15.8571C15.4429 9.75 15.1071 9.41421 15.1071 9Z" fill="#23294A"/>
<path fill-rule="evenodd" clip-rule="evenodd" d="M12 5.25C12.4142 5.25 12.75 5.58579 12.75 6V8C12.75 8.41421 12.4142 8.75 12 8.75C11.5858 8.75 11.25 8.41421 11.25 8V6C11.25 5.58579 11.5858 5.25 12 5.25ZM12 9.25C12.4142 9.25 12.75 9.58579 12.75 10V14C12.75 14.4142 12.4142 14.75 12 14.75C11.5858 14.75 11.25 14.4142 11.25 14V10C11.25 9.58579 11.5858 9.25 12 9.25Z" fill="#23294A"/>
<path fill-rule="evenodd" clip-rule="evenodd" d="M9.46967 12.4697C9.76256 12.1768 10.2374 12.1768 10.5303 12.4697L12 13.9393L13.4697 12.4697C13.7626 12.1768 14.2374 12.1768 14.5303 12.4697C14.8232 12.7626 14.8232 13.2374 14.5303 13.5303L12.6718 15.3889C12.3008 15.7599 11.6992 15.7599 11.3282 15.3889L9.46967 13.5303C9.17678 13.2374 9.17678 12.7626 9.46967 12.4697Z" fill="#23294A"/>
</svg>
