<svg width="24" height="24" viewBox="0 0 24 24" fill="none" xmlns="http://www.w3.org/2000/svg">
<path fill-rule="evenodd" clip-rule="evenodd" d="M12 3.75C9.78563 3.75 7.77637 4.62142 6.29385 6.0416C5.99474 6.32813 5.51997 6.31793 5.23343 6.01882C4.9469 5.7197 4.9571 5.24494 5.25621 4.9584C7.00675 3.28148 9.38371 2.25 12 2.25C17.3848 2.25 21.75 6.61522 21.75 12C21.75 17.3848 17.3848 21.75 12 21.75C6.61522 21.75 2.25 17.3848 2.25 12C2.25 10.7048 2.50296 9.46677 2.96286 8.33407C3.11869 7.95028 3.55613 7.76549 3.93991 7.92131C4.3237 8.07714 4.5085 8.51458 4.35267 8.89837C3.9643 9.85489 3.75 10.9015 3.75 12C3.75 16.5563 7.44365 20.25 12 20.25C16.5563 20.25 20.25 16.5563 20.25 12C20.25 7.44365 16.5563 3.75 12 3.75Z" fill="#23294A"/>
<path fill-rule="evenodd" clip-rule="evenodd" d="M6.962 4.49112C7.24305 4.18684 7.71755 4.16801 8.02183 4.44906C12.3881 8.48206 15.4119 13.7576 16.6851 19.5635L16.7455 19.8394C16.8343 20.244 16.5782 20.6439 16.1736 20.7326C15.769 20.8213 15.3691 20.5652 15.2803 20.1606L15.2199 19.8848C14.0125 14.3787 11.1449 9.37566 7.00406 5.55095C6.69978 5.2699 6.68095 4.7954 6.962 4.49112Z" fill="#23294A"/>
<path fill-rule="evenodd" clip-rule="evenodd" d="M17.5087 4.9489C17.8131 5.22985 17.8321 5.70435 17.5511 6.00871L16.3473 7.31287C13.177 10.7473 8.52088 12.4035 3.89394 11.7425C3.48389 11.6839 3.19896 11.304 3.25754 10.8939C3.31612 10.4839 3.69602 10.199 4.10607 10.2575C8.24468 10.8488 12.4094 9.36739 15.2451 6.29545L16.4489 4.99129C16.7299 4.68693 17.2043 4.66795 17.5087 4.9489Z" fill="#23294A"/>
<path fill-rule="evenodd" clip-rule="evenodd" d="M21.2491 11.9643C21.2688 12.3781 20.9494 12.7295 20.5357 12.7492L17.2386 12.9062C12.9469 13.1105 9.00734 15.3411 6.62403 18.916C6.39426 19.2607 5.92861 19.3538 5.58396 19.1241C5.23932 18.8943 5.14619 18.4286 5.37595 18.084C8.02347 14.1127 12.3998 11.6349 17.1673 11.4079L20.4643 11.2509C20.8781 11.2312 21.2294 11.5506 21.2491 11.9643Z" fill="#23294A"/>
</svg>
