<svg width="24" height="24" viewBox="0 0 24 24" fill="none" xmlns="http://www.w3.org/2000/svg">
<path fill-rule="evenodd" clip-rule="evenodd" d="M7.13091 4.60377C6.43082 4.42455 5.76316 4.98969 5.82428 5.70977L6.35984 12.0196C6.41949 12.7224 6.80524 13.3565 7.40188 13.7327L7.54337 13.8219C7.89376 14.0427 7.99874 14.5059 7.77785 14.8563C7.55695 15.2067 7.09383 15.3116 6.74343 15.0907L6.60194 15.0015C5.60754 14.3747 4.96463 13.3178 4.86522 12.1465L4.32966 5.83663C4.18122 4.08786 5.80267 2.71538 7.50291 3.15063L13.6376 4.72106C14.7764 5.01258 15.7126 5.82123 16.1666 6.90552L17.9765 11.2279C18.0653 11.4399 18.1861 11.6371 18.3346 11.8125L19.6007 13.3084C20.5106 14.3833 20.3768 15.9924 19.3019 16.9022L15.9435 19.745C14.8685 20.6549 13.2595 20.5211 12.3496 19.4461L11.0835 17.9503C10.935 17.7748 10.7605 17.6232 10.566 17.5006L9.55261 16.8617C9.20221 16.6408 9.09723 16.1777 9.31813 15.8273C9.53902 15.4769 10.0021 15.3719 10.3525 15.5928L11.3659 16.2317C11.69 16.436 11.9809 16.6887 12.2284 16.9811L13.4946 18.477C13.8692 18.9196 14.5317 18.9747 14.9744 18.6001L18.3328 15.7573C18.7754 15.3827 18.8305 14.7201 18.4558 14.2775L17.1897 12.7817C16.9422 12.4893 16.7409 12.1606 16.593 11.8073L17.2847 11.5176L16.593 11.8073L14.783 7.48488C14.5106 6.8343 13.9489 6.34912 13.2656 6.1742L7.13091 4.60377Z" fill="#23294A"/>
<path fill-rule="evenodd" clip-rule="evenodd" d="M5.66975 4.20294C5.9859 3.93533 6.45914 3.97469 6.72676 4.29084L9.55333 7.63017C9.82095 7.94633 9.78159 8.41957 9.46543 8.68718C9.14927 8.95479 8.67603 8.91544 8.40842 8.59928L5.58185 5.25996C5.31423 4.9438 5.35359 4.47056 5.66975 4.20294Z" fill="#23294A"/>
<path fill-rule="evenodd" clip-rule="evenodd" d="M11.574 18.5305C11.3064 18.2143 11.3458 17.7411 11.6619 17.4735L17.7681 12.3049C18.0843 12.0372 18.5575 12.0766 18.8251 12.3928C19.0928 12.7089 19.0534 13.1822 18.7372 13.4498L12.631 18.6184C12.3149 18.886 11.8416 18.8466 11.574 18.5305Z" fill="#23294A"/>
</svg>
