<svg width="24" height="24" viewBox="0 0 24 24" fill="none" xmlns="http://www.w3.org/2000/svg">
<path fill-rule="evenodd" clip-rule="evenodd" d="M2.25 8C2.25 4.82436 4.82436 2.25 8 2.25H10C10.4142 2.25 10.75 2.58579 10.75 3C10.75 3.41421 10.4142 3.75 10 3.75H8C5.65279 3.75 3.75 5.65279 3.75 8V16C3.75 18.3472 5.65279 20.25 8 20.25H16C18.3472 20.25 20.25 18.3472 20.25 16V8C20.25 5.65279 18.3472 3.75 16 3.75H15C14.5858 3.75 14.25 3.41421 14.25 3C14.25 2.58579 14.5858 2.25 15 2.25H16C19.1756 2.25 21.75 4.82436 21.75 8V16C21.75 19.1756 19.1756 21.75 16 21.75H8C4.82436 21.75 2.25 19.1756 2.25 16V8Z" fill="#23294A"/>
<path fill-rule="evenodd" clip-rule="evenodd" d="M2.83716 11.1492C3.03096 10.7832 3.48484 10.6435 3.85091 10.8373L10.2454 14.2226C11.343 14.8037 12.657 14.8037 13.7546 14.2226L20.1491 10.8373C20.5152 10.6435 20.969 10.7832 21.1628 11.1492C21.3566 11.5153 21.217 11.9692 20.8509 12.163L14.4564 15.5483C12.9198 16.3618 11.0802 16.3618 9.54359 15.5483L3.14908 12.163C2.783 11.9692 2.64335 11.5153 2.83716 11.1492Z" fill="#23294A"/>
</svg>
