<svg width="24" height="24" viewBox="0 0 24 24" fill="none" xmlns="http://www.w3.org/2000/svg">
<path fill-rule="evenodd" clip-rule="evenodd" d="M10.9231 9.62952C10.8222 9.61825 10.7245 9.66908 10.6759 9.75817L8.6186 13.5262C8.53344 13.6821 8.63364 13.8747 8.81026 13.8944L13.0767 14.3713C13.1776 14.3825 13.2753 14.3317 13.3239 14.2426L15.3812 10.4746C15.4664 10.3186 15.3662 10.1261 15.1895 10.1064L14.2648 10.003C13.8531 9.957 13.5567 9.58599 13.6027 9.17434C13.6487 8.76269 14.0197 8.46628 14.4314 8.51229L15.3562 8.61564C16.5925 8.75382 17.2939 10.1016 16.6977 11.1934L14.6405 14.9614C14.3 15.5851 13.6162 15.9409 12.9101 15.862L8.64365 15.3851C7.40733 15.247 6.70591 13.8992 7.30205 12.8074L9.35932 9.03935C9.69981 8.41573 10.3836 8.05988 11.0897 8.1388L12.0261 8.24346C12.4378 8.28947 12.7342 8.66047 12.6882 9.07213C12.6421 9.48378 12.2711 9.78019 11.8595 9.73418L10.9231 9.62952Z" fill="#23294A"/>
<path fill-rule="evenodd" clip-rule="evenodd" d="M12 3.75C7.44365 3.75 3.75 7.44365 3.75 12C3.75 16.5563 7.44365 20.25 12 20.25C14.1135 20.25 16.0397 19.4563 17.4998 18.1495C17.8085 17.8732 18.2826 17.8995 18.5589 18.2081C18.8351 18.5168 18.8088 18.9909 18.5002 19.2672C16.7757 20.8106 14.4967 21.75 12 21.75C6.61522 21.75 2.25 17.3848 2.25 12C2.25 6.61522 6.61522 2.25 12 2.25C17.3848 2.25 21.75 6.61522 21.75 12C21.75 12.4142 21.4142 12.75 21 12.75C20.5858 12.75 20.25 12.4142 20.25 12C20.25 7.44365 16.5563 3.75 12 3.75Z" fill="#23294A"/>
</svg>
