<svg width="24" height="24" viewBox="0 0 24 24" fill="none" xmlns="http://www.w3.org/2000/svg">
<path fill-rule="evenodd" clip-rule="evenodd" d="M12 3.75C9.10051 3.75 6.75 6.10051 6.75 9C6.75 11.8995 9.10051 14.25 12 14.25C14.8995 14.25 17.25 11.8995 17.25 9C17.25 8.38505 17.1446 7.79634 16.9515 7.24993C16.8134 6.8594 17.0181 6.43091 17.4087 6.29287C17.7992 6.15483 18.2277 6.35953 18.3657 6.75007C18.6148 7.45478 18.75 8.21241 18.75 9C18.75 12.7279 15.7279 15.75 12 15.75C8.27208 15.75 5.25 12.7279 5.25 9C5.25 5.27208 8.27208 2.25 12 2.25C13.2282 2.25 14.3819 2.57872 15.3755 3.15349C15.7341 3.3609 15.8566 3.81969 15.6492 4.17824C15.4418 4.53678 14.983 4.65931 14.6245 4.4519C13.853 4.00564 12.9575 3.75 12 3.75Z" fill="#23294A"/>
<path fill-rule="evenodd" clip-rule="evenodd" d="M12 14.25C12.4142 14.25 12.75 14.5858 12.75 15V21C12.75 21.4142 12.4142 21.75 12 21.75C11.5858 21.75 11.25 21.4142 11.25 21V15C11.25 14.5858 11.5858 14.25 12 14.25Z" fill="#23294A"/>
<path fill-rule="evenodd" clip-rule="evenodd" d="M9.25 19C9.25 18.5858 9.58579 18.25 10 18.25H14C14.4142 18.25 14.75 18.5858 14.75 19C14.75 19.4142 14.4142 19.75 14 19.75H10C9.58579 19.75 9.25 19.4142 9.25 19Z" fill="#23294A"/>
</svg>
