<svg width="24" height="24" viewBox="0 0 24 24" fill="none" xmlns="http://www.w3.org/2000/svg">
<path fill-rule="evenodd" clip-rule="evenodd" d="M12.25 8C12.25 7.58579 12.5858 7.25 13 7.25L14.75 7.25C15.1642 7.25 15.5 7.58579 15.5 8C15.5 8.41421 15.1642 8.75 14.75 8.75L13 8.75C12.5858 8.75 12.25 8.41421 12.25 8ZM17.5 8C17.5 7.58579 17.8358 7.25 18.25 7.25L20 7.25C20.4142 7.25 20.75 7.58579 20.75 8C20.75 8.41421 20.4142 8.75 20 8.75L18.25 8.75C17.8358 8.75 17.5 8.41421 17.5 8Z" fill="#23294A"/>
<path fill-rule="evenodd" clip-rule="evenodd" d="M4.25 16C4.25 15.5858 4.58579 15.25 5 15.25L12 15.25C12.4142 15.25 12.75 15.5858 12.75 16C12.75 16.4142 12.4142 16.75 12 16.75L5 16.75C4.58579 16.75 4.25 16.4142 4.25 16Z" fill="#23294A"/>
<path fill-rule="evenodd" clip-rule="evenodd" d="M8 6.75C7.30964 6.75 6.75 7.30964 6.75 8C6.75 8.69036 7.30964 9.25 8 9.25C8.69036 9.25 9.25 8.69036 9.25 8C9.25 7.30964 8.69036 6.75 8 6.75ZM5.25 8C5.25 6.48122 6.48122 5.25 8 5.25C9.51878 5.25 10.75 6.48122 10.75 8C10.75 9.51878 9.51878 10.75 8 10.75C6.48122 10.75 5.25 9.51878 5.25 8Z" fill="#23294A"/>
<path fill-rule="evenodd" clip-rule="evenodd" d="M17 14.75C16.3096 14.75 15.75 15.3096 15.75 16C15.75 16.6904 16.3096 17.25 17 17.25C17.6904 17.25 18.25 16.6904 18.25 16C18.25 15.3096 17.6904 14.75 17 14.75ZM14.25 16C14.25 14.4812 15.4812 13.25 17 13.25C18.5188 13.25 19.75 14.4812 19.75 16C19.75 17.5188 18.5188 18.75 17 18.75C15.4812 18.75 14.25 17.5188 14.25 16Z" fill="#23294A"/>
</svg>
