<svg width="24" height="24" viewBox="0 0 24 24" fill="none" xmlns="http://www.w3.org/2000/svg">
<path fill-rule="evenodd" clip-rule="evenodd" d="M14.25 4.34528C14.25 4.12503 13.9858 4.0124 13.8269 4.1649L6.33981 11.3495C6.17643 11.5063 6.28899 11.7821 6.51544 11.7799L8.48233 11.76C9.45569 11.7502 10.25 12.5365 10.25 13.5099V19.5039C10.25 19.7294 10.5251 19.8396 10.6808 19.6765L13.367 16.8624C13.653 16.5628 14.1277 16.5518 14.4273 16.8378C14.727 17.1238 14.738 17.5985 14.452 17.8981L11.7659 20.7122C10.6758 21.8542 8.75001 21.0826 8.75001 19.5039V13.5099C8.75001 13.3708 8.63653 13.2585 8.49748 13.2599L6.53059 13.2798C4.94554 13.2958 4.15751 11.3647 5.30124 10.2672L12.7883 3.0826C13.9008 2.01512 15.75 2.80354 15.75 4.34528V9.99975C15.75 10.1378 15.8619 10.2497 16 10.2497H17.663C19.2026 10.2497 19.9919 12.0944 18.9289 13.2081L16.2428 16.0221C15.9568 16.3217 15.482 16.3328 15.1824 16.0468C14.8828 15.7608 14.8717 15.286 15.1577 14.9864L17.8439 12.1724C17.9957 12.0133 17.8829 11.7497 17.663 11.7497H16C15.0335 11.7497 14.25 10.9662 14.25 9.99975V4.34528Z" fill="#23294A"/>
</svg>
