<svg width="24" height="24" viewBox="0 0 24 24" fill="none" xmlns="http://www.w3.org/2000/svg">
<path fill-rule="evenodd" clip-rule="evenodd" d="M11.3505 5.75C11.2558 5.75 11.1692 5.8035 11.1268 5.8882L7.77647 12.5889C7.72244 12.697 7.75342 12.8283 7.85008 12.9007L7.40008 13.5007L7.85008 12.9007L10.7824 15.1C11.2231 15.4305 11.4824 15.9492 11.4824 16.5V18.899C11.4824 19.1095 11.7267 19.2258 11.8901 19.0931L16.9605 14.9734C17.1073 14.8541 17.0736 14.6213 16.899 14.5486L13.6027 13.1751C12.5648 12.7426 12.1982 11.4576 12.8518 10.5426L13.637 9.44326C13.8777 9.1062 14.3462 9.02813 14.6832 9.26889C15.0203 9.50964 15.0983 9.97806 14.8576 10.3151L14.0724 11.4144C13.979 11.5451 14.0314 11.7287 14.1796 11.7905L17.4759 13.1639C18.698 13.6732 18.9339 15.3026 17.9064 16.1375L12.836 20.2572C11.6923 21.1864 9.98242 20.3726 9.98242 18.899V16.5C9.98242 16.4213 9.94537 16.3472 9.88242 16.3L6.95008 14.1007C6.27348 13.5933 6.0566 12.6746 6.43483 11.9181L9.7852 5.21738L10.456 5.55279L9.7852 5.21738C10.0816 4.6245 10.6876 4.25 11.3505 4.25H15.7892C17.2126 4.25 18.0406 5.8589 17.2133 7.01717L16.428 8.11648C16.1873 8.45354 15.7189 8.53161 15.3818 8.29085C15.0447 8.0501 14.9667 7.58168 15.2074 7.24463L15.9927 6.14531C16.1109 5.97984 15.9926 5.75 15.7892 5.75H11.3505Z" fill="#23294A"/>
</svg>
