<svg width="24" height="24" viewBox="0 0 24 24" fill="none" xmlns="http://www.w3.org/2000/svg">
<path fill-rule="evenodd" clip-rule="evenodd" d="M14.25 4.34528C14.25 4.12503 13.9858 4.0124 13.8269 4.1649L11.4872 6.41008C11.1883 6.69688 10.7136 6.68709 10.4268 6.38822C10.14 6.08935 10.1498 5.61458 10.4486 5.32779L12.7883 3.0826C13.9008 2.01512 15.75 2.80354 15.75 4.34528V9.99975C15.75 10.1378 15.8619 10.2497 16 10.2497H17.663C19.2026 10.2497 19.9919 12.0944 18.9289 13.2081L16.6904 15.5531C16.4044 15.8527 15.9297 15.8638 15.6301 15.5778C15.3305 15.2918 15.3194 14.817 15.6054 14.5174L17.8439 12.1724C17.9957 12.0133 17.8829 11.7497 17.663 11.7497H16C15.0335 11.7497 14.25 10.9662 14.25 9.99975V4.34528ZM8.7014 8.04387C8.98819 8.34274 8.9784 8.81751 8.67953 9.10431L6.33981 11.3495C6.17643 11.5063 6.28899 11.7821 6.51544 11.7799L8.48233 11.76C9.45569 11.7502 10.25 12.5365 10.25 13.5099V19.5039C10.25 19.7294 10.5251 19.8396 10.6808 19.6765L12.9193 17.3314C13.2053 17.0318 13.68 17.0208 13.9797 17.3068C14.2793 17.5928 14.2903 18.0675 14.0043 18.3672L11.7659 20.7122C10.6758 21.8542 8.75001 21.0826 8.75001 19.5039V13.5099C8.75001 13.3708 8.63653 13.2585 8.49748 13.2599L6.53059 13.2798C4.94554 13.2958 4.15751 11.3647 5.30124 10.2672L7.64096 8.02201C7.93983 7.73521 8.4146 7.745 8.7014 8.04387Z" fill="#23294A"/>
<path fill-rule="evenodd" clip-rule="evenodd" d="M7.61075 4.35902C7.96482 4.14405 8.42611 4.25681 8.64108 4.61088L17.1411 18.6109C17.356 18.9649 17.2433 19.4262 16.8892 19.6412C16.5352 19.8562 16.0739 19.7434 15.8589 19.3893L7.3589 5.38934C7.14393 5.03528 7.25669 4.57399 7.61075 4.35902Z" fill="#23294A"/>
</svg>
