<svg width="24" height="24" viewBox="0 0 24 24" fill="none" xmlns="http://www.w3.org/2000/svg">
<path fill-rule="evenodd" clip-rule="evenodd" d="M13.25 5C13.25 4.58579 13.5858 4.25 14 4.25H16.5C18.2949 4.25 19.75 5.70507 19.75 7.5V10C19.75 10.4142 19.4142 10.75 19 10.75C18.5858 10.75 18.25 10.4142 18.25 10V7.5C18.25 6.5335 17.4665 5.75 16.5 5.75H14C13.5858 5.75 13.25 5.41421 13.25 5Z" fill="#23294A"/>
<path fill-rule="evenodd" clip-rule="evenodd" d="M4.25 7.5C4.25 5.70507 5.70507 4.25 7.5 4.25H10C10.4142 4.25 10.75 4.58579 10.75 5C10.75 5.41421 10.4142 5.75 10 5.75H7.5C6.5335 5.75 5.75 6.5335 5.75 7.5V10C5.75 10.4142 5.41421 10.75 5 10.75C4.58579 10.75 4.25 10.4142 4.25 10V7.5Z" fill="#23294A"/>
<path fill-rule="evenodd" clip-rule="evenodd" d="M5 13.75C5.41421 13.75 5.75 14.0858 5.75 14.5V17C5.75 17.9665 6.5335 18.75 7.5 18.75H10C10.4142 18.75 10.75 19.0858 10.75 19.5C10.75 19.9142 10.4142 20.25 10 20.25H7.5C5.70507 20.25 4.25 18.7949 4.25 17V14.5C4.25 14.0858 4.58579 13.75 5 13.75Z" fill="#23294A"/>
<path fill-rule="evenodd" clip-rule="evenodd" d="M19 13.75C19.4142 13.75 19.75 14.0858 19.75 14.5V17C19.75 18.7949 18.2949 20.25 16.5 20.25H14C13.5858 20.25 13.25 19.9142 13.25 19.5C13.25 19.0858 13.5858 18.75 14 18.75H16.5C17.4665 18.75 18.25 17.9665 18.25 17V14.5C18.25 14.0858 18.5858 13.75 19 13.75Z" fill="#23294A"/>
</svg>
