<svg width="24" height="24" viewBox="0 0 24 24" fill="none" xmlns="http://www.w3.org/2000/svg">
<path fill-rule="evenodd" clip-rule="evenodd" d="M3.25 10C3.25 9.58579 3.58579 9.25 4 9.25H9C9.41421 9.25 9.75 9.58579 9.75 10C9.75 10.4142 9.41421 10.75 9 10.75H4C3.58579 10.75 3.25 10.4142 3.25 10ZM10.25 10C10.25 9.58579 10.5858 9.25 11 9.25H20C20.4142 9.25 20.75 9.58579 20.75 10C20.75 10.4142 20.4142 10.75 20 10.75H11C10.5858 10.75 10.25 10.4142 10.25 10Z" fill="#23294A"/>
<path fill-rule="evenodd" clip-rule="evenodd" d="M12.2794 3.28337C12.6753 3.16155 13.095 3.38374 13.2168 3.77964L15.0399 9.70446C15.1986 10.2203 15.202 10.7714 15.0497 11.2892L12.7195 19.2118C12.6027 19.6092 12.1858 19.8366 11.7884 19.7197C11.391 19.6028 11.1636 19.186 11.2805 18.7886L13.6107 10.8659C13.6799 10.6306 13.6783 10.3801 13.6062 10.1456L11.7832 4.22076C11.6614 3.82487 11.8836 3.40518 12.2794 3.28337Z" fill="#23294A"/>
<path fill-rule="evenodd" clip-rule="evenodd" d="M7.82001 4.75C7.20883 4.75 6.64772 5.08784 6.36176 5.62799L4.42262 9.29081C4.10711 9.88677 4.186 10.6147 4.62184 11.1293L10.741 18.3533C11.4 19.1313 12.6 19.1313 13.259 18.3533L19.3782 11.1293C19.814 10.6147 19.8929 9.88677 19.5774 9.29081L17.6383 5.62798C17.3523 5.08783 16.7912 4.75 16.18 4.75H12.7031C12.2889 4.75 11.9531 4.41421 11.9531 4C11.9531 3.58579 12.2889 3.25 12.7031 3.25H16.18C17.3468 3.25 18.418 3.89496 18.964 4.92615L20.9031 8.58897C21.5054 9.72672 21.3548 11.1165 20.5228 12.0988L14.4036 19.3228C13.1454 20.8081 10.8546 20.8082 9.59642 19.3228L3.47728 12.0988C2.6452 11.1165 2.4946 9.72672 3.09694 8.58897L5.03608 4.92615L5.69892 5.27707L5.03608 4.92615C5.58201 3.89496 6.65322 3.25 7.82001 3.25H9.18751C9.60173 3.25 9.93751 3.58579 9.93751 4C9.93751 4.41421 9.60173 4.75 9.18751 4.75H7.82001Z" fill="#23294A"/>
</svg>
