<svg width="24" height="24" viewBox="0 0 24 24" fill="none" xmlns="http://www.w3.org/2000/svg">
<path fill-rule="evenodd" clip-rule="evenodd" d="M4.25 11C4.25 6.71979 7.71979 3.25 12 3.25C16.2802 3.25 19.75 6.71979 19.75 11V17.7372C19.75 19.8439 17.0843 20.7585 15.7909 19.0956C15.5731 18.8156 15.1655 18.7745 14.8962 19.0053L12.4881 21.0694C12.1736 21.339 11.7001 21.3026 11.4306 20.9881C11.161 20.6736 11.1974 20.2001 11.5119 19.9306L13.9201 17.8664C14.8396 17.0782 16.2313 17.2187 16.9749 18.1747C17.3915 18.7103 18.25 18.4157 18.25 17.7372V11C18.25 7.54822 15.4518 4.75 12 4.75C8.54822 4.75 5.75 7.54822 5.75 11V17.3367C5.75 18.1461 6.77407 18.4974 7.27095 17.8586L7.90799 17.0395C8.16229 16.7126 8.63349 16.6537 8.96046 16.908C9.28742 17.1623 9.34632 17.6335 9.09201 17.9605L8.45498 18.7795C7.08125 20.5457 4.25 19.5743 4.25 17.3367V11Z" fill="#23294A"/>
<path fill-rule="evenodd" clip-rule="evenodd" d="M14 8.25C14.4142 8.25 14.75 8.58579 14.75 9V10C14.75 10.4142 14.4142 10.75 14 10.75C13.5858 10.75 13.25 10.4142 13.25 10V9C13.25 8.58579 13.5858 8.25 14 8.25Z" fill="#23294A"/>
<path fill-rule="evenodd" clip-rule="evenodd" d="M10 8.25C10.4142 8.25 10.75 8.58579 10.75 9V10C10.75 10.4142 10.4142 10.75 10 10.75C9.58579 10.75 9.25 10.4142 9.25 10V9C9.25 8.58579 9.58579 8.25 10 8.25Z" fill="#23294A"/>
</svg>
