<svg width="24" height="24" viewBox="0 0 24 24" fill="none" xmlns="http://www.w3.org/2000/svg">
<g clip-path="url(#clip0_6_7655)">
<path fill-rule="evenodd" clip-rule="evenodd" d="M4.59929 15.6455C5.43596 17.3439 6.77721 18.6254 8.35356 19.4006C10.5744 20.4926 13.2566 20.5774 15.6459 19.4003C19.7331 17.3867 21.4142 12.441 19.4006 8.35375C17.3871 4.26647 12.4413 2.58541 8.35406 4.59898C6.65607 5.43549 5.37466 6.77637 4.59949 8.35232C4.17845 9.20831 3.90699 10.1334 3.79984 11.0837C3.75344 11.4953 3.38215 11.7914 2.97054 11.745C2.55893 11.6985 2.26288 11.3273 2.30929 10.9156C2.43586 9.79299 2.75641 8.70087 3.25351 7.69026C4.16961 5.8278 5.68604 4.24122 7.69117 3.2534C12.5216 0.873725 18.3665 2.86044 20.7462 7.69086C23.1259 12.5213 21.1392 18.3662 16.3087 20.7459C13.4842 22.1374 10.3123 22.0352 7.69167 20.7466C5.82873 19.8306 4.24172 18.314 3.25371 16.3084C3.07066 15.9369 3.22348 15.4873 3.59505 15.3042C3.96662 15.1212 4.41623 15.274 4.59929 15.6455Z" fill="#23294A"/>
<path fill-rule="evenodd" clip-rule="evenodd" d="M12 9C10.3431 9 9 10.3431 9 12C9 13.6569 10.3431 15 12 15C13.6569 15 15 13.6569 15 12C15 10.3431 13.6569 9 12 9ZM7 12C7 9.23858 9.23858 7 12 7C14.7614 7 17 9.23858 17 12C17 14.7614 14.7614 17 12 17C9.23858 17 7 14.7614 7 12Z" fill="#23294A"/>
<path d="M4.05334 6.98926L5.58533 6.25236L9.0433 13.4413C9.24679 13.8644 9.06881 14.3723 8.64576 14.5758C8.22271 14.7793 7.71481 14.6013 7.51132 14.1782L4.05334 6.98926Z" fill="#23294A"/>
<path d="M20.0929 7V8.7H12.1155C11.6461 8.7 11.2655 8.31944 11.2655 7.85C11.2655 7.38056 11.6461 7 12.1155 7L20.0929 7Z" fill="#23294A"/>
<path d="M11.6265 21.3984L10.2226 20.4397L14.7215 13.8519C14.9862 13.4643 15.5151 13.3646 15.9028 13.6294C16.2905 13.8941 16.3901 14.423 16.1254 14.8107L11.6265 21.3984Z" fill="#23294A"/>
</g>
<defs>
<clipPath id="clip0_6_7655">
<rect width="24" height="24" fill="white"/>
</clipPath>
</defs>
</svg>
