<svg width="24" height="24" viewBox="0 0 24 24" fill="none" xmlns="http://www.w3.org/2000/svg">
<path fill-rule="evenodd" clip-rule="evenodd" d="M13.8609 8.45924C13.0875 8.05275 12.2022 7.91069 11.3404 8.05476C10.4787 8.19883 9.68775 8.62111 9.0886 9.25706C8.48944 9.89301 8.11499 10.7076 8.02248 11.5765C7.964 12.1257 7.47139 12.5234 6.92221 12.465C6.37303 12.4065 5.97524 11.9139 6.03372 11.3647C6.17249 10.0615 6.73416 8.83951 7.6329 7.88558C8.53163 6.93165 9.71799 6.29824 11.0107 6.08213C12.3033 5.86603 13.6312 6.07913 14.7914 6.68886C15.2802 6.9458 15.4683 7.5504 15.2113 8.03928C14.9544 8.52815 14.3498 8.71618 13.8609 8.45924ZM17 11C17.5523 11 18 11.4477 18 12C18 13.3106 17.5709 14.5852 16.7782 15.6289C15.9855 16.6726 14.8729 17.4281 13.6104 17.7799C12.3478 18.1316 11.0049 18.0603 9.78668 17.5769C8.5685 17.0934 7.54213 16.2244 6.86442 15.1026C6.57884 14.6299 6.73054 14.0151 7.20325 13.7296C7.67597 13.444 8.29069 13.5957 8.57628 14.0684C9.02808 14.8162 9.71233 15.3956 10.5245 15.7179C11.3366 16.0402 12.2319 16.0878 13.0736 15.8532C13.9153 15.6187 14.657 15.1151 15.1855 14.4193C15.7139 13.7235 16 12.8737 16 12C16 11.4477 16.4477 11 17 11Z" fill="#23294A"/>
<path fill-rule="evenodd" clip-rule="evenodd" d="M11 12C11 11.4477 11.4477 11 12 11L17 11C17.5523 11 18 11.4477 18 12C18 12.5523 17.5523 13 17 13L12 13C11.4477 13 11 12.5523 11 12Z" fill="#23294A"/>
<path fill-rule="evenodd" clip-rule="evenodd" d="M12 3.75C7.44365 3.75 3.75 7.44365 3.75 12C3.75 16.5563 7.44365 20.25 12 20.25C14.1135 20.25 16.0397 19.4563 17.4998 18.1495C17.8085 17.8732 18.2826 17.8995 18.5589 18.2081C18.8351 18.5168 18.8088 18.9909 18.5002 19.2672C16.7757 20.8106 14.4967 21.75 12 21.75C6.61522 21.75 2.25 17.3848 2.25 12C2.25 6.61522 6.61522 2.25 12 2.25C17.3848 2.25 21.75 6.61522 21.75 12C21.75 12.4142 21.4142 12.75 21 12.75C20.5858 12.75 20.25 12.4142 20.25 12C20.25 7.44365 16.5563 3.75 12 3.75Z" fill="#23294A"/>
</svg>
