<svg width="24" height="24" viewBox="0 0 24 24" fill="none" xmlns="http://www.w3.org/2000/svg">
<path fill-rule="evenodd" clip-rule="evenodd" d="M11.1318 5.90436C11.0725 5.84817 11.0083 5.82841 10.9338 5.84131C10.0772 5.98962 9.257 6.31571 8.52769 6.80302C7.49988 7.48977 6.6988 8.46589 6.22575 9.60793C5.7527 10.75 5.62893 12.0066 5.87009 13.219C6.0113 13.9289 6.27392 14.605 6.64286 15.2189C6.85621 15.574 6.74135 16.0348 6.38631 16.2481C6.03126 16.4615 5.57049 16.3466 5.35714 15.9916C4.89968 15.2303 4.57402 14.392 4.39891 13.5117C4.09988 12.0083 4.25335 10.45 4.83993 9.0339C5.42651 7.61778 6.41985 6.40739 7.69433 5.55581C8.59869 4.95154 9.61578 4.54719 10.6779 4.3633C11.8775 4.1556 12.75 5.16551 12.75 6.1997V11.2497H17.8C18.8342 11.2497 19.8441 12.1222 19.6364 13.3218C19.4525 14.3839 19.0482 15.401 18.4439 16.3054C17.5923 17.5799 16.3819 18.5732 14.9658 19.1598C13.5497 19.7463 11.9914 19.8998 10.488 19.6008C9.63461 19.431 8.82063 19.1198 8.07806 18.6841C7.7208 18.4745 7.60111 18.0149 7.81073 17.6577C8.02034 17.3004 8.47988 17.1807 8.83714 17.3903C9.43601 17.7417 10.0924 17.9927 10.7807 18.1296C11.9931 18.3708 13.2497 18.247 14.3918 17.7739C15.5338 17.3009 16.5099 16.4998 17.1967 15.472C17.684 14.7427 18.0101 13.9225 18.1584 13.0659C18.1713 12.9914 18.1515 12.9272 18.0953 12.8679C18.0333 12.8025 17.9284 12.7497 17.8 12.7497H12.5C11.8096 12.7497 11.25 12.1901 11.25 11.4997V6.1997C11.25 6.07127 11.1972 5.96638 11.1318 5.90436Z" fill="#23294A"/>
<path fill-rule="evenodd" clip-rule="evenodd" d="M16.0303 5.09137C15.5579 4.6189 14.75 4.95352 14.75 5.6217V8.50038C14.75 8.91459 15.0858 9.25038 15.5 9.25038H18.3787C19.0469 9.25038 19.3815 8.44252 18.909 7.97005L16.0303 5.09137ZM13.25 5.6217C13.25 3.61716 15.6736 2.61329 17.091 4.03071L19.9697 6.90939C21.3871 8.32681 20.3832 10.7504 18.3787 10.7504H15.5C14.2574 10.7504 13.25 9.74302 13.25 8.50038V5.6217Z" fill="#23294A"/>
</svg>
