<svg width="24" height="24" viewBox="0 0 24 24" fill="none" xmlns="http://www.w3.org/2000/svg">
<path fill-rule="evenodd" clip-rule="evenodd" d="M19.5 3.25C19.9142 3.25 20.25 3.58579 20.25 4V20C20.25 20.4142 19.9142 20.75 19.5 20.75C19.0858 20.75 18.75 20.4142 18.75 20V4C18.75 3.58579 19.0858 3.25 19.5 3.25Z" fill="#23294A"/>
<path fill-rule="evenodd" clip-rule="evenodd" d="M7.5 4.75C6.80964 4.75 6.25 5.30964 6.25 6V7.5C6.25 8.19036 6.80964 8.75 7.5 8.75H14C14.6904 8.75 15.25 8.19036 15.25 7.5V6C15.25 5.30964 14.6904 4.75 14 4.75H12.375C11.9608 4.75 11.625 4.41421 11.625 4C11.625 3.58579 11.9608 3.25 12.375 3.25H14C15.5188 3.25 16.75 4.48122 16.75 6V7.5C16.75 9.01878 15.5188 10.25 14 10.25H7.5C5.98122 10.25 4.75 9.01878 4.75 7.5V6C4.75 4.48122 5.98122 3.25 7.5 3.25H9.125C9.53921 3.25 9.875 3.58579 9.875 4C9.875 4.41421 9.53921 4.75 9.125 4.75H7.5Z" fill="#23294A"/>
<path fill-rule="evenodd" clip-rule="evenodd" d="M5 13.75C4.30964 13.75 3.75 14.3096 3.75 15V17C3.75 17.6904 4.30964 18.25 5 18.25H7.25C7.66421 18.25 8 18.5858 8 19C8 19.4142 7.66421 19.75 7.25 19.75H5C3.48122 19.75 2.25 18.5188 2.25 17V15C2.25 13.4812 3.48122 12.25 5 12.25H14C15.5188 12.25 16.75 13.4812 16.75 15V17C16.75 18.5188 15.5188 19.75 14 19.75H11.75C11.3358 19.75 11 19.4142 11 19C11 18.5858 11.3358 18.25 11.75 18.25H14C14.6904 18.25 15.25 17.6904 15.25 17V15C15.25 14.3096 14.6904 13.75 14 13.75H5Z" fill="#23294A"/>
</svg>
