<svg width="24" height="24" viewBox="0 0 24 24" fill="none" xmlns="http://www.w3.org/2000/svg">
<path fill-rule="evenodd" clip-rule="evenodd" d="M2.25 8C2.25 4.82436 4.82436 2.25 8 2.25H16C19.1756 2.25 21.75 4.82436 21.75 8V13C21.75 13.4142 21.4142 13.75 21 13.75C20.5858 13.75 20.25 13.4142 20.25 13V8C20.25 5.65279 18.3472 3.75 16 3.75H8C5.65279 3.75 3.75 5.65279 3.75 8V16C3.75 18.3472 5.65279 20.25 8 20.25H16C18.3472 20.25 20.25 18.3472 20.25 16V15.5C20.25 15.0858 20.5858 14.75 21 14.75C21.4142 14.75 21.75 15.0858 21.75 15.5V16C21.75 19.1756 19.1756 21.75 16 21.75H8C4.82436 21.75 2.25 19.1756 2.25 16V8Z" fill="#23294A"/>
<path fill-rule="evenodd" clip-rule="evenodd" d="M16 2.40039C16.3314 2.40039 16.6 2.66902 16.6 3.00039L16.6 21.0004C16.6 21.3318 16.3314 21.6004 16 21.6004C15.6686 21.6004 15.4 21.3318 15.4 21.0004L15.4 3.00039C15.4 2.66902 15.6686 2.40039 16 2.40039Z" fill="#23294A"/>
<path fill-rule="evenodd" clip-rule="evenodd" d="M2.4 7.99961C2.4 7.66824 2.66863 7.39961 3 7.39961L21 7.39961C21.3314 7.39961 21.6 7.66824 21.6 7.99961C21.6 8.33098 21.3314 8.59961 21 8.59961L3 8.59961C2.66863 8.59961 2.4 8.33098 2.4 7.99961Z" fill="#23294A"/>
<path fill-rule="evenodd" clip-rule="evenodd" d="M2.4 11.9996C2.4 11.6682 2.66863 11.3996 3 11.3996L21 11.3996C21.3314 11.3996 21.6 11.6682 21.6 11.9996C21.6 12.331 21.3314 12.5996 21 12.5996L3 12.5996C2.66863 12.5996 2.4 12.331 2.4 11.9996Z" fill="#23294A"/>
<path fill-rule="evenodd" clip-rule="evenodd" d="M2.4 15.9996C2.4 15.6682 2.66863 15.3996 3 15.3996L21 15.3996C21.3314 15.3996 21.6 15.6682 21.6 15.9996C21.6 16.331 21.3314 16.5996 21 16.5996H3C2.66863 16.5996 2.4 16.331 2.4 15.9996Z" fill="#23294A"/>
<path fill-rule="evenodd" clip-rule="evenodd" d="M12 2.40039C12.3314 2.40039 12.6 2.66902 12.6 3.00039L12.6 21.0004C12.6 21.3318 12.3314 21.6004 12 21.6004C11.6686 21.6004 11.4 21.3318 11.4 21.0004L11.4 3.00039C11.4 2.66902 11.6686 2.40039 12 2.40039Z" fill="#23294A"/>
<path fill-rule="evenodd" clip-rule="evenodd" d="M8 2.40039C8.33137 2.40039 8.6 2.66902 8.6 3.00039L8.6 21.0004C8.6 21.3318 8.33137 21.6004 8 21.6004C7.66863 21.6004 7.4 21.3318 7.4 21.0004L7.4 3.00039C7.4 2.66902 7.66863 2.40039 8 2.40039Z" fill="#23294A"/>
</svg>
