<svg width="24" height="24" viewBox="0 0 24 24" fill="none" xmlns="http://www.w3.org/2000/svg">
<path fill-rule="evenodd" clip-rule="evenodd" d="M12 3.75C7.44365 3.75 3.75 7.44365 3.75 12C3.75 16.5563 7.44365 20.25 12 20.25C16.5563 20.25 20.25 16.5563 20.25 12C20.25 9.88655 19.4563 7.96026 18.1495 6.50019C17.8533 6.16933 17.5309 5.86251 17.1855 5.58303C16.8636 5.32247 16.8137 4.85021 17.0743 4.52822C17.3349 4.20622 17.8071 4.15641 18.1291 4.41697C18.5369 4.74699 18.9176 5.10922 19.2672 5.49981C20.8106 7.22428 21.75 9.50333 21.75 12C21.75 17.3848 17.3848 21.75 12 21.75C6.61522 21.75 2.25 17.3848 2.25 12C2.25 6.61522 6.61522 2.25 12 2.25C12.7436 2.25 13.4687 2.33338 14.166 2.49161C14.5699 2.58327 14.8231 2.98504 14.7314 3.38898C14.6397 3.79293 14.238 4.04608 13.834 3.95442C13.2449 3.82074 12.6312 3.75 12 3.75Z" fill="#23294A"/>
<path fill-rule="evenodd" clip-rule="evenodd" d="M9.05712 15.4979C8.77998 15.1904 8.30603 15.1656 7.99828 15.4425C7.6904 15.7196 7.66544 16.1938 7.94254 16.5017L8.50001 16C7.94254 16.5017 7.94236 16.5015 7.94254 16.5017L7.94412 16.5035L7.94627 16.5059L7.95224 16.5124L7.97087 16.5324C7.98622 16.5487 8.00742 16.5709 8.03423 16.5981C8.08781 16.6525 8.1641 16.7272 8.26113 16.8154C8.45452 16.9912 8.73402 17.2241 9.08398 17.4574C9.77415 17.9175 10.7949 18.4167 12 18.4167C13.2051 18.4167 14.2259 17.9175 14.916 17.4574C15.266 17.2241 15.5455 16.9912 15.7389 16.8154C15.8359 16.7272 15.9122 16.6525 15.9658 16.5981C15.9926 16.5709 16.0138 16.5487 16.0291 16.5324L16.0478 16.5124L16.0537 16.5059L16.0559 16.5035L16.0568 16.5025C16.0569 16.5023 16.0575 16.5017 15.5 16L16.0575 16.5017C16.3346 16.1938 16.3096 15.7196 16.0017 15.4425C15.694 15.1655 15.22 15.1904 14.9428 15.4979L14.9435 15.4972C14.9437 15.497 14.9441 15.4966 14.9435 15.4972L14.9362 15.505C14.9286 15.5131 14.9156 15.5268 14.8975 15.5451C14.8613 15.5819 14.8047 15.6374 14.7299 15.7055C14.5795 15.8422 14.359 16.0259 14.084 16.2093C13.5242 16.5825 12.7949 16.9167 12 16.9167C11.2051 16.9167 10.4759 16.5825 9.91603 16.2093C9.64099 16.0259 9.4205 15.8422 9.27014 15.7055C9.19529 15.6374 9.13876 15.5819 9.1025 15.5451C9.08439 15.5268 9.07141 15.5131 9.06381 15.505L9.05712 15.4979Z" fill="#23294A"/>
</svg>
