<svg width="24" height="24" viewBox="0 0 24 24" fill="none" xmlns="http://www.w3.org/2000/svg">
<path fill-rule="evenodd" clip-rule="evenodd" d="M12 4.75C11.3009 4.75 10.6096 4.86728 9.95415 5.09432C9.56276 5.22991 9.13556 5.02253 8.99997 4.63114C8.86439 4.23974 9.07176 3.81254 9.46316 3.67696C10.2759 3.39543 11.1331 3.25 12 3.25C13.3604 3.25 14.6969 3.6081 15.875 4.2883C17.0531 4.96851 18.0315 5.94685 18.7117 7.125C19.3919 8.30315 19.75 9.63959 19.75 11C19.75 12.3604 19.3919 13.6969 18.7117 14.875C18.5046 15.2337 18.0459 15.3566 17.6872 15.1495C17.3285 14.9424 17.2056 14.4837 17.4127 14.125C17.9612 13.1749 18.25 12.0971 18.25 11C18.25 9.9029 17.9612 8.82512 17.4127 7.875C16.8641 6.92488 16.0751 6.13589 15.125 5.58734C14.1749 5.03879 13.0971 4.75 12 4.75ZM7.63673 5.47511C7.92662 5.77098 7.92178 6.24582 7.62591 6.53571C7.22223 6.93124 6.87234 7.38137 6.58734 7.875C6.03879 8.82512 5.75 9.9029 5.75 11C5.75 12.0971 6.03879 13.1749 6.58734 14.125C6.79445 14.4837 6.67154 14.9424 6.31282 15.1495C5.9541 15.3566 5.49541 15.2337 5.2883 14.875C4.6081 13.6969 4.25 12.3604 4.25 11C4.25 9.63959 4.6081 8.30315 5.2883 7.125C5.6417 6.5129 6.07558 5.95473 6.57613 5.46429C6.872 5.1744 7.34684 5.17924 7.63673 5.47511Z" fill="#23294A"/>
<path fill-rule="evenodd" clip-rule="evenodd" d="M17.8735 15.2195C17.5232 14.9985 17.06 15.1033 16.839 15.4536L15.9822 16.8117C15.7612 17.162 15.8661 17.6252 16.2164 17.8462C16.5667 18.0672 17.0299 17.9624 17.2509 17.612L18.1076 16.254C18.3286 15.9037 18.2238 15.4405 17.8735 15.2195ZM15.5704 14.6533C16.2334 13.6023 17.6229 13.2878 18.6738 13.9508C19.7248 14.6139 20.0393 16.0033 19.3763 17.0543L18.5195 18.4124C17.8565 19.4633 16.467 19.7778 15.416 19.1148C14.3651 18.4518 14.0506 17.0623 14.7136 16.0113L15.5704 14.6533Z" fill="#23294A"/>
<path fill-rule="evenodd" clip-rule="evenodd" d="M5.86832 14.1658C6.91926 13.5027 8.30875 13.8171 8.97184 14.868L9.82868 16.226C10.4918 17.277 10.1774 18.6664 9.12642 19.3295C8.07548 19.9926 6.68599 19.6782 6.0229 18.6273L5.16607 17.2693C4.50298 16.2183 4.81739 14.8289 5.86832 14.1658ZM7.70325 15.6684C7.48222 15.3181 7.01906 15.2133 6.66875 15.4344C6.31843 15.6554 6.21363 16.1186 6.43466 16.4689L7.29149 17.8269C7.51252 18.1772 7.97569 18.282 8.326 18.0609C8.67631 17.8399 8.78111 17.3767 8.56008 17.0264L7.70325 15.6684Z" fill="#23294A"/>
<path fill-rule="evenodd" clip-rule="evenodd" d="M14.376 19.584L15.376 18.084L16.6241 18.916L15.6241 20.416C15.3943 20.7607 14.9286 20.8538 14.584 20.624C14.2393 20.3943 14.1462 19.9286 14.376 19.584Z" fill="#23294A"/>
</svg>
