<svg width="24" height="24" viewBox="0 0 24 24" fill="none" xmlns="http://www.w3.org/2000/svg">
<path fill-rule="evenodd" clip-rule="evenodd" d="M17.6054 5.68715C16.1171 4.91146 14.244 4.97562 12.6456 6.42332C12.2803 6.75419 11.7197 6.75419 11.3544 6.42332C9.75596 4.97562 7.88292 4.91146 6.39458 5.68715C4.88529 6.47377 3.75 8.1396 3.75 10.2134C3.75 11.8255 4.37894 13.1695 5.42777 14.4261C5.6932 14.7441 5.65058 15.217 5.33258 15.4825C5.01458 15.7479 4.54163 15.7053 4.2762 15.3873C3.06878 13.9407 2.25 12.2683 2.25 10.2134C2.25 7.57366 3.70233 5.3988 5.70131 4.35697C7.60595 3.36431 9.98709 3.41402 12 5.00547C14.0129 3.41402 16.394 3.36431 18.2987 4.35697C20.2977 5.3988 21.75 7.57366 21.75 10.2134C21.75 13.3776 19.7821 15.6459 17.4819 17.5747C16.8394 18.1135 16.1409 18.637 15.4543 19.1517C15.1875 19.3517 14.9226 19.5503 14.6634 19.7479C13.114 20.9293 10.8863 20.9265 9.33855 19.7448C9.06282 19.5343 8.77668 19.32 8.4892 19.1047C8.07308 18.7931 7.65414 18.4794 7.25988 18.1719C6.93327 17.9171 6.87501 17.4459 7.12975 17.1192C7.3845 16.7926 7.85578 16.7344 8.1824 16.9891C8.57284 17.2936 8.96331 17.5859 9.36428 17.886C9.65241 18.1016 9.94596 18.3213 10.2488 18.5526C11.2603 19.3248 12.7428 19.326 13.7539 18.5551C14.0358 18.3401 14.3141 18.1315 14.5882 17.9261C15.2617 17.4213 15.909 16.9361 16.5181 16.4254C18.7454 14.5576 20.25 12.6754 20.25 10.2134C20.25 8.1396 19.1147 6.47377 17.6054 5.68715Z" fill="#23294A"/>
<path fill-rule="evenodd" clip-rule="evenodd" d="M15.2411 7.74743C15.3808 7.32828 15.8338 7.10175 16.253 7.24147L16.33 7.26712C17.5064 7.65929 18.3 8.76028 18.3 10.0004C18.3 10.4422 17.9418 10.8004 17.5 10.8004C17.0582 10.8004 16.7 10.4422 16.7 10.0004C16.7 9.44897 16.3471 8.9594 15.824 8.78502L15.747 8.75936C15.3279 8.61964 15.1013 8.16658 15.2411 7.74743Z" fill="#23294A"/>
</svg>
