<svg width="24" height="24" viewBox="0 0 24 24" fill="none" xmlns="http://www.w3.org/2000/svg">
<path fill-rule="evenodd" clip-rule="evenodd" d="M14.7465 6.38739C12.9816 5.75361 11.0179 5.7537 9.25298 6.38758C7.09344 7.1632 5.40931 8.52445 4.42949 10.3535C3.88205 11.3754 3.88197 12.6236 4.42933 13.6455C4.60006 13.9642 4.79172 14.268 5.00298 14.5566C5.24768 14.8908 5.17513 15.3601 4.84092 15.6048C4.50672 15.8495 4.03742 15.7769 3.79271 15.4427C3.54033 15.098 3.31118 14.7348 3.10708 14.3538C2.32267 12.8894 2.32284 11.1094 3.10727 9.64514C4.28786 7.44135 6.29127 5.85749 8.74595 4.97587C10.8386 4.22428 13.1608 4.22417 15.2535 4.97566C15.6433 5.11565 15.8459 5.54517 15.7059 5.93501C15.5659 6.32485 15.1364 6.52739 14.7465 6.38739ZM18.8389 8.04907C19.1591 7.78633 19.6317 7.83292 19.8945 8.15313C19.9634 8.23715 20.0309 8.3224 20.0969 8.40887C21.6963 10.5042 21.6962 13.4954 20.0967 15.5906C18.8985 17.1603 17.2206 18.3171 15.2541 19.0234C13.1615 19.775 10.8392 19.7751 8.74653 19.0236C7.98728 18.751 7.27118 18.4113 6.60884 18.0064C6.25542 17.7904 6.14406 17.3287 6.3601 16.9753C6.57614 16.6219 7.03777 16.5105 7.39118 16.7266C7.96157 17.0752 8.58473 17.3717 9.25349 17.6119C11.0184 18.2457 12.9821 18.2456 14.747 17.6117C16.4789 16.9897 17.9041 15.9908 18.9044 14.6805C20.0937 13.1226 20.0937 10.8769 18.9046 9.31901C18.8493 9.24656 18.7927 9.1751 18.7349 9.10462C18.4721 8.7844 18.5187 8.31182 18.8389 8.04907Z" fill="#23294A"/>
<path fill-rule="evenodd" clip-rule="evenodd" d="M12 9.75C10.7574 9.75 9.75 10.7574 9.75 12C9.75 13.2426 10.7574 14.25 12 14.25C13.2426 14.25 14.25 13.2426 14.25 12C14.25 10.7574 13.2426 9.75 12 9.75ZM8.25 12C8.25 9.92893 9.92893 8.25 12 8.25C14.0711 8.25 15.75 9.92893 15.75 12C15.75 14.0711 14.0711 15.75 12 15.75C9.92893 15.75 8.25 14.0711 8.25 12Z" fill="#23294A"/>
<path fill-rule="evenodd" clip-rule="evenodd" d="M19.9851 5.00385C20.2429 5.32807 20.189 5.79988 19.8648 6.05767L4.0688 18.617C3.74458 18.8748 3.27277 18.8209 3.01498 18.4967C2.7572 18.1725 2.81105 17.7007 3.13527 17.4429L18.9313 4.88356C19.2555 4.62577 19.7273 4.67963 19.9851 5.00385Z" fill="#23294A"/>
</svg>
