<svg width="24" height="24" viewBox="0 0 24 24" fill="none" xmlns="http://www.w3.org/2000/svg">
<path fill-rule="evenodd" clip-rule="evenodd" d="M12 19.75C11.5858 19.75 11.25 19.4142 11.25 19L11.25 16.5C11.25 16.0858 11.5858 15.75 12 15.75C12.4142 15.75 12.75 16.0858 12.75 16.5L12.75 19C12.75 19.4142 12.4142 19.75 12 19.75Z" fill="#23294A"/>
<path fill-rule="evenodd" clip-rule="evenodd" d="M9.31918 2.96495C10.9281 1.8359 13.0719 1.8359 14.6808 2.96495L19.6434 6.44747C20.9639 7.37413 21.75 8.88613 21.75 10.4993V17.7999C21.75 20.5337 19.5338 22.7499 16.8 22.7499H7.2C4.46619 22.7499 2.25 20.5337 2.25 17.7999V10.4993C2.25 8.88613 3.0361 7.37413 4.35659 6.44747L4.81918 6.12285C5.15824 5.88491 5.62598 5.96689 5.86392 6.30595C6.10185 6.645 6.01988 7.11275 5.68082 7.35068L5.21823 7.67531C4.29789 8.32116 3.75 9.37498 3.75 10.4993V17.7999C3.75 19.7053 5.29462 21.2499 7.2 21.2499H16.8C18.7054 21.2499 20.25 19.7053 20.25 17.7999V10.4993C20.25 9.37498 19.7021 8.32116 18.7818 7.67531L13.8192 4.19279C12.7274 3.42662 11.2726 3.42662 10.1808 4.19279L8.49332 5.377C8.15426 5.61493 7.68652 5.53296 7.44858 5.1939C7.21065 4.85484 7.29262 4.3871 7.63168 4.14916L9.31918 2.96495Z" fill="#23294A"/>
</svg>
