<svg width="24" height="24" viewBox="0 0 24 24" fill="none" xmlns="http://www.w3.org/2000/svg">
<path fill-rule="evenodd" clip-rule="evenodd" d="M13.8488 12.2528C14.7872 10.6106 17.1771 10.6769 18.0229 12.3686L19.6708 15.6645C19.8561 16.0349 19.7059 16.4854 19.3354 16.6707C18.9649 16.8559 18.5144 16.7058 18.3292 16.3353L16.6813 13.0394C16.3712 12.4193 15.4952 12.395 15.1512 12.997L14.9369 13.372C14.7314 13.7316 14.2733 13.8566 13.9136 13.651C13.554 13.4455 13.429 12.9874 13.6346 12.6278L13.8488 12.2528ZM9.02225 15.0827C8.55372 14.6142 7.77367 14.6915 7.40613 15.2428L5.62406 17.9159C5.39429 18.2605 4.92864 18.3537 4.58399 18.1239C4.23935 17.8941 4.14622 17.4285 4.37598 17.0838L6.15805 14.4107C7.05066 13.0718 8.94505 12.8842 10.0829 14.0221L10.8639 14.8031C11.3535 15.2927 12.1746 15.1827 12.5181 14.5816L12.7774 14.1278C12.9829 13.7681 13.4411 13.6432 13.8007 13.8487C14.1603 14.0542 14.2853 14.5123 14.0798 14.872L13.8204 15.3258C12.9862 16.7857 10.9922 17.0527 9.80329 15.8638L9.02225 15.0827Z" fill="#23294A"/>
<path fill-rule="evenodd" clip-rule="evenodd" d="M9 6.75C8.30964 6.75 7.75 7.30964 7.75 8C7.75 8.69036 8.30964 9.25 9 9.25C9.69036 9.25 10.25 8.69036 10.25 8C10.25 7.30964 9.69036 6.75 9 6.75ZM6.25 8C6.25 6.48122 7.48122 5.25 9 5.25C10.5188 5.25 11.75 6.48122 11.75 8C11.75 9.51878 10.5188 10.75 9 10.75C7.48122 10.75 6.25 9.51878 6.25 8Z" fill="#23294A"/>
<path fill-rule="evenodd" clip-rule="evenodd" d="M2.25 8C2.25 4.82436 4.82436 2.25 8 2.25H16C19.1756 2.25 21.75 4.82436 21.75 8V16C21.75 19.1756 19.1756 21.75 16 21.75H8C4.82436 21.75 2.25 19.1756 2.25 16V13.5C2.25 13.0858 2.58579 12.75 3 12.75C3.41421 12.75 3.75 13.0858 3.75 13.5V16C3.75 18.3472 5.65279 20.25 8 20.25H16C18.3472 20.25 20.25 18.3472 20.25 16V8C20.25 5.65279 18.3472 3.75 16 3.75H8C5.65279 3.75 3.75 5.65279 3.75 8V10C3.75 10.4142 3.41421 10.75 3 10.75C2.58579 10.75 2.25 10.4142 2.25 10V8Z" fill="#23294A"/>
</svg>
