<svg width="24" height="24" viewBox="0 0 24 24" fill="none" xmlns="http://www.w3.org/2000/svg">
<path fill-rule="evenodd" clip-rule="evenodd" d="M16.0185 11.2763C17.0423 9.9964 18.9514 9.89066 20.1104 11.0496L21.5303 12.4696C21.8232 12.7625 21.8232 13.2373 21.5303 13.5302C21.2374 13.8231 20.7626 13.8231 20.4697 13.5302L19.0497 12.1103C18.5229 11.5835 17.6552 11.6315 17.1898 12.2133L17.0857 12.3434C16.8269 12.6669 16.3549 12.7193 16.0315 12.4606C15.708 12.2018 15.6556 11.7298 15.9144 11.4064L16.0185 11.2763ZM8.84574 14.4379C8.37824 13.7951 7.43741 13.7461 6.9057 14.3369L4.05748 17.5016C3.78038 17.8095 3.30617 17.8345 2.99828 17.5574C2.6904 17.2803 2.66544 16.8061 2.94254 16.4982L5.79076 13.3335C6.96053 12.0338 9.03035 12.1415 10.0588 13.5557L11.1943 15.1169C11.6142 15.6943 12.4684 15.7139 12.9144 15.1564L14.0394 13.7501C14.2981 13.4267 14.7701 13.3743 15.0935 13.633C15.417 13.8918 15.4694 14.3637 15.2107 14.6872L14.0857 16.0934C13.0214 17.4238 10.9832 17.3769 9.98115 15.9991L8.84574 14.4379Z" fill="#23294A"/>
<path fill-rule="evenodd" clip-rule="evenodd" d="M9 6.75C8.30964 6.75 7.75 7.30964 7.75 8C7.75 8.69036 8.30964 9.25 9 9.25C9.69036 9.25 10.25 8.69036 10.25 8C10.25 7.30964 9.69036 6.75 9 6.75ZM6.25 8C6.25 6.48122 7.48122 5.25 9 5.25C10.5188 5.25 11.75 6.48122 11.75 8C11.75 9.51878 10.5188 10.75 9 10.75C7.48122 10.75 6.25 9.51878 6.25 8Z" fill="#23294A"/>
<path fill-rule="evenodd" clip-rule="evenodd" d="M2.25 8C2.25 4.82436 4.82436 2.25 8 2.25H16C19.1756 2.25 21.75 4.82436 21.75 8V16C21.75 19.1756 19.1756 21.75 16 21.75H8C4.82436 21.75 2.25 19.1756 2.25 16V13.5C2.25 13.0858 2.58579 12.75 3 12.75C3.41421 12.75 3.75 13.0858 3.75 13.5V16C3.75 18.3472 5.65279 20.25 8 20.25H16C18.3472 20.25 20.25 18.3472 20.25 16V8C20.25 5.65279 18.3472 3.75 16 3.75H8C5.65279 3.75 3.75 5.65279 3.75 8V10C3.75 10.4142 3.41421 10.75 3 10.75C2.58579 10.75 2.25 10.4142 2.25 10V8Z" fill="#23294A"/>
</svg>
