<svg width="24" height="24" viewBox="0 0 24 24" fill="none" xmlns="http://www.w3.org/2000/svg">
<path fill-rule="evenodd" clip-rule="evenodd" d="M12 3.75C10.4961 3.75 9.08825 4.15173 7.87554 4.85324C7.6042 5.01021 7.34256 5.18222 7.09179 5.36816C6.75905 5.61485 6.28933 5.54511 6.04263 5.21237C5.79593 4.87964 5.86567 4.40992 6.19841 4.16322C6.4946 3.94361 6.80372 3.74037 7.12446 3.55484C8.55931 2.72481 10.2253 2.25 12 2.25C17.3848 2.25 21.75 6.61522 21.75 12C21.75 17.3848 17.3848 21.75 12 21.75C6.61522 21.75 2.25 17.3848 2.25 12C2.25 10.3132 2.67898 8.72437 3.43438 7.33889C3.63266 6.97522 4.08822 6.84115 4.45189 7.03943C4.81556 7.23772 4.94963 7.69327 4.75135 8.05694C4.11303 9.22767 3.75 10.5703 3.75 12C3.75 16.5563 7.44365 20.25 12 20.25C16.5563 20.25 20.25 16.5563 20.25 12C20.25 7.44365 16.5563 3.75 12 3.75Z" fill="#23294A"/>
<path fill-rule="evenodd" clip-rule="evenodd" d="M9.8836 5.37568C9.27414 6.53174 8.84226 8.21033 8.51109 10.2353C8.32007 11.4033 8.32007 12.5967 8.51109 13.7647C8.84226 15.7897 9.27414 17.4683 9.8836 18.6243C10.4851 19.7653 11.1701 20.25 12 20.25C12.9174 20.25 13.6718 19.6499 14.3157 18.214C14.4851 17.836 14.9289 17.667 15.3069 17.8365C15.6848 18.006 15.8538 18.4498 15.6843 18.8277C14.9482 20.4694 13.8029 21.75 12 21.75C10.388 21.75 9.29228 20.7192 8.55669 19.3238C7.82905 17.9436 7.36737 16.0651 7.03076 14.0068C6.81352 12.6785 6.81352 11.3215 7.03076 9.99318C7.36737 7.93493 7.82905 6.05641 8.55669 4.67616C9.29228 3.28084 10.388 2.25 12 2.25C13.612 2.25 14.7077 3.28084 15.4433 4.67616C16.171 6.05641 16.6326 7.93493 16.9692 9.99318C17.1865 11.3215 17.1865 12.6781 16.9693 14.0064C16.8456 14.763 16.7057 15.4897 16.5438 16.1729C16.4483 16.576 16.0442 16.8253 15.6411 16.7298C15.2381 16.6343 14.9887 16.2301 15.0842 15.8271C15.2361 15.1863 15.3694 14.4953 15.489 13.7643C15.68 12.5963 15.6799 11.4033 15.4889 10.2353C15.1577 8.21033 14.7259 6.53174 14.1164 5.37568C13.5149 4.23468 12.8299 3.75 12 3.75C11.1701 3.75 10.4851 4.23468 9.8836 5.37568Z" fill="#23294A"/>
<path fill-rule="evenodd" clip-rule="evenodd" d="M2.76142 11.8698C2.8334 11.4619 3.22243 11.1896 3.63034 11.2615L6.04785 11.6882C9.98553 12.383 14.0145 12.383 17.9522 11.6882L20.3697 11.2615C20.7776 11.1896 21.1666 11.4619 21.2386 11.8698C21.3106 12.2777 21.0383 12.6667 20.6303 12.7387L18.2128 13.1653C14.1027 13.8906 9.89731 13.8907 5.78718 13.1653L3.36966 12.7387C2.96175 12.6667 2.68943 12.2777 2.76142 11.8698Z" fill="#23294A"/>
</svg>
