<svg width="24" height="24" viewBox="0 0 24 24" fill="none" xmlns="http://www.w3.org/2000/svg">
<path fill-rule="evenodd" clip-rule="evenodd" d="M4.25 6.5C4.25 4.15279 6.15279 2.25 8.5 2.25H15.5C17.8472 2.25 19.75 4.15279 19.75 6.5V17.5C19.75 19.8472 17.8472 21.75 15.5 21.75H8.5C6.15279 21.75 4.25 19.8472 4.25 17.5V14.25C4.25 13.8358 4.58579 13.5 5 13.5C5.41421 13.5 5.75 13.8358 5.75 14.25V17.5C5.75 19.0188 6.98122 20.25 8.5 20.25H15.5C17.0188 20.25 18.25 19.0188 18.25 17.5V6.5C18.25 4.98122 17.0188 3.75 15.5 3.75H8.5C6.98122 3.75 5.75 4.98122 5.75 6.5V9.75C5.75 10.1642 5.41421 10.5 5 10.5C4.58579 10.5 4.25 10.1642 4.25 9.75V6.5Z" fill="#23294A"/>
<path fill-rule="evenodd" clip-rule="evenodd" d="M8.5 2.75C8.91421 2.75 9.25 3.08579 9.25 3.5V4C9.25 4.69036 9.80964 5.25 10.5 5.25H13.5C14.1904 5.25 14.75 4.69036 14.75 4V3.5C14.75 3.08579 15.0858 2.75 15.5 2.75C15.9142 2.75 16.25 3.08579 16.25 3.5V4C16.25 5.51878 15.0188 6.75 13.5 6.75H10.5C8.98122 6.75 7.75 5.51878 7.75 4V3.5C7.75 3.08579 8.08579 2.75 8.5 2.75Z" fill="#23294A"/>
</svg>
