<svg width="24" height="24" viewBox="0 0 24 24" fill="none" xmlns="http://www.w3.org/2000/svg">
<path fill-rule="evenodd" clip-rule="evenodd" d="M7.2 5.75C5.8469 5.75 4.75 6.8469 4.75 8.2V12.8C4.75 14.1531 5.8469 15.25 7.2 15.25H16.8C18.1531 15.25 19.25 14.1531 19.25 12.8V8.2C19.25 6.8469 18.1531 5.75 16.8 5.75H12C11.5858 5.75 11.25 5.41421 11.25 5C11.25 4.58579 11.5858 4.25 12 4.25H16.8C18.9815 4.25 20.75 6.01847 20.75 8.2V12.8C20.75 14.9815 18.9815 16.75 16.8 16.75H7.2C5.01848 16.75 3.25 14.9815 3.25 12.8V8.2C3.25 6.01848 5.01848 4.25 7.2 4.25H8C8.41421 4.25 8.75 4.58579 8.75 5C8.75 5.41421 8.41421 5.75 8 5.75H7.2Z" fill="#23294A"/>
<path fill-rule="evenodd" clip-rule="evenodd" d="M6.25 18C6.25 17.5858 6.58579 17.25 7 17.25H17C17.4142 17.25 17.75 17.5858 17.75 18C17.75 18.4142 17.4142 18.75 17 18.75H7C6.58579 18.75 6.25 18.4142 6.25 18Z" fill="#23294A"/>
</svg>
