<svg width="24" height="24" viewBox="0 0 24 24" fill="none" xmlns="http://www.w3.org/2000/svg">
<path fill-rule="evenodd" clip-rule="evenodd" d="M3.25 7.2C3.25 4.46619 5.46619 2.25 8.2 2.25H12.8C15.5338 2.25 17.75 4.46619 17.75 7.2V8C17.75 8.41421 17.4142 8.75 17 8.75C16.5858 8.75 16.25 8.41421 16.25 8V7.2C16.25 5.29462 14.7054 3.75 12.8 3.75H8.2C6.29462 3.75 4.75 5.29462 4.75 7.2V9.75C4.75 10.1642 4.41421 10.5 4 10.5C3.58579 10.5 3.25 10.1642 3.25 9.75V7.2ZM4 13.5C4.41421 13.5 4.75 13.8358 4.75 14.25V16.8C4.75 18.7054 6.29462 20.25 8.2 20.25H12.8C14.7054 20.25 16.25 18.7054 16.25 16.8V16C16.25 15.5858 16.5858 15.25 17 15.25C17.4142 15.25 17.75 15.5858 17.75 16V16.8C17.75 19.5338 15.5338 21.75 12.8 21.75H8.2C5.46619 21.75 3.25 19.5338 3.25 16.8V14.25C3.25 13.8358 3.58579 13.5 4 13.5Z" fill="#23294A"/>
<path fill-rule="evenodd" clip-rule="evenodd" d="M11.25 12C11.25 11.5858 11.5858 11.25 12 11.25L14 11.25C14.4142 11.25 14.75 11.5858 14.75 12C14.75 12.4142 14.4142 12.75 14 12.75L12 12.75C11.5858 12.75 11.25 12.4142 11.25 12ZM15.25 12C15.25 11.5858 15.5858 11.25 16 11.25L20 11.25C20.4142 11.25 20.75 11.5858 20.75 12C20.75 12.4142 20.4142 12.75 20 12.75L16 12.75C15.5858 12.75 15.25 12.4142 15.25 12Z" fill="#23294A"/>
<path fill-rule="evenodd" clip-rule="evenodd" d="M18.4697 9.46967C18.7626 9.17678 19.2374 9.17678 19.5303 9.46967L21.3889 11.3282C21.7599 11.6992 21.7599 12.3008 21.3889 12.6718L19.5303 14.5303C19.2374 14.8232 18.7626 14.8232 18.4697 14.5303C18.1768 14.2374 18.1768 13.7626 18.4697 13.4697L19.9393 12L18.4697 10.5303C18.1768 10.2374 18.1768 9.76256 18.4697 9.46967Z" fill="#23294A"/>
</svg>
