<svg width="24" height="24" viewBox="0 0 24 24" fill="none" xmlns="http://www.w3.org/2000/svg">
<path fill-rule="evenodd" clip-rule="evenodd" d="M12 5.75C10.7121 5.75 9.51723 6.13875 8.52358 6.80518C7.87672 7.23903 7.31518 7.79061 6.86983 8.42907C6.49355 8.96853 6.20048 9.56964 6.00872 10.2139C5.89057 10.6109 5.47295 10.837 5.07595 10.7188C4.67894 10.6007 4.45289 10.1831 4.57104 9.78606C4.80931 8.98549 5.17322 8.23949 5.63956 7.57093C6.19124 6.78001 6.88661 6.09696 7.68806 5.55943C8.92111 4.73243 10.4054 4.25 12 4.25C12.5356 4.25 13.0593 4.30445 13.5656 4.40837C14.151 4.52853 14.4586 5.00276 14.5155 5.44923C14.5695 5.87425 14.4172 6.34386 14.0507 6.66033C13.253 7.34912 12.75 8.36541 12.75 9.5C12.75 11.5711 14.4289 13.25 16.5 13.25C16.8899 13.25 17.2645 13.1907 17.6162 13.0813C18.0783 12.9374 18.5575 13.0559 18.8899 13.326C19.2392 13.6098 19.48 14.1214 19.2731 14.6823C18.1821 17.6394 15.3385 19.75 12 19.75C9.88861 19.75 7.97314 18.9047 6.5761 17.5357C5.92793 16.9005 5.3906 16.1521 4.99619 15.3218C4.82746 14.9666 4.6849 14.5965 4.57104 14.2139C4.45289 13.8169 4.67894 13.3993 5.07595 13.2812C5.47295 13.163 5.89057 13.3891 6.00872 13.7861C6.10037 14.094 6.21515 14.392 6.35108 14.6782C6.66887 15.3471 7.10234 15.9512 7.62595 16.4643C8.75398 17.5697 10.2968 18.25 12 18.25C14.5162 18.25 16.6868 16.7627 17.6775 14.6173C17.2984 14.7042 16.9042 14.75 16.5 14.75C13.6005 14.75 11.25 12.3995 11.25 9.5C11.25 8.05527 11.8343 6.74633 12.7776 5.79782C12.5231 5.76628 12.2636 5.75 12 5.75Z" fill="#23294A"/>
<path fill-rule="evenodd" clip-rule="evenodd" d="M17.4454 5.26051C17.9366 4.48869 19.0634 4.48869 19.5546 5.26051L20.0155 5.98485L20.7399 6.44583C21.5117 6.93703 21.5117 8.06373 20.7399 8.55493L20.0155 9.01592L19.5546 9.74026C19.0634 10.5121 17.9366 10.5121 17.4454 9.74026L16.9845 9.01592L16.2601 8.55493C15.4883 8.06373 15.4883 6.93703 16.2601 6.44583L16.9845 5.98485L17.4454 5.26051ZM18.5 6.39727L18.2201 6.83707C18.1219 6.99139 17.991 7.12227 17.8367 7.22049L17.3969 7.50038L17.8367 7.78028C17.991 7.87849 18.1219 8.00937 18.2201 8.16369L18.5 8.60349L18.7799 8.16369C18.8781 8.00937 19.009 7.87849 19.1633 7.78028L19.6031 7.50038L19.1633 7.22049C19.009 7.12227 18.8781 6.99139 18.7799 6.83707L18.5 6.39727Z" fill="#23294A"/>
</svg>
