<svg width="24" height="24" viewBox="0 0 24 24" fill="none" xmlns="http://www.w3.org/2000/svg">
<path fill-rule="evenodd" clip-rule="evenodd" d="M15.4286 3.25C18.3675 3.25 20.75 5.63249 20.75 8.57143L20.75 8.57829L20.75 15.4214L20.75 15.4286C20.75 18.3675 18.3675 20.75 15.4286 20.75L15.4217 20.75L8.5786 20.75H8.57143C5.63249 20.75 3.25 18.3675 3.25 15.4286L3.25 15.4265L3.25002 15.4218L3.25 13.7005C3.25 13.2863 3.58579 12.9505 4 12.9505C4.41421 12.9505 4.75 13.2863 4.75 13.7005V15.3805L4.75013 15.3829L4.75 15.4286C4.75 17.5387 6.46036 19.2494 8.5704 19.25C8.57074 19.25 8.57109 19.25 8.57143 19.25L8.61704 19.2499L8.61944 19.25H15.3806L15.383 19.2499L15.4286 19.25C17.5387 19.25 19.2494 17.5396 19.25 15.4296C19.25 15.4293 19.25 15.4289 19.25 15.4286L19.2499 15.383L19.25 15.3806V8.61944L19.2499 8.61705L19.25 8.57143C19.25 6.46125 17.5396 4.75054 15.4296 4.75C15.4292 4.75 15.4289 4.75 15.4286 4.75L15.3829 4.75013L15.3805 4.75H8.61953L8.61713 4.75013L8.57143 4.75C6.46125 4.75 4.75054 6.46037 4.75 8.57043C4.75 8.57076 4.75 8.5711 4.75 8.57143L4.75013 8.61713L4.75 8.61953V10.2995C4.75 10.7137 4.41421 11.0495 4 11.0495C3.58579 11.0495 3.25 10.7137 3.25 10.2995V8.57852L3.25 8.57354L3.25 8.57143C3.25 5.63249 5.63248 3.25 8.57143 3.25H8.57354L8.57822 3.25002L15.4215 3.25L15.4286 3.25Z" fill="#23294A"/>
<path fill-rule="evenodd" clip-rule="evenodd" d="M14.5 1.75C14.9142 1.75 15.25 2.08579 15.25 2.5V6C15.25 6.41421 14.9142 6.75 14.5 6.75C14.0858 6.75 13.75 6.41421 13.75 6V2.5C13.75 2.08579 14.0858 1.75 14.5 1.75Z" fill="#23294A"/>
<path fill-rule="evenodd" clip-rule="evenodd" d="M9.5 1.75C9.91421 1.75 10.25 2.08579 10.25 2.5V6C10.25 6.41421 9.91421 6.75 9.5 6.75C9.08579 6.75 8.75 6.41421 8.75 6V2.5C8.75 2.08579 9.08579 1.75 9.5 1.75Z" fill="#23294A"/>
<path fill-rule="evenodd" clip-rule="evenodd" d="M7.25 12C7.25 11.5858 7.58579 11.25 8 11.25H11C11.4142 11.25 11.75 11.5858 11.75 12C11.75 12.4142 11.4142 12.75 11 12.75H8C7.58579 12.75 7.25 12.4142 7.25 12Z" fill="#23294A"/>
<path fill-rule="evenodd" clip-rule="evenodd" d="M7.25 15C7.25 14.5858 7.58579 14.25 8 14.25L13 14.25C13.4142 14.25 13.75 14.5858 13.75 15C13.75 15.4142 13.4142 15.75 13 15.75L8 15.75C7.58579 15.75 7.25 15.4142 7.25 15Z" fill="#23294A"/>
</svg>
