<svg width="24" height="24" viewBox="0 0 24 24" fill="none" xmlns="http://www.w3.org/2000/svg">
<path fill-rule="evenodd" clip-rule="evenodd" d="M9.32919 18.6648C9.51443 18.2943 9.96494 18.1441 10.3354 18.3293C11.3833 18.8533 12.6167 18.8533 13.6646 18.3293C14.0351 18.1441 14.4856 18.2943 14.6708 18.6648C14.8561 19.0352 14.7059 19.4857 14.3354 19.671C12.8652 20.4061 11.1348 20.4061 9.6646 19.671C9.29412 19.4857 9.14395 19.0352 9.32919 18.6648Z" fill="#23294A"/>
<path fill-rule="evenodd" clip-rule="evenodd" d="M6.69244 4.63783C7.8369 3.24641 9.6328 2.25 12 2.25C16.433 2.25 18.6723 5.70589 18.6723 8.58824V11.1512C18.6723 11.428 18.7464 11.6998 18.887 11.9383L19.1576 12.3973C20.5525 14.7639 18.8464 17.75 16.0993 17.75H7.82554C5.09958 17.75 3.39076 14.805 4.74348 12.4383L5.03013 11.9368C5.16402 11.7026 5.23444 11.4375 5.23444 11.1677V8.58824C5.23444 8.17402 5.57023 7.83824 5.98444 7.83824C6.39866 7.83824 6.73444 8.17402 6.73444 8.58824V11.1677C6.73444 11.6986 6.59586 12.2203 6.33241 12.6812L6.04576 13.1827C5.26461 14.5494 6.2514 16.25 7.82554 16.25H16.0993C17.6856 16.25 18.6709 14.5256 17.8653 13.159L17.5948 12.7C17.3182 12.2307 17.1723 11.6959 17.1723 11.1512V8.58824C17.1723 6.40255 15.4787 3.75 12 3.75C10.0887 3.75 8.71515 4.53996 7.85092 5.59069C7.58779 5.91059 7.11516 5.95662 6.79525 5.6935C6.47535 5.43038 6.42932 4.95774 6.69244 4.63783Z" fill="#23294A"/>
</svg>
