<svg width="24" height="24" viewBox="0 0 24 24" fill="none" xmlns="http://www.w3.org/2000/svg">
<path fill-rule="evenodd" clip-rule="evenodd" d="M9.25 19.5C9.25 19.0858 9.58579 18.75 10 18.75H14C14.4142 18.75 14.75 19.0858 14.75 19.5C14.75 19.9142 14.4142 20.25 14 20.25H10C9.58579 20.25 9.25 19.9142 9.25 19.5Z" fill="#23294A"/>
<path fill-rule="evenodd" clip-rule="evenodd" d="M12 5.25C12.4142 5.25 12.75 5.58579 12.75 6V8C12.75 8.41421 12.4142 8.75 12 8.75C11.5858 8.75 11.25 8.41421 11.25 8V6C11.25 5.58579 11.5858 5.25 12 5.25Z" fill="#23294A"/>
<path fill-rule="evenodd" clip-rule="evenodd" d="M6.69241 4.63783C7.83687 3.24641 9.63277 2.25 12 2.25C16.433 2.25 18.6722 5.70589 18.6722 8.58824V11.1512C18.6722 11.428 18.7464 11.6998 18.8869 11.9383L19.1575 12.3973C20.5525 14.7639 18.8463 17.75 16.0993 17.75H7.82551C5.09955 17.75 3.39073 14.805 4.74345 12.4383L5.0301 11.9368C5.16399 11.7026 5.23441 11.4375 5.23441 11.1677V8.58824C5.23441 8.17402 5.5702 7.83824 5.98441 7.83824C6.39863 7.83824 6.73441 8.17402 6.73441 8.58824V11.1677C6.73441 11.6986 6.59583 12.2203 6.33238 12.6812L6.04573 13.1827C5.26458 14.5494 6.25137 16.25 7.82551 16.25H16.0993C17.6856 16.25 18.6708 14.5256 17.8653 13.159L17.5947 12.7C17.3181 12.2307 17.1722 11.6959 17.1722 11.1512V8.58824C17.1722 6.40255 15.4786 3.75 12 3.75C10.0887 3.75 8.71512 4.53996 7.85089 5.59069C7.58776 5.91059 7.11512 5.95662 6.79522 5.6935C6.47532 5.43038 6.42929 4.95774 6.69241 4.63783Z" fill="#23294A"/>
</svg>
