<svg width="24" height="24" viewBox="0 0 24 24" fill="none" xmlns="http://www.w3.org/2000/svg">
<path fill-rule="evenodd" clip-rule="evenodd" d="M8.25 10.5C8.25 9.25736 9.25736 8.25 10.5 8.25H13C14.5188 8.25 15.75 9.48122 15.75 11V13C15.75 14.5188 14.5188 15.75 13 15.75H11C9.48122 15.75 8.25 14.5188 8.25 13V12.75C8.25 12.3358 8.58579 12 9 12C9.41421 12 9.75 12.3358 9.75 12.75V13C9.75 13.6904 10.3096 14.25 11 14.25H13C13.6904 14.25 14.25 13.6904 14.25 13V11C14.25 10.3096 13.6904 9.75 13 9.75H10.5C10.0858 9.75 9.75 10.0858 9.75 10.5V10.75C9.75 11.1642 9.41421 11.5 9 11.5C8.58579 11.5 8.25 11.1642 8.25 10.75V10.5Z" fill="#23294A"/>
<path fill-rule="evenodd" clip-rule="evenodd" d="M12 3.75C7.44365 3.75 3.75 7.44365 3.75 12C3.75 16.5563 7.44365 20.25 12 20.25C16.5563 20.25 20.25 16.5563 20.25 12C20.25 9.88655 19.4563 7.96026 18.1495 6.50019C17.8533 6.16933 17.5309 5.86251 17.1855 5.58303C16.8636 5.32247 16.8137 4.85021 17.0743 4.52822C17.3349 4.20622 17.8071 4.15641 18.1291 4.41697C18.5369 4.74699 18.9176 5.10922 19.2672 5.49981C20.8106 7.22428 21.75 9.50333 21.75 12C21.75 17.3848 17.3848 21.75 12 21.75C6.61522 21.75 2.25 17.3848 2.25 12C2.25 6.61522 6.61522 2.25 12 2.25C12.7436 2.25 13.4687 2.33338 14.166 2.49161C14.5699 2.58327 14.8231 2.98504 14.7314 3.38898C14.6397 3.79293 14.238 4.04608 13.834 3.95442C13.2449 3.82074 12.6312 3.75 12 3.75Z" fill="#23294A"/>
</svg>
