<svg width="24" height="24" viewBox="0 0 24 24" fill="none" xmlns="http://www.w3.org/2000/svg">
<path fill-rule="evenodd" clip-rule="evenodd" d="M14.3579 4.46636C15.7714 3.05288 18.0631 3.05288 19.4765 4.46636C20.89 5.87984 20.89 8.17154 19.4765 9.58502L9.2896 19.772C8.97405 20.0875 8.56415 20.2915 8.12215 20.3529L4.88943 20.802C3.87084 20.9436 2.99935 20.0721 3.14087 19.0535L3.88373 19.1567L3.14087 19.0535L3.59002 15.8208C3.65143 15.3787 3.8554 14.9688 4.17094 14.6533L8.55919 10.2651C8.85208 9.97217 9.32695 9.97217 9.61985 10.2651C9.91274 10.558 9.91274 11.0328 9.61985 11.3257L5.2316 15.714C5.14694 15.7986 5.09222 15.9086 5.07575 16.0272L4.33341 15.924L5.07575 16.0272L4.6266 19.2599C4.62503 19.2712 4.62646 19.2779 4.62813 19.2827C4.6302 19.2886 4.63424 19.2956 4.64077 19.3021C4.64729 19.3087 4.65429 19.3127 4.66023 19.3148C4.66501 19.3164 4.67171 19.3179 4.683 19.3163L7.91572 18.8672C8.03431 18.8507 8.14428 18.796 8.22894 18.7113L18.4159 8.52436C19.2436 7.69666 19.2436 6.35471 18.4159 5.52702C17.5882 4.69933 16.2462 4.69933 15.4185 5.52702L11.9682 8.97741C11.6753 9.2703 11.2004 9.2703 10.9075 8.97741C10.6146 8.68452 10.6146 8.20964 10.9075 7.91675L14.3579 4.46636Z" fill="#23294A"/>
<path fill-rule="evenodd" clip-rule="evenodd" d="M14.4697 9.53033C14.1768 9.23744 14.1768 8.76256 14.4697 8.46967L15.4697 7.46967C15.7626 7.17678 16.2374 7.17678 16.5303 7.46967C16.8232 7.76256 16.8232 8.23744 16.5303 8.53033L15.5303 9.53033C15.2374 9.82322 14.7626 9.82322 14.4697 9.53033Z" fill="#23294A"/>
</svg>
