<svg width="24" height="24" viewBox="0 0 24 24" fill="none" xmlns="http://www.w3.org/2000/svg">
<path fill-rule="evenodd" clip-rule="evenodd" d="M14.6097 4.49309C15.9863 3.14204 18.1974 3.1627 19.5484 4.53923C20.8995 5.91576 20.8788 8.1269 19.5023 9.47796L9.71914 19.08C9.44277 19.3513 9.08499 19.5243 8.70076 19.5726L8.60732 18.8284L8.70075 19.5726L5.59421 19.9626C4.57872 20.0901 3.72061 19.2158 3.86707 18.2029L4.30147 15.1983L5.0432 15.3055L4.30147 15.1983C4.36571 14.754 4.57402 14.343 4.89441 14.0286L9.07583 9.92454C9.37145 9.6344 9.8463 9.63883 10.1364 9.93445C10.4266 10.2301 10.4222 10.7049 10.1265 10.9951L5.94511 15.0991C5.85916 15.1835 5.80327 15.2937 5.78603 15.4129L5.35163 18.4175C5.35001 18.4287 5.35138 18.4354 5.35302 18.4402C5.35505 18.4462 5.35901 18.4532 5.36543 18.4597C5.37185 18.4662 5.37876 18.4703 5.38468 18.4725C5.38946 18.4742 5.39614 18.4757 5.40734 18.4743L8.51389 18.0843C8.5722 18.0769 8.62649 18.0507 8.66843 18.0095L18.4516 8.40743C19.2369 7.63667 19.2487 6.37524 18.4779 5.58994C17.7072 4.80464 16.4457 4.79285 15.6604 5.56362L13.123 8.05411C12.8273 8.34425 12.3525 8.33982 12.0623 8.0442C11.7722 7.74858 11.7766 7.27373 12.0723 6.98359L14.6097 4.49309Z" fill="#23294A"/>
<path fill-rule="evenodd" clip-rule="evenodd" d="M14.5188 5.75094C14.8144 5.46079 15.2892 5.46523 15.5794 5.76085L18.7315 8.97241C19.0216 9.26803 19.0172 9.74288 18.7216 10.033C18.426 10.3232 17.9511 10.3187 17.661 10.0231L14.5088 6.81155C14.2187 6.51594 14.2231 6.04108 14.5188 5.75094Z" fill="#23294A"/>
</svg>
