<svg width="24" height="24" viewBox="0 0 24 24" fill="none" xmlns="http://www.w3.org/2000/svg">
<g clip-path="url(#clip0_6_7548)">
<path fill-rule="evenodd" clip-rule="evenodd" d="M6.5519 3.55034C6.8688 3.81706 6.90948 4.29019 6.64275 4.6071C5.76498 5.65001 5.23242 6.86586 5.03128 8.11854C4.88604 9.02304 4.91359 9.94711 5.10962 10.8385C5.19859 11.2431 4.94276 11.6432 4.53821 11.7321C4.13367 11.8211 3.73359 11.5653 3.64463 11.1607C3.40831 10.0861 3.37501 8.97209 3.55025 7.88073C3.79329 6.36712 4.43747 4.89784 5.49514 3.64119C5.76186 3.32429 6.23499 3.28361 6.5519 3.55034ZM18.7932 13.8533C19.1101 14.1201 19.1507 14.5932 18.884 14.9101C15.7722 18.6073 10.2524 19.0819 6.55513 15.9701C6.26451 15.7255 5.99357 15.4657 5.74258 15.1929C5.46214 14.8881 5.48192 14.4136 5.78676 14.1332C6.0916 13.8527 6.56606 13.8725 6.8465 14.1774C7.05445 14.4034 7.27931 14.619 7.52103 14.8225C10.5845 17.4008 15.158 17.0076 17.7364 13.9442C18.0031 13.6273 18.4762 13.5866 18.7932 13.8533Z" fill="#23294A"/>
<path fill-rule="evenodd" clip-rule="evenodd" d="M12 4.75C9.65279 4.75 7.75 6.65279 7.75 9C7.75 11.3472 9.65279 13.25 12 13.25C14.3472 13.25 16.25 11.3472 16.25 9C16.25 8.39418 16.1237 7.81983 15.8967 7.30028C15.7309 6.92071 15.9041 6.47857 16.2837 6.31274C16.6632 6.1469 17.1054 6.32016 17.2712 6.69972C17.5794 7.4051 17.75 8.18361 17.75 9C17.75 12.1756 15.1756 14.75 12 14.75C8.82436 14.75 6.25 12.1756 6.25 9C6.25 5.82436 8.82436 3.25 12 3.25C12.8983 3.25 13.7505 3.45653 14.5098 3.82539C14.8824 4.00639 15.0377 4.45515 14.8567 4.82773C14.6757 5.2003 14.2269 5.35561 13.8543 5.17461C13.2949 4.90281 12.6663 4.75 12 4.75Z" fill="#23294A"/>
<path fill-rule="evenodd" clip-rule="evenodd" d="M12 16.75C12.4142 16.75 12.75 17.0858 12.75 17.5V20C12.75 20.4142 12.4142 20.75 12 20.75C11.5858 20.75 11.25 20.4142 11.25 20V17.5C11.25 17.0858 11.5858 16.75 12 16.75Z" fill="#23294A"/>
<path fill-rule="evenodd" clip-rule="evenodd" d="M8.25 20C8.25 19.5858 8.58579 19.25 9 19.25H15C15.4142 19.25 15.75 19.5858 15.75 20C15.75 20.4142 15.4142 20.75 15 20.75H9C8.58579 20.75 8.25 20.4142 8.25 20Z" fill="#23294A"/>
</g>
<defs>
<clipPath id="clip0_6_7548">
<rect width="24" height="24" fill="white"/>
</clipPath>
</defs>
</svg>
