<svg width="24" height="24" viewBox="0 0 24 24" fill="none" xmlns="http://www.w3.org/2000/svg">
<path fill-rule="evenodd" clip-rule="evenodd" d="M13.1481 9.64049C13.0521 9.50303 12.8472 9.50744 12.7572 9.64891L10.0113 13.9664C9.07861 15.4329 9.3107 17.3539 10.5658 18.5562C12.0201 19.949 14.3281 19.8993 15.721 18.4451C16.9232 17.19 17.0724 15.2608 16.0774 13.8357L16.6923 13.4064L16.0774 13.8357L16.0303 13.7683C15.7931 13.4287 15.8762 12.9611 16.2158 12.724C16.5555 12.4869 17.023 12.5699 17.2601 12.9096L17.3072 12.977C18.7116 14.9883 18.501 17.7112 16.8042 19.4827C14.8383 21.5352 11.5807 21.6053 9.52827 19.6394C7.75676 17.9426 7.42919 15.2313 8.74562 13.1614L11.4915 8.84393C12.1559 7.79928 13.6692 7.76669 14.378 8.78176L15.6149 10.5533C15.8521 10.8929 15.769 11.3605 15.4294 11.5976C15.0897 11.8347 14.6222 11.7517 14.3851 11.412L13.1481 9.64049Z" fill="#23294A"/>
<path fill-rule="evenodd" clip-rule="evenodd" d="M16.8136 4.13665C17.2639 3.42861 18.2896 3.40653 18.77 4.09452L20.0367 5.90862C20.7601 6.94471 20.6516 8.3474 19.7775 9.25997C18.7648 10.3173 17.0867 10.3534 16.0294 9.3407C15.1168 8.46661 14.9481 7.0699 15.6262 6.00362L16.8136 4.13665ZM17.8184 5.35184L16.8919 6.8086C16.5975 7.27154 16.6708 7.87795 17.067 8.25745C17.526 8.69714 18.2546 8.68145 18.6943 8.2224C19.0738 7.82619 19.1209 7.21719 18.8068 6.76736L17.8184 5.35184Z" fill="#23294A"/>
<path fill-rule="evenodd" clip-rule="evenodd" d="M4.78003 3.44768C5.32436 2.59181 6.5642 2.56511 7.14488 3.39674L9.14171 6.25658C10.1642 7.72095 10.0109 9.70344 8.77549 10.9932C7.34414 12.4876 4.97238 12.5387 3.47802 11.1073C2.18376 9.86765 1.96408 7.8753 2.91921 6.37352L3.55206 6.77601L2.91921 6.37352L3.01786 6.21841C3.24015 5.8689 3.70369 5.76576 4.0532 5.98805C4.40271 6.21034 4.50585 6.67388 4.28356 7.0234L4.18491 7.1785C3.60682 8.08745 3.74663 9.28754 4.51559 10.0241C5.41169 10.8824 6.83392 10.8518 7.69223 9.95566C8.43305 9.18223 8.52496 7.99342 7.91184 7.11531L5.98248 4.35211L5.33046 5.37731C5.10817 5.72683 4.64463 5.82996 4.29512 5.60767C3.94561 5.38538 3.84247 4.92185 4.06476 4.57233L4.78003 3.44768Z" fill="#23294A"/>
</svg>
