<svg width="24" height="24" viewBox="0 0 24 24" fill="none" xmlns="http://www.w3.org/2000/svg">
<path fill-rule="evenodd" clip-rule="evenodd" d="M12 8.75C10.2051 8.75 8.75 10.2051 8.75 12C8.75 13.7949 10.2051 15.25 12 15.25C13.7949 15.25 15.25 13.7949 15.25 12C15.25 10.2051 13.7949 8.75 12 8.75ZM7.25 12C7.25 9.37665 9.37665 7.25 12 7.25C14.6234 7.25 16.75 9.37665 16.75 12C16.75 14.6234 14.6234 16.75 12 16.75C9.37665 16.75 7.25 14.6234 7.25 12Z" fill="#23294A"/>
<path fill-rule="evenodd" clip-rule="evenodd" d="M12 3.75C7.44365 3.75 3.75 7.44365 3.75 12C3.75 16.5563 7.44365 20.25 12 20.25C14.1135 20.25 16.0397 19.4563 17.4998 18.1495C17.8085 17.8732 18.2826 17.8995 18.5589 18.2081C18.8351 18.5168 18.8088 18.9909 18.5002 19.2672C16.7757 20.8106 14.4967 21.75 12 21.75C6.61522 21.75 2.25 17.3848 2.25 12C2.25 6.61522 6.61522 2.25 12 2.25C17.3848 2.25 21.75 6.61522 21.75 12C21.75 12.4142 21.4142 12.75 21 12.75C20.5858 12.75 20.25 12.4142 20.25 12C20.25 7.44365 16.5563 3.75 12 3.75Z" fill="#23294A"/>
</svg>
