<svg width="24" height="24" viewBox="0 0 24 24" fill="none" xmlns="http://www.w3.org/2000/svg">
<path fill-rule="evenodd" clip-rule="evenodd" d="M13.3788 4.40313C14.3747 3.40729 15.9892 3.40729 16.9851 4.40313L20.1433 7.5613C21.1128 8.53081 21.1421 10.0934 20.2097 11.0986L12.1435 19.7943C11.6231 20.3553 10.8925 20.6741 10.1273 20.6741H7.8876C7.11057 20.6741 6.36981 20.3454 5.84846 19.7692L3.75389 17.4544C2.84216 16.4468 2.88074 14.9012 3.84161 13.9404L8.64122 9.14074C8.93411 8.84785 9.40899 8.84785 9.70188 9.14074C9.99477 9.43364 9.99477 9.90851 9.70188 10.2014L4.90227 15.001C4.50662 15.3967 4.49073 16.0331 4.86615 16.448L6.96072 18.7628C7.19769 19.0247 7.5344 19.1741 7.8876 19.1741L10.1273 19.1741C10.4751 19.1741 10.8072 19.0292 11.0437 18.7742L19.1099 10.0785C19.4939 9.66459 19.4818 9.02117 19.0826 8.62196L15.9244 5.46379C15.5144 5.05374 14.8495 5.05374 14.4395 5.46379L12.7071 7.1962C12.4142 7.48909 11.9393 7.48909 11.6464 7.1962C11.3535 6.90331 11.3535 6.42843 11.6464 6.13554L13.3788 4.40313Z" fill="#23294A"/>
<path fill-rule="evenodd" clip-rule="evenodd" d="M7.46967 11.4697C7.76256 11.1768 8.23744 11.1768 8.53033 11.4697L13.5303 16.4697C13.8232 16.7626 13.8232 17.2374 13.5303 17.5303C13.2374 17.8232 12.7626 17.8232 12.4697 17.5303L7.46967 12.5303C7.17678 12.2374 7.17678 11.7626 7.46967 11.4697Z" fill="#23294A"/>
<path fill-rule="evenodd" clip-rule="evenodd" d="M14.9697 6.96967C15.2626 6.67678 15.7374 6.67678 16.0303 6.96967L17.0303 7.96967C17.3232 8.26256 17.3232 8.73744 17.0303 9.03033C16.7374 9.32322 16.2626 9.32322 15.9697 9.03033L14.9697 8.03033C14.6768 7.73744 14.6768 7.26256 14.9697 6.96967Z" fill="#23294A"/>
</svg>
