<svg width="24" height="24" viewBox="0 0 24 24" fill="none" xmlns="http://www.w3.org/2000/svg">
<path fill-rule="evenodd" clip-rule="evenodd" d="M17.4697 17.4697C17.7626 17.1768 18.2374 17.1768 18.5303 17.4697L20.5303 19.4697C20.8232 19.7626 20.8232 20.2374 20.5303 20.5303C20.2374 20.8232 19.7626 20.8232 19.4697 20.5303L17.4697 18.5303C17.1768 18.2374 17.1768 17.7626 17.4697 17.4697Z" fill="#23294A"/>
<path fill-rule="evenodd" clip-rule="evenodd" d="M11.5 3.75C7.21979 3.75 3.75 7.21979 3.75 11.5C3.75 15.7802 7.21979 19.25 11.5 19.25C13.8772 19.25 16.0039 18.1806 17.4267 16.4939C17.6637 16.213 17.881 15.9152 18.0765 15.6024C18.2961 15.2512 18.7588 15.1445 19.1101 15.3641C19.4613 15.5837 19.568 16.0464 19.3484 16.3976C19.115 16.7709 18.8558 17.1262 18.5733 17.4611C16.8776 19.4712 14.3378 20.75 11.5 20.75C6.39137 20.75 2.25 16.6086 2.25 11.5C2.25 6.39137 6.39137 2.25 11.5 2.25C16.6086 2.25 20.75 6.39137 20.75 11.5C20.75 11.9142 20.4142 12.25 20 12.25C19.5858 12.25 19.25 11.9142 19.25 11.5C19.25 7.21979 15.7802 3.75 11.5 3.75Z" fill="#23294A"/>
</svg>
