<svg width="24" height="24" viewBox="0 0 24 24" fill="none" xmlns="http://www.w3.org/2000/svg">
<path fill-rule="evenodd" clip-rule="evenodd" d="M15.8702 3.98028C18.0982 3.23761 20.2179 5.35726 19.4752 7.58527L16.1861 17.4527C15.3574 19.9389 11.8951 20.0829 10.8628 17.6741L9.50381 14.5032C9.3976 14.2554 9.20013 14.0579 8.95232 13.9517L5.78138 12.5927C3.37265 11.5604 3.51666 8.09814 6.0028 7.26943L11.502 5.43636C11.895 5.30537 12.3197 5.51774 12.4507 5.9107C12.5817 6.30366 12.3693 6.7284 11.9764 6.85938L6.47714 8.69245C5.2995 9.085 5.23128 10.725 6.37226 11.214L9.5432 12.573C10.145 12.8309 10.6246 13.3105 10.8825 13.9123L12.2415 17.0833C12.7305 18.2242 14.3705 18.156 14.7631 16.9784L18.0522 7.11093C18.404 6.05556 17.4 5.05152 16.3446 5.40331L14.3628 6.06389C13.9699 6.19487 13.5451 5.9825 13.4142 5.58955C13.2832 5.19659 13.4955 4.77185 13.8885 4.64086L15.8702 3.98028Z" fill="#23294A"/>
<path fill-rule="evenodd" clip-rule="evenodd" d="M9.56398 13.7003C9.27108 13.4074 9.27108 12.9325 9.56398 12.6396L13.8066 8.39695C14.0995 8.10406 14.5744 8.10406 14.8673 8.39695C15.1602 8.68984 15.1602 9.16472 14.8673 9.45761L10.6246 13.7003C10.3317 13.9931 9.85687 13.9931 9.56398 13.7003Z" fill="#23294A"/>
</svg>
