<svg width="24" height="24" viewBox="0 0 24 24" fill="none" xmlns="http://www.w3.org/2000/svg">
<path fill-rule="evenodd" clip-rule="evenodd" d="M10.4697 3.46936C11.32 2.61906 12.7249 2.71365 13.4536 3.67025L14.6965 5.30206C14.9001 5.56932 15.2193 5.72303 15.5552 5.71556L16.6573 5.69104C18.3411 5.65357 19.598 7.22977 19.1868 8.86299L18.9177 9.93202C18.8357 10.2578 18.9145 10.6032 19.1298 10.8611L19.9463 11.8396C20.97 13.0662 20.5444 14.9307 19.0899 15.5917L17.9297 16.119C17.6238 16.258 17.4029 16.5349 17.3355 16.8641L16.6008 16.7135L17.3355 16.8641L17.1142 17.944C16.776 19.5939 14.9596 20.4686 13.4588 19.7043L12.4765 19.204C12.1771 19.0516 11.8229 19.0516 11.5235 19.204L10.5412 19.7043C9.0404 20.4686 7.22402 19.5939 6.88587 17.944L6.66453 16.8641C6.59708 16.5349 6.3762 16.258 6.07033 16.119L6.35535 15.4918L6.07033 16.119L5.06673 15.6629C3.53344 14.9661 3.08483 13.0006 4.16394 11.7075L4.87027 10.8611C5.08553 10.6032 5.16436 10.2578 5.08233 9.93202L4.81318 8.86299C4.40198 7.22976 5.65896 5.65357 7.34274 5.69104L9.36133 5.73595C9.77544 5.74516 10.1037 6.08834 10.0945 6.50245C10.0852 6.91656 9.74207 7.24479 9.32796 7.23558L7.30937 7.19066C6.61605 7.17524 6.09847 7.82426 6.26779 8.49676L6.53694 9.56579C6.73615 10.357 6.5447 11.1958 6.02192 11.8222L5.44609 11.3417L6.02192 11.8222L5.31559 12.6686C4.87126 13.201 5.05598 14.0104 5.68733 14.2973L5.37703 14.9801L5.68733 14.2973L6.69094 14.7534C7.43375 15.091 7.97017 15.7636 8.13399 16.5629L8.35532 17.6428C8.49456 18.3222 9.24248 18.6824 9.86045 18.3677L10.8428 17.8674C11.5698 17.4971 12.4302 17.4971 13.1572 17.8674L14.1396 18.3677C14.7575 18.6824 15.5055 18.3222 15.6447 17.6428L15.866 16.5629C16.0299 15.7636 16.5663 15.091 17.3091 14.7534L18.4693 14.2261C19.0219 13.975 19.1835 13.2667 18.7946 12.8007L17.9781 11.8222C17.4553 11.1958 17.2639 10.357 17.4631 9.56579L17.7322 8.49677C17.9016 7.82426 17.384 7.17524 16.6907 7.19066L15.5885 7.21519C14.7728 7.23334 13.9977 6.86005 13.5033 6.21098L12.2603 4.57917L12.8569 4.12471L12.2603 4.57917C12.0821 4.34515 11.7384 4.32201 11.5303 4.53002C11.2375 4.82292 10.7626 4.82292 10.4697 4.53002C10.1768 4.23713 10.1768 3.76226 10.4697 3.46936Z" fill="#23294A"/>
<path fill-rule="evenodd" clip-rule="evenodd" d="M12 13.5C12.8284 13.5 13.5 12.8284 13.5 12C13.5 11.1716 12.8284 10.5 12 10.5C11.1716 10.5 10.5 11.1716 10.5 12C10.5 12.8284 11.1716 13.5 12 13.5ZM12 15C13.6569 15 15 13.6569 15 12C15 10.3431 13.6569 9 12 9C10.3431 9 9 10.3431 9 12C9 13.6569 10.3431 15 12 15Z" fill="#23294A"/>
</svg>
