<svg width="24" height="24" viewBox="0 0 24 24" fill="none" xmlns="http://www.w3.org/2000/svg">
<path fill-rule="evenodd" clip-rule="evenodd" d="M10.093 3.25587C10.504 3.30725 10.7956 3.68209 10.7442 4.09311L10.5326 5.78572C10.4379 6.54377 9.94151 7.12428 9.37371 7.45304C8.80171 7.78424 8.05438 7.91863 7.35226 7.6224L7.15849 7.54065C6.71954 7.35546 6.21137 7.5261 5.97316 7.93869L5.46979 8.81056C5.23124 9.22375 5.33769 9.74991 5.71809 10.0379L5.26543 10.6359L5.71809 10.0379L5.88534 10.1645C6.493 10.6245 6.75 11.3409 6.75 12.0001C6.75 12.6594 6.49297 13.3759 5.88523 13.836L4.52449 14.866C4.19422 15.116 3.72383 15.0509 3.47383 14.7207C3.22383 14.3904 3.28889 13.92 3.61915 13.67L4.9799 12.64C5.1348 12.5227 5.25 12.2973 5.25 12.0001C5.25 11.703 5.13484 11.4777 4.98001 11.3605L4.81276 11.2338C3.82919 10.4893 3.55396 9.12888 4.17075 8.06056L4.67412 7.18869C5.29058 6.12097 6.60563 5.67936 7.74157 6.15862L7.93534 6.24037C8.11511 6.31622 8.36576 6.30336 8.6221 6.15493C8.88178 6.00458 9.02037 5.79041 9.04422 5.59966L9.25579 3.90705C9.30717 3.49604 9.68201 3.20449 10.093 3.25587ZM13.907 3.25587C14.318 3.20449 14.6928 3.49604 14.7442 3.90705L14.9558 5.59972C14.9796 5.79043 15.1182 6.00457 15.3779 6.1549C15.6342 6.3033 15.8847 6.31615 16.0645 6.24032L16.2583 6.15855C17.3943 5.67929 18.7093 6.12089 19.3258 7.18862L19.8292 8.06057C20.4459 9.12884 20.1707 10.4892 19.1872 11.2337L19.0201 11.3602C18.8652 11.4775 18.75 11.7029 18.75 12.0001C18.75 12.2974 18.8652 12.5229 19.0202 12.6402L19.1871 12.7666C20.1706 13.511 20.4458 14.8713 19.8291 15.9395L19.3256 16.8116C18.7091 17.8793 17.3941 18.3209 16.2582 17.8417L16.0643 17.7599C15.8846 17.6841 15.6341 17.6969 15.3778 17.8453C15.1182 17.9956 14.9796 18.2097 14.9558 18.4004L14.9297 18.6088C14.7768 19.8321 13.737 20.7501 12.5042 20.7501H11.4959C10.263 20.7501 9.22317 19.8321 9.07026 18.6088L9.04421 18.4004C9.02037 18.2097 8.8818 17.9956 8.62215 17.8453C8.36585 17.6969 8.11526 17.684 7.93552 17.7598L6.36336 18.4231C5.98172 18.5842 5.54182 18.4053 5.3808 18.0237C5.21979 17.642 5.39864 17.2021 5.78028 17.0411L7.35244 16.3778C8.05451 16.0816 8.80178 16.216 9.37375 16.5471C9.94153 16.8759 10.4379 17.4564 10.5326 18.2144L10.5587 18.4228C10.6178 18.8954 11.0195 19.2501 11.4959 19.2501H12.5042C12.9805 19.2501 13.3823 18.8954 13.4413 18.4228L13.4674 18.2143C13.5621 17.4563 14.0584 16.8759 14.6262 16.5472C15.1981 16.216 15.9454 16.0817 16.6474 16.3779L16.8412 16.4596C17.2802 16.6448 17.7883 16.4742 18.0266 16.0616L18.53 15.1895C18.7685 14.7765 18.6621 14.2504 18.2818 13.9626L18.1149 13.8362C17.5071 13.3761 17.25 12.6595 17.25 12.0001C17.25 11.3408 17.507 10.6243 18.1148 10.1642L18.2819 10.0377C18.6622 9.74981 18.7687 9.22371 18.5301 8.81057L18.0267 7.93862C17.7885 7.52603 17.2803 7.35538 16.8414 7.54058L16.6476 7.62235C15.9455 7.91856 15.1982 7.78418 14.6263 7.45301C14.0585 7.12427 13.5621 6.54379 13.4674 5.78577L13.2558 4.09311C13.2044 3.68209 13.496 3.30725 13.907 3.25587Z" fill="#23294A"/>
<path fill-rule="evenodd" clip-rule="evenodd" d="M12 13.5C12.8284 13.5 13.5 12.8284 13.5 12C13.5 11.1716 12.8284 10.5 12 10.5C11.1716 10.5 10.5 11.1716 10.5 12C10.5 12.8284 11.1716 13.5 12 13.5ZM12 15C13.6569 15 15 13.6569 15 12C15 10.3431 13.6569 9 12 9C10.3431 9 9 10.3431 9 12C9 13.6569 10.3431 15 12 15Z" fill="#23294A"/>
</svg>
