<svg width="24" height="24" viewBox="0 0 24 24" fill="none" xmlns="http://www.w3.org/2000/svg">
<path fill-rule="evenodd" clip-rule="evenodd" d="M10.1085 3.17762C11.2875 2.53454 12.7125 2.53454 13.8915 3.17763L18.3168 5.59147C19.2003 6.07336 19.75 6.99933 19.75 8.00568V8.65932C19.75 9.07354 19.4142 9.40932 19 9.40932C18.5858 9.40932 18.25 9.07354 18.25 8.65932V8.00568C18.25 7.54825 18.0001 7.12735 17.5986 6.90831L13.1732 4.49447C12.4419 4.09559 11.5581 4.09559 10.8268 4.49447L6.40143 6.90831C5.99986 7.12735 5.75 7.54825 5.75 8.00568V12.7515C5.75 14.909 6.86278 16.914 8.6937 18.0554C10.7174 19.3169 13.2826 19.3169 15.3063 18.0554C17.1372 16.914 18.25 14.909 18.25 12.7515V11.7275C18.25 11.3133 18.5858 10.9775 19 10.9775C19.4142 10.9775 19.75 11.3133 19.75 11.7275V12.7515C19.75 15.4269 18.3702 17.913 16.0998 19.3283C13.5904 20.8926 10.4096 20.8926 7.90019 19.3283C5.62985 17.913 4.25 15.4269 4.25 12.7515V8.00568C4.25 6.99934 4.79969 6.07336 5.68316 5.59147L6.0423 6.24989L5.68316 5.59147L10.1085 3.17762Z" fill="#23294A"/>
<path fill-rule="evenodd" clip-rule="evenodd" d="M15.0303 9.46967C15.3232 9.76256 15.3232 10.2374 15.0303 10.5303L14.5303 11.0303C14.2374 11.3232 13.7626 11.3232 13.4697 11.0303C13.1768 10.7374 13.1768 10.2626 13.4697 9.96967L13.9697 9.46967C14.2626 9.17678 14.7374 9.17678 15.0303 9.46967ZM13.0303 11.4697C13.3232 11.7626 13.3232 12.2374 13.0303 12.5303L11.101 14.4596C10.7691 14.7916 10.2309 14.7916 9.89896 14.4596L8.46967 13.0303C8.17678 12.7374 8.17678 12.2626 8.46967 11.9697C8.76256 11.6768 9.23744 11.6768 9.53033 11.9697L10.5 12.9393L11.9697 11.4697C12.2626 11.1768 12.7374 11.1768 13.0303 11.4697Z" fill="#23294A"/>
</svg>
