<svg width="24" height="24" viewBox="0 0 24 24" fill="none" xmlns="http://www.w3.org/2000/svg">
<path fill-rule="evenodd" clip-rule="evenodd" d="M10.1085 3.17762C11.2875 2.53454 12.7125 2.53454 13.8915 3.17763L18.3168 5.59147C19.2003 6.07336 19.75 6.99933 19.75 8.00568V8.65932C19.75 9.07354 19.4142 9.40932 19 9.40932C18.5858 9.40932 18.25 9.07354 18.25 8.65932V8.00568C18.25 7.54825 18.0001 7.12735 17.5986 6.90831L13.1732 4.49447C12.4419 4.09559 11.5581 4.09559 10.8268 4.49447L6.40143 6.90831C5.99986 7.12735 5.75 7.54825 5.75 8.00568V12.7515C5.75 14.909 6.86278 16.914 8.6937 18.0554C10.7174 19.3169 13.2826 19.3169 15.3063 18.0554C17.1372 16.914 18.25 14.909 18.25 12.7515V11.7275C18.25 11.3133 18.5858 10.9775 19 10.9775C19.4142 10.9775 19.75 11.3133 19.75 11.7275V12.7515C19.75 15.4269 18.3702 17.913 16.0998 19.3283C13.5904 20.8926 10.4096 20.8926 7.90019 19.3283C5.62985 17.913 4.25 15.4269 4.25 12.7515V8.00568C4.25 6.99934 4.79969 6.07336 5.68316 5.59147L6.0423 6.24989L5.68316 5.59147L10.1085 3.17762Z" fill="#23294A"/>
</svg>
