<svg width="24" height="24" viewBox="0 0 24 24" fill="none" xmlns="http://www.w3.org/2000/svg">
<path fill-rule="evenodd" clip-rule="evenodd" d="M5.53847 7.29262C6.07318 5.48799 7.73118 4.25 9.61336 4.25H14.3866C16.2688 4.25 17.9268 5.48799 18.4615 7.29262L20.1211 12.8938C21.0611 16.0662 18.6839 19.25 15.3751 19.25H8.62492C5.31613 19.25 2.93888 16.0662 3.87887 12.8938L4.2809 11.5369C4.39857 11.1398 4.81591 10.9132 5.21306 11.0309C5.61021 11.1486 5.83677 11.5659 5.71909 11.9631L5.31707 13.3199C4.66192 15.531 6.31879 17.75 8.62492 17.75H15.3751C17.6812 17.75 19.3381 15.531 18.6829 13.3199L17.0233 7.71875C16.6773 6.55105 15.6045 5.75 14.3866 5.75H9.61336C8.39548 5.75 7.32265 6.55105 6.97667 7.71876L6.71909 8.58807C6.60142 8.98521 6.18408 9.21177 5.78693 9.0941C5.38978 8.97643 5.16322 8.55908 5.2809 8.16193L5.53847 7.29262Z" fill="#23294A"/>
<path fill-rule="evenodd" clip-rule="evenodd" d="M8.46967 7.46967C8.76256 7.17678 9.23744 7.17678 9.53033 7.46967L10.7626 8.7019C11.446 9.38532 12.554 9.38532 13.2374 8.7019L14.4697 7.46967C14.7626 7.17678 15.2374 7.17678 15.5303 7.46967C15.8232 7.76256 15.8232 8.23744 15.5303 8.53033L14.2981 9.76256C13.0289 11.0318 10.9711 11.0318 9.7019 9.76256L8.46967 8.53033C8.17678 8.23744 8.17678 7.76256 8.46967 7.46967Z" fill="#23294A"/>
</svg>
