<svg width="24" height="24" viewBox="0 0 24 24" fill="none" xmlns="http://www.w3.org/2000/svg">
<path fill-rule="evenodd" clip-rule="evenodd" d="M8.60796 5.02673C10.7837 4.21631 13.2166 4.21636 15.3923 5.02682C17.2992 5.73715 18.9267 6.87634 20.0967 8.40901C21.6962 10.5043 21.6962 13.4957 20.0967 15.591C18.9267 17.1237 17.2992 18.2629 15.3923 18.9732C13.2166 19.7837 10.7834 19.7837 8.60771 18.9732C6.63984 18.2402 4.96966 17.0504 3.79288 15.4433C2.30781 13.4152 2.30769 10.5851 3.79272 8.55694C4.03743 8.22273 4.50673 8.15018 4.84093 8.39488C5.17514 8.63959 5.24769 9.10888 5.00299 9.44309C3.9043 10.9436 3.90437 13.0566 5.00312 14.5571C5.98459 15.8975 7.40086 16.923 9.13132 17.5676C10.9693 18.2522 13.0307 18.2522 14.8687 17.5676C16.5457 16.9429 17.9276 15.9604 18.9044 14.6808C20.0937 13.123 20.0937 10.877 18.9044 9.31919C17.9276 8.03958 16.5457 7.05715 14.8687 6.43246C13.0307 5.74781 10.9695 5.74777 9.13154 6.43238C8.50885 6.66432 7.92675 6.94569 7.39119 7.27307C7.03778 7.48911 6.57615 7.37775 6.36011 7.02433C6.14407 6.67092 6.25543 6.20929 6.60885 5.99325C7.23075 5.61308 7.90006 5.29041 8.60796 5.02673Z" fill="#23294A"/>
<path fill-rule="evenodd" clip-rule="evenodd" d="M12 9.75C10.7574 9.75 9.75 10.7574 9.75 12C9.75 13.2426 10.7574 14.25 12 14.25C13.2426 14.25 14.25 13.2426 14.25 12C14.25 10.7574 13.2426 9.75 12 9.75ZM8.25 12C8.25 9.92893 9.92893 8.25 12 8.25C14.0711 8.25 15.75 9.92893 15.75 12C15.75 14.0711 14.0711 15.75 12 15.75C9.92893 15.75 8.25 14.0711 8.25 12Z" fill="#23294A"/>
</svg>
