<svg width="24" height="24" viewBox="0 0 24 24" fill="none" xmlns="http://www.w3.org/2000/svg">
<path fill-rule="evenodd" clip-rule="evenodd" d="M2.25 8C2.25 5.37665 4.37665 3.25 7 3.25H16.5C19.3995 3.25 21.75 5.60051 21.75 8.5V15.5C21.75 18.3995 19.3995 20.75 16.5 20.75H7C4.37665 20.75 2.25 18.6234 2.25 16V15C2.25 14.5858 2.58579 14.25 3 14.25C3.41421 14.25 3.75 14.5858 3.75 15V16C3.75 17.7949 5.20507 19.25 7 19.25H16.5C18.5711 19.25 20.25 17.5711 20.25 15.5V8.5C20.25 6.42893 18.5711 4.75 16.5 4.75H7C5.20507 4.75 3.75 6.20507 3.75 8V9C3.75 9.41421 3.41421 9.75 3 9.75C2.58579 9.75 2.25 9.41421 2.25 9V8Z" fill="#23294A"/>
<path fill-rule="evenodd" clip-rule="evenodd" d="M7.42382 8.35289C7.689 8.03468 8.16192 7.99169 8.48013 8.25686L10.5596 9.98973C11.394 10.6851 12.606 10.6851 13.4404 9.98973L15.5198 8.25686C15.8381 7.99169 16.311 8.03468 16.5762 8.35289C16.8413 8.6711 16.7983 9.14402 16.4801 9.40919L14.4007 11.1421C13.01 12.301 10.99 12.301 9.5993 11.1421L7.51985 9.40919C7.20164 9.14402 7.15865 8.6711 7.42382 8.35289Z" fill="#23294A"/>
</svg>
