<svg width="24" height="24" viewBox="0 0 24 24" fill="none" xmlns="http://www.w3.org/2000/svg">
<path fill-rule="evenodd" clip-rule="evenodd" d="M10.3048 5.0068C10.951 3.52768 13.0491 3.52768 13.6953 5.0068L15.2512 8.56811L14.6114 8.84766L15.2512 8.56811C15.2865 8.64891 15.351 8.71341 15.4318 8.74871L18.9931 10.3046C20.4722 10.9509 20.4722 13.0489 18.9931 13.6952L15.4318 15.2511C15.351 15.2864 15.2865 15.3509 15.2512 15.4317L13.6953 18.993C13.0491 20.4721 10.951 20.4721 10.3048 18.993L8.74728 15.4281C8.71298 15.3496 8.6503 15.2869 8.57178 15.2526C8.19221 15.0868 8.01895 14.6447 8.18478 14.2651C8.35061 13.8855 8.79275 13.7123 9.17232 13.8781C9.59712 14.0637 9.93622 14.4028 10.1218 14.8276L11.6793 18.3925C11.8016 18.6723 12.1985 18.6723 12.3207 18.3925L13.8767 14.8312C14.0633 14.4041 14.4042 14.0631 14.8313 13.8765L18.3926 12.3206C18.6724 12.1984 18.6724 11.8014 18.3926 11.6792L14.8313 10.1233C14.4042 9.93666 14.0633 9.59573 13.8767 9.16864L12.3207 5.60734C12.1985 5.3275 11.8016 5.3275 11.6793 5.60734L10.1234 9.16864C9.93678 9.59573 9.59585 9.93666 9.16876 10.1233L8.8685 9.43598L9.16876 10.1233L5.60746 11.6792C5.32763 11.8014 5.32762 12.1984 5.60746 12.3206L6.43204 12.6809C6.8116 12.8467 6.98487 13.2888 6.81904 13.6684C6.65321 14.048 6.21107 14.2213 5.8315 14.0554L5.00693 13.6952C3.5278 13.0489 3.5278 10.9509 5.00693 10.3046L8.56823 8.74871C8.64903 8.71341 8.71353 8.64891 8.74883 8.56811L10.3048 5.0068Z" fill="#23294A"/>
</svg>
