<svg width="24" height="24" viewBox="0 0 24 24" fill="none" xmlns="http://www.w3.org/2000/svg">
<path fill-rule="evenodd" clip-rule="evenodd" d="M14.3964 3.79743C15.0077 2.39826 16.9924 2.39825 17.6037 3.79743L18.3547 5.51655C18.38 5.57427 18.426 5.62034 18.4837 5.64555L20.2029 6.39663C21.602 7.00793 21.602 8.9926 20.2029 9.60389L18.4837 10.355C18.426 10.3802 18.38 10.4263 18.3547 10.484L17.6037 12.2031C16.9924 13.6023 15.0077 13.6023 14.3964 12.2031L13.6061 10.3941C13.2323 10.2255 13.0628 9.78708 13.2275 9.41031C13.3933 9.03074 13.8354 8.85748 14.215 9.02331C14.5559 9.17225 14.828 9.44439 14.977 9.78531L15.7709 11.6026C15.8583 11.8025 16.1418 11.8025 16.2291 11.6026L16.9802 9.88344C17.1567 9.47944 17.4792 9.15694 17.8832 8.98043L19.6023 8.22935C19.8022 8.14203 19.8022 7.8585 19.6023 7.77117L17.8832 7.02009C17.4792 6.84358 17.1567 6.52109 16.9802 6.11708L16.2291 4.39796C16.1418 4.19808 15.8583 4.19808 15.7709 4.39796L15.0199 6.11708C14.8434 6.52109 14.5209 6.84359 14.1169 7.02009L12.3881 7.77537C12.1919 7.8611 12.1919 8.13943 12.3881 8.22516L12.0879 8.91243L12.3881 8.22516L12.6491 8.33918C13.0287 8.50502 13.202 8.94715 13.0361 9.32672C12.8703 9.70629 12.4281 9.87956 12.0486 9.71372L11.7876 9.5997C10.3921 8.99001 10.3921 7.01052 11.7876 6.40083L13.5163 5.64555L13.8166 6.33282L13.5163 5.64555C13.574 5.62034 13.6201 5.57427 13.6453 5.51655L14.3964 3.79743ZM13.6025 10.3858L13.6025 10.3859L13.6025 10.3858Z" fill="#23294A"/>
<path fill-rule="evenodd" clip-rule="evenodd" d="M5.98802 9.58707C6.56439 8.26785 8.43565 8.26785 9.01201 9.58707L9.41433 10.5079C9.42946 10.5426 9.45711 10.5702 9.49173 10.5853L9.19147 11.2726L9.49174 10.5853L10.4126 10.9877C11.7318 11.564 11.7318 13.4353 10.4126 14.0116L9.49174 14.414C9.45711 14.4291 9.42946 14.4567 9.41433 14.4914L9.01201 15.4122C8.43565 16.7315 6.56439 16.7315 5.98802 15.4122L5.5857 14.4914C5.57057 14.4567 5.54293 14.4291 5.5083 14.414L5.80857 13.7267L5.5083 14.414L4.58744 14.0116C3.26822 13.4353 3.26822 11.564 4.58744 10.9877L4.94728 10.8304C5.32685 10.6646 5.76899 10.8379 5.93482 11.2174C6.10065 11.597 5.92738 12.0391 5.54781 12.205L5.18797 12.3622C5.14908 12.3792 5.13087 12.3994 5.12005 12.4168C5.1072 12.4375 5.09802 12.4662 5.09802 12.4997C5.09802 12.5331 5.1072 12.5618 5.12005 12.5825C5.13087 12.5999 5.14909 12.6201 5.18797 12.6371L4.8877 13.3244L5.18797 12.6371L6.10883 13.0394C6.48975 13.2059 6.79382 13.5099 6.96024 13.8908L7.36256 14.8117C7.37955 14.8506 7.39973 14.8688 7.41716 14.8796C7.43784 14.8925 7.46658 14.9016 7.50002 14.9016C7.53346 14.9016 7.56219 14.8925 7.58287 14.8796C7.6003 14.8688 7.62048 14.8506 7.63747 14.8117L8.03979 13.8908C8.20622 13.5099 8.51028 13.2059 8.8912 13.0394L9.81207 12.6371C9.85095 12.6201 9.86916 12.5999 9.87999 12.5825C9.89283 12.5618 9.90201 12.5331 9.90201 12.4997C9.90201 12.4662 9.89283 12.4375 9.87999 12.4168C9.86916 12.3994 9.85095 12.3792 9.81207 12.3622L8.8912 11.9599C8.51028 11.7935 8.20622 11.4894 8.03979 11.1085L7.63747 10.1876L8.32474 9.88734L7.63747 10.1876C7.62048 10.1487 7.6003 10.1305 7.58287 10.1197C7.56219 10.1068 7.53346 10.0977 7.50002 10.0977C7.46658 10.0977 7.43784 10.1068 7.41716 10.1197C7.39973 10.1305 7.37955 10.1487 7.36256 10.1876L7.22503 10.5024C7.0592 10.882 6.61706 11.0552 6.23749 10.8894C5.85792 10.7236 5.68466 10.2814 5.85049 9.90187L5.98802 9.58707Z" fill="#23294A"/>
<path fill-rule="evenodd" clip-rule="evenodd" d="M12.9455 15.2605C13.4367 14.4887 14.5634 14.4887 15.0546 15.2605L15.71 16.2904L16.7399 16.9458C17.5117 17.437 17.5117 18.5637 16.7399 19.0549L15.71 19.7104L15.0546 20.7403C14.5634 21.5121 13.4367 21.5121 12.9455 20.7403L12.29 19.7104L11.2601 19.0549C10.4883 18.5637 10.4883 17.437 11.2601 16.9458L12.29 16.2904L12.9455 15.2605ZM14 16.3973L13.5257 17.1426C13.4275 17.2969 13.2966 17.4278 13.1422 17.526L12.3969 18.0004L13.1422 18.4747C13.2966 18.5729 13.4275 18.7038 13.5257 18.8581L14 19.6035L14.4744 18.8581C14.5726 18.7038 14.7035 18.5729 14.8578 18.4747L15.6031 18.0004L14.8578 17.526C14.7035 17.4278 14.5726 17.2969 14.4744 17.1426L14 16.3973Z" fill="#23294A"/>
</svg>
