<svg width="24" height="24" viewBox="0 0 24 24" fill="none" xmlns="http://www.w3.org/2000/svg">
<path fill-rule="evenodd" clip-rule="evenodd" d="M10.0223 4.43459C11.001 3.09602 12.999 3.09602 13.9777 4.4346L15.5626 6.60216L14.9572 7.04483L15.5626 6.60216C15.6798 6.76252 15.8444 6.88209 16.0332 6.94405L18.5844 7.78154C20.1599 8.29874 20.7773 10.1989 19.8067 11.5434L18.235 13.7205C18.1187 13.8816 18.0558 14.0751 18.0552 14.2737L18.0471 16.9589C18.0421 18.6171 16.4257 19.7915 14.8471 19.2838L12.2908 18.4618C12.1017 18.401 11.8983 18.401 11.7092 18.4618L9.15291 19.2838C7.5743 19.7915 5.95791 18.6171 5.95289 16.9589L5.95152 16.5054C5.95026 16.0912 6.28503 15.7544 6.69924 15.7532C7.11346 15.7519 7.45026 16.0867 7.45151 16.5009L7.45288 16.9543C7.45483 17.5973 8.08159 18.0527 8.69371 17.8558L11.25 17.0338C11.7377 16.877 12.2623 16.877 12.75 17.0338L15.3063 17.8558C15.9184 18.0527 16.5452 17.5973 16.5471 16.9543L16.5552 14.2692C16.5568 13.7568 16.7189 13.2579 17.0188 12.8425L18.5905 10.6654C18.9669 10.1441 18.7275 9.40726 18.1166 9.20672L15.5653 8.36922C15.0786 8.20943 14.6541 7.90107 14.3517 7.48751L12.7669 5.31994C12.3874 4.8009 11.6126 4.8009 11.2331 5.31994L9.64825 7.48751C9.34586 7.90107 8.92143 8.20943 8.43467 8.36922L5.88344 9.20672C5.27253 9.40726 5.03313 10.1441 5.40949 10.6654L5.67489 11.033C5.91734 11.3689 5.84164 11.8377 5.50579 12.0801C5.16995 12.3226 4.70115 12.2469 4.4587 11.911L4.1933 11.5434C3.22268 10.1989 3.84009 8.29874 5.4156 7.78154L7.96683 6.94405C8.15557 6.88209 8.32014 6.76252 8.4374 6.60216L10.0223 4.43459Z" fill="#23294A"/>
</svg>
