<svg width="24" height="24" viewBox="0 0 24 24" fill="none" xmlns="http://www.w3.org/2000/svg">
<path fill-rule="evenodd" clip-rule="evenodd" d="M12 8.75C10.2051 8.75 8.75 10.2051 8.75 12C8.75 12.2817 8.78567 12.554 8.85235 12.8131C8.95559 13.2142 8.7141 13.6231 8.31296 13.7263C7.91182 13.8296 7.50294 13.5881 7.39969 13.1869C7.30184 12.8068 7.25 12.4089 7.25 12C7.25 9.37665 9.37665 7.25 12 7.25C12.8639 7.25 13.6761 7.48133 14.3755 7.88592C14.8225 8.14449 15.2231 8.47358 15.5623 8.85788C16.301 9.69477 16.75 10.7959 16.75 12C16.75 14.6234 14.6234 16.75 12 16.75C10.919 16.75 9.92048 16.388 9.12189 15.779C8.79252 15.5278 8.72913 15.0572 8.9803 14.7279C9.23147 14.3985 9.7021 14.3351 10.0315 14.5863C10.5778 15.0029 11.259 15.25 12 15.25C13.7949 15.25 15.25 13.7949 15.25 12C15.25 11.1752 14.9438 10.4239 14.4377 9.85048C14.205 9.58678 13.9303 9.36125 13.6245 9.18433C13.1472 8.90825 12.5932 8.75 12 8.75Z" fill="#23294A"/>
<path fill-rule="evenodd" clip-rule="evenodd" d="M12 2.25C12.4142 2.25 12.75 2.58579 12.75 3V5C12.75 5.41421 12.4142 5.75 12 5.75C11.5858 5.75 11.25 5.41421 11.25 5V3C11.25 2.58579 11.5858 2.25 12 2.25Z" fill="#23294A"/>
<path fill-rule="evenodd" clip-rule="evenodd" d="M18.25 12C18.25 11.5858 18.5858 11.25 19 11.25H21C21.4142 11.25 21.75 11.5858 21.75 12C21.75 12.4142 21.4142 12.75 21 12.75H19C18.5858 12.75 18.25 12.4142 18.25 12Z" fill="#23294A"/>
<path fill-rule="evenodd" clip-rule="evenodd" d="M16.2375 16.2372C16.5304 15.9444 17.0053 15.9444 17.2981 16.2372L19.0659 18.005C19.3588 18.2979 19.3588 18.7728 19.0659 19.0657C18.773 19.3586 18.2981 19.3586 18.0053 19.0657L16.2375 17.2979C15.9446 17.005 15.9446 16.5301 16.2375 16.2372Z" fill="#23294A"/>
<path fill-rule="evenodd" clip-rule="evenodd" d="M5.23748 5.23725C5.53038 4.94435 6.00525 4.94435 6.29814 5.23725L7.53035 6.46946C7.82325 6.76235 7.82325 7.23722 7.53035 7.53012C7.23746 7.82301 6.76258 7.82301 6.46969 7.53012L5.23748 6.29791C4.94459 6.00501 4.94459 5.53014 5.23748 5.23725Z" fill="#23294A"/>
<path fill-rule="evenodd" clip-rule="evenodd" d="M7.94451 16.4698C8.23741 16.7627 8.23741 17.2376 7.94451 17.5304L6.5303 18.9447C6.23741 19.2376 5.76253 19.2375 5.46964 18.9447C5.17675 18.6518 5.17675 18.1769 5.46964 17.884L6.88385 16.4698C7.17675 16.1769 7.65162 16.1769 7.94451 16.4698Z" fill="#23294A"/>
<path fill-rule="evenodd" clip-rule="evenodd" d="M19.0659 5.23736C19.3588 5.53025 19.3588 6.00513 19.0659 6.29802L17.6517 7.71223C17.3588 8.00513 16.8839 8.00513 16.591 7.71223C16.2981 7.41934 16.2981 6.94447 16.591 6.65157L18.0053 5.23736C18.2981 4.94447 18.773 4.94447 19.0659 5.23736Z" fill="#23294A"/>
<path fill-rule="evenodd" clip-rule="evenodd" d="M2.25 12C2.25 11.5858 2.58579 11.25 3 11.25H5C5.41421 11.25 5.75 11.5858 5.75 12C5.75 12.4142 5.41421 12.75 5 12.75H3C2.58579 12.75 2.25 12.4142 2.25 12Z" fill="#23294A"/>
<path fill-rule="evenodd" clip-rule="evenodd" d="M12 18.25C12.4142 18.25 12.75 18.5858 12.75 19V21C12.75 21.4142 12.4142 21.75 12 21.75C11.5858 21.75 11.25 21.4142 11.25 21V19C11.25 18.5858 11.5858 18.25 12 18.25Z" fill="#23294A"/>
</svg>
