<svg width="24" height="24" viewBox="0 0 24 24" fill="none" xmlns="http://www.w3.org/2000/svg">
<path fill-rule="evenodd" clip-rule="evenodd" d="M15.0303 9.46967C15.3232 9.76256 15.3232 10.2374 15.0303 10.5303L14.5303 11.0303C14.2374 11.3232 13.7626 11.3232 13.4697 11.0303C13.1768 10.7374 13.1768 10.2626 13.4697 9.96967L13.9697 9.46967C14.2626 9.17678 14.7374 9.17678 15.0303 9.46967ZM13.0303 11.4697C13.3232 11.7626 13.3232 12.2374 13.0303 12.5303L11.101 14.4596C10.7691 14.7916 10.2309 14.7916 9.89896 14.4596L8.46967 13.0303C8.17678 12.7374 8.17678 12.2626 8.46967 11.9697C8.76256 11.6768 9.23744 11.6768 9.53033 11.9697L10.5 12.9393L11.9697 11.4697C12.2626 11.1768 12.7374 11.1768 13.0303 11.4697Z" fill="#23294A"/>
<path fill-rule="evenodd" clip-rule="evenodd" d="M12 3.75C7.44365 3.75 3.75 7.44365 3.75 12C3.75 16.5563 7.44365 20.25 12 20.25C14.1135 20.25 16.0397 19.4563 17.4998 18.1495C17.8085 17.8732 18.2826 17.8995 18.5589 18.2081C18.8351 18.5168 18.8088 18.9909 18.5002 19.2672C16.7757 20.8106 14.4967 21.75 12 21.75C6.61522 21.75 2.25 17.3848 2.25 12C2.25 6.61522 6.61522 2.25 12 2.25C17.3848 2.25 21.75 6.61522 21.75 12C21.75 12.4142 21.4142 12.75 21 12.75C20.5858 12.75 20.25 12.4142 20.25 12C20.25 7.44365 16.5563 3.75 12 3.75Z" fill="#23294A"/>
</svg>
