<svg width="24" height="24" viewBox="0 0 24 24" fill="none" xmlns="http://www.w3.org/2000/svg">
<path fill-rule="evenodd" clip-rule="evenodd" d="M16.5221 8.46158C16.8195 8.74993 16.8268 9.22475 16.5384 9.52211L14.3566 11.7721C14.0683 12.0695 13.5934 12.0768 13.2961 11.7884C12.9987 11.5001 12.9914 11.0253 13.2798 10.7279L15.4616 8.47789C15.7499 8.18053 16.2247 8.17322 16.5221 8.46158ZM12.8857 12.2116C13.1831 12.4999 13.1904 12.9747 12.9021 13.2721L11.0792 15.1519C10.5881 15.6584 9.77552 15.6584 9.28444 15.1519L7.46158 13.2721C7.17322 12.9747 7.18053 12.4999 7.47789 12.2116C7.77526 11.9232 8.25007 11.9305 8.53843 12.2279L10.1818 13.9226L11.8252 12.2279C12.1136 11.9305 12.5884 11.9232 12.8857 12.2116Z" fill="#23294A"/>
</svg>
