<svg width="24" height="24" viewBox="0 0 24 24" fill="none" xmlns="http://www.w3.org/2000/svg">
<path fill-rule="evenodd" clip-rule="evenodd" d="M15 5.75C12.6528 5.75 10.75 7.65279 10.75 10C10.75 10.4142 10.4142 10.75 10 10.75C9.58579 10.75 9.25 10.4142 9.25 10C9.25 6.82436 11.8244 4.25 15 4.25C16.0461 4.25 17.029 4.53003 17.8755 5.01971C18.2341 5.22711 18.3566 5.68591 18.1492 6.04446C17.9418 6.403 17.483 6.52552 17.1245 6.31812C16.5001 5.95695 15.7754 5.75 15 5.75ZM18.9555 6.8508C19.3141 6.64339 19.7729 6.76591 19.9803 7.12446C20.47 7.97097 20.75 8.95392 20.75 10C20.75 13.1756 18.1756 15.75 15 15.75C14.756 15.75 14.5153 15.7348 14.2787 15.7051C13.8677 15.6536 13.5762 15.2787 13.6278 14.8677C13.6793 14.4567 14.0542 14.1652 14.4652 14.2168C14.6401 14.2387 14.8185 14.25 15 14.25C17.3472 14.25 19.25 12.3472 19.25 10C19.25 9.22464 19.0431 8.4999 18.6819 7.87554C18.4745 7.517 18.597 7.0582 18.9555 6.8508Z" fill="#23294A"/>
<path fill-rule="evenodd" clip-rule="evenodd" d="M9.00001 10.75C7.17792 10.75 5.62183 11.897 5.01799 13.5109C4.87283 13.8988 4.44067 14.0957 4.05272 13.9505C3.66478 13.8053 3.46795 13.3732 3.6131 12.9852C4.42904 10.8045 6.53205 9.25 9.00001 9.25C12.1757 9.25 14.75 11.8244 14.75 15C14.75 18.1756 12.1757 20.75 9.00001 20.75C6.46833 20.75 4.32064 19.1143 3.55236 16.8442C3.41957 16.4519 3.62999 16.0262 4.02235 15.8934C4.4147 15.7606 4.84041 15.971 4.97319 16.3634C5.54158 18.0428 7.13079 19.25 9.00001 19.25C11.3472 19.25 13.25 17.3472 13.25 15C13.25 12.6528 11.3472 10.75 9.00001 10.75Z" fill="#23294A"/>
<path fill-rule="evenodd" clip-rule="evenodd" d="M4.66863 8.40708C4.12164 8.89938 3.25001 8.51119 3.25001 7.77528L3.25001 3.59982C3.25001 3.13038 3.63057 2.74982 4.10001 2.74982L8.73942 2.74982C9.51844 2.74982 9.88707 3.71049 9.30804 4.23162L4.66863 8.40708ZM4.75001 6.3158L7.04554 4.24982L4.75001 4.24982L4.75001 6.3158Z" fill="#23294A"/>
<path fill-rule="evenodd" clip-rule="evenodd" d="M19.3314 15.5929C19.8784 15.1006 20.75 15.4888 20.75 16.2247V20.4002C20.75 20.8696 20.3694 21.2502 19.9 21.2502H15.2606C14.4816 21.2502 14.1129 20.2895 14.692 19.7684L19.3314 15.5929ZM19.25 17.6842L16.9545 19.7502H19.25V17.6842Z" fill="#23294A"/>
</svg>
