<svg width="24" height="24" viewBox="0 0 24 24" fill="none" xmlns="http://www.w3.org/2000/svg">
<path fill-rule="evenodd" clip-rule="evenodd" d="M12.7208 5.56845C12.3879 5.03578 11.6121 5.03578 11.2792 5.56845L9.166 8.94957C8.81216 9.51571 9.21918 10.2501 9.8868 10.2501H14.6415C15.0791 10.2501 15.3459 9.76869 15.114 9.39757L14.8015 8.89757C14.582 8.54632 14.6887 8.0836 15.04 7.86407C15.3913 7.64454 15.854 7.75132 16.0735 8.10257L16.386 8.60257C17.2424 9.97276 16.2573 11.7501 14.6415 11.7501H9.8868C8.04102 11.7501 6.91574 9.71979 7.894 8.15457L10.0072 4.77345C10.9276 3.30078 13.0724 3.30078 13.9928 4.77345L15.136 6.60257C15.3555 6.95382 15.2488 7.41654 14.8975 7.63607C14.5462 7.8556 14.0835 7.74882 13.864 7.39757L12.7208 5.56845Z" fill="#23294A"/>
<path fill-rule="evenodd" clip-rule="evenodd" d="M7.90098 11.2965C8.33682 10.6427 9.07056 10.25 9.85629 10.25H14.1437C14.9294 10.25 15.6632 10.6427 16.099 11.2965L17.9657 14.0965C19.0068 15.6582 17.8873 17.75 16.0104 17.75H7.98963C6.11269 17.75 4.99317 15.6582 6.03431 14.0965L6.37596 13.584C6.60573 13.2393 7.07138 13.1462 7.41602 13.376C7.76067 13.6057 7.8538 14.0714 7.62404 14.416L7.28238 14.9285C6.9058 15.4934 7.31074 16.25 7.98963 16.25H16.0104C16.6893 16.25 17.0942 15.4934 16.7176 14.9285L14.8509 12.1285C14.6933 11.892 14.4279 11.75 14.1437 11.75H9.85629C9.57209 11.75 9.3067 11.892 9.14905 12.1285L8.87404 12.541C8.64427 12.8857 8.17862 12.9788 7.83397 12.749C7.48933 12.5193 7.3962 12.0536 7.62596 11.709L7.90098 11.2965Z" fill="#23294A"/>
<path fill-rule="evenodd" clip-rule="evenodd" d="M12 16.25C12.4142 16.25 12.75 16.5858 12.75 17V20.5C12.75 20.9142 12.4142 21.25 12 21.25C11.5858 21.25 11.25 20.9142 11.25 20.5V17C11.25 16.5858 11.5858 16.25 12 16.25Z" fill="#23294A"/>
</svg>
