<svg width="24" height="24" viewBox="0 0 24 24" fill="none" xmlns="http://www.w3.org/2000/svg">
<path fill-rule="evenodd" clip-rule="evenodd" d="M12.6646 4.17052C12.2619 3.96919 11.7856 3.9808 11.3932 4.20151L6.40665 7.00646C5.3833 7.5821 4.75 8.66495 4.75 9.83909V10.4997C4.75 10.9139 4.41421 11.2497 4 11.2497C3.58579 11.2497 3.25 10.9139 3.25 10.4997V9.83909C3.25 8.12304 4.17559 6.54041 5.67126 5.6991L10.6579 2.89414C11.4842 2.42931 12.4874 2.40486 13.3354 2.82887C13.7059 3.01412 13.8561 3.46462 13.6708 3.83511C13.4856 4.20559 13.0351 4.35576 12.6646 4.17052ZM18.3677 5.72101C19.8393 6.54879 20.75 8.10595 20.75 9.79439V14.1603C20.75 15.8764 19.8244 17.459 18.3287 18.3003L14.3287 20.5503C12.8828 21.3636 11.1172 21.3636 9.67126 20.5503L5.67126 18.3003C4.17559 17.459 3.25 15.8764 3.25 14.1603V13.4997C3.25 13.0855 3.58579 12.7497 4 12.7497C4.41421 12.7497 4.75 13.0855 4.75 13.4997V14.1603C4.75 15.3344 5.3833 16.4173 6.40665 16.9929L10.4067 19.2429C11.396 19.7994 12.604 19.7994 13.5933 19.2429L17.5933 16.9929C18.6167 16.4173 19.25 15.3344 19.25 14.1603V9.79439C19.25 8.64786 18.6316 7.59048 17.6323 7.02838L18.3677 5.72101Z" fill="#23294A"/>
<path fill-rule="evenodd" clip-rule="evenodd" d="M9 9.25C9.41421 9.25 9.75 9.58579 9.75 10V13.1076C9.75 13.3404 9.85815 13.56 10.0427 13.702C10.3123 13.9094 10.6877 13.9094 10.9573 13.702C11.1418 13.56 11.25 13.3404 11.25 13.1076V10C11.25 9.58579 11.5858 9.25 12 9.25C12.4142 9.25 12.75 9.58579 12.75 10V13.1076C12.75 13.8061 12.4255 14.465 11.8718 14.891C11.0631 15.5131 9.93692 15.5131 9.12815 14.891C8.57446 14.465 8.25 13.8061 8.25 13.1076V10C8.25 9.58579 8.58579 9.25 9 9.25Z" fill="#23294A"/>
<path fill-rule="evenodd" clip-rule="evenodd" d="M15 9.25C15.4142 9.25 15.75 9.58579 15.75 10V14.5C15.75 14.9142 15.4142 15.25 15 15.25C14.5858 15.25 14.25 14.9142 14.25 14.5V10C14.25 9.58579 14.5858 9.25 15 9.25Z" fill="#23294A"/>
<path fill-rule="evenodd" clip-rule="evenodd" d="M16 2.75C14.7574 2.75 13.75 3.75736 13.75 5C13.75 6.24264 14.7574 7.25 16 7.25C17.2426 7.25 18.25 6.24264 18.25 5C18.25 3.75736 17.2426 2.75 16 2.75ZM12.25 5C12.25 2.92893 13.9289 1.25 16 1.25C18.0711 1.25 19.75 2.92893 19.75 5C19.75 7.07107 18.0711 8.75 16 8.75C13.9289 8.75 12.25 7.07107 12.25 5Z" fill="#23294A"/>
</svg>
