<svg width="24" height="24" viewBox="0 0 24 24" fill="none" xmlns="http://www.w3.org/2000/svg">
<path fill-rule="evenodd" clip-rule="evenodd" d="M7.625 8.75C6.68041 8.75 5.75 9.66015 5.75 11V15C5.75 16.3398 6.68041 17.25 7.625 17.25H16.375C17.3196 17.25 18.25 16.3398 18.25 15V11C18.25 9.66015 17.3196 8.75 16.375 8.75H7.625ZM4.25 11C4.25 9.02614 5.6701 7.25 7.625 7.25H16.375C18.3299 7.25 19.75 9.02614 19.75 11V15C19.75 16.9739 18.3299 18.75 16.375 18.75H7.625C5.6701 18.75 4.25 16.9739 4.25 15V11Z" fill="#23294A"/>
<path fill-rule="evenodd" clip-rule="evenodd" d="M12 12.25C12.4142 12.25 12.75 12.5858 12.75 13L12.75 15C12.75 15.4142 12.4142 15.75 12 15.75C11.5858 15.75 11.25 15.4142 11.25 15L11.25 13C11.25 12.5858 11.5858 12.25 12 12.25Z" fill="#23294A"/>
<path fill-rule="evenodd" clip-rule="evenodd" d="M11.9533 2.75H12.5858C13.6902 2.75 14.7494 3.18873 15.5303 3.96967C15.8232 4.26256 15.8232 4.73744 15.5303 5.03033C15.2374 5.32322 14.7626 5.32322 14.4697 5.03033C13.97 4.53069 13.2924 4.25 12.5858 4.25H12.0488C10.1721 4.50673 8.75 6.11424 8.75 8C8.75 8.41421 8.41421 8.75 8 8.75C7.58579 8.75 7.25 8.41421 7.25 8C7.25 5.33024 9.27049 3.08535 11.907 2.75579L11.9533 2.75Z" fill="#23294A"/>
</svg>
