<svg width="24" height="24" viewBox="0 0 24 24" fill="none" xmlns="http://www.w3.org/2000/svg">
<path fill-rule="evenodd" clip-rule="evenodd" d="M6.5 9.75C4.98122 9.75 3.75 10.9812 3.75 12.5V16.5C3.75 18.0188 4.98122 19.25 6.5 19.25H9.75C10.1642 19.25 10.5 19.5858 10.5 20C10.5 20.4142 10.1642 20.75 9.75 20.75H6.5C4.15279 20.75 2.25 18.8472 2.25 16.5V12.5C2.25 10.1528 4.15279 8.25 6.5 8.25H8.14286C8.55707 8.25 8.89286 8.58579 8.89286 9C8.89286 9.41421 8.55707 9.75 8.14286 9.75H6.5ZM15.1071 9C15.1071 8.58579 15.4429 8.25 15.8571 8.25H17.5C19.8472 8.25 21.75 10.1528 21.75 12.5V16.5C21.75 18.8472 19.8472 20.75 17.5 20.75H14.25C13.8358 20.75 13.5 20.4142 13.5 20C13.5 19.5858 13.8358 19.25 14.25 19.25H17.5C19.0188 19.25 20.25 18.0188 20.25 16.5V12.5C20.25 10.9812 19.0188 9.75 17.5 9.75H15.8571C15.4429 9.75 15.1071 9.41421 15.1071 9Z" fill="#23294A"/>
<path fill-rule="evenodd" clip-rule="evenodd" d="M12 5.25C12.4142 5.25 12.75 5.58579 12.75 6V10C12.75 10.4142 12.4142 10.75 12 10.75C11.5858 10.75 11.25 10.4142 11.25 10V6C11.25 5.58579 11.5858 5.25 12 5.25ZM12 11.25C12.4142 11.25 12.75 11.5858 12.75 12V14C12.75 14.4142 12.4142 14.75 12 14.75C11.5858 14.75 11.25 14.4142 11.25 14V12C11.25 11.5858 11.5858 11.25 12 11.25Z" fill="#23294A"/>
<path fill-rule="evenodd" clip-rule="evenodd" d="M11.3282 4.61126C11.6992 4.24026 12.3008 4.24026 12.6718 4.61126L14.5303 6.46984C14.8232 6.76273 14.8232 7.2376 14.5303 7.5305C14.2374 7.82339 13.7626 7.82339 13.4697 7.5305L12 6.06083L10.5303 7.5305C10.2374 7.82339 9.76256 7.82339 9.46967 7.5305C9.17678 7.2376 9.17678 6.76273 9.46967 6.46984L11.3282 4.61126Z" fill="#23294A"/>
</svg>
