<svg width="24" height="24" viewBox="0 0 24 24" fill="none" xmlns="http://www.w3.org/2000/svg">
<path fill-rule="evenodd" clip-rule="evenodd" d="M2.25 9C2.25 6.37665 4.37665 4.25 7 4.25H12C14.6234 4.25 16.75 6.37665 16.75 9V15C16.75 17.6234 14.6234 19.75 12 19.75H7C4.37665 19.75 2.25 17.6234 2.25 15V13.5C2.25 13.0858 2.58579 12.75 3 12.75C3.41421 12.75 3.75 13.0858 3.75 13.5V15C3.75 16.7949 5.20507 18.25 7 18.25H12C13.7949 18.25 15.25 16.7949 15.25 15V9C15.25 7.20507 13.7949 5.75 12 5.75H7C5.20507 5.75 3.75 7.20507 3.75 9V10.5C3.75 10.9142 3.41421 11.25 3 11.25C2.58579 11.25 2.25 10.9142 2.25 10.5V9Z" fill="#23294A"/>
<path fill-rule="evenodd" clip-rule="evenodd" d="M20.25 8.91926C20.25 8.44308 19.686 8.1919 19.3321 8.51045L16.5017 11.0578C16.1938 11.3349 15.7196 11.3099 15.4425 11.002C15.1654 10.6941 15.1904 10.2199 15.4983 9.94282L18.3286 7.39551C19.6478 6.20821 21.75 7.14442 21.75 8.91926V15.0813C21.75 16.8561 19.6479 17.7924 18.3286 16.6051L15.4983 14.0578C15.1904 13.7807 15.1654 13.3064 15.4425 12.9986C15.7196 12.6907 16.1938 12.6657 16.5017 12.9428L19.3321 15.4901C19.686 15.8087 20.25 15.5575 20.25 15.0813V8.91926Z" fill="#23294A"/>
</svg>
