<svg width="24" height="24" viewBox="0 0 24 24" fill="none" xmlns="http://www.w3.org/2000/svg">
<path fill-rule="evenodd" clip-rule="evenodd" d="M2.75 9.5C2.75 9.08579 3.08579 8.75 3.5 8.75H16.25C16.6642 8.75 17 9.08579 17 9.5C17 9.91421 16.6642 10.25 16.25 10.25H3.5C3.08579 10.25 2.75 9.91421 2.75 9.5ZM17.625 9.5C17.625 9.08579 17.9608 8.75 18.375 8.75H20.5C20.9142 8.75 21.25 9.08579 21.25 9.5C21.25 9.91421 20.9142 10.25 20.5 10.25H18.375C17.9608 10.25 17.625 9.91421 17.625 9.5Z" fill="#23294A"/>
<path fill-rule="evenodd" clip-rule="evenodd" d="M16.3377 2.33003C16.7076 2.51652 16.8562 2.96753 16.6697 3.33738L13.509 9.60607C13.3225 9.97593 12.8715 10.1246 12.5016 9.93809C12.1318 9.75161 11.9831 9.3006 12.1696 8.93074L15.3304 2.66206C15.5168 2.2922 15.9678 2.14355 16.3377 2.33003Z" fill="#23294A"/>
<path fill-rule="evenodd" clip-rule="evenodd" d="M10.8208 2.34962C11.1799 2.55622 11.3034 3.01474 11.0968 3.37375L7.48927 9.64243C7.28267 10.0014 6.82415 10.125 6.46514 9.91839C6.10613 9.71178 5.98258 9.25326 6.18918 8.89425L9.79671 2.62557C10.0033 2.26656 10.4618 2.14301 10.8208 2.34962Z" fill="#23294A"/>
<path fill-rule="evenodd" clip-rule="evenodd" d="M12.2571 18.4071C10.7516 19.2636 8.8835 18.1692 8.89446 16.4372L8.91091 13.8392C8.92187 12.1072 10.8037 11.0365 12.2982 11.912L14.5399 13.2253C16.0344 14.1008 16.0207 16.2658 14.5152 17.1223L12.2571 18.4071ZM10.3944 16.4467C10.3908 17.024 11.0135 17.3888 11.5153 17.1033L13.7735 15.8186C14.2753 15.533 14.2799 14.8114 13.7817 14.5195L11.54 13.2063C11.0418 12.9145 10.4145 13.2713 10.4109 13.8487L10.3944 16.4467Z" fill="#23294A"/>
<path fill-rule="evenodd" clip-rule="evenodd" d="M2.25 8C2.25 4.82436 4.82436 2.25 8 2.25H16C19.1756 2.25 21.75 4.82436 21.75 8V16C21.75 19.1756 19.1756 21.75 16 21.75H8C4.82436 21.75 2.25 19.1756 2.25 16V13.5C2.25 13.0858 2.58579 12.75 3 12.75C3.41421 12.75 3.75 13.0858 3.75 13.5V16C3.75 18.3472 5.65279 20.25 8 20.25H16C18.3472 20.25 20.25 18.3472 20.25 16V8C20.25 5.65279 18.3472 3.75 16 3.75H8C5.65279 3.75 3.75 5.65279 3.75 8V10C3.75 10.4142 3.41421 10.75 3 10.75C2.58579 10.75 2.25 10.4142 2.25 10V8Z" fill="#23294A"/>
</svg>
