<svg width="24" height="24" viewBox="0 0 24 24" fill="none" xmlns="http://www.w3.org/2000/svg">
<path d="M17.5 12C17.9142 12 18.2549 12.3371 18.2032 12.7481C18.0379 14.0635 17.4401 15.2952 16.4927 16.2426C15.3674 17.3679 13.5913 18 12 18C10.4087 18 8.88259 17.3679 7.75737 16.2426C6.80956 15.2948 6.03422 14.0626 5.81329 12.7465C5.74472 12.338 6.0858 12 6.50001 12C6.91423 12 7.24397 12.34 7.34016 12.7428C7.55932 13.6608 8.15128 14.5152 8.81803 15.182C9.66195 16.0259 10.8065 16.5 12 16.5C13.1935 16.5 14.3381 16.0259 15.182 15.182C15.8303 14.5337 16.4078 13.5939 16.6408 12.7396C16.7498 12.34 17.0858 12 17.5 12Z" fill="#23294A"/>
<path fill-rule="evenodd" clip-rule="evenodd" d="M12 17.25C12.4142 17.25 12.75 17.5858 12.75 18L12.75 21C12.75 21.4142 12.4142 21.75 12 21.75C11.5858 21.75 11.25 21.4142 11.25 21L11.25 18C11.25 17.5858 11.5858 17.25 12 17.25Z" fill="#23294A"/>
<path fill-rule="evenodd" clip-rule="evenodd" d="M12.25 7C12.25 6.58579 12.5858 6.25 13 6.25H15C15.4142 6.25 15.75 6.58579 15.75 7C15.75 7.41421 15.4142 7.75 15 7.75H13C12.5858 7.75 12.25 7.41421 12.25 7Z" fill="#23294A"/>
<path fill-rule="evenodd" clip-rule="evenodd" d="M11.25 10C11.25 9.58579 11.5858 9.25 12 9.25L15 9.25C15.4142 9.25 15.75 9.58579 15.75 10C15.75 10.4142 15.4142 10.75 15 10.75L12 10.75C11.5858 10.75 11.25 10.4142 11.25 10Z" fill="#23294A"/>
<path fill-rule="evenodd" clip-rule="evenodd" d="M8.25 5.75C8.25 3.817 9.817 2.25 11.75 2.25H12C14.0711 2.25 15.75 3.92893 15.75 6V11C15.75 13.0711 14.0711 14.75 12 14.75H11.75C9.817 14.75 8.25 13.183 8.25 11.25V10C8.25 9.58579 8.58579 9.25 9 9.25C9.41421 9.25 9.75 9.58579 9.75 10V11.25C9.75 12.3546 10.6454 13.25 11.75 13.25H12C13.2426 13.25 14.25 12.2426 14.25 11V6C14.25 4.75736 13.2426 3.75 12 3.75H11.75C10.6454 3.75 9.75 4.64543 9.75 5.75C9.75 6.16421 9.41421 6.5 9 6.5C8.58579 6.5 8.25 6.16421 8.25 5.75Z" fill="#23294A"/>
</svg>
