<svg width="24" height="24" viewBox="0 0 24 24" fill="none" xmlns="http://www.w3.org/2000/svg">
<path fill-rule="evenodd" clip-rule="evenodd" d="M17.25 12C17.25 11.5858 17.5858 11.25 18 11.25H21C21.4142 11.25 21.75 11.5858 21.75 12C21.75 12.4142 21.4142 12.75 21 12.75H18C17.5858 12.75 17.25 12.4142 17.25 12Z" fill="#23294A"/>
<path fill-rule="evenodd" clip-rule="evenodd" d="M19.5 9.75C19.9142 9.75 20.25 10.0858 20.25 10.5V13.5C20.25 13.9142 19.9142 14.25 19.5 14.25C19.0858 14.25 18.75 13.9142 18.75 13.5V10.5C18.75 10.0858 19.0858 9.75 19.5 9.75Z" fill="#23294A"/>
<path fill-rule="evenodd" clip-rule="evenodd" d="M15.25 8.49838C15.25 6.94698 13.4421 6.09796 12.2482 7.08874C11.733 7.51637 11.0844 7.75043 10.4148 7.75043H10C9.35607 7.75043 8.6021 7.83783 7.87013 8.05645C7.47324 8.17499 7.0554 7.94935 6.93686 7.55246C6.81832 7.15557 7.04396 6.73773 7.44085 6.61919C8.32999 6.35363 9.23061 6.25043 10 6.25043H10.4148C10.7346 6.25043 11.0443 6.13866 11.2903 5.93447C13.4617 4.13241 16.75 5.67665 16.75 8.49838V15.5025C16.75 18.3242 13.4617 19.8684 11.2903 18.0664C11.0443 17.8622 10.7346 17.7504 10.4148 17.7504H10C8.74176 17.7504 7.08943 17.4733 5.72505 16.6197C4.31814 15.7395 3.25 14.2594 3.25 12.0004C3.25 10.5435 3.6954 9.3896 4.42196 8.51077C4.68589 8.19153 5.15864 8.14669 5.47788 8.41062C5.79713 8.67455 5.84197 9.1473 5.57804 9.46654C5.08739 10.06 4.75 10.8704 4.75 12.0004C4.75 13.6973 5.51231 14.7172 6.52063 15.3481C7.57148 16.0055 8.91915 16.2504 10 16.2504H10.4148C11.0844 16.2504 11.733 16.4845 12.2482 16.9121C13.4421 17.9029 15.25 17.0539 15.25 15.5025V8.49838Z" fill="#23294A"/>
</svg>
