<svg width="24" height="24" viewBox="0 0 24 24" fill="none" xmlns="http://www.w3.org/2000/svg">
<path fill-rule="evenodd" clip-rule="evenodd" d="M19.55 9.40004C19.8814 9.15152 20.3515 9.21867 20.6 9.55004C21.6889 11.0019 21.6889 12.9982 20.6 14.45C20.3515 14.7814 19.8814 14.8486 19.55 14.6C19.2186 14.3515 19.1515 13.8814 19.4 13.55C20.0889 12.6315 20.0889 11.3686 19.4 10.45C19.1515 10.1187 19.2186 9.64857 19.55 9.40004Z" fill="#23294A"/>
<path fill-rule="evenodd" clip-rule="evenodd" d="M17.584 9.87604C17.9286 9.64628 18.3943 9.73941 18.6241 10.0841C19.3976 11.2443 19.3976 12.7559 18.6241 13.9161C18.3943 14.2608 17.9286 14.3539 17.584 14.1241C17.2393 13.8944 17.1462 13.4287 17.376 13.0841C17.8136 12.4277 17.8136 11.5725 17.376 10.9161C17.1462 10.5715 17.2393 10.1058 17.584 9.87604Z" fill="#23294A"/>
<path fill-rule="evenodd" clip-rule="evenodd" d="M15.25 8.49838C15.25 6.94698 13.4421 6.09796 12.2482 7.08874C11.733 7.51637 11.0844 7.75043 10.4148 7.75043H10C9.35607 7.75043 8.6021 7.83783 7.87013 8.05645C7.47324 8.17499 7.0554 7.94935 6.93686 7.55246C6.81832 7.15557 7.04396 6.73773 7.44085 6.61919C8.32999 6.35363 9.23061 6.25043 10 6.25043H10.4148C10.7346 6.25043 11.0443 6.13866 11.2903 5.93447C13.4617 4.13241 16.75 5.67665 16.75 8.49838V15.5025C16.75 18.3242 13.4617 19.8684 11.2903 18.0664C11.0443 17.8622 10.7346 17.7504 10.4148 17.7504H10C8.74176 17.7504 7.08943 17.4733 5.72505 16.6197C4.31814 15.7395 3.25 14.2594 3.25 12.0004C3.25 10.5435 3.6954 9.3896 4.42196 8.51077C4.68589 8.19153 5.15864 8.14669 5.47788 8.41062C5.79713 8.67455 5.84197 9.1473 5.57804 9.46654C5.08739 10.06 4.75 10.8704 4.75 12.0004C4.75 13.6973 5.51231 14.7172 6.52063 15.3481C7.57148 16.0055 8.91915 16.2504 10 16.2504H10.4148C11.0844 16.2504 11.733 16.4845 12.2482 16.9121C13.4421 17.9029 15.25 17.0539 15.25 15.5025V8.49838Z" fill="#23294A"/>
</svg>
