<svg width="24" height="24" viewBox="0 0 24 24" fill="none" xmlns="http://www.w3.org/2000/svg">
<path fill-rule="evenodd" clip-rule="evenodd" d="M12 6.75C9.10051 6.75 6.75 9.10051 6.75 12C6.75 14.8995 9.10051 17.25 12 17.25C13.1439 17.25 14.2003 16.8851 15.062 16.2651C15.6661 15.8305 16.1742 15.2708 16.5481 14.6245C16.9944 13.853 17.25 12.9575 17.25 12C17.25 11.5858 17.5858 11.25 18 11.25C18.4142 11.25 18.75 11.5858 18.75 12C18.75 13.2282 18.4213 14.3819 17.8465 15.3755C17.3659 16.2064 16.7135 16.9249 15.938 17.4828C14.8295 18.2802 13.4685 18.75 12 18.75C8.27208 18.75 5.25 15.7279 5.25 12C5.25 8.27208 8.27208 5.25 12 5.25C13.2282 5.25 14.3819 5.57872 15.3755 6.15349C16.2785 6.67583 17.0488 7.40104 17.6245 8.26695C17.8539 8.61188 17.7602 9.07742 17.4153 9.30675C17.0703 9.53609 16.6048 9.44239 16.3755 9.09746C15.9271 8.42317 15.327 7.85832 14.6245 7.4519C13.853 7.00564 12.9575 6.75 12 6.75Z" fill="#23294A"/>
<path fill-rule="evenodd" clip-rule="evenodd" d="M12 8.75C12.4142 8.75 12.75 9.08579 12.75 9.5V11.6893L13.5303 12.4697C13.8232 12.7626 13.8232 13.2374 13.5303 13.5303C13.2374 13.8232 12.7626 13.8232 12.4697 13.5303L11.6161 12.6768C11.3817 12.4424 11.25 12.1244 11.25 11.7929V9.5C11.25 9.08579 11.5858 8.75 12 8.75Z" fill="#23294A"/>
<path fill-rule="evenodd" clip-rule="evenodd" d="M10.8267 3.75C10.2731 3.75 9.78545 4.11412 9.62819 4.64489L8.7191 7.71307C8.60142 8.11021 8.18408 8.33677 7.78693 8.2191C7.38978 8.10143 7.16323 7.68408 7.2809 7.28693L8.18999 4.21876C8.53598 3.05105 9.6088 2.25 10.8267 2.25H13.1733C14.3912 2.25 15.464 3.05105 15.81 4.21876L16.7191 7.28693C16.8368 7.68408 16.6102 8.10143 16.2131 8.2191C15.8159 8.33677 15.3986 8.11021 15.2809 7.71307L14.3718 4.64489C14.2145 4.11412 13.7269 3.75 13.1733 3.75H10.8267Z" fill="#23294A"/>
<path fill-rule="evenodd" clip-rule="evenodd" d="M7.78693 15.7811C8.18408 15.6634 8.60142 15.89 8.7191 16.2871L9.67365 19.5087C9.80395 19.9485 10.208 20.2502 10.6667 20.2502H11.3333C11.7475 20.2502 12.0833 20.586 12.0833 21.0002C12.0833 21.4144 11.7475 21.7502 11.3333 21.7502H10.6667C9.54369 21.7502 8.55447 21.0116 8.23545 19.9349L7.2809 16.7133C7.16323 16.3161 7.38978 15.8988 7.78693 15.7811ZM16.2131 15.7811C16.6102 15.8988 16.8368 16.3161 16.7191 16.7133L15.7645 19.9349C15.4455 21.0116 14.4563 21.7502 13.3333 21.7502C12.9191 21.7502 12.5833 21.4144 12.5833 21.0002C12.5833 20.586 12.9191 20.2502 13.3333 20.2502C13.792 20.2502 14.196 19.9485 14.3264 19.5087L15.2809 16.2871C15.3986 15.89 15.8159 15.6634 16.2131 15.7811Z" fill="#23294A"/>
</svg>
