<svg width="24" height="24" viewBox="0 0 24 24" fill="none" xmlns="http://www.w3.org/2000/svg">
<path d="M9.43387 8C9.13799 8 8.85348 8.12502 8.60313 8.37502C8.38691 8.57956 8.23898 8.79547 8.14794 9.04547C8.0569 9.2841 8 9.54546 8 9.81819C8 10.2386 8.09104 10.6705 8.2845 11.125C8.47795 11.5795 8.73969 12.0341 9.0697 12.4886C9.39972 12.9432 9.77526 13.375 10.1849 13.7955C10.606 14.2045 11.0384 14.5796 11.4936 14.9091C11.9488 15.2386 12.4154 15.5 12.8706 15.7045C13.3257 15.9091 13.7696 16 14.1793 16C14.4638 16 14.7141 15.9432 14.9644 15.8523C15.2034 15.75 15.4196 15.6023 15.6245 15.3864C15.7383 15.2614 15.8293 15.125 15.8976 14.9773C15.9659 14.8296 16 14.6818 16 14.5455C16 14.4318 15.9772 14.3296 15.9317 14.2387C15.8862 14.1364 15.8179 14.0568 15.7155 13.9887L14.3954 13.0455C14.293 12.9773 14.202 12.9205 14.1109 12.8864C14.0199 12.8523 13.9403 12.8295 13.872 12.8295C13.7696 12.8295 13.6785 12.8523 13.5875 12.9091C13.4964 12.9545 13.394 13.0341 13.303 13.1364L12.9958 13.4318C12.9958 13.4318 12.9047 13.5 12.8364 13.5C12.8023 13.5 12.7681 13.5 12.734 13.4886C12.7112 13.4773 12.6771 13.4659 12.6657 13.4546C12.5292 13.3864 12.3585 13.2614 12.1537 13.0909C11.9374 12.9091 11.7326 12.7159 11.5164 12.5C11.3115 12.2841 11.1181 12.0796 10.936 11.8637C10.7653 11.6591 10.6401 11.4886 10.5605 11.3523C10.5605 11.3296 10.5377 11.3068 10.5263 11.2727C10.5263 11.2386 10.515 11.2159 10.515 11.1818C10.515 11.1137 10.5377 11.0682 10.5832 11.0227L10.8905 10.7045C10.9815 10.6136 11.0612 10.5114 11.1181 10.4205C11.175 10.3295 11.1977 10.2273 11.1977 10.1364C11.1977 10.0568 11.175 9.97729 11.1408 9.89774C11.1067 9.80683 11.0498 9.71592 10.9815 9.61365L10.0484 8.30684C9.98011 8.20457 9.88904 8.13637 9.77525 8.07955C9.67283 8.0341 9.55903 8.01137 9.45661 8.01137L9.43387 8Z" fill="#23294A"/>
<path fill-rule="evenodd" clip-rule="evenodd" d="M12 3.75C7.44365 3.75 3.75 7.44365 3.75 12C3.75 13.5235 4.16227 14.9485 4.88087 16.1718C5.01647 16.4027 5.06291 16.6821 4.99782 16.9529L4.29196 19.8904C4.24699 20.0775 4.42146 20.2431 4.60599 20.1885L7.54893 19.3174C7.81032 19.2401 8.08556 19.2689 8.31995 19.386C9.42695 19.9387 10.676 20.25 12 20.25C16.5563 20.25 20.25 16.5563 20.25 12C20.25 11.0462 20.0885 10.1318 19.7919 9.28154C19.6554 8.89044 19.8619 8.46279 20.253 8.32636C20.6441 8.18993 21.0717 8.39637 21.2081 8.78747C21.5594 9.79437 21.75 10.8757 21.75 12C21.75 17.3848 17.3848 21.75 12 21.75C10.5007 21.75 9.07866 21.4111 7.80793 20.8051L5.03172 21.6268C3.73996 22.0092 2.51872 20.8498 2.83347 19.5399L3.49775 16.7755C2.7031 15.3635 2.25 13.7336 2.25 12C2.25 6.61522 6.61522 2.25 12 2.25C13.5552 2.25 15.0274 2.61468 16.3338 3.26388C16.7047 3.44822 16.856 3.89836 16.6716 4.26929C16.4873 4.64023 16.0372 4.79149 15.6662 4.60716C14.5627 4.05873 13.3185 3.75 12 3.75Z" fill="#23294A"/>
</svg>
