<svg width="24" height="24" viewBox="0 0 24 24" fill="none" xmlns="http://www.w3.org/2000/svg">
<path fill-rule="evenodd" clip-rule="evenodd" d="M12 10.75C11.7048 10.75 11.4122 10.7749 11.125 10.8234C10.7165 10.8924 10.3295 10.6173 10.2605 10.2089C10.1914 9.80047 10.4666 9.41342 10.875 9.34438C11.2443 9.28195 11.6205 9.25 12 9.25C13.7902 9.25 15.5071 9.96116 16.7729 11.227C17.0658 11.5199 17.0658 11.9948 16.7729 12.2877C16.48 12.5806 16.0052 12.5806 15.7123 12.2877C14.7277 11.3031 13.3924 10.75 12 10.75ZM9.6495 10.4288C9.8566 10.7876 9.73368 11.2463 9.37495 11.4534C8.98097 11.6808 8.61496 11.9604 8.28765 12.2877C7.99476 12.5806 7.51989 12.5806 7.22699 12.2877C6.9341 11.9948 6.9341 11.5199 7.22699 11.227C7.64775 10.8063 8.11839 10.4468 8.62499 10.1543C8.98372 9.9472 9.4424 10.0701 9.6495 10.4288Z" fill="#23294A"/>
<path fill-rule="evenodd" clip-rule="evenodd" d="M12 13.75C11.4032 13.75 10.8309 13.9871 10.409 14.409C10.1161 14.7019 9.64123 14.7019 9.34833 14.409C9.05544 14.1161 9.05544 13.6412 9.34833 13.3483C10.0516 12.6451 11.0054 12.25 12 12.25C12.9945 12.25 13.9484 12.6451 14.6516 13.3483C14.9445 13.6412 14.9445 14.1161 14.6516 14.409C14.3587 14.7019 13.8839 14.7019 13.591 14.409C13.169 13.9871 12.5967 13.75 12 13.75Z" fill="#23294A"/>
<path d="M13 16C13 16.5523 12.5523 17 12 17C11.4477 17 11 16.5523 11 16C11 15.4477 11.4477 15 12 15C12.5523 15 13 15.4477 13 16Z" fill="#23294A"/>
<path fill-rule="evenodd" clip-rule="evenodd" d="M11.9999 7.75C9.81191 7.75 7.71349 8.61919 6.16632 10.1664C5.87342 10.4593 5.39855 10.4593 5.10566 10.1664C4.81276 9.87348 4.81276 9.3986 5.10566 9.10571C6.93414 7.27723 9.41409 6.25 11.9999 6.25C12.5481 6.25 13.0915 6.29616 13.6249 6.38633C14.0334 6.45536 14.3085 6.84242 14.2394 7.25084C14.1704 7.65926 13.7834 7.93439 13.3749 7.86535C12.9236 7.78906 12.4638 7.75 11.9999 7.75ZM15.3281 7.60441C15.5122 7.23335 15.9622 7.08178 16.3333 7.26587C17.2724 7.7318 18.1389 8.35042 18.8942 9.10571C19.1871 9.3986 19.1871 9.87347 18.8942 10.1664C18.6013 10.4593 18.1265 10.4593 17.8336 10.1664C17.1945 9.52724 16.4613 9.00385 15.6666 8.60959C15.2956 8.42551 15.144 7.97547 15.3281 7.60441Z" fill="#23294A"/>
</svg>
