<svg width="24" height="24" viewBox="0 0 24 24" fill="none" xmlns="http://www.w3.org/2000/svg">
<path fill-rule="evenodd" clip-rule="evenodd" d="M11.25 11C11.25 10.5858 11.5858 10.25 12 10.25C13.4366 10.25 14.8144 10.8207 15.8302 11.8365C16.1231 12.1294 16.1231 12.6043 15.8302 12.8972C15.5373 13.1901 15.0624 13.1901 14.7695 12.8972C14.035 12.1626 13.0388 11.75 12 11.75C11.5858 11.75 11.25 11.4142 11.25 11ZM10.5681 11.1623C10.7546 11.5321 10.606 11.9831 10.2362 12.1697C9.86778 12.3554 9.52776 12.5999 9.23053 12.8972C8.93763 13.1901 8.46276 13.1901 8.16987 12.8972C7.87697 12.6043 7.87697 12.1294 8.16987 11.8365C8.58088 11.4255 9.05121 11.0873 9.56069 10.8303C9.93053 10.6438 10.3816 10.7924 10.5681 11.1623Z" fill="#23294A"/>
<path fill-rule="evenodd" clip-rule="evenodd" d="M12 14.417C11.5801 14.417 11.1774 14.5838 10.8804 14.8807C10.5875 15.1736 10.1127 15.1736 9.81977 14.8807C9.52687 14.5878 9.52687 14.113 9.81977 13.8201C10.398 13.2418 11.1823 12.917 12 12.917C12.8178 12.917 13.602 13.2418 14.1803 13.8201C14.4732 14.113 14.4732 14.5878 14.1803 14.8807C13.8874 15.1736 13.4125 15.1736 13.1196 14.8807C12.8227 14.5838 12.4199 14.417 12 14.417Z" fill="#23294A"/>
<path d="M12.7777 16.7778C12.7777 17.2073 12.4295 17.5556 11.9999 17.5556C11.5704 17.5556 11.2222 17.2073 11.2222 16.7778C11.2222 16.3482 11.5704 16 11.9999 16C12.4295 16 12.7777 16.3482 12.7777 16.7778Z" fill="#23294A"/>
<path fill-rule="evenodd" clip-rule="evenodd" d="M12 8.75C10.3424 8.75 8.75273 9.40848 7.58062 10.5806C7.28773 10.8735 6.81286 10.8735 6.51996 10.5806C6.22707 10.2877 6.22707 9.81282 6.51996 9.51992C7.97337 8.06652 9.94461 7.25 12 7.25C12.4143 7.25 12.75 7.58579 12.75 8C12.75 8.41421 12.4143 8.75 12 8.75ZM13.9017 8.22163C14.0554 7.83701 14.4919 7.64983 14.8765 7.80357C15.8425 8.18969 16.7302 8.77004 17.4801 9.51992C17.773 9.81281 17.773 10.2877 17.4801 10.5806C17.1872 10.8735 16.7124 10.8735 16.4195 10.5806C15.8147 9.97584 15.0988 9.50784 14.3197 9.19643C13.9351 9.04269 13.748 8.60626 13.9017 8.22163Z" fill="#23294A"/>
<path fill-rule="evenodd" clip-rule="evenodd" d="M2.25 8C2.25 4.82436 4.82436 2.25 8 2.25H16C19.1756 2.25 21.75 4.82436 21.75 8V16C21.75 19.1756 19.1756 21.75 16 21.75H8C4.82436 21.75 2.25 19.1756 2.25 16V13.5C2.25 13.0858 2.58579 12.75 3 12.75C3.41421 12.75 3.75 13.0858 3.75 13.5V16C3.75 18.3472 5.65279 20.25 8 20.25H16C18.3472 20.25 20.25 18.3472 20.25 16V8C20.25 5.65279 18.3472 3.75 16 3.75H8C5.65279 3.75 3.75 5.65279 3.75 8V10C3.75 10.4142 3.41421 10.75 3 10.75C2.58579 10.75 2.25 10.4142 2.25 10V8Z" fill="#23294A"/>
</svg>
