<svg width="24" height="24" viewBox="0 0 24 24" fill="none" xmlns="http://www.w3.org/2000/svg">
<path fill-rule="evenodd" clip-rule="evenodd" d="M2.25 8C2.25 4.82436 4.82436 2.25 8 2.25H16C19.1756 2.25 21.75 4.82436 21.75 8V16C21.75 19.1756 19.1756 21.75 16 21.75H8C4.82436 21.75 2.25 19.1756 2.25 16V8ZM8 3.75C5.65279 3.75 3.75 5.65279 3.75 8V16C3.75 18.3472 5.65279 20.25 8 20.25H16C18.3472 20.25 20.25 18.3472 20.25 16V8C20.25 5.65279 18.3472 3.75 16 3.75H8Z" fill="#23294A"/>
<path fill-rule="evenodd" clip-rule="evenodd" d="M6.54272 8.40557C6.87103 8.15302 7.34192 8.21444 7.59447 8.54275L12.5945 15.0428C12.847 15.3711 12.7856 15.842 12.4573 16.0945C12.129 16.3471 11.6581 16.2856 11.4055 15.9573L6.40553 9.45732C6.15298 9.129 6.2144 8.65812 6.54272 8.40557Z" fill="#0EA541"/>
<path fill-rule="evenodd" clip-rule="evenodd" d="M12.4573 8.40557C12.7856 8.65812 12.847 9.129 12.5945 9.45732L7.59447 15.9573C7.34192 16.2856 6.87103 16.3471 6.54272 16.0945C6.2144 15.842 6.15298 15.3711 6.40553 15.0428L11.4055 8.54275C11.6581 8.21444 12.129 8.15302 12.4573 8.40557Z" fill="#0EA541"/>
<path fill-rule="evenodd" clip-rule="evenodd" d="M17.5 7.75C17.9142 7.75 18.25 8.08579 18.25 8.5V15.5C18.25 15.9142 17.9142 16.25 17.5 16.25C17.0858 16.25 16.75 15.9142 16.75 15.5V8.5C16.75 8.08579 17.0858 7.75 17.5 7.75Z" fill="#0EA541"/>
<path fill-rule="evenodd" clip-rule="evenodd" d="M16.2 12.75C15.6753 12.75 15.25 13.1753 15.25 13.7V13.8C15.25 14.3247 15.6753 14.75 16.2 14.75H17.5C17.9142 14.75 18.25 15.0858 18.25 15.5C18.25 15.9142 17.9142 16.25 17.5 16.25H16.2C14.8469 16.25 13.75 15.1531 13.75 13.8V13.7C13.75 12.3469 14.8469 11.25 16.2 11.25H17.5C17.9142 11.25 18.25 11.5858 18.25 12C18.25 12.4142 17.9142 12.75 17.5 12.75H16.2Z" fill="#0EA541"/>
</svg>
