<svg width="24" height="24" viewBox="0 0 24 24" fill="none" xmlns="http://www.w3.org/2000/svg">
<path fill-rule="evenodd" clip-rule="evenodd" d="M2.25 8C2.25 4.82436 4.82436 2.25 8 2.25H16C19.1756 2.25 21.75 4.82436 21.75 8V16C21.75 19.1756 19.1756 21.75 16 21.75H8C4.82436 21.75 2.25 19.1756 2.25 16V8ZM8 3.75C5.65279 3.75 3.75 5.65279 3.75 8V16C3.75 18.3472 5.65279 20.25 8 20.25H16C18.3472 20.25 20.25 18.3472 20.25 16V8C20.25 5.65279 18.3472 3.75 16 3.75H8Z" fill="#23294A"/>
<path fill-rule="evenodd" clip-rule="evenodd" d="M10.3445 9.91948C10.3135 9.94194 10.2779 9.98061 10.2575 10.0624L8.72761 16.1818C8.62715 16.5837 8.21995 16.828 7.8181 16.7275C7.41625 16.6271 7.17193 16.2199 7.2724 15.818L8.80225 9.69861C9.24411 7.93119 11.7559 7.9312 12.1978 9.69861L13.7276 15.818C13.8281 16.2199 13.5837 16.6271 13.1819 16.7275C12.7801 16.828 12.3729 16.5837 12.2724 16.1818L10.7425 10.0624C10.7221 9.98061 10.6865 9.94194 10.6555 9.91948C10.6184 9.89256 10.5641 9.87305 10.5 9.87305C10.4359 9.87305 10.3816 9.89256 10.3445 9.91948Z" fill="#0EA541"/>
<path fill-rule="evenodd" clip-rule="evenodd" d="M8.25 13C8.25 12.5858 8.58579 12.25 9 12.25H12C12.4142 12.25 12.75 12.5858 12.75 13C12.75 13.4142 12.4142 13.75 12 13.75H9C8.58579 13.75 8.25 13.4142 8.25 13Z" fill="#0EA541"/>
<path fill-rule="evenodd" clip-rule="evenodd" d="M16 10.75C16.4142 10.75 16.75 11.0858 16.75 11.5V16C16.75 16.4142 16.4142 16.75 16 16.75C15.5858 16.75 15.25 16.4142 15.25 16V11.5C15.25 11.0858 15.5858 10.75 16 10.75Z" fill="#0EA541"/>
<path fill-rule="evenodd" clip-rule="evenodd" d="M16 8.25C16.4142 8.25 16.75 8.58579 16.75 9V9.5C16.75 9.91421 16.4142 10.25 16 10.25C15.5858 10.25 15.25 9.91421 15.25 9.5V9C15.25 8.58579 15.5858 8.25 16 8.25Z" fill="#0EA541"/>
</svg>
