<svg width="24" height="24" viewBox="0 0 24 24" fill="none" xmlns="http://www.w3.org/2000/svg">
<path fill-rule="evenodd" clip-rule="evenodd" d="M12 3.75C7.44365 3.75 3.75 7.44365 3.75 12C3.75 16.5563 7.44365 20.25 12 20.25C16.5563 20.25 20.25 16.5563 20.25 12C20.25 7.44365 16.5563 3.75 12 3.75ZM2.25 12C2.25 6.61522 6.61522 2.25 12 2.25C17.3848 2.25 21.75 6.61522 21.75 12C21.75 17.3848 17.3848 21.75 12 21.75C6.61522 21.75 2.25 17.3848 2.25 12Z" fill="#23294A"/>
<path fill-rule="evenodd" clip-rule="evenodd" d="M10.4697 15.5303C10.1768 15.2374 10.1768 14.7626 10.4697 14.4697L12.7626 12.1768C12.8602 12.0791 12.8602 11.9209 12.7626 11.8232L10.4697 9.53033C10.1768 9.23744 10.1768 8.76256 10.4697 8.46967C10.7626 8.17678 11.2375 8.17678 11.5304 8.46967L13.8233 10.7626C14.5067 11.446 14.5067 12.554 13.8233 13.2374L11.5304 15.5303C11.2375 15.8232 10.7626 15.8232 10.4697 15.5303Z" fill="#0EA541"/>
</svg>
