<svg width="24" height="24" viewBox="0 0 24 24" fill="none" xmlns="http://www.w3.org/2000/svg">
<path fill-rule="evenodd" clip-rule="evenodd" d="M12 3.75C7.44365 3.75 3.75 7.44365 3.75 12C3.75 16.5563 7.44365 20.25 12 20.25C16.5563 20.25 20.25 16.5563 20.25 12C20.25 7.44365 16.5563 3.75 12 3.75ZM2.25 12C2.25 6.61522 6.61522 2.25 12 2.25C17.3848 2.25 21.75 6.61522 21.75 12C21.75 17.3848 17.3848 21.75 12 21.75C6.61522 21.75 2.25 17.3848 2.25 12Z" fill="#23294A"/>
<path fill-rule="evenodd" clip-rule="evenodd" d="M8.46967 10.4698C8.76256 10.1769 9.23744 10.1769 9.53033 10.4698L11.8232 12.7627C11.9209 12.8603 12.0791 12.8603 12.1768 12.7627L14.4697 10.4698C14.7626 10.1769 15.2374 10.1769 15.5303 10.4698C15.8232 10.7627 15.8232 11.2376 15.5303 11.5305L13.2374 13.8234C12.554 14.5068 11.446 14.5068 10.7626 13.8234L8.46967 11.5305C8.17678 11.2376 8.17678 10.7627 8.46967 10.4698Z" fill="#0EA541"/>
</svg>
