<svg width="24" height="24" viewBox="0 0 24 24" fill="none" xmlns="http://www.w3.org/2000/svg">
<path fill-rule="evenodd" clip-rule="evenodd" d="M12 3.75C7.44365 3.75 3.75 7.44365 3.75 12C3.75 16.5563 7.44365 20.25 12 20.25C16.5563 20.25 20.25 16.5563 20.25 12C20.25 7.44365 16.5563 3.75 12 3.75ZM2.25 12C2.25 6.61522 6.61522 2.25 12 2.25C17.3848 2.25 21.75 6.61522 21.75 12C21.75 17.3848 17.3848 21.75 12 21.75C6.61522 21.75 2.25 17.3848 2.25 12Z" fill="#23294A"/>
<path fill-rule="evenodd" clip-rule="evenodd" d="M13.5303 8.46967C13.8232 8.76256 13.8232 9.23744 13.5303 9.53033L11.2374 11.8232C11.1398 11.9209 11.1398 12.0791 11.2374 12.1768L13.5303 14.4697C13.8232 14.7626 13.8232 15.2374 13.5303 15.5303C13.2374 15.8232 12.7625 15.8232 12.4696 15.5303L10.1767 13.2374C9.49333 12.554 9.49333 11.446 10.1767 10.7626L12.4696 8.46967C12.7625 8.17678 13.2374 8.17678 13.5303 8.46967Z" fill="#0EA541"/>
</svg>
