<svg width="24" height="24" viewBox="0 0 24 24" fill="none" xmlns="http://www.w3.org/2000/svg">
<path fill-rule="evenodd" clip-rule="evenodd" d="M2.25 8C2.25 4.82436 4.82436 2.25 8 2.25H16C19.1756 2.25 21.75 4.82436 21.75 8V16C21.75 19.1756 19.1756 21.75 16 21.75H8C4.82436 21.75 2.25 19.1756 2.25 16V8ZM8 3.75C5.65279 3.75 3.75 5.65279 3.75 8V16C3.75 18.3472 5.65279 20.25 8 20.25H16C18.3472 20.25 20.25 18.3472 20.25 16V8C20.25 5.65279 18.3472 3.75 16 3.75H8Z" fill="#23294A"/>
<path fill-rule="evenodd" clip-rule="evenodd" d="M7.25 12C7.25 11.5858 7.58579 11.25 8 11.25L15 11.25C15.4142 11.25 15.75 11.5858 15.75 12C15.75 12.4142 15.4142 12.75 15 12.75L8 12.75C7.58579 12.75 7.25 12.4142 7.25 12Z" fill="#0EA541"/>
<path fill-rule="evenodd" clip-rule="evenodd" d="M12.4697 8.46967C12.7626 8.17678 13.2374 8.17678 13.5303 8.46967L16.1768 11.1161C16.6649 11.6043 16.6649 12.3957 16.1768 12.8839L13.5303 15.5303C13.2374 15.8232 12.7626 15.8232 12.4697 15.5303C12.1768 15.2374 12.1768 14.7626 12.4697 14.4697L14.9393 12L12.4697 9.53033C12.1768 9.23744 12.1768 8.76256 12.4697 8.46967Z" fill="#0EA541"/>
</svg>
