<svg width="24" height="24" viewBox="0 0 24 24" fill="none" xmlns="http://www.w3.org/2000/svg">
<path fill-rule="evenodd" clip-rule="evenodd" d="M12 3.75C7.44365 3.75 3.75 7.44365 3.75 12C3.75 16.5563 7.44365 20.25 12 20.25C16.5563 20.25 20.25 16.5563 20.25 12C20.25 7.44365 16.5563 3.75 12 3.75ZM2.25 12C2.25 6.61522 6.61522 2.25 12 2.25C17.3848 2.25 21.75 6.61522 21.75 12C21.75 17.3848 17.3848 21.75 12 21.75C6.61522 21.75 2.25 17.3848 2.25 12Z" fill="#23294A"/>
<path fill-rule="evenodd" clip-rule="evenodd" d="M15.5303 13.5302C15.2374 13.8231 14.7626 13.8231 14.4697 13.5302L12.1768 11.2373C12.0791 11.1397 11.9209 11.1397 11.8232 11.2373L9.53033 13.5302C9.23744 13.8231 8.76256 13.8231 8.46967 13.5302C8.17678 13.2373 8.17678 12.7624 8.46967 12.4695L10.7626 10.1766C11.446 9.49321 12.554 9.49321 13.2374 10.1766L15.5303 12.4695C15.8232 12.7624 15.8232 13.2373 15.5303 13.5302Z" fill="#0EA541"/>
</svg>
