<svg width="24" height="24" viewBox="0 0 24 24" fill="none" xmlns="http://www.w3.org/2000/svg">
<path fill-rule="evenodd" clip-rule="evenodd" d="M3.25 10.5C3.25 8.15279 5.15279 6.25 7.5 6.25H15.5C17.8472 6.25 19.75 8.15279 19.75 10.5V13.5C19.75 15.8472 17.8472 17.75 15.5 17.75H7.5C5.15279 17.75 3.25 15.8472 3.25 13.5V10.5ZM7.5 7.75C5.98122 7.75 4.75 8.98122 4.75 10.5V13.5C4.75 15.0188 5.98122 16.25 7.5 16.25H15.5C17.0188 16.25 18.25 15.0188 18.25 13.5V10.5C18.25 8.98122 17.0188 7.75 15.5 7.75H7.5Z" fill="#23294A"/>
<path fill-rule="evenodd" clip-rule="evenodd" d="M13.1468 9.42385C13.465 9.68903 13.508 10.1619 13.2428 10.4802L12.4913 11.382C13.1565 11.7282 13.3836 12.6771 12.7798 13.2808L11.5303 14.5303C11.2374 14.8232 10.7626 14.8232 10.4697 14.5303C10.1768 14.2375 10.1768 13.7626 10.4697 13.4697L11.3448 12.5946C10.7449 12.2495 10.5218 11.4023 11.0247 10.7988L12.0905 9.51988C12.3557 9.20167 12.8286 9.15868 13.1468 9.42385Z" fill="#0EA541"/>
<path fill-rule="evenodd" clip-rule="evenodd" d="M21 9.25C21.4142 9.25 21.75 9.58579 21.75 10L21.75 14C21.75 14.4142 21.4142 14.75 21 14.75C20.5858 14.75 20.25 14.4142 20.25 14L20.25 10C20.25 9.58579 20.5858 9.25 21 9.25Z" fill="#23294A"/>
</svg>
