<svg width="24" height="24" viewBox="0 0 24 24" fill="none" xmlns="http://www.w3.org/2000/svg">
<path fill-rule="evenodd" clip-rule="evenodd" d="M12 9.25C12.4142 9.25 12.75 9.58579 12.75 10V18C12.75 18.4142 12.4142 18.75 12 18.75C11.5858 18.75 11.25 18.4142 11.25 18V10C11.25 9.58579 11.5858 9.25 12 9.25Z" fill="#0EA541"/>
<path fill-rule="evenodd" clip-rule="evenodd" d="M9.75 11C9.75 10.5858 10.0858 10.25 10.5 10.25H13.5C13.9142 10.25 14.25 10.5858 14.25 11C14.25 11.4142 13.9142 11.75 13.5 11.75H10.5C10.0858 11.75 9.75 11.4142 9.75 11Z" fill="#0EA541"/>
<path fill-rule="evenodd" clip-rule="evenodd" d="M9.75 20C9.75 19.5858 10.0858 19.25 10.5 19.25H13.5C13.9142 19.25 14.25 19.5858 14.25 20C14.25 20.4142 13.9142 20.75 13.5 20.75H10.5C10.0858 20.75 9.75 20.4142 9.75 20Z" fill="#0EA541"/>
<path fill-rule="evenodd" clip-rule="evenodd" d="M8.51879 5.13145C10.5896 3.60701 13.4123 3.6084 15.4826 5.13248C18.0194 7.00003 18.635 10.5374 16.8746 13.1507L16.0859 14.3215C15.5411 15.1303 15.25 16.0833 15.25 17.0585C15.25 17.9927 14.4927 18.75 13.5585 18.75H10.4489C9.51064 18.75 8.75 17.9894 8.75 17.0511C8.75 16.0638 8.45441 15.0992 7.90131 14.2814L8.52255 13.8612L7.90131 14.2814L7.13608 13.1501C5.37024 10.5393 5.98053 7.00005 8.51879 5.13145ZM14.5933 6.34045C13.0515 5.20538 10.9494 5.20471 9.40806 6.33942C7.5182 7.73069 7.06381 10.3658 8.37857 12.3097L9.14379 13.4411C9.86472 14.5069 10.25 15.7643 10.25 17.0511C10.25 17.1609 10.3391 17.25 10.4489 17.25H13.5585C13.6643 17.25 13.75 17.1643 13.75 17.0585C13.75 15.7847 14.1302 14.5399 14.8418 13.4835L15.6305 12.3127C16.9413 10.3669 16.4833 7.73182 14.5933 6.34045Z" fill="#23294A"/>
</svg>
