<svg width="24" height="24" viewBox="0 0 24 24" fill="none" xmlns="http://www.w3.org/2000/svg">
<path fill-rule="evenodd" clip-rule="evenodd" d="M12 9.75C12.4142 9.75 12.75 10.0858 12.75 10.5V18.5C12.75 18.9142 12.4142 19.25 12 19.25C11.5858 19.25 11.25 18.9142 11.25 18.5V10.5C11.25 10.0858 11.5858 9.75 12 9.75Z" fill="#0EA541"/>
<path fill-rule="evenodd" clip-rule="evenodd" d="M9.75 11.5C9.75 11.0858 10.0858 10.75 10.5 10.75H13.5C13.9142 10.75 14.25 11.0858 14.25 11.5C14.25 11.9142 13.9142 12.25 13.5 12.25H10.5C10.0858 12.25 9.75 11.9142 9.75 11.5Z" fill="#0EA541"/>
<path fill-rule="evenodd" clip-rule="evenodd" d="M9.75 20.5C9.75 20.0858 10.0858 19.75 10.5 19.75H13.5C13.9142 19.75 14.25 20.0858 14.25 20.5C14.25 20.9142 13.9142 21.25 13.5 21.25H10.5C10.0858 21.25 9.75 20.9142 9.75 20.5Z" fill="#0EA541"/>
<path fill-rule="evenodd" clip-rule="evenodd" d="M18.75 9C18.75 8.58579 19.0858 8.25 19.5 8.25H20.5C20.9142 8.25 21.25 8.58579 21.25 9C21.25 9.41421 20.9142 9.75 20.5 9.75H19.5C19.0858 9.75 18.75 9.41421 18.75 9Z" fill="#23294A"/>
<path fill-rule="evenodd" clip-rule="evenodd" d="M2.75 9C2.75 8.58579 3.08579 8.25 3.5 8.25H4.5C4.91421 8.25 5.25 8.58579 5.25 9C5.25 9.41421 4.91421 9.75 4.5 9.75H3.5C3.08579 9.75 2.75 9.41421 2.75 9Z" fill="#23294A"/>
<path fill-rule="evenodd" clip-rule="evenodd" d="M12 1.25C12.4142 1.25 12.75 1.58579 12.75 2V2.5C12.75 2.91421 12.4142 3.25 12 3.25C11.5858 3.25 11.25 2.91421 11.25 2.5V2C11.25 1.58579 11.5858 1.25 12 1.25Z" fill="#23294A"/>
<path fill-rule="evenodd" clip-rule="evenodd" d="M4.96967 3.96967C5.26256 3.67678 5.73744 3.67678 6.03033 3.96967L6.53033 4.46967C6.82322 4.76256 6.82322 5.23744 6.53033 5.53033C6.23744 5.82322 5.76256 5.82322 5.46967 5.53033L4.96967 5.03033C4.67678 4.73744 4.67678 4.26256 4.96967 3.96967Z" fill="#23294A"/>
<path fill-rule="evenodd" clip-rule="evenodd" d="M19.0303 3.96967C19.3232 4.26256 19.3232 4.73744 19.0303 5.03033L18.5303 5.53033C18.2374 5.82322 17.7626 5.82322 17.4697 5.53033C17.1768 5.23744 17.1768 4.76256 17.4697 4.46967L17.9697 3.96967C18.2626 3.67678 18.7374 3.67678 19.0303 3.96967Z" fill="#23294A"/>
<path fill-rule="evenodd" clip-rule="evenodd" d="M8.51879 5.63145C10.5896 4.10701 13.4123 4.1084 15.4826 5.63248C18.0194 7.50003 18.635 11.0374 16.8746 13.6507L16.0859 14.8215C15.5411 15.6303 15.25 16.5833 15.25 17.5585C15.25 18.4927 14.4927 19.25 13.5585 19.25H10.4489C9.51064 19.25 8.75 18.4894 8.75 17.5511C8.75 16.5638 8.45441 15.5992 7.90131 14.7814L8.52255 14.3612L7.90131 14.7814L7.13608 13.6501C5.37024 11.0393 5.98053 7.50005 8.51879 5.63145ZM14.5933 6.84045C13.0515 5.70538 10.9494 5.70471 9.40806 6.83942C7.5182 8.23069 7.06381 10.8658 8.37857 12.8097L9.14379 13.9411C9.86472 15.0069 10.25 16.2643 10.25 17.5511C10.25 17.6609 10.3391 17.75 10.4489 17.75H13.5585C13.6643 17.75 13.75 17.6643 13.75 17.5585C13.75 16.2847 14.1302 15.0399 14.8418 13.9835L15.6305 12.8127C16.9413 10.8669 16.4833 8.23182 14.5933 6.84045Z" fill="#23294A"/>
</svg>
