<svg width="24" height="24" viewBox="0 0 24 24" fill="none" xmlns="http://www.w3.org/2000/svg">
<path fill-rule="evenodd" clip-rule="evenodd" d="M4.25 6.5C4.25 4.15279 6.15279 2.25 8.5 2.25H15.5C17.8472 2.25 19.75 4.15279 19.75 6.5V17.9669C19.75 19.9412 17.7314 21.2723 15.9167 20.4946L12.8863 19.1958C12.3203 18.9533 11.6797 18.9533 11.1137 19.1958L8.08328 20.4946C6.26864 21.2723 4.25 19.9412 4.25 17.9669V6.5ZM8.5 3.75C6.98122 3.75 5.75 4.98122 5.75 6.5V17.9669C5.75 18.8643 6.66756 19.4694 7.4924 19.1159L10.5228 17.8171C11.4661 17.4128 12.5339 17.4128 13.4772 17.8171L16.5076 19.1159C17.3324 19.4694 18.25 18.8643 18.25 17.9669V6.5C18.25 4.98122 17.0188 3.75 15.5 3.75H8.5Z" fill="#23294A"/>
<path fill-rule="evenodd" clip-rule="evenodd" d="M14.5303 8.46967C14.8232 8.76256 14.8232 9.23744 14.5303 9.53033L10.5303 13.5303C10.2374 13.8232 9.76256 13.8232 9.46967 13.5303C9.17678 13.2374 9.17678 12.7626 9.46967 12.4697L13.4697 8.46967C13.7626 8.17678 14.2374 8.17678 14.5303 8.46967Z" fill="#0EA541"/>
<path fill-rule="evenodd" clip-rule="evenodd" d="M9.46967 8.46967C9.76256 8.17678 10.2374 8.17678 10.5303 8.46967L14.5303 12.4697C14.8232 12.7626 14.8232 13.2374 14.5303 13.5303C14.2374 13.8232 13.7626 13.8232 13.4697 13.5303L9.46967 9.53033C9.17678 9.23744 9.17678 8.76256 9.46967 8.46967Z" fill="#0EA541"/>
</svg>
