<svg width="24" height="24" viewBox="0 0 24 24" fill="none" xmlns="http://www.w3.org/2000/svg">
<path fill-rule="evenodd" clip-rule="evenodd" d="M13.25 6C13.25 5.58579 13.5858 5.25 14 5.25H16C18.0711 5.25 19.75 6.92893 19.75 9C19.75 11.0711 18.0711 12.75 16 12.75H10.5C10.0858 12.75 9.75 13.0858 9.75 13.5C9.75 13.9142 9.41421 14.25 9 14.25C8.58579 14.25 8.25 13.9142 8.25 13.5C8.25 12.2574 9.25736 11.25 10.5 11.25H16C17.2426 11.25 18.25 10.2426 18.25 9C18.25 7.75736 17.2426 6.75 16 6.75H14C13.5858 6.75 13.25 6.41421 13.25 6Z" fill="#23294A"/>
<path fill-rule="evenodd" clip-rule="evenodd" d="M11.5 3.25C11.9142 3.25 12.25 3.58579 12.25 4V6C12.25 6.41421 11.9142 6.75 11.5 6.75C11.0858 6.75 10.75 6.41421 10.75 6V4C10.75 3.58579 11.0858 3.25 11.5 3.25Z" fill="#0EA541"/>
<path fill-rule="evenodd" clip-rule="evenodd" d="M9 3.25C9.41421 3.25 9.75 3.58579 9.75 4V6C9.75 6.41421 9.41421 6.75 9 6.75C8.58579 6.75 8.25 6.41421 8.25 6V4C8.25 3.58579 8.58579 3.25 9 3.25Z" fill="#0EA541"/>
<path fill-rule="evenodd" clip-rule="evenodd" d="M6 3.25C6.41421 3.25 6.75 3.58579 6.75 4V6C6.75 6.41421 6.41421 6.75 6 6.75C5.58579 6.75 5.25 6.41421 5.25 6V4C5.25 3.58579 5.58579 3.25 6 3.25Z" fill="#0EA541"/>
<path fill-rule="evenodd" clip-rule="evenodd" d="M5.7 4.75C5.17533 4.75 4.75 5.17533 4.75 5.7V7.3C4.75 7.82467 5.17533 8.25 5.7 8.25H12.3C12.8247 8.25 13.25 7.82467 13.25 7.3V5.7C13.25 5.17533 12.8247 4.75 12.3 4.75H5.7ZM3.25 5.7C3.25 4.3469 4.3469 3.25 5.7 3.25H12.3C13.6531 3.25 14.75 4.3469 14.75 5.7V7.3C14.75 8.6531 13.6531 9.75 12.3 9.75H5.7C4.3469 9.75 3.25 8.6531 3.25 7.3V5.7Z" fill="#23294A"/>
<path fill-rule="evenodd" clip-rule="evenodd" d="M8.28031 14.25C8.01991 14.25 7.85054 14.524 7.967 14.7569C8.18646 15.1959 8.22257 15.704 8.06739 16.1695L7.92233 16.6047C7.8368 16.8613 7.8368 17.1387 7.92233 17.3953L8.00069 17.6304L7.28918 17.8675L8.00069 17.6304C8.18886 18.1949 8.18886 18.8051 8.00069 19.3696L7.85338 19.8116C7.82545 19.8954 7.83195 19.9868 7.87146 20.0659C7.92788 20.1787 8.04322 20.25 8.1694 20.25H9.8306C9.95678 20.25 10.0721 20.1787 10.1285 20.0659C10.1681 19.9868 10.1746 19.8954 10.1466 19.8116L9.99931 19.3696L10.7108 19.1325L9.99931 19.3696C9.81115 18.8051 9.81115 18.1949 9.99931 17.6304L10.7108 17.8675L9.99931 17.6304L10.0777 17.3953C10.1632 17.1387 10.1632 16.8613 10.0777 16.6047L9.93261 16.1695C9.77743 15.704 9.81354 15.1959 10.033 14.7569C10.1495 14.524 9.98009 14.25 9.71969 14.25H8.28031ZM6.62536 15.4278C6.01023 14.1975 6.90484 12.75 8.28031 12.75H9.71969C11.0952 12.75 11.9898 14.1975 11.3746 15.4278C11.3331 15.5109 11.3263 15.6071 11.3556 15.6952L11.5007 16.1304L10.7892 16.3675L11.5007 16.1304C11.6889 16.6949 11.6889 17.3051 11.5007 17.8696L11.4223 18.1047C11.3368 18.3613 11.3368 18.6387 11.4223 18.8953L11.5696 19.3372C11.7234 19.7984 11.6876 20.3018 11.4702 20.7367C11.1597 21.3577 10.5249 21.75 9.8306 21.75H8.1694C7.47507 21.75 6.84033 21.3577 6.52982 20.7367L7.20064 20.4013L6.52982 20.7367C6.31239 20.3018 6.27662 19.7984 6.43036 19.3372L6.57767 18.8953C6.6632 18.6387 6.6632 18.3613 6.57767 18.1047L6.49931 17.8696L7.21082 17.6325L6.49931 17.8696C6.31114 17.3051 6.31114 16.6949 6.49931 16.1304L6.64436 15.6952C6.67374 15.6071 6.66691 15.5109 6.62536 15.4278Z" fill="#0EA541"/>
</svg>
