<svg width="24" height="24" viewBox="0 0 24 24" fill="none" xmlns="http://www.w3.org/2000/svg">
<path fill-rule="evenodd" clip-rule="evenodd" d="M16.5 3.75C14.4289 3.75 12.75 5.42893 12.75 7.5C12.75 9.57107 14.4289 11.25 16.5 11.25C18.5711 11.25 20.25 9.57107 20.25 7.5C20.25 5.42893 18.5711 3.75 16.5 3.75ZM11.25 7.5C11.25 4.60051 13.6005 2.25 16.5 2.25C19.3995 2.25 21.75 4.60051 21.75 7.5C21.75 10.3995 19.3995 12.75 16.5 12.75C13.6005 12.75 11.25 10.3995 11.25 7.5Z" fill="#23294A"/>
<path fill-rule="evenodd" clip-rule="evenodd" d="M7.25 10.75C5.86929 10.75 4.75 11.8693 4.75 13.25C4.75 14.6307 5.86929 15.75 7.25 15.75C8.63071 15.75 9.75 14.6307 9.75 13.25C9.75 11.8693 8.63071 10.75 7.25 10.75ZM3.25 13.25C3.25 11.0409 5.04086 9.25 7.25 9.25C9.45914 9.25 11.25 11.0409 11.25 13.25C11.25 15.4591 9.45914 17.25 7.25 17.25C5.04086 17.25 3.25 15.4591 3.25 13.25Z" fill="#0EA541"/>
<path fill-rule="evenodd" clip-rule="evenodd" d="M16.75 15.75C15.6454 15.75 14.75 16.6454 14.75 17.75C14.75 18.8546 15.6454 19.75 16.75 19.75C17.8546 19.75 18.75 18.8546 18.75 17.75C18.75 16.6454 17.8546 15.75 16.75 15.75ZM13.25 17.75C13.25 15.817 14.817 14.25 16.75 14.25C18.683 14.25 20.25 15.817 20.25 17.75C20.25 19.683 18.683 21.25 16.75 21.25C14.817 21.25 13.25 19.683 13.25 17.75Z" fill="#23294A"/>
</svg>
