<svg width="24" height="24" viewBox="0 0 24 24" fill="none" xmlns="http://www.w3.org/2000/svg">
<path fill-rule="evenodd" clip-rule="evenodd" d="M12.2724 5.81828C12.3729 5.41643 12.7801 5.17211 13.182 5.27257C15.9128 5.95527 18.045 8.08748 18.7277 10.8183C18.8281 11.2201 18.5838 11.6273 18.182 11.7278C17.7801 11.8282 17.3729 11.5839 17.2724 11.1821C16.7241 8.98871 15.0115 7.27613 12.8182 6.72778C12.4163 6.62732 12.172 6.22012 12.2724 5.81828Z" fill="#0EA541"/>
<path fill-rule="evenodd" clip-rule="evenodd" d="M4.34464 3.7122C5.62739 2.85703 7.36244 3.22328 8.19013 4.52393L9.73196 6.9468C10.4239 8.03422 10.2678 9.45635 9.35643 10.3678L8.84993 10.8743L8.92277 11.0442C9.61591 12.6616 10.8375 13.993 12.3842 14.8227L12.9347 14.4099C13.8292 13.739 15.0408 13.6765 15.9996 14.2518L18.2665 15.6119C19.4943 16.3486 19.8924 17.941 19.1557 19.1687L19.1242 19.2214L18.481 18.8355L19.1242 19.2214C18.7108 19.9102 18.1096 20.467 17.3911 20.8262L17.0529 20.9953C16.41 21.3168 15.6766 21.4088 14.9743 21.2561L15.1336 20.5232L14.9743 21.2561L14.709 21.1984C8.15167 19.7729 3.18502 14.4001 2.27835 7.75111C2.22521 7.36142 2.24692 6.96517 2.3423 6.58362L2.39919 6.35607C2.65919 5.31606 3.29751 4.41029 4.18949 3.81563L4.34464 3.7122ZM6.92464 5.32925C6.54842 4.73804 5.75976 4.57156 5.17669 4.96028L5.02154 5.06371C4.44004 5.45138 4.02391 6.04187 3.8544 6.71988L3.79752 6.94742C3.74841 7.14384 3.73724 7.34783 3.76459 7.54844C4.58611 13.5729 9.08624 18.4411 15.0277 19.7327L14.8683 20.4655L15.0277 19.7327L15.2929 19.7903C15.6609 19.8703 16.0452 19.8221 16.3821 19.6537L16.7203 19.4846L17.0557 20.1554L16.7203 19.4846C17.1837 19.2529 17.5714 18.8939 17.8379 18.4496L17.8695 18.397L18.4904 18.7696L17.8695 18.397C18.1799 17.8796 18.0122 17.2086 17.4948 16.8982L15.2278 15.538C14.792 15.2765 14.2413 15.3049 13.8347 15.6099L13.1017 16.1596L12.6517 15.5596L13.1017 16.1596C12.7573 16.4179 12.2965 16.4595 11.9115 16.267L12.2469 15.5961L11.9115 16.267C9.9537 15.2881 8.40628 13.647 7.54405 11.6351L7.38744 11.2697C7.19642 10.824 7.296 10.3069 7.63889 9.96397L8.29577 9.30709C8.71005 8.89282 8.78101 8.2464 8.46647 7.75212L6.92464 5.32925Z" fill="#23294A"/>
</svg>
