<svg width="24" height="24" viewBox="0 0 24 24" fill="none" xmlns="http://www.w3.org/2000/svg">
<path fill-rule="evenodd" clip-rule="evenodd" d="M18.5303 5.96967C18.8232 6.26256 18.8232 6.73744 18.5303 7.03033L15.5303 10.0303C15.2374 10.3232 14.7626 10.3232 14.4697 10.0303C14.1768 9.73744 14.1768 9.26256 14.4697 8.96967L17.4697 5.96967C17.7626 5.67678 18.2374 5.67678 18.5303 5.96967Z" fill="#0EA541"/>
<path fill-rule="evenodd" clip-rule="evenodd" d="M14.4697 5.96967C14.7626 5.67678 15.2374 5.67678 15.5303 5.96967L18.5303 8.96967C18.8232 9.26256 18.8232 9.73744 18.5303 10.0303C18.2374 10.3232 17.7626 10.3232 17.4697 10.0303L14.4697 7.03033C14.1768 6.73744 14.1768 6.26256 14.4697 5.96967Z" fill="#0EA541"/>
<path fill-rule="evenodd" clip-rule="evenodd" d="M5.8837 3.50907C7.16646 2.6539 8.9015 3.02015 9.72919 4.32081L11.271 6.74368C11.963 7.83109 11.8069 9.25322 10.8955 10.1646L10.389 10.6711L10.4618 10.8411C11.155 12.4584 12.3766 13.7898 13.9233 14.6196L14.4738 14.2067C15.3683 13.5359 16.5799 13.4734 17.5386 14.0486L19.8056 15.4088C21.0333 16.1454 21.4314 17.7379 20.6948 18.9656L20.6632 19.0182L20.0201 18.6324L20.6632 19.0182C20.2499 19.7071 19.6487 20.2638 18.9302 20.6231L18.592 20.7922C17.9491 21.1136 17.2157 21.2056 16.5133 21.053L16.6726 20.3201L16.5133 21.053L16.2481 20.9953C9.69074 19.5698 4.72409 14.1969 3.81741 7.54798C3.76427 7.15829 3.78598 6.76205 3.88137 6.3805L3.93825 6.15295C4.19826 5.11293 4.83657 4.20716 5.72855 3.61251L5.8837 3.50907ZM8.4637 5.12612C8.08748 4.53491 7.29882 4.36844 6.71575 4.75715L6.5606 4.86058C5.9791 5.24825 5.56297 5.83874 5.39347 6.51675L5.33658 6.7443C5.28747 6.94072 5.2763 7.1447 5.30366 7.34531C6.12517 13.3697 10.6253 18.2379 16.5667 19.5295L16.4074 20.2624L16.5667 19.5295L16.832 19.5872C17.2 19.6672 17.5843 19.619 17.9211 19.4506L18.2594 19.2815L18.5948 19.9523L18.2594 19.2815C18.7227 19.0498 19.1104 18.6907 19.377 18.2465L19.4086 18.1939L20.0295 18.5664L19.4086 18.1939C19.719 17.6765 19.5512 17.0055 19.0339 16.6951L16.7669 15.3349C16.3311 15.0734 15.7804 15.1018 15.3738 15.4067L14.6407 15.9565L14.1907 15.3565L14.6407 15.9565C14.2963 16.2148 13.8356 16.2564 13.4505 16.0638L13.7859 15.393L13.4505 16.0638C11.4928 15.085 9.94534 13.4438 9.08311 11.432L8.9265 11.0665C8.73548 10.6208 8.83507 10.1037 9.17796 9.76085L9.83484 9.10397C10.2491 8.68969 10.3201 8.04327 10.0055 7.54899L8.4637 5.12612Z" fill="#23294A"/>
</svg>
