<svg width="24" height="24" viewBox="0 0 24 24" fill="none" xmlns="http://www.w3.org/2000/svg">
<path fill-rule="evenodd" clip-rule="evenodd" d="M12.2724 5.81828C12.3728 5.41643 12.78 5.17211 13.1819 5.27257C15.9127 5.95527 18.0449 8.08748 18.7276 10.8183C18.8281 11.2201 18.5837 11.6273 18.1819 11.7278C17.78 11.8282 17.3728 11.5839 17.2724 11.1821C16.724 8.98871 15.0115 7.27613 12.8181 6.72778C12.4162 6.62732 12.1719 6.22012 12.2724 5.81828Z" fill="#0EA541"/>
<path fill-rule="evenodd" clip-rule="evenodd" d="M14.2724 3.81828C14.3728 3.41643 14.78 3.17211 15.1819 3.27257C17.9127 3.95527 20.0449 6.08748 20.7276 8.81828C20.8281 9.22012 20.5837 9.62732 20.1819 9.72778C19.78 9.82825 19.3728 9.58393 19.2724 9.18208C18.724 6.98871 17.0115 5.27613 14.8181 4.72778C14.4162 4.62732 14.1719 4.22012 14.2724 3.81828Z" fill="#0EA541"/>
<path fill-rule="evenodd" clip-rule="evenodd" d="M5.34464 3.50907C6.62739 2.6539 8.36244 3.02015 9.19013 4.32081L10.732 6.74368C11.4239 7.83109 11.2678 9.25322 10.3564 10.1646L9.84993 10.6711L9.92277 10.8411C10.6159 12.4584 11.8375 13.7898 13.3842 14.6196L13.9347 14.2067C14.8292 13.5359 16.0408 13.4734 16.9996 14.0486L19.2665 15.4088C20.4943 16.1454 20.8924 17.7379 20.1557 18.9656L20.1242 19.0182L19.481 18.6324L20.1242 19.0182C19.7108 19.7071 19.1096 20.2638 18.3911 20.6231L18.0529 20.7922C17.41 21.1136 16.6766 21.2056 15.9743 21.053L16.1336 20.3201L15.9743 21.053L15.709 20.9953C9.15167 19.5698 4.18502 14.1969 3.27835 7.54798C3.22521 7.15829 3.24692 6.76205 3.3423 6.3805L3.39919 6.15295C3.65919 5.11293 4.29751 4.20716 5.18949 3.61251L5.34464 3.50907ZM7.92464 5.12612C7.54842 4.53491 6.75976 4.36844 6.17669 4.75715L6.02154 4.86058C5.44004 5.24825 5.02391 5.83874 4.8544 6.51675L4.79752 6.7443C4.74841 6.94072 4.73724 7.1447 4.76459 7.34531C5.58611 13.3697 10.0862 18.2379 16.0277 19.5295L15.8683 20.2624L16.0277 19.5295L16.2929 19.5872C16.6609 19.6672 17.0452 19.619 17.3821 19.4506L17.7203 19.2815L18.0557 19.9523L17.7203 19.2815C18.1837 19.0498 18.5714 18.6907 18.8379 18.2465L18.8695 18.1939L19.4904 18.5664L18.8695 18.1939C19.1799 17.6765 19.0122 17.0055 18.4948 16.6951L16.2278 15.3349C15.792 15.0734 15.2413 15.1018 14.8347 15.4067L14.1017 15.9565L13.6517 15.3565L14.1017 15.9565C13.7573 16.2148 13.2965 16.2564 12.9115 16.0638L13.2469 15.393L12.9115 16.0638C10.9537 15.085 9.40628 13.4438 8.54405 11.432L8.38744 11.0665C8.19642 10.6208 8.296 10.1037 8.63889 9.76085L9.29577 9.10397C9.71005 8.68969 9.78101 8.04327 9.46647 7.54899L7.92464 5.12612Z" fill="#23294A"/>
</svg>
