<svg width="24" height="24" viewBox="0 0 24 24" fill="none" xmlns="http://www.w3.org/2000/svg">
<path fill-rule="evenodd" clip-rule="evenodd" d="M9.64667 4.75C8.97737 4.75 8.38068 5.17168 8.15724 5.80258C7.78905 6.84215 6.89316 7.60554 5.80833 7.80407L5.75103 7.81456L5.61601 7.07681L5.75103 7.81456C4.59196 8.02667 3.75 9.0367 3.75 10.215V15.8C3.75 17.7054 5.29462 19.25 7.2 19.25H16.8C18.7054 19.25 20.25 17.7054 20.25 15.8V10.215C20.25 9.0367 19.408 8.02667 18.249 7.81456L18.1917 7.80407L18.3267 7.06632L18.1917 7.80407C17.1068 7.60554 16.2109 6.84215 15.8428 5.80258C15.6193 5.17168 15.0226 4.75 14.3533 4.75H9.64667ZM6.74329 5.30181C7.17886 4.07199 8.342 3.25 9.64667 3.25H14.3533C15.658 3.25 16.8211 4.07199 17.2567 5.30181C17.4456 5.83511 17.9052 6.22673 18.4617 6.32857L18.519 6.33906L18.384 7.07681L18.519 6.33906C20.3905 6.68156 21.75 8.31242 21.75 10.215V15.8C21.75 18.5338 19.5338 20.75 16.8 20.75H7.2C4.46619 20.75 2.25 18.5338 2.25 15.8V10.215C2.25 8.31242 3.60949 6.68156 5.481 6.33906L5.5383 6.32857L5.67332 7.06632L5.5383 6.32857C6.09482 6.22673 6.55442 5.83511 6.74329 5.30181Z" fill="#23294A"/>
<path fill-rule="evenodd" clip-rule="evenodd" d="M12 10.75C10.7574 10.75 9.75 11.7574 9.75 13C9.75 14.2426 10.7574 15.25 12 15.25C13.2426 15.25 14.25 14.2426 14.25 13C14.25 11.7574 13.2426 10.75 12 10.75ZM8.25 13C8.25 10.9289 9.92893 9.25 12 9.25C14.0711 9.25 15.75 10.9289 15.75 13C15.75 15.0711 14.0711 16.75 12 16.75C9.92893 16.75 8.25 15.0711 8.25 13Z" fill="#0EA541"/>
</svg>
