<svg width="24" height="24" viewBox="0 0 24 24" fill="none" xmlns="http://www.w3.org/2000/svg">
<path fill-rule="evenodd" clip-rule="evenodd" d="M12 3.75C7.44365 3.75 3.75 7.44365 3.75 12C3.75 13.5235 4.16227 14.9485 4.88087 16.1718C5.01647 16.4027 5.06291 16.6821 4.99782 16.9529L4.29196 19.8904C4.24699 20.0775 4.42146 20.2431 4.60599 20.1885L7.54893 19.3174C7.81032 19.2401 8.08556 19.2689 8.31995 19.386C9.42695 19.9387 10.676 20.25 12 20.25C16.5563 20.25 20.25 16.5563 20.25 12C20.25 7.44365 16.5563 3.75 12 3.75ZM2.25 12C2.25 6.61522 6.61522 2.25 12 2.25C17.3848 2.25 21.75 6.61522 21.75 12C21.75 17.3848 17.3848 21.75 12 21.75C10.5007 21.75 9.07866 21.4111 7.80793 20.8051L5.03172 21.6268C3.73996 22.0092 2.51872 20.8498 2.83347 19.5399L3.49775 16.7755C2.7031 15.3635 2.25 13.7336 2.25 12Z" fill="#23294A"/>
<path fill-rule="evenodd" clip-rule="evenodd" d="M13.25 12C13.25 11.5858 13.5858 11.25 14 11.25H16C16.4142 11.25 16.75 11.5858 16.75 12C16.75 12.4142 16.4142 12.75 16 12.75H14C13.5858 12.75 13.25 12.4142 13.25 12Z" fill="#0EA541"/>
<path fill-rule="evenodd" clip-rule="evenodd" d="M7.25 12C7.25 11.5858 7.58579 11.25 8 11.25H10C10.4142 11.25 10.75 11.5858 10.75 12C10.75 12.4142 10.4142 12.75 10 12.75H8C7.58579 12.75 7.25 12.4142 7.25 12Z" fill="#0EA541"/>
</svg>
