<svg width="24" height="24" viewBox="0 0 24 24" fill="none" xmlns="http://www.w3.org/2000/svg">
<path fill-rule="evenodd" clip-rule="evenodd" d="M12 3.75C7.44365 3.75 3.75 7.44365 3.75 12C3.75 13.5235 4.16227 14.9485 4.88087 16.1718C5.01647 16.4027 5.06291 16.6821 4.99782 16.9529L4.29196 19.8904C4.24699 20.0775 4.42146 20.2431 4.60599 20.1885L7.54893 19.3174C7.81032 19.2401 8.08556 19.2689 8.31995 19.386C9.42695 19.9387 10.676 20.25 12 20.25C16.5563 20.25 20.25 16.5563 20.25 12C20.25 7.44365 16.5563 3.75 12 3.75ZM2.25 12C2.25 6.61522 6.61522 2.25 12 2.25C17.3848 2.25 21.75 6.61522 21.75 12C21.75 17.3848 17.3848 21.75 12 21.75C10.5007 21.75 9.07866 21.4111 7.80793 20.8051L5.03172 21.6268C3.73996 22.0092 2.51872 20.8498 2.83347 19.5399L3.49775 16.7755C2.7031 15.3635 2.25 13.7336 2.25 12Z" fill="#23294A"/>
<path d="M17 12C17 12.5523 16.5523 13 16 13C15.4477 13 15 12.5523 15 12C15 11.4477 15.4477 11 16 11C16.5523 11 17 11.4477 17 12Z" fill="#0EA541"/>
<path d="M13 12C13 12.5523 12.5523 13 12 13C11.4477 13 11 12.5523 11 12C11 11.4477 11.4477 11 12 11C12.5523 11 13 11.4477 13 12Z" fill="#0EA541"/>
<path d="M9 12C9 12.5523 8.55228 13 8 13C7.44772 13 7 12.5523 7 12C7 11.4477 7.44772 11 8 11C8.55228 11 9 11.4477 9 12Z" fill="#0EA541"/>
</svg>
