<svg width="24" height="24" viewBox="0 0 24 24" fill="none" xmlns="http://www.w3.org/2000/svg">
<path fill-rule="evenodd" clip-rule="evenodd" d="M14.6517 9.3482C14.9445 9.64109 14.9445 10.116 14.6517 10.4089L10.409 14.6515C10.1161 14.9444 9.64125 14.9444 9.34835 14.6515C9.05546 14.3586 9.05546 13.8837 9.34835 13.5908L13.591 9.3482C13.8839 9.05531 14.3588 9.05531 14.6517 9.3482Z" fill="#0EA541"/>
<path fill-rule="evenodd" clip-rule="evenodd" d="M9.34835 9.34858C9.64125 9.05568 10.1161 9.05568 10.409 9.34858L14.6517 13.5912C14.9445 13.8841 14.9445 14.359 14.6517 14.6519C14.3588 14.9448 13.8839 14.9448 13.591 14.6519L9.34835 10.4092C9.05546 10.1163 9.05546 9.64147 9.34835 9.34858Z" fill="#0EA541"/>
<path fill-rule="evenodd" clip-rule="evenodd" d="M12 3.75C7.44365 3.75 3.75 7.44365 3.75 12C3.75 16.5563 7.44365 20.25 12 20.25C16.5563 20.25 20.25 16.5563 20.25 12C20.25 7.44365 16.5563 3.75 12 3.75ZM2.25 12C2.25 6.61522 6.61522 2.25 12 2.25C17.3848 2.25 21.75 6.61522 21.75 12C21.75 17.3848 17.3848 21.75 12 21.75C6.61522 21.75 2.25 17.3848 2.25 12Z" fill="#23294A"/>
</svg>
