<svg width="24" height="24" viewBox="0 0 24 24" fill="none" xmlns="http://www.w3.org/2000/svg">
<path fill-rule="evenodd" clip-rule="evenodd" d="M7.46967 7.46967C7.76256 7.17678 8.23744 7.17678 8.53033 7.46967L16.5303 15.4697C16.8232 15.7626 16.8232 16.2374 16.5303 16.5303C16.2374 16.8232 15.7626 16.8232 15.4697 16.5303L7.46967 8.53033C7.17678 8.23744 7.17678 7.76256 7.46967 7.46967Z" fill="#23294A"/>
<path fill-rule="evenodd" clip-rule="evenodd" d="M16.5303 7.46967C16.8232 7.76256 16.8232 8.23744 16.5303 8.53033L8.53033 16.5303C8.23744 16.8232 7.76256 16.8232 7.46967 16.5303C7.17678 16.2374 7.17678 15.7626 7.46967 15.4697L15.4697 7.46967C15.7626 7.17678 16.2374 7.17678 16.5303 7.46967Z" fill="#23294A"/>
<path fill-rule="evenodd" clip-rule="evenodd" d="M14.0303 9.96967C14.3232 10.2626 14.3232 10.7374 14.0303 11.0303L11.0303 14.0303C10.7374 14.3232 10.2626 14.3232 9.96967 14.0303C9.67678 13.7374 9.67678 13.2626 9.96967 12.9697L12.9697 9.96967C13.2626 9.67678 13.7374 9.67678 14.0303 9.96967Z" fill="#0EA541"/>
<path fill-rule="evenodd" clip-rule="evenodd" d="M9.96967 9.96967C10.2626 9.67678 10.7374 9.67678 11.0303 9.96967L14.0303 12.9697C14.3232 13.2626 14.3232 13.7374 14.0303 14.0303C13.7374 14.3232 13.2626 14.3232 12.9697 14.0303L9.96967 11.0303C9.67678 10.7374 9.67678 10.2626 9.96967 9.96967Z" fill="#0EA541"/>
</svg>
