<svg width="24" height="24" viewBox="0 0 24 24" fill="none" xmlns="http://www.w3.org/2000/svg">
<path fill-rule="evenodd" clip-rule="evenodd" d="M7.65283 10.38C7.93619 10.6821 7.92098 11.1568 7.61886 11.4401L5.79536 13.1504C4.28474 14.5672 4.20868 16.9403 5.62548 18.4509C7.04227 19.9615 9.41541 20.0376 10.926 18.6208L12.7495 16.9105C13.0517 16.6272 13.5263 16.6424 13.8096 16.9445C14.093 17.2466 14.0778 17.7213 13.7757 18.0046L11.9522 19.7149C9.8373 21.6984 6.5149 21.5919 4.53139 19.4771C2.54787 17.3622 2.65435 14.0398 4.76922 12.0563L6.59272 10.346C6.89484 10.0627 7.36947 10.0779 7.65283 10.38Z" fill="#23294A"/>
<path fill-rule="evenodd" clip-rule="evenodd" d="M12.7925 4.53154C14.9074 2.54801 18.2298 2.65449 20.2134 4.76937C22.1969 6.88424 22.0904 10.2067 19.9755 12.1902L18.152 13.9004C17.8499 14.1838 17.3753 14.1686 17.0919 13.8664C16.8086 13.5643 16.8238 13.0897 17.1259 12.8063L18.9494 11.0961C20.46 9.67928 20.5361 7.30613 19.1193 5.79551C17.7025 4.28488 15.3293 4.20882 13.8187 5.62563L11.9952 7.33586C11.6931 7.61922 11.2184 7.60401 10.9351 7.30188C10.6517 6.99976 10.6669 6.52513 10.9691 6.24177L12.7925 4.53154Z" fill="#23294A"/>
<path fill-rule="evenodd" clip-rule="evenodd" d="M15.0303 9.46958C15.3232 9.76247 15.3232 10.2373 15.0303 10.5302L10.5303 15.0302C10.2374 15.3231 9.76254 15.3231 9.46965 15.0302C9.17676 14.7373 9.17676 14.2624 9.46965 13.9695L13.9697 9.46957C14.2626 9.17668 14.7374 9.17668 15.0303 9.46958Z" fill="#0EA541"/>
</svg>
