<svg width="24" height="24" viewBox="0 0 24 24" fill="none" xmlns="http://www.w3.org/2000/svg">
<path fill-rule="evenodd" clip-rule="evenodd" d="M12 12.75C12.4142 12.75 12.75 13.0858 12.75 13.5V16.5C12.75 16.9142 12.4142 17.25 12 17.25C11.5858 17.25 11.25 16.9142 11.25 16.5V13.5C11.25 13.0858 11.5858 12.75 12 12.75Z" fill="#0EA541"/>
<path fill-rule="evenodd" clip-rule="evenodd" d="M9 13.75C9.41421 13.75 9.75 14.0858 9.75 14.5V15.5C9.75 15.9142 9.41421 16.25 9 16.25C8.58579 16.25 8.25 15.9142 8.25 15.5V14.5C8.25 14.0858 8.58579 13.75 9 13.75Z" fill="#0EA541"/>
<path fill-rule="evenodd" clip-rule="evenodd" d="M15 13.75C15.4142 13.75 15.75 14.0858 15.75 14.5V15.5C15.75 15.9142 15.4142 16.25 15 16.25C14.5858 16.25 14.25 15.9142 14.25 15.5V14.5C14.25 14.0858 14.5858 13.75 15 13.75Z" fill="#0EA541"/>
<path fill-rule="evenodd" clip-rule="evenodd" d="M12.3153 4.92508C12.1676 4.69164 11.8324 4.69164 11.6847 4.92509L9.25275 8.76968C8.7075 9.63164 7.49133 9.73477 6.81023 8.97345L3.81388 5.62419C3.8054 5.61471 3.80025 5.61171 3.79949 5.61127C3.79854 5.61071 3.79829 5.61068 3.79793 5.6106C3.79643 5.61028 3.78806 5.60928 3.77547 5.61414C3.76288 5.619 3.7564 5.62576 3.75446 5.62843C3.75374 5.62943 3.75314 5.63046 3.7525 5.63243C3.75193 5.63419 3.75 5.64071 3.75 5.6541V15.473C3.75 17.5632 5.43316 19.25 7.5 19.25H16.5C18.5668 19.25 20.25 17.5632 20.25 15.473V5.6541C20.25 5.64071 20.2481 5.63419 20.2475 5.63243C20.2469 5.63046 20.2463 5.62943 20.2455 5.62843C20.2436 5.62576 20.2371 5.619 20.2245 5.61414C20.2119 5.60928 20.2036 5.61028 20.2021 5.6106L20.202 5.61061C20.2017 5.61068 20.2014 5.61074 20.2005 5.61127C20.1997 5.61171 20.1946 5.61471 20.1861 5.62419L17.1898 8.97345C16.5087 9.73477 15.2925 9.63163 14.7473 8.76968L12.3153 4.92508ZM10.417 4.1232C11.1535 2.95894 12.8465 2.95893 13.583 4.1232L16.0149 7.9678C16.029 7.99003 16.056 7.991 16.0719 7.97332L19.0682 4.62407C20.0166 3.56401 21.75 4.24937 21.75 5.6541V15.473C21.75 18.3832 19.4037 20.75 16.5 20.75H7.5C4.59628 20.75 2.25 18.3832 2.25 15.473V5.6541C2.25 4.24938 3.98344 3.564 4.9318 4.62407L7.92815 7.97332C7.94396 7.991 7.97102 7.99003 7.98508 7.9678L10.417 4.1232Z" fill="#23294A"/>
</svg>
