<svg width="24" height="24" viewBox="0 0 24 24" fill="none" xmlns="http://www.w3.org/2000/svg">
<path fill-rule="evenodd" clip-rule="evenodd" d="M5.25 18.75C5.25 16.817 6.817 15.25 8.75 15.25H12.25V18.75C12.25 20.683 10.683 22.25 8.75 22.25C6.817 22.25 5.25 20.683 5.25 18.75ZM8.75 16.75C7.64543 16.75 6.75 17.6454 6.75 18.75C6.75 19.8546 7.64543 20.75 8.75 20.75C9.85457 20.75 10.75 19.8546 10.75 18.75V16.75H8.75Z" fill="#0EA541"/>
<path fill-rule="evenodd" clip-rule="evenodd" d="M11.25 12.8C11.25 10.8394 12.8394 9.25 14.8 9.25C16.7606 9.25 18.35 10.8394 18.35 12.8C18.35 14.7606 16.7606 16.35 14.8 16.35C12.8394 16.35 11.25 14.7606 11.25 12.8ZM14.8 10.75C13.6678 10.75 12.75 11.6678 12.75 12.8C12.75 13.9322 13.6678 14.85 14.8 14.85C15.9322 14.85 16.85 13.9322 16.85 12.8C16.85 11.6678 15.9322 10.75 14.8 10.75Z" fill="#23294A"/>
<path fill-rule="evenodd" clip-rule="evenodd" d="M11.25 3.25H14.75C16.683 3.25 18.25 4.817 18.25 6.75C18.25 8.683 16.683 10.25 14.75 10.25H11.25V3.25ZM12.75 4.75V8.75H14.75C15.8546 8.75 16.75 7.85457 16.75 6.75C16.75 5.64543 15.8546 4.75 14.75 4.75H12.75Z" fill="#23294A"/>
<path fill-rule="evenodd" clip-rule="evenodd" d="M13.0303 9.46967C13.3232 9.76256 13.3232 10.2374 13.0303 10.5303L12.5303 11.0303C12.2374 11.3232 11.7626 11.3232 11.4697 11.0303C11.1768 10.7374 11.1768 10.2626 11.4697 9.96967L11.9697 9.46967C12.2626 9.17678 12.7374 9.17678 13.0303 9.46967Z" fill="#23294A"/>
<path fill-rule="evenodd" clip-rule="evenodd" d="M5.25 6.75C5.25 4.817 6.817 3.25 8.75 3.25H12.25V10.25H8.75C6.817 10.25 5.25 8.683 5.25 6.75ZM8.75 4.75C7.64543 4.75 6.75 5.64543 6.75 6.75C6.75 7.85457 7.64543 8.75 8.75 8.75H10.75V4.75H8.75Z" fill="#0EA541"/>
<path fill-rule="evenodd" clip-rule="evenodd" d="M5.25 12.75C5.25 10.817 6.817 9.25 8.75 9.25H12.25V16.25H8.75C6.817 16.25 5.25 14.683 5.25 12.75ZM8.75 10.75C7.64543 10.75 6.75 11.6454 6.75 12.75C6.75 13.8546 7.64543 14.75 8.75 14.75H10.75V10.75H8.75Z" fill="#0EA541"/>
</svg>
