<svg width="24" height="24" viewBox="0 0 24 24" fill="none" xmlns="http://www.w3.org/2000/svg">
<path fill-rule="evenodd" clip-rule="evenodd" d="M4.25 14.5C4.25 12.1528 6.15279 10.25 8.5 10.25H15.5C17.8472 10.25 19.75 12.1528 19.75 14.5V17.5C19.75 19.8472 17.8472 21.75 15.5 21.75H8.5C6.15279 21.75 4.25 19.8472 4.25 17.5V14.5ZM8.5 11.75C6.98122 11.75 5.75 12.9812 5.75 14.5V17.5C5.75 19.0188 6.98122 20.25 8.5 20.25H15.5C17.0188 20.25 18.25 19.0188 18.25 17.5V14.5C18.25 12.9812 17.0188 11.75 15.5 11.75H8.5Z" fill="#23294A"/>
<path fill-rule="evenodd" clip-rule="evenodd" d="M6.25 6.2C6.25 4.01848 8.01848 2.25 10.2 2.25H13.8C15.9815 2.25 17.75 4.01848 17.75 6.2V11C17.75 11.4142 17.4142 11.75 17 11.75C16.5858 11.75 16.25 11.4142 16.25 11V6.2C16.25 4.8469 15.1531 3.75 13.8 3.75H10.2C8.8469 3.75 7.75 4.8469 7.75 6.2V11C7.75 11.4142 7.41421 11.75 7 11.75C6.58579 11.75 6.25 11.4142 6.25 11V6.2Z" fill="#23294A"/>
<path fill-rule="evenodd" clip-rule="evenodd" d="M14 5.25C14.4142 5.25 14.75 5.58579 14.75 6V8C14.75 8.41421 14.4142 8.75 14 8.75C13.5858 8.75 13.25 8.41421 13.25 8V6C13.25 5.58579 13.5858 5.25 14 5.25Z" fill="#0EA541"/>
<path fill-rule="evenodd" clip-rule="evenodd" d="M10 5.25C10.4142 5.25 10.75 5.58579 10.75 6V8C10.75 8.41421 10.4142 8.75 10 8.75C9.58579 8.75 9.25 8.41421 9.25 8V6C9.25 5.58579 9.58579 5.25 10 5.25Z" fill="#0EA541"/>
</svg>
