<svg width="24" height="24" viewBox="0 0 24 24" fill="none" xmlns="http://www.w3.org/2000/svg">
<path fill-rule="evenodd" clip-rule="evenodd" d="M3.25 6.2C3.25 4.01848 5.01848 2.25 7.2 2.25H10.9296C11.8491 2.25 12.7077 2.70953 13.2178 3.47457L14.0303 4.69338C14.2621 5.04112 14.6524 5.25 15.0704 5.25H16.8C18.9815 5.25 20.75 7.01848 20.75 9.2V15.8C20.75 17.9815 18.9815 19.75 16.8 19.75H7.2C5.01848 19.75 3.25 17.9815 3.25 15.8V6.2ZM7.2 3.75C5.8469 3.75 4.75 4.8469 4.75 6.2V15.8C4.75 17.1531 5.8469 18.25 7.2 18.25H16.8C18.1531 18.25 19.25 17.1531 19.25 15.8V9.2C19.25 7.8469 18.1531 6.75 16.8 6.75H15.0704C14.1509 6.75 13.2923 6.29047 12.7822 5.52543L11.9697 4.30662C11.7379 3.95888 11.3476 3.75 10.9296 3.75H7.2Z" fill="#23294A"/>
<path fill-rule="evenodd" clip-rule="evenodd" d="M14 14.25C14.4142 14.25 14.75 14.5858 14.75 15V16C14.75 16.4142 14.4142 16.75 14 16.75C13.5858 16.75 13.25 16.4142 13.25 16V15C13.25 14.5858 13.5858 14.25 14 14.25Z" fill="#0EA541"/>
<path fill-rule="evenodd" clip-rule="evenodd" d="M10 14.25C10.4142 14.25 10.75 14.5858 10.75 15V16C10.75 16.4142 10.4142 16.75 10 16.75C9.58579 16.75 9.25 16.4142 9.25 16V15C9.25 14.5858 9.58579 14.25 10 14.25Z" fill="#0EA541"/>
</svg>
