<svg width="24" height="24" viewBox="0 0 24 24" fill="none" xmlns="http://www.w3.org/2000/svg">
<path fill-rule="evenodd" clip-rule="evenodd" d="M7.26084 6.75C5.32186 6.75 3.75 8.32186 3.75 10.2608V16.0455C3.75 17.263 4.73701 18.25 5.95455 18.25H6.16944C7.0341 18.25 7.83304 17.7886 8.26513 17.0396L8.35092 16.8909C9.10329 15.5868 10.4944 14.7833 12 14.7833C13.5056 14.7833 14.8967 15.5868 15.6491 16.8909L15.7349 17.0396C16.167 17.7886 16.9659 18.25 17.8306 18.25H18.0455C19.263 18.25 20.25 17.263 20.25 16.0455V10.2608C20.25 8.32186 18.6781 6.75 16.7392 6.75C16.6277 6.75 16.5165 6.76061 16.407 6.78169L15.1677 7.02037C13.0751 7.42339 10.9249 7.42339 8.83229 7.02037L7.593 6.78169C7.48354 6.76061 7.37232 6.75 7.26084 6.75ZM2.25 10.2608C2.25 7.49343 4.49343 5.25 7.26084 5.25C7.46752 5.25 7.67373 5.26968 7.87668 5.30876L9.11596 5.54744C11.0211 5.91436 12.9789 5.91436 14.884 5.54744L16.1233 5.30876C16.3263 5.26968 16.5325 5.25 16.7392 5.25C19.5066 5.25 21.75 7.49343 21.75 10.2608V16.0455C21.75 18.0914 20.0914 19.75 18.0455 19.75H17.8306C16.4298 19.75 15.1356 19.0025 14.4356 17.7892L14.3498 17.6405C13.8653 16.8007 12.9695 16.2833 12 16.2833C11.0305 16.2833 10.1347 16.8007 9.65019 17.6405L9.56441 17.7892C8.86443 19.0025 7.57017 19.75 6.16944 19.75H5.95455C3.90858 19.75 2.25 18.0914 2.25 16.0455V10.2608Z" fill="#23294A"/>
<path fill-rule="evenodd" clip-rule="evenodd" d="M7.5 9.25C7.91421 9.25 8.25 9.58579 8.25 10V13C8.25 13.4142 7.91421 13.75 7.5 13.75C7.08579 13.75 6.75 13.4142 6.75 13V10C6.75 9.58579 7.08579 9.25 7.5 9.25Z" fill="#0EA541"/>
<path fill-rule="evenodd" clip-rule="evenodd" d="M5.25 11.5C5.25 11.0858 5.58579 10.75 6 10.75H9C9.41421 10.75 9.75 11.0858 9.75 11.5C9.75 11.9142 9.41421 12.25 9 12.25H6C5.58579 12.25 5.25 11.9142 5.25 11.5Z" fill="#0EA541"/>
<path d="M16 10C16 10.5523 15.5523 11 15 11C14.4477 11 14 10.5523 14 10C14 9.44772 14.4477 9 15 9C15.5523 9 16 9.44772 16 10Z" fill="#0EA541"/>
<path d="M18 13C18 13.5523 17.5523 14 17 14C16.4477 14 16 13.5523 16 13C16 12.4477 16.4477 12 17 12C17.5523 12 18 12.4477 18 13Z" fill="#0EA541"/>
</svg>
