<svg width="24" height="24" viewBox="0 0 24 24" fill="none" xmlns="http://www.w3.org/2000/svg">
<path fill-rule="evenodd" clip-rule="evenodd" d="M8.01985 11.4239C8.33806 11.1587 8.81098 11.2017 9.07615 11.5199L11.5762 14.5199C11.8413 14.8381 11.7983 15.311 11.4801 15.5762C11.1619 15.8414 10.689 15.7984 10.4238 15.4802L7.92382 12.4802C7.65865 12.1619 7.70164 11.689 8.01985 11.4239Z" fill="#0EA541"/>
<path fill-rule="evenodd" clip-rule="evenodd" d="M5.03608 4.92615C5.58201 3.89496 6.65322 3.25 7.82001 3.25H16.18C17.3468 3.25 18.418 3.89496 18.964 4.92615L20.9031 8.58897C21.5054 9.72672 21.3548 11.1165 20.5228 12.0988L14.4036 19.3228C13.1454 20.8081 10.8546 20.8082 9.59642 19.3228L3.47728 12.0988C2.6452 11.1165 2.4946 9.72672 3.09694 8.58897L5.03608 4.92615L5.69892 5.27707L5.03608 4.92615ZM7.82001 4.75C7.20883 4.75 6.64772 5.08784 6.36176 5.62799L4.42262 9.29081C4.10711 9.88677 4.186 10.6147 4.62184 11.1293L10.741 18.3533C11.4 19.1313 12.6 19.1313 13.259 18.3533L19.3782 11.1293C19.814 10.6147 19.8929 9.88677 19.5774 9.29081L17.6383 5.62798C17.3523 5.08783 16.7912 4.75 16.18 4.75H7.82001Z" fill="#23294A"/>
<path d="M8 10C8 10.5523 7.55228 11 7 11C6.44772 11 6 10.5523 6 10C6 9.44772 6.44772 9 7 9C7.55228 9 8 9.44772 8 10Z" fill="#0EA541"/>
</svg>
