<svg width="24" height="24" viewBox="0 0 24 24" fill="none" xmlns="http://www.w3.org/2000/svg">
<path fill-rule="evenodd" clip-rule="evenodd" d="M15.9801 11.4239C16.2983 11.689 16.3413 12.1619 16.0762 12.4802L13.5762 15.4802C13.311 15.7984 12.8381 15.8414 12.5198 15.5762C12.2016 15.311 12.1586 14.8381 12.4238 14.5199L14.9238 11.5199C15.189 11.2017 15.6619 11.1587 15.9801 11.4239Z" fill="#0EA541"/>
<path fill-rule="evenodd" clip-rule="evenodd" d="M5.03608 4.92615C5.58201 3.89496 6.65322 3.25 7.82001 3.25H16.18C17.3468 3.25 18.418 3.89496 18.964 4.92615L20.9031 8.58897C21.5054 9.72672 21.3548 11.1165 20.5228 12.0988L14.4036 19.3228C13.1454 20.8081 10.8546 20.8082 9.59642 19.3228L3.47728 12.0988C2.6452 11.1165 2.4946 9.72672 3.09694 8.58897L5.03608 4.92615L5.69892 5.27707L5.03608 4.92615ZM7.82001 4.75C7.20883 4.75 6.64772 5.08784 6.36176 5.62799L4.42262 9.29081C4.10711 9.88677 4.186 10.6147 4.62184 11.1293L10.741 18.3533C11.4 19.1313 12.6 19.1313 13.259 18.3533L19.3782 11.1293C19.814 10.6147 19.8929 9.88677 19.5774 9.29081L17.6383 5.62798C17.3523 5.08783 16.7912 4.75 16.18 4.75H7.82001Z" fill="#23294A"/>
<path d="M18 10C18 10.5523 17.5523 11 17 11C16.4477 11 16 10.5523 16 10C16 9.44772 16.4477 9 17 9C17.5523 9 18 9.44772 18 10Z" fill="#0EA541"/>
</svg>
