<svg width="24" height="24" viewBox="0 0 24 24" fill="none" xmlns="http://www.w3.org/2000/svg">
<path fill-rule="evenodd" clip-rule="evenodd" d="M11.1318 5.90485C11.0725 5.84866 11.0083 5.8289 10.9338 5.8418C10.0772 5.9901 9.257 6.31619 8.52769 6.8035C7.49988 7.49026 6.6988 8.46638 6.22575 9.60842C5.7527 10.7505 5.62893 12.0071 5.87009 13.2195C6.11125 14.4319 6.7065 15.5455 7.58058 16.4196C8.45466 17.2937 9.5683 17.8889 10.7807 18.1301C11.9931 18.3713 13.2497 18.2475 14.3918 17.7744C15.5338 17.3014 16.5099 16.5003 17.1967 15.4725C17.684 14.7432 18.0101 13.923 18.1584 13.0664C18.1713 12.9919 18.1515 12.9277 18.0953 12.8684C18.0333 12.803 17.9284 12.7502 17.8 12.7502H12.5C11.8096 12.7502 11.25 12.1905 11.25 11.5002V6.20019C11.25 6.07176 11.1972 5.96687 11.1318 5.90485ZM10.6779 4.36379C11.8775 4.15609 12.75 5.166 12.75 6.20019V11.2502H17.8C18.8342 11.2502 19.8441 12.1227 19.6364 13.3223C19.4525 14.3844 19.0482 15.4015 18.4439 16.3059C17.5923 17.5803 16.3819 18.5737 14.9658 19.1603C13.5497 19.7468 11.9914 19.9003 10.488 19.6013C8.9847 19.3022 7.60378 18.5641 6.51992 17.4803C5.43607 16.3964 4.69795 15.0155 4.39891 13.5121C4.09988 12.0088 4.25335 10.4505 4.83993 9.03439C5.42651 7.61827 6.41985 6.40788 7.69433 5.5563C8.59869 4.95203 9.61578 4.54768 10.6779 4.36379Z" fill="#23294A"/>
<path fill-rule="evenodd" clip-rule="evenodd" d="M16.0303 5.09088C15.5579 4.61841 14.75 4.95303 14.75 5.62121V8.49989C14.75 8.9141 15.0858 9.24989 15.5 9.24989H18.3787C19.0469 9.24989 19.3815 8.44203 18.909 7.96956L16.0303 5.09088ZM13.25 5.62121C13.25 3.61668 15.6736 2.6128 17.091 4.03022L19.9697 6.9089C21.3871 8.32632 20.3832 10.7499 18.3787 10.7499H15.5C14.2574 10.7499 13.25 9.74253 13.25 8.49989V5.62121Z" fill="#0EA541"/>
</svg>
