<svg width="24" height="24" viewBox="0 0 24 24" fill="none" xmlns="http://www.w3.org/2000/svg">
<path fill-rule="evenodd" clip-rule="evenodd" d="M12 3.75C7.44365 3.75 3.75 7.44365 3.75 12C3.75 16.5563 7.44365 20.25 12 20.25C16.5563 20.25 20.25 16.5563 20.25 12C20.25 7.44365 16.5563 3.75 12 3.75ZM2.25 12C2.25 6.61522 6.61522 2.25 12 2.25C17.3848 2.25 21.75 6.61522 21.75 12C21.75 17.3848 17.3848 21.75 12 21.75C6.61522 21.75 2.25 17.3848 2.25 12Z" fill="#23294A"/>
<path fill-rule="evenodd" clip-rule="evenodd" d="M9.05712 14.4979C8.77998 14.1904 8.30603 14.1656 7.99828 14.4425C7.6904 14.7196 7.66544 15.1938 7.94254 15.5017L8.50001 15C7.94254 15.5017 7.94236 15.5015 7.94254 15.5017L7.94412 15.5035L7.94627 15.5059L7.95224 15.5124L7.97087 15.5324C7.98622 15.5487 8.00742 15.5709 8.03423 15.5981C8.08781 15.6525 8.1641 15.7272 8.26113 15.8154C8.45452 15.9912 8.73402 16.2241 9.08398 16.4574C9.77415 16.9175 10.7949 17.4167 12 17.4167C13.2051 17.4167 14.2259 16.9175 14.916 16.4574C15.266 16.2241 15.5455 15.9912 15.7389 15.8154C15.8359 15.7272 15.9122 15.6525 15.9658 15.5981C15.9926 15.5709 16.0138 15.5487 16.0291 15.5324L16.0478 15.5124L16.0537 15.5059L16.0559 15.5035L16.0568 15.5025C16.0569 15.5023 16.0575 15.5017 15.5 15L16.0575 15.5017C16.3346 15.1938 16.3096 14.7196 16.0017 14.4425C15.694 14.1655 15.22 14.1904 14.9428 14.4979L14.9435 14.4972C14.9441 14.4966 14.9437 14.497 14.9435 14.4972L14.9362 14.505C14.9286 14.5131 14.9156 14.5268 14.8975 14.5451C14.8613 14.5819 14.8047 14.6374 14.7299 14.7055C14.5795 14.8422 14.359 15.0259 14.084 15.2093C13.5242 15.5825 12.7949 15.9167 12 15.9167C11.2051 15.9167 10.4759 15.5825 9.91603 15.2093C9.64099 15.0259 9.4205 14.8422 9.27014 14.7055C9.19529 14.6374 9.13876 14.5819 9.1025 14.5451C9.08439 14.5268 9.07141 14.5131 9.06381 14.505L9.05712 14.4979Z" fill="#0EA541"/>
<path d="M16 10C16 10.5523 15.5523 11 15 11C14.4477 11 14 10.5523 14 10C14 9.44772 14.4477 9 15 9C15.5523 9 16 9.44772 16 10Z" fill="#0EA541"/>
<path d="M10 10C10 10.5523 9.55228 11 9 11C8.44772 11 8 10.5523 8 10C8 9.44772 8.44772 9 9 9C9.55228 9 10 9.44772 10 10Z" fill="#0EA541"/>
</svg>
