<svg width="24" height="24" viewBox="0 0 24 24" fill="none" xmlns="http://www.w3.org/2000/svg">
<path fill-rule="evenodd" clip-rule="evenodd" d="M12 4.75C10.9029 4.75 9.82512 5.03879 8.875 5.58734C7.92488 6.13589 7.13589 6.92488 6.58734 7.875C6.03879 8.82512 5.75 9.9029 5.75 11C5.75 12.0971 6.03879 13.1749 6.58734 14.125L5.2883 14.875C4.6081 13.6969 4.25 12.3604 4.25 11C4.25 9.63959 4.6081 8.30315 5.2883 7.125C5.96851 5.94685 6.94685 4.96851 8.125 4.2883C9.30315 3.6081 10.6396 3.25 12 3.25C13.3604 3.25 14.6969 3.6081 15.875 4.2883C17.0531 4.96851 18.0315 5.94685 18.7117 7.125C19.3919 8.30315 19.75 9.63959 19.75 11C19.75 12.3604 19.3919 13.6969 18.7117 14.875L17.4127 14.125C17.9612 13.1749 18.25 12.0971 18.25 11C18.25 9.9029 17.9612 8.82512 17.4127 7.875C16.8641 6.92488 16.0751 6.13589 15.125 5.58734C14.1749 5.03879 13.0971 4.75 12 4.75Z" fill="#23294A"/>
<path fill-rule="evenodd" clip-rule="evenodd" d="M17.8735 15.219C17.5232 14.998 17.06 15.1028 16.839 15.4531L15.9822 16.8112C15.7612 17.1615 15.8661 17.6247 16.2164 17.8457C16.5667 18.0667 17.0299 17.9619 17.2509 17.6115L18.1076 16.2535C18.3286 15.9032 18.2238 15.44 17.8735 15.219ZM15.5704 14.6528C16.2334 13.6018 17.6229 13.2873 18.6738 13.9504C19.7248 14.6134 20.0393 16.0029 19.3763 17.0538L18.5195 18.4119C17.8565 19.4629 16.467 19.7774 15.416 19.1143C14.3651 18.4513 14.0506 17.0618 14.7136 16.0108L15.5704 14.6528Z" fill="#0EA541"/>
<path fill-rule="evenodd" clip-rule="evenodd" d="M5.86832 14.1663C6.91926 13.5032 8.30875 13.8176 8.97184 14.8685L9.82868 16.2265C10.4918 17.2774 10.1774 18.6669 9.12642 19.33C8.07548 19.9931 6.68599 19.6787 6.0229 18.6278L5.16607 17.2698C4.50298 16.2188 4.81739 14.8293 5.86832 14.1663ZM7.70325 15.6689C7.48222 15.3186 7.01906 15.2138 6.66875 15.4348C6.31843 15.6559 6.21363 16.119 6.43466 16.4694L7.29149 17.8273C7.51252 18.1777 7.97569 18.2825 8.326 18.0614C8.67631 17.8404 8.78111 17.3772 8.56008 17.0269L7.70325 15.6689Z" fill="#0EA541"/>
<path fill-rule="evenodd" clip-rule="evenodd" d="M14.376 19.584L15.376 18.084L16.6241 18.916L15.6241 20.416C15.3943 20.7607 14.9286 20.8538 14.584 20.624C14.2393 20.3943 14.1462 19.9286 14.376 19.584Z" fill="#0EA541"/>
</svg>
