<svg width="24" height="24" viewBox="0 0 24 24" fill="none" xmlns="http://www.w3.org/2000/svg">
<path fill-rule="evenodd" clip-rule="evenodd" d="M14.7465 6.38788C12.9816 5.7541 11.0179 5.75418 9.25298 6.38806C7.09344 7.16369 5.40931 8.52493 4.42949 10.354C3.88205 11.3759 3.88197 12.6241 4.42933 13.646C4.60006 13.9647 4.79172 14.2685 5.00298 14.557C5.24768 14.8912 5.17513 15.3605 4.84092 15.6053C4.50672 15.85 4.03742 15.7774 3.79271 15.4432C3.54033 15.0985 3.31118 14.7353 3.10708 14.3543C2.32267 12.8899 2.32284 11.1099 3.10727 9.64563C4.28786 7.44184 6.29127 5.85798 8.74595 4.97636C10.8386 4.22477 13.1608 4.22466 15.2535 4.97615C15.6433 5.11614 15.8459 5.54565 15.7059 5.93549C15.5659 6.32533 15.1364 6.52787 14.7465 6.38788ZM18.8389 8.04956C19.1591 7.78682 19.6317 7.83341 19.8945 8.15362C19.9634 8.23764 20.0309 8.32289 20.0969 8.40936C21.6963 10.5047 21.6962 13.4959 20.0967 15.5911C18.8985 17.1608 17.2206 18.3176 15.2541 19.0239C13.1615 19.7755 10.8392 19.7756 8.74653 19.0241C7.98728 18.7514 7.27118 18.4118 6.60884 18.0069C6.25542 17.7908 6.14406 17.3292 6.3601 16.9758C6.57614 16.6224 7.03777 16.511 7.39118 16.7271C7.96157 17.0757 8.58473 17.3722 9.25349 17.6124C11.0184 18.2461 12.9821 18.2461 14.747 17.6122C16.4789 16.9902 17.9041 15.9913 18.9044 14.6809C20.0937 13.1231 20.0937 10.8774 18.9046 9.3195C18.8493 9.24705 18.7927 9.17558 18.7349 9.10511C18.4721 8.78489 18.5187 8.31231 18.8389 8.04956Z" fill="#23294A"/>
<path fill-rule="evenodd" clip-rule="evenodd" d="M12 9.75C10.7574 9.75 9.75 10.7574 9.75 12C9.75 13.2426 10.7574 14.25 12 14.25C13.2426 14.25 14.25 13.2426 14.25 12C14.25 10.7574 13.2426 9.75 12 9.75ZM8.25 12C8.25 9.92893 9.92893 8.25 12 8.25C14.0711 8.25 15.75 9.92893 15.75 12C15.75 14.0711 14.0711 15.75 12 15.75C9.92893 15.75 8.25 14.0711 8.25 12Z" fill="#0EA541"/>
<path fill-rule="evenodd" clip-rule="evenodd" d="M19.9851 5.00336C20.2429 5.32758 20.189 5.79939 19.8648 6.05718L4.0688 18.6165C3.74458 18.8743 3.27277 18.8205 3.01498 18.4962C2.7572 18.172 2.81105 17.7002 3.13527 17.4424L18.9313 4.88307C19.2555 4.62529 19.7273 4.67914 19.9851 5.00336Z" fill="#0EA541"/>
</svg>
