<svg width="24" height="24" viewBox="0 0 24 24" fill="none" xmlns="http://www.w3.org/2000/svg">
<path fill-rule="evenodd" clip-rule="evenodd" d="M12.8529 4.82202C12.3726 4.37378 11.6274 4.37378 11.1471 4.82202L5.6471 9.95535C5.39381 10.1918 5.25 10.5227 5.25 10.8692V18.0001C5.25 18.6904 5.80964 19.2501 6.5 19.2501H17.5C18.1904 19.2501 18.75 18.6904 18.75 18.0001V10.8692C18.75 10.5227 18.6062 10.1918 18.3529 9.95536L12.8529 4.82202ZM10.1236 3.72544C11.1802 2.73931 12.8198 2.73931 13.8764 3.72544L19.3764 8.85877C19.9336 9.37887 20.25 10.1069 20.25 10.8692V18.0001C20.25 19.5189 19.0188 20.7501 17.5 20.7501H6.5C4.98122 20.7501 3.75 19.5189 3.75 18.0001V10.8692C3.75 10.1069 4.06638 9.37887 4.62362 8.85877L5.13536 9.40706L4.62362 8.85877L10.1236 3.72544Z" fill="#23294A"/>
<path fill-rule="evenodd" clip-rule="evenodd" d="M7.5 20C7.5 19.5858 7.83579 19.25 8.25 19.25H15.75C16.1642 19.25 16.5 19.5858 16.5 20C16.5 20.4142 16.1642 20.75 15.75 20.75H8.25C7.83579 20.75 7.5 20.4142 7.5 20Z" fill="#0EA541"/>
</svg>
