<svg width="24" height="24" viewBox="0 0 24 24" fill="none" xmlns="http://www.w3.org/2000/svg">
<path fill-rule="evenodd" clip-rule="evenodd" d="M13.9818 4.30713C12.7924 3.47249 11.2076 3.47249 10.0182 4.30713L5.21823 7.67555C4.29789 8.32141 3.75 9.37523 3.75 10.4996V17.8002C3.75 19.7056 5.29462 21.2502 7.2 21.2502H16.8C18.7054 21.2502 20.25 19.7056 20.25 17.8002V10.4996C20.25 9.37522 19.7021 8.32141 18.7818 7.67555L13.9818 4.30713ZM9.15659 3.0793C10.8631 1.88177 13.1369 1.88177 14.8434 3.0793L19.6434 6.44772C20.9639 7.37438 21.75 8.88638 21.75 10.4996V17.8002C21.75 20.534 19.5338 22.7502 16.8 22.7502H7.2C4.46619 22.7502 2.25 20.534 2.25 17.8002V10.4996C2.25 8.88638 3.0361 7.37438 4.35659 6.44772L9.15659 3.0793L9.58741 3.69321L9.15659 3.0793Z" fill="#23294A"/>
<path fill-rule="evenodd" clip-rule="evenodd" d="M12 19.75C11.5858 19.75 11.25 19.4142 11.25 19L11.25 16.5C11.25 16.0858 11.5858 15.75 12 15.75C12.4142 15.75 12.75 16.0858 12.75 16.5L12.75 19C12.75 19.4142 12.4142 19.75 12 19.75Z" fill="#0EA541"/>
</svg>
