<svg width="24" height="24" viewBox="0 0 24 24" fill="none" xmlns="http://www.w3.org/2000/svg">
<path fill-rule="evenodd" clip-rule="evenodd" d="M2.25 13C2.25 12.5858 2.58579 12.25 3 12.25L21 12.25C21.4142 12.25 21.75 12.5858 21.75 13C21.75 13.4142 21.4142 13.75 21 13.75L3 13.75C2.58579 13.75 2.25 13.4142 2.25 13Z" fill="#0EA541"/>
<path fill-rule="evenodd" clip-rule="evenodd" d="M9 12.25C9.41421 12.25 9.75 12.5858 9.75 13V14.5C9.75 15.4665 10.5335 16.25 11.5 16.25H12.5C13.4665 16.25 14.25 15.4665 14.25 14.5V13C14.25 12.5858 14.5858 12.25 15 12.25C15.4142 12.25 15.75 12.5858 15.75 13V14.5C15.75 16.2949 14.2949 17.75 12.5 17.75H11.5C9.70508 17.75 8.25 16.2949 8.25 14.5V13C8.25 12.5858 8.58579 12.25 9 12.25Z" fill="#0EA541"/>
<path fill-rule="evenodd" clip-rule="evenodd" d="M9.25 10C9.25 9.58579 9.58579 9.25 10 9.25H14C14.4142 9.25 14.75 9.58579 14.75 10C14.75 10.4142 14.4142 10.75 14 10.75H10C9.58579 10.75 9.25 10.4142 9.25 10Z" fill="#0EA541"/>
<path fill-rule="evenodd" clip-rule="evenodd" d="M10.25 7C10.25 6.58579 10.5858 6.25 11 6.25H13C13.4142 6.25 13.75 6.58579 13.75 7C13.75 7.41421 13.4142 7.75 13 7.75H11C10.5858 7.75 10.25 7.41421 10.25 7Z" fill="#0EA541"/>
<path fill-rule="evenodd" clip-rule="evenodd" d="M2.25 8C2.25 4.82436 4.82436 2.25 8 2.25H16C19.1756 2.25 21.75 4.82436 21.75 8V16C21.75 19.1756 19.1756 21.75 16 21.75H8C4.82436 21.75 2.25 19.1756 2.25 16V8ZM8 3.75C5.65279 3.75 3.75 5.65279 3.75 8V16C3.75 18.3472 5.65279 20.25 8 20.25H16C18.3472 20.25 20.25 18.3472 20.25 16V8C20.25 5.65279 18.3472 3.75 16 3.75H8Z" fill="#23294A"/>
</svg>
