<svg width="24" height="24" viewBox="0 0 24 24" fill="none" xmlns="http://www.w3.org/2000/svg">
<path fill-rule="evenodd" clip-rule="evenodd" d="M2.25 8C2.25 4.82436 4.82436 2.25 8 2.25H16C19.1756 2.25 21.75 4.82436 21.75 8V16C21.75 19.1756 19.1756 21.75 16 21.75H8C4.82436 21.75 2.25 19.1756 2.25 16V8ZM8 3.75C5.65279 3.75 3.75 5.65279 3.75 8V16C3.75 18.3472 5.65279 20.25 8 20.25H16C18.3472 20.25 20.25 18.3472 20.25 16V8C20.25 5.65279 18.3472 3.75 16 3.75H8Z" fill="#23294A"/>
<path fill-rule="evenodd" clip-rule="evenodd" d="M8.5 11.75C8.08579 11.75 7.75 12.0858 7.75 12.5C7.75 12.9142 8.08579 13.25 8.5 13.25C8.91421 13.25 9.25 12.9142 9.25 12.5C9.25 12.0858 8.91421 11.75 8.5 11.75ZM6.25 12.5C6.25 11.2574 7.25736 10.25 8.5 10.25C9.74264 10.25 10.75 11.2574 10.75 12.5C10.75 13.7426 9.74264 14.75 8.5 14.75C7.25736 14.75 6.25 13.7426 6.25 12.5Z" fill="#0EA541"/>
<path fill-rule="evenodd" clip-rule="evenodd" d="M9.25 12C9.25 11.5858 9.58579 11.25 10 11.25L17 11.25C17.4142 11.25 17.75 11.5858 17.75 12C17.75 12.4142 17.4142 12.75 17 12.75L10 12.75C9.58579 12.75 9.25 12.4142 9.25 12Z" fill="#0EA541"/>
<path fill-rule="evenodd" clip-rule="evenodd" d="M17 11.25C17.4142 11.25 17.75 11.5858 17.75 12V14C17.75 14.4142 17.4142 14.75 17 14.75C16.5858 14.75 16.25 14.4142 16.25 14V12C16.25 11.5858 16.5858 11.25 17 11.25Z" fill="#0EA541"/>
<path fill-rule="evenodd" clip-rule="evenodd" d="M14 11.25C14.4142 11.25 14.75 11.5858 14.75 12V13C14.75 13.4142 14.4142 13.75 14 13.75C13.5858 13.75 13.25 13.4142 13.25 13V12C13.25 11.5858 13.5858 11.25 14 11.25Z" fill="#0EA541"/>
</svg>
