<svg width="24" height="24" viewBox="0 0 24 24" fill="none" xmlns="http://www.w3.org/2000/svg">
<path fill-rule="evenodd" clip-rule="evenodd" d="M7.625 8.75C6.68041 8.75 5.75 9.66015 5.75 11V15C5.75 16.3398 6.68041 17.25 7.625 17.25H16.375C17.3196 17.25 18.25 16.3398 18.25 15V11C18.25 9.66015 17.3196 8.75 16.375 8.75H7.625ZM4.25 11C4.25 9.02614 5.6701 7.25 7.625 7.25H16.375C18.3299 7.25 19.75 9.02614 19.75 11V15C19.75 16.9739 18.3299 18.75 16.375 18.75H7.625C5.6701 18.75 4.25 16.9739 4.25 15V11Z" fill="#23294A"/>
<path fill-rule="evenodd" clip-rule="evenodd" d="M12 12.25C12.4142 12.25 12.75 12.5858 12.75 13L12.75 15C12.75 15.4142 12.4142 15.75 12 15.75C11.5858 15.75 11.25 15.4142 11.25 15L11.25 13C11.25 12.5858 11.5858 12.25 12 12.25Z" fill="#0EA541"/>
<path fill-rule="evenodd" clip-rule="evenodd" d="M12 3.75C10.2051 3.75 8.75 5.20507 8.75 7V8C8.75 8.41421 8.41421 8.75 8 8.75C7.58579 8.75 7.25 8.41421 7.25 8V7C7.25 4.37665 9.37665 2.25 12 2.25C14.6234 2.25 16.75 4.37665 16.75 7V8C16.75 8.41421 16.4142 8.75 16 8.75C15.5858 8.75 15.25 8.41421 15.25 8V7C15.25 5.20507 13.7949 3.75 12 3.75Z" fill="#23294A"/>
</svg>
