<svg width="24" height="24" viewBox="0 0 24 24" fill="none" xmlns="http://www.w3.org/2000/svg">
<path fill-rule="evenodd" clip-rule="evenodd" d="M10.4793 9.49422C11.5886 8.35982 13.4107 8.34963 14.5326 9.47154C15.6526 10.5915 15.6446 12.4099 14.5148 13.52L8.78282 19.1524C7.69836 20.218 5.95769 20.2103 4.88262 19.1353C3.8094 18.062 3.79968 16.325 4.86083 15.2399L10.4793 9.49422ZM13.4719 10.5322C12.9405 10.0007 12.0773 10.0055 11.5518 10.5429L5.93329 16.2886C5.44676 16.7861 5.45121 17.5825 5.94328 18.0746C6.4362 18.5675 7.23428 18.571 7.7315 18.0825L13.4635 12.4501C13.9987 11.9242 14.0025 11.0628 13.4719 10.5322Z" fill="#23294A"/>
<path fill-rule="evenodd" clip-rule="evenodd" d="M10.8181 3.77257C11.2199 3.67211 11.6271 3.91643 11.7276 4.31828L12.2276 6.31828C12.3281 6.72012 12.0837 7.12732 11.6819 7.22778C11.28 7.32825 10.8728 7.08393 10.7724 6.68208L10.2724 4.68208C10.1719 4.28023 10.4162 3.87303 10.8181 3.77257Z" fill="#0EA541"/>
<path fill-rule="evenodd" clip-rule="evenodd" d="M16.0104 4.25477C16.4164 4.33709 16.6787 4.73292 16.5964 5.13887L16.1866 7.15929C16.1043 7.56524 15.7085 7.82759 15.3026 7.74527C14.8966 7.66295 14.6342 7.26712 14.7166 6.86117L15.1263 4.84074C15.2086 4.43479 15.6045 4.17244 16.0104 4.25477Z" fill="#0EA541"/>
<path fill-rule="evenodd" clip-rule="evenodd" d="M20.7216 8.79914C20.8326 9.19822 20.599 9.61168 20.1999 9.72262L18.2137 10.2748C17.8146 10.3858 17.4012 10.1522 17.2902 9.75309C17.1793 9.35402 17.4128 8.94056 17.8119 8.82961L19.7981 8.27743C20.1972 8.16648 20.6107 8.40006 20.7216 8.79914Z" fill="#0EA541"/>
<path fill-rule="evenodd" clip-rule="evenodd" d="M20.7092 13.1847C20.5987 13.5839 20.1856 13.818 19.7864 13.7075L17.7994 13.1579C17.4002 13.0474 17.1661 12.6343 17.2766 12.235C17.387 11.8358 17.8002 11.6017 18.1994 11.7122L20.1863 12.2618C20.5855 12.3723 20.8196 12.7854 20.7092 13.1847Z" fill="#0EA541"/>
</svg>
