<svg width="24" height="24" viewBox="0 0 24 24" fill="none" xmlns="http://www.w3.org/2000/svg">
<path fill-rule="evenodd" clip-rule="evenodd" d="M6.25 20C6.25 19.5858 6.58579 19.25 7 19.25H17C17.4142 19.25 17.75 19.5858 17.75 20C17.75 20.4142 17.4142 20.75 17 20.75H7C6.58579 20.75 6.25 20.4142 6.25 20Z" fill="#0EA541"/>
<path fill-rule="evenodd" clip-rule="evenodd" d="M10 16.25C10.4142 16.25 10.75 16.5858 10.75 17V20C10.75 20.4142 10.4142 20.75 10 20.75C9.58579 20.75 9.25 20.4142 9.25 20V17C9.25 16.5858 9.58579 16.25 10 16.25ZM14 16.25C14.4142 16.25 14.75 16.5858 14.75 17V20C14.75 20.4142 14.4142 20.75 14 20.75C13.5858 20.75 13.25 20.4142 13.25 20V17C13.25 16.5858 13.5858 16.25 14 16.25Z" fill="#0EA541"/>
<path fill-rule="evenodd" clip-rule="evenodd" d="M3.25 9.8C3.25 7.2871 5.2871 5.25 7.8 5.25H16.2C18.7129 5.25 20.75 7.2871 20.75 9.8V13.2C20.75 15.7129 18.7129 17.75 16.2 17.75H7.8C5.2871 17.75 3.25 15.7129 3.25 13.2V9.8ZM7.8 6.75C6.11553 6.75 4.75 8.11553 4.75 9.8V13.2C4.75 14.8845 6.11553 16.25 7.8 16.25H16.2C17.8845 16.25 19.25 14.8845 19.25 13.2V9.8C19.25 8.11553 17.8845 6.75 16.2 6.75H7.8Z" fill="#23294A"/>
</svg>
