<svg width="24" height="24" viewBox="0 0 24 24" fill="none" xmlns="http://www.w3.org/2000/svg">
<path fill-rule="evenodd" clip-rule="evenodd" d="M9.13611 2.81007C9.97369 2.45303 10.9316 2.25 12 2.25C16.433 2.25 18.6722 5.70589 18.6722 8.58824V11.1512C18.6722 11.428 18.7464 11.6998 18.8869 11.9383L20.1072 14.0085C20.3175 14.3653 20.1988 14.8251 19.8419 15.0354C19.4851 15.2458 19.0253 15.127 18.815 14.7702L17.5947 12.7C17.3181 12.2307 17.1722 11.6959 17.1722 11.1512V8.58824C17.1722 6.40255 15.4786 3.75 12 3.75C11.1247 3.75 10.3678 3.91564 9.72431 4.18993C9.31369 4.36497 8.94566 4.58577 8.61986 4.8403C8.29345 5.0953 7.82211 5.03741 7.56711 4.711C7.3121 4.38459 7.36999 3.91326 7.6964 3.65825C8.12301 3.32497 8.60345 3.03713 9.13611 2.81007ZM5.98441 8.23703C6.39863 8.23703 6.73441 8.57282 6.73441 8.98703V11.1677C6.73441 11.6986 6.59583 12.2203 6.33238 12.6812L6.04573 13.1827C5.26458 14.5494 6.25137 16.25 7.82551 16.25H14.25C14.6642 16.25 15 16.5858 15 17C15 17.4142 14.6642 17.75 14.25 17.75H7.82551C5.09955 17.75 3.39073 14.805 4.74345 12.4383L5.0301 11.9368C5.16399 11.7026 5.23441 11.4375 5.23441 11.1677V8.98703C5.23441 8.57282 5.5702 8.23703 5.98441 8.23703Z" fill="#23294A"/>
<path fill-rule="evenodd" clip-rule="evenodd" d="M9.25 19.5C9.25 19.0858 9.58579 18.75 10 18.75H14C14.4142 18.75 14.75 19.0858 14.75 19.5C14.75 19.9142 14.4142 20.25 14 20.25H10C9.58579 20.25 9.25 19.9142 9.25 19.5Z" fill="#0EA541"/>
<path fill-rule="evenodd" clip-rule="evenodd" d="M2.95385 2.98598C3.23774 2.68435 3.7124 2.66996 4.01403 2.95385L21.014 18.9539C21.3157 19.2377 21.33 19.7124 21.0462 20.014C20.7623 20.3157 20.2876 20.33 19.986 20.0462L2.98598 4.04615C2.68435 3.76226 2.66996 3.28761 2.95385 2.98598Z" fill="#0EA541"/>
</svg>
