<svg width="24" height="24" viewBox="0 0 24 24" fill="none" xmlns="http://www.w3.org/2000/svg">
<path fill-rule="evenodd" clip-rule="evenodd" d="M12 3.75C7.44365 3.75 3.75 7.44365 3.75 12C3.75 16.5563 7.44365 20.25 12 20.25C16.5563 20.25 20.25 16.5563 20.25 12C20.25 7.44365 16.5563 3.75 12 3.75ZM2.25 12C2.25 6.61522 6.61522 2.25 12 2.25C17.3848 2.25 21.75 6.61522 21.75 12C21.75 17.3848 17.3848 21.75 12 21.75C6.61522 21.75 2.25 17.3848 2.25 12Z" fill="#23294A"/>
<path fill-rule="evenodd" clip-rule="evenodd" d="M12.75 9.5C12.75 8.5335 13.5335 7.75 14.5 7.75H15.5C16.4665 7.75 17.25 8.5335 17.25 9.5V14.5C17.25 15.4665 16.4665 16.25 15.5 16.25H14.5C13.5335 16.25 12.75 15.4665 12.75 14.5V9.5ZM14.5 9.25C14.3619 9.25 14.25 9.36193 14.25 9.5V14.5C14.25 14.6381 14.3619 14.75 14.5 14.75H15.5C15.6381 14.75 15.75 14.6381 15.75 14.5V9.5C15.75 9.36193 15.6381 9.25 15.5 9.25H14.5Z" fill="#0EA541"/>
<path fill-rule="evenodd" clip-rule="evenodd" d="M6.75 9.5C6.75 8.5335 7.5335 7.75 8.5 7.75H9.5C10.4665 7.75 11.25 8.5335 11.25 9.5V14.5C11.25 15.4665 10.4665 16.25 9.5 16.25H8.5C7.5335 16.25 6.75 15.4665 6.75 14.5V9.5ZM8.5 9.25C8.36193 9.25 8.25 9.36193 8.25 9.5V14.5C8.25 14.6381 8.36193 14.75 8.5 14.75H9.5C9.63807 14.75 9.75 14.6381 9.75 14.5V9.5C9.75 9.36193 9.63807 9.25 9.5 9.25H8.5Z" fill="#0EA541"/>
</svg>
