<svg width="24" height="24" viewBox="0 0 24 24" fill="none" xmlns="http://www.w3.org/2000/svg">
<path fill-rule="evenodd" clip-rule="evenodd" d="M12.75 7.2C12.75 5.8469 13.8469 4.75 15.2 4.75H17.3C18.6531 4.75 19.75 5.8469 19.75 7.2V17.3C19.75 18.6531 18.6531 19.75 17.3 19.75H15.2C13.8469 19.75 12.75 18.6531 12.75 17.3V7.2ZM15.2 6.25C14.6753 6.25 14.25 6.67533 14.25 7.2V17.3C14.25 17.8247 14.6753 18.25 15.2 18.25H17.3C17.8247 18.25 18.25 17.8247 18.25 17.3V7.2C18.25 6.67533 17.8247 6.25 17.3 6.25H15.2Z" fill="#0EA541"/>
<path fill-rule="evenodd" clip-rule="evenodd" d="M6.7 6.25C6.17533 6.25 5.75 6.67533 5.75 7.2V17.3C5.75 17.8247 6.17533 18.25 6.7 18.25H8.8C9.32467 18.25 9.75 17.8247 9.75 17.3V7.2C9.75 6.67533 9.32467 6.25 8.8 6.25H6.7ZM4.25 7.2C4.25 5.8469 5.3469 4.75 6.7 4.75H8.8C10.1531 4.75 11.25 5.8469 11.25 7.2V17.3C11.25 18.6531 10.1531 19.75 8.8 19.75H6.7C5.3469 19.75 4.25 18.6531 4.25 17.3V7.2Z" fill="#23294A"/>
</svg>
