<svg width="24" height="24" viewBox="0 0 24 24" fill="none" xmlns="http://www.w3.org/2000/svg">
<path fill-rule="evenodd" clip-rule="evenodd" d="M14.5188 5.75094C14.8144 5.46079 15.2892 5.46523 15.5794 5.76085L18.7315 8.97241C19.0216 9.26803 19.0172 9.74288 18.7216 10.033C18.426 10.3232 17.9511 10.3187 17.661 10.0231L14.5088 6.81155C14.2187 6.51594 14.2231 6.04108 14.5188 5.75094Z" fill="#0EA541"/>
<path fill-rule="evenodd" clip-rule="evenodd" d="M14.6097 4.4926C15.9863 3.14155 18.1974 3.16221 19.5484 4.53874C20.8995 5.91527 20.8788 8.12642 19.5023 9.47747L9.71914 19.0795C9.44276 19.3508 9.08499 19.5238 8.70075 19.5721L8.60732 18.8279L8.70075 19.5721L5.59421 19.9621C4.57871 20.0896 3.72062 19.2153 3.86706 18.2024L4.31507 15.1037L5.05572 15.2108L4.31507 15.1037C4.37049 14.7204 4.55018 14.3659 4.82655 14.0947L14.6097 4.4926ZM18.4779 5.58945C17.7072 4.80415 16.4457 4.79236 15.6604 5.56313L5.87726 15.1652C5.83532 15.2064 5.80805 15.2602 5.79964 15.3183L5.05735 15.211L5.79964 15.3183L5.35163 18.417C5.35001 18.4282 5.35138 18.4349 5.35302 18.4397C5.35505 18.4457 5.35901 18.4527 5.36543 18.4592C5.37185 18.4658 5.37876 18.4698 5.38468 18.472C5.38946 18.4737 5.39614 18.4752 5.40734 18.4738L8.51389 18.0838C8.5722 18.0764 8.62649 18.0502 8.66843 18.009L18.4516 8.40695C19.2369 7.63618 19.2487 6.37475 18.4779 5.58945Z" fill="#23294A"/>
</svg>
