<svg width="24" height="24" viewBox="0 0 24 24" fill="none" xmlns="http://www.w3.org/2000/svg">
<g clip-path="url(#clip0_6_4080)">
<path fill-rule="evenodd" clip-rule="evenodd" d="M6.5519 3.55082C6.8688 3.81755 6.90948 4.29068 6.64275 4.60759C4.06439 7.67101 4.45761 12.2446 7.52103 14.8229C10.5845 17.4013 15.158 17.0081 17.7364 13.9447C18.0031 13.6278 18.4762 13.5871 18.7932 13.8538C19.1101 14.1205 19.1507 14.5937 18.884 14.9106C15.7722 18.6078 10.2524 19.0824 6.55513 15.9706C2.85789 12.8587 2.38332 7.33892 5.49514 3.64168C5.76186 3.32477 6.23499 3.2841 6.5519 3.55082Z" fill="#23294A"/>
<path fill-rule="evenodd" clip-rule="evenodd" d="M12 4.75C9.65279 4.75 7.75 6.65279 7.75 9C7.75 11.3472 9.65279 13.25 12 13.25C14.3472 13.25 16.25 11.3472 16.25 9C16.25 6.65279 14.3472 4.75 12 4.75ZM6.25 9C6.25 5.82436 8.82436 3.25 12 3.25C15.1756 3.25 17.75 5.82436 17.75 9C17.75 12.1756 15.1756 14.75 12 14.75C8.82436 14.75 6.25 12.1756 6.25 9Z" fill="#0EA541"/>
<path fill-rule="evenodd" clip-rule="evenodd" d="M12 16.75C12.4142 16.75 12.75 17.0858 12.75 17.5V20C12.75 20.4142 12.4142 20.75 12 20.75C11.5858 20.75 11.25 20.4142 11.25 20V17.5C11.25 17.0858 11.5858 16.75 12 16.75Z" fill="#23294A"/>
<path fill-rule="evenodd" clip-rule="evenodd" d="M8.25 20C8.25 19.5858 8.58579 19.25 9 19.25H15C15.4142 19.25 15.75 19.5858 15.75 20C15.75 20.4142 15.4142 20.75 15 20.75H9C8.58579 20.75 8.25 20.4142 8.25 20Z" fill="#23294A"/>
</g>
<defs>
<clipPath id="clip0_6_4080">
<rect width="24" height="24" fill="white"/>
</clipPath>
</defs>
</svg>
