<svg width="24" height="24" viewBox="0 0 24 24" fill="none" xmlns="http://www.w3.org/2000/svg">
<path fill-rule="evenodd" clip-rule="evenodd" d="M2.25 10.8C2.25 8.2871 4.2871 6.25 6.8 6.25H17.2C19.7129 6.25 21.75 8.28711 21.75 10.8V15.2C21.75 17.7129 19.7129 19.75 17.2 19.75H6.8C4.2871 19.75 2.25 17.7129 2.25 15.2V10.8ZM6.8 7.75C5.11553 7.75 3.75 9.11553 3.75 10.8V15.2C3.75 16.8845 5.11553 18.25 6.8 18.25H17.2C18.8845 18.25 20.25 16.8845 20.25 15.2V10.8C20.25 9.11553 18.8845 7.75 17.2 7.75H6.8Z" fill="#23294A"/>
<path fill-rule="evenodd" clip-rule="evenodd" d="M8 11.75C7.30964 11.75 6.75 12.3096 6.75 13C6.75 13.6904 7.30964 14.25 8 14.25C8.69036 14.25 9.25 13.6904 9.25 13C9.25 12.3096 8.69036 11.75 8 11.75ZM5.25 13C5.25 11.4812 6.48122 10.25 8 10.25C9.51878 10.25 10.75 11.4812 10.75 13C10.75 14.5188 9.51878 15.75 8 15.75C6.48122 15.75 5.25 14.5188 5.25 13Z" fill="#0EA541"/>
<path fill-rule="evenodd" clip-rule="evenodd" d="M14.25 10C14.25 9.58579 14.5858 9.25 15 9.25H17C17.4142 9.25 17.75 9.58579 17.75 10C17.75 10.4142 17.4142 10.75 17 10.75H15C14.5858 10.75 14.25 10.4142 14.25 10Z" fill="#0EA541"/>
<path fill-rule="evenodd" clip-rule="evenodd" d="M14.25 13C14.25 12.5858 14.5858 12.25 15 12.25H17C17.4142 12.25 17.75 12.5858 17.75 13C17.75 13.4142 17.4142 13.75 17 13.75H15C14.5858 13.75 14.25 13.4142 14.25 13Z" fill="#0EA541"/>
<path fill-rule="evenodd" clip-rule="evenodd" d="M14.25 16C14.25 15.5858 14.5858 15.25 15 15.25H17C17.4142 15.25 17.75 15.5858 17.75 16C17.75 16.4142 17.4142 16.75 17 16.75H15C14.5858 16.75 14.25 16.4142 14.25 16Z" fill="#0EA541"/>
<path fill-rule="evenodd" clip-rule="evenodd" d="M16.5303 2.46967C16.8232 2.76256 16.8232 3.23744 16.5303 3.53033L12.5303 7.53033C12.2374 7.82322 11.7626 7.82322 11.4697 7.53033C11.1768 7.23744 11.1768 6.76256 11.4697 6.46967L15.4697 2.46967C15.7626 2.17678 16.2374 2.17678 16.5303 2.46967Z" fill="#23294A"/>
</svg>
