<svg width="24" height="24" viewBox="0 0 24 24" fill="none" xmlns="http://www.w3.org/2000/svg">
<path fill-rule="evenodd" clip-rule="evenodd" d="M9.56398 13.7003C9.27108 13.4074 9.27108 12.9325 9.56398 12.6396L13.8066 8.39695C14.0995 8.10406 14.5744 8.10406 14.8673 8.39695C15.1602 8.68984 15.1602 9.16472 14.8673 9.45761L10.6246 13.7003C10.3317 13.9931 9.85687 13.9931 9.56398 13.7003Z" fill="#0EA541"/>
<path fill-rule="evenodd" clip-rule="evenodd" d="M18.0522 7.11142C18.404 6.05605 17.4 5.052 16.3446 5.4038L6.47714 8.69294C5.2995 9.08549 5.23128 10.7255 6.37226 11.2145L9.5432 12.5735C10.145 12.8314 10.6246 13.311 10.8825 13.9128L12.2415 17.0837C12.7305 18.2247 14.3705 18.1565 14.7631 16.9789L18.0522 7.11142ZM15.8702 3.98077C18.0982 3.2381 20.2179 5.35775 19.4752 7.58576L16.1861 17.4532C15.3574 19.9393 11.8951 20.0834 10.8628 17.6746L9.50381 14.5037C9.3976 14.2559 9.20014 14.0584 8.95232 13.9522L5.78138 12.5932C3.37265 11.5609 3.51665 8.09863 6.0028 7.26992L15.8702 3.98077Z" fill="#23294A"/>
</svg>
