<svg width="24" height="24" viewBox="0 0 24 24" fill="none" xmlns="http://www.w3.org/2000/svg">
<path fill-rule="evenodd" clip-rule="evenodd" d="M9.07023 5.39127C9.22314 4.16799 10.263 3.25 11.4958 3.25H12.5041C13.7369 3.25 14.7768 4.16799 14.9297 5.39127L14.9558 5.59964C14.9796 5.79035 15.1182 6.00449 15.3778 6.15482C15.6341 6.30322 15.8847 6.31607 16.0645 6.24024L16.2583 6.15847C17.3942 5.67921 18.7093 6.12081 19.3257 7.18854L19.8292 8.06049C20.4459 9.12876 20.1707 10.4891 19.1872 11.2336L19.0201 11.3601C18.8652 11.4774 18.75 11.7028 18.75 12C18.75 12.2973 18.8652 12.5228 19.0202 12.6401L19.1871 12.7665C20.1706 13.511 20.4458 14.8713 19.8291 15.9395L19.3256 16.8115C18.7091 17.8793 17.3941 18.3209 16.2581 17.8416L16.0643 17.7598C15.8846 17.684 15.634 17.6968 15.3778 17.8452C15.1182 17.9955 14.9796 18.2096 14.9558 18.4003L14.9297 18.6087C14.7768 19.832 13.7369 20.75 12.5041 20.75H11.4958C10.263 20.75 9.22314 19.832 9.07023 18.6087L9.04418 18.4004C9.02034 18.2096 8.88177 17.9955 8.62213 17.8452C8.36583 17.6968 8.11523 17.6839 7.93549 17.7598L7.74169 17.8415C6.60575 18.3208 5.29072 17.8792 4.67427 16.8115L4.17082 15.9395C3.55406 14.8712 3.82928 13.5109 4.81279 12.7664L5.24591 13.3385L4.81279 12.7664L4.97987 12.6399C5.13477 12.5226 5.24998 12.2972 5.24998 12C5.24998 11.7029 5.13481 11.4776 4.97998 11.3604L5.43265 10.7624L4.97998 11.3604L4.81273 11.2338C3.82917 10.4892 3.55393 9.1288 4.17072 8.06048L4.6741 7.18862C5.29055 6.12089 6.6056 5.67928 7.74154 6.15854L7.93531 6.24029C8.11509 6.31614 8.36573 6.30328 8.62207 6.15486C8.88175 6.0045 9.02035 5.79033 9.04419 5.59958L9.07023 5.39127ZM11.4958 4.75C11.0195 4.75 10.6177 5.10468 10.5586 5.57732L10.5326 5.78564C10.4379 6.54369 9.94148 7.1242 9.37368 7.45296C8.80168 7.78416 8.05435 7.91855 7.35223 7.62232L7.15846 7.54057C6.71951 7.35538 6.21135 7.52602 5.97314 7.93862L5.46976 8.81048C5.23121 9.22367 5.33766 9.74983 5.71807 10.0378L5.88532 10.1644C6.49297 10.6244 6.74998 11.3408 6.74998 12C6.74998 12.6593 6.49295 13.3758 5.8852 13.8359L5.43254 13.2379L5.8852 13.8359L5.71813 13.9623C5.33778 14.2503 5.23134 14.7763 5.46986 15.1895L5.97331 16.0615C6.21151 16.474 6.71966 16.6447 7.15861 16.4595L7.35241 16.3777C8.05448 16.0815 8.80176 16.2159 9.37373 16.5471C9.94151 16.8758 10.4378 17.4563 10.5326 18.2143L10.5586 18.4227C10.6177 18.8953 11.0195 19.25 11.4958 19.25H12.5041C12.9804 19.25 13.3822 18.8953 13.4413 18.4227L13.4674 18.2142C13.5621 17.4563 14.0584 16.8758 14.6262 16.5471C15.1981 16.2159 15.9453 16.0816 16.6474 16.3778L16.8412 16.4596C17.2802 16.6448 17.7883 16.4741 18.0265 16.0615L18.53 15.1895C18.7685 14.7764 18.6621 14.2504 18.2818 13.9625L18.1149 13.8361C17.507 13.376 17.25 12.6594 17.25 12C17.25 11.3407 17.507 10.6242 18.1147 10.1641L18.2818 10.0377C18.6622 9.74973 18.7686 9.22363 18.5301 8.81049L18.0267 7.93855C17.7885 7.52595 17.2803 7.3553 16.8414 7.5405L16.6475 7.62227C15.9455 7.91848 15.1982 7.7841 14.6262 7.45294C14.0584 7.12419 13.5621 6.54371 13.4674 5.7857L13.4413 5.57732C13.3822 5.10468 12.9804 4.75 12.5041 4.75H11.4958Z" fill="#23294A"/>
<path fill-rule="evenodd" clip-rule="evenodd" d="M12 13.5C12.8284 13.5 13.5 12.8284 13.5 12C13.5 11.1716 12.8284 10.5 12 10.5C11.1716 10.5 10.5 11.1716 10.5 12C10.5 12.8284 11.1716 13.5 12 13.5ZM12 15C13.6569 15 15 13.6569 15 12C15 10.3431 13.6569 9 12 9C10.3431 9 9 10.3431 9 12C9 13.6569 10.3431 15 12 15Z" fill="#0EA541"/>
</svg>
