<svg width="24" height="24" viewBox="0 0 24 24" fill="none" xmlns="http://www.w3.org/2000/svg">
<path fill-rule="evenodd" clip-rule="evenodd" d="M9.97147 4.42525C10.992 3.08546 13.008 3.08546 14.0286 4.42525L14.6965 5.30221C14.9001 5.56947 15.2193 5.72318 15.5552 5.71571L16.6573 5.69118C18.3411 5.65372 19.598 7.22992 19.1868 8.86314L18.9177 9.93216C18.8357 10.258 18.9145 10.6033 19.1298 10.8613L19.8361 11.7077C20.9152 13.0007 20.4666 14.9662 18.9333 15.663L17.9297 16.1191C17.6238 16.2581 17.4029 16.5351 17.3355 16.8642L17.1142 17.9442C16.776 19.5941 14.9596 20.4688 13.4588 19.7045L12.4765 19.2042C12.1771 19.0517 11.8229 19.0517 11.5235 19.2042L10.5412 19.7045C9.0404 20.4688 7.22402 19.5941 6.88587 17.9442L6.66453 16.8642C6.59708 16.5351 6.3762 16.2581 6.07034 16.1191L5.06673 15.663C3.53344 14.9662 3.08483 13.0007 4.16394 11.7077L4.87027 10.8613C5.08553 10.6033 5.16436 10.258 5.08233 9.93216L4.81318 8.86314C4.40198 7.22991 5.65896 5.65372 7.34274 5.69118L8.44485 5.71571C8.78073 5.72318 9.09991 5.56947 9.30349 5.30221L9.97147 4.42525ZM12.8353 5.33417C12.4151 4.78249 11.5849 4.78249 11.1647 5.33417L10.4967 6.21112C10.0023 6.86019 9.2272 7.23348 8.41148 7.21533L7.30937 7.19081C6.61605 7.17539 6.09847 7.82441 6.26779 8.49691L6.53694 9.56594C6.73615 10.3572 6.5447 11.1959 6.02192 11.8224L5.31559 12.6688C4.87126 13.2012 5.05598 14.0105 5.68733 14.2974L6.69094 14.7535C7.43375 15.0911 7.97017 15.7637 8.13399 16.5631L8.35532 17.643C8.49456 18.3224 9.24248 18.6825 9.86045 18.3678L10.8428 17.8675C11.5698 17.4973 12.4302 17.4973 13.1572 17.8675L14.1396 18.3678C14.7575 18.6825 15.5055 18.3224 15.6447 17.643L15.866 16.5631C16.0299 15.7637 16.5663 15.0911 17.3091 14.7535L18.3127 14.2974C18.944 14.0105 19.1288 13.2012 18.6844 12.6688L17.9781 11.8224C17.4553 11.1959 17.2639 10.3572 17.4631 9.56593L17.7322 8.49691C17.9016 7.82441 17.384 7.17539 16.6907 7.19081L15.5885 7.21533C14.7728 7.23348 13.9977 6.86019 13.5033 6.21112L12.8353 5.33417Z" fill="#23294A"/>
<path fill-rule="evenodd" clip-rule="evenodd" d="M12 13.5C12.8284 13.5 13.5 12.8284 13.5 12C13.5 11.1716 12.8284 10.5 12 10.5C11.1716 10.5 10.5 11.1716 10.5 12C10.5 12.8284 11.1716 13.5 12 13.5ZM12 15C13.6569 15 15 13.6569 15 12C15 10.3431 13.6569 9 12 9C10.3431 9 9 10.3431 9 12C9 13.6569 10.3431 15 12 15Z" fill="#0EA541"/>
</svg>
