<svg width="24" height="24" viewBox="0 0 24 24" fill="none" xmlns="http://www.w3.org/2000/svg">
<path fill-rule="evenodd" clip-rule="evenodd" d="M8.35687 12.6142C8.56998 12.2591 9.03068 12.1439 9.38586 12.357L14.3859 15.357C14.741 15.5701 14.8562 16.0308 14.6431 16.386C14.43 16.7412 13.9693 16.8563 13.6141 16.6432L8.61412 13.6432C8.25893 13.4301 8.14376 12.9694 8.35687 12.6142Z" fill="#0EA541"/>
<path fill-rule="evenodd" clip-rule="evenodd" d="M14.6431 7.61424C14.8562 7.96943 14.741 8.43012 14.3859 8.64323L9.38586 11.6432C9.03068 11.8563 8.56998 11.7412 8.35687 11.386C8.14376 11.0308 8.25893 10.5701 8.61412 10.357L13.6141 7.35699C13.9693 7.14388 14.43 7.25906 14.6431 7.61424Z" fill="#0EA541"/>
<path fill-rule="evenodd" clip-rule="evenodd" d="M7 10.75C6.30964 10.75 5.75 11.3096 5.75 12C5.75 12.6904 6.30964 13.25 7 13.25C7.69036 13.25 8.25 12.6904 8.25 12C8.25 11.3096 7.69036 10.75 7 10.75ZM4.25 12C4.25 10.4812 5.48122 9.25 7 9.25C8.51878 9.25 9.75 10.4812 9.75 12C9.75 13.5188 8.51878 14.75 7 14.75C5.48122 14.75 4.25 13.5188 4.25 12Z" fill="#23294A"/>
<path fill-rule="evenodd" clip-rule="evenodd" d="M16 15.75C15.3096 15.75 14.75 16.3096 14.75 17C14.75 17.6904 15.3096 18.25 16 18.25C16.6904 18.25 17.25 17.6904 17.25 17C17.25 16.3096 16.6904 15.75 16 15.75ZM13.25 17C13.25 15.4812 14.4812 14.25 16 14.25C17.5188 14.25 18.75 15.4812 18.75 17C18.75 18.5188 17.5188 19.75 16 19.75C14.4812 19.75 13.25 18.5188 13.25 17Z" fill="#23294A"/>
<path fill-rule="evenodd" clip-rule="evenodd" d="M16 5.75C15.3096 5.75 14.75 6.30964 14.75 7C14.75 7.69036 15.3096 8.25 16 8.25C16.6904 8.25 17.25 7.69036 17.25 7C17.25 6.30964 16.6904 5.75 16 5.75ZM13.25 7C13.25 5.48122 14.4812 4.25 16 4.25C17.5188 4.25 18.75 5.48122 18.75 7C18.75 8.51878 17.5188 9.75 16 9.75C14.4812 9.75 13.25 8.51878 13.25 7Z" fill="#23294A"/>
</svg>
