<svg width="24" height="24" viewBox="0 0 24 24" fill="none" xmlns="http://www.w3.org/2000/svg">
<path fill-rule="evenodd" clip-rule="evenodd" d="M4.25 7C4.25 4.92893 5.92893 3.25 8 3.25H13.586C14.4643 3.25 15.3052 3.60547 15.9172 4.23545L19.3312 7.74982C19.9204 8.35638 20.25 9.16873 20.25 10.0144V18C20.25 20.0711 18.5711 21.75 16.5 21.75H8C5.92893 21.75 4.25 20.0711 4.25 18V7ZM8 4.75C6.75736 4.75 5.75 5.75736 5.75 7V18C5.75 19.2426 6.75736 20.25 8 20.25H16.5C17.7426 20.25 18.75 19.2426 18.75 18V10.0144C18.75 9.55903 18.5725 9.12161 18.2552 8.795L14.8413 5.28063C14.5117 4.94141 14.059 4.75 13.586 4.75H8Z" fill="#23294A"/>
<path fill-rule="evenodd" clip-rule="evenodd" d="M9.75 9.5C9.75 9.08579 10.0858 8.75 10.5 8.75H13.5C13.9142 8.75 14.25 9.08579 14.25 9.5C14.25 9.91421 13.9142 10.25 13.5 10.25H10.5C10.0858 10.25 9.75 9.91421 9.75 9.5Z" fill="#0EA541"/>
<path fill-rule="evenodd" clip-rule="evenodd" d="M8.25 14.5C8.25 13.2574 9.25736 12.25 10.5 12.25H13.5C14.7426 12.25 15.75 13.2574 15.75 14.5V16.5C15.75 17.7426 14.7426 18.75 13.5 18.75H10.5C9.25736 18.75 8.25 17.7426 8.25 16.5V14.5ZM10.5 13.75C10.0858 13.75 9.75 14.0858 9.75 14.5V16.5C9.75 16.9142 10.0858 17.25 10.5 17.25H13.5C13.9142 17.25 14.25 16.9142 14.25 16.5V14.5C14.25 14.0858 13.9142 13.75 13.5 13.75H10.5Z" fill="#0EA541"/>
</svg>
