<svg width="24" height="24" viewBox="0 0 24 24" fill="none" xmlns="http://www.w3.org/2000/svg">
<path fill-rule="evenodd" clip-rule="evenodd" d="M14.3964 3.79694C15.0077 2.39777 16.9924 2.39776 17.6036 3.79694L18.3547 5.51606C18.3799 5.57378 18.426 5.61985 18.4837 5.64506L20.2029 6.39614C21.602 7.00744 21.602 8.99211 20.2029 9.60341L18.4837 10.3545C18.426 10.3797 18.3799 10.4258 18.3547 10.4835L17.6037 12.2026C16.9924 13.6018 15.0077 13.6018 14.3964 12.2026L13.6453 10.4835C13.6201 10.4258 13.574 10.3797 13.5163 10.3545L11.7972 9.60341C10.398 8.99211 10.398 7.00744 11.7972 6.39615L13.5163 5.64506C13.574 5.61985 13.6201 5.57378 13.6453 5.51606L14.3964 3.79694ZM16.2291 4.39747C16.1418 4.19759 15.8583 4.19759 15.7709 4.39747L15.0198 6.1166C14.8433 6.5206 14.5208 6.8431 14.1168 7.0196L12.3977 7.77069C12.1978 7.85801 12.1978 8.14154 12.3977 8.22887L14.1168 8.97995C14.5208 9.15646 14.8433 9.47895 15.0198 9.88296L15.7709 11.6021C15.8583 11.802 16.1418 11.802 16.2291 11.6021L16.9802 9.88296C17.1567 9.47895 17.4792 9.15646 17.8832 8.97995L19.6023 8.22887C19.8022 8.14154 19.8022 7.85801 19.6023 7.77069L17.8832 7.0196C17.4792 6.8431 17.1567 6.5206 16.9802 6.1166L16.2291 4.39747Z" fill="#23294A"/>
<path fill-rule="evenodd" clip-rule="evenodd" d="M5.98802 9.58756C6.56439 8.26834 8.43565 8.26834 9.01201 9.58756L9.41433 10.5084C9.42946 10.5431 9.45711 10.5707 9.49174 10.5858L10.4126 10.9881C11.7318 11.5645 11.7318 13.4358 10.4126 14.0121L9.49174 14.4145C9.45711 14.4296 9.42946 14.4572 9.41433 14.4919L9.01201 15.4127C8.43565 16.7319 6.56439 16.7319 5.98802 15.4127L5.5857 14.4919C5.57057 14.4572 5.54293 14.4296 5.5083 14.4145L4.58744 14.0121C3.26822 13.4358 3.26822 11.5645 4.58744 10.9881L5.5083 10.5858C5.54293 10.5707 5.57057 10.5431 5.5857 10.5084L5.98802 9.58756ZM7.41716 10.1202C7.39973 10.131 7.37955 10.1492 7.36256 10.1881L6.96024 11.109C6.79382 11.4899 6.48975 11.7939 6.10883 11.9604L5.18797 12.3627C5.14909 12.3797 5.13087 12.3999 5.12005 12.4173C5.1072 12.438 5.09802 12.4667 5.09802 12.5001C5.09802 12.5336 5.1072 12.5623 5.12005 12.583C5.13087 12.6004 5.14909 12.6206 5.18797 12.6376L6.10883 13.0399C6.48975 13.2063 6.79382 13.5104 6.96024 13.8913L7.36256 14.8122C7.37955 14.8511 7.39973 14.8693 7.41716 14.8801C7.43784 14.893 7.46658 14.9021 7.50002 14.9021C7.53346 14.9021 7.56219 14.893 7.58287 14.8801C7.6003 14.8693 7.62048 14.8511 7.63747 14.8122L8.03979 13.8913C8.20622 13.5104 8.51028 13.2063 8.8912 13.0399L9.81207 12.6376C9.85095 12.6206 9.86916 12.6004 9.87999 12.583C9.89283 12.5623 9.90201 12.5336 9.90201 12.5001C9.90201 12.4667 9.89283 12.438 9.87999 12.4173C9.86916 12.3999 9.85095 12.3797 9.81207 12.3627L8.8912 11.9604C8.51028 11.7939 8.20622 11.4899 8.03979 11.109L7.63747 10.1881C7.62048 10.1492 7.6003 10.131 7.58287 10.1202C7.56219 10.1073 7.53346 10.0981 7.50002 10.0981C7.46658 10.0981 7.43784 10.1073 7.41716 10.1202Z" fill="#0EA541"/>
<path fill-rule="evenodd" clip-rule="evenodd" d="M12.9455 15.26C13.4367 14.4882 14.5634 14.4882 15.0546 15.26L15.71 16.2899L16.7399 16.9453C17.5117 17.4365 17.5117 18.5632 16.7399 19.0544L15.71 19.7099L15.0546 20.7398C14.5634 21.5116 13.4367 21.5116 12.9455 20.7398L12.29 19.7099L11.2601 19.0544C10.4883 18.5632 10.4883 17.4365 11.2601 16.9453L12.29 16.2899L12.9455 15.26ZM14 16.3968L13.5257 17.1421C13.4275 17.2964 13.2966 17.4273 13.1422 17.5255L12.3969 17.9999L13.1422 18.4742C13.2966 18.5725 13.4275 18.7033 13.5257 18.8577L14 19.603L14.4744 18.8577C14.5726 18.7033 14.7035 18.5725 14.8578 18.4742L15.6031 17.9999L14.8578 17.5255C14.7035 17.4273 14.5726 17.2964 14.4744 17.1421L14 16.3968Z" fill="#23294A"/>
</svg>
