<svg width="24" height="24" viewBox="0 0 24 24" fill="none" xmlns="http://www.w3.org/2000/svg">
<path fill-rule="evenodd" clip-rule="evenodd" d="M10.0223 4.43411C11.001 3.09553 12.999 3.09553 13.9777 4.43411L15.5626 6.60167C15.6798 6.76203 15.8444 6.8816 16.0332 6.94356L18.5844 7.78105C20.1599 8.29825 20.7773 10.1984 19.8067 11.5429L18.235 13.72C18.1187 13.8811 18.0558 14.0746 18.0552 14.2732L18.0471 16.9584C18.0421 18.6166 16.4257 19.791 14.8471 19.2833L12.2908 18.4613C12.1017 18.4005 11.8983 18.4005 11.7092 18.4613L9.15291 19.2833C7.5743 19.791 5.95791 18.6166 5.95289 16.9584L5.94476 14.2732C5.94416 14.0746 5.8813 13.8811 5.76502 13.72L4.1933 11.5429C3.22268 10.1984 3.84009 8.29825 5.4156 7.78105L7.96683 6.94356C8.15557 6.8816 8.32014 6.76203 8.4374 6.60167L10.0223 4.43411ZM12.7669 5.31946C12.3874 4.80042 11.6126 4.80042 11.2331 5.31945L9.64825 7.48702C9.34586 7.90058 8.92143 8.20894 8.43467 8.36873L5.88344 9.20623C5.27253 9.40677 5.03313 10.1436 5.40949 10.6649L6.98121 12.842C7.28109 13.2574 7.4432 13.7564 7.44475 14.2687L7.45289 16.9538C7.45483 17.5968 8.0816 18.0522 8.69371 17.8553L11.25 17.0333C11.7377 16.8765 12.2623 16.8765 12.75 17.0333L15.3063 17.8553C15.9184 18.0522 16.5452 17.5968 16.5471 16.9538L16.5552 14.2687C16.5568 13.7564 16.7189 13.2574 17.0188 12.842L18.5905 10.6649C18.9669 10.1436 18.7275 9.40677 18.1166 9.20623L15.5653 8.36873C15.0786 8.20894 14.6541 7.90058 14.3517 7.48702L12.7669 5.31946Z" fill="#23294A"/>
</svg>
