<svg width="24" height="24" viewBox="0 0 24 24" fill="none" xmlns="http://www.w3.org/2000/svg">
<path fill-rule="evenodd" clip-rule="evenodd" d="M12 9.75C11.5732 9.75 11.1506 9.83406 10.7563 9.99739C10.362 10.1607 10.0037 10.4001 9.7019 10.7019C9.40011 11.0037 9.16072 11.362 8.99739 11.7563C8.93094 11.9167 8.87761 12.0818 8.83772 12.25L15.1623 12.25C15.1224 12.0818 15.0691 11.9167 15.0026 11.7563C14.8393 11.362 14.5999 11.0037 14.2981 10.7019C13.9963 10.4001 13.638 10.1607 13.2437 9.99739C12.8494 9.83406 12.4268 9.75 12 9.75ZM10.1823 8.61157C10.7586 8.37286 11.3762 8.25 12 8.25C12.6238 8.25 13.2415 8.37286 13.8177 8.61157C14.394 8.85028 14.9177 9.20017 15.3588 9.64124C15.7998 10.0823 16.1497 10.606 16.3884 11.1823C16.6271 11.7586 16.75 12.3762 16.75 13L16.75 13.75L7.25 13.75L7.25 13C7.25 12.3762 7.37286 11.7585 7.61157 11.1823C7.85028 10.606 8.20017 10.0823 8.64124 9.64124C9.08232 9.20016 9.60596 8.85028 10.1823 8.61157Z" fill="#0EA541"/>
<path fill-rule="evenodd" clip-rule="evenodd" d="M12 2.25C12.4142 2.25 12.75 2.58579 12.75 3V5C12.75 5.41421 12.4142 5.75 12 5.75C11.5858 5.75 11.25 5.41421 11.25 5V3C11.25 2.58579 11.5858 2.25 12 2.25Z" fill="#23294A"/>
<path fill-rule="evenodd" clip-rule="evenodd" d="M5.23748 5.23725C5.53038 4.94435 6.00525 4.94435 6.29814 5.23725L7.53035 6.46946C7.82325 6.76235 7.82325 7.23722 7.53035 7.53012C7.23746 7.82301 6.76258 7.82301 6.46969 7.53012L5.23748 6.29791C4.94459 6.00501 4.94459 5.53014 5.23748 5.23725Z" fill="#23294A"/>
<path fill-rule="evenodd" clip-rule="evenodd" d="M19.0659 5.23736C19.3588 5.53025 19.3588 6.00513 19.0659 6.29802L17.6517 7.71223C17.3588 8.00513 16.8839 8.00513 16.591 7.71223C16.2981 7.41934 16.2981 6.94447 16.591 6.65157L18.0053 5.23736C18.2981 4.94447 18.773 4.94447 19.0659 5.23736Z" fill="#23294A"/>
<path fill-rule="evenodd" clip-rule="evenodd" d="M4.25 13C4.25 12.5858 4.58579 12.25 5 12.25H19C19.4142 12.25 19.75 12.5858 19.75 13C19.75 13.4142 19.4142 13.75 19 13.75H5C4.58579 13.75 4.25 13.4142 4.25 13Z" fill="#0EA541"/>
<path fill-rule="evenodd" clip-rule="evenodd" d="M8.25 16C8.25 15.5858 8.58579 15.25 9 15.25H15C15.4142 15.25 15.75 15.5858 15.75 16C15.75 16.4142 15.4142 16.75 15 16.75H9C8.58579 16.75 8.25 16.4142 8.25 16Z" fill="#23294A"/>
</svg>
