<svg width="24" height="24" viewBox="0 0 24 24" fill="none" xmlns="http://www.w3.org/2000/svg">
<path fill-rule="evenodd" clip-rule="evenodd" d="M16.5221 8.46158C16.8195 8.74993 16.8268 9.22475 16.5384 9.52211L11.0792 15.1519C10.5881 15.6584 9.77552 15.6584 9.28444 15.1519L7.46158 13.2721C7.17322 12.9747 7.18053 12.4999 7.47789 12.2116C7.77526 11.9232 8.25007 11.9305 8.53843 12.2279L10.1818 13.9226L15.4616 8.47789C15.7499 8.18053 16.2247 8.17322 16.5221 8.46158Z" fill="#23294A"/>
<path fill-rule="evenodd" clip-rule="evenodd" d="M15.0676 9.96158C15.3649 10.2499 15.3722 10.7247 15.0839 11.0221L12.1748 14.0221C11.8864 14.3195 11.4116 14.3268 11.1142 14.0384C10.8169 13.7501 10.8096 13.2753 11.0979 12.9779L14.007 9.97789C14.2954 9.68053 14.7702 9.67322 15.0676 9.96158Z" fill="#0EA541"/>
</svg>
