<svg width="24" height="24" viewBox="0 0 24 24" fill="none" xmlns="http://www.w3.org/2000/svg">
<path fill-rule="evenodd" clip-rule="evenodd" d="M15 5.75C12.6528 5.75 10.75 7.65279 10.75 10C10.75 10.1051 10.7538 10.2093 10.7613 10.3123L9.26518 10.4206C9.25511 10.2816 9.25 10.1413 9.25 10C9.25 6.82436 11.8244 4.25 15 4.25C18.1756 4.25 20.75 6.82436 20.75 10C20.75 13.1756 18.1756 15.75 15 15.75C14.756 15.75 14.5153 15.7348 14.2787 15.7051L14.4652 14.2168C14.6401 14.2387 14.8185 14.25 15 14.25C17.3472 14.25 19.25 12.3472 19.25 10C19.25 7.65279 17.3472 5.75 15 5.75Z" fill="#0EA541"/>
<path fill-rule="evenodd" clip-rule="evenodd" d="M9 10.75C6.65279 10.75 4.75 12.6528 4.75 15C4.75 17.3472 6.65279 19.25 9 19.25C11.3472 19.25 13.25 17.3472 13.25 15C13.25 12.6528 11.3472 10.75 9 10.75ZM3.25 15C3.25 11.8244 5.82436 9.25 9 9.25C12.1756 9.25 14.75 11.8244 14.75 15C14.75 18.1756 12.1756 20.75 9 20.75C5.82436 20.75 3.25 18.1756 3.25 15Z" fill="#0EA541"/>
<path fill-rule="evenodd" clip-rule="evenodd" d="M4.66863 8.40708C4.12164 8.89938 3.25001 8.51119 3.25001 7.77528L3.25001 3.59982C3.25001 3.13038 3.63057 2.74982 4.10001 2.74982L8.73942 2.74982C9.51844 2.74982 9.88707 3.7105 9.30804 4.23162L4.66863 8.40708ZM4.75001 6.3158L7.04554 4.24982L4.75001 4.24982L4.75001 6.3158Z" fill="#23294A"/>
<path fill-rule="evenodd" clip-rule="evenodd" d="M19.3314 15.5929C19.8784 15.1006 20.75 15.4888 20.75 16.2247V20.4002C20.75 20.8696 20.3694 21.2502 19.9 21.2502H15.2606C14.4816 21.2502 14.1129 20.2895 14.692 19.7684L19.3314 15.5929ZM19.25 17.6842L16.9545 19.7502H19.25V17.6842Z" fill="#23294A"/>
</svg>
