<svg width="24" height="24" viewBox="0 0 24 24" fill="none" xmlns="http://www.w3.org/2000/svg">
<path fill-rule="evenodd" clip-rule="evenodd" d="M13.5638 4.62046C12.5988 4.13797 11.4573 4.1658 10.517 4.69472L6.40665 7.0068C5.3833 7.58243 4.75 8.66528 4.75 9.83942V14.1606C4.75 15.3348 5.3833 16.4176 6.40665 16.9933L10.4067 19.2433C11.396 19.7998 12.604 19.7998 13.5933 19.2433L17.5933 16.9933C18.6167 16.4176 19.25 15.3348 19.25 14.1606V9.79473C19.25 8.6482 18.6316 7.59081 17.6323 7.02871L18.3677 5.72135C19.8393 6.54913 20.75 8.10629 20.75 9.79473V14.1606C20.75 15.8767 19.8244 17.4593 18.3287 18.3006L14.3287 20.5506C12.8828 21.364 11.1172 21.364 9.67126 20.5506L5.67126 18.3006C4.17559 17.4593 3.25 15.8767 3.25 14.1606V9.83942C3.25 8.12337 4.17559 6.54075 5.67126 5.69944L9.78161 3.38736C11.1559 2.61431 12.8243 2.57364 14.2346 3.27882L14.3354 3.32921L13.6646 4.67085L13.5638 4.62046Z" fill="#23294A"/>
<path fill-rule="evenodd" clip-rule="evenodd" d="M9 9.25C9.41421 9.25 9.75 9.58579 9.75 10V13.1076C9.75 13.3404 9.85815 13.56 10.0427 13.702C10.3123 13.9094 10.6877 13.9094 10.9573 13.702C11.1418 13.56 11.25 13.3404 11.25 13.1076V10C11.25 9.58579 11.5858 9.25 12 9.25C12.4142 9.25 12.75 9.58579 12.75 10V13.1076C12.75 13.8061 12.4255 14.465 11.8718 14.891C11.0631 15.5131 9.93692 15.5131 9.12815 14.891C8.57446 14.465 8.25 13.8061 8.25 13.1076V10C8.25 9.58579 8.58579 9.25 9 9.25Z" fill="#23294A"/>
<path fill-rule="evenodd" clip-rule="evenodd" d="M15 9.25C15.4142 9.25 15.75 9.58579 15.75 10V14.5C15.75 14.9142 15.4142 15.25 15 15.25C14.5858 15.25 14.25 14.9142 14.25 14.5V10C14.25 9.58579 14.5858 9.25 15 9.25Z" fill="#23294A"/>
<path fill-rule="evenodd" clip-rule="evenodd" d="M16 2.75C14.7574 2.75 13.75 3.75736 13.75 5C13.75 6.24264 14.7574 7.25 16 7.25C17.2426 7.25 18.25 6.24264 18.25 5C18.25 3.75736 17.2426 2.75 16 2.75ZM12.25 5C12.25 2.92893 13.9289 1.25 16 1.25C18.0711 1.25 19.75 2.92893 19.75 5C19.75 7.07107 18.0711 8.75 16 8.75C13.9289 8.75 12.25 7.07107 12.25 5Z" fill="#0EA541"/>
</svg>
