<svg width="24" height="24" viewBox="0 0 24 24" fill="none" xmlns="http://www.w3.org/2000/svg">
<path fill-rule="evenodd" clip-rule="evenodd" d="M3.25 12C3.25 9.92893 4.92893 8.25 7 8.25C7.81139 8.25 8.60089 8.51317 9.25 9L10.45 9.9C10.7814 10.1485 10.8485 10.6186 10.6 10.95C10.3515 11.2814 9.88137 11.3485 9.55 11.1L8.35 10.2C7.96053 9.9079 7.48683 9.75 7 9.75C5.75736 9.75 4.75 10.7574 4.75 12C4.75 13.2426 5.75736 14.25 7 14.25C7.48683 14.25 7.96053 14.0921 8.35 13.8L14.75 9C15.3991 8.51317 16.1886 8.25 17 8.25C19.0711 8.25 20.75 9.92893 20.75 12C20.75 14.0711 19.0711 15.75 17 15.75C16.1886 15.75 15.3991 15.4868 14.75 15L13.55 14.1C13.2186 13.8515 13.1515 13.3814 13.4 13.05C13.6485 12.7186 14.1186 12.6515 14.45 12.9L15.65 13.8C16.0395 14.0921 16.5132 14.25 17 14.25C18.2426 14.25 19.25 13.2426 19.25 12C19.25 10.7574 18.2426 9.75 17 9.75C16.5132 9.75 16.0395 9.9079 15.65 10.2L9.25 15C8.60089 15.4868 7.81139 15.75 7 15.75C4.92893 15.75 3.25 14.0711 3.25 12Z" fill="#23294A"/>
<path fill-rule="evenodd" clip-rule="evenodd" d="M14.6 10.05C14.8485 10.3814 14.7814 10.8515 14.45 11.1L10.45 14.1C10.1186 14.3486 9.64854 14.2814 9.40001 13.95C9.15149 13.6187 9.21864 13.1486 9.55001 12.9L13.55 9.90004C13.8814 9.65152 14.3515 9.71867 14.6 10.05Z" fill="#0EA541"/>
<path fill-rule="evenodd" clip-rule="evenodd" d="M13.376 13.0841C13.6057 12.7394 14.0714 12.6463 14.416 12.876L15.916 13.876C16.2607 14.1058 16.3538 14.5715 16.124 14.9161C15.8943 15.2608 15.4286 15.3539 15.084 15.1241L13.584 14.1241C13.2393 13.8944 13.1462 13.4287 13.376 13.0841Z" fill="#0EA541"/>
<path fill-rule="evenodd" clip-rule="evenodd" d="M7.87595 9.08405C8.10571 8.73941 8.57137 8.64628 8.91601 8.87604L10.416 9.87604C10.7607 10.1058 10.8538 10.5715 10.624 10.9161C10.3943 11.2608 9.92861 11.3539 9.58396 11.1241L8.08396 10.1241C7.73932 9.89435 7.64619 9.4287 7.87595 9.08405Z" fill="#0EA541"/>
</svg>
