<svg width="24" height="24" viewBox="0 0 24 24" fill="none" xmlns="http://www.w3.org/2000/svg">
<path fill-rule="evenodd" clip-rule="evenodd" d="M12 4.75C9.65279 4.75 7.75 6.65279 7.75 9C7.75 11.3472 9.65279 13.25 12 13.25C14.3472 13.25 16.25 11.3472 16.25 9C16.25 6.65279 14.3472 4.75 12 4.75ZM6.25 9C6.25 5.82436 8.82436 3.25 12 3.25C15.1756 3.25 17.75 5.82436 17.75 9C17.75 12.1756 15.1756 14.75 12 14.75C8.82436 14.75 6.25 12.1756 6.25 9Z" fill="#0EA541"/>
<path fill-rule="evenodd" clip-rule="evenodd" d="M12 16.3496C14.0795 16.3496 16.2139 17.0109 17.7143 18.4041C18.0931 18.7559 18.4224 19.1676 18.6709 19.6645C18.8561 20.035 18.7059 20.4855 18.3355 20.6707C17.965 20.8559 17.5145 20.7058 17.3292 20.3353C17.1722 20.0212 16.9599 19.7505 16.6937 19.5034C15.5316 18.4244 13.7933 17.8496 12 17.8496C10.2068 17.8496 8.46845 18.4244 7.30638 19.5034C7.0402 19.7505 6.82789 20.0212 6.67086 20.3353C6.48562 20.7058 6.03512 20.8559 5.66463 20.6707C5.29415 20.4855 5.14398 20.035 5.32922 19.6645C5.57764 19.1676 5.90696 18.7559 6.28574 18.4041C7.78623 17.0109 9.92056 16.3496 12 16.3496Z" fill="#23294A"/>
</svg>
