<svg width="24" height="24" viewBox="0 0 24 24" fill="none" xmlns="http://www.w3.org/2000/svg">
<path fill-rule="evenodd" clip-rule="evenodd" d="M12 3.75C7.44365 3.75 3.75 7.44365 3.75 12C3.75 16.5563 7.44365 20.25 12 20.25C16.5563 20.25 20.25 16.5563 20.25 12C20.25 7.44365 16.5563 3.75 12 3.75ZM2.25 12C2.25 6.61522 6.61522 2.25 12 2.25C17.3848 2.25 21.75 6.61522 21.75 12C21.75 17.3848 17.3848 21.75 12 21.75C6.61522 21.75 2.25 17.3848 2.25 12Z" fill="#23294A"/>
<path fill-rule="evenodd" clip-rule="evenodd" d="M15.5 10C15.5 11.933 13.933 13.5 12 13.5C10.067 13.5 8.5 11.933 8.5 10C8.5 8.067 10.067 6.5 12 6.5C13.933 6.5 15.5 8.067 15.5 10ZM12 12C13.1046 12 14 11.1046 14 10C14 8.89543 13.1046 8 12 8C10.8954 8 10 8.89543 10 10C10 11.1046 10.8954 12 12 12Z" fill="#0EA541"/>
<path fill-rule="evenodd" clip-rule="evenodd" d="M8.46967 15.7123C10.4194 13.7626 13.5806 13.7626 15.5303 15.7123C15.8232 16.0052 15.8232 16.4801 15.5303 16.773C15.2374 17.0659 14.7626 17.0659 14.4697 16.773C13.1057 15.409 10.8943 15.409 9.53033 16.773C9.23744 17.0659 8.76256 17.0659 8.46967 16.773C8.17678 16.4801 8.17678 16.0052 8.46967 15.7123Z" fill="#0EA541"/>
</svg>
