<svg width="24" height="24" viewBox="0 0 24 24" fill="none" xmlns="http://www.w3.org/2000/svg">
<path fill-rule="evenodd" clip-rule="evenodd" d="M2.75 9.5C2.75 9.08579 3.08579 8.75 3.5 8.75H20.5C20.9142 8.75 21.25 9.08579 21.25 9.5C21.25 9.91421 20.9142 10.25 20.5 10.25H3.5C3.08579 10.25 2.75 9.91421 2.75 9.5Z" fill="#0EA541"/>
<path fill-rule="evenodd" clip-rule="evenodd" d="M16.3377 2.33052C16.7076 2.51701 16.8562 2.96801 16.6697 3.33787L13.509 9.60656C13.3225 9.97642 12.8715 10.1251 12.5016 9.93858C12.1318 9.7521 11.9831 9.30109 12.1696 8.93123L15.3304 2.66254C15.5168 2.29269 15.9678 2.14403 16.3377 2.33052Z" fill="#0EA541"/>
<path fill-rule="evenodd" clip-rule="evenodd" d="M10.8208 2.35011C11.1799 2.55671 11.3034 3.01523 11.0968 3.37424L7.48927 9.64292C7.28267 10.0019 6.82415 10.1255 6.46514 9.91887C6.10613 9.71227 5.98258 9.25375 6.18918 8.89474L9.79671 2.62606C10.0033 2.26705 10.4618 2.1435 10.8208 2.35011Z" fill="#0EA541"/>
<path fill-rule="evenodd" clip-rule="evenodd" d="M12.2571 18.4071C10.7516 19.2636 8.8835 18.1692 8.89446 16.4372L8.91091 13.8392C8.92187 12.1072 10.8037 11.0365 12.2982 11.912L14.5399 13.2253C16.0344 14.1008 16.0207 16.2658 14.5152 17.1223L12.2571 18.4071ZM10.3944 16.4467C10.3908 17.024 11.0135 17.3888 11.5153 17.1033L13.7735 15.8186C14.2753 15.533 14.2799 14.8114 13.7817 14.5195L11.54 13.2063C11.0418 12.9145 10.4145 13.2713 10.4109 13.8487L10.3944 16.4467Z" fill="#0EA541"/>
<path fill-rule="evenodd" clip-rule="evenodd" d="M2.25 8C2.25 4.82436 4.82436 2.25 8 2.25H16C19.1756 2.25 21.75 4.82436 21.75 8V16C21.75 19.1756 19.1756 21.75 16 21.75H8C4.82436 21.75 2.25 19.1756 2.25 16V8ZM8 3.75C5.65279 3.75 3.75 5.65279 3.75 8V16C3.75 18.3472 5.65279 20.25 8 20.25H16C18.3472 20.25 20.25 18.3472 20.25 16V8C20.25 5.65279 18.3472 3.75 16 3.75H8Z" fill="#23294A"/>
</svg>
