<svg width="24" height="24" viewBox="0 0 24 24" fill="none" xmlns="http://www.w3.org/2000/svg">
<path fill-rule="evenodd" clip-rule="evenodd" d="M20.25 8.91877C20.25 8.4426 19.686 8.19141 19.3321 8.50996L16.5017 11.0573C16.1938 11.3344 15.7196 11.3094 15.4425 11.0015C15.1654 10.6936 15.1904 10.2194 15.4983 9.94233L18.3286 7.39502C19.6478 6.20772 21.75 7.14394 21.75 8.91877V15.0808C21.75 16.8557 19.6479 17.7919 18.3286 16.6046L15.4983 14.0573C15.1904 13.7802 15.1654 13.306 15.4425 12.9981C15.7196 12.6902 16.1938 12.6652 16.5017 12.9423L19.3321 15.4896C19.686 15.8082 20.25 15.557 20.25 15.0808V8.91877Z" fill="#0EA541"/>
<path fill-rule="evenodd" clip-rule="evenodd" d="M2.25 9C2.25 6.37665 4.37665 4.25 7 4.25H12C14.6234 4.25 16.75 6.37665 16.75 9V15C16.75 17.6234 14.6234 19.75 12 19.75H7C4.37665 19.75 2.25 17.6234 2.25 15V9ZM7 5.75C5.20507 5.75 3.75 7.20507 3.75 9V15C3.75 16.7949 5.20507 18.25 7 18.25H12C13.7949 18.25 15.25 16.7949 15.25 15V9C15.25 7.20507 13.7949 5.75 12 5.75H7Z" fill="#23294A"/>
</svg>
