<svg width="24" height="24" viewBox="0 0 24 24" fill="none" xmlns="http://www.w3.org/2000/svg">
<path fill-rule="evenodd" clip-rule="evenodd" d="M15.25 8.4979C15.25 6.9465 13.4421 6.09748 12.2482 7.08825C11.733 7.51588 11.0844 7.74994 10.4148 7.74994H10C8.91915 7.74994 7.57148 7.99487 6.52063 8.65232C5.51231 9.28315 4.75 10.303 4.75 11.9999C4.75 13.6968 5.51231 14.7167 6.52063 15.3476C7.57148 16.005 8.91915 16.2499 10 16.2499H10.4148C11.0844 16.2499 11.733 16.484 12.2482 16.9116C13.4421 17.9024 15.25 17.0534 15.25 15.502V8.4979ZM11.2903 5.93398C13.4617 4.13193 16.75 5.67616 16.75 8.4979V15.502C16.75 18.3237 13.4617 19.868 11.2903 18.0659C11.0443 17.8617 10.7346 17.7499 10.4148 17.7499H10C8.74176 17.7499 7.08943 17.4728 5.72505 16.6192C4.31814 15.739 3.25 14.2589 3.25 11.9999C3.25 9.74099 4.31814 8.26089 5.72505 7.38068C7.08943 6.52709 8.74176 6.24994 10 6.24994H10.4148C10.7346 6.24994 11.0443 6.13818 11.2903 5.93398Z" fill="#23294A"/>
<path fill-rule="evenodd" clip-rule="evenodd" d="M19.55 9.40004C19.8814 9.15152 20.3515 9.21867 20.6 9.55004C21.6889 11.0019 21.6889 12.9982 20.6 14.45C20.3515 14.7814 19.8814 14.8486 19.55 14.6C19.2186 14.3515 19.1515 13.8814 19.4 13.55C20.0889 12.6315 20.0889 11.3686 19.4 10.45C19.1515 10.1187 19.2186 9.64857 19.55 9.40004Z" fill="#0EA541"/>
<path fill-rule="evenodd" clip-rule="evenodd" d="M17.584 9.87604C17.9286 9.64628 18.3943 9.73941 18.6241 10.0841C19.3976 11.2443 19.3976 12.7559 18.6241 13.9161C18.3943 14.2608 17.9286 14.3539 17.584 14.1241C17.2393 13.8944 17.1462 13.4287 17.376 13.0841C17.8136 12.4277 17.8136 11.5725 17.376 10.9161C17.1462 10.5715 17.2393 10.1058 17.584 9.87604Z" fill="#0EA541"/>
</svg>
