<svg width="24" height="24" viewBox="0 0 24 24" fill="none" xmlns="http://www.w3.org/2000/svg">
<path fill-rule="evenodd" clip-rule="evenodd" d="M12.25 12.5C12.25 10.7051 13.7051 9.25 15.5 9.25H21C21.4142 9.25 21.75 9.58579 21.75 10C21.75 10.4142 21.4142 10.75 21 10.75H15.5C14.5335 10.75 13.75 11.5335 13.75 12.5V13.5C13.75 14.4665 14.5335 15.25 15.5 15.25H21C21.4142 15.25 21.75 15.5858 21.75 16C21.75 16.4142 21.4142 16.75 21 16.75H15.5C13.7051 16.75 12.25 15.2949 12.25 13.5V12.5Z" fill="#23294A"/>
<path fill-rule="evenodd" clip-rule="evenodd" d="M3.25 7C3.25 6.58579 3.58579 6.25 4 6.25L20 6.25C20.4142 6.25 20.75 6.58579 20.75 7C20.75 7.41421 20.4142 7.75 20 7.75L4 7.75C3.58579 7.75 3.25 7.41421 3.25 7Z" fill="#0EA541"/>
<path fill-rule="evenodd" clip-rule="evenodd" d="M15.25 13C15.25 12.5858 15.5858 12.25 16 12.25H17C17.4142 12.25 17.75 12.5858 17.75 13C17.75 13.4142 17.4142 13.75 17 13.75H16C15.5858 13.75 15.25 13.4142 15.25 13Z" fill="#0EA541"/>
<path fill-rule="evenodd" clip-rule="evenodd" d="M2.25 8C2.25 4.82436 4.82436 2.25 8 2.25H16C19.1756 2.25 21.75 4.82436 21.75 8V16C21.75 19.1756 19.1756 21.75 16 21.75H8C4.82436 21.75 2.25 19.1756 2.25 16V8ZM8 3.75C5.65279 3.75 3.75 5.65279 3.75 8V16C3.75 18.3472 5.65279 20.25 8 20.25H16C18.3472 20.25 20.25 18.3472 20.25 16V8C20.25 5.65279 18.3472 3.75 16 3.75H8Z" fill="#23294A"/>
</svg>
