<svg width="24" height="24" viewBox="0 0 24 24" fill="none" xmlns="http://www.w3.org/2000/svg">
<path fill-rule="evenodd" clip-rule="evenodd" d="M4.25 8.6C4.25 7.30213 5.30213 6.25 6.6 6.25H7.4C8.69787 6.25 9.75 7.30213 9.75 8.6V15.4C9.75 16.6979 8.69787 17.75 7.4 17.75H6.6C5.30213 17.75 4.25 16.6979 4.25 15.4V8.6ZM6.6 7.75C6.13056 7.75 5.75 8.13056 5.75 8.6V15.4C5.75 15.8694 6.13056 16.25 6.6 16.25H7.4C7.86944 16.25 8.25 15.8694 8.25 15.4V8.6C8.25 8.13056 7.86944 7.75 7.4 7.75H6.6Z" fill="#0EA541"/>
<path fill-rule="evenodd" clip-rule="evenodd" d="M14.25 8.6C14.25 7.30213 15.3021 6.25 16.6 6.25H17.4C18.6979 6.25 19.75 7.30213 19.75 8.6V15.4C19.75 16.6979 18.6979 17.75 17.4 17.75H16.6C15.3021 17.75 14.25 16.6979 14.25 15.4V8.6ZM16.6 7.75C16.1306 7.75 15.75 8.13056 15.75 8.6V15.4C15.75 15.8694 16.1306 16.25 16.6 16.25H17.4C17.8694 16.25 18.25 15.8694 18.25 15.4V8.6C18.25 8.13056 17.8694 7.75 17.4 7.75H16.6Z" fill="#0EA541"/>
<path fill-rule="evenodd" clip-rule="evenodd" d="M10.25 12C10.25 11.5858 10.5858 11.25 11 11.25H13C13.4142 11.25 13.75 11.5858 13.75 12C13.75 12.4142 13.4142 12.75 13 12.75H11C10.5858 12.75 10.25 12.4142 10.25 12Z" fill="#23294A"/>
<path fill-rule="evenodd" clip-rule="evenodd" d="M21 9.25C21.4142 9.25 21.75 9.58579 21.75 10V14C21.75 14.4142 21.4142 14.75 21 14.75C20.5858 14.75 20.25 14.4142 20.25 14V10C20.25 9.58579 20.5858 9.25 21 9.25Z" fill="#23294A"/>
<path fill-rule="evenodd" clip-rule="evenodd" d="M3 9.25C3.41421 9.25 3.75 9.58579 3.75 10V14C3.75 14.4142 3.41421 14.75 3 14.75C2.58579 14.75 2.25 14.4142 2.25 14V10C2.25 9.58579 2.58579 9.25 3 9.25Z" fill="#23294A"/>
</svg>
