<svg width="24" height="24" viewBox="0 0 24 24" fill="none" xmlns="http://www.w3.org/2000/svg">
<path fill-rule="evenodd" clip-rule="evenodd" d="M12 11.75C10.9613 11.75 9.96504 12.1626 9.23053 12.8972C8.93763 13.1901 8.46276 13.1901 8.16987 12.8972C7.87697 12.6043 7.87697 12.1294 8.16987 11.8365C9.18569 10.8207 10.5634 10.25 12 10.25C13.4366 10.25 14.8144 10.8207 15.8302 11.8365C16.1231 12.1294 16.1231 12.6043 15.8302 12.8972C15.5373 13.1901 15.0624 13.1901 14.7695 12.8972C14.035 12.1626 13.0388 11.75 12 11.75Z" fill="#23294A"/>
<path fill-rule="evenodd" clip-rule="evenodd" d="M12 14.4165C11.5801 14.4165 11.1774 14.5833 10.8804 14.8803C10.5875 15.1731 10.1127 15.1731 9.81977 14.8803C9.52687 14.5874 9.52687 14.1125 9.81977 13.8196C10.398 13.2414 11.1823 12.9165 12 12.9165C12.8178 12.9165 13.602 13.2414 14.1803 13.8196C14.4732 14.1125 14.4732 14.5874 14.1803 14.8803C13.8874 15.1731 13.4125 15.1731 13.1196 14.8803C12.8227 14.5833 12.4199 14.4165 12 14.4165Z" fill="#0EA541"/>
<path d="M12.7777 16.7778C12.7777 17.2073 12.4295 17.5556 11.9999 17.5556C11.5704 17.5556 11.2222 17.2073 11.2222 16.7778C11.2222 16.3482 11.5704 16 11.9999 16C12.4295 16 12.7777 16.3482 12.7777 16.7778Z" fill="#23294A"/>
<path fill-rule="evenodd" clip-rule="evenodd" d="M12 8.75C10.3424 8.75 8.75273 9.40848 7.58062 10.5806C7.28773 10.8735 6.81286 10.8735 6.51996 10.5806C6.22707 10.2877 6.22707 9.81282 6.51996 9.51992C7.97337 8.06652 9.94461 7.25 12 7.25C14.0555 7.25 16.0267 8.06652 17.4801 9.51992C17.773 9.81281 17.773 10.2877 17.4801 10.5806C17.1872 10.8735 16.7124 10.8735 16.4195 10.5806C15.2474 9.40848 13.6576 8.75 12 8.75Z" fill="#0EA541"/>
<path fill-rule="evenodd" clip-rule="evenodd" d="M2.25 8C2.25 4.82436 4.82436 2.25 8 2.25H16C19.1756 2.25 21.75 4.82436 21.75 8V16C21.75 19.1756 19.1756 21.75 16 21.75H8C4.82436 21.75 2.25 19.1756 2.25 16V8ZM8 3.75C5.65279 3.75 3.75 5.65279 3.75 8V16C3.75 18.3472 5.65279 20.25 8 20.25H16C18.3472 20.25 20.25 18.3472 20.25 16V8C20.25 5.65279 18.3472 3.75 16 3.75H8Z" fill="#23294A"/>
</svg>
