<svg width="24" height="24" viewBox="0 0 24 24" fill="none" xmlns="http://www.w3.org/2000/svg">
<path fill-rule="evenodd" clip-rule="evenodd" d="M11.5 3.75C7.21979 3.75 3.75 7.21979 3.75 11.5C3.75 15.7802 7.21979 19.25 11.5 19.25C15.7802 19.25 19.25 15.7802 19.25 11.5C19.25 7.21979 15.7802 3.75 11.5 3.75ZM2.25 11.5C2.25 6.39137 6.39137 2.25 11.5 2.25C16.6086 2.25 20.75 6.39137 20.75 11.5C20.75 16.6086 16.6086 20.75 11.5 20.75C6.39137 20.75 2.25 16.6086 2.25 11.5Z" fill="#23294A"/>
<path fill-rule="evenodd" clip-rule="evenodd" d="M17.4697 17.4697C17.7626 17.1768 18.2374 17.1768 18.5303 17.4697L20.5303 19.4697C20.8232 19.7626 20.8232 20.2374 20.5303 20.5303C20.2374 20.8232 19.7626 20.8232 19.4697 20.5303L17.4697 18.5303C17.1768 18.2374 17.1768 17.7626 17.4697 17.4697Z" fill="#23294A"/>
<path fill-rule="evenodd" clip-rule="evenodd" d="M11.5 8.25C11.9142 8.25 12.25 8.58579 12.25 9V10.75H14C14.4142 10.75 14.75 11.0858 14.75 11.5C14.75 11.9142 14.4142 12.25 14 12.25H12.25V14C12.25 14.4142 11.9142 14.75 11.5 14.75C11.0858 14.75 10.75 14.4142 10.75 14V12.25H9C8.58579 12.25 8.25 11.9142 8.25 11.5C8.25 11.0858 8.58579 10.75 9 10.75H10.75V9C10.75 8.58579 11.0858 8.25 11.5 8.25Z" fill="#0EA541"/>
</svg>
