<svg width="24" height="24" viewBox="0 0 24 24" fill="none" xmlns="http://www.w3.org/2000/svg">
<path fill-rule="evenodd" clip-rule="evenodd" d="M8 3C5.23858 3 3 5.23858 3 8V16C3 18.7614 5.23858 21 8 21H16C18.7614 21 21 18.7614 21 16V8C21 5.23858 18.7614 3 16 3H8ZM10.3751 11.8214C10.4693 11.7084 10.64 11.7007 10.744 11.8046L12.6954 13.756C13.423 14.4837 14.6184 14.4295 15.2772 13.6389L17.0762 11.4801C17.3413 11.1619 17.2983 10.689 16.9801 10.4238C16.6619 10.1587 16.189 10.2017 15.9238 10.5199L14.1249 12.6786C14.0307 12.7916 13.86 12.7993 13.756 12.6954L11.8046 10.744C11.077 10.0163 9.8816 10.0705 9.22281 10.8611L7.42383 13.0199C7.15866 13.3381 7.20165 13.811 7.51986 14.0762C7.83807 14.3413 8.31099 14.2983 8.57617 13.9801L10.3751 11.8214Z" fill="#23294A"/>
</svg>
