<svg width="24" height="24" viewBox="0 0 24 24" fill="none" xmlns="http://www.w3.org/2000/svg">
<path d="M10.3445 9.91948C10.3135 9.94194 10.2779 9.98061 10.2575 10.0624L9.71057 12.25H11.2894L10.7425 10.0624C10.7221 9.98061 10.6865 9.94194 10.6555 9.91948C10.6184 9.89256 10.5641 9.87305 10.5 9.87305C10.4359 9.87305 10.3816 9.89256 10.3445 9.91948Z" fill="#23294A"/>
<path fill-rule="evenodd" clip-rule="evenodd" d="M3 8C3 5.23858 5.23858 3 8 3H16C18.7614 3 21 5.23858 21 8V16C21 18.7614 18.7614 21 16 21H8C5.23858 21 3 18.7614 3 16V8ZM11.6644 13.75L12.2724 16.1818C12.3729 16.5837 12.7801 16.828 13.1819 16.7275C13.5837 16.6271 13.8281 16.2199 13.7276 15.818L12.1978 9.69861C11.7559 7.9312 9.24411 7.93119 8.80225 9.69861L7.27239 15.818C7.17193 16.2199 7.41625 16.6271 7.8181 16.7275C8.21994 16.828 8.62715 16.5837 8.72761 16.1818L9.33557 13.75H11.6644ZM16 10.75C16.4142 10.75 16.75 11.0858 16.75 11.5V16C16.75 16.4142 16.4142 16.75 16 16.75C15.5858 16.75 15.25 16.4142 15.25 16V11.5C15.25 11.0858 15.5858 10.75 16 10.75ZM16.75 9C16.75 8.58579 16.4142 8.25 16 8.25C15.5858 8.25 15.25 8.58579 15.25 9V9.5C15.25 9.91421 15.5858 10.25 16 10.25C16.4142 10.25 16.75 9.91421 16.75 9.5V9Z" fill="#23294A"/>
</svg>
