<svg width="24" height="24" viewBox="0 0 24 24" fill="none" xmlns="http://www.w3.org/2000/svg">
<path d="M16.75 12.75H16.2C15.6753 12.75 15.25 13.1753 15.25 13.7V13.8C15.25 14.3247 15.6753 14.75 16.2 14.75H16.75V12.75Z" fill="#23294A"/>
<path fill-rule="evenodd" clip-rule="evenodd" d="M3 8C3 5.23858 5.23858 3 8 3H16C18.7614 3 21 5.23858 21 8V16C21 18.7614 18.7614 21 16 21H8C5.23858 21 3 18.7614 3 16V8ZM6.54272 8.40553C6.87103 8.15298 7.34192 8.2144 7.59447 8.54272L9.5 11.0199L11.4055 8.54272C11.6581 8.2144 12.129 8.15298 12.4573 8.40553C12.7856 8.65808 12.847 9.12897 12.5945 9.45728L10.4462 12.25L12.5945 15.0427C12.847 15.371 12.7856 15.8419 12.4573 16.0945C12.129 16.347 11.6581 16.2856 11.4055 15.9573L9.5 13.4801L7.59447 15.9573C7.34192 16.2856 6.87103 16.347 6.54272 16.0945C6.2144 15.8419 6.15298 15.371 6.40553 15.0427L8.55378 12.25L6.40553 9.45728C6.15298 9.12897 6.2144 8.65808 6.54272 8.40553ZM17.5 7.75C17.9142 7.75 18.25 8.08579 18.25 8.5V15.5C18.25 15.9142 17.9142 16.25 17.5 16.25H16.2C14.8469 16.25 13.75 15.1531 13.75 13.8V13.7C13.75 12.3469 14.8469 11.25 16.2 11.25H16.75V8.5C16.75 8.08579 17.0858 7.75 17.5 7.75Z" fill="#23294A"/>
</svg>
