<svg width="24" height="24" viewBox="0 0 24 24" fill="none" xmlns="http://www.w3.org/2000/svg">
<path d="M15.8315 18.284C14.9915 19.1283 14.0744 18.995 13.1916 18.5951C12.2573 18.1862 11.4002 18.1685 10.4145 18.5951C9.18024 19.1461 8.52883 18.9861 7.79171 18.284C3.60896 13.8135 4.22609 7.00542 8.97453 6.75657C10.0514 6.81446 10.8239 7.33421 11.4716 7.44902C11.5658 7.46571 11.6621 7.45828 11.755 7.43542C12.716 7.19886 13.6445 6.64474 14.6744 6.72102C15.9298 6.82447 16.8869 7.32934 17.5299 8.23561C17.5626 8.28174 17.5477 8.34608 17.5004 8.37711C14.9602 10.0433 15.5606 13.5597 17.9118 14.6195C17.9606 14.6415 17.9855 14.6974 17.9669 14.7476C17.4827 16.0502 16.8535 17.3372 15.8229 18.2929L15.8315 18.284Z" fill="#23294A"/>
<path fill-rule="evenodd" clip-rule="evenodd" d="M11.542 5.64893C11.4005 5.66664 11.2624 5.59772 11.1914 5.47397C10.9058 4.97581 10.8979 4.26133 11.2249 3.60597C11.552 2.95061 12.1276 2.52731 12.6974 2.45602C12.8389 2.43831 12.9771 2.50723 13.048 2.63098C13.3336 3.12913 13.3415 3.84362 13.0145 4.49898C12.6875 5.15434 12.1118 5.57764 11.542 5.64893Z" fill="#23294A"/>
</svg>
