<svg width="24" height="24" viewBox="0 0 24 24" fill="none" xmlns="http://www.w3.org/2000/svg">
<path d="M20.1259 9.47252C20.2224 9.62845 20.1289 9.82382 19.952 9.87207L16.2649 10.8776C15.0753 11.2021 14.25 12.2826 14.25 13.5156C14.25 14.1974 13.6974 14.75 13.0156 14.75H10.9844C10.3026 14.75 9.75 14.1974 9.75 13.5156C9.75 12.2826 8.92471 11.2021 7.7351 10.8776L4.04803 9.87207C3.87111 9.82382 3.77762 9.62845 3.87412 9.47252C3.89888 9.4325 3.92482 9.39311 3.95192 9.3544L6.25356 6.06634C6.72138 5.39803 7.48585 5 8.30164 5H15.6984C16.5141 5 17.2786 5.39803 17.7464 6.06635L20.0481 9.3544C20.0752 9.39311 20.1011 9.4325 20.1259 9.47252Z" fill="#23294A"/>
<path d="M20.5 11.6702C20.5 11.4724 20.3119 11.3287 20.1211 11.3807L16.6596 12.3248C16.1226 12.4712 15.75 12.959 15.75 13.5156C15.75 15.0258 14.5258 16.25 13.0156 16.25H10.9844C9.47421 16.25 8.25 15.0258 8.25 13.5156C8.25 12.959 7.87744 12.4712 7.34042 12.3248L3.87894 11.3807C3.68809 11.3287 3.5 11.4724 3.5 11.6702V16.5C3.5 18.433 5.067 20 7 20H17C18.933 20 20.5 18.433 20.5 16.5V11.6702Z" fill="#23294A"/>
</svg>
