<svg width="24" height="24" viewBox="0 0 24 24" fill="none" xmlns="http://www.w3.org/2000/svg">
<path fill-rule="evenodd" clip-rule="evenodd" d="M12 21C16.9706 21 21 16.9706 21 12C21 7.02944 16.9706 3 12 3C7.02944 3 3 7.02944 3 12C3 16.9706 7.02944 21 12 21ZM13.5303 9.53033C13.8232 9.23744 13.8232 8.76256 13.5303 8.46967C13.2374 8.17678 12.7626 8.17678 12.4697 8.46967L10.1768 10.7626C9.49336 11.446 9.49336 12.554 10.1768 13.2374L12.4697 15.5303C12.7626 15.8232 13.2374 15.8232 13.5303 15.5303C13.8232 15.2374 13.8232 14.7626 13.5303 14.4697L11.2374 12.1768C11.1398 12.0791 11.1398 11.9209 11.2374 11.8232L13.5303 9.53033Z" fill="#23294A"/>
</svg>
