<svg width="24" height="24" viewBox="0 0 24 24" fill="none" xmlns="http://www.w3.org/2000/svg">
<path fill-rule="evenodd" clip-rule="evenodd" d="M3 8C3 5.23858 5.23858 3 8 3H16C18.7614 3 21 5.23858 21 8V16C21 18.7614 18.7614 21 16 21H8C5.23858 21 3 18.7614 3 16V8ZM7.25 12C7.25 11.5858 7.58579 11.25 8 11.25L14.1893 11.25L12.4697 9.53033C12.1768 9.23744 12.1768 8.76256 12.4697 8.46967C12.7626 8.17678 13.2374 8.17678 13.5303 8.46967L16.1768 11.1161C16.6649 11.6043 16.6649 12.3957 16.1768 12.8839L13.5303 15.5303C13.2374 15.8232 12.7626 15.8232 12.4697 15.5303C12.1768 15.2374 12.1768 14.7626 12.4697 14.4697L14.1893 12.75L8 12.75C7.58579 12.75 7.25 12.4142 7.25 12Z" fill="#23294A"/>
</svg>
