<svg width="24" height="24" viewBox="0 0 24 24" fill="none" xmlns="http://www.w3.org/2000/svg">
<path fill-rule="evenodd" clip-rule="evenodd" d="M4.25 12C4.25 11.5858 4.58579 11.25 5 11.25L17 11.25C17.4142 11.25 17.75 11.5858 17.75 12C17.75 12.4142 17.4142 12.75 17 12.75L5 12.75C4.58579 12.75 4.25 12.4142 4.25 12Z" fill="#23294A"/>
<path fill-rule="evenodd" clip-rule="evenodd" d="M13.4697 7.46967C13.7626 7.17678 14.2374 7.17678 14.5303 7.46967L18.1768 11.1161C18.6649 11.6043 18.6649 12.3957 18.1768 12.8839L14.5303 16.5303C14.2374 16.8232 13.7626 16.8232 13.4697 16.5303C13.1768 16.2374 13.1768 15.7626 13.4697 15.4697L16.9393 12L13.4697 8.53033C13.1768 8.23744 13.1768 7.76256 13.4697 7.46967Z" fill="#23294A"/>
</svg>
