<svg width="24" height="24" viewBox="0 0 24 24" fill="none" xmlns="http://www.w3.org/2000/svg">
<path fill-rule="evenodd" clip-rule="evenodd" d="M3 8C3 5.23858 5.23858 3 8 3H16C18.7614 3 21 5.23858 21 8V16C21 18.7614 18.7614 21 16 21H8C5.23858 21 3 18.7614 3 16V8ZM11.5303 15.5303C11.2374 15.8232 10.7626 15.8232 10.4697 15.5303L7.82322 12.8839C7.33507 12.3957 7.33507 11.6043 7.82322 11.1161L10.4697 8.46967C10.7626 8.17678 11.2374 8.17678 11.5303 8.46967C11.8232 8.76256 11.8232 9.23744 11.5303 9.53033L9.06066 12L11.5303 14.4697C11.8232 14.7626 11.8232 15.2374 11.5303 15.5303ZM14.4697 15.5303C14.7626 15.8232 15.2374 15.8232 15.5303 15.5303C15.8232 15.2374 15.8232 14.7626 15.5303 14.4697L13.0607 12L15.5303 9.53033C15.8232 9.23744 15.8232 8.76256 15.5303 8.46967C15.2374 8.17678 14.7626 8.17678 14.4697 8.46967L11.8232 11.1161C11.3351 11.6043 11.3351 12.3957 11.8232 12.8839L14.4697 15.5303Z" fill="#23294A"/>
</svg>
