<svg width="24" height="24" viewBox="0 0 24 24" fill="none" xmlns="http://www.w3.org/2000/svg">
<path fill-rule="evenodd" clip-rule="evenodd" d="M7.46967 9.53033C7.17678 9.23744 7.17678 8.76256 7.46967 8.46967L11.1161 4.82322C11.6043 4.33507 12.3957 4.33507 12.8839 4.82322L16.5303 8.46967C16.8232 8.76256 16.8232 9.23744 16.5303 9.53033C16.2374 9.82322 15.7626 9.82322 15.4697 9.53033L12 6.06066L8.53033 9.53033C8.23744 9.82322 7.76256 9.82322 7.46967 9.53033Z" fill="#23294A"/>
<path fill-rule="evenodd" clip-rule="evenodd" d="M12 5.25C12.4142 5.25 12.75 5.58579 12.75 6V18C12.75 18.4142 12.4142 18.75 12 18.75C11.5858 18.75 11.25 18.4142 11.25 18V6C11.25 5.58579 11.5858 5.25 12 5.25Z" fill="#23294A"/>
</svg>
