<svg width="24" height="24" viewBox="0 0 24 24" fill="none" xmlns="http://www.w3.org/2000/svg">
<path fill-rule="evenodd" clip-rule="evenodd" d="M3 8C3 5.23858 5.23858 3 8 3H16C18.7614 3 21 5.23858 21 8V16C21 18.7614 18.7614 21 16 21H8C5.23858 21 3 18.7614 3 16V8ZM8.46967 15.5303C8.17678 15.2374 8.17678 14.7626 8.46967 14.4697L11.1161 11.8232C11.6043 11.3351 12.3957 11.3351 12.8839 11.8232L15.5303 14.4697C15.8232 14.7626 15.8232 15.2374 15.5303 15.5303C15.2374 15.8232 14.7626 15.8232 14.4697 15.5303L12 13.0607L9.53033 15.5303C9.23744 15.8232 8.76256 15.8232 8.46967 15.5303ZM8.46967 10.4697C8.17678 10.7626 8.17678 11.2374 8.46967 11.5303C8.76256 11.8232 9.23744 11.8232 9.53033 11.5303L12 9.06066L14.4697 11.5303C14.7626 11.8232 15.2374 11.8232 15.5303 11.5303C15.8232 11.2374 15.8232 10.7626 15.5303 10.4697L12.8839 7.82322C12.3957 7.33507 11.6043 7.33507 11.1161 7.82322L8.46967 10.4697Z" fill="#23294A"/>
</svg>
