<svg width="24" height="24" viewBox="0 0 24 24" fill="none" xmlns="http://www.w3.org/2000/svg">
<path fill-rule="evenodd" clip-rule="evenodd" d="M16 17.75C15.5858 17.75 15.25 17.4142 15.25 17L15.25 6C15.25 5.58579 15.5858 5.25 16 5.25C16.4142 5.25 16.75 5.58579 16.75 6L16.75 17C16.75 17.4142 16.4142 17.75 16 17.75Z" fill="#23294A"/>
<path fill-rule="evenodd" clip-rule="evenodd" d="M8 18.75C7.58579 18.75 7.25 18.4142 7.25 18L7.25 7C7.25 6.58579 7.58579 6.25 8 6.25C8.41421 6.25 8.75 6.58579 8.75 7L8.75 18C8.75 18.4142 8.41421 18.75 8 18.75Z" fill="#23294A"/>
<path fill-rule="evenodd" clip-rule="evenodd" d="M11.5303 15.4697C11.8232 15.7626 11.8232 16.2374 11.5303 16.5303L8.88388 19.1768C8.39573 19.6649 7.60427 19.6649 7.11612 19.1768L4.46967 16.5303C4.17678 16.2374 4.17678 15.7626 4.46967 15.4697C4.76256 15.1768 5.23744 15.1768 5.53033 15.4697L8 17.9393L10.4697 15.4697C10.7626 15.1768 11.2374 15.1768 11.5303 15.4697Z" fill="#23294A"/>
<path fill-rule="evenodd" clip-rule="evenodd" d="M12.4697 8.53033C12.1768 8.23744 12.1768 7.76256 12.4697 7.46967L15.1161 4.82322C15.6043 4.33507 16.3957 4.33507 16.8839 4.82322L19.5303 7.46967C19.8232 7.76256 19.8232 8.23744 19.5303 8.53033C19.2374 8.82322 18.7626 8.82322 18.4697 8.53033L16 6.06066L13.5303 8.53033C13.2374 8.82322 12.7626 8.82322 12.4697 8.53033Z" fill="#23294A"/>
</svg>
