<svg width="24" height="24" viewBox="0 0 24 24" fill="none" xmlns="http://www.w3.org/2000/svg">
<path d="M20.8412 10.308C20.864 10.4278 20.809 10.5487 20.7041 10.6109C19.3639 11.4054 17.7909 11.984 16.1085 12.3395C15.9273 12.3778 15.7573 12.2408 15.7567 12.0556C15.7487 9.69727 16.2536 7.33759 17.2716 5.14863C17.351 4.97773 17.5682 4.92624 17.7137 5.04597C19.306 6.35579 20.4406 8.20185 20.8412 10.308Z" fill="#23294A"/>
<path d="M20.9746 12.6813C20.9918 12.4522 20.7479 12.3022 20.5421 12.4042C19.1963 13.0716 17.7033 13.5562 16.1467 13.8625C15.9913 13.893 15.884 14.0376 15.9054 14.1945C16.1227 15.7898 16.5781 17.3602 17.2716 18.8514C17.3511 19.0223 17.5682 19.0738 17.7137 18.954C19.5562 17.4384 20.7858 15.2049 20.9746 12.6813Z" fill="#23294A"/>
<path d="M13.9913 12.6637C14.1475 12.6484 14.2633 12.5135 14.2602 12.3566C14.2032 9.51846 14.8266 6.66974 16.1305 4.06196C16.1438 4.03541 16.1334 4.00311 16.107 3.98955C14.8757 3.357 13.4795 3 12 3C10.7661 3 9.59012 3.24833 8.51941 3.69775C8.36605 3.76213 8.30053 3.94179 8.37087 4.09252L8.52413 4.42094C9.69992 6.94049 10.2547 9.67132 10.1833 12.3929C10.1791 12.5531 10.299 12.6905 10.4588 12.7025C10.9695 12.7409 11.4842 12.7602 12 12.7602C12.6677 12.7602 13.3337 12.7279 13.9913 12.6637Z" fill="#23294A"/>
<path d="M10.0078 14.4598C10.0308 14.3002 10.1738 14.1852 10.3345 14.1973C10.8885 14.2393 11.4448 14.2602 12 14.2602C12.6972 14.2602 13.3961 14.2272 14.0898 14.161C14.2534 14.1454 14.4005 14.2621 14.4229 14.425C14.6842 16.3206 15.2534 18.1839 16.1305 19.938C16.1438 19.9646 16.1334 19.9969 16.107 20.0104C14.8757 20.643 13.4795 21 12 21C10.759 21 9.57669 20.7488 8.50107 20.2945C8.35287 20.2319 8.28609 20.0608 8.34734 19.9121L8.85241 18.6855C9.41569 17.3175 9.80058 15.8979 10.0078 14.4598Z" fill="#23294A"/>
<path d="M8.6879 12.1463C8.68546 12.3276 8.52094 12.462 8.34274 12.429C6.49067 12.0852 4.75535 11.476 3.29601 10.611C3.19106 10.5487 3.13605 10.4278 3.15885 10.3079C3.58905 8.04645 4.86547 6.0848 6.64617 4.76493C6.7948 4.65476 7.00492 4.71255 7.08316 4.8802L7.16485 5.05527C8.21144 7.29795 8.72055 9.72348 8.6879 12.1463Z" fill="#23294A"/>
<path d="M8.27168 13.9402C8.43118 13.9682 8.54218 14.1159 8.51878 14.2761C8.32801 15.5823 7.97711 16.8716 7.4654 18.1143L7.06385 19.0895C6.9912 19.266 6.77426 19.3308 6.62135 19.2166C4.59379 17.703 3.22557 15.355 3.02545 12.6813C3.0083 12.4523 3.25217 12.3022 3.45795 12.4042C4.92387 13.1312 6.56446 13.6412 8.27168 13.9402Z" fill="#23294A"/>
</svg>
