<svg width="24" height="24" viewBox="0 0 24 24" fill="none" xmlns="http://www.w3.org/2000/svg">
<path fill-rule="evenodd" clip-rule="evenodd" d="M3.96601 8.41226C3.87788 8.34221 3.82765 8.22317 3.87622 8.12161C4.76427 6.26483 6.27015 4.76001 8.1277 3.87332C8.20315 3.8373 8.29293 3.85359 8.35204 3.9127L9.7019 5.26256C10.9711 6.53177 13.0289 6.53177 14.2981 5.26256L15.648 3.9127C15.7071 3.85359 15.7969 3.8373 15.8723 3.87331C17.7319 4.76098 19.239 6.26812 20.1267 8.1277C20.1627 8.20315 20.1464 8.29293 20.0873 8.35204L18.0303 10.409C17.1517 11.2877 17.1516 12.7123 18.0303 13.591L20.0873 15.648C20.1464 15.7071 20.1627 15.7968 20.1267 15.8723C19.2912 17.6225 17.907 19.0606 16.1966 19.9637C16.1287 19.9996 16.0464 19.9805 15.9881 19.9306L14.1151 18.3251C12.898 17.2819 11.102 17.2819 9.88493 18.3251L8.01191 19.9306C7.95365 19.9805 7.87126 19.9996 7.8034 19.9637C6.09502 19.0616 4.712 17.6259 3.87623 15.8784C3.82765 15.7768 3.87788 15.6578 3.96601 15.5877C3.98827 15.5701 4.00975 15.5509 4.03033 15.5303L5.96967 13.591C6.84835 12.7123 6.84835 11.2877 5.96967 10.409L4.03033 8.46967C4.00975 8.44909 3.98827 8.42995 3.96601 8.41226ZM12.9603 9.30023L14.3997 10.4998C14.7646 10.8039 14.9158 11.2946 14.7853 11.7513L14.2487 13.6297C14.1015 14.1448 13.6306 14.5 13.0948 14.5H10.9052C10.3694 14.5 9.89852 14.1448 9.75133 13.6297L9.21466 11.7513C9.08417 11.2946 9.23536 10.8039 9.60027 10.4998L11.0397 9.30023C11.596 8.83667 12.404 8.83667 12.9603 9.30023Z" fill="#23294A"/>
<path d="M3.51482 10.0755C3.40478 9.96544 3.21758 10.0179 3.18611 10.1703C3.0641 10.7611 3 11.3731 3 12C3 12.6269 3.0641 13.2389 3.18611 13.8297C3.21758 13.9821 3.40478 14.0346 3.51482 13.9245L4.90901 12.5303C5.2019 12.2374 5.2019 11.7626 4.90901 11.4697L3.51482 10.0755Z" fill="#23294A"/>
<path d="M19.091 11.4697L20.4852 10.0755C20.5952 9.96544 20.7824 10.0179 20.8139 10.1703C20.9359 10.7611 21 11.3731 21 12C21 12.6269 20.9359 13.2389 20.8139 13.8297C20.7824 13.9821 20.5952 14.0346 20.4852 13.9245L19.091 12.5303C18.7981 12.2374 18.7981 11.7626 19.091 11.4697Z" fill="#23294A"/>
<path d="M9.76552 20.4031C9.64483 20.5065 9.68756 20.7016 9.84192 20.7396C10.5333 20.9097 11.2561 21 12 21C12.7439 21 13.4667 20.9097 14.1581 20.7396C14.3124 20.7016 14.3552 20.5065 14.2345 20.4031L13.1389 19.464C12.4835 18.9023 11.5165 18.9023 10.8611 19.464L9.76552 20.4031Z" fill="#23294A"/>
<path d="M12 3C12.6269 3 13.2389 3.0641 13.8297 3.18611C13.9821 3.21758 14.0346 3.40478 13.9245 3.51482L13.2374 4.2019C12.554 4.88532 11.446 4.88532 10.7626 4.2019L10.0755 3.51482C9.96544 3.40478 10.0179 3.21758 10.1703 3.18611C10.7611 3.0641 11.3731 3 12 3Z" fill="#23294A"/>
</svg>
