<svg width="24" height="24" viewBox="0 0 24 24" fill="none" xmlns="http://www.w3.org/2000/svg">
<path fill-rule="evenodd" clip-rule="evenodd" d="M15.5 7H7.5C5.567 7 4 8.567 4 10.5V13.5C4 15.433 5.567 17 7.5 17H15.5C17.433 17 19 15.433 19 13.5V10.5C19 8.567 17.433 7 15.5 7ZM13.2428 10.4801C13.508 10.1619 13.465 9.68901 13.1468 9.42383C12.8286 9.15866 12.3557 9.20165 12.0905 9.51986L11.0247 10.7988C10.5218 11.4023 10.7449 12.2495 11.3448 12.5946L10.4697 13.4697C10.1768 13.7626 10.1768 14.2374 10.4697 14.5303C10.7626 14.8232 11.2374 14.8232 11.5303 14.5303L12.7798 13.2808C13.3836 12.6771 13.1565 11.7282 12.4913 11.382L13.2428 10.4801Z" fill="#23294A"/>
<path fill-rule="evenodd" clip-rule="evenodd" d="M21 9.25C21.4142 9.25 21.75 9.58579 21.75 10L21.75 14C21.75 14.4142 21.4142 14.75 21 14.75C20.5858 14.75 20.25 14.4142 20.25 14L20.25 10C20.25 9.58579 20.5858 9.25 21 9.25Z" fill="#23294A"/>
</svg>
