<svg width="24" height="24" viewBox="0 0 24 24" fill="none" xmlns="http://www.w3.org/2000/svg">
<path fill-rule="evenodd" clip-rule="evenodd" d="M21 9.25C21.4142 9.25 21.75 9.58579 21.75 10L21.75 14C21.75 14.4142 21.4142 14.75 21 14.75C20.5858 14.75 20.25 14.4142 20.25 14L20.25 10C20.25 9.58579 20.5858 9.25 21 9.25Z" fill="#23294A"/>
<path fill-rule="evenodd" clip-rule="evenodd" d="M15.5 7H7.5C5.567 7 4 8.567 4 10.5V13.5C4 15.433 5.567 17 7.5 17H15.5C17.433 17 19 15.433 19 13.5V10.5C19 8.567 17.433 7 15.5 7ZM7.75 10C7.75 9.58579 7.41421 9.25 7 9.25C6.58579 9.25 6.25 9.58579 6.25 10V14C6.25 14.4142 6.58579 14.75 7 14.75C7.41421 14.75 7.75 14.4142 7.75 14V10ZM10 9.25C10.4142 9.25 10.75 9.58579 10.75 10V14C10.75 14.4142 10.4142 14.75 10 14.75C9.58579 14.75 9.25 14.4142 9.25 14V10C9.25 9.58579 9.58579 9.25 10 9.25ZM13.75 10C13.75 9.58579 13.4142 9.25 13 9.25C12.5858 9.25 12.25 9.58579 12.25 10V14C12.25 14.4142 12.5858 14.75 13 14.75C13.4142 14.75 13.75 14.4142 13.75 14V10Z" fill="#23294A"/>
</svg>
