<svg width="24" height="24" viewBox="0 0 24 24" fill="none" xmlns="http://www.w3.org/2000/svg">
<path d="M16.2526 12.7322L15.4639 13.903C14.8356 14.8356 14.5 15.9345 14.5 17.059C14.5 17.579 14.0785 18.0005 13.5585 18.0005L12.95 18.0005C12.8395 18.0005 12.75 17.9109 12.75 17.8005V11.7505H13.5C13.9142 11.7505 14.25 11.4147 14.25 11.0005C14.25 10.5863 13.9142 10.2505 13.5 10.2505H12.75V10.0005C12.75 9.58627 12.4142 9.25049 12 9.25049C11.5858 9.25049 11.25 9.58627 11.25 10.0005V10.2505H10.5C10.0858 10.2505 9.74999 10.5863 9.74999 11.0005C9.74999 11.4147 10.0858 11.7505 10.5 11.7505H11.25V17.8005C11.25 17.9109 11.1605 18.0005 11.05 18.0005L10.4489 18.0005C9.92484 18.0005 9.49999 17.5756 9.49999 17.0516C9.49999 15.9145 9.15956 14.8036 8.52254 13.8617L7.75732 12.7304C6.21701 10.453 6.74936 7.36585 8.96342 5.73593C10.7695 4.40635 13.2319 4.40738 15.038 5.73696C17.2514 7.36641 17.7881 10.4527 16.2526 12.7322Z" fill="#23294A"/>
<path fill-rule="evenodd" clip-rule="evenodd" d="M9.75 20C9.75 19.5858 10.0858 19.25 10.5 19.25H13.5C13.9142 19.25 14.25 19.5858 14.25 20C14.25 20.4142 13.9142 20.75 13.5 20.75H10.5C10.0858 20.75 9.75 20.4142 9.75 20Z" fill="#23294A"/>
</svg>
