<svg width="24" height="24" viewBox="0 0 24 24" fill="none" xmlns="http://www.w3.org/2000/svg">
<path fill-rule="evenodd" clip-rule="evenodd" d="M15.5 3H8.5C6.567 3 5 4.567 5 6.5V17.9669C5 19.4028 6.4681 20.3708 7.78784 19.8052L10.8182 18.5065C11.5729 18.183 12.4271 18.183 13.1818 18.5065L16.2122 19.8052C17.5319 20.3708 19 19.4028 19 17.9669V6.5C19 4.567 17.433 3 15.5 3ZM14.5303 9.53033C14.8232 9.23744 14.8232 8.76256 14.5303 8.46967C14.2374 8.17678 13.7626 8.17678 13.4697 8.46967L11 10.9393L10.5303 10.4697C10.2374 10.1768 9.76256 10.1768 9.46967 10.4697C9.17678 10.7626 9.17678 11.2374 9.46967 11.5303L10.399 12.4596C10.7309 12.7916 11.2691 12.7916 11.601 12.4596L14.5303 9.53033Z" fill="#23294A"/>
</svg>
