<svg width="24" height="24" viewBox="0 0 24 24" fill="none" xmlns="http://www.w3.org/2000/svg">
<path fill-rule="evenodd" clip-rule="evenodd" d="M8.5 3H15.5C17.433 3 19 4.567 19 6.5V17.9669C19 19.4028 17.5319 20.3708 16.2122 19.8052L13.1818 18.5065C12.4271 18.183 11.5729 18.183 10.8182 18.5065L7.78784 19.8052C6.4681 20.3708 5 19.4028 5 17.9669V6.5C5 4.567 6.567 3 8.5 3ZM14.5303 8.46967C14.8232 8.76256 14.8232 9.23744 14.5303 9.53033L13.0607 11L14.5303 12.4697C14.8232 12.7626 14.8232 13.2374 14.5303 13.5303C14.2374 13.8232 13.7626 13.8232 13.4697 13.5303L12 12.0607L10.5303 13.5303C10.2374 13.8232 9.76256 13.8232 9.46967 13.5303C9.17678 13.2374 9.17678 12.7626 9.46967 12.4697L10.9393 11L9.46967 9.53033C9.17678 9.23744 9.17678 8.76256 9.46967 8.46967C9.76256 8.17678 10.2374 8.17678 10.5303 8.46967L12 9.93934L13.4697 8.46967C13.7626 8.17678 14.2374 8.17678 14.5303 8.46967Z" fill="#23294A"/>
</svg>
