<svg width="24" height="24" viewBox="0 0 24 24" fill="none" xmlns="http://www.w3.org/2000/svg">
<path d="M7.25883 7H16.7972C17.9778 7 18.9016 8.01742 18.7879 9.19261L18.6632 10.4815C18.4152 13.0445 16.2613 15 13.6864 15H10.4031C7.87581 15 5.7459 13.1141 5.43986 10.6055L5.27355 9.24219C5.12815 8.05041 6.0582 7 7.25883 7Z" fill="#23294A"/>
<path fill-rule="evenodd" clip-rule="evenodd" d="M3.27239 4.81828C3.37285 4.41643 3.78005 4.17211 4.1819 4.27257L4.64797 4.38909C5.85211 4.69013 6.819 5.58549 7.21151 6.76301C7.34249 7.15596 7.13012 7.5807 6.73717 7.71169C6.34421 7.84268 5.91947 7.63031 5.78848 7.23735C5.55816 6.54637 4.99077 6.02095 4.28416 5.8443L3.81809 5.72778C3.41625 5.62732 3.17193 5.22012 3.27239 4.81828Z" fill="#23294A"/>
<path d="M17 17.5C17 18.3284 16.3284 19 15.5 19C14.6716 19 14 18.3284 14 17.5C14 16.6716 14.6716 16 15.5 16C16.3284 16 17 16.6716 17 17.5Z" fill="#23294A"/>
<path d="M10 17.5C10 18.3284 9.32843 19 8.5 19C7.67157 19 7 18.3284 7 17.5C7 16.6716 7.67157 16 8.5 16C9.32843 16 10 16.6716 10 17.5Z" fill="#23294A"/>
</svg>
