<svg width="24" height="24" viewBox="0 0 24 24" fill="none" xmlns="http://www.w3.org/2000/svg">
<path fill-rule="evenodd" clip-rule="evenodd" d="M3 8C3 5.23858 5.23858 3 8 3H16C16.902 3 17.7482 3.23885 18.4789 3.65676C18.7444 3.80862 18.7708 4.16853 18.5545 4.38481L4.38481 18.5545C4.16853 18.7708 3.80862 18.7444 3.65676 18.4789C3.23885 17.7482 3 16.902 3 16V8ZM5.25 8C5.25 7.58579 5.58579 7.25 6 7.25H7.25V6C7.25 5.58579 7.58579 5.25 8 5.25C8.41421 5.25 8.75 5.58579 8.75 6V7.25H10C10.4142 7.25 10.75 7.58579 10.75 8C10.75 8.41421 10.4142 8.75 10 8.75H8.75V10C8.75 10.4142 8.41421 10.75 8 10.75C7.58579 10.75 7.25 10.4142 7.25 10V8.75H6C5.58579 8.75 5.25 8.41421 5.25 8Z" fill="#23294A"/>
<path fill-rule="evenodd" clip-rule="evenodd" d="M5.52112 20.3432C5.25562 20.1914 5.22919 19.8315 5.44547 19.6152L19.6152 5.44547C19.8315 5.22919 20.1914 5.25562 20.3432 5.52112C20.7611 6.25176 21 7.09799 21 8V16C21 18.7614 18.7614 21 16 21H8C7.09799 21 6.25176 20.7611 5.52112 20.3432ZM14.5 15.25C14.0858 15.25 13.75 15.5858 13.75 16C13.75 16.4142 14.0858 16.75 14.5 16.75H18C18.4142 16.75 18.75 16.4142 18.75 16C18.75 15.5858 18.4142 15.25 18 15.25H14.5Z" fill="#23294A"/>
</svg>
