<svg width="24" height="24" viewBox="0 0 24 24" fill="none" xmlns="http://www.w3.org/2000/svg">
<path d="M16.6137 14.6917L18.8807 16.0518C19.7532 16.5754 20.0361 17.7071 19.5126 18.5796L19.481 18.6323C19.1411 19.1988 18.6467 19.6567 18.0557 19.9522L17.7175 20.1213C17.2276 20.3662 16.6688 20.4363 16.1336 20.32L15.8683 20.2623C9.61896 18.9038 4.88557 13.7832 4.02147 7.44655C3.98122 7.15141 3.99766 6.85129 4.06991 6.5623L4.1268 6.33476C4.34155 5.47574 4.86877 4.72761 5.60551 4.23645L5.76066 4.13302C6.69357 3.51108 7.95543 3.77744 8.55739 4.72337L10.0992 7.14624C10.6025 7.93709 10.4889 8.97137 9.8261 9.63421L9.16922 10.2911C9.04319 10.4171 9.00658 10.6072 9.0768 10.771L9.23341 11.1364C10.0258 12.9853 11.4478 14.4934 13.2469 15.3929C13.3778 15.4584 13.5345 15.4443 13.6517 15.3564L14.3847 14.8066C15.0352 14.3187 15.9164 14.2733 16.6137 14.6917Z" fill="#23294A"/>
<path fill-rule="evenodd" clip-rule="evenodd" d="M12.2724 5.81828C12.3728 5.41643 12.78 5.17211 13.1819 5.27257C15.9127 5.95527 18.0449 8.08748 18.7276 10.8183C18.8281 11.2201 18.5837 11.6273 18.1819 11.7278C17.78 11.8282 17.3728 11.5839 17.2724 11.1821C16.724 8.98871 15.0115 7.27613 12.8181 6.72778C12.4162 6.62732 12.1719 6.22012 12.2724 5.81828Z" fill="#23294A"/>
<path fill-rule="evenodd" clip-rule="evenodd" d="M14.2724 3.81828C14.3728 3.41643 14.78 3.17211 15.1819 3.27257C17.9127 3.95527 20.0449 6.08748 20.7276 8.81828C20.8281 9.22012 20.5837 9.62732 20.1819 9.72778C19.78 9.82825 19.3728 9.58393 19.2724 9.18208C18.724 6.98871 17.0115 5.27613 14.8181 4.72778C14.4162 4.62732 14.1719 4.22012 14.2724 3.81828Z" fill="#23294A"/>
</svg>
