<svg width="24" height="24" viewBox="0 0 24 24" fill="none" xmlns="http://www.w3.org/2000/svg">
<path d="M17.1528 14.6917L19.4197 16.0518C20.2923 16.5754 20.5752 17.7071 20.0517 18.5796L20.0201 18.6323C19.6802 19.1988 19.1857 19.6567 18.5948 19.9522L18.2565 20.1213C17.7667 20.3662 17.2078 20.4363 16.6726 20.32L16.4074 20.2623C10.158 18.9038 5.42463 13.7832 4.56053 7.44655C4.52029 7.15141 4.53673 6.85129 4.60897 6.5623L4.66586 6.33476C4.88061 5.47574 5.40783 4.72761 6.14457 4.23645L6.29972 4.13302C7.23264 3.51108 8.49449 3.77744 9.09645 4.72337L10.6383 7.14624C11.1415 7.93709 11.028 8.97137 10.3652 9.63421L9.70828 10.2911C9.58225 10.4171 9.54565 10.6072 9.61586 10.771L9.77247 11.1364C10.5648 12.9853 11.9868 14.4934 13.7859 15.3929C13.9169 15.4584 14.0736 15.4443 14.1907 15.3564L14.9238 14.8066C15.5743 14.3187 16.4555 14.2733 17.1528 14.6917Z" fill="#23294A"/>
<path fill-rule="evenodd" clip-rule="evenodd" d="M18.5303 5.96967C18.8232 6.26256 18.8232 6.73744 18.5303 7.03033L15.5303 10.0303C15.2374 10.3232 14.7626 10.3232 14.4697 10.0303C14.1768 9.73744 14.1768 9.26256 14.4697 8.96967L17.4697 5.96967C17.7626 5.67678 18.2374 5.67678 18.5303 5.96967Z" fill="#23294A"/>
<path fill-rule="evenodd" clip-rule="evenodd" d="M14.4697 5.96967C14.7626 5.67678 15.2374 5.67678 15.5303 5.96967L18.5303 8.96967C18.8232 9.26256 18.8232 9.73744 18.5303 10.0303C18.2374 10.3232 17.7626 10.3232 17.4697 10.0303L14.4697 7.03033C14.1768 6.73744 14.1768 6.26256 14.4697 5.96967Z" fill="#23294A"/>
</svg>
