<svg width="24" height="24" viewBox="0 0 24 24" fill="none" xmlns="http://www.w3.org/2000/svg">
<path fill-rule="evenodd" clip-rule="evenodd" d="M7.25 4C7.25 3.58579 7.58579 3.25 8 3.25H17C17.4142 3.25 17.75 3.58579 17.75 4C17.75 4.41421 17.4142 4.75 17 4.75H8C7.58579 4.75 7.25 4.41421 7.25 4Z" fill="#23294A"/>
<path fill-rule="evenodd" clip-rule="evenodd" d="M6.7 6H17.3C19.3435 6 21 7.65655 21 9.7V16.3C21 18.3435 19.3435 20 17.3 20H6.7C4.65655 20 3 18.3435 3 16.3V9.7C3 7.65655 4.65655 6 6.7 6ZM10 13C10 14.1046 9.10457 15 8 15C6.89543 15 6 14.1046 6 13C6 11.8954 6.89543 11 8 11C9.10457 11 10 11.8954 10 13ZM15 8.25C14.5858 8.25 14.25 8.58579 14.25 9C14.25 9.41421 14.5858 9.75 15 9.75H17C17.4142 9.75 17.75 9.41421 17.75 9C17.75 8.58579 17.4142 8.25 17 8.25H15Z" fill="#23294A"/>
</svg>
