<svg width="24" height="24" viewBox="0 0 24 24" fill="none" xmlns="http://www.w3.org/2000/svg">
<path fill-rule="evenodd" clip-rule="evenodd" d="M21 15.8C21 18.1196 19.1196 20 16.8 20H7.2C4.8804 20 3 18.1196 3 15.8V10.215C3 8.67456 4.10072 7.35412 5.61601 7.07681L5.67332 7.06632C6.49399 6.91613 7.17174 6.33863 7.45026 5.55219C7.77977 4.62183 8.65968 4 9.64667 4H14.3533C15.3403 4 16.2202 4.62183 16.5497 5.55219C16.8283 6.33863 17.506 6.91613 18.3267 7.06632L18.384 7.07681C19.8993 7.35412 21 8.67456 21 10.215V15.8ZM12 16C13.6569 16 15 14.6569 15 13C15 11.3431 13.6569 10 12 10C10.3431 10 9 11.3431 9 13C9 14.6569 10.3431 16 12 16Z" fill="#23294A"/>
</svg>
