<svg width="24" height="24" viewBox="0 0 24 24" fill="none" xmlns="http://www.w3.org/2000/svg">
<path d="M8.5 4H6C4.89543 4 4 4.89543 4 6V8.5C4 9.60457 4.89543 10.5 6 10.5H8.5C9.60457 10.5 10.5 9.60457 10.5 8.5V6C10.5 4.89543 9.60457 4 8.5 4Z" fill="#23294A"/>
<path d="M8.5 14H6C4.89543 14 4 14.8954 4 16V18.5C4 19.6046 4.89543 20.5 6 20.5H8.5C9.60457 20.5 10.5 19.6046 10.5 18.5V16C10.5 14.8954 9.60457 14 8.5 14Z" fill="#23294A"/>
<path d="M18.5 4H16C14.8954 4 14 4.89543 14 6V8.5C14 9.60457 14.8954 10.5 16 10.5H18.5C19.6046 10.5 20.5 9.60457 20.5 8.5V6C20.5 4.89543 19.6046 4 18.5 4Z" fill="#23294A"/>
<path d="M18.5 14H16C14.8954 14 14 14.8954 14 16V18.5C14 19.6046 14.8954 20.5 16 20.5H18.5C19.6046 20.5 20.5 19.6046 20.5 18.5V16C20.5 14.8954 19.6046 14 18.5 14Z" fill="#23294A"/>
</svg>
