<svg width="24" height="24" viewBox="0 0 24 24" fill="none" xmlns="http://www.w3.org/2000/svg">
<path fill-rule="evenodd" clip-rule="evenodd" d="M3 8C3 5.23858 5.23858 3 8 3H16C18.7614 3 21 5.23858 21 8V16C21 18.7614 18.7614 21 16 21H8C5.23858 21 3 18.7614 3 16V8ZM9.20654 7.17437C9.82856 6.67675 10.75 7.11961 10.75 7.9162V15.0001C10.75 15.4143 10.4142 15.7501 10 15.7501C9.58579 15.7501 9.25 15.4143 9.25 15.0001V9.06054L7.96852 10.0857C7.64507 10.3445 7.17311 10.292 6.91435 9.96859C6.65559 9.64515 6.70803 9.17318 7.03148 8.91442L9.20654 7.17437ZM14.75 9C14.75 8.58579 14.4142 8.25 14 8.25C13.5858 8.25 13.25 8.58579 13.25 9V16.0839C13.25 16.8805 14.1714 17.3233 14.7935 16.8257L16.9685 15.0857C17.292 14.8269 17.3444 14.3549 17.0857 14.0315C16.8269 13.708 16.3549 13.6556 16.0315 13.9143L14.75 14.9395V9Z" fill="#23294A"/>
</svg>
