<svg width="24" height="24" viewBox="0 0 24 24" fill="none" xmlns="http://www.w3.org/2000/svg">
<path fill-rule="evenodd" clip-rule="evenodd" d="M8 3C5.23858 3 3 5.23858 3 8V16C3 18.7614 5.23858 21 8 21H16C18.7614 21 21 18.7614 21 16V8C21 5.23858 18.7614 3 16 3H8ZM8.75 10.5C8.75 10.0858 8.41421 9.75 8 9.75C7.58579 9.75 7.25 10.0858 7.25 10.5V13.5C7.25 13.9142 7.58579 14.25 8 14.25C8.41421 14.25 8.75 13.9142 8.75 13.5V10.5ZM12 8.75C12.4142 8.75 12.75 9.08579 12.75 9.5V14.5C12.75 14.9142 12.4142 15.25 12 15.25C11.5858 15.25 11.25 14.9142 11.25 14.5V9.5C11.25 9.08579 11.5858 8.75 12 8.75ZM16.75 10.5C16.75 10.0858 16.4142 9.75 16 9.75C15.5858 9.75 15.25 10.0858 15.25 10.5V13.5C15.25 13.9142 15.5858 14.25 16 14.25C16.4142 14.25 16.75 13.9142 16.75 13.5V10.5Z" fill="#23294A"/>
</svg>
