<svg width="24" height="24" viewBox="0 0 24 24" fill="none" xmlns="http://www.w3.org/2000/svg">
<path fill-rule="evenodd" clip-rule="evenodd" d="M9 12.75C9.41421 12.75 9.75 13.0858 9.75 13.5V14C9.75 14.9665 10.5335 15.75 11.5 15.75H12.5C13.4665 15.75 14.25 14.9665 14.25 14V13.5C14.25 13.0858 14.5858 12.75 15 12.75C15.4142 12.75 15.75 13.0858 15.75 13.5V14C15.75 15.7949 14.2949 17.25 12.5 17.25H11.5C9.70507 17.25 8.25 15.7949 8.25 14V13.5C8.25 13.0858 8.58579 12.75 9 12.75Z" fill="#23294A"/>
<path fill-rule="evenodd" clip-rule="evenodd" d="M12 16.25C12.4142 16.25 12.75 16.5858 12.75 17V19.5C12.75 19.9142 12.4142 20.25 12 20.25C11.5858 20.25 11.25 19.9142 11.25 19.5V17C11.25 16.5858 11.5858 16.25 12 16.25Z" fill="#23294A"/>
<path fill-rule="evenodd" clip-rule="evenodd" d="M19 10.3V7.2C19 5.43269 17.5673 4 15.8 4H8.2C6.43269 4 5 5.43269 5 7.2V10.3C5 12.0673 6.43269 13.5 8.2 13.5H15.8C17.5673 13.5 19 12.0673 19 10.3ZM13.1 6.95C13.3485 6.61863 13.2814 6.14853 12.95 5.9C12.6186 5.65147 12.1485 5.71863 11.9 6.05L10.9437 7.32507C10.477 7.94737 10.7248 8.77818 11.3322 9.10719L10.4697 9.96967C10.1768 10.2626 10.1768 10.7374 10.4697 11.0303C10.7626 11.3232 11.2374 11.3232 11.5303 11.0303L12.7569 9.80379C13.3816 9.17905 13.1266 8.18876 12.4175 7.86007L13.1 6.95Z" fill="#23294A"/>
</svg>
