<svg width="24" height="24" viewBox="0 0 24 24" fill="none" xmlns="http://www.w3.org/2000/svg">
<path fill-rule="evenodd" clip-rule="evenodd" d="M16.8 4H7.2C4.8804 4 3 5.8804 3 8.2V14.8C3 17.1196 4.8804 19 7.2 19H7.75736C8.55301 19 9.31607 19.3161 9.87868 19.8787L11.1515 21.1515C11.6201 21.6201 12.3799 21.6201 12.8485 21.1515L14.1213 19.8787C14.6839 19.3161 15.447 19 16.2426 19H16.8C19.1196 19 21 17.1196 21 14.8V8.2C21 5.8804 19.1196 4 16.8 4ZM16 13C16.5523 13 17 12.5523 17 12C17 11.4477 16.5523 11 16 11C15.4477 11 15 11.4477 15 12C15 12.5523 15.4477 13 16 13ZM13 12C13 12.5523 12.5523 13 12 13C11.4477 13 11 12.5523 11 12C11 11.4477 11.4477 11 12 11C12.5523 11 13 11.4477 13 12ZM8 13C8.55228 13 9 12.5523 9 12C9 11.4477 8.55228 11 8 11C7.44772 11 7 11.4477 7 12C7 12.5523 7.44772 13 8 13Z" fill="#23294A"/>
</svg>
