<svg width="24" height="24" viewBox="0 0 24 24" fill="none" xmlns="http://www.w3.org/2000/svg">
<path fill-rule="evenodd" clip-rule="evenodd" d="M21 12C21 16.9706 16.9706 21 12 21C10.5572 21 9.19362 20.6605 7.98491 20.057C7.91569 20.0224 7.83598 20.0146 7.76179 20.0366L4.81885 20.9077C4.08071 21.1262 3.38285 20.4636 3.56272 19.7152L4.26858 16.7777C4.28705 16.7008 4.27422 16.6199 4.23418 16.5517C3.44978 15.2163 3 13.6607 3 12C3 7.02944 7.02944 3 12 3C16.9706 3 21 7.02944 21 12ZM16 13C16.5523 13 17 12.5523 17 12C17 11.4477 16.5523 11 16 11C15.4477 11 15 11.4477 15 12C15 12.5523 15.4477 13 16 13ZM13 12C13 12.5523 12.5523 13 12 13C11.4477 13 11 12.5523 11 12C11 11.4477 11.4477 11 12 11C12.5523 11 13 11.4477 13 12ZM8 13C8.55228 13 9 12.5523 9 12C9 11.4477 8.55228 11 8 11C7.44772 11 7 11.4477 7 12C7 12.5523 7.44772 13 8 13Z" fill="#23294A"/>
</svg>
