<svg width="24" height="24" viewBox="0 0 24 24" fill="none" xmlns="http://www.w3.org/2000/svg">
<path fill-rule="evenodd" clip-rule="evenodd" d="M7.2 4H16.8C19.1196 4 21 5.8804 21 8.2V14.8C21 17.1196 19.1196 19 16.8 19H16.2426C15.447 19 14.6839 19.3161 14.1213 19.8787L12.8485 21.1515C12.3799 21.6201 11.6201 21.6201 11.1515 21.1515L9.87868 19.8787C9.31607 19.3161 8.55301 19 7.75736 19H7.2C4.8804 19 3 17.1196 3 14.8V8.2C3 5.8804 4.8804 4 7.2 4ZM13.25 12C13.25 11.5858 13.5858 11.25 14 11.25H16C16.4142 11.25 16.75 11.5858 16.75 12C16.75 12.4142 16.4142 12.75 16 12.75H14C13.5858 12.75 13.25 12.4142 13.25 12ZM8 11.25C7.58579 11.25 7.25 11.5858 7.25 12C7.25 12.4142 7.58579 12.75 8 12.75H10C10.4142 12.75 10.75 12.4142 10.75 12C10.75 11.5858 10.4142 11.25 10 11.25H8Z" fill="#23294A"/>
</svg>
