<svg width="24" height="24" viewBox="0 0 24 24" fill="none" xmlns="http://www.w3.org/2000/svg">
<path fill-rule="evenodd" clip-rule="evenodd" d="M8 3C5.23858 3 3 5.23858 3 8V16C3 18.7614 5.23858 21 8 21H16C18.7614 21 21 18.7614 21 16V8C21 5.23858 18.7614 3 16 3H8ZM12.75 9C12.75 8.58579 12.4142 8.25 12 8.25C11.5858 8.25 11.25 8.58579 11.25 9V12.2597C11.25 12.6394 11.4226 12.9986 11.7191 13.2358L14.0315 15.0857C14.3549 15.3444 14.8269 15.292 15.0857 14.9685C15.3444 14.6451 15.292 14.1731 14.9685 13.9143L12.75 12.1395V9Z" fill="#23294A"/>
</svg>
