<svg width="24" height="24" viewBox="0 0 24 24" fill="none" xmlns="http://www.w3.org/2000/svg">
<path fill-rule="evenodd" clip-rule="evenodd" d="M12 21C16.9706 21 21 16.9706 21 12C21 7.02944 16.9706 3 12 3C7.02944 3 3 7.02944 3 12C3 16.9706 7.02944 21 12 21ZM12.75 9C12.75 8.58579 12.4142 8.25 12 8.25C11.5858 8.25 11.25 8.58579 11.25 9V12.2597C11.25 12.6394 11.4226 12.9986 11.7191 13.2358L14.0315 15.0857C14.3549 15.3444 14.8269 15.292 15.0857 14.9685C15.3444 14.6451 15.292 14.1731 14.9685 13.9143L12.75 12.1395V9Z" fill="#23294A"/>
</svg>
