<svg width="24" height="24" viewBox="0 0 24 24" fill="none" xmlns="http://www.w3.org/2000/svg">
<path fill-rule="evenodd" clip-rule="evenodd" d="M3 8C3 5.23858 5.23858 3 8 3H16C18.7614 3 21 5.23858 21 8V16C21 18.7614 18.7614 21 16 21H8C5.23858 21 3 18.7614 3 16V8ZM14.6517 9.34833C14.9445 9.64123 14.9445 10.1161 14.6517 10.409L13.0607 12L14.6516 13.591C14.9445 13.8839 14.9445 14.3587 14.6516 14.6516C14.3588 14.9445 13.8839 14.9445 13.591 14.6516L12 13.0606L10.409 14.6516C10.1161 14.9445 9.64125 14.9445 9.34835 14.6516C9.05546 14.3587 9.05546 13.8839 9.34835 13.591L10.9393 12L9.34835 10.409C9.05545 10.1161 9.05545 9.64123 9.34835 9.34833C9.64124 9.05544 10.1161 9.05544 10.409 9.34833L12 10.9393L13.591 9.34833C13.8839 9.05544 14.3588 9.05544 14.6517 9.34833Z" fill="#23294A"/>
</svg>
