<svg width="24" height="24" viewBox="0 0 24 24" fill="none" xmlns="http://www.w3.org/2000/svg">
<path fill-rule="evenodd" clip-rule="evenodd" d="M21 12C21 16.9706 16.9706 21 12 21C7.02944 21 3 16.9706 3 12C3 7.02944 7.02944 3 12 3C16.9706 3 21 7.02944 21 12ZM14.6516 9.34833C14.9445 9.64123 14.9445 10.1161 14.6516 10.409L13.0607 12L14.6517 13.591C14.9446 13.8839 14.9446 14.3587 14.6517 14.6516C14.3588 14.9445 13.8839 14.9445 13.591 14.6516L12 13.0606L10.409 14.6516C10.1161 14.9445 9.64123 14.9445 9.34834 14.6516C9.05544 14.3587 9.05544 13.8839 9.34834 13.591L10.9393 12L9.34836 10.409C9.05547 10.1161 9.05547 9.64123 9.34836 9.34833C9.64126 9.05544 10.1161 9.05544 10.409 9.34833L12 10.9393L13.591 9.34833C13.8839 9.05544 14.3587 9.05544 14.6516 9.34833Z" fill="#23294A"/>
</svg>
