<svg width="24" height="24" viewBox="0 0 24 24" fill="none" xmlns="http://www.w3.org/2000/svg">
<path d="M14.25 19C17.9779 19 21 15.866 21 12C21 8.13401 17.9779 5 14.25 5C11.7019 5 9.48354 6.46422 8.33464 8.62558C8.28791 8.7135 8.33464 8.80859 8.41603 8.87596L8.81121 9.13942C9.64381 9.69448 10.3171 10.4572 10.7646 11.3522L11.1708 12.1646C11.3561 12.5351 11.2059 12.9856 10.8354 13.1708C10.4649 13.3561 10.0144 13.2059 9.82918 12.8354L9.423 12.0231C9.09223 11.3615 8.59456 10.7978 7.97916 10.3875L7.58397 10.124C7.31273 9.9432 7.0318 9.67933 6.71115 9.73813C4.60201 10.1249 3 12.0351 3 14.3333C3 16.9107 5.01472 19 7.5 19H14.25Z" fill="#23294A"/>
</svg>
