<svg width="24" height="24" viewBox="0 0 24 24" fill="none" xmlns="http://www.w3.org/2000/svg">
<path d="M4.12369 9.7041C4.04394 9.99038 4.27833 10.25 4.57551 10.25H17.4245C17.7217 10.25 17.9561 9.99038 17.8763 9.7041C17.443 8.14875 15.9215 7 14.1111 7H7.88889C6.07846 7 4.55698 8.14875 4.12369 9.7041Z" fill="#23294A"/>
<path d="M18 12.25C18 11.9739 17.7761 11.75 17.5 11.75H4.5C4.22386 11.75 4 11.9739 4 12.25V16.3889C4 18.3833 5.74112 20 7.88889 20H14.1111C16.2589 20 18 18.3833 18 16.3889V12.25Z" fill="#23294A"/>
<path d="M18.5 9.375V14.625C18.5 14.8321 18.6679 15 18.875 15C20.3247 15 21.5 13.8247 21.5 12.375V11.625C21.5 10.1753 20.3247 9 18.875 9C18.6679 9 18.5 9.16789 18.5 9.375Z" fill="#23294A"/>
<path fill-rule="evenodd" clip-rule="evenodd" d="M14 2.75C14.4142 2.75 14.75 3.08579 14.75 3.5V5C14.75 5.41421 14.4142 5.75 14 5.75C13.5858 5.75 13.25 5.41421 13.25 5V3.5C13.25 3.08579 13.5858 2.75 14 2.75Z" fill="#23294A"/>
<path fill-rule="evenodd" clip-rule="evenodd" d="M11 2.75C11.4142 2.75 11.75 3.08579 11.75 3.5V5C11.75 5.41421 11.4142 5.75 11 5.75C10.5858 5.75 10.25 5.41421 10.25 5V3.5C10.25 3.08579 10.5858 2.75 11 2.75Z" fill="#23294A"/>
<path fill-rule="evenodd" clip-rule="evenodd" d="M8 2.75C8.41421 2.75 8.75 3.08579 8.75 3.5V5C8.75 5.41421 8.41421 5.75 8 5.75C7.58579 5.75 7.25 5.41421 7.25 5V3.5C7.25 3.08579 7.58579 2.75 8 2.75Z" fill="#23294A"/>
</svg>
