<svg width="24" height="24" viewBox="0 0 24 24" fill="none" xmlns="http://www.w3.org/2000/svg">
<path fill-rule="evenodd" clip-rule="evenodd" d="M7.65283 10.3805C7.93619 10.6826 7.92098 11.1572 7.61886 11.4406L5.79536 13.1508C4.28474 14.5676 4.20868 16.9408 5.62548 18.4514C7.04227 19.962 9.41541 20.0381 10.926 18.6213L12.7495 16.911C13.0517 16.6277 13.5263 16.6429 13.8096 16.945C14.093 17.2471 14.0778 17.7218 13.7757 18.0051L11.9522 19.7154C9.8373 21.6989 6.5149 21.5924 4.53139 19.4775C2.54787 17.3627 2.65435 14.0403 4.76922 12.0568L6.59272 10.3465C6.89484 10.0632 7.36947 10.0784 7.65283 10.3805Z" fill="#23294A"/>
<path fill-rule="evenodd" clip-rule="evenodd" d="M12.7925 4.53105C14.9074 2.54752 18.2298 2.654 20.2134 4.76888C22.1969 6.88375 22.0904 10.2062 19.9755 12.1897L18.152 13.8999C17.8499 14.1833 17.3753 14.1681 17.0919 13.8659C16.8086 13.5638 16.8238 13.0892 17.1259 12.8058L18.9494 11.0956C20.46 9.67879 20.5361 7.30564 19.1193 5.79502C17.7025 4.28439 15.3293 4.20834 13.8187 5.62514L11.9952 7.33537C11.6931 7.61873 11.2184 7.60352 10.9351 7.3014C10.6517 6.99927 10.6669 6.52464 10.9691 6.24128L12.7925 4.53105Z" fill="#23294A"/>
<path fill-rule="evenodd" clip-rule="evenodd" d="M15.0303 9.46958C15.3232 9.76247 15.3232 10.2373 15.0303 10.5302L10.5303 15.0302C10.2374 15.3231 9.76254 15.3231 9.46965 15.0302C9.17676 14.7373 9.17676 14.2624 9.46965 13.9695L13.9697 9.46957C14.2626 9.17668 14.7374 9.17668 15.0303 9.46958Z" fill="#23294A"/>
</svg>
