<svg width="24" height="24" viewBox="0 0 24 24" fill="none" xmlns="http://www.w3.org/2000/svg">
<path fill-rule="evenodd" clip-rule="evenodd" d="M21 5.6541V15.473C21 17.9732 18.9853 20 16.5 20H7.5C5.01472 20 3 17.9732 3 15.473V5.6541C3 4.92804 3.89003 4.58445 4.37284 5.12413L7.36919 8.47338C7.71765 8.86288 8.33926 8.81083 8.61892 8.36874L11.0509 4.52414C11.493 3.82529 12.507 3.82529 12.9491 4.52414L15.3811 8.36874C15.6607 8.81083 16.2824 8.86288 16.6308 8.47338L19.6272 5.12413C20.11 4.58445 21 4.92804 21 5.6541ZM12.75 13.5C12.75 13.0858 12.4142 12.75 12 12.75C11.5858 12.75 11.25 13.0858 11.25 13.5V16.5C11.25 16.9142 11.5858 17.25 12 17.25C12.4142 17.25 12.75 16.9142 12.75 16.5V13.5ZM9 13.75C9.41421 13.75 9.75 14.0858 9.75 14.5V15.5C9.75 15.9142 9.41421 16.25 9 16.25C8.58579 16.25 8.25 15.9142 8.25 15.5V14.5C8.25 14.0858 8.58579 13.75 9 13.75ZM15.75 14.5C15.75 14.0858 15.4142 13.75 15 13.75C14.5858 13.75 14.25 14.0858 14.25 14.5V15.5C14.25 15.9142 14.5858 16.25 15 16.25C15.4142 16.25 15.75 15.9142 15.75 15.5V14.5Z" fill="#23294A"/>
</svg>
