<svg width="24" height="24" viewBox="0 0 24 24" fill="none" xmlns="http://www.w3.org/2000/svg">
<path d="M10.65 5.7797C11.4854 5.29739 12.5146 5.29739 13.35 5.7797L16.7122 7.72085C16.8366 7.79265 16.8355 7.96605 16.7182 8.04892L12.4435 11.0697C12.2747 11.1891 12.0497 11.1921 11.8776 11.0774L7.28576 8.01615C7.17743 7.94392 7.17508 7.78596 7.28784 7.72085L10.65 5.7797Z" fill="#23294A"/>
<path d="M6.66526 9.28507C6.4078 9.11343 6.05424 9.21581 5.99235 9.51899C5.95645 9.69484 5.93784 9.87566 5.93784 10.0591V13.9414C5.93784 14.906 6.45245 15.7974 7.28784 16.2797L10.65 18.2209C10.6656 18.2298 10.6812 18.2386 10.6968 18.2473C10.9848 18.406 11.3 18.1673 11.3 17.8385V12.8617C11.3 12.8267 11.301 12.7918 11.3029 12.7571C11.3144 12.5471 11.2377 12.3334 11.0627 12.2167L6.66526 9.28507Z" fill="#23294A"/>
<path d="M12.9115 12.4533L17.3344 9.32775C17.5928 9.14517 17.9567 9.24726 18.0154 9.55815C18.0462 9.72164 18.0622 9.88925 18.0622 10.0591V13.9414C18.0622 14.906 17.5476 15.7974 16.7122 16.2797L13.35 18.2209C13.3345 18.2298 13.3189 18.2386 13.3032 18.2473C13.0152 18.406 12.7 18.1673 12.7 17.8385V12.8617C12.7 12.6993 12.7789 12.547 12.9115 12.4533Z" fill="#23294A"/>
</svg>
