<svg width="24" height="24" viewBox="0 0 24 24" fill="none" xmlns="http://www.w3.org/2000/svg">
<path fill-rule="evenodd" clip-rule="evenodd" d="M19.5239 15.5434L14.6225 6.7208C13.4795 4.66338 10.5206 4.66338 9.37754 6.72081L4.47608 15.5434C3.3652 17.543 4.8111 20.0004 7.09855 20.0004H16.9015C19.1889 20.0004 20.6348 17.543 19.5239 15.5434ZM12 13.7504C11.5858 13.7504 11.25 13.4146 11.25 13.0004V10.0004C11.25 9.58614 11.5858 9.25035 12 9.25035C12.4142 9.25035 12.75 9.58614 12.75 10.0004V13.0004C12.75 13.4146 12.4142 13.7504 12 13.7504ZM12 17.0004C12.5523 17.0004 13 16.5526 13 16.0004C13 15.4481 12.5523 15.0004 12 15.0004C11.4477 15.0004 11 15.4481 11 16.0004C11 16.5526 11.4477 17.0004 12 17.0004Z" fill="#23294A"/>
</svg>
