<svg width="24" height="24" viewBox="0 0 24 24" fill="none" xmlns="http://www.w3.org/2000/svg">
<path fill-rule="evenodd" clip-rule="evenodd" d="M20.5858 10.5855C21.3668 11.3665 21.3668 12.6329 20.5858 13.4139L19.5858 14.4139C19.2107 14.789 19 15.2977 19 15.8281V16.9997C19 18.1043 18.1046 18.9997 17 18.9997H15.8284C15.298 18.9997 14.7893 19.2104 14.4142 19.5855L13.4142 20.5855C12.6332 21.3665 11.3668 21.3665 10.5858 20.5855L9.58579 19.5855C9.21072 19.2104 8.70201 18.9997 8.17158 18.9997H7C5.89543 18.9997 5 18.1043 5 16.9997V15.8281C5 15.2977 4.78929 14.789 4.41422 14.4139L3.41422 13.4139C2.63317 12.6329 2.63317 11.3665 3.41422 10.5855L4.41422 9.58548C4.78929 9.21041 5 8.7017 5 8.17127V6.9997C5 5.89513 5.89543 4.9997 7 4.9997H8.17158C8.70201 4.9997 9.21072 4.78898 9.58579 4.41391L10.5858 3.41391C11.3668 2.63286 12.6332 2.63286 13.4142 3.41391L14.4142 4.41391C14.7893 4.78898 15.298 4.9997 15.8284 4.9997H17C18.1046 4.9997 19 5.89513 19 6.9997V8.17127C19 8.7017 19.2107 9.21041 19.5858 9.58548L20.5858 10.5855ZM15 15.9998C15.5523 15.9998 16 15.552 16 14.9998C16 14.4475 15.5523 13.9998 15 13.9998C14.4477 13.9998 14 14.4475 14 14.9998C14 15.552 14.4477 15.9998 15 15.9998ZM10 8.99976C10 9.55204 9.55229 9.99976 9 9.99976C8.44772 9.99976 8 9.55204 8 8.99976C8 8.44747 8.44772 7.99976 9 7.99976C9.55229 7.99976 10 8.44747 10 8.99976ZM15.5303 9.53009C15.8232 9.23719 15.8232 8.76232 15.5303 8.46943C15.2374 8.17653 14.7626 8.17653 14.4697 8.46943L8.46967 14.4694C8.17678 14.7623 8.17678 15.2372 8.46967 15.5301C8.76257 15.823 9.23744 15.823 9.53033 15.5301L15.5303 9.53009Z" fill="#23294A"/>
</svg>
