<svg width="24" height="24" viewBox="0 0 24 24" fill="none" xmlns="http://www.w3.org/2000/svg">
<path fill-rule="evenodd" clip-rule="evenodd" d="M7 21C5.34315 21 4 19.6569 4 18V6C4 4.34315 5.34315 3 7 3H10.4C11.8359 3 13 4.16406 13 5.6V8.8C13 9.46274 13.5373 10 14.2 10H16.9C18.3359 10 19.5 11.1641 19.5 12.6V18C19.5 19.6569 18.1569 21 16.5 21H7ZM7 10.25C6.58579 10.25 6.25 10.5858 6.25 11C6.25 11.4142 6.58579 11.75 7 11.75H9C9.41421 11.75 9.75 11.4142 9.75 11C9.75 10.5858 9.41421 10.25 9 10.25H7ZM6.25 14C6.25 13.5858 6.58579 13.25 7 13.25H11C11.4142 13.25 11.75 13.5858 11.75 14C11.75 14.4142 11.4142 14.75 11 14.75H7C6.58579 14.75 6.25 14.4142 6.25 14ZM7 16.25C6.58579 16.25 6.25 16.5858 6.25 17C6.25 17.4142 6.58579 17.75 7 17.75H15C15.4142 17.75 15.75 17.4142 15.75 17C15.75 16.5858 15.4142 16.25 15 16.25H7Z" fill="#23294A"/>
<path d="M15 9.50028H17.433C18.6813 9.50028 19.3834 8.06466 18.6171 7.07937L16.184 3.95117C15.3072 2.82379 13.5 3.44385 13.5 4.87208V8.00028C13.5 8.82871 14.1716 9.50028 15 9.50028Z" fill="#23294A"/>
</svg>
