<svg width="24" height="24" viewBox="0 0 24 24" fill="none" xmlns="http://www.w3.org/2000/svg">
<path d="M11.25 10.75V8.75H11.1667C10.6604 8.75 10.25 9.16041 10.25 9.66667C10.25 10.0052 10.4366 10.3162 10.7353 10.4755L11.25 10.75Z" fill="#23294A"/>
<path d="M12.75 13.25V15.25H12.8333C13.3396 15.25 13.75 14.8396 13.75 14.3333C13.75 13.9948 13.5634 13.6838 13.2647 13.5245L12.75 13.25Z" fill="#23294A"/>
<path fill-rule="evenodd" clip-rule="evenodd" d="M21 12C21 16.9706 16.9706 21 12 21C7.02944 21 3 16.9706 3 12C3 7.02944 7.02944 3 12 3C16.9706 3 21 7.02944 21 12ZM8.75 9.66667C8.75 8.33198 9.83198 7.25 11.1667 7.25H11.25V7C11.25 6.58579 11.5858 6.25 12 6.25C12.4142 6.25 12.75 6.58579 12.75 7V7.26121C14.1516 7.38752 15.25 8.56549 15.25 10C15.25 10.4142 14.9142 10.75 14.5 10.75C14.0858 10.75 13.75 10.4142 13.75 10C13.75 9.39526 13.3206 8.89082 12.75 8.775V11.55L13.9706 12.201C14.7581 12.621 15.25 13.4408 15.25 14.3333C15.25 15.668 14.168 16.75 12.8333 16.75H12.75V17C12.75 17.4142 12.4142 17.75 12 17.75C11.5858 17.75 11.25 17.4142 11.25 17V16.7306C9.84228 16.5656 8.75 15.3687 8.75 13.9167V13.3333C8.75 12.9191 9.08579 12.5833 9.5 12.5833C9.91421 12.5833 10.25 12.9191 10.25 13.3333V13.9167C10.25 14.5379 10.6749 15.06 11.25 15.208V12.45L10.0294 11.799C9.24191 11.379 8.75 10.5592 8.75 9.66667Z" fill="#23294A"/>
</svg>
