<svg width="24" height="24" viewBox="0 0 24 24" fill="none" xmlns="http://www.w3.org/2000/svg">
<path d="M11.25 9V13.1893L10.5303 12.4697C10.2374 12.1768 9.76256 12.1768 9.46967 12.4697C9.17678 12.7626 9.17678 13.2374 9.46967 13.5303L11.3282 15.3889C11.6992 15.7599 12.3008 15.7599 12.6718 15.3889L14.5303 13.5303C14.8232 13.2374 14.8232 12.7626 14.5303 12.4697C14.2374 12.1768 13.7626 12.1768 13.4697 12.4697L12.75 13.1893V9H17.5C19.433 9 21 10.567 21 12.5V16.5C21 18.433 19.433 20 17.5 20H6.5C4.567 20 3 18.433 3 16.5V12.5C3 10.567 4.567 9 6.5 9H11.25Z" fill="#23294A"/>
<path fill-rule="evenodd" clip-rule="evenodd" d="M12 5.25C12.4142 5.25 12.75 5.58579 12.75 6V9.25H11.25V6C11.25 5.58579 11.5858 5.25 12 5.25Z" fill="#23294A"/>
</svg>
