<svg width="24" height="24" viewBox="0 0 24 24" fill="none" xmlns="http://www.w3.org/2000/svg">
<path d="M8 3C5.23858 3 3 5.23858 3 8V9.74988C3 9.85693 3.05704 9.95587 3.14969 10.0095L10.1211 14.0456C11.2833 14.7185 12.7167 14.7185 13.8789 14.0456L20.8503 10.0095C20.943 9.95587 21 9.85693 21 9.74988V8C21 5.23858 18.7614 3 16 3H8Z" fill="#23294A"/>
<path d="M21 12.1764C21 11.9453 20.7497 11.801 20.5497 11.9168L14.6304 15.3437C13.0033 16.2858 10.9967 16.2858 9.36956 15.3437L3.45031 11.9168C3.25031 11.801 3 11.9453 3 12.1764V16C3 18.7614 5.23858 21 8 21H16C18.7614 21 21 18.7614 21 16V12.1764Z" fill="#23294A"/>
</svg>
