<svg width="24" height="24" viewBox="0 0 24 24" fill="none" xmlns="http://www.w3.org/2000/svg">
<path fill-rule="evenodd" clip-rule="evenodd" d="M12 21C16.9706 21 21 16.9706 21 12C21 7.02944 16.9706 3 12 3C7.02944 3 3 7.02944 3 12C3 16.9706 7.02944 21 12 21ZM15.2729 9.36068L11.0064 8.88384C10.6029 8.83874 10.2122 9.04209 10.0176 9.39844L7.96035 13.1664C7.61969 13.7904 8.02051 14.5605 8.72697 14.6395L12.9934 15.1163C13.3969 15.1614 13.7877 14.9581 13.9822 14.6017L16.0395 10.8337C16.3801 10.2098 15.9793 9.43964 15.2729 9.36068Z" fill="#23294A"/>
</svg>
