<svg width="24" height="24" viewBox="0 0 24 24" fill="none" xmlns="http://www.w3.org/2000/svg">
<path fill-rule="evenodd" clip-rule="evenodd" d="M12.25 8C12.25 7.58579 12.5858 7.25 13 7.25L20 7.25C20.4142 7.25 20.75 7.58579 20.75 8C20.75 8.41421 20.4142 8.75 20 8.75L13 8.75C12.5858 8.75 12.25 8.41421 12.25 8Z" fill="#23294A"/>
<path fill-rule="evenodd" clip-rule="evenodd" d="M4.25 16C4.25 15.5858 4.58579 15.25 5 15.25L12 15.25C12.4142 15.25 12.75 15.5858 12.75 16C12.75 16.4142 12.4142 16.75 12 16.75L5 16.75C4.58579 16.75 4.25 16.4142 4.25 16Z" fill="#23294A"/>
<path d="M10.5 8.25C10.5 9.49264 9.49264 10.5 8.25 10.5C7.00736 10.5 6 9.49264 6 8.25C6 7.00736 7.00736 6 8.25 6C9.49264 6 10.5 7.00736 10.5 8.25Z" fill="#23294A"/>
<path d="M19.5 16.25C19.5 17.4926 18.4926 18.5 17.25 18.5C16.0074 18.5 15 17.4926 15 16.25C15 15.0074 16.0074 14 17.25 14C18.4926 14 19.5 15.0074 19.5 16.25Z" fill="#23294A"/>
</svg>
