<svg width="24" height="24" viewBox="0 0 24 24" fill="none" xmlns="http://www.w3.org/2000/svg">
<path fill-rule="evenodd" clip-rule="evenodd" d="M7.53808 4.78529C8.76825 3.82357 10.3182 3.25 12 3.25C16.0041 3.25 19.25 6.49594 19.25 10.5V13.5C19.25 17.5041 16.0041 20.75 12 20.75C7.99594 20.75 4.75 17.5041 4.75 13.5V10.5C4.75 9.51138 4.9483 8.56717 5.30799 7.70642C5.4677 7.32423 5.907 7.14388 6.28918 7.30359C6.67137 7.4633 6.85172 7.9026 6.69201 8.28478C6.40751 8.96558 6.25 9.71344 6.25 10.5V13.5C6.25 16.6756 8.82436 19.25 12 19.25C15.1756 19.25 17.75 16.6756 17.75 13.5V10.5C17.75 7.32436 15.1756 4.75 12 4.75C10.6648 4.75 9.43769 5.2042 8.46192 5.96703C8.1356 6.22214 7.66424 6.16441 7.40913 5.83808C7.15402 5.51175 7.21175 5.0404 7.53808 4.78529Z" fill="#23294A"/>
<path fill-rule="evenodd" clip-rule="evenodd" d="M7.25 11C7.25 8.37665 9.37665 6.25 12 6.25C14.6234 6.25 16.75 8.37665 16.75 11V13C16.75 13.6964 16.5997 14.3596 16.329 14.9574C16.1582 15.3348 15.7138 15.5022 15.3364 15.3313C14.9591 15.1605 14.7917 14.7161 14.9625 14.3387C15.147 13.9315 15.25 13.4788 15.25 13V11C15.25 9.20507 13.7949 7.75 12 7.75C10.2051 7.75 8.75 9.20507 8.75 11V13C8.75 14.7949 10.2051 16.25 12 16.25C12.5023 16.25 12.9759 16.1366 13.3986 15.9347C13.7724 15.7562 14.2201 15.9144 14.3986 16.2882C14.5772 16.662 14.4189 17.1097 14.0451 17.2882C13.4248 17.5845 12.7307 17.75 12 17.75C9.37665 17.75 7.25 15.6234 7.25 13V11Z" fill="#23294A"/>
<path d="M10.5 12.5V11.5C10.5 10.6716 11.1716 10 12 10C12.8284 10 13.5 10.6716 13.5 11.5V12.5C13.5 13.3284 12.8284 14 12 14C11.1716 14 10.5 13.3284 10.5 12.5Z" fill="#23294A"/>
</svg>
