<svg width="24" height="24" viewBox="0 0 24 24" fill="none" xmlns="http://www.w3.org/2000/svg">
<path fill-rule="evenodd" clip-rule="evenodd" d="M17 11.3368V7.5C17 5.567 15.433 4 13.5 4H10.5C8.567 4 7 5.567 7 7.5V11.3368C5.81753 11.8985 5 13.1038 5 14.5V17.5C5 19.433 6.567 21 8.5 21H15.5C17.433 21 19 19.433 19 17.5V14.5C19 13.1038 18.1825 11.8985 17 11.3368ZM14 6.25C14.4142 6.25 14.75 6.58579 14.75 7V9C14.75 9.41421 14.4142 9.75 14 9.75C13.5858 9.75 13.25 9.41421 13.25 9V7C13.25 6.58579 13.5858 6.25 14 6.25ZM10.75 7C10.75 6.58579 10.4142 6.25 10 6.25C9.58579 6.25 9.25 6.58579 9.25 7V9C9.25 9.41421 9.58579 9.75 10 9.75C10.4142 9.75 10.75 9.41421 10.75 9V7Z" fill="#23294A"/>
</svg>
