<svg width="24" height="24" viewBox="0 0 24 24" fill="none" xmlns="http://www.w3.org/2000/svg">
<path fill-rule="evenodd" clip-rule="evenodd" d="M7.2 3H10.9296C11.5983 3 12.2228 3.3342 12.5937 3.8906L13.4063 5.1094C13.7772 5.6658 14.4017 6 15.0704 6H16.8C18.5673 6 20 7.43269 20 9.2V15.8C20 17.5673 18.5673 19 16.8 19H7.2C5.43269 19 4 17.5673 4 15.8V6.2C4 4.43269 5.43269 3 7.2 3ZM9 15.25C8.58579 15.25 8.25 15.5858 8.25 16C8.25 16.4142 8.58579 16.75 9 16.75H15C15.4142 16.75 15.75 16.4142 15.75 16C15.75 15.5858 15.4142 15.25 15 15.25H9Z" fill="#23294A"/>
</svg>
