<svg width="24" height="24" viewBox="0 0 24 24" fill="none" xmlns="http://www.w3.org/2000/svg">
<path fill-rule="evenodd" clip-rule="evenodd" d="M7.82 4H16.18C17.069 4 17.8852 4.4914 18.3011 5.27707L20.2402 8.93989C20.6992 9.80674 20.5844 10.8656 19.9505 11.614L13.8313 18.838C12.8727 19.9697 11.1273 19.9697 10.1687 18.838L4.04955 11.614C3.41559 10.8656 3.30085 9.80675 3.75977 8.93989L5.69891 5.27707C6.11486 4.4914 6.93102 4 7.82 4ZM8.01987 11.4238C8.33808 11.1587 8.811 11.2017 9.07617 11.5199L11.5762 14.5199C11.8413 14.8381 11.7984 15.311 11.4801 15.5762C11.1619 15.8413 10.689 15.7983 10.4238 15.4801L7.92384 12.4801C7.65867 12.1619 7.70166 11.689 8.01987 11.4238ZM7.00001 11C7.55229 11 8.00001 10.5523 8.00001 10C8.00001 9.44772 7.55229 9 7.00001 9C6.44772 9 6.00001 9.44772 6.00001 10C6.00001 10.5523 6.44772 11 7.00001 11Z" fill="#23294A"/>
</svg>
