<svg width="24" height="24" viewBox="0 0 24 24" fill="none" xmlns="http://www.w3.org/2000/svg">
<path d="M11.9126 4.14118C11.8868 4.05726 11.8092 4 11.7214 4H7.94002C6.97696 4 6.09278 4.53235 5.64217 5.38349L3.82269 8.8203C3.79237 8.87756 3.76437 8.93559 3.73866 8.99428C3.68436 9.11823 3.78039 9.25 3.91572 9.25H13.2137C13.3483 9.25 13.4445 9.11979 13.4049 8.99118L11.9126 4.14118Z" fill="#23294A"/>
<path d="M13.4773 10.9985C13.5088 10.8723 13.4134 10.75 13.2833 10.75H3.88516C3.75234 10.75 3.65645 10.8773 3.70567 11.0007C3.80786 11.2568 3.9519 11.4992 4.13662 11.7173L10.4735 19.1984C10.6482 19.4045 10.8542 19.5656 11.0778 19.6817C11.1842 19.7369 11.309 19.6715 11.3381 19.5551L13.4773 10.9985Z" fill="#23294A"/>
<path d="M13.2014 19.5052C13.0671 19.6065 12.9038 19.4772 12.9446 19.314L15.0477 10.9015C15.07 10.8125 15.15 10.75 15.2417 10.75H20.1141C20.2469 10.75 20.3428 10.8773 20.2936 11.0007C20.1914 11.2568 20.0473 11.4992 19.8626 11.7173L13.5257 19.1984C13.4268 19.3151 13.3179 19.4174 13.2014 19.5052Z" fill="#23294A"/>
<path d="M15.2016 9.25C15.1138 9.25 15.0363 9.19274 15.0105 9.10882L13.5182 4.25882C13.4786 4.13021 13.5748 4 13.7093 4H16.0592C17.0223 4 17.9064 4.53235 18.357 5.38349L20.1765 8.8203C20.2068 8.87756 20.2349 8.93559 20.2606 8.99428C20.3149 9.11823 20.2188 9.25 20.0835 9.25H15.2016Z" fill="#23294A"/>
</svg>
