<svg width="24" height="24" viewBox="0 0 24 24" fill="none" xmlns="http://www.w3.org/2000/svg">
<path fill-rule="evenodd" clip-rule="evenodd" d="M19 11V17.7372C19 19.1298 17.2379 19.7344 16.3829 18.6351C15.9022 18.0171 15.0026 17.9264 14.4082 18.4359L13.1714 19.4959C12.4973 20.0737 11.5027 20.0737 10.8286 19.4959L9.59185 18.4359C8.99743 17.9264 8.09778 18.0171 7.61713 18.6351C6.76213 19.7344 5 19.1298 5 17.7372V11C5 7.13401 8.13401 4 12 4C15.866 4 19 7.13401 19 11ZM14 8.25C14.4142 8.25 14.75 8.58579 14.75 9V10C14.75 10.4142 14.4142 10.75 14 10.75C13.5858 10.75 13.25 10.4142 13.25 10V9C13.25 8.58579 13.5858 8.25 14 8.25ZM10.75 9C10.75 8.58579 10.4142 8.25 10 8.25C9.58579 8.25 9.25 8.58579 9.25 9V10C9.25 10.4142 9.58579 10.75 10 10.75C10.4142 10.75 10.75 10.4142 10.75 10V9Z" fill="#23294A"/>
</svg>
