<svg width="24" height="24" viewBox="0 0 24 24" fill="none" xmlns="http://www.w3.org/2000/svg">
<path d="M12 8.75C11.3096 8.75 10.75 9.30964 10.75 10C10.75 10.6904 11.3096 11.25 12 11.25C12.6904 11.25 13.25 10.6904 13.25 10C13.25 9.30964 12.6904 8.75 12 8.75Z" fill="#23294A"/>
<path fill-rule="evenodd" clip-rule="evenodd" d="M19 11V17.7372C19 19.1298 17.2379 19.7344 16.3829 18.6351C15.9022 18.0171 15.0026 17.9264 14.4082 18.4359L13.1714 19.4959C12.4973 20.0737 11.5027 20.0737 10.8286 19.4959L9.59185 18.4359C8.99743 17.9264 8.09778 18.0171 7.61713 18.6351C6.76213 19.7344 5 19.1298 5 17.7372V11C5 7.13401 8.13401 4 12 4C15.866 4 19 7.13401 19 11ZM9.25 10C9.25 8.48122 10.4812 7.25 12 7.25C13.5188 7.25 14.75 8.48122 14.75 10C14.75 11.5188 13.5188 12.75 12 12.75C10.4812 12.75 9.25 11.5188 9.25 10ZM10.3354 14.3292C9.96493 14.1439 9.51442 14.2941 9.32918 14.6646C9.14394 15.0351 9.29411 15.4856 9.66459 15.6708L10.3229 16C11.3787 16.5279 12.6213 16.5279 13.6771 16L14.3354 15.6708C14.7059 15.4856 14.8561 15.0351 14.6708 14.6646C14.4856 14.2941 14.0351 14.1439 13.6646 14.3292L13.0062 14.6584C12.3728 14.9751 11.6272 14.9751 10.9938 14.6584L10.3354 14.3292Z" fill="#23294A"/>
</svg>
