<svg width="24" height="24" viewBox="0 0 24 24" fill="none" xmlns="http://www.w3.org/2000/svg">
<path fill-rule="evenodd" clip-rule="evenodd" d="M8.02259 3.9266C12.4814 1.72997 17.8768 3.56387 20.0734 8.02272C22.27 12.4816 20.4361 17.8769 15.9773 20.0735C11.5184 22.2701 6.12311 20.4363 3.92648 15.9774C1.72985 11.5186 3.56374 6.12323 8.02259 3.9266ZM13.8609 8.45931C13.0875 8.05283 12.2022 7.91076 11.3404 8.05483C10.4787 8.1989 9.68775 8.62118 9.08859 9.25713C8.48943 9.89308 8.11498 10.7077 8.02247 11.5765C7.92996 12.4454 8.12446 13.3206 8.57627 14.0685C9.02808 14.8163 9.71233 15.3957 10.5244 15.718C11.3366 16.0403 12.2319 16.0878 13.0736 15.8533C13.9152 15.6188 14.657 15.1152 15.1854 14.4193C15.5086 13.9939 15.7411 13.5109 15.873 13.0001H12C11.4477 13.0001 11 12.5524 11 12.0001C11 11.4478 11.4477 11.0001 12 11.0001L17 11.0001C17.5523 11.0001 18 11.4478 18 12.0001C18 13.3107 17.5709 14.5853 16.7782 15.629C15.9855 16.6727 14.8729 17.4282 13.6104 17.7799C12.3478 18.1317 11.0049 18.0604 9.78668 17.5769C8.5685 17.0935 7.54212 16.2244 6.86441 15.1026C6.1867 13.9809 5.89494 12.668 6.03371 11.3648C6.17248 10.0615 6.73416 8.83958 7.63289 7.88565C8.53163 6.93173 9.71799 6.29831 11.0107 6.08221C12.3033 5.8661 13.6312 6.0792 14.7913 6.68893C15.2802 6.94587 15.4682 7.55047 15.2113 8.03935C14.9544 8.52823 14.3498 8.71625 13.8609 8.45931Z" fill="#23294A"/>
</svg>
