<svg width="24" height="24" viewBox="0 0 24 24" fill="none" xmlns="http://www.w3.org/2000/svg">
<path d="M8.02259 3.9266C12.0082 1.9631 16.7421 3.22 19.2709 6.69344C19.3649 6.82256 19.2706 7.00008 19.1109 7.00008H12.1155C12.1042 7.00008 12.093 7.0003 12.0818 7.00074C12.0546 7.0003 12.0273 7.00008 12 7.00008C10.0943 7.00008 8.4377 8.06615 7.59391 9.63444C7.51257 9.78562 7.28664 9.78887 7.21222 9.63416L5.46256 5.99671C5.42692 5.9226 5.44011 5.83407 5.49697 5.77466C6.20461 5.03536 7.05132 4.40509 8.02259 3.9266Z" fill="#23294A"/>
<path d="M16.0334 9.04455C15.9316 8.90585 16.0265 8.70008 16.1985 8.70008H20.2377C20.3197 8.70008 20.3938 8.75055 20.4228 8.82732C22.0426 13.112 20.1709 18.0075 15.9773 20.0735C14.7825 20.6621 13.5205 20.9613 12.2708 20.9982C12.1112 21.0029 12.0181 20.825 12.1081 20.6932L15.9584 15.0552C16.6114 14.2103 17 13.1506 17 12.0001C17 10.8944 16.6411 9.87246 16.0334 9.04455Z" fill="#23294A"/>
<path d="M12.3475 17.3282C12.4443 17.1864 12.3286 16.9924 12.157 16.9977C12.1049 16.9993 12.0525 17.0001 12 17.0001C9.89078 17.0001 8.0866 15.6941 7.35202 13.8466L4.41857 7.74812C4.34931 7.60413 4.14845 7.59612 4.07289 7.7369C2.74525 10.2106 2.59121 13.267 3.92648 15.9774C5.15032 18.4616 7.36707 20.131 9.86157 20.7426C9.94147 20.7621 10.0248 20.7293 10.0712 20.6614L12.3475 17.3282Z" fill="#23294A"/>
<path d="M12 9.00008C10.3431 9.00008 8.99998 10.3432 8.99998 12.0001C8.99998 13.6569 10.3431 15.0001 12 15.0001C13.6568 15.0001 15 13.6569 15 12.0001C15 10.3432 13.6568 9.00008 12 9.00008Z" fill="#23294A"/>
</svg>
