<svg width="24" height="24" viewBox="0 0 24 24" fill="none" xmlns="http://www.w3.org/2000/svg">
<path d="M17.8 12.0002C18.4627 12.0002 19.0105 12.5413 18.8974 13.1943C18.7313 14.1537 18.3661 15.0723 17.8203 15.8891C17.0511 17.0403 15.9579 17.9375 14.6788 18.4673C13.3997 18.9971 11.9922 19.1357 10.6344 18.8657C9.2765 18.5956 8.02922 17.9289 7.05025 16.9499C6.07128 15.9709 5.4046 14.7237 5.1345 13.3658C4.86441 12.0079 5.00303 10.6005 5.53284 9.32137C6.06266 8.04229 6.95986 6.94904 8.11101 6.17987C8.92784 5.63408 9.8465 5.26886 10.8058 5.10276C11.4589 4.9897 12 5.53741 12 6.20016V11.5002C12 11.7763 12.2239 12.0002 12.5 12.0002H17.8Z" fill="#23294A"/>
<path d="M13 9.4998V5.82823C13 4.04642 15.1543 3.15408 16.4142 4.41401L19.5858 7.58559C20.8457 8.84552 19.9534 10.9998 18.1716 10.9998H14.5C13.6716 10.9998 13 10.3282 13 9.4998Z" fill="#23294A"/>
</svg>
