<svg width="24" height="24" viewBox="0 0 24 24" fill="none" xmlns="http://www.w3.org/2000/svg">
<path d="M7.4 3.37365C7.4 3.19384 7.24248 3.05373 7.06579 3.08712C5.0535 3.46744 3.46744 5.0535 3.08712 7.06579C3.05373 7.24248 3.19384 7.4 3.37365 7.4H7.1C7.26569 7.4 7.4 7.26569 7.4 7.1V3.37365Z" fill="#23294A"/>
<path d="M7.4 8.9C7.4 8.73431 7.26569 8.6 7.1 8.6H3.3C3.13432 8.6 3 8.73431 3 8.9V11.1C3 11.2657 3.13431 11.4 3.3 11.4H7.1C7.26569 11.4 7.4 11.2657 7.4 11.1V8.9Z" fill="#23294A"/>
<path d="M8.9 11.4C8.73431 11.4 8.6 11.2657 8.6 11.1V8.9C8.6 8.73431 8.73431 8.6 8.9 8.6H11.1C11.2657 8.6 11.4 8.73431 11.4 8.9V11.1C11.4 11.2657 11.2657 11.4 11.1 11.4H8.9Z" fill="#23294A"/>
<path d="M7.4 12.9C7.4 12.7343 7.26569 12.6 7.1 12.6H3.3C3.13432 12.6 3 12.7343 3 12.9V15.1C3 15.2657 3.13431 15.4 3.3 15.4H7.1C7.26569 15.4 7.4 15.2657 7.4 15.1V12.9Z" fill="#23294A"/>
<path d="M8.9 15.4C8.73431 15.4 8.6 15.2657 8.6 15.1V12.9C8.6 12.7343 8.73431 12.6 8.9 12.6H11.1C11.2657 12.6 11.4 12.7343 11.4 12.9V15.1C11.4 15.2657 11.2657 15.4 11.1 15.4H8.9Z" fill="#23294A"/>
<path d="M7.4 16.9C7.4 16.7343 7.26569 16.6 7.1 16.6H3.37365C3.19384 16.6 3.05373 16.7575 3.08712 16.9342C3.46744 18.9465 5.0535 20.5326 7.0658 20.9129C7.24248 20.9463 7.4 20.8062 7.4 20.6264V16.9Z" fill="#23294A"/>
<path d="M8.9 21C8.73432 21 8.6 20.8657 8.6 20.7V16.9C8.6 16.7343 8.73431 16.6 8.9 16.6H11.1C11.2657 16.6 11.4 16.7343 11.4 16.9V20.7C11.4 20.8657 11.2657 21 11.1 21H8.9Z" fill="#23294A"/>
<path d="M8.9 7.4C8.73431 7.4 8.6 7.26569 8.6 7.1V3.3C8.6 3.13431 8.73431 3 8.9 3H11.1C11.2657 3 11.4 3.13432 11.4 3.3V7.1C11.4 7.26569 11.2657 7.4 11.1 7.4H8.9Z" fill="#23294A"/>
<path d="M12.9 8.6C12.7343 8.6 12.6 8.73431 12.6 8.9V11.1C12.6 11.2657 12.7343 11.4 12.9 11.4H15.1C15.2657 11.4 15.4 11.2657 15.4 11.1V8.9C15.4 8.73431 15.2657 8.6 15.1 8.6H12.9Z" fill="#23294A"/>
<path d="M12.9 12.6C12.7343 12.6 12.6 12.7343 12.6 12.9V15.1C12.6 15.2657 12.7343 15.4 12.9 15.4H15.1C15.2657 15.4 15.4 15.2657 15.4 15.1V12.9C15.4 12.7343 15.2657 12.6 15.1 12.6H12.9Z" fill="#23294A"/>
<path d="M12.9 16.6C12.7343 16.6 12.6 16.7343 12.6 16.9V20.7C12.6 20.8657 12.7343 21 12.9 21H15.1C15.2657 21 15.4 20.8657 15.4 20.7L15.4 16.9C15.4 16.7343 15.2657 16.6 15.1 16.6H12.9Z" fill="#23294A"/>
<path d="M12.9 3C12.7343 3 12.6 3.13432 12.6 3.3V7.1C12.6 7.26569 12.7343 7.4 12.9 7.4H15.1C15.2657 7.4 15.4 7.26569 15.4 7.1V3.3C15.4 3.13431 15.2657 3 15.1 3H12.9Z" fill="#23294A"/>
<path d="M16.9 16.6C16.7343 16.6 16.6 16.7343 16.6 16.9V20.6264C16.6 20.8062 16.7575 20.9463 16.9342 20.9129C18.9465 20.5326 20.5326 18.9465 20.9129 16.9342C20.9463 16.7575 20.8062 16.6 20.6264 16.6H16.9Z" fill="#23294A"/>
<path d="M20.7 15.4C20.8657 15.4 21 15.2657 21 15.1V12.9C21 12.7343 20.8657 12.6 20.7 12.6H16.9C16.7343 12.6 16.6 12.7343 16.6 12.9V15.1C16.6 15.2657 16.7343 15.4 16.9 15.4H20.7Z" fill="#23294A"/>
<path d="M20.7 8.6C20.8657 8.6 21 8.73431 21 8.9V11.1C21 11.2657 20.8657 11.4 20.7 11.4H16.9C16.7343 11.4 16.6 11.2657 16.6 11.1V8.9C16.6 8.73431 16.7343 8.6 16.9 8.6H20.7Z" fill="#23294A"/>
<path d="M20.6264 7.4C20.8062 7.4 20.9463 7.24248 20.9129 7.06579C20.5326 5.0535 18.9465 3.46744 16.9342 3.08712C16.7575 3.05373 16.6 3.19384 16.6 3.37365V7.1C16.6 7.26569 16.7343 7.4 16.9 7.4H20.6264Z" fill="#23294A"/>
</svg>
