<svg width="24" height="24" viewBox="0 0 24 24" fill="none" xmlns="http://www.w3.org/2000/svg">
<path fill-rule="evenodd" clip-rule="evenodd" d="M19.5 3.25C19.9142 3.25 20.25 3.58579 20.25 4V20C20.25 20.4142 19.9142 20.75 19.5 20.75C19.0858 20.75 18.75 20.4142 18.75 20V4C18.75 3.58579 19.0858 3.25 19.5 3.25Z" fill="#23294A"/>
<path d="M16 7.5V6C16 4.89543 15.1046 4 14 4H7.5C6.39543 4 5.5 4.89543 5.5 6V7.5C5.5 8.60457 6.39543 9.5 7.5 9.5H14C15.1046 9.5 16 8.60457 16 7.5Z" fill="#23294A"/>
<path d="M16 17V15C16 13.8954 15.1046 13 14 13H5C3.89543 13 3 13.8954 3 15V17C3 18.1046 3.89543 19 5 19H14C15.1046 19 16 18.1046 16 17Z" fill="#23294A"/>
</svg>
