<svg width="24" height="24" viewBox="0 0 24 24" fill="none" xmlns="http://www.w3.org/2000/svg">
<path fill-rule="evenodd" clip-rule="evenodd" d="M12 21C16.9706 21 21 16.9706 21 12C21 7.02944 16.9706 3 12 3C7.02944 3 3 7.02944 3 12C3 16.9706 7.02944 21 12 21ZM9.05602 15.4967C9.0563 15.497 9.05658 15.4973 9.05686 15.4976C9.05683 15.4976 9.0569 15.4976 9.05686 15.4976L9.0638 15.505C9.07141 15.5131 9.08438 15.5267 9.10249 15.5451C9.13875 15.5819 9.19529 15.6374 9.27013 15.7055C9.42049 15.8422 9.64098 16.0259 9.91603 16.2093C10.4759 16.5825 11.2051 16.9167 12 16.9167C12.7949 16.9167 13.5241 16.5825 14.084 16.2093C14.359 16.0259 14.5795 15.8422 14.7299 15.7055C14.8047 15.6374 14.8612 15.5819 14.8975 15.5451C14.9156 15.5267 14.9286 15.5131 14.9362 15.505L14.9431 15.4976C15.2203 15.1901 15.694 15.1655 16.0017 15.4425C16.3096 15.7196 16.3346 16.1938 16.0575 16.5017L15.5 16C16.0575 16.5017 16.0576 16.5015 16.0575 16.5017L16.0568 16.5025L16.0559 16.5035L16.0537 16.5058L16.0478 16.5124L16.0291 16.5324C16.0138 16.5487 15.9926 16.5709 15.9658 16.5981C15.9122 16.6525 15.8359 16.7272 15.7389 16.8154C15.5455 16.9912 15.266 17.2241 14.916 17.4574C14.2259 17.9175 13.2051 18.4167 12 18.4167C10.7949 18.4167 9.77415 17.9175 9.08397 17.4574C8.73402 17.2241 8.45451 16.9912 8.26112 16.8154C8.16409 16.7272 8.08781 16.6525 8.03423 16.5981C8.00741 16.5709 7.98621 16.5487 7.97086 16.5324L7.95224 16.5124L7.94626 16.5058L7.94411 16.5035L7.94325 16.5025C7.94308 16.5023 7.94253 16.5017 8.5 16L7.94253 16.5017C7.66544 16.1938 7.69039 15.7196 7.99828 15.4425C8.30562 15.1659 8.77872 15.1903 9.05602 15.4967Z" fill="#23294A"/>
</svg>
