<svg width="24" height="24" viewBox="0 0 24 24" fill="none" xmlns="http://www.w3.org/2000/svg">
<path fill-rule="evenodd" clip-rule="evenodd" d="M12 21C16.9706 21 21 16.9706 21 12C21 7.02944 16.9706 3 12 3C7.02944 3 3 7.02944 3 12C3 16.9706 7.02944 21 12 21ZM9.05602 14.4967L9.05686 14.4976L9.0638 14.505C9.07141 14.5131 9.08438 14.5267 9.10249 14.5451C9.13875 14.5819 9.19529 14.6374 9.27013 14.7055C9.42049 14.8422 9.64098 15.0259 9.91603 15.2093C10.4759 15.5825 11.2051 15.9167 12 15.9167C12.7949 15.9167 13.5241 15.5825 14.084 15.2093C14.359 15.0259 14.5795 14.8422 14.7299 14.7055C14.8047 14.6374 14.8612 14.5819 14.8975 14.5451C14.9156 14.5267 14.9286 14.5131 14.9362 14.505L14.9428 14.4979C15.22 14.1906 15.6941 14.1656 16.0017 14.4425C16.3096 14.7196 16.3346 15.1938 16.0575 15.5017L15.5 15C16.0575 15.5017 16.0576 15.5015 16.0575 15.5017L16.0568 15.5025L16.0559 15.5035L16.0537 15.5058L16.0478 15.5124L16.0291 15.5324C16.0138 15.5487 15.9926 15.5709 15.9658 15.5981C15.9122 15.6525 15.8359 15.7272 15.7389 15.8154C15.5455 15.9912 15.266 16.2241 14.916 16.4574C14.2259 16.9175 13.2051 17.4167 12 17.4167C10.7949 17.4167 9.77415 16.9175 9.08397 16.4574C8.73402 16.2241 8.45451 15.9912 8.26112 15.8154C8.16409 15.7272 8.08781 15.6525 8.03423 15.5981C8.00741 15.5709 7.98621 15.5487 7.97086 15.5324L7.95224 15.5124L7.94626 15.5058L7.94411 15.5035L7.94325 15.5025C7.94308 15.5023 7.94253 15.5017 8.5 15L7.94253 15.5017C7.66544 15.1938 7.69039 14.7196 7.99828 14.4425C8.30562 14.1659 8.77872 14.1903 9.05602 14.4967ZM16 10C16 10.5523 15.5523 11 15 11C14.4477 11 14 10.5523 14 10C14 9.44772 14.4477 9 15 9C15.5523 9 16 9.44772 16 10ZM9 11C9.55228 11 10 10.5523 10 10C10 9.44772 9.55228 9 9 9C8.44772 9 8 9.44772 8 10C8 10.5523 8.44772 11 9 11Z" fill="#23294A"/>
</svg>
