<svg width="24" height="24" viewBox="0 0 24 24" fill="none" xmlns="http://www.w3.org/2000/svg">
<path fill-rule="evenodd" clip-rule="evenodd" d="M15.1059 5.57637C14.1083 5.00505 12.9724 4.71998 11.8232 4.7525C10.674 4.78503 9.55602 5.1339 8.59228 5.76073C7.62854 6.38757 6.85637 7.26808 6.36071 8.3054C5.86505 9.34272 5.66511 10.4967 5.78288 11.6403C5.90066 12.7839 6.33158 13.8728 7.02825 14.7874L5.83503 15.6963C4.97116 14.5623 4.43681 13.212 4.29078 11.7939C4.14474 10.3758 4.39266 8.94497 5.00728 7.65869C5.6219 6.37242 6.57939 5.28058 7.77443 4.50331C8.96946 3.72604 10.3557 3.29344 11.7807 3.2531C13.2057 3.21277 14.6143 3.56626 15.8513 4.2747C17.0884 4.98313 18.1061 6.01906 18.7925 7.26851C19.4789 8.51796 19.8074 9.93253 19.7418 11.3566C19.6762 12.7807 19.2191 14.159 18.4208 15.3401L17.178 14.5001C17.8218 13.5476 18.1905 12.436 18.2434 11.2876C18.2963 10.1391 18.0314 8.99836 17.4779 7.99073C16.9243 6.98311 16.1036 6.14769 15.1059 5.57637Z" fill="#23294A"/>
<path d="M15.3479 16.4114L16.2047 15.0534C16.6467 14.3527 17.573 14.1431 18.2737 14.5851C18.9743 15.0271 19.184 15.9534 18.742 16.6541L17.8852 18.0121C17.4432 18.7128 16.5169 18.9224 15.8162 18.4804C15.1156 18.0384 14.9059 17.1121 15.3479 16.4114Z" fill="#23294A"/>
<path d="M8.33751 15.2681L9.19434 16.6261C9.6364 17.3268 9.4268 18.2531 8.72617 18.6951C8.02555 19.1372 7.09922 18.9276 6.65716 18.227L5.80033 16.869C5.35827 16.1684 5.56787 15.242 6.2685 14.8C6.96912 14.3579 7.89545 14.5675 8.33751 15.2681Z" fill="#23294A"/>
<path fill-rule="evenodd" clip-rule="evenodd" d="M14.876 19.084L15.876 17.584L17.1241 18.416L16.1241 19.916C15.8943 20.2607 15.4286 20.3538 15.084 20.124C14.7393 19.8943 14.6462 19.4286 14.876 19.084Z" fill="#23294A"/>
</svg>
