<svg width="24" height="24" viewBox="0 0 24 24" fill="none" xmlns="http://www.w3.org/2000/svg">
<path fill-rule="evenodd" clip-rule="evenodd" d="M17 17.0002C19.2637 15.1019 21 13.0266 21 10.2136C21 5.49998 15.8248 2.53219 12.1421 5.86758C12.0626 5.93963 11.9374 5.93963 11.8579 5.86758C8.17524 2.53219 3 5.49998 3 10.2136C3 13.0442 4.72535 15.0996 7 17.0002C7.60822 17.5084 8.26194 17.9978 8.92653 18.4953C9.21448 18.7109 9.50447 18.928 9.79369 19.1488C11.0733 20.1258 12.9284 20.1278 14.2086 19.1516C14.479 18.9455 14.7507 18.7418 15.0212 18.5391C15.7015 18.0292 16.3743 17.5249 17 17.0002ZM16.253 7.2413C15.8338 7.10158 15.3808 7.32811 15.2411 7.74726C15.1013 8.16642 15.3279 8.61947 15.747 8.75919L15.824 8.78485C16.3471 8.95923 16.7 9.4488 16.7 10.0002C16.7 10.4421 17.0582 10.8002 17.5 10.8002C17.9418 10.8002 18.3 10.4421 18.3 10.0002C18.3 8.76011 17.5064 7.65912 16.33 7.26696L16.253 7.2413Z" fill="#23294A"/>
</svg>
