<svg width="24" height="24" viewBox="0 0 24 24" fill="none" xmlns="http://www.w3.org/2000/svg">
<path d="M15.7055 7.4481C16.2552 7.01111 16.1907 6.16241 15.5426 5.89216C15.407 5.83562 15.2696 5.78143 15.1305 5.72961C13.1237 4.98206 10.8763 4.98206 8.8695 5.72961C7.07754 6.39712 5.57288 7.45794 4.49946 8.86407C3.10508 10.6906 3.10508 13.3093 4.49946 15.1359C4.50861 15.1479 4.5178 15.1599 4.52702 15.1718C4.84285 15.581 5.43152 15.617 5.83611 15.2953L8.5845 13.11C8.88965 12.8674 9.01116 12.4691 9.00103 12.0794C9.00035 12.053 9 12.0265 9 12C9 10.3431 10.3431 8.99998 12 8.99998C12.2598 8.99998 12.5119 9.03301 12.7523 9.0951C13.1304 9.19273 13.5464 9.16482 13.852 8.92183L15.7055 7.4481Z" fill="#23294A"/>
<path d="M18.7292 7.98488C18.3937 7.65075 17.8626 7.6494 17.492 7.94408L15.2144 9.75495C14.8065 10.0793 14.736 10.6614 14.8814 11.1619C14.9586 11.4279 15 11.7091 15 12C15 13.6568 13.6569 15 12 15C11.4674 15 10.9671 14.8612 10.5335 14.6177C10.0794 14.3628 9.49701 14.3009 9.08938 14.625L7.28249 16.0616C6.76859 16.4702 6.78296 17.2555 7.35653 17.5749C7.83315 17.8404 8.33872 18.0726 8.8695 18.2704C10.8763 19.0179 13.1237 19.0179 15.1305 18.2704C16.9225 17.6028 18.4271 16.542 19.5005 15.1359C20.8949 13.3093 20.8949 10.6906 19.5005 8.86407C19.2639 8.55405 19.0063 8.26082 18.7292 7.98488Z" fill="#23294A"/>
</svg>
