<svg width="24" height="24" viewBox="0 0 24 24" fill="none" xmlns="http://www.w3.org/2000/svg">
<path fill-rule="evenodd" clip-rule="evenodd" d="M19.5 17.9996C19.5 19.1042 18.6046 19.9996 17.5 19.9996H6.5C5.39543 19.9996 4.5 19.1042 4.5 17.9996V10.8687C4.5 10.3143 4.73009 9.78483 5.13536 9.40657L10.6354 4.27324C11.4038 3.55605 12.5962 3.55606 13.3646 4.27324L18.8646 9.40658C19.2699 9.78483 19.5 10.3143 19.5 10.8687V17.9996ZM12 14.9996C13.3807 14.9996 14.5 13.8803 14.5 12.4996C14.5 11.1189 13.3807 9.99958 12 9.99958C10.6193 9.99958 9.5 11.1189 9.5 12.4996C9.5 13.8803 10.6193 14.9996 12 14.9996Z" fill="#23294A"/>
</svg>
