<svg width="24" height="24" viewBox="0 0 24 24" fill="none" xmlns="http://www.w3.org/2000/svg">
<path fill-rule="evenodd" clip-rule="evenodd" d="M21 17.7997C21 20.1193 19.1196 21.9997 16.8 21.9997H7.2C4.8804 21.9997 3 20.1193 3 17.7997V10.4991C3 9.13031 3.66699 7.8474 4.78741 7.06115L9.58741 3.69273C11.0353 2.67664 12.9647 2.67664 14.4126 3.69273L19.2126 7.06115C20.333 7.84741 21 9.13031 21 10.4991V17.7997ZM11.25 18.9997C11.25 19.4139 11.5858 19.7497 12 19.7497C12.4142 19.7497 12.75 19.4139 12.75 18.9997V16.4997C12.75 16.0855 12.4142 15.7497 12 15.7497C11.5858 15.7497 11.25 16.0855 11.25 16.4997V18.9997Z" fill="#23294A"/>
</svg>
