<svg width="24" height="24" viewBox="0 0 24 24" fill="none" xmlns="http://www.w3.org/2000/svg">
<path fill-rule="evenodd" clip-rule="evenodd" d="M7.2 21.9997H16.8C19.1196 21.9997 21 20.1193 21 17.7997V10.4991C21 9.13031 20.333 7.84741 19.2126 7.06115L14.4126 3.69273C12.9647 2.67664 11.0353 2.67664 9.58741 3.69273L4.78741 7.06115C3.66699 7.8474 3 9.13031 3 10.4991V17.7997C3 20.1193 4.8804 21.9997 7.2 21.9997ZM15 19.7497C14.5858 19.7497 14.25 19.4139 14.25 18.9997V16.4997C14.25 16.0855 14.5858 15.7497 15 15.7497C15.4142 15.7497 15.75 16.0855 15.75 16.4997V18.9997C15.75 19.4139 15.4142 19.7497 15 19.7497ZM8.25 18.9997C8.25 19.4139 8.58579 19.7497 9 19.7497C9.41421 19.7497 9.75 19.4139 9.75 18.9997V16.4997C9.75 16.0855 9.41421 15.7497 9 15.7497C8.58579 15.7497 8.25 16.0855 8.25 16.4997V18.9997Z" fill="#23294A"/>
</svg>
