<svg width="24" height="24" viewBox="0 0 24 24" fill="none" xmlns="http://www.w3.org/2000/svg">
<path fill-rule="evenodd" clip-rule="evenodd" d="M16.8 21.9997H7.2C4.8804 21.9997 3 20.1193 3 17.7997V10.4991C3 9.13031 3.66699 7.8474 4.78741 7.06115L9.58741 3.69273C11.0353 2.67664 12.9647 2.67664 14.4126 3.69273L19.2126 7.06115C20.333 7.84741 21 9.13031 21 10.4991V17.7997C21 20.1193 19.1196 21.9997 16.8 21.9997ZM9 17.2497C8.58579 17.2497 8.25 17.5855 8.25 17.9997C8.25 18.4139 8.58579 18.7497 9 18.7497H15C15.4142 18.7497 15.75 18.4139 15.75 17.9997C15.75 17.5855 15.4142 17.2497 15 17.2497H9Z" fill="#23294A"/>
</svg>
