<svg width="24" height="24" viewBox="0 0 24 24" fill="none" xmlns="http://www.w3.org/2000/svg">
<path fill-rule="evenodd" clip-rule="evenodd" d="M3 8C3 5.23858 5.23858 3 8 3H16C18.7614 3 21 5.23858 21 8V16C21 18.7614 18.7614 21 16 21H8C5.23858 21 3 18.7614 3 16V8ZM16.8333 13.3437C16.4583 12.5936 15.3986 12.5642 14.9825 13.2923L13.8204 15.326C12.9862 16.7858 10.9922 17.0529 9.80327 15.8639L9.02223 15.0829C8.5537 14.6144 7.77365 14.6916 7.40611 15.2429L5.62404 17.916C5.39427 18.2607 4.92862 18.3538 4.58397 18.124C4.23933 17.8943 4.1462 17.4286 4.37596 17.084L6.15804 14.4109C7.05064 13.072 8.94503 12.8844 10.0829 14.0222L10.8639 14.8033C11.3535 15.2928 12.1745 15.1829 12.518 14.5817L13.6801 12.5481C14.6906 10.7798 17.2641 10.8512 18.1749 12.6728L19.6708 15.6646C19.8561 16.0351 19.7059 16.4856 19.3354 16.6708C18.9649 16.8561 18.5144 16.7059 18.3292 16.3354L16.8333 13.3437ZM9 10C10.1046 10 11 9.10457 11 8C11 6.89543 10.1046 6 9 6C7.89543 6 7 6.89543 7 8C7 9.10457 7.89543 10 9 10Z" fill="#23294A"/>
</svg>
