<svg width="24" height="24" viewBox="0 0 24 24" fill="none" xmlns="http://www.w3.org/2000/svg">
<path fill-rule="evenodd" clip-rule="evenodd" d="M3 8C3 5.23858 5.23858 3 8 3H16C18.7614 3 21 5.23858 21 8V11.4565C21 11.6347 20.7846 11.7239 20.6586 11.5979L20.1104 11.0497C18.9514 9.89075 17.0423 9.99649 16.0184 11.2764L13.0518 14.9846C12.5366 15.6287 11.5499 15.606 11.0648 14.939L10.0514 13.5456C9.02625 12.136 6.96505 12.0235 5.79258 13.3132L3.26274 16.096C3.16874 16.1994 3 16.1397 3 16V8ZM9 10C10.1046 10 11 9.10457 11 8C11 6.89543 10.1046 6 9 6C7.89543 6 7 6.89543 7 8C7 9.10457 7.89543 10 9 10Z" fill="#23294A"/>
<path d="M20.9697 14.0303C20.9885 14.0491 21 14.0742 21 14.1008V16C21 18.7614 18.7614 21 16 21H8C6.03312 21 4.3315 19.8643 3.51512 18.2129C3.48092 18.1437 3.50304 18.0616 3.55496 18.0045L6.90249 14.3222C7.43543 13.736 8.37234 13.7871 8.83833 14.4278L9.85171 15.8212C10.9189 17.2886 13.0897 17.3385 14.2231 15.9217L17.1898 12.2134C17.6552 11.6316 18.5229 11.5836 19.0497 12.1104L20.9697 14.0303Z" fill="#23294A"/>
</svg>
