<svg width="24" height="24" viewBox="0 0 24 24" fill="none" xmlns="http://www.w3.org/2000/svg">
<path fill-rule="evenodd" clip-rule="evenodd" d="M3 8C3 5.23858 5.23858 3 8 3H16C18.7614 3 21 5.23858 21 8V13.95C21 14.1157 20.8657 14.25 20.7 14.25H3.3C3.13431 14.25 3 14.1157 3 13.95V8ZM10 11.25C9.58579 11.25 9.25 11.5858 9.25 12C9.25 12.4142 9.58579 12.75 10 12.75H14C14.4142 12.75 14.75 12.4142 14.75 12C14.75 11.5858 14.4142 11.25 14 11.25H10Z" fill="#23294A"/>
<path d="M3.00879 16.0499C2.9991 15.8845 3.13431 15.75 3.3 15.75H20.7C20.8657 15.75 21.0009 15.8845 20.9912 16.0499C20.8366 18.6891 18.661 21 16 21H8C5.33895 21 3.16344 18.6891 3.00879 16.0499Z" fill="#23294A"/>
</svg>
