<svg width="24" height="24" viewBox="0 0 24 24" fill="none" xmlns="http://www.w3.org/2000/svg">
<path fill-rule="evenodd" clip-rule="evenodd" d="M3 8C3 5.23858 5.23858 3 8 3H16C18.7614 3 21 5.23858 21 8V11.95C21 12.1157 20.8657 12.25 20.7 12.25H3.3C3.13431 12.25 3 12.1157 3 11.95V8ZM9.25 10C9.25 9.58579 9.58579 9.25 10 9.25H14C14.4142 9.25 14.75 9.58579 14.75 10C14.75 10.4142 14.4142 10.75 14 10.75H10C9.58579 10.75 9.25 10.4142 9.25 10ZM11 6.25C10.5858 6.25 10.25 6.58579 10.25 7C10.25 7.41421 10.5858 7.75 11 7.75H13C13.4142 7.75 13.75 7.41421 13.75 7C13.75 6.58579 13.4142 6.25 13 6.25H11Z" fill="#23294A"/>
<path d="M8.25 14.05C8.25 13.8843 8.11569 13.75 7.95 13.75H3.3C3.13431 13.75 3 13.8843 3 14.05V16C3 18.7614 5.23858 21 8 21H16C18.7614 21 21 18.7614 21 16V14.05C21 13.8843 20.8657 13.75 20.7 13.75H16.05C15.8843 13.75 15.75 13.8843 15.75 14.05V14.5C15.75 16.2949 14.2949 17.75 12.5 17.75H11.5C9.70507 17.75 8.25 16.2949 8.25 14.5V14.05Z" fill="#23294A"/>
<path d="M13.95 13.75C14.1157 13.75 14.25 13.8843 14.25 14.05V14.5C14.25 15.4665 13.4665 16.25 12.5 16.25H11.5C10.5335 16.25 9.75 15.4665 9.75 14.5V14.05C9.75 13.8843 9.88431 13.75 10.05 13.75H13.95Z" fill="#23294A"/>
</svg>
