<svg width="24" height="24" viewBox="0 0 24 24" fill="none" xmlns="http://www.w3.org/2000/svg">
<path fill-rule="evenodd" clip-rule="evenodd" d="M8 3C5.23858 3 3 5.23858 3 8V11.95C3 12.1157 3.13431 12.25 3.3 12.25H6.55848C7.74217 12.25 8.79305 13.0074 9.16736 14.1304L9.25566 14.3953C9.42581 14.9057 9.90348 15.25 10.4415 15.25H13.5585C14.0965 15.25 14.5742 14.9057 14.7443 14.3953L14.8326 14.1304C15.207 13.0074 16.2578 12.25 17.4415 12.25H20.7C20.8657 12.25 21 12.1157 21 11.95V8C21 5.23858 18.7614 3 16 3H8ZM9.25 10C9.25 9.58579 9.58579 9.25 10 9.25H14C14.4142 9.25 14.75 9.58579 14.75 10C14.75 10.4142 14.4142 10.75 14 10.75H10C9.58579 10.75 9.25 10.4142 9.25 10ZM11 6.25C10.5858 6.25 10.25 6.58579 10.25 7C10.25 7.41421 10.5858 7.75 11 7.75H13C13.4142 7.75 13.75 7.41421 13.75 7C13.75 6.58579 13.4142 6.25 13 6.25H11Z" fill="#23294A"/>
<path d="M21 14.05C21 13.8843 20.8657 13.75 20.7 13.75H17.4415C16.9035 13.75 16.4258 14.0943 16.2557 14.6047L16.1674 14.8696C15.793 15.9926 14.7422 16.75 13.5585 16.75H10.4415C9.25783 16.75 8.20695 15.9926 7.83264 14.8696L7.74434 14.6047C7.57419 14.0943 7.09652 13.75 6.55848 13.75H3.3C3.13431 13.75 3 13.8843 3 14.05V16C3 18.7614 5.23858 21 8 21H16C18.7614 21 21 18.7614 21 16V14.05Z" fill="#23294A"/>
</svg>
