<svg width="24" height="24" viewBox="0 0 24 24" fill="none" xmlns="http://www.w3.org/2000/svg">
<path d="M9.88394 5.37545C9.27449 6.53152 8.8426 8.21011 8.51144 10.2351C8.42474 10.7652 8.37739 11.3005 8.36939 11.8363C8.36787 11.9385 8.44515 12.0241 8.54677 12.0344C10.8433 12.2672 13.1574 12.2671 15.4539 12.0344C15.5555 12.0241 15.6328 11.9384 15.6313 11.8363C15.6233 11.3005 15.5759 10.7651 15.4892 10.2351C15.1581 8.21011 14.7262 6.53152 14.1167 5.37545C13.5152 4.23446 12.8303 3.74978 12.0003 3.74978C11.1704 3.74978 10.4855 4.23446 9.88394 5.37545Z" fill="#23294A"/>
<path d="M15.4892 13.7645C15.5083 13.6478 15.4108 13.5461 15.293 13.557C13.1026 13.7596 10.8981 13.7596 8.7076 13.557C8.58987 13.5462 8.49236 13.6478 8.51144 13.7645C8.8426 15.7894 9.27449 17.468 9.88394 18.6241C10.4855 19.7651 11.1704 20.2498 12.0003 20.2498C12.8303 20.2498 13.5152 19.7651 14.1167 18.6241C14.7262 17.468 15.1581 15.7894 15.4892 13.7645Z" fill="#23294A"/>
<path d="M6.64288 11.7874C6.76263 11.8064 6.87085 11.7145 6.87481 11.5933C6.89231 11.0577 6.94441 10.5231 7.0311 9.99296C7.36772 7.93471 7.82939 6.05619 8.55704 4.67593C8.69511 4.41404 8.84586 4.16498 9.01034 3.93317C9.12882 3.76618 8.96727 3.52105 8.77611 3.59441C5.64376 4.79658 3.35413 7.69931 3.03754 11.1723C3.03367 11.2147 3.06634 11.2515 3.10853 11.2577L6.03698 11.6859L6.04786 11.6878C6.24598 11.7228 6.44432 11.756 6.64288 11.7874Z" fill="#23294A"/>
<path d="M3.05646 13.0134C3.04211 12.8854 3.15373 12.7802 3.28117 12.7989L5.79813 13.1669C6.12748 13.2249 6.45745 13.2783 6.78793 13.327C6.87831 13.3403 6.94832 13.4128 6.95937 13.5035C6.97983 13.6716 7.00375 13.8393 7.0311 14.0066C7.36772 16.0648 7.82939 17.9434 8.55704 19.3236C8.69511 19.5855 8.84586 19.8346 9.01034 20.0664C9.12882 20.2334 8.96727 20.4785 8.77612 20.4051C5.6999 19.2245 3.43646 16.4037 3.05646 13.0134Z" fill="#23294A"/>
<path d="M17.0413 13.5034C17.0524 13.4127 17.1224 13.3402 17.2128 13.3269C17.543 13.2782 17.8728 13.2249 18.2019 13.1669L20.7188 12.7989C20.8463 12.7802 20.9579 12.8854 20.9436 13.0134C20.5636 16.4034 18.3006 19.2239 15.2248 20.4048C15.0337 20.4782 14.8721 20.233 14.9906 20.0661C15.155 19.8343 15.3056 19.5854 15.4436 19.3236C16.1713 17.9434 16.633 16.0648 16.9696 14.0066C16.9969 13.8393 17.0209 13.6715 17.0413 13.5034Z" fill="#23294A"/>
<path d="M20.9625 11.1723C20.9663 11.2147 20.9337 11.2515 20.8915 11.2577L17.963 11.6859L17.9522 11.6878C17.7543 11.7227 17.5561 11.7559 17.3578 11.7873C17.2381 11.8063 17.1298 11.7144 17.1259 11.5932C17.1084 11.0577 17.0563 10.523 16.9696 9.99296C16.633 7.93471 16.1713 6.05619 15.4436 4.67593C15.3056 4.41416 15.155 4.16522 14.9906 3.9335C14.8721 3.76651 15.0337 3.52138 15.2248 3.59477C18.3567 4.79716 20.6459 7.69966 20.9625 11.1723Z" fill="#23294A"/>
</svg>
