<svg width="24" height="24" viewBox="0 0 24 24" fill="none" xmlns="http://www.w3.org/2000/svg">
<path d="M7.75 3.20473C7.75 3.14091 7.69093 3.09338 7.6291 3.10921C6.11745 3.49632 5 4.86767 5 6.5V17.5C5 19.433 6.567 21 8.5 21H15.5C17.433 21 19 19.433 19 17.5V6.5C19 4.86766 17.8826 3.49632 16.3709 3.10921C16.3091 3.09338 16.25 3.14091 16.25 3.20473V4C16.25 5.51878 15.0188 6.75 13.5 6.75H10.5C8.98122 6.75 7.75 5.51878 7.75 4V3.20473Z" fill="#23294A"/>
<path d="M14.75 3.1C14.75 3.04477 14.7052 3 14.65 3H9.35C9.29477 3 9.25 3.04477 9.25 3.1V4C9.25 4.69036 9.80964 5.25 10.5 5.25H13.5C14.1904 5.25 14.75 4.69036 14.75 4V3.1Z" fill="#23294A"/>
</svg>
