<svg width="24" height="24" viewBox="0 0 24 24" fill="none" xmlns="http://www.w3.org/2000/svg">
<path fill-rule="evenodd" clip-rule="evenodd" d="M15.5 3H8.5C6.567 3 5 4.567 5 6.5V17.5C5 19.433 6.567 21 8.5 21H15.5C17.433 21 19 19.433 19 17.5V6.5C19 4.567 17.433 3 15.5 3ZM12 19C13.1046 19 14 18.1046 14 17C14 15.8954 13.1046 15 12 15C10.8954 15 10 15.8954 10 17C10 18.1046 10.8954 19 12 19ZM11.25 6C11.25 5.58579 11.5858 5.25 12 5.25H15C15.4142 5.25 15.75 5.58579 15.75 6C15.75 6.41421 15.4142 6.75 15 6.75H12C11.5858 6.75 11.25 6.41421 11.25 6ZM9 7C9.55228 7 10 6.55228 10 6C10 5.44772 9.55228 5 9 5C8.44772 5 8 5.44772 8 6C8 6.55228 8.44772 7 9 7Z" fill="#23294A"/>
</svg>
