<svg width="24" height="24" viewBox="0 0 24 24" fill="none" xmlns="http://www.w3.org/2000/svg">
<path fill-rule="evenodd" clip-rule="evenodd" d="M3 8C3 5.23858 5.23858 3 8 3H16C18.7614 3 21 5.23858 21 8V16C21 18.7614 18.7614 21 16 21H8C5.23858 21 3 18.7614 3 16V8ZM9.98453 12.25C9.8615 13.2366 9.0199 14 8 14C6.89543 14 6 13.1046 6 12C6 10.8954 6.89543 10 8 10C8.6316 10 9.19481 10.2928 9.56134 10.75H17C17.1035 10.75 17.2022 10.771 17.2919 10.8089C17.5611 10.9228 17.75 11.1893 17.75 11.5V13.5C17.75 13.9142 17.4142 14.25 17 14.25C16.5858 14.25 16.25 13.9142 16.25 13.5V12.25H14.75V12.5C14.75 12.9142 14.4142 13.25 14 13.25C13.5858 13.25 13.25 12.9142 13.25 12.5V12.25H9.98453Z" fill="#23294A"/>
</svg>
