<svg width="24" height="24" viewBox="0 0 24 24" fill="none" xmlns="http://www.w3.org/2000/svg">
<path fill-rule="evenodd" clip-rule="evenodd" d="M18 6H6C4.34315 6 3 7.34315 3 9V15C3 16.6569 4.34315 18 6 18H18C19.6569 18 21 16.6569 21 15V9C21 7.34315 19.6569 6 18 6ZM17 8.25C16.5858 8.25 16.25 8.58579 16.25 9C16.25 9.41421 16.5858 9.75 17 9.75H18C18.4142 9.75 18.75 9.41421 18.75 9C18.75 8.58579 18.4142 8.25 18 8.25H17ZM5.25 9C5.25 8.58579 5.58579 8.25 6 8.25H7C7.41421 8.25 7.75 8.58579 7.75 9C7.75 9.41421 7.41421 9.75 7 9.75H6C5.58579 9.75 5.25 9.41421 5.25 9ZM14 10C14.5523 10 15 9.55228 15 9C15 8.44772 14.5523 8 14 8C13.4477 8 13 8.44772 13 9C13 9.55228 13.4477 10 14 10ZM19 15C19 15.5523 18.5523 16 18 16C17.4477 16 17 15.5523 17 15C17 14.4477 17.4477 14 18 14C18.5523 14 19 14.4477 19 15ZM6 16C6.55228 16 7 15.5523 7 15C7 14.4477 6.55228 14 6 14C5.44772 14 5 14.4477 5 15C5 15.5523 5.44772 16 6 16ZM11 9C11 9.55228 10.5523 10 10 10C9.44772 10 9 9.55228 9 9C9 8.44772 9.44772 8 10 8C10.5523 8 11 8.44772 11 9ZM9 14.25C8.58579 14.25 8.25 14.5858 8.25 15C8.25 15.4142 8.58579 15.75 9 15.75H15C15.4142 15.75 15.75 15.4142 15.75 15C15.75 14.5858 15.4142 14.25 15 14.25H9Z" fill="#23294A"/>
</svg>
