<svg width="24" height="24" viewBox="0 0 24 24" fill="none" xmlns="http://www.w3.org/2000/svg">
<path fill-rule="evenodd" clip-rule="evenodd" d="M12.9168 20.0708L13.7653 19.5051C14.7859 18.8248 15.7368 18.0452 16.6042 17.1779L17.4239 16.3582C17.84 15.942 18.213 15.4759 18.5289 14.9794C20.4838 11.9074 20.0681 7.85017 17.4933 5.27543C14.4594 2.24152 9.5405 2.24152 6.5066 5.27543C3.93186 7.85017 3.51612 11.9074 5.471 14.9794C5.78697 15.4759 6.15992 15.942 6.57608 16.3582L7.39578 17.1779C8.26312 18.0452 9.21401 18.8248 10.2346 19.5051L11.0831 20.0708C11.6383 20.441 12.3616 20.441 12.9168 20.0708ZM12 12.782C10.3431 12.782 8.99997 11.4389 8.99997 9.78204C8.99998 8.1252 10.3431 6.78206 12 6.78206C13.6568 6.78206 15 8.1252 15 9.78205C15 11.4389 13.6568 12.782 12 12.782Z" fill="#23294A"/>
</svg>
