<svg width="24" height="24" viewBox="0 0 24 24" fill="none" xmlns="http://www.w3.org/2000/svg">
<path fill-rule="evenodd" clip-rule="evenodd" d="M7.625 18C6.17525 18 5 16.6569 5 15V11C5 9.34315 6.17525 8 7.625 8H16.375C17.8247 8 19 9.34315 19 11V15C19 16.6569 17.8247 18 16.375 18H7.625ZM12.75 13C12.75 12.5858 12.4142 12.25 12 12.25C11.5858 12.25 11.25 12.5858 11.25 13V15C11.25 15.4142 11.5858 15.75 12 15.75C12.4142 15.75 12.75 15.4142 12.75 15V13Z" fill="#23294A"/>
<path d="M12.4615 3H11.5385C9.58422 3 8 4.58422 8 6.53846C8 6.79336 8.20664 7 8.46154 7H15.5385C15.7934 7 16 6.79336 16 6.53846C16 4.58422 14.4158 3 12.4615 3Z" fill="#23294A"/>
</svg>
