<svg width="24" height="24" viewBox="0 0 24 24" fill="none" xmlns="http://www.w3.org/2000/svg">
<path d="M6 7.2V11.25L11.1893 11.25L10.4697 10.5303C10.1768 10.2374 10.1768 9.76256 10.4697 9.46967C10.7626 9.17678 11.2374 9.17678 11.5303 9.46967L13.3889 11.3282C13.7599 11.6992 13.7599 12.3008 13.3889 12.6718L11.5303 14.5303C11.2374 14.8232 10.7626 14.8232 10.4697 14.5303C10.1768 14.2374 10.1768 13.7626 10.4697 13.4697L11.1893 12.75L6 12.75V16.8C6 19.1196 7.8804 21 10.2 21H14.8C17.1196 21 19 19.1196 19 16.8V7.2C19 4.8804 17.1196 3 14.8 3H10.2C7.8804 3 6 4.8804 6 7.2Z" fill="#23294A"/>
<path fill-rule="evenodd" clip-rule="evenodd" d="M2.25 12C2.25 11.5858 2.58579 11.25 3 11.25H6.25V12.75H3C2.58579 12.75 2.25 12.4142 2.25 12Z" fill="#23294A"/>
</svg>
