<svg width="24" height="24" viewBox="0 0 24 24" fill="none" xmlns="http://www.w3.org/2000/svg">
<path d="M17 16.8C17 19.1196 15.1196 21 12.8 21H8.2C5.8804 21 4 19.1196 4 16.8V7.2C4 4.88041 5.8804 3 8.2 3H12.8C15.1196 3 17 4.8804 17 7.2V11.25H12C11.5858 11.25 11.25 11.5858 11.25 12C11.25 12.4142 11.5858 12.75 12 12.75H17V16.8Z" fill="#23294A"/>
<path fill-rule="evenodd" clip-rule="evenodd" d="M16.25 11.25L20.75 11.25L20.75 12.75L16.25 12.75L16.25 11.25Z" fill="#23294A"/>
<path fill-rule="evenodd" clip-rule="evenodd" d="M18.4697 9.46967C18.7626 9.17678 19.2374 9.17678 19.5303 9.46967L21.3889 11.3282C21.7599 11.6992 21.7599 12.3008 21.3889 12.6718L19.5303 14.5303C19.2374 14.8232 18.7626 14.8232 18.4697 14.5303C18.1768 14.2374 18.1768 13.7626 18.4697 13.4697L19.9393 12L18.4697 10.5303C18.1768 10.2374 18.1768 9.76256 18.4697 9.46967Z" fill="#23294A"/>
</svg>
