<svg width="24" height="24" viewBox="0 0 24 24" fill="none" xmlns="http://www.w3.org/2000/svg">
<path d="M6.39663 14.7642L12.0151 9.01858C12.8325 8.18268 14.1751 8.17517 15.0018 9.00187C15.8271 9.82716 15.8213 11.167 14.9888 11.985L9.25674 17.6174C8.4659 18.3945 7.19652 18.3889 6.41252 17.6049C5.62988 16.8223 5.62279 15.5556 6.39663 14.7642Z" fill="#23294A"/>
<path fill-rule="evenodd" clip-rule="evenodd" d="M11.8181 2.77257C12.2199 2.67211 12.6271 2.91643 12.7276 3.31828L13.2276 5.31828C13.3281 5.72012 13.0837 6.12732 12.6819 6.22778C12.28 6.32825 11.8728 6.08393 11.7724 5.68208L11.2724 3.68208C11.1719 3.28023 11.4162 2.87303 11.8181 2.77257Z" fill="#23294A"/>
<path fill-rule="evenodd" clip-rule="evenodd" d="M17.0102 3.25526C17.4161 3.33758 17.6785 3.7334 17.5961 4.13935L17.1864 6.15978C17.1041 6.56573 16.7083 6.82808 16.3023 6.74576C15.8964 6.66343 15.634 6.26761 15.7163 5.86166L16.1261 3.84123C16.2084 3.43528 16.6042 3.17293 17.0102 3.25526Z" fill="#23294A"/>
<path fill-rule="evenodd" clip-rule="evenodd" d="M21.7219 7.79914C21.8328 8.19822 21.5992 8.61168 21.2002 8.72262L19.2139 9.2748C18.8149 9.38575 18.4014 9.15217 18.2904 8.75309C18.1795 8.35402 18.4131 7.94056 18.8122 7.82961L20.7984 7.27743C21.1975 7.16648 21.6109 7.40006 21.7219 7.79914Z" fill="#23294A"/>
<path fill-rule="evenodd" clip-rule="evenodd" d="M21.7097 12.1847C21.5992 12.5839 21.1861 12.818 20.7869 12.7075L18.7999 12.1579C18.4007 12.0474 18.1666 11.6343 18.2771 11.235C18.3875 10.8358 18.8007 10.6017 19.1999 10.7122L21.1868 11.2618C21.586 11.3723 21.8201 11.7854 21.7097 12.1847Z" fill="#23294A"/>
</svg>
