<svg width="24" height="24" viewBox="0 0 24 24" fill="none" xmlns="http://www.w3.org/2000/svg">
<path d="M9 6H15C15.5523 6 16 5.55228 16 5V4C16 3.44772 15.5523 3 15 3H9C8.44772 3 8 3.44772 8 4V5C8 5.55228 8.44772 6 9 6Z" fill="#23294A"/>
<path fill-rule="evenodd" clip-rule="evenodd" d="M15.5 21H8.5C7.39543 21 6.5 20.1046 6.5 19V12.8284C6.5 12.298 6.71071 11.7893 7.08579 11.4142L8.41421 10.0858C8.78929 9.71071 9 9.20201 9 8.67157V6C9 5.72386 9.22386 5.5 9.5 5.5H14.5C14.7761 5.5 15 5.72386 15 6V8.67157C15 9.20201 15.2107 9.71071 15.5858 10.0858L16.9142 11.4142C17.2893 11.7893 17.5 12.298 17.5 12.8284V19C17.5 20.1046 16.6046 21 15.5 21ZM13.0981 13.0412L12.5446 13.3732C11.913 13.7522 11.1147 13.7111 10.5254 13.2691L10.3211 13.1158C9.82905 12.7468 9.15776 12.7282 8.64599 13.0693C8.24241 13.3384 8 13.7913 8 14.2764V17C8 18.1046 8.89543 19 10 19H14C15.1046 19 16 18.1046 16 17V14.6842C16 13.9585 15.5899 13.295 14.9408 12.9704C14.3548 12.6774 13.6598 12.7041 13.0981 13.0412Z" fill="#23294A"/>
</svg>
