<svg width="24" height="24" viewBox="0 0 24 24" fill="none" xmlns="http://www.w3.org/2000/svg">
<path d="M7.8 6H16.2C18.2987 6 20 7.70132 20 9.8V13.2C20 15.2987 18.2987 17 16.2 17H7.8C5.70132 17 4 15.2987 4 13.2V9.8C4 7.70132 5.70132 6 7.8 6Z" fill="#23294A"/>
<path fill-rule="evenodd" clip-rule="evenodd" d="M6.25 20C6.25 19.5858 6.58579 19.25 7 19.25H17C17.4142 19.25 17.75 19.5858 17.75 20C17.75 20.4142 17.4142 20.75 17 20.75H7C6.58579 20.75 6.25 20.4142 6.25 20Z" fill="#23294A"/>
<path fill-rule="evenodd" clip-rule="evenodd" d="M10 16.25C10.4142 16.25 10.75 16.5858 10.75 17V20C10.75 20.4142 10.4142 20.75 10 20.75C9.58579 20.75 9.25 20.4142 9.25 20V17C9.25 16.5858 9.58579 16.25 10 16.25ZM14 16.25C14.4142 16.25 14.75 16.5858 14.75 17V20C14.75 20.4142 14.4142 20.75 14 20.75C13.5858 20.75 13.25 20.4142 13.25 20V17C13.25 16.5858 13.5858 16.25 14 16.25Z" fill="#23294A"/>
</svg>
