<svg width="24" height="24" viewBox="0 0 24 24" fill="none" xmlns="http://www.w3.org/2000/svg">
<path d="M13.4148 5.14305C13.8417 5.23068 13.8904 5.80784 13.5605 6.09267C12.6048 6.91785 12 8.13829 12 9.5C12 11.9853 14.0147 14 16.5 14C16.9663 14 17.4161 13.9291 17.8391 13.7974C18.2554 13.6678 18.7203 14.0137 18.5694 14.4227C17.5837 17.0947 15.0143 19 12 19C8.13401 19 5 15.866 5 12C5 8.13401 8.13401 5 12 5C12.4847 5 12.9579 5.04926 13.4148 5.14305Z" fill="#23294A"/>
<path d="M18.0782 5.66319C18.2747 5.35446 18.7253 5.35446 18.9218 5.66319L19.4126 6.43439C19.4519 6.49612 19.5043 6.54847 19.566 6.58776L20.3372 7.07856C20.6459 7.27504 20.6459 7.72572 20.3372 7.9222L19.566 8.41301C19.5043 8.45229 19.4519 8.50465 19.4126 8.56637L18.9218 9.33758C18.7253 9.6463 18.2747 9.6463 18.0782 9.33758L17.5874 8.56637C17.5481 8.50465 17.4957 8.45229 17.434 8.41301L16.6628 7.9222C16.3541 7.72572 16.3541 7.27504 16.6628 7.07856L17.434 6.58776C17.4957 6.54847 17.5481 6.49612 17.5874 6.43439L18.0782 5.66319Z" fill="#23294A"/>
</svg>
