<svg width="24" height="24" viewBox="0 0 24 24" fill="none" xmlns="http://www.w3.org/2000/svg">
<path fill-rule="evenodd" clip-rule="evenodd" d="M12 21C16.9706 21 21 16.9706 21 12C21 7.02944 16.9706 3 12 3C7.02944 3 3 7.02944 3 12C3 16.9706 7.02944 21 12 21ZM9.96639 8.04605L15.4023 10.0085C16.7288 10.4874 16.7212 12.3661 15.3909 12.8343L14.1782 13.2612C13.7494 13.4121 13.4122 13.7493 13.2613 14.1781L12.8344 15.3908C12.3662 16.7211 10.4875 16.7287 10.0086 15.4022L8.04616 9.96628C7.61475 8.77129 8.7714 7.61463 9.96639 8.04605Z" fill="#23294A"/>
</svg>
