<svg width="24" height="24" viewBox="0 0 24 24" fill="none" xmlns="http://www.w3.org/2000/svg">
<path fill-rule="evenodd" clip-rule="evenodd" d="M17.9222 8.58824C17.9222 6.05422 15.9558 3 11.9999 3C8.0441 3 5.9844 6.05422 5.9844 8.58824V11.1677C5.9844 11.568 5.8799 11.9614 5.68123 12.309L5.39458 12.8105C4.32764 14.6772 5.67545 17 7.8255 17H16.0993C18.266 17 19.6116 14.6447 18.5114 12.7782L18.2408 12.3191C18.0322 11.9653 17.9222 11.562 17.9222 11.1512V8.58824ZM12.7499 6C12.7499 5.58579 12.4142 5.25 11.9999 5.25C11.5857 5.25 11.2499 5.58579 11.2499 6V8C11.2499 8.41421 11.5857 8.75 11.9999 8.75C12.4142 8.75 12.7499 8.41421 12.7499 8V6Z" fill="#23294A"/>
<path fill-rule="evenodd" clip-rule="evenodd" d="M9.25 19.5C9.25 19.0858 9.58579 18.75 10 18.75H14C14.4142 18.75 14.75 19.0858 14.75 19.5C14.75 19.9142 14.4142 20.25 14 20.25H10C9.58579 20.25 9.25 19.9142 9.25 19.5Z" fill="#23294A"/>
</svg>
