<svg width="24" height="24" viewBox="0 0 24 24" fill="none" xmlns="http://www.w3.org/2000/svg">
<path fill-rule="evenodd" clip-rule="evenodd" d="M17.9223 8.58824C17.9223 6.05422 15.9559 3 12 3C8.04416 3 5.98446 6.05422 5.98446 8.58824V11.1677C5.98446 11.568 5.87996 11.9614 5.68129 12.309L5.39464 12.8105C4.3277 14.6772 5.67551 17 7.82556 17H16.0993C18.266 17 19.6117 14.6447 18.5115 12.7782L18.2409 12.3191C18.0323 11.9653 17.9223 11.562 17.9223 11.1512V8.58824ZM12.75 6C12.75 5.58579 12.4142 5.25 12 5.25C11.5858 5.25 11.25 5.58579 11.25 6V8C11.25 8.41421 11.5858 8.75 12 8.75C12.4142 8.75 12.75 8.41421 12.75 8V6Z" fill="#23294A"/>
<path fill-rule="evenodd" clip-rule="evenodd" d="M9.32919 18.6648C9.51443 18.2943 9.96494 18.1441 10.3354 18.3293C11.3833 18.8533 12.6167 18.8533 13.6646 18.3293C14.0351 18.1441 14.4856 18.2943 14.6708 18.6648C14.8561 19.0352 14.7059 19.4857 14.3354 19.671C12.8652 20.4061 11.1348 20.4061 9.6646 19.671C9.29412 19.4857 9.14395 19.0352 9.32919 18.6648Z" fill="#23294A"/>
</svg>
