<svg width="24" height="24" viewBox="0 0 24 24" fill="none" xmlns="http://www.w3.org/2000/svg">
<path d="M11.9999 3C15.9558 3 17.9222 6.05422 17.9222 8.58824V11.1512C17.9222 11.562 18.0322 11.9653 18.2408 12.3191L18.6826 13.2974C18.8735 13.7202 18.7828 14.2171 18.4547 14.5452C18.2017 14.7981 17.7932 14.8031 17.5341 14.5564L8.33878 5.79896C7.89674 5.37796 7.91631 4.64379 8.38469 4.25232C8.77492 3.92618 9.18507 3.60449 9.4302 3.5C10.1707 3.18433 11.0281 3 11.9999 3Z" fill="#23294A"/>
<path d="M5.39458 12.8105L5.68123 12.309C5.8799 11.9614 5.9844 11.568 5.9844 11.1677V6.70145C5.9844 6.43747 6.30074 6.30218 6.49162 6.48452L16.9587 16.4831C17.1544 16.67 17.0221 17 16.7515 17H7.8255C5.67545 17 4.32764 14.6772 5.39458 12.8105Z" fill="#23294A"/>
<path fill-rule="evenodd" clip-rule="evenodd" d="M9.25 19.5C9.25 19.0858 9.58579 18.75 10 18.75H14C14.4142 18.75 14.75 19.0858 14.75 19.5C14.75 19.9142 14.4142 20.25 14 20.25H10C9.58579 20.25 9.25 19.9142 9.25 19.5Z" fill="#23294A"/>
<path fill-rule="evenodd" clip-rule="evenodd" d="M2.95385 2.98598C3.23774 2.68435 3.7124 2.66996 4.01403 2.95385L21.014 18.9539C21.3157 19.2377 21.33 19.7124 21.0462 20.014C20.7623 20.3157 20.2876 20.33 19.986 20.0462L2.98598 4.04615C2.68435 3.76226 2.66996 3.28761 2.95385 2.98598Z" fill="#23294A"/>
</svg>
