<svg width="24" height="24" viewBox="0 0 24 24" fill="none" xmlns="http://www.w3.org/2000/svg">
<path fill-rule="evenodd" clip-rule="evenodd" d="M21 12C21 16.9706 16.9706 21 12 21C7.02944 21 3 16.9706 3 12C3 7.02944 7.02944 3 12 3C16.9706 3 21 7.02944 21 12ZM14 8.5H15C15.5523 8.5 16 8.94772 16 9.5V14.5C16 15.0523 15.5523 15.5 15 15.5H14C13.4477 15.5 13 15.0523 13 14.5V9.5C13 8.94772 13.4477 8.5 14 8.5ZM10 8.5H9C8.44772 8.5 8 8.94772 8 9.5V14.5C8 15.0523 8.44772 15.5 9 15.5H10C10.5523 15.5 11 15.0523 11 14.5V9.5C11 8.94772 10.5523 8.5 10 8.5Z" fill="#23294A"/>
</svg>
