<svg width="24" height="24" viewBox="0 0 24 24" fill="none" xmlns="http://www.w3.org/2000/svg">
<path fill-rule="evenodd" clip-rule="evenodd" d="M14.8882 4.99669L4.64769 15.2372C4.48235 15.4025 4.37548 15.6173 4.3433 15.8489L3.88373 19.1567C3.81069 19.6824 4.26049 20.1322 4.78621 20.0592L8.09397 19.5996C8.32557 19.5674 8.54035 19.4605 8.70569 19.2952L18.9462 9.05469C20.0668 7.9341 20.0668 6.11727 18.9462 4.99669C17.8256 3.8761 16.0088 3.8761 14.8882 4.99669ZM14.4696 8.46983C14.1767 8.76272 14.1767 9.2376 14.4696 9.53049C14.7625 9.82338 15.2374 9.82338 15.5303 9.53049L16.5303 8.53049C16.8232 8.2376 16.8232 7.76272 16.5303 7.46983C16.2374 7.17694 15.7625 7.17694 15.4696 7.46983L14.4696 8.46983Z" fill="#23294A"/>
</svg>
