<svg width="24" height="24" viewBox="0 0 24 24" fill="none" xmlns="http://www.w3.org/2000/svg">
<path d="M13.8168 6.87721C13.6616 6.722 13.4104 6.72081 13.2537 6.87455L5.35159 14.6304C5.19243 14.7866 5.08895 14.9908 5.05704 15.2115L4.60903 18.3102C4.53344 18.833 4.97633 19.2843 5.50046 19.2184L8.607 18.8284C8.82827 18.8006 9.03431 18.701 9.19347 18.5448L17.1265 10.7586C17.2851 10.6029 17.2864 10.3476 17.1291 10.1903L13.8168 6.87721Z" fill="#23294A"/>
<path d="M14.8953 5.26339C14.7366 5.41915 14.7354 5.67443 14.8926 5.83168L18.2049 9.14481C18.3601 9.30002 18.6114 9.30121 18.768 9.14748L18.9766 8.94269C20.0576 7.88179 20.0738 6.1455 19.0129 5.06458C17.952 3.98367 16.2157 3.96745 15.1348 5.02835L14.8953 5.26339Z" fill="#23294A"/>
</svg>
