<svg width="24" height="24" viewBox="0 0 24 24" fill="none" xmlns="http://www.w3.org/2000/svg">
<path d="M13.763 9.21134L16.6923 13.4066C17.892 15.1247 17.7121 17.4508 16.2626 18.9641C14.5832 20.7175 11.8004 20.7774 10.0471 19.098C8.53373 17.6485 8.2539 15.3323 9.37847 13.5641L12.1244 9.24664C12.5016 8.65358 13.3607 8.63508 13.763 9.21134Z" fill="#23294A"/>
<path d="M18.1551 4.52373L19.4217 6.33784C19.9405 7.0808 19.8627 8.08664 19.2359 8.74104C18.5097 9.49922 17.3064 9.52514 16.5482 8.79893C15.8938 8.17213 15.7728 7.17057 16.2591 6.40596L17.4465 4.539C17.6096 4.28255 17.9811 4.27455 18.1551 4.52373Z" fill="#23294A"/>
<path d="M6.52994 3.8262L8.52677 6.68604C9.34457 7.85728 9.22197 9.44293 8.23386 10.4745C7.08903 11.6698 5.19204 11.7106 3.99681 10.5658C2.9652 9.57769 2.77444 7.99879 3.54105 6.79343L5.41288 3.85027C5.67 3.44599 6.25566 3.43337 6.52994 3.8262Z" fill="#23294A"/>
</svg>
