<svg width="24" height="24" viewBox="0 0 24 24" fill="none" xmlns="http://www.w3.org/2000/svg">
<path fill-rule="evenodd" clip-rule="evenodd" d="M12.786 5.79963C11.5264 5.63995 10.248 5.8677 9.12103 6.45257C7.99405 7.03745 7.07193 7.9517 6.47743 9.07364C5.88292 10.1956 5.64423 11.472 5.79313 12.7329C5.94202 13.9939 6.47144 15.1796 7.31091 16.1322C8.15038 17.0848 9.26008 17.7591 10.4923 18.0654C11.7245 18.3717 13.0208 18.2955 14.2086 17.8468C15.3964 17.3981 16.4193 16.5983 17.1413 15.5538C17.8633 14.5093 18.25 13.2697 18.25 12C18.25 11.5858 18.5858 11.25 19 11.25C19.4142 11.25 19.75 11.5858 19.75 12C19.75 13.5745 19.2705 15.1116 18.3752 16.4067C17.48 17.7019 16.2115 18.6936 14.7386 19.25C13.2658 19.8064 11.6584 19.9009 10.1304 19.5211C8.6025 19.1413 7.22647 18.3051 6.18553 17.1239C5.14459 15.9427 4.48811 14.4724 4.30348 12.9088C4.11885 11.3452 4.41482 9.76251 5.15201 8.37131C5.8892 6.98011 7.03262 5.84643 8.43008 5.12119C9.82754 4.39594 11.4128 4.11353 12.9747 4.31154C13.3856 4.36364 13.6765 4.73899 13.6244 5.14991C13.5723 5.56084 13.197 5.85173 12.786 5.79963Z" fill="#23294A"/>
<path fill-rule="evenodd" clip-rule="evenodd" d="M11.4697 2.46967C11.7626 2.17678 12.2374 2.17678 12.5303 2.46967L14.1768 4.11612C14.6649 4.60427 14.6649 5.39573 14.1768 5.88388L12.5303 7.53033C12.2374 7.82322 11.7626 7.82322 11.4697 7.53033C11.1768 7.23744 11.1768 6.76256 11.4697 6.46967L12.9393 5L11.4697 3.53033C11.1768 3.23744 11.1768 2.76256 11.4697 2.46967Z" fill="#23294A"/>
</svg>
