<svg width="24" height="24" viewBox="0 0 24 24" fill="none" xmlns="http://www.w3.org/2000/svg">
<path fill-rule="evenodd" clip-rule="evenodd" d="M12 21C16.9706 21 21 16.9706 21 12C21 7.02944 16.9706 3 12 3C7.02944 3 3 7.02944 3 12C3 16.9706 7.02944 21 12 21ZM14.9431 17.1691L14.9362 17.1617C14.9286 17.1536 14.9156 17.14 14.8975 17.1216C14.8612 17.0848 14.8047 17.0293 14.7299 16.9613C14.5795 16.8246 14.359 16.6408 14.084 16.4575C13.5241 16.0842 12.7949 15.7501 12 15.7501C11.2051 15.7501 10.4759 16.0842 9.91603 16.4575C9.64098 16.6408 9.42049 16.8246 9.27013 16.9613C9.19529 17.0293 9.13875 17.0848 9.10249 17.1216C9.08438 17.14 9.07141 17.1536 9.0638 17.1617L9.05689 17.1691C8.77972 17.4764 8.30595 17.5011 7.99828 17.2242C7.69039 16.9471 7.66544 16.4729 7.94253 16.165L8.5 16.6667C7.94253 16.165 7.94236 16.1652 7.94253 16.165L7.94325 16.1642L7.94411 16.1633L7.94626 16.1609L7.95224 16.1544L7.97086 16.1343C7.98621 16.118 8.00741 16.0958 8.03423 16.0686C8.08781 16.0143 8.16409 15.9396 8.26112 15.8514C8.45451 15.6756 8.73402 15.4427 9.08397 15.2094C9.77415 14.7493 10.7949 14.2501 12 14.2501C13.2051 14.2501 14.2259 14.7493 14.916 15.2094C15.266 15.4427 15.5455 15.6756 15.7389 15.8514C15.8359 15.9396 15.9122 16.0143 15.9658 16.0686C15.9926 16.0958 16.0138 16.118 16.0291 16.1343L16.0478 16.1544L16.0537 16.1609L16.0559 16.1633L16.0568 16.1642C16.0569 16.1644 16.0575 16.165 15.5 16.6667L16.0575 16.165C16.3346 16.4729 16.3096 16.9471 16.0017 17.2242C15.6944 17.5008 15.2213 17.4764 14.944 17.1701L14.9431 17.1691ZM16 10C16 10.5523 15.5523 11 15 11C14.4477 11 14 10.5523 14 10C14 9.44772 14.4477 9 15 9C15.5523 9 16 9.44772 16 10ZM9 11C9.55228 11 10 10.5523 10 10C10 9.44772 9.55228 9 9 9C8.44772 9 8 9.44772 8 10C8 10.5523 8.44772 11 9 11Z" fill="#23294A"/>
</svg>
