<svg width="24" height="24" viewBox="0 0 24 24" fill="none" xmlns="http://www.w3.org/2000/svg">
<path d="M3 8C3 5.23858 5.23858 3 8 3H8.75C9.02614 3 9.25 3.22386 9.25 3.5V20.5C9.25 20.7761 9.02614 21 8.75 21H8C5.23858 21 3 18.7614 3 16V8Z" fill="#23294A"/>
<path d="M10.75 20.5C10.75 20.7761 10.9739 21 11.25 21H16C18.7614 21 21 18.7614 21 16V13.25C21 12.9739 20.7761 12.75 20.5 12.75L11.25 12.75C10.9739 12.75 10.75 12.9739 10.75 13.25V20.5Z" fill="#23294A"/>
<path d="M10.75 10.75C10.75 11.0261 10.9739 11.25 11.25 11.25L20.5 11.25C20.7761 11.25 21 11.0261 21 10.75V8C21 5.23858 18.7614 3 16 3H11.25C10.9739 3 10.75 3.22386 10.75 3.5V10.75Z" fill="#23294A"/>
</svg>
