<svg width="24" height="24" viewBox="0 0 24 24" fill="none" xmlns="http://www.w3.org/2000/svg">
<path fill-rule="evenodd" clip-rule="evenodd" d="M17.9577 6.24989L13.5323 3.83605C12.5772 3.31507 11.4228 3.31507 10.4677 3.83605L6.0423 6.24989C5.39977 6.60036 5 7.27379 5 8.00568V12.7515C5 15.168 6.24631 17.4135 8.29694 18.6918C10.5635 20.1047 13.4365 20.1047 15.7031 18.6918C17.7537 17.4135 19 15.168 19 12.7515V8.00568C19 7.27379 18.6002 6.60036 17.9577 6.24989ZM11.25 12.4592C11.25 12.4155 11.2215 12.3771 11.1803 12.3627C10.2022 12.0234 9.5 11.0938 9.5 10.0002C9.5 8.61952 10.6193 7.50023 12 7.50023C13.3807 7.50023 14.5 8.61952 14.5 10.0002C14.5 11.0938 13.7978 12.0234 12.8197 12.3627C12.7785 12.3771 12.75 12.4155 12.75 12.4592V16.0002C12.75 16.4144 12.4142 16.7502 12 16.7502C11.5858 16.7502 11.25 16.4144 11.25 16.0002V12.4592Z" fill="#23294A"/>
</svg>
