<svg width="24" height="24" viewBox="0 0 24 24" fill="none" xmlns="http://www.w3.org/2000/svg">
<path fill-rule="evenodd" clip-rule="evenodd" d="M12.5041 4C13.3587 4 14.0795 4.63634 14.1855 5.4843L14.2116 5.69267C14.2709 6.16703 14.5883 6.56434 15.002 6.80388C15.4162 7.04366 15.9151 7.11727 16.356 6.93126L16.5498 6.84948C17.3373 6.51726 18.2489 6.82338 18.6762 7.56354L19.1796 8.43549C19.6073 9.1762 19.4165 10.1194 18.7345 10.6356L18.5674 10.7621C18.1861 11.0508 18 11.5218 18 12C18 12.4783 18.1861 12.9494 18.5675 13.2381L18.7344 13.3645C19.4163 13.8807 19.6071 14.8238 19.1795 15.5645L18.676 16.4365C18.2487 17.1767 17.3371 17.4828 16.5497 17.1506L16.3558 17.0688C15.915 16.8828 15.4161 16.9564 15.002 17.1961C14.5883 17.4357 14.2709 17.8329 14.2116 18.3073L14.1855 18.5157C14.0795 19.3637 13.3587 20 12.5041 20H11.4958C10.6413 20 9.92044 19.3637 9.81444 18.5157L9.7884 18.3073C9.7291 17.833 9.41164 17.4357 8.99793 17.1961C8.5838 16.9563 8.08486 16.8827 7.64396 17.0687L7.45015 17.1505C6.66271 17.4827 5.75112 17.1766 5.32379 16.4365L4.82035 15.5645C4.39271 14.8238 4.58354 13.8806 5.26547 13.3644L5.43254 13.2379C5.81386 12.9492 5.99998 12.4783 5.99998 12C5.99998 11.5218 5.8139 11.051 5.43265 10.7624L5.2654 10.6358C4.58342 10.1195 4.39257 9.17624 4.82025 8.43548L5.32362 7.56362C5.75095 6.82346 6.66256 6.51733 7.45001 6.84956L7.64377 6.93131C8.08472 7.11734 8.58371 7.04372 8.99788 6.80391C9.41162 6.56435 9.7291 6.16701 9.7884 5.69261L9.81444 5.4843C9.92044 4.63634 10.6413 4 11.4958 4H12.5041ZM12 14.5C13.3807 14.5 14.5 13.3807 14.5 12C14.5 10.6193 13.3807 9.5 12 9.5C10.6193 9.5 9.49997 10.6193 9.49997 12C9.49997 13.3807 10.6193 14.5 12 14.5Z" fill="#23294A"/>
</svg>
