<svg width="24" height="24" viewBox="0 0 24 24" fill="none" xmlns="http://www.w3.org/2000/svg">
<path fill-rule="evenodd" clip-rule="evenodd" d="M13.25 4.72166C12.4765 4.27507 11.5235 4.27507 10.75 4.72166L6.32181 7.27828C5.54831 7.72486 5.07181 8.55018 5.07181 9.44334V14.5566C5.07181 15.4498 5.54831 16.2751 6.32181 16.7217L10.75 19.2783C11.5235 19.7249 12.4765 19.7249 13.25 19.2783L17.6782 16.7217C18.4517 16.2751 18.9282 15.4498 18.9282 14.5566V9.44334C18.9282 8.55018 18.4517 7.72486 17.6782 7.27828L13.25 4.72166ZM12 14.5C13.3807 14.5 14.5 13.3807 14.5 12C14.5 10.6193 13.3807 9.49997 12 9.49997C10.6193 9.49997 9.50001 10.6193 9.50001 12C9.50001 13.3807 10.6193 14.5 12 14.5Z" fill="#23294A"/>
</svg>
