<svg width="24" height="24" viewBox="0 0 24 24" fill="none" xmlns="http://www.w3.org/2000/svg">
<path fill-rule="evenodd" clip-rule="evenodd" d="M13.4319 4.8802C12.7115 3.93447 11.2885 3.93446 10.5681 4.8802L9.9001 5.75715C9.55111 6.21532 9.00395 6.47882 8.42815 6.46601L7.32604 6.44149C6.13749 6.41504 5.25021 7.52765 5.54047 8.68051L5.80962 9.74954C5.95024 10.3081 5.8151 10.9001 5.44608 11.3423L4.73975 12.1887C3.97803 13.1015 4.29469 14.4889 5.37701 14.9807L6.38062 15.4368C6.90496 15.6751 7.28361 16.1499 7.39924 16.7141L7.62058 17.7941C7.85927 18.9587 9.14142 19.5761 10.2008 19.0366L11.1831 18.5363C11.6963 18.275 12.3036 18.275 12.8169 18.5363L13.7992 19.0366C14.8586 19.5761 16.1407 18.9587 16.3794 17.7941L16.6007 16.7141C16.7164 16.1499 17.095 15.6751 17.6194 15.4368L18.623 14.9807C19.7053 14.4889 20.022 13.1015 19.2602 12.1887L18.5539 11.3423C18.1849 10.9001 18.0498 10.3081 18.1904 9.74954L18.4595 8.68052C18.7498 7.52765 17.8625 6.41504 16.674 6.44149L15.5718 6.46601C14.996 6.47882 14.4489 6.21532 14.0999 5.75715L13.4319 4.8802ZM12 14.5003C13.3807 14.5003 14.5 13.381 14.5 12.0003C14.5 10.6196 13.3807 9.50033 12 9.50033C10.6193 9.50033 9.5 10.6196 9.5 12.0003C9.5 13.381 10.6193 14.5003 12 14.5003Z" fill="#23294A"/>
</svg>
