<svg width="24" height="24" viewBox="0 0 24 24" fill="none" xmlns="http://www.w3.org/2000/svg">
<path d="M9 12C9 13.1046 8.10457 14 7 14C5.89543 14 5 13.1046 5 12C5 10.8954 5.89543 10 7 10C8.10457 10 9 10.8954 9 12Z" fill="#23294A"/>
<path d="M18 17C18 18.1046 17.1046 19 16 19C14.8954 19 14 18.1046 14 17C14 15.8954 14.8954 15 16 15C17.1046 15 18 15.8954 18 17Z" fill="#23294A"/>
<path d="M18 7C18 8.10457 17.1046 9 16 9C14.8954 9 14 8.10457 14 7C14 5.89543 14.8954 5 16 5C17.1046 5 18 5.89543 18 7Z" fill="#23294A"/>
<path fill-rule="evenodd" clip-rule="evenodd" d="M8.35556 12.3398L14.8556 15.8398L14.1444 17.1606L7.64441 13.6606L8.35556 12.3398Z" fill="#23294A"/>
<path fill-rule="evenodd" clip-rule="evenodd" d="M7.64441 10.3398L14.1444 6.83984L14.8556 8.16055L8.35556 11.6606L7.64441 10.3398Z" fill="#23294A"/>
</svg>
