<svg width="24" height="24" viewBox="0 0 24 24" fill="none" xmlns="http://www.w3.org/2000/svg">
<path fill-rule="evenodd" clip-rule="evenodd" d="M17.9577 6.24989L13.5323 3.83605C12.5772 3.31507 11.4228 3.31507 10.4677 3.83605L6.0423 6.24989C5.39977 6.60036 5 7.27379 5 8.00568V12.7515C5 15.168 6.24631 17.4135 8.29694 18.6918C10.5635 20.1047 13.4365 20.1047 15.7031 18.6918C17.7537 17.4135 19 15.168 19 12.7515V8.00568C19 7.27379 18.6002 6.60036 17.9577 6.24989ZM14.5 9.50024C14.7761 9.77638 14.7761 10.2241 14.5 10.5002L13 12.0002L14.5 13.5002C14.7761 13.7763 14.7761 14.2241 14.5 14.5002C14.2238 14.7763 13.7761 14.7763 13.5 14.5002L12 13.0002L10.5 14.5002C10.2239 14.7763 9.77618 14.7763 9.50004 14.5002C9.2239 14.2241 9.2239 13.7763 9.50004 13.5002L11 12.0002L9.5 10.5002C9.22386 10.2241 9.22386 9.77638 9.5 9.50024C9.77614 9.2241 10.2239 9.2241 10.5 9.50024L12 11.0002L13.5 9.50024C13.7761 9.2241 14.2239 9.2241 14.5 9.50024Z" fill="#23294A"/>
</svg>
