<svg width="24" height="24" viewBox="0 0 24 24" fill="none" xmlns="http://www.w3.org/2000/svg">
<path fill-rule="evenodd" clip-rule="evenodd" d="M13.5323 3.83605L17.9577 6.24989C18.6002 6.60036 19 7.27379 19 8.00568V12.7515C19 15.168 17.7537 17.4135 15.7031 18.6918C13.4365 20.1047 10.5635 20.1047 8.29694 18.6918C6.24631 17.4135 5 15.168 5 12.7515V8.00568C5 7.27379 5.39977 6.60036 6.0423 6.24989L10.4677 3.83605C11.4228 3.31507 12.5772 3.31507 13.5323 3.83605ZM14.9339 10.4341C15.1735 10.1945 15.1735 9.80597 14.9339 9.56633C14.6943 9.32669 14.3057 9.32669 14.0661 9.56633L11.2273 12.4051L10.4339 11.6118C10.1943 11.3721 9.80573 11.3721 9.56609 11.6118C9.32645 11.8514 9.32645 12.24 9.56609 12.4796L10.7355 13.649C11.0071 13.9206 11.4474 13.9206 11.719 13.649L14.9339 10.4341Z" fill="#23294A"/>
</svg>
