<svg width="24" height="24" viewBox="0 0 24 24" fill="none" xmlns="http://www.w3.org/2000/svg">
<path fill-rule="evenodd" clip-rule="evenodd" d="M14.3866 5H9.61337C8.06333 5 6.69792 6.01952 6.25757 7.50569L4.59798 13.1068C3.80041 15.7986 5.81747 18.5 8.62493 18.5H15.3751C18.1825 18.5 20.1996 15.7986 19.402 13.1068L17.7424 7.50569C17.3021 6.01952 15.9367 5 14.3866 5ZM9.53033 7.46967C9.23744 7.17678 8.76256 7.17678 8.46967 7.46967C8.17678 7.76256 8.17678 8.23744 8.46967 8.53033L9.7019 9.76256C10.9711 11.0318 13.0289 11.0318 14.2981 9.76256L15.5303 8.53033C15.8232 8.23744 15.8232 7.76256 15.5303 7.46967C15.2374 7.17678 14.7626 7.17678 14.4697 7.46967L13.2374 8.7019C12.554 9.38532 11.446 9.38532 10.7626 8.7019L9.53033 7.46967Z" fill="#23294A"/>
</svg>
