<svg width="24" height="24" viewBox="0 0 24 24" fill="none" xmlns="http://www.w3.org/2000/svg">
<path fill-rule="evenodd" clip-rule="evenodd" d="M19.5005 15.1359C20.8949 13.3093 20.8949 10.6906 19.5005 8.86407C18.4271 7.45794 16.9225 6.39713 15.1305 5.72961C13.1237 4.98206 10.8763 4.98206 8.8695 5.72961C7.07754 6.39712 5.57288 7.45794 4.49946 8.86407C3.10508 10.6906 3.10508 13.3093 4.49946 15.1359C5.57288 16.542 7.07754 17.6028 8.8695 18.2704C10.8763 19.0179 13.1237 19.0179 15.1305 18.2704C16.9225 17.6028 18.4271 16.542 19.5005 15.1359ZM12 15C13.6569 15 15 13.6568 15 12C15 10.3431 13.6569 8.99998 12 8.99998C10.3431 8.99998 9 10.3431 9 12C9 13.6568 10.3431 15 12 15Z" fill="#23294A"/>
</svg>
