<svg width="24" height="24" viewBox="0 0 24 24" fill="none" xmlns="http://www.w3.org/2000/svg">
<path d="M10.7 4H13.3C14.7912 4 16 5.20883 16 6.7V18.3C16 19.7912 14.7912 21 13.3 21H10.7C9.20883 21 8 19.7912 8 18.3V6.7C8 5.20883 9.20883 4 10.7 4Z" fill="#23294A"/>
<path d="M20 14.7678V10.2328C20 9.19068 19.3536 8.25788 18.3778 7.89197L17.8315 7.68711C17.7994 7.67509 17.7666 7.66476 17.7327 7.66017C17.349 7.60827 16.9999 7.90676 16.9999 8.30171V16.6989C16.9999 17.0939 17.349 17.3924 17.7327 17.3404C17.7666 17.3358 17.7994 17.3255 17.8315 17.3135L18.3778 17.1086C19.3536 16.7427 20 15.8099 20 14.7678Z" fill="#23294A"/>
<path d="M3.5 10.3019V14.6981C3.5 15.7741 4.18857 16.7295 5.20943 17.0698L5.90707 17.3023L6.17545 17.3508C6.60495 17.4285 7 17.0985 7 16.662V8.3379C7 7.90142 6.60492 7.57139 6.17541 7.64907L5.90707 7.69761L5.20943 7.93015C4.18858 8.27044 3.5 9.22579 3.5 10.3019Z" fill="#23294A"/>
</svg>
