<svg width="24" height="24" viewBox="0 0 24 24" fill="none" xmlns="http://www.w3.org/2000/svg">
<path fill-rule="evenodd" clip-rule="evenodd" d="M16.5 4H7.5C5.01472 4 3 6.01472 3 8.5V15.5C3 17.9853 5.01472 20 7.5 20H16.5C18.9853 20 21 17.9853 21 15.5V8.5C21 6.01472 18.9853 4 16.5 4ZM8.48014 8.25709C8.16193 7.99191 7.68901 8.03491 7.42383 8.35311C7.15866 8.67132 7.20165 9.14424 7.51986 9.40942L9.59931 11.1423C10.99 12.3012 13.01 12.3012 14.4007 11.1423L16.4801 9.40942C16.7983 9.14424 16.8413 8.67132 16.5762 8.35311C16.311 8.03491 15.8381 7.99191 15.5199 8.25709L13.4404 9.98996C12.606 10.6853 11.394 10.6853 10.5596 9.98996L8.48014 8.25709Z" fill="#23294A"/>
</svg>
