<svg width="24" height="24" viewBox="0 0 24 24" fill="none" xmlns="http://www.w3.org/2000/svg">
<path d="M15.0837 4.09769C15.433 3.29817 16.5671 3.29817 16.9164 4.09769L17.6675 5.81682C17.7683 6.04768 17.9526 6.23196 18.1835 6.33282L19.9026 7.0839C20.7021 7.43321 20.7021 8.56731 19.9026 8.91662L18.1835 9.66771C17.9526 9.76857 17.7683 9.95285 17.6675 10.1837L16.9164 11.9028C16.5671 12.7024 15.433 12.7024 15.0837 11.9028L14.3326 10.1837C14.2317 9.95285 14.0474 9.76857 13.8166 9.66771L12.0974 8.91662C11.2979 8.56731 11.2979 7.43321 12.0974 7.0839L13.8166 6.33282C14.0474 6.23196 14.2317 6.04768 14.3326 5.81682L15.0837 4.09769Z" fill="#23294A"/>
<path d="M6.67529 9.88734C6.98967 9.16776 8.01036 9.16776 8.32474 9.88734L8.72706 10.8082C8.81784 11.016 8.9837 11.1818 9.19147 11.2726L10.1123 11.6749C10.8319 11.9893 10.8319 13.01 10.1123 13.3244L9.19147 13.7267C8.9837 13.8175 8.81784 13.9833 8.72706 14.1911L8.32474 15.112C8.01036 15.8315 6.98967 15.8315 6.67529 15.112L6.27297 14.1911C6.1822 13.9833 6.01634 13.8175 5.80857 13.7267L4.8877 13.3244C4.16813 13.01 4.16813 11.9893 4.8877 11.6749L5.80857 11.2726C6.01634 11.1818 6.1822 11.016 6.27297 10.8082L6.67529 9.88734Z" fill="#23294A"/>
<path d="M13.5782 15.6632C13.7747 15.3545 14.2254 15.3545 14.4218 15.6632L15.1071 16.7399C15.1464 16.8017 15.1987 16.854 15.2605 16.8933L16.3372 17.5786C16.6459 17.775 16.6459 18.2257 16.3372 18.4222L15.2605 19.1075C15.1987 19.1467 15.1464 19.1991 15.1071 19.2608L14.4218 20.3376C14.2254 20.6463 13.7747 20.6463 13.5782 20.3376L12.8929 19.2608C12.8536 19.1991 12.8013 19.1467 12.7396 19.1075L11.6628 18.4222C11.3541 18.2257 11.3541 17.775 11.6628 17.5786L12.7396 16.8933C12.8013 16.854 12.8536 16.8017 12.8929 16.7399L13.5782 15.6632Z" fill="#23294A"/>
</svg>
