<svg width="24" height="24" viewBox="0 0 24 24" fill="none" xmlns="http://www.w3.org/2000/svg">
<path d="M10.992 5.30707C11.3763 4.42759 12.6238 4.42759 13.008 5.30707L14.5639 8.86837C14.6749 9.12232 14.8776 9.32503 15.1315 9.43598L18.6929 10.9919C19.5723 11.3761 19.5723 12.6237 18.6929 13.0079L15.1315 14.5638C14.8776 14.6748 14.6749 14.8775 14.5639 15.1314L13.008 18.6927C12.6238 19.5722 11.3763 19.5722 10.992 18.6927L9.4361 15.1314C9.32515 14.8775 9.12244 14.6748 8.8685 14.5638L5.30719 13.0079C4.42771 12.6237 4.42771 11.3761 5.30719 10.9919L8.8685 9.43598C9.12244 9.32503 9.32515 9.12232 9.4361 8.86837L10.992 5.30707Z" fill="#23294A"/>
</svg>
