<svg width="24" height="24" viewBox="0 0 24 24" fill="none" xmlns="http://www.w3.org/2000/svg">
<path d="M8 13C8 12.4747 8.10346 11.9546 8.30448 11.4693C8.5055 10.984 8.80014 10.543 9.17157 10.1716C9.54301 9.80014 9.98396 9.5055 10.4693 9.30448C10.9546 9.10346 11.4747 9 12 9C12.5253 9 13.0454 9.10346 13.5307 9.30448C14.016 9.5055 14.457 9.80014 14.8284 10.1716C15.1999 10.543 15.4945 10.984 15.6955 11.4693C15.8965 11.9546 16 12.4747 16 13L12 13L8 13Z" fill="#23294A"/>
<path fill-rule="evenodd" clip-rule="evenodd" d="M12 2.25C12.4142 2.25 12.75 2.58579 12.75 3V5C12.75 5.41421 12.4142 5.75 12 5.75C11.5858 5.75 11.25 5.41421 11.25 5V3C11.25 2.58579 11.5858 2.25 12 2.25Z" fill="#23294A"/>
<path fill-rule="evenodd" clip-rule="evenodd" d="M5.23748 5.23725C5.53038 4.94435 6.00525 4.94435 6.29814 5.23725L7.53035 6.46946C7.82325 6.76235 7.82325 7.23722 7.53035 7.53012C7.23746 7.82301 6.76258 7.82301 6.46969 7.53012L5.23748 6.29791C4.94459 6.00501 4.94459 5.53014 5.23748 5.23725Z" fill="#23294A"/>
<path fill-rule="evenodd" clip-rule="evenodd" d="M19.0659 5.23736C19.3588 5.53025 19.3588 6.00513 19.0659 6.29802L17.6517 7.71223C17.3588 8.00513 16.8839 8.00513 16.591 7.71223C16.2981 7.41934 16.2981 6.94447 16.591 6.65157L18.0053 5.23736C18.2981 4.94447 18.773 4.94447 19.0659 5.23736Z" fill="#23294A"/>
<path fill-rule="evenodd" clip-rule="evenodd" d="M4.25 13C4.25 12.5858 4.58579 12.25 5 12.25H19C19.4142 12.25 19.75 12.5858 19.75 13C19.75 13.4142 19.4142 13.75 19 13.75H5C4.58579 13.75 4.25 13.4142 4.25 13Z" fill="#23294A"/>
<path fill-rule="evenodd" clip-rule="evenodd" d="M8.25 16C8.25 15.5858 8.58579 15.25 9 15.25H15C15.4142 15.25 15.75 15.5858 15.75 16C15.75 16.4142 15.4142 16.75 15 16.75H9C8.58579 16.75 8.25 16.4142 8.25 16Z" fill="#23294A"/>
</svg>
