<svg width="24" height="24" viewBox="0 0 24 24" fill="none" xmlns="http://www.w3.org/2000/svg">
<path d="M16 12C16 14.2091 14.2091 16 12 16C9.79086 16 8 14.2091 8 12C8 9.79086 9.79086 8 12 8C14.2091 8 16 9.79086 16 12Z" fill="#23294A"/>
<path fill-rule="evenodd" clip-rule="evenodd" d="M12 2.25C12.4142 2.25 12.75 2.58579 12.75 3V5C12.75 5.41421 12.4142 5.75 12 5.75C11.5858 5.75 11.25 5.41421 11.25 5V3C11.25 2.58579 11.5858 2.25 12 2.25Z" fill="#23294A"/>
<path fill-rule="evenodd" clip-rule="evenodd" d="M18.25 12C18.25 11.5858 18.5858 11.25 19 11.25H21C21.4142 11.25 21.75 11.5858 21.75 12C21.75 12.4142 21.4142 12.75 21 12.75H19C18.5858 12.75 18.25 12.4142 18.25 12Z" fill="#23294A"/>
<path fill-rule="evenodd" clip-rule="evenodd" d="M16.2375 16.2372C16.5304 15.9444 17.0053 15.9444 17.2981 16.2372L19.0659 18.005C19.3588 18.2979 19.3588 18.7728 19.0659 19.0657C18.773 19.3586 18.2981 19.3586 18.0053 19.0657L16.2375 17.2979C15.9446 17.005 15.9446 16.5301 16.2375 16.2372Z" fill="#23294A"/>
<path fill-rule="evenodd" clip-rule="evenodd" d="M5.23748 5.23725C5.53038 4.94435 6.00525 4.94435 6.29814 5.23725L7.53035 6.46946C7.82325 6.76235 7.82325 7.23722 7.53035 7.53012C7.23746 7.82301 6.76258 7.82301 6.46969 7.53012L5.23748 6.29791C4.94459 6.00501 4.94459 5.53014 5.23748 5.23725Z" fill="#23294A"/>
<path fill-rule="evenodd" clip-rule="evenodd" d="M7.94451 16.4698C8.23741 16.7627 8.23741 17.2376 7.94451 17.5304L6.5303 18.9447C6.23741 19.2376 5.76253 19.2375 5.46964 18.9447C5.17675 18.6518 5.17675 18.1769 5.46964 17.884L6.88385 16.4698C7.17675 16.1769 7.65162 16.1769 7.94451 16.4698Z" fill="#23294A"/>
<path fill-rule="evenodd" clip-rule="evenodd" d="M19.0659 5.23736C19.3588 5.53025 19.3588 6.00513 19.0659 6.29802L17.6517 7.71223C17.3588 8.00513 16.8839 8.00513 16.591 7.71223C16.2981 7.41934 16.2981 6.94447 16.591 6.65157L18.0053 5.23736C18.2981 4.94447 18.773 4.94447 19.0659 5.23736Z" fill="#23294A"/>
<path fill-rule="evenodd" clip-rule="evenodd" d="M2.25 12C2.25 11.5858 2.58579 11.25 3 11.25H5C5.41421 11.25 5.75 11.5858 5.75 12C5.75 12.4142 5.41421 12.75 5 12.75H3C2.58579 12.75 2.25 12.4142 2.25 12Z" fill="#23294A"/>
<path fill-rule="evenodd" clip-rule="evenodd" d="M12 18.25C12.4142 18.25 12.75 18.5858 12.75 19V21C12.75 21.4142 12.4142 21.75 12 21.75C11.5858 21.75 11.25 21.4142 11.25 21V19C11.25 18.5858 11.5858 18.25 12 18.25Z" fill="#23294A"/>
</svg>
