<svg width="24" height="24" viewBox="0 0 24 24" fill="none" xmlns="http://www.w3.org/2000/svg">
<path fill-rule="evenodd" clip-rule="evenodd" d="M5.25 6C5.25 5.58579 5.58579 5.25 6 5.25H18C18.4142 5.25 18.75 5.58579 18.75 6C18.75 6.41421 18.4142 6.75 18 6.75H6C5.58579 6.75 5.25 6.41421 5.25 6Z" fill="#23294A"/>
<path fill-rule="evenodd" clip-rule="evenodd" d="M8.37356 3.70588C8.85149 2.80976 9.78442 2.25 10.8 2.25H13.2C14.2156 2.25 15.1486 2.80976 15.6265 3.70588L16.6618 5.64706C16.8567 6.01254 16.7184 6.46684 16.353 6.66176C15.9875 6.85669 15.5332 6.71842 15.3383 6.35294L14.303 4.41176C14.0857 4.00443 13.6617 3.75 13.2 3.75H10.8C10.3384 3.75 9.91433 4.00443 9.69708 4.41176L8.66179 6.35294C8.46687 6.71842 8.01257 6.85669 7.64708 6.66176C7.2816 6.46684 7.14334 6.01254 7.33826 5.64706L8.37356 3.70588Z" fill="#23294A"/>
<path fill-rule="evenodd" clip-rule="evenodd" d="M16.7554 18.7866L17.8456 9.33755C17.9278 8.62504 17.3708 8 16.6535 8H7.34639C6.62915 8 6.07209 8.62504 6.1543 9.33755L7.24457 18.7866C7.39013 20.048 8.45825 21 9.7281 21H14.2718C15.5417 21 16.6098 20.048 16.7554 18.7866ZM10.25 15.5833C10.25 15.1691 10.5858 14.8333 11 14.8333H13C13.4142 14.8333 13.75 15.1691 13.75 15.5833C13.75 15.9975 13.4142 16.3333 13 16.3333H11C10.5858 16.3333 10.25 15.9975 10.25 15.5833ZM11 11.5833C10.5858 11.5833 10.25 11.9191 10.25 12.3333C10.25 12.7475 10.5858 13.0833 11 13.0833H13C13.4142 13.0833 13.75 12.7475 13.75 12.3333C13.75 11.9191 13.4142 11.5833 13 11.5833H11Z" fill="#23294A"/>
</svg>
