<svg width="24" height="24" viewBox="0 0 24 24" fill="none" xmlns="http://www.w3.org/2000/svg">
<path fill-rule="evenodd" clip-rule="evenodd" d="M5.25 6C5.25 5.58579 5.58579 5.25 6 5.25H18C18.4142 5.25 18.75 5.58579 18.75 6C18.75 6.41421 18.4142 6.75 18 6.75H6C5.58579 6.75 5.25 6.41421 5.25 6Z" fill="#23294A"/>
<path fill-rule="evenodd" clip-rule="evenodd" d="M8.37356 3.70588C8.85149 2.80976 9.78442 2.25 10.8 2.25H13.2C14.2156 2.25 15.1486 2.80976 15.6265 3.70588L16.6618 5.64706C16.8567 6.01254 16.7184 6.46684 16.353 6.66176C15.9875 6.85669 15.5332 6.71842 15.3383 6.35294L14.303 4.41176C14.0857 4.00443 13.6617 3.75 13.2 3.75H10.8C10.3384 3.75 9.91433 4.00443 9.69708 4.41176L8.66179 6.35294C8.46687 6.71842 8.01257 6.85669 7.64708 6.66176C7.2816 6.46684 7.14334 6.01254 7.33826 5.64706L8.37356 3.70588Z" fill="#23294A"/>
<path fill-rule="evenodd" clip-rule="evenodd" d="M16.7554 18.7866L17.8456 9.33755C17.9278 8.62504 17.3708 8 16.6535 8H7.34639C6.62915 8 6.07209 8.62504 6.1543 9.33755L7.24457 18.7866C7.39013 20.048 8.45825 21 9.7281 21H14.2718C15.5417 21 16.6098 20.048 16.7554 18.7866ZM13.5 11.25C13.9142 11.25 14.25 11.5858 14.25 12V14C14.25 14.4142 13.9142 14.75 13.5 14.75C13.0858 14.75 12.75 14.4142 12.75 14V12C12.75 11.5858 13.0858 11.25 13.5 11.25ZM11.25 12C11.25 11.5858 10.9142 11.25 10.5 11.25C10.0858 11.25 9.74997 11.5858 9.74997 12V14C9.74997 14.4142 10.0858 14.75 10.5 14.75C10.9142 14.75 11.25 14.4142 11.25 14V12Z" fill="#23294A"/>
</svg>
