<svg width="24" height="24" viewBox="0 0 24 24" fill="none" xmlns="http://www.w3.org/2000/svg">
<path d="M15.47 8.55207L13.3568 5.17095C12.7301 4.16828 11.2699 4.16828 10.6432 5.17095L8.53 8.55207C7.86395 9.61775 8.6301 11.0001 9.8868 11.0001H14.1132C15.3699 11.0001 16.136 9.61775 15.47 8.55207Z" fill="#23294A"/>
<path d="M14.1437 11H9.85629C9.32133 11 8.82176 11.2674 8.52501 11.7125L6.65835 14.5125C5.94949 15.5758 6.71171 17 7.98963 17H16.0104C17.2883 17 18.0505 15.5758 17.3417 14.5125L15.475 11.7125C15.1782 11.2674 14.6787 11 14.1437 11Z" fill="#23294A"/>
<path fill-rule="evenodd" clip-rule="evenodd" d="M12 16.25C12.4142 16.25 12.75 16.5858 12.75 17V20.5C12.75 20.9142 12.4142 21.25 12 21.25C11.5858 21.25 11.25 20.9142 11.25 20.5V17C11.25 16.5858 11.5858 16.25 12 16.25Z" fill="#23294A"/>
</svg>
