<svg width="24" height="24" viewBox="0 0 24 24" fill="none" xmlns="http://www.w3.org/2000/svg">
<path d="M7.8 6H16.2C18.2987 6 20 7.70132 20 9.8V13.2C20 15.2987 18.2987 17 16.2 17H7.8C5.70132 17 4 15.2987 4 13.2V9.8C4 7.70132 5.70132 6 7.8 6Z" fill="#23294A"/>
<path fill-rule="evenodd" clip-rule="evenodd" d="M11.9697 15.9697C12.2626 15.6768 12.7374 15.6768 13.0303 15.9697L16.0303 18.9697C16.3232 19.2626 16.3232 19.7374 16.0303 20.0303C15.7374 20.3232 15.2626 20.3232 14.9697 20.0303L11.9697 17.0303C11.6768 16.7374 11.6768 16.2626 11.9697 15.9697Z" fill="#23294A"/>
<path fill-rule="evenodd" clip-rule="evenodd" d="M12.0303 15.9697C12.3232 16.2626 12.3232 16.7374 12.0303 17.0303L9.03033 20.0303C8.73744 20.3232 8.26256 20.3232 7.96967 20.0303C7.67678 19.7374 7.67678 19.2626 7.96967 18.9697L10.9697 15.9697C11.2626 15.6768 11.7374 15.6768 12.0303 15.9697Z" fill="#23294A"/>
</svg>
