<svg width="24" height="24" viewBox="0 0 24 24" fill="none" xmlns="http://www.w3.org/2000/svg">
<path d="M12.9442 4.41879C13.1957 4.12135 13.1176 3.63661 12.7328 3.57603C11.8552 3.43786 10.9439 3.59408 10.1493 4.04104L6.03895 6.35312C4.77945 7.06159 4 8.39433 4 9.83942V14.1606C4 15.6057 4.77945 16.9385 6.03896 17.6469L10.039 19.8969C11.2566 20.5819 12.7434 20.5819 13.961 19.8969L17.961 17.6469C19.2206 16.9385 20 15.6057 20 14.1606V9.79473C20 9.67285 19.9838 9.52388 19.9595 9.3693C19.8961 8.96457 19.3767 8.84938 19.0926 9.1445C18.3543 9.91135 17.1106 11 16 11C13.7909 11 12 9.20914 12 7C12 6.01625 12.3551 5.11545 12.9442 4.41879Z" fill="#23294A"/>
<path d="M18.5 7C18.5 8.38071 17.3807 9.5 16 9.5C14.6193 9.5 13.5 8.38071 13.5 7C13.5 5.61929 14.6193 4.5 16 4.5C17.3807 4.5 18.5 5.61929 18.5 7Z" fill="#23294A"/>
</svg>
