<svg width="24" height="24" viewBox="0 0 24 24" fill="none" xmlns="http://www.w3.org/2000/svg">
<path fill-rule="evenodd" clip-rule="evenodd" d="M8 3C5.23858 3 3 5.23858 3 8V16C3 18.7614 5.23858 21 8 21H16C18.7614 21 21 18.7614 21 16V8C21 5.23858 18.7614 3 16 3H8ZM8 9.25C6.48122 9.25 5.25 10.4812 5.25 12C5.25 13.5188 6.48122 14.75 8 14.75H8.30278C8.90547 14.75 9.49468 14.5716 9.99615 14.2373L14.8359 11.0108C15.091 10.8407 15.3907 10.75 15.6972 10.75H16C16.6904 10.75 17.25 11.3096 17.25 12C17.25 12.6904 16.6904 13.25 16 13.25H15.6972C15.3907 13.25 15.091 13.1593 14.8359 12.9892L14.666 12.876L14.291 12.626C13.9464 12.3962 13.4807 12.4893 13.251 12.834C13.0212 13.1786 13.1143 13.6443 13.459 13.874L13.834 14.124L14.0039 14.2373C14.5053 14.5716 15.0945 14.75 15.6972 14.75H16C17.5188 14.75 18.75 13.5188 18.75 12C18.75 10.4812 17.5188 9.25 16 9.25H15.6972C15.0945 9.25 14.5053 9.4284 14.0038 9.76271L9.1641 12.9892C8.90903 13.1593 8.60933 13.25 8.30278 13.25H8C7.30964 13.25 6.75 12.6904 6.75 12C6.75 11.3096 7.30964 10.75 8 10.75H8.30278C8.60933 10.75 8.90903 10.8407 9.1641 11.0108L9.33397 11.124L9.70897 11.374C10.0536 11.6038 10.5193 11.5107 10.749 11.166C10.9788 10.8214 10.8857 10.3557 10.541 10.126L10.166 9.87596L9.99615 9.76271C9.49468 9.4284 8.90547 9.25 8.30278 9.25H8Z" fill="#23294A"/>
</svg>
