<svg width="24" height="24" viewBox="0 0 24 24" fill="none" xmlns="http://www.w3.org/2000/svg">
<path fill-rule="evenodd" clip-rule="evenodd" d="M7.625 18C6.17525 18 5 16.6569 5 15V11C5 9.34315 6.17525 8 7.625 8H16.375C17.8247 8 19 9.34315 19 11V15C19 16.6569 17.8247 18 16.375 18H7.625ZM12.75 13C12.75 12.5858 12.4142 12.25 12 12.25C11.5858 12.25 11.25 12.5858 11.25 13V15C11.25 15.4142 11.5858 15.75 12 15.75C12.4142 15.75 12.75 15.4142 12.75 15V13Z" fill="#23294A"/>
<path fill-rule="evenodd" clip-rule="evenodd" d="M11.9533 2.75H12.5858C13.6902 2.75 14.7494 3.18873 15.5303 3.96967C15.8232 4.26256 15.8232 4.73744 15.5303 5.03033C15.2374 5.32322 14.7626 5.32322 14.4697 5.03033C13.97 4.53069 13.2924 4.25 12.5858 4.25H12.0488C10.1721 4.50673 8.75 6.11424 8.75 8C8.75 8.41421 8.41421 8.75 8 8.75C7.58579 8.75 7.25 8.41421 7.25 8C7.25 5.33024 9.27049 3.08535 11.907 2.75579L11.9533 2.75Z" fill="#23294A"/>
</svg>
