<svg width="24" height="24" viewBox="0 0 24 24" fill="none" xmlns="http://www.w3.org/2000/svg">
<path d="M11.25 9H6.5C4.567 9 3 10.567 3 12.5V16.5C3 18.433 4.567 20 6.5 20H17.5C19.433 20 21 18.433 21 16.5V12.5C21 10.567 19.433 9 17.5 9H12.75V14C12.75 14.4142 12.4142 14.75 12 14.75C11.5858 14.75 11.25 14.4142 11.25 14V9Z" fill="#23294A"/>
<path fill-rule="evenodd" clip-rule="evenodd" d="M11.3282 3.61126C11.6992 3.24026 12.3008 3.24026 12.6718 3.61126L14.5303 5.46984C14.8232 5.76273 14.8232 6.2376 14.5303 6.5305C14.2374 6.82339 13.7626 6.82339 13.4697 6.5305L12 5.06083L10.5303 6.5305C10.2374 6.82339 9.76256 6.82339 9.46967 6.5305C9.17678 6.2376 9.17678 5.76273 9.46967 5.46984L11.3282 3.61126Z" fill="#23294A"/>
<path fill-rule="evenodd" clip-rule="evenodd" d="M12.75 4.25V9.75H11.25V4.25H12.75Z" fill="#23294A"/>
</svg>
