<svg width="24" height="24" viewBox="0 0 24 24" fill="none" xmlns="http://www.w3.org/2000/svg">
<path d="M17 9C17 11.7614 14.7614 14 12 14C9.23858 14 7 11.7614 7 9C7 6.23858 9.23858 4 12 4C14.7614 4 17 6.23858 17 9Z" fill="#23294A"/>
<path fill-rule="evenodd" clip-rule="evenodd" d="M12 15.3496C14.0795 15.3496 16.2139 16.0109 17.7143 17.4041C18.0931 17.7559 18.4224 18.1676 18.6709 18.6645C18.8561 19.035 18.7059 19.4855 18.3355 19.6707C17.965 19.8559 17.5145 19.7058 17.3292 19.3353C17.1722 19.0212 16.9599 18.7505 16.6937 18.5034C15.5316 17.4244 13.7933 16.8496 12 16.8496C10.2068 16.8496 8.46845 17.4244 7.30638 18.5034C7.0402 18.7505 6.82789 19.0212 6.67086 19.3353C6.48562 19.7058 6.03512 19.8559 5.66463 19.6707C5.29415 19.4855 5.14398 19.035 5.32922 18.6645C5.57764 18.1676 5.90696 17.7559 6.28574 17.4041C7.78623 16.0109 9.92056 15.3496 12 15.3496Z" fill="#23294A"/>
</svg>
