<svg width="24" height="24" viewBox="0 0 24 24" fill="none" xmlns="http://www.w3.org/2000/svg">
<path fill-rule="evenodd" clip-rule="evenodd" d="M20.5858 10.5855C21.3668 11.3665 21.3668 12.6329 20.5858 13.4139L19.5858 14.4139C19.2107 14.789 19 15.2977 19 15.8281V16.9997C19 18.1043 18.1046 18.9997 17 18.9997H15.8284C15.298 18.9997 14.7893 19.2104 14.4142 19.5855L13.4142 20.5855C12.6332 21.3665 11.3668 21.3665 10.5858 20.5855L9.58579 19.5855C9.21072 19.2104 8.70201 18.9997 8.17158 18.9997H7C5.89543 18.9997 5 18.1043 5 16.9997V15.8281C5 15.2977 4.78929 14.789 4.41422 14.4139L3.41422 13.4139C2.63317 12.6329 2.63317 11.3665 3.41422 10.5855L4.41422 9.58548C4.78929 9.21041 5 8.7017 5 8.17127V6.9997C5 5.89513 5.89543 4.9997 7 4.9997H8.17158C8.70201 4.9997 9.21072 4.78898 9.58579 4.41391L10.5858 3.41391C11.3668 2.63286 12.6332 2.63286 13.4142 3.41391L14.4142 4.41391C14.7893 4.78898 15.298 4.9997 15.8284 4.9997H17C18.1046 4.9997 19 5.89513 19 6.9997V8.17127C19 8.7017 19.2107 9.21041 19.5858 9.58548L20.5858 10.5855ZM14.5303 10.8936C14.8232 10.6007 14.8232 10.1258 14.5303 9.83295C14.2374 9.54006 13.7626 9.54006 13.4697 9.83295L10.7273 12.5753L10.0303 11.8784C9.73744 11.5855 9.26257 11.5855 8.96967 11.8784C8.67678 12.1713 8.67678 12.6462 8.96967 12.9391L10.1391 14.1085C10.4639 14.4333 10.9906 14.4333 11.3155 14.1085L14.5303 10.8936Z" fill="#23294A"/>
</svg>
