<svg width="24" height="24" viewBox="0 0 24 24" fill="none" xmlns="http://www.w3.org/2000/svg">
<path d="M8 3H8.91801C9.30906 3 9.54875 3.4287 9.34396 3.76184L6.42406 8.51184C6.33309 8.65983 6.17182 8.75 5.9981 8.75H3.5C3.22386 8.75 3 8.52614 3 8.25V8C3 5.23858 5.23858 3 8 3Z" fill="#23294A"/>
<path d="M12.4089 8.48786C12.3215 8.64936 12.1527 8.75 11.9691 8.75H8.93268C8.54163 8.75 8.30193 8.3213 8.50672 7.98816L11.4266 3.23816C11.5176 3.09017 11.6789 3 11.8526 3H14.538C14.9168 3 15.158 3.40472 14.9778 3.73786L12.4089 8.48786Z" fill="#23294A"/>
<path d="M14.3715 8.01214C14.1913 8.34528 14.4325 8.75 14.8113 8.75H20.5C20.7761 8.75 21 8.52614 21 8.25V8C21 5.71976 19.4736 3.79604 17.3869 3.19484C17.1745 3.13365 16.9532 3.23843 16.8481 3.43283L14.3715 8.01214Z" fill="#23294A"/>
<path d="M11.5152 17.1037C11.0134 17.3892 10.3907 17.0244 10.3944 16.447L10.4108 13.849C10.4145 13.2717 11.0417 12.9148 11.5399 13.2066L13.7816 14.5199C14.2798 14.8117 14.2752 15.5334 13.7734 15.8189L11.5152 17.1037Z" fill="#23294A"/>
<path fill-rule="evenodd" clip-rule="evenodd" d="M3 10.75C3 10.4739 3.22386 10.25 3.5 10.25H20.5C20.7761 10.25 21 10.4739 21 10.75V16C21 18.7614 18.7614 21 16 21H8C5.23858 21 3 18.7614 3 16V10.75ZM8.89441 16.4375C8.88344 18.1696 10.7516 19.2639 12.257 18.4074L14.5152 17.1227C16.0206 16.2661 16.0343 14.1011 14.5399 13.2256L12.2981 11.9124C10.8036 11.0369 8.92182 12.1075 8.91085 13.8395L8.89441 16.4375Z" fill="#23294A"/>
</svg>
