<svg width="24" height="24" viewBox="0 0 24 24" fill="none" xmlns="http://www.w3.org/2000/svg">
<path d="M7 5H12C14.2091 5 16 6.79086 16 9V15C16 17.2091 14.2091 19 12 19H7C4.79086 19 3 17.2091 3 15V9C3 6.79086 4.79086 5 7 5Z" fill="#23294A"/>
<path d="M18.8768 7.73675L15.8668 10.1995C15.6346 10.3894 15.5 10.6735 15.5 10.9735V13.0257C15.5 13.3256 15.6346 13.6097 15.8668 13.7997L18.8768 16.2624C19.7256 16.9569 21 16.353 21 15.2563V8.7429C21 7.64618 19.7256 7.04227 18.8768 7.73675Z" fill="#23294A"/>
</svg>
