<svg width="24" height="24" viewBox="0 0 24 24" fill="none" xmlns="http://www.w3.org/2000/svg">
<path d="M17.5 12C17.9142 12 18.2549 12.3371 18.2032 12.7481C18.0379 14.0635 17.4401 15.2952 16.4927 16.2426C15.3674 17.3679 13.5913 18 12 18C10.4087 18 8.88259 17.3679 7.75737 16.2426C6.80956 15.2948 6.03422 14.0626 5.81329 12.7465C5.74472 12.338 6.0858 12 6.50001 12C6.91423 12 7.24397 12.34 7.34016 12.7428C7.55932 13.6608 8.15128 14.5152 8.81803 15.182C9.66195 16.0259 10.8065 16.5 12 16.5C13.1935 16.5 14.3381 16.0259 15.182 15.182C15.8303 14.5337 16.4078 13.5939 16.6408 12.7396C16.7498 12.34 17.0858 12 17.5 12Z" fill="#23294A"/>
<path fill-rule="evenodd" clip-rule="evenodd" d="M12 17.25C12.4142 17.25 12.75 17.5858 12.75 18L12.75 21C12.75 21.4142 12.4142 21.75 12 21.75C11.5858 21.75 11.25 21.4142 11.25 21L11.25 18C11.25 17.5858 11.5858 17.25 12 17.25Z" fill="#23294A"/>
<path d="M9 11V6C9 4.34315 10.3431 3 12 3C13.6569 3 15 4.34315 15 6C15 6.13807 14.8881 6.25 14.75 6.25H13C12.5858 6.25 12.25 6.58579 12.25 7C12.25 7.41421 12.5858 7.75 13 7.75H14.5C14.7761 7.75 15 7.97386 15 8.25V8.75C15 9.02614 14.7761 9.25 14.5 9.25L12 9.25C11.5858 9.25 11.25 9.58579 11.25 10C11.25 10.4142 11.5858 10.75 12 10.75L14.75 10.75C14.8881 10.75 15 10.8619 15 11C15 12.6569 13.6569 14 12 14C10.3431 14 9 12.6569 9 11Z" fill="#23294A"/>
</svg>
