<svg width="24" height="24" viewBox="0 0 24 24" fill="none" xmlns="http://www.w3.org/2000/svg">
<path d="M4 12C4 8.04413 7.66091 6.99998 10 6.99998H10.4148C10.9095 6.99998 11.3886 6.82706 11.7693 6.51115C13.4519 5.11473 16 6.31136 16 8.49793V15.502C16 17.6886 13.4519 18.8852 11.7693 17.4888C11.3886 17.1729 10.9095 17 10.4148 17H10C7.66091 17 4 15.9558 4 12Z" fill="#23294A"/>
<path fill-rule="evenodd" clip-rule="evenodd" d="M18.55 9.40004C18.8814 9.15152 19.3515 9.21867 19.6 9.55004C20.6889 11.0019 20.6889 12.9982 19.6 14.45C19.3515 14.7814 18.8814 14.8486 18.55 14.6C18.2186 14.3515 18.1515 13.8814 18.4 13.55C19.0889 12.6315 19.0889 11.3686 18.4 10.45C18.1515 10.1187 18.2186 9.64857 18.55 9.40004Z" fill="#23294A"/>
</svg>
