<svg width="24" height="24" viewBox="0 0 24 24" fill="none" xmlns="http://www.w3.org/2000/svg">
<path d="M4 12C4 8.04413 7.66091 6.99998 10 6.99998H10.4148C10.9095 6.99998 11.3886 6.82706 11.7693 6.51115C13.4519 5.11473 16 6.31136 16 8.49793V15.502C16 17.6886 13.4519 18.8852 11.7693 17.4888C11.3886 17.1729 10.9095 17 10.4148 17H10C7.66091 17 4 15.9558 4 12Z" fill="#23294A"/>
<path fill-rule="evenodd" clip-rule="evenodd" d="M17.25 12C17.25 11.5858 17.5858 11.25 18 11.25H21C21.4142 11.25 21.75 11.5858 21.75 12C21.75 12.4142 21.4142 12.75 21 12.75H18C17.5858 12.75 17.25 12.4142 17.25 12Z" fill="#23294A"/>
</svg>
