<svg width="24" height="24" viewBox="0 0 24 24" fill="none" xmlns="http://www.w3.org/2000/svg">
<path d="M8 3C6.11013 3 4.46515 4.0485 3.61504 5.59553C3.44704 5.90126 3.68655 6.25 4.03541 6.25H19.9646C20.3134 6.25 20.553 5.90127 20.385 5.59553C19.5348 4.0485 17.8899 3 16 3H8Z" fill="#23294A"/>
<path d="M3 8C3 7.85993 3.11617 7.75 3.25624 7.75H20.7438C20.8838 7.75 21 7.85993 21 8V8.75C21 9.02614 20.7761 9.25 20.5 9.25H15.5C13.7051 9.25 12.25 10.7051 12.25 12.5V13.5C12.25 15.2949 13.7051 16.75 15.5 16.75H20.3633C20.6691 16.75 20.9048 17.0232 20.8244 17.3182C20.246 19.4401 18.3052 21 16 21H8C5.23858 21 3 18.7614 3 16V8Z" fill="#23294A"/>
<path fill-rule="evenodd" clip-rule="evenodd" d="M21 11.25C21 10.9739 20.7761 10.75 20.5 10.75H15.5C14.5335 10.75 13.75 11.5335 13.75 12.5V13.5C13.75 14.4665 14.5335 15.25 15.5 15.25H20.5C20.7761 15.25 21 15.0261 21 14.75V11.25ZM16 12.25C15.5858 12.25 15.25 12.5858 15.25 13C15.25 13.4142 15.5858 13.75 16 13.75H17C17.4142 13.75 17.75 13.4142 17.75 13C17.75 12.5858 17.4142 12.25 17 12.25H16Z" fill="#23294A"/>
</svg>
