<svg width="24" height="24" viewBox="0 0 24 24" fill="none" xmlns="http://www.w3.org/2000/svg">
<path d="M3.25624 7.75C3.11617 7.75 3 7.85993 3 8V16C3 18.7614 5.23858 21 8 21H16C18.3457 21 20.3142 19.3847 20.8537 17.2057C20.9125 16.9682 20.7241 16.75 20.4795 16.75H16.5C14.7051 16.75 13.25 15.2949 13.25 13.5V12.5C13.25 10.7051 14.7051 9.25 16.5 9.25H20.6C20.8209 9.25 21 9.07091 21 8.85V8C21 7.85993 20.8838 7.75 20.7438 7.75H3.25624Z" fill="#23294A"/>
<path d="M3.54746 5.72285C3.42018 5.97122 3.6122 6.25 3.89129 6.25H20.1087C20.3878 6.25 20.5798 5.97122 20.4525 5.72285C19.6241 4.10631 17.9413 3 16 3H8C6.05873 3 4.37586 4.10631 3.54746 5.72285Z" fill="#23294A"/>
<path fill-rule="evenodd" clip-rule="evenodd" d="M21 11.15C21 10.9291 20.8209 10.75 20.6 10.75H16.5C15.5335 10.75 14.75 11.5335 14.75 12.5V13.5C14.75 14.4665 15.5335 15.25 16.5 15.25H20.6C20.8209 15.25 21 15.0709 21 14.85V11.15ZM18 13C18 13.5523 17.5523 14 17 14C16.4477 14 16 13.5523 16 13C16 12.4477 16.4477 12 17 12C17.5523 12 18 12.4477 18 13Z" fill="#23294A"/>
</svg>
