<svg width="24" height="24" viewBox="0 0 24 24" fill="none" xmlns="http://www.w3.org/2000/svg">
<path fill-rule="evenodd" clip-rule="evenodd" d="M3 8C3 5.23858 5.23858 3 8 3H16C18.7614 3 21 5.23858 21 8V8.95C21 9.11569 20.8657 9.25 20.7 9.25H15.5C13.7051 9.25 12.25 10.7051 12.25 12.5V13.5C12.25 15.2949 13.7051 16.75 15.5 16.75H20.5956C20.7791 16.75 20.9202 16.9137 20.8802 17.0927C20.3818 19.3286 18.3861 21 16 21H8C5.23858 21 3 18.7614 3 16V8ZM14 7C14 7.55228 13.5523 8 13 8C12.4477 8 12 7.55228 12 7C12 6.44772 12.4477 6 13 6C13.5523 6 14 6.44772 14 7ZM6 6.25C5.58579 6.25 5.25 6.58579 5.25 7C5.25 7.41421 5.58579 7.75 6 7.75H10C10.4142 7.75 10.75 7.41421 10.75 7C10.75 6.58579 10.4142 6.25 10 6.25H6Z" fill="#23294A"/>
<path fill-rule="evenodd" clip-rule="evenodd" d="M15.5 10.75H20.7C20.8657 10.75 21 10.8843 21 11.05V14.95C21 15.1157 20.8657 15.25 20.7 15.25H15.5C14.5335 15.25 13.75 14.4665 13.75 13.5V12.5C13.75 11.5335 14.5335 10.75 15.5 10.75ZM17 14C17.5523 14 18 13.5523 18 13C18 12.4477 17.5523 12 17 12C16.4477 12 16 12.4477 16 13C16 13.5523 16.4477 14 17 14Z" fill="#23294A"/>
</svg>
