<svg width="24" height="24" viewBox="0 0 24 24" fill="none" xmlns="http://www.w3.org/2000/svg">
<path d="M6.2 7H7.3C8.23888 7 9 7.76112 9 8.7V15.3C9 16.2389 8.23888 17 7.3 17H6.2C5.26112 17 4.5 16.2389 4.5 15.3V8.7C4.5 7.76112 5.26112 7 6.2 7Z" fill="#23294A"/>
<path d="M16.7 7H17.8C18.7389 7 19.5 7.76112 19.5 8.7V15.3C19.5 16.2389 18.7389 17 17.8 17H16.7C15.7611 17 15 16.2389 15 15.3V8.7C15 7.76112 15.7611 7 16.7 7Z" fill="#23294A"/>
<path fill-rule="evenodd" clip-rule="evenodd" d="M10.25 12C10.25 11.5858 10.5858 11.25 11 11.25H13C13.4142 11.25 13.75 11.5858 13.75 12C13.75 12.4142 13.4142 12.75 13 12.75H11C10.5858 12.75 10.25 12.4142 10.25 12Z" fill="#23294A"/>
<path fill-rule="evenodd" clip-rule="evenodd" d="M21 9.25C21.4142 9.25 21.75 9.58579 21.75 10V14C21.75 14.4142 21.4142 14.75 21 14.75C20.5858 14.75 20.25 14.4142 20.25 14V10C20.25 9.58579 20.5858 9.25 21 9.25Z" fill="#23294A"/>
<path fill-rule="evenodd" clip-rule="evenodd" d="M3 9.25C3.41421 9.25 3.75 9.58579 3.75 10V14C3.75 14.4142 3.41421 14.75 3 14.75C2.58579 14.75 2.25 14.4142 2.25 14V10C2.25 9.58579 2.58579 9.25 3 9.25Z" fill="#23294A"/>
</svg>
