<svg width="24" height="24" viewBox="0 0 24 24" fill="none" xmlns="http://www.w3.org/2000/svg">
<path fill-rule="evenodd" clip-rule="evenodd" d="M21 12C21 16.9706 16.9706 21 12 21C10.5572 21 9.19362 20.6605 7.98491 20.057C7.91569 20.0224 7.83598 20.0146 7.76179 20.0366L4.81885 20.9077C4.08071 21.1262 3.38285 20.4636 3.56272 19.7152L4.26858 16.7777C4.28705 16.7008 4.27422 16.6199 4.23418 16.5517C3.44978 15.2163 3 13.6607 3 12C3 7.02944 7.02944 3 12 3C16.9706 3 21 7.02944 21 12ZM8.60313 8.37502C8.85348 8.12502 9.13799 8 9.43387 8L9.45661 8.01137C9.55903 8.01137 9.67283 8.0341 9.77525 8.07955C9.88904 8.13637 9.98011 8.20457 10.0484 8.30684L10.9815 9.61365C11.0498 9.71592 11.1067 9.80683 11.1408 9.89774C11.175 9.97729 11.1977 10.0568 11.1977 10.1364C11.1977 10.2273 11.175 10.3295 11.1181 10.4205C11.0612 10.5114 10.9815 10.6136 10.8905 10.7045L10.5832 11.0227C10.5377 11.0682 10.515 11.1137 10.515 11.1818C10.515 11.1989 10.5178 11.2131 10.5206 11.2273C10.5235 11.2415 10.5263 11.2557 10.5263 11.2727C10.5313 11.2877 10.5385 11.3004 10.545 11.312C10.5533 11.3268 10.5605 11.3395 10.5605 11.3523C10.6401 11.4886 10.7653 11.6591 10.936 11.8637C11.1181 12.0796 11.3115 12.2841 11.5164 12.5C11.7326 12.7159 11.9374 12.9091 12.1537 13.0909C12.3585 13.2614 12.5292 13.3864 12.6657 13.4546C12.6733 13.4621 12.691 13.4697 12.7087 13.4773C12.7176 13.4811 12.7264 13.4849 12.734 13.4886C12.7681 13.5 12.8021 13.5 12.8362 13.5C12.9045 13.5 12.9958 13.4318 12.9958 13.4318L13.303 13.1364C13.394 13.0341 13.4964 12.9545 13.5875 12.9091C13.6785 12.8523 13.7696 12.8295 13.872 12.8295C13.9403 12.8295 14.0199 12.8523 14.1109 12.8864C14.202 12.9205 14.293 12.9773 14.3954 13.0455L15.7155 13.9887C15.8179 14.0568 15.8862 14.1364 15.9317 14.2387C15.9772 14.3296 16 14.4318 16 14.5455C16 14.6818 15.9659 14.8296 15.8976 14.9773C15.8293 15.125 15.7383 15.2614 15.6245 15.3864C15.4196 15.6023 15.2034 15.75 14.9644 15.8523C14.7141 15.9432 14.4638 16 14.1793 16C13.7696 16 13.3257 15.9091 12.8706 15.7045C12.4154 15.5 11.9488 15.2386 11.4936 14.9091C11.0384 14.5796 10.606 14.2045 10.1849 13.7955C9.77526 13.375 9.39972 12.9432 9.0697 12.4886C8.73969 12.0341 8.47795 11.5795 8.28449 11.125C8.09104 10.6705 8 10.2386 8 9.81819C8 9.54546 8.0569 9.2841 8.14794 9.04547C8.23898 8.79547 8.38691 8.57956 8.60313 8.37502Z" fill="#23294A"/>
</svg>
