<svg width="24" height="24" viewBox="0 0 24 24" fill="none" xmlns="http://www.w3.org/2000/svg">
<path fill-rule="evenodd" clip-rule="evenodd" d="M3 8C3 5.23858 5.23858 3 8 3H16C18.7614 3 21 5.23858 21 8V16C21 18.7614 18.7614 21 16 21H8C5.23858 21 3 18.7614 3 16V8ZM12 11.75C10.9613 11.75 9.96506 12.1626 9.23054 12.8972C8.93765 13.1901 8.46277 13.1901 8.16988 12.8972C7.87699 12.6043 7.87699 12.1294 8.16988 11.8365C9.1857 10.8207 10.5635 10.25 12 10.25C13.4366 10.25 14.8144 10.8207 15.8302 11.8365C16.1231 12.1294 16.1231 12.6043 15.8302 12.8972C15.5373 13.1901 15.0624 13.1901 14.7695 12.8972C14.035 12.1626 13.0388 11.75 12 11.75ZM10.8804 14.8805C11.1773 14.5836 11.5801 14.4167 12 14.4167C12.4199 14.4167 12.8226 14.5836 13.1196 14.8805C13.4125 15.1734 13.8873 15.1734 14.1802 14.8805C14.4731 14.5876 14.4731 14.1127 14.1802 13.8198C13.602 13.2416 12.8177 12.9167 12 12.9167C11.1822 12.9167 10.398 13.2416 9.81974 13.8198C9.52685 14.1127 9.52685 14.5876 9.81974 14.8805C10.1126 15.1734 10.5875 15.1734 10.8804 14.8805ZM12.7777 16.7778C12.7777 17.2073 12.4295 17.5556 11.9999 17.5556C11.5704 17.5556 11.2222 17.2073 11.2222 16.7778C11.2222 16.3482 11.5704 16 11.9999 16C12.4295 16 12.7777 16.3482 12.7777 16.7778ZM7.58058 10.5806C8.75268 9.40848 10.3424 8.75 12 8.75C13.6576 8.75 15.2473 9.40848 16.4194 10.5806C16.7123 10.8735 17.1872 10.8735 17.4801 10.5806C17.773 10.2877 17.773 9.81281 17.4801 9.51992C16.0267 8.06651 14.0554 7.25 12 7.25C9.94457 7.25 7.97333 8.06652 6.51992 9.51992C6.22703 9.81282 6.22703 10.2877 6.51992 10.5806C6.81282 10.8735 7.28769 10.8735 7.58058 10.5806Z" fill="#23294A"/>
</svg>
