<svg width="24" height="24" viewBox="0 0 24 24" fill="none" xmlns="http://www.w3.org/2000/svg">
<path d="M3 8C3 5.23858 5.23858 3 8 3H16C18.7614 3 21 5.23858 21 8V16C21 18.7614 18.7614 21 16 21H8C5.23858 21 3 18.7614 3 16V8Z" stroke="#23294A" stroke-width="1.5" stroke-linecap="round"/>
<path d="M7 9L12 15.5" stroke="#23294A" stroke-width="1.5" stroke-linecap="round"/>
<path d="M12 9L7 15.5" stroke="#23294A" stroke-width="1.5" stroke-linecap="round"/>
<path d="M17.5 15.5V8.5" stroke="#23294A" stroke-width="1.5" stroke-linecap="round"/>
<path d="M17.5 15.5H16.2C15.2611 15.5 14.5 14.7389 14.5 13.8V13.7C14.5 12.7611 15.2611 12 16.2 12H17.5" stroke="#23294A" stroke-width="1.5" stroke-linecap="round"/>
</svg>
