<svg width="24" height="24" viewBox="0 0 24 24" fill="none" xmlns="http://www.w3.org/2000/svg">
<path d="M9.8 6H14.2C16.2987 6 18 7.70132 18 9.8V14.2C18 16.2987 16.2987 18 14.2 18H9.8C7.70132 18 6 16.2987 6 14.2V9.8C6 7.70132 7.70132 6 9.8 6Z" stroke="#23294A" stroke-width="1.5" stroke-linecap="round"/>
<path d="M20 9V10" stroke="#23294A" stroke-width="1.5" stroke-linecap="round"/>
<path d="M20 12V14" stroke="#23294A" stroke-width="1.5" stroke-linecap="round"/>
<path d="M15.5 18V20" stroke="#23294A" stroke-width="1.5" stroke-linecap="round"/>
<path d="M15.5 4V6" stroke="#23294A" stroke-width="1.5" stroke-linecap="round"/>
<path d="M8.5 18V20" stroke="#23294A" stroke-width="1.5" stroke-linecap="round"/>
<path d="M8.5 4V6" stroke="#23294A" stroke-width="1.5" stroke-linecap="round"/>
<path d="M12 10V12.2929C12 12.4255 12.0527 12.5527 12.1464 12.6464L13 13.5" stroke="#23294A" stroke-width="1.5" stroke-linecap="round"/>
</svg>
