<svg width="24" height="24" viewBox="0 0 24 24" fill="none" xmlns="http://www.w3.org/2000/svg">
<path d="M15.8315 18.2845C14.9915 19.1288 14.0744 18.9955 13.1916 18.5956C12.2573 18.1867 11.4002 18.1689 10.4145 18.5956C9.18024 19.1466 8.52883 18.9866 7.79171 18.2845C3.60896 13.8139 4.22609 7.00591 8.97453 6.75705C10.0514 6.81495 10.8239 7.3347 11.4716 7.44951C11.5658 7.4662 11.6621 7.45877 11.755 7.43591C12.716 7.19935 13.6445 6.64523 14.6744 6.7215C15.9298 6.82496 16.8869 7.32982 17.5299 8.2361C17.5626 8.28223 17.5477 8.34657 17.5004 8.37759C14.9602 10.0437 15.5606 13.5601 17.9118 14.62C17.9606 14.642 17.9855 14.6979 17.9669 14.7481C17.4828 16.0507 16.8535 17.3377 15.8229 18.2934L15.8315 18.2845Z" stroke="#23294A" stroke-width="1.5"/>
<path d="M12.5671 4.27581C12.3244 4.76224 11.932 5.05228 11.5796 5.1349C11.4338 4.80367 11.4296 4.31573 11.6723 3.82931C11.9151 3.34288 12.3074 3.05284 12.6598 2.97022C12.8057 3.30145 12.8098 3.78939 12.5671 4.27581Z" stroke="#23294A"/>
</svg>
