<svg width="24" height="24" viewBox="0 0 24 24" fill="none" xmlns="http://www.w3.org/2000/svg">
<path d="M20.5 10.7881V16.5C20.5 18.433 18.933 20 17 20H7C5.067 20 3.5 18.433 3.5 16.5V10.7881C3.5 10.2751 3.65777 9.77461 3.95192 9.3544L6.25356 6.06634C6.72138 5.39803 7.48585 5 8.30164 5H15.6984C16.5141 5 17.2786 5.39803 17.7464 6.06635L20.0481 9.3544C20.3422 9.77461 20.5 10.2751 20.5 10.7881Z" stroke="#23294A" stroke-width="1.5" stroke-linecap="round"/>
<path d="M20.5 10.5L16.4622 11.6012C15.5989 11.8367 15 12.6208 15 13.5156C15 14.6116 14.1116 15.5 13.0156 15.5H10.9844C9.88843 15.5 9 14.6116 9 13.5156C9 12.6208 8.40108 11.8367 7.53776 11.6012L3.5 10.5" stroke="#23294A" stroke-width="1.5" stroke-linecap="round"/>
</svg>
