<svg width="24" height="24" viewBox="0 0 24 24" fill="none" xmlns="http://www.w3.org/2000/svg">
<circle cx="12" cy="12" r="9" stroke="#23294A" stroke-width="1.5"/>
<path d="M14.3997 10.4999L12.9603 9.30031C12.404 8.83675 11.596 8.83675 11.0397 9.3003L9.60027 10.4999C9.23536 10.8039 9.08417 11.2947 9.21466 11.7514L9.75134 13.6297C9.89853 14.1449 10.3694 14.5001 10.9052 14.5001H13.0948C13.6306 14.5001 14.1015 14.1449 14.2487 13.6297L14.7853 11.7514C14.9158 11.2947 14.7646 10.8039 14.3997 10.4999Z" stroke="#23294A" stroke-width="1.5" stroke-linecap="round"/>
<path d="M15 3.5L13.7678 4.73223C12.7915 5.70854 11.2085 5.70854 10.2322 4.73223L9 3.5" stroke="#23294A" stroke-width="1.5" stroke-linecap="round"/>
<path d="M15 20.0001L13.6005 18.8338C12.6733 18.0612 11.3267 18.0612 10.3995 18.8338L9 20.0001" stroke="#23294A" stroke-width="1.5" stroke-linecap="round"/>
<path d="M20.5 15L18.5607 13.0607C17.9749 12.4749 17.9749 11.5251 18.5607 10.9393L20.5 9" stroke="#23294A" stroke-width="1.5" stroke-linecap="round"/>
<path d="M3.5 15L5.43934 13.0607C6.02513 12.4749 6.02513 11.5251 5.43934 10.9393L3.5 9" stroke="#23294A" stroke-width="1.5" stroke-linecap="round"/>
</svg>
