<svg width="24" height="24" viewBox="0 0 24 24" fill="none" xmlns="http://www.w3.org/2000/svg">
<path d="M16.976 13.0409L16.0526 14.3653C15.317 15.4202 14.9241 16.6631 14.9241 17.9351C14.9241 18.5232 14.4306 19 13.8218 19H10.1812C9.56763 19 9.07023 18.5194 9.07023 17.9266C9.07023 16.6405 8.67165 15.3839 7.92585 14.3186L7.02994 13.0389C5.22659 10.4629 5.84985 6.97099 8.44202 5.12735C10.5565 3.62344 13.4394 3.62461 15.554 5.12851C18.1454 6.97161 18.7738 10.4625 16.976 13.0409Z" stroke="#23294A" stroke-width="1.5" stroke-linecap="round"/>
<path d="M13.5 21H10.5" stroke="#23294A" stroke-width="1.5" stroke-linecap="round"/>
<path d="M12.5 7.5L11.7906 8.20943C11.4016 8.59836 11.508 9.25402 12 9.5C12.492 9.74598 12.5984 10.4016 12.2094 10.7906L11.5 11.5" stroke="#23294A" stroke-width="1.5" stroke-linecap="round"/>
</svg>
