<svg width="24" height="24" viewBox="0 0 24 24" fill="none" xmlns="http://www.w3.org/2000/svg">
<path d="M16.2526 12.7317L15.4639 13.9025C14.8356 14.8351 14.5 15.934 14.5 17.0585C14.5 17.5785 14.0785 18 13.5585 18H10.4489C9.92484 18 9.49999 17.5751 9.49999 17.0511C9.49999 15.914 9.15956 14.8031 8.52254 13.8612L7.75732 12.7299C6.21701 10.4525 6.74936 7.36537 8.96342 5.73544C10.7695 4.40586 13.2319 4.40689 15.038 5.73647C17.2514 7.36592 17.7881 10.4522 16.2526 12.7317Z" stroke="#23294A" stroke-width="1.5" stroke-linecap="round"/>
<path d="M12 18V10" stroke="#23294A" stroke-width="1.5" stroke-linecap="round"/>
<path d="M13.5 11H10.5" stroke="#23294A" stroke-width="1.5" stroke-linecap="round"/>
<path d="M13.5 20H10.5" stroke="#23294A" stroke-width="1.5" stroke-linecap="round"/>
</svg>
