<svg width="24" height="24" viewBox="0 0 24 24" fill="none" xmlns="http://www.w3.org/2000/svg">
<path d="M16.2526 13.2317L15.4639 14.4025C14.8356 15.3351 14.5 16.434 14.5 17.5585C14.5 18.0785 14.0785 18.5 13.5585 18.5H10.4489C9.92484 18.5 9.49999 18.0751 9.49999 17.5511C9.49999 16.414 9.15956 15.3031 8.52254 14.3612L7.75732 13.2299C6.21701 10.9525 6.74936 7.86537 8.96342 6.23544C10.7695 4.90586 13.2319 4.90689 15.038 6.23647C17.2514 7.86592 17.7881 10.9522 16.2526 13.2317Z" stroke="#23294A" stroke-width="1.5" stroke-linecap="round"/>
<path d="M12 18.5V10.5" stroke="#23294A" stroke-width="1.5" stroke-linecap="round"/>
<path d="M13.5 11.5H10.5" stroke="#23294A" stroke-width="1.5" stroke-linecap="round"/>
<path d="M13.5 20.5H10.5" stroke="#23294A" stroke-width="1.5" stroke-linecap="round"/>
<path d="M19.5 9H20.5" stroke="#23294A" stroke-width="1.5" stroke-linecap="round"/>
<path d="M4.5 9H3.5" stroke="#23294A" stroke-width="1.5" stroke-linecap="round"/>
<path d="M12 2.5V2" stroke="#23294A" stroke-width="1.5" stroke-linecap="round"/>
<path d="M6 5L5.5 4.5" stroke="#23294A" stroke-width="1.5" stroke-linecap="round"/>
<path d="M18 5L18.5 4.5" stroke="#23294A" stroke-width="1.5" stroke-linecap="round"/>
</svg>
