<svg width="24" height="24" viewBox="0 0 24 24" fill="none" xmlns="http://www.w3.org/2000/svg">
<path d="M14 7.3V5.7C14 4.76112 13.2389 4 12.3 4H5.7C4.76112 4 4 4.76112 4 5.7V7.3C4 8.23888 4.76112 9 5.7 9H12.3C13.2389 9 14 8.23888 14 7.3Z" stroke="#23294A" stroke-width="1.5" stroke-linecap="round"/>
<path d="M14 6H16C17.6569 6 19 7.34315 19 9C19 10.6569 17.6569 12 16 12H10.5C9.67157 12 9 12.6716 9 13.5" stroke="#23294A" stroke-width="1.5" stroke-linecap="round"/>
<path d="M11.5 4V6" stroke="#23294A" stroke-width="1.5" stroke-linecap="round"/>
<path d="M9 4V6" stroke="#23294A" stroke-width="1.5" stroke-linecap="round"/>
<path d="M6 4V6" stroke="#23294A" stroke-width="1.5" stroke-linecap="round"/>
<path d="M9.8305 21H8.16929C7.75904 21 7.384 20.7682 7.20053 20.4013C7.07206 20.1443 7.05093 19.8469 7.14176 19.5744L7.28907 19.1325C7.42592 18.7219 7.42592 18.2781 7.28907 17.8675L7.21071 17.6325C7.07387 17.2219 7.07387 16.7781 7.21071 16.3675L7.35577 15.9324C7.44805 15.6555 7.42658 15.3534 7.29607 15.0924C6.93028 14.3608 7.46227 13.5 8.2802 13.5H9.71958C10.5375 13.5 11.0695 14.3608 10.7037 15.0924C10.5732 15.3534 10.5517 15.6555 10.644 15.9324L10.7891 16.3675C10.9259 16.7781 10.9259 17.2219 10.7891 17.6325L10.7107 17.8675C10.5739 18.2781 10.5739 18.7219 10.7107 19.1325L10.858 19.5744C10.9489 19.8469 10.9277 20.1443 10.7993 20.4013C10.6158 20.7682 10.2407 21 9.8305 21Z" stroke="#23294A" stroke-width="1.5" stroke-linecap="round"/>
</svg>
