<svg width="24" height="24" viewBox="0 0 24 24" fill="none" xmlns="http://www.w3.org/2000/svg">
<path d="M18 11C17.3845 8.53792 15.4621 6.61552 13 6" stroke="#23294A" stroke-width="1.5" stroke-linecap="round"/>
<path d="M15.6137 14.8948L17.8807 16.255C18.7532 16.7785 19.0361 17.9102 18.5126 18.7828L18.481 18.8354C18.1411 19.402 17.6467 19.8598 17.0557 20.1553L16.7175 20.3244C16.2276 20.5694 15.6688 20.6395 15.1336 20.5231L14.8683 20.4655C8.61896 19.1069 3.88557 13.9864 3.02147 7.64968C2.98122 7.35453 2.99766 7.05441 3.06991 6.76543L3.1268 6.53788C3.34155 5.67887 3.86877 4.93074 4.60551 4.43958L4.76066 4.33615C5.69357 3.7142 6.95543 3.98057 7.55739 4.9265L9.09921 7.34937C9.60248 8.14021 9.48894 9.17449 8.8261 9.83733L8.16922 10.4942C8.04319 10.6202 8.00658 10.8103 8.0768 10.9741L8.23341 11.3396C9.02576 13.1884 10.4478 14.6965 12.2469 15.596C12.3778 15.6615 12.5345 15.6474 12.6517 15.5595L13.3847 15.0098C14.0352 14.5219 14.9164 14.4764 15.6137 14.8948Z" stroke="#23294A" stroke-width="1.5"/>
</svg>
