<svg width="24" height="24" viewBox="0 0 24 24" fill="none" xmlns="http://www.w3.org/2000/svg">
<path d="M18 11C17.3845 8.53792 15.4621 6.61552 13 6" stroke="#23294A" stroke-width="1.5" stroke-linecap="round"/>
<path d="M20 9C19.3845 6.53792 17.4621 4.61552 15 4" stroke="#23294A" stroke-width="1.5" stroke-linecap="round"/>
<path d="M16.6137 14.6917L18.8807 16.0518C19.7532 16.5754 20.0361 17.7071 19.5126 18.5796L19.481 18.6323C19.1411 19.1988 18.6467 19.6567 18.0557 19.9522L17.7175 20.1213C17.2276 20.3662 16.6688 20.4363 16.1336 20.32L15.8683 20.2623C9.61896 18.9038 4.88557 13.7832 4.02147 7.44655C3.98122 7.15141 3.99766 6.85129 4.06991 6.5623L4.1268 6.33476C4.34155 5.47574 4.86877 4.72761 5.60551 4.23645L5.76066 4.13302C6.69357 3.51108 7.95543 3.77744 8.55739 4.72337L10.0992 7.14624C10.6025 7.93709 10.4889 8.97137 9.8261 9.63421L9.16922 10.2911C9.04319 10.4171 9.00658 10.6072 9.0768 10.771L9.23341 11.1364C10.0258 12.9853 11.4478 14.4934 13.2469 15.3929C13.3778 15.4584 13.5345 15.4443 13.6517 15.3564L14.3847 14.8066C15.0352 14.3187 15.9164 14.2733 16.6137 14.6917Z" stroke="#23294A" stroke-width="1.5"/>
</svg>
