<svg width="24" height="24" viewBox="0 0 24 24" fill="none" xmlns="http://www.w3.org/2000/svg">
<path d="M9.3 4H7.7C6.76112 4 6 4.76112 6 5.7V7.3C6 8.23888 6.76112 9 7.7 9H9.3C10.2389 9 11 8.23888 11 7.3V5.7C11 4.76112 10.2389 4 9.3 4Z" stroke="#23294A" stroke-width="1.5" stroke-linecap="round"/>
<path d="M9.3 11H7.7C6.76112 11 6 11.7611 6 12.7V18.3C6 19.2389 6.76112 20 7.7 20H9.3C10.2389 20 11 19.2389 11 18.3V12.7C11 11.7611 10.2389 11 9.3 11Z" stroke="#23294A" stroke-width="1.5" stroke-linecap="round"/>
<path d="M17.3 4H15.7C14.7611 4 14 4.76112 14 5.7V11.3C14 12.2389 14.7611 13 15.7 13H17.3C18.2389 13 19 12.2389 19 11.3V5.7C19 4.76112 18.2389 4 17.3 4Z" stroke="#23294A" stroke-width="1.5" stroke-linecap="round"/>
<path d="M17.3 15H15.7C14.7611 15 14 15.7611 14 16.7V18.3C14 19.2389 14.7611 20 15.7 20H17.3C18.2389 20 19 19.2389 19 18.3V16.7C19 15.7611 18.2389 15 17.3 15Z" stroke="#23294A" stroke-width="1.5" stroke-linecap="round"/>
</svg>
