<svg width="24" height="24" viewBox="0 0 24 24" fill="none" xmlns="http://www.w3.org/2000/svg">
<path d="M5 7.5C5 8.88071 6.11929 10 7.5 10C8.88071 10 10 8.88071 10 7.5C10 6.11929 8.88071 5 7.5 5C6.11929 5 5 6.11929 5 7.5Z" stroke="#23294A" stroke-width="1.5" stroke-linecap="round"/>
<path d="M5 15.5C5 16.8807 6.11929 18 7.5 18C8.88071 18 10 16.8807 10 15.5C10 14.1193 8.88071 13 7.5 13C6.11929 13 5 14.1193 5 15.5Z" stroke="#23294A" stroke-width="1.5" stroke-linecap="round"/>
<path d="M14 7.5C14 8.88071 15.1193 10 16.5 10C17.8807 10 19 8.88071 19 7.5C19 6.11929 17.8807 5 16.5 5C15.1193 5 14 6.11929 14 7.5Z" stroke="#23294A" stroke-width="1.5" stroke-linecap="round"/>
<path d="M14 15.5C14 16.8807 15.1193 18 16.5 18C17.8807 18 19 16.8807 19 15.5C19 14.1193 17.8807 13 16.5 13C15.1193 13 14 14.1193 14 15.5Z" stroke="#23294A" stroke-width="1.5" stroke-linecap="round"/>
</svg>
