<svg width="24" height="24" viewBox="0 0 24 24" fill="none" xmlns="http://www.w3.org/2000/svg">
<path d="M8 4H6C4.89543 4 4 4.89543 4 6V8C4 9.10457 4.89543 10 6 10H8C9.10457 10 10 9.10457 10 8V6C10 4.89543 9.10457 4 8 4Z" stroke="#23294A" stroke-width="1.5" stroke-linecap="round"/>
<path d="M8 14H6C4.89543 14 4 14.8954 4 16V18C4 19.1046 4.89543 20 6 20H8C9.10457 20 10 19.1046 10 18V16C10 14.8954 9.10457 14 8 14Z" stroke="#23294A" stroke-width="1.5" stroke-linecap="round"/>
<path d="M18 4H16C14.8954 4 14 4.89543 14 6V8C14 9.10457 14.8954 10 16 10H18C19.1046 10 20 9.10457 20 8V6C20 4.89543 19.1046 4 18 4Z" stroke="#23294A" stroke-width="1.5" stroke-linecap="round"/>
<path d="M18 14H16C14.8954 14 14 14.8954 14 16V18C14 19.1046 14.8954 20 16 20H18C19.1046 20 20 19.1046 20 18V16C20 14.8954 19.1046 14 18 14Z" stroke="#23294A" stroke-width="1.5" stroke-linecap="round"/>
</svg>
