<svg width="24" height="24" viewBox="0 0 24 24" fill="none" xmlns="http://www.w3.org/2000/svg">
<path d="M18.5 7.7V9.8C18.5 11.5673 17.0673 13 15.3 13H8.7C6.93269 13 5.5 11.5673 5.5 9.8V7.7C5.5 5.93269 6.93269 4.5 8.7 4.5H15.3C17.0673 4.5 18.5 5.93269 18.5 7.7Z" stroke="#23294A" stroke-width="1.5" stroke-linecap="round"/>
<path d="M15 13.5V14C15 15.3807 13.8807 16.5 12.5 16.5H11.5C10.1193 16.5 9 15.3807 9 14V13.5" stroke="#23294A" stroke-width="1.5" stroke-linecap="round"/>
<path d="M12 17V19.5" stroke="#23294A" stroke-width="1.5" stroke-linecap="round"/>
<path d="M12.5 6.5L11.5437 7.77507C11.3197 8.07376 11.5328 8.5 11.9062 8.5C12.3098 8.5 12.512 8.98803 12.2265 9.27346L11 10.5" stroke="#23294A" stroke-width="1.5" stroke-linecap="round"/>
</svg>
