<svg width="24" height="24" viewBox="0 0 24 24" fill="none" xmlns="http://www.w3.org/2000/svg">
<path d="M12 21C16.9706 21 21 16.9706 21 12C21 7.02944 16.9706 3 12 3C7.02944 3 3 7.02944 3 12C3 13.6607 3.44978 15.2163 4.23418 16.5517C4.27423 16.6199 4.28705 16.7008 4.26858 16.7777L3.56272 19.7152C3.38285 20.4636 4.08071 21.1262 4.81885 20.9077L7.76179 20.0366C7.83598 20.0146 7.91569 20.0224 7.98491 20.057C9.19362 20.6605 10.5572 21 12 21Z" stroke="#23294A" stroke-width="1.5"/>
<circle cx="16" cy="12" r="1" fill="#23294A"/>
<circle cx="12" cy="12" r="1" fill="#23294A"/>
<circle cx="8" cy="12" r="1" fill="#23294A"/>
</svg>
