<svg width="24" height="24" viewBox="0 0 24 24" fill="none" xmlns="http://www.w3.org/2000/svg">
<path d="M7.2 4H16.8C19.1196 4 21 5.8804 21 8.2V14.8C21 17.1196 19.1196 19 16.8 19H16.2426C15.447 19 14.6839 19.3161 14.1213 19.8787L12.8485 21.1515C12.3799 21.6201 11.6201 21.6201 11.1515 21.1515L9.87868 19.8787C9.31607 19.3161 8.55301 19 7.75736 19H7.2C4.8804 19 3 17.1196 3 14.8V8.2C3 5.8804 4.8804 4 7.2 4Z" stroke="#23294A" stroke-width="1.5" stroke-linecap="round"/>
<path d="M16 12H14" stroke="#23294A" stroke-width="1.5" stroke-linecap="round"/>
<path d="M10 12H8" stroke="#23294A" stroke-width="1.5" stroke-linecap="round"/>
</svg>
