<svg width="24" height="24" viewBox="0 0 24 24" fill="none" xmlns="http://www.w3.org/2000/svg">
<path d="M4 10.6111C4 8.61675 5.74112 7 7.88889 7H14.1111C16.2589 7 18 8.61675 18 10.6111V16.3889C18 18.3832 16.2589 20 14.1111 20H7.88889C5.74112 20 4 18.3832 4 16.3889V10.6111Z" stroke="#23294A" stroke-width="1.5" stroke-linecap="round"/>
<path d="M18 11L4 11" stroke="#23294A" stroke-width="1.5" stroke-linecap="round"/>
<path d="M18 9.7V15.3C18 15.4105 18.0895 15.5 18.2 15.5C19.7464 15.5 21 14.2464 21 12.7V12.3C21 10.7536 19.7464 9.5 18.2 9.5C18.0895 9.5 18 9.58954 18 9.7Z" stroke="#23294A" stroke-width="1.5" stroke-linecap="round"/>
<path d="M14 5V3.5" stroke="#23294A" stroke-width="1.5" stroke-linecap="round"/>
<path d="M11 5V3.5" stroke="#23294A" stroke-width="1.5" stroke-linecap="round"/>
<path d="M8 5V3.5" stroke="#23294A" stroke-width="1.5" stroke-linecap="round"/>
</svg>
