<svg width="24" height="24" viewBox="0 0 24 24" fill="none" xmlns="http://www.w3.org/2000/svg">
<path d="M5 7.7V6.8C5 5.80589 5.80589 5 6.8 5H8.2C9.19411 5 10 5.80589 10 6.8V17.2C10 18.1941 9.19411 19 8.2 19H6.8C5.80589 19 5 18.1941 5 17.2V16.3C5 15.3059 5.80589 14.5 6.8 14.5H17.2C18.1941 14.5 19 15.3059 19 16.3V17.2C19 18.1941 18.1941 19 17.2 19H15.8C14.8059 19 14 18.1941 14 17.2V6.8C14 5.80589 14.8059 5 15.8 5H17.2C18.1941 5 19 5.80589 19 6.8V7.7C19 8.69411 18.1941 9.5 17.2 9.5H6.8C5.80589 9.5 5 8.69411 5 7.7Z" stroke="#23294A" stroke-width="1.5" stroke-linecap="round"/>
</svg>
