<svg width="24" height="24" viewBox="0 0 24 24" fill="none" xmlns="http://www.w3.org/2000/svg">
<path d="M12 13.5V16.5" stroke="#23294A" stroke-width="1.5" stroke-linecap="round"/>
<path d="M9 14.5V15.5" stroke="#23294A" stroke-width="1.5" stroke-linecap="round"/>
<path d="M15 14.5V15.5" stroke="#23294A" stroke-width="1.5" stroke-linecap="round"/>
<path d="M21 15.473V5.6541C21 4.92804 20.11 4.58445 19.6272 5.12413L16.6308 8.47338C16.2824 8.86288 15.6607 8.81083 15.3811 8.36874L12.9491 4.52414C12.507 3.82528 11.493 3.82529 11.0509 4.52414L8.61892 8.36874C8.33926 8.81083 7.71765 8.86288 7.36919 8.47338L4.37284 5.12413C3.89003 4.58445 3 4.92804 3 5.6541V15.473C3 17.9732 5.01472 20 7.5 20H16.5C18.9853 20 21 17.9732 21 15.473Z" stroke="#23294A" stroke-width="1.5" stroke-linecap="round"/>
</svg>
