<svg width="24" height="24" viewBox="0 0 24 24" fill="none" xmlns="http://www.w3.org/2000/svg">
<path d="M10.65 5.77942C11.4854 5.29711 12.5146 5.29711 13.35 5.77942L16.7122 7.72058C17.5476 8.20289 18.0622 9.09423 18.0622 10.0588V13.9412C18.0622 14.9058 17.5476 15.7971 16.7122 16.2794L13.35 18.2206C12.5146 18.7029 11.4854 18.7029 10.65 18.2206L7.28782 16.2794C6.45244 15.7971 5.93782 14.9058 5.93782 13.9412V10.0588C5.93782 9.09423 6.45244 8.20289 7.28782 7.72058L10.65 5.77942Z" stroke="#23294A" stroke-width="1.5"/>
<path d="M12 18V12.8923C12 12.4855 12.2061 12.1065 12.5474 11.8853L17 9" stroke="#23294A" stroke-width="1.7" stroke-linecap="round"/>
<path d="M12 12L7 9" stroke="#23294A" stroke-width="1.7" stroke-linecap="round"/>
</svg>
