<svg width="24" height="24" viewBox="0 0 24 24" fill="none" xmlns="http://www.w3.org/2000/svg">
<path d="M15.459 19.1725L18.8174 16.3298C19.5761 15.6875 19.6706 14.5518 19.0283 13.793L17.7621 12.2971C17.5641 12.0632 17.4031 11.8003 17.2848 11.5176L15.4748 7.1952C15.1116 6.32777 14.3627 5.68086 13.4516 5.44764L7.31694 3.87721C6.11677 3.56997 4.97222 4.53878 5.07699 5.77321L5.61256 12.083C5.69209 13.0201 6.20641 13.8656 7.00193 14.3671L10.966 16.8661C11.2253 17.0296 11.4579 17.2318 11.656 17.4657L12.9221 18.9616C13.5644 19.7203 14.7002 19.8148 15.459 19.1725Z" stroke="#23294A" stroke-width="1.5"/>
<path d="M18.2527 12.8773L12.1465 18.0459" stroke="#23294A" stroke-width="1.5" stroke-linecap="round"/>
<path d="M6.1543 4.77539L8.41556 7.44685L8.98087 8.11472" stroke="#23294A" stroke-width="1.5" stroke-linecap="round"/>
</svg>
