<svg width="24" height="24" viewBox="0 0 24 24" fill="none" xmlns="http://www.w3.org/2000/svg">
<path d="M12 4H14.75C16.2688 4 17.5 5.23122 17.5 6.75C17.5 8.26878 16.2688 9.5 14.75 9.5H12V4Z" stroke="#23294A" stroke-width="1.5" stroke-linecap="round"/>
<path d="M17.6 12.8C17.6 14.3464 16.3464 15.6 14.8 15.6C13.2536 15.6 12 14.3464 12 12.8C12 11.2536 13.2536 10 14.8 10C16.3464 10 17.6 11.2536 17.6 12.8Z" stroke="#23294A" stroke-width="1.5" stroke-linecap="round"/>
<path d="M8.75 4H11.5V9.5H8.75C7.23122 9.5 6 8.26878 6 6.75C6 5.23122 7.23122 4 8.75 4Z" stroke="#23294A" stroke-width="1.5" stroke-linecap="round"/>
<path d="M8.75 10H11.5V15.5H8.75C7.23122 15.5 6 14.2688 6 12.75C6 11.2312 7.23122 10 8.75 10Z" stroke="#23294A" stroke-width="1.5" stroke-linecap="round"/>
<path d="M8.75 16H11.5V18.75C11.5 20.2688 10.2688 21.5 8.75 21.5C7.23122 21.5 6 20.2688 6 18.75C6 17.2312 7.23122 16 8.75 16Z" stroke="#23294A" stroke-width="1.5" stroke-linecap="round"/>
<path d="M12 10.5L12.5 10" stroke="#23294A" stroke-width="1.5" stroke-linecap="round"/>
</svg>
