<svg width="24" height="24" viewBox="0 0 24 24" fill="none" xmlns="http://www.w3.org/2000/svg">
<path d="M6 7.9956C5.6779 8.76637 5.5 9.61241 5.5 10.5V13.5C5.5 17.0899 8.41015 20 12 20C15.5899 20 18.5 17.0899 18.5 13.5V10.5C18.5 6.91015 15.5899 4 12 4C10.4915 4 9.10297 4.51389 8 5.37616" stroke="#23294A" stroke-width="1.5" stroke-linecap="round"/>
<path d="M15.6458 14.6481C15.8733 14.1455 16 13.5876 16 13V11C16 8.79086 14.2091 7 12 7C9.79086 7 8 8.79086 8 11V13C8 15.2091 9.79086 17 12 17C12.6165 17 13.2004 16.8605 13.7219 16.6115" stroke="#23294A" stroke-width="1.5" stroke-linecap="round"/>
<path d="M10.5 12.5V11.5C10.5 10.6716 11.1716 10 12 10C12.8284 10 13.5 10.6716 13.5 11.5V12.5C13.5 13.3284 12.8284 14 12 14C11.1716 14 10.5 13.3284 10.5 12.5Z" stroke="#23294A" stroke-width="1.5" stroke-linecap="round"/>
</svg>
