<svg width="24" height="24" viewBox="0 0 24 24" fill="none" xmlns="http://www.w3.org/2000/svg">
<path d="M8.16023 8.56361L7.69229 9.01265L5.82051 10.8088C5.16696 11.436 5.61725 12.5394 6.523 12.5303L8.48989 12.5104C9.0461 12.5048 9.49999 12.9541 9.49999 13.5104V19.5043C9.49999 20.4065 10.6004 20.8474 11.2233 20.1948L13.0141 18.3188L13.4618 17.8498M10.9679 5.86939L11.4358 5.42036L13.3076 3.62421C13.9433 3.01422 15 3.46474 15 4.34574V10.0002C15 10.5525 15.4477 11.0002 16 11.0002H17.663C18.5427 11.0002 18.9938 12.0543 18.3864 12.6907L16.5956 14.5667L16.1479 15.0357" stroke="#23294A" stroke-width="1.5" stroke-linecap="round"/>
<path d="M8 5L16.5 19" stroke="#23294A" stroke-width="1.5" stroke-linecap="round"/>
</svg>
