<svg width="24" height="24" viewBox="0 0 24 24" fill="none" xmlns="http://www.w3.org/2000/svg">
<path d="M3 16.0455V10.2608C3 7.90764 4.90764 6 7.26084 6C7.41992 6 7.57863 6.01514 7.73484 6.04523L8.97413 6.28391C10.973 6.66888 13.027 6.66888 15.0259 6.28391L16.2652 6.04523C16.4214 6.01514 16.5801 6 16.7392 6C19.0924 6 21 7.90764 21 10.2608V16.0455C21 17.6772 19.6772 19 18.0455 19H17.8306C16.6979 19 15.6513 18.3955 15.0852 17.4144L14.9994 17.2657C14.381 16.1938 13.2375 15.5333 12 15.5333C10.7625 15.5333 9.61898 16.1938 9.00055 17.2657L8.91477 17.4144C8.34874 18.3955 7.30214 19 6.16944 19H5.95455C4.3228 19 3 17.6772 3 16.0455Z" stroke="#23294A" stroke-width="1.5"/>
<path d="M7.5 10V13" stroke="#23294A" stroke-width="1.5" stroke-linecap="round"/>
<path d="M9 11.5H6" stroke="#23294A" stroke-width="1.5" stroke-linecap="round"/>
<circle cx="15" cy="10" r="1" fill="#23294A"/>
<circle cx="17" cy="13" r="1" fill="#23294A"/>
</svg>
