<svg width="24" height="24" viewBox="0 0 24 24" fill="none" xmlns="http://www.w3.org/2000/svg">
<path d="M8.02259 3.9266C12.4814 1.72997 17.8768 3.56387 20.0734 8.02271C22.27 12.4816 20.4361 17.8769 15.9773 20.0735C11.5184 22.2701 6.12311 20.4363 3.92648 15.9774C1.72985 11.5186 3.56374 6.12323 8.02259 3.9266Z" stroke="#23294A" stroke-width="1.5"/>
<path d="M17 12C17 13.0922 16.6424 14.1543 15.9818 15.0241C15.3213 15.8939 14.3941 16.5234 13.342 16.8165C12.2899 17.1097 11.1707 17.0503 10.1556 16.6474C9.14043 16.2445 8.28512 15.5203 7.72036 14.5855C7.1556 13.6506 6.91246 12.5566 7.02811 11.4706C7.14375 10.3845 7.61181 9.36625 8.36076 8.57131C9.1097 7.77637 10.0983 7.24852 11.1756 7.06844C12.2528 6.88835 13.3593 7.06593 14.3261 7.57404" stroke="#23294A" stroke-width="2" stroke-linecap="round"/>
<path d="M17 12L12 12" stroke="#23294A" stroke-width="2" stroke-linecap="round"/>
</svg>
