<svg width="24" height="24" viewBox="0 0 24 24" fill="none" xmlns="http://www.w3.org/2000/svg">
<g clip-path="url(#clip0_4_6600)">
<circle cx="11.9999" cy="12" r="9" transform="rotate(-116.227 11.9999 12)" stroke="#23294A" stroke-width="1.5"/>
<circle cx="12" cy="12" r="4" stroke="#23294A" stroke-width="2"/>
<path d="M4.05334 6.98877L5.58533 6.25187L9.0433 13.4408C9.24679 13.8639 9.06881 14.3718 8.64576 14.5753C8.22271 14.7788 7.71481 14.6008 7.51132 14.1777L4.05334 6.98877Z" fill="#23294A"/>
<path d="M20.0929 7V8.7H12.1155C11.6461 8.7 11.2655 8.31944 11.2655 7.85C11.2655 7.38056 11.6461 7 12.1155 7L20.0929 7Z" fill="#23294A"/>
<path d="M11.6265 21.3984L10.2226 20.4397L14.7215 13.8519C14.9862 13.4643 15.5151 13.3646 15.9028 13.6294C16.2905 13.8941 16.3901 14.423 16.1254 14.8107L11.6265 21.3984Z" fill="#23294A"/>
</g>
<defs>
<clipPath id="clip0_4_6600">
<rect width="24" height="24" fill="white"/>
</clipPath>
</defs>
</svg>
