<svg width="24" height="24" viewBox="0 0 24 24" fill="none" xmlns="http://www.w3.org/2000/svg">
<path d="M17.8 12C18.4627 12 19.0105 12.5411 18.8974 13.1942C18.7313 14.1535 18.3661 15.0722 17.8203 15.889C17.0511 17.0401 15.9579 17.9373 14.6788 18.4672C13.3997 18.997 11.9922 19.1356 10.6344 18.8655C9.2765 18.5954 8.02922 17.9287 7.05025 16.9497C6.07128 15.9708 5.4046 14.7235 5.1345 13.3656C4.86441 12.0078 5.00303 10.6003 5.53284 9.32122C6.06266 8.04213 6.95986 6.94888 8.11101 6.17971C8.92784 5.63392 9.8465 5.2687 10.8058 5.10261C11.4589 4.98954 12 5.53726 12 6.2V11.5C12 11.7761 12.2239 12 12.5 12H17.8Z" stroke="#23294A" stroke-width="1.5"/>
<path d="M14 8.49985V5.62117C14 4.28481 15.6157 3.61556 16.5607 4.56051L19.4393 7.43919C20.3843 8.38414 19.715 9.99985 18.3787 9.99985H15.5C14.6716 9.99985 14 9.32828 14 8.49985Z" stroke="#23294A" stroke-width="1.5" stroke-linecap="round"/>
</svg>
