<svg width="24" height="24" viewBox="0 0 24 24" fill="none" xmlns="http://www.w3.org/2000/svg">
<path d="M4.5 4V20" stroke="#23294A" stroke-width="1.5" stroke-linecap="round"/>
<path d="M18.5 7.5V6C18.5 4.89543 17.6046 4 16.5 4H10C8.89543 4 8 4.89543 8 6V7.5C8 8.60457 8.89543 9.5 10 9.5H16.5C17.6046 9.5 18.5 8.60457 18.5 7.5Z" stroke="#23294A" stroke-width="1.5" stroke-linecap="round"/>
<path d="M21 17V15C21 13.8954 20.1046 13 19 13H10C8.89543 13 8 13.8954 8 15V17C8 18.1046 8.89543 19 10 19H19C20.1046 19 21 18.1046 21 17Z" stroke="#23294A" stroke-width="1.5" stroke-linecap="round"/>
</svg>
