<svg width="24" height="24" viewBox="0 0 24 24" fill="none" xmlns="http://www.w3.org/2000/svg">
<path d="M19.5 4V20" stroke="#23294A" stroke-width="1.5" stroke-linecap="round"/>
<path d="M16 7.5V6C16 4.89543 15.1046 4 14 4H7.5C6.39543 4 5.5 4.89543 5.5 6V7.5C5.5 8.60457 6.39543 9.5 7.5 9.5H14C15.1046 9.5 16 8.60457 16 7.5Z" stroke="#23294A" stroke-width="1.5" stroke-linecap="round"/>
<path d="M16 17V15C16 13.8954 15.1046 13 14 13H5C3.89543 13 3 13.8954 3 15V17C3 18.1046 3.89543 19 5 19H14C15.1046 19 16 18.1046 16 17Z" stroke="#23294A" stroke-width="1.5" stroke-linecap="round"/>
</svg>
