<svg width="24" height="24" viewBox="0 0 24 24" fill="none" xmlns="http://www.w3.org/2000/svg">
<path d="M5.93782 14.5C5.32344 13.4359 5 12.2288 5 11C5 9.77124 5.32344 8.56413 5.93782 7.5C6.5522 6.43587 7.43587 5.5522 8.5 4.93782C9.56413 4.32344 10.7712 4 12 4C13.2288 4 14.4359 4.32344 15.5 4.93782C16.5641 5.5522 17.4478 6.43587 18.0622 7.5C18.6766 8.56413 19 9.77124 19 11C19 12.2288 18.6766 13.4359 18.0622 14.5" stroke="#23294A" stroke-width="1.5"/>
<path d="M15.3479 16.4109L16.2047 15.0529C16.6467 14.3522 17.573 14.1426 18.2737 14.5846C18.9743 15.0266 19.184 15.9529 18.742 16.6536L17.8852 18.0116C17.4432 18.7123 16.5169 18.9219 15.8162 18.4799C15.1156 18.0379 14.9059 17.1116 15.3479 16.4109Z" stroke="#23294A" stroke-width="1.5" stroke-linecap="round"/>
<path d="M8.33751 15.2686L9.19434 16.6266C9.6364 17.3272 9.4268 18.2536 8.72617 18.6956C8.02555 19.1377 7.09922 18.9281 6.65716 18.2275L5.80033 16.8695C5.35827 16.1688 5.56787 15.2425 6.2685 14.8005C6.96912 14.3584 7.89545 14.568 8.33751 15.2686Z" stroke="#23294A" stroke-width="1.5" stroke-linecap="round"/>
<path d="M14.376 19.584C14.1462 19.9286 14.2393 20.3943 14.584 20.624C14.9286 20.8538 15.3943 20.7607 15.624 20.416L14.376 19.584ZM15.376 18.084L14.376 19.584L15.624 20.416L16.624 18.916L15.376 18.084Z" fill="#23294A"/>
</svg>
