<svg width="24" height="24" viewBox="0 0 24 24" fill="none" xmlns="http://www.w3.org/2000/svg">
<path d="M21 10.2136C21 13.0266 19.2637 15.1019 17 17.0002C16.1255 17.7335 15.1591 18.4269 14.2086 19.1516C12.9284 20.1278 11.0733 20.1258 9.79369 19.1488C8.83697 18.4184 7.87175 17.7286 7 17.0002C4.72535 15.0996 3 13.0442 3 10.2136C3 5.49998 8.17524 2.53219 11.8579 5.86758C11.9374 5.93963 12.0626 5.93963 12.1421 5.86758C15.8248 2.53219 21 5.49998 21 10.2136Z" stroke="#23294A" stroke-width="1.5"/>
<path d="M16 8L16.077 8.02566C16.9268 8.30893 17.5 9.10421 17.5 10V10" stroke="#23294A" stroke-width="1.6" stroke-linecap="round"/>
</svg>
