<svg width="24" height="24" viewBox="0 0 24 24" fill="none" xmlns="http://www.w3.org/2000/svg">
<path d="M19.3146 8.62924C19.378 8.70649 19.4401 8.78485 19.5007 8.86431C20.895 10.6909 20.8949 13.3093 19.5005 15.1359C18.4013 16.5759 16.8497 17.6538 15.0005 18.3179C13.0718 19.0106 10.9288 19.0107 9 18.3181V18.3181C8.28599 18.0617 7.61636 17.7436 7 17.3669M15 5.68189V5.68189C13.0712 4.98925 10.9282 4.98936 8.99946 5.68209C6.69234 6.51071 4.84857 7.98326 3.76837 9.99967C3.10243 11.2428 3.10231 12.7569 3.7682 14V14C3.95561 14.3499 4.16601 14.6834 4.39784 15" stroke="#23294A" stroke-width="1.5" stroke-linecap="round"/>
<circle cx="12" cy="12" r="3" stroke="#23294A" stroke-width="1.5"/>
<path d="M19.398 5.47018L3.60202 18.0295" stroke="#23294A" stroke-width="1.5" stroke-linecap="round"/>
</svg>
