<svg width="24" height="24" viewBox="0 0 24 24" fill="none" xmlns="http://www.w3.org/2000/svg">
<path d="M3 8C3 5.23858 5.23858 3 8 3H16C18.7614 3 21 5.23858 21 8V16C21 18.7614 18.7614 21 16 21H8C5.23858 21 3 18.7614 3 16V8Z" stroke="#23294A" stroke-width="1.5" stroke-linecap="round"/>
<path d="M20.5 13H17.4415C16.5807 13 15.8164 13.5509 15.5442 14.3675L15.4558 14.6325C15.1836 15.4491 14.4193 16 13.5585 16H10.4415C9.58066 16 8.81638 15.4491 8.54415 14.6325L8.45585 14.3675C8.18362 13.5509 7.41934 13 6.55848 13H3.5" stroke="#23294A" stroke-width="1.5" stroke-linecap="round"/>
<path d="M14 10H10" stroke="#23294A" stroke-width="1.5" stroke-linecap="round"/>
<path d="M13 7H11" stroke="#23294A" stroke-width="1.5" stroke-linecap="round"/>
</svg>
