<svg width="24" height="24" viewBox="0 0 24 24" fill="none" xmlns="http://www.w3.org/2000/svg">
<path d="M12.566 3.83937L17.8341 7.00024C18.5672 7.44015 18.5402 8.51171 17.7858 8.91407L12.5177 11.7237C12.1941 11.8963 11.8059 11.8963 11.4824 11.7237L6.21426 8.91407C5.45982 8.51171 5.43278 7.44015 6.16596 7.00024L11.4341 3.83938C11.7824 3.63036 12.2176 3.63036 12.566 3.83937Z" stroke="#23294A" stroke-width="1.5" stroke-linecap="round"/>
<path d="M5.26562 11.875L5.5 12L6.4375 12.5L8.3125 13.5L11.4756 15.2156C11.8027 15.393 12.1973 15.393 12.5244 15.2156L15.6875 13.5L17.5625 12.5L18.5 12L18.7344 11.875" stroke="#23294A" stroke-width="1.5" stroke-linecap="round"/>
<path d="M5.20312 15L5.4375 15.125L6.375 15.625L8.25 16.625L11.4824 18.3489C11.8059 18.5215 12.1941 18.5215 12.5176 18.3489L15.75 16.625L17.625 15.625L18.5625 15.125L18.7969 15" stroke="#23294A" stroke-width="1.5" stroke-linecap="round"/>
</svg>
