<svg width="24" height="24" viewBox="0 0 24 24" fill="none" xmlns="http://www.w3.org/2000/svg">
<path d="M13.7653 19.7229L12.9168 20.2886C12.3616 20.6587 11.6383 20.6587 11.0831 20.2886L10.2346 19.7229C9.21401 19.0425 8.26312 18.263 7.39578 17.3956L6.57608 16.5759C6.15992 16.1598 5.78697 15.6937 5.471 15.1972C3.51612 12.1252 3.93186 8.06794 6.5066 5.4932C9.5405 2.4593 14.4594 2.4593 17.4933 5.4932C20.0681 8.06794 20.4838 12.1252 18.5289 15.1972C18.213 15.6937 17.84 16.1598 17.4239 16.5759L16.6042 17.3956C15.7368 18.263 14.7859 19.0425 13.7653 19.7229Z" stroke="#23294A" stroke-width="1.5"/>
<path d="M9 9.99999C9 11.6568 10.3432 13 12 13C13.6568 13 15 11.6568 15 9.99999C15 8.34314 13.6568 7 12 7C10.3432 7 9 8.34314 9 9.99999Z" stroke="#23294A" stroke-width="1.5"/>
</svg>
