<svg width="24" height="24" viewBox="0 0 24 24" fill="none" xmlns="http://www.w3.org/2000/svg">
<path d="M8.5 21H15.5C16.6046 21 17.5 20.1046 17.5 19V12.8284C17.5 12.298 17.2893 11.7893 16.9142 11.4142L15.5858 10.0858C15.2107 9.71071 15 9.20201 15 8.67157V6C15 5.72386 14.7761 5.5 14.5 5.5H9.5C9.22386 5.5 9 5.72386 9 6V8.67157C9 9.20201 8.78929 9.71071 8.41421 10.0858L7.08579 11.4142C6.71071 11.7893 6.5 12.298 6.5 12.8284V19C6.5 20.1046 7.39543 21 8.5 21Z" stroke="#23294A" stroke-width="1.5" stroke-linecap="round"/>
<path d="M9 5.5H15C15.5523 5.5 16 5.05228 16 4.5V4C16 3.44772 15.5523 3 15 3H9C8.44772 3 8 3.44772 8 4V4.5C8 5.05228 8.44772 5.5 9 5.5Z" stroke="#23294A" stroke-width="1.5" stroke-linecap="round"/>
<path d="M17 14.5L14.8727 13.7909C14.3188 13.6063 13.7119 13.6729 13.2112 13.9733L12.529 14.3826C11.8956 14.7626 11.1044 14.7626 10.471 14.3826L9.85068 14.0104C9.31472 13.6888 8.65923 13.6363 8.0789 13.8684L6.5 14.5" stroke="#23294A" stroke-width="1.5" stroke-linecap="round"/>
</svg>
