<svg width="24" height="24" viewBox="0 0 24 24" fill="none" xmlns="http://www.w3.org/2000/svg">
<path d="M3 9C3 6.79086 4.79086 5 7 5H17C19.2091 5 21 6.79086 21 9C21 9.12027 20.9947 9.23929 20.9843 9.35685C20.9947 9.46985 21 9.5843 21 9.7V14.3C21 14.4157 20.9947 14.5302 20.9843 14.6432C20.9947 14.7607 21 14.8797 21 15C21 17.2091 19.2091 19 17 19H7C4.79086 19 3 17.2091 3 15M3 9C3 9.12026 3.00531 9.23929 3.0157 9.35685C3.00531 9.46984 3 9.5843 3 9.7V14.3C3 14.4157 3.00531 14.5302 3.0157 14.6431C3.00531 14.7607 3 14.8797 3 15M3 9V15" stroke="#23294A" stroke-width="1.5"/>
<circle cx="12" cy="12" r="2" stroke="#23294A" stroke-width="1.5"/>
<path d="M18 8L15.5 8" stroke="#23294A" stroke-width="1.5" stroke-linecap="round"/>
<path d="M8.5 16H6" stroke="#23294A" stroke-width="1.5" stroke-linecap="round"/>
</svg>
