<svg width="24" height="24" viewBox="0 0 24 24" fill="none" xmlns="http://www.w3.org/2000/svg">
<path d="M8.9375 4.5H8.5C6.29086 4.5 4.5 6.29086 4.5 8.5V17C4.5 19.2091 6.29086 21 8.5 21H15.5C17.7091 21 19.5 19.2091 19.5 17V8.5C19.5 6.29086 17.7091 4.5 15.5 4.5H15.0625" stroke="#23294A" stroke-width="1.5" stroke-linecap="round"/>
<path d="M15 5V4.5C15 3.67157 14.3284 3 13.5 3H10.5C9.67157 3 9 3.67157 9 4.5V5C9 5.82843 9.67157 6.5 10.5 6.5H13.5C14.3284 6.5 15 5.82843 15 5Z" stroke="#23294A" stroke-width="1.5" stroke-linecap="round"/>
<path d="M13 16.5H8" stroke="#23294A" stroke-width="1.5" stroke-linecap="round"/>
<path d="M11.5 13.5H8" stroke="#23294A" stroke-width="1.5" stroke-linecap="round"/>
</svg>
