<svg width="24" height="24" viewBox="0 0 24 24" fill="none" xmlns="http://www.w3.org/2000/svg">
<path d="M15.4023 19.9999L15.4286 20C17.9533 20 20 17.9533 20 15.4286L19.9999 15.4023L20 15.401V8.59902L19.9999 8.59767L20 8.57143C20 6.0467 17.9533 4 15.4286 4L15.4023 4.00007L15.401 4H8.59902L8.59767 4.00007L8.57143 4C6.0467 4 4 6.0467 4 8.57143L4.00007 8.59767L4 8.59902V15.401L4.00007 15.4023L4 15.4286C4 17.9533 6.0467 20 8.57143 20L8.59767 19.9999L8.59902 20H15.401L15.4023 19.9999Z" stroke="#23294A" stroke-width="1.5"/>
<path d="M14.5 6V2.5" stroke="#23294A" stroke-width="1.5" stroke-linecap="round"/>
<path d="M9.5 6V2.5" stroke="#23294A" stroke-width="1.5" stroke-linecap="round"/>
<path d="M11 12H8" stroke="#23294A" stroke-width="1.5" stroke-linecap="round"/>
<path d="M13 15L8 15" stroke="#23294A" stroke-width="1.5" stroke-linecap="round"/>
</svg>
