<svg width="24" height="24" viewBox="0 0 24 24" fill="none" xmlns="http://www.w3.org/2000/svg">
<circle cx="12" cy="12" r="9" stroke="#23294A" stroke-width="1.5"/>
<path d="M14.5 8.5H15.5C16.0523 8.5 16.5 8.94772 16.5 9.5V14.5C16.5 15.0523 16.0523 15.5 15.5 15.5H14.5C13.9477 15.5 13.5 15.0523 13.5 14.5V9.5C13.5 8.94772 13.9477 8.5 14.5 8.5Z" stroke="#23294A" stroke-width="1.5"/>
<path d="M8.5 8.5H9.5C10.0523 8.5 10.5 8.94772 10.5 9.5V14.5C10.5 15.0523 10.0523 15.5 9.5 15.5H8.5C7.94772 15.5 7.5 15.0523 7.5 14.5V9.5C7.5 8.94772 7.94772 8.5 8.5 8.5Z" stroke="#23294A" stroke-width="1.5"/>
</svg>
