<svg width="24" height="24" viewBox="0 0 24 24" fill="none" xmlns="http://www.w3.org/2000/svg">
<path d="M15.2 5.5H17.3C18.2389 5.5 19 6.26112 19 7.2V17.3C19 18.2389 18.2389 19 17.3 19H15.2C14.2611 19 13.5 18.2389 13.5 17.3V7.2C13.5 6.26112 14.2611 5.5 15.2 5.5Z" stroke="#23294A" stroke-width="1.5"/>
<path d="M5 17.3V7.2C5 6.26112 5.76112 5.5 6.7 5.5H8.8C9.73888 5.5 10.5 6.26112 10.5 7.2V17.3C10.5 18.2389 9.73888 19 8.8 19H6.7C5.76112 19 5 18.2389 5 17.3Z" stroke="#23294A" stroke-width="1.5"/>
</svg>
