<svg width="24" height="24" viewBox="0 0 24 24" fill="none" xmlns="http://www.w3.org/2000/svg">
<path d="M19 12C19 13.4221 18.5669 14.8104 17.7583 15.9802C16.9497 17.1501 15.8039 18.0459 14.4736 18.5484C13.1433 19.0509 11.6914 19.1363 10.3114 18.7933C8.93128 18.4502 7.68842 17.695 6.74821 16.628C5.80801 15.5611 5.21506 14.2331 5.0483 12.8209C4.88153 11.4086 5.14887 9.97903 5.81471 8.72247C6.48056 7.4659 7.51333 6.44193 8.77555 5.78687C10.0378 5.13181 11.4696 4.87673 12.8804 5.05558" stroke="#23294A" stroke-width="1.5" stroke-linecap="round"/>
<path d="M12 3L13.6464 4.64645C13.8417 4.84171 13.8417 5.15829 13.6464 5.35355L12 7" stroke="#23294A" stroke-width="1.5" stroke-linecap="round"/>
</svg>
