<svg width="24" height="24" viewBox="0 0 24 24" fill="none" xmlns="http://www.w3.org/2000/svg">
<path d="M10.5681 4.87971C11.2885 3.93398 12.7115 3.93398 13.4319 4.87971L14.0999 5.75667C14.4489 6.21483 14.996 6.47833 15.5718 6.46552L16.674 6.441C17.8625 6.41455 18.7498 7.52716 18.4595 8.68003L18.1904 9.74905C18.0498 10.3076 18.1849 10.8996 18.5539 11.3418L19.2602 12.1882C20.022 13.101 19.7053 14.4884 18.623 14.9802L17.6194 15.4363C17.095 15.6746 16.7164 16.1494 16.6007 16.7136L16.3794 17.7936C16.1407 18.9582 14.8586 19.5757 13.7992 19.0361L12.8169 18.5359C12.3036 18.2745 11.6963 18.2745 11.1831 18.5359L10.2008 19.0361C9.14142 19.5757 7.85927 18.9582 7.62058 17.7936L7.39924 16.7136C7.28361 16.1494 6.90496 15.6746 6.38062 15.4363L5.37701 14.9802C4.29469 14.4884 3.97803 13.101 4.73975 12.1882L5.44608 11.3418C5.8151 10.8996 5.95024 10.3076 5.80962 9.74905L5.54047 8.68003C5.25021 7.52716 6.13749 6.41455 7.32604 6.441L8.42815 6.46552C9.00395 6.47833 9.55111 6.21483 9.9001 5.75667L10.5681 4.87971Z" stroke="#23294A" stroke-width="1.5"/>
<circle cx="12" cy="12" r="2.25" stroke="#23294A" stroke-width="1.5"/>
</svg>
