<svg width="24" height="24" viewBox="0 0 24 24" fill="none" xmlns="http://www.w3.org/2000/svg">
<path d="M14 12C14 13.1046 13.1046 14 12 14C10.8954 14 10 13.1046 10 12C10 10.8954 10.8954 10 12 10C13.1046 10 14 10.8954 14 12Z" stroke="#23294A" stroke-width="1.5" stroke-linecap="round"/>
<path d="M18 8C19.1252 9.12522 19.7573 10.6513 19.7573 12.2426C19.7573 13.8339 19.1252 15.3601 18 16.4853" stroke="#23294A" stroke-width="1.5" stroke-linecap="round"/>
<path d="M5.75736 16.4854C4.63214 15.3601 4 13.834 4 12.2427C4 10.6514 4.63214 9.12529 5.75736 8.00007" stroke="#23294A" stroke-width="1.5" stroke-linecap="round"/>
<path d="M16 10C16.5626 10.5626 16.8787 11.3257 16.8787 12.1213C16.8787 12.917 16.5626 13.68 16 14.2426" stroke="#23294A" stroke-width="1.5" stroke-linecap="round"/>
<path d="M7.87868 14.2427C7.31607 13.6801 7 12.917 7 12.1214C7 11.3257 7.31607 10.5626 7.87868 10" stroke="#23294A" stroke-width="1.5" stroke-linecap="round"/>
</svg>
