<svg width="24" height="24" viewBox="0 0 24 24" fill="none" xmlns="http://www.w3.org/2000/svg">
<path d="M13.586 4H8C6.34315 4 5 5.34315 5 7V18C5 19.6569 6.34315 21 8 21H16.5C18.1569 21 19.5 19.6569 19.5 18V10.0144C19.5 9.36388 19.2465 8.739 18.7932 8.27241L15.3792 4.75804C14.9085 4.27344 14.2616 4 13.586 4Z" stroke="#23294A" stroke-width="1.5" stroke-linecap="round"/>
<path d="M13.5 9.5H10.5" stroke="#23294A" stroke-width="1.5" stroke-linecap="round"/>
<path d="M10.5 13H13.5C14.3284 13 15 13.6716 15 14.5V16.5C15 17.3284 14.3284 18 13.5 18H10.5C9.67157 18 9 17.3284 9 16.5V14.5C9 13.6716 9.67157 13 10.5 13Z" stroke="#23294A" stroke-width="1.5" stroke-linecap="round"/>
</svg>
