<svg width="24" height="24" viewBox="0 0 24 24" fill="none" xmlns="http://www.w3.org/2000/svg">
<path d="M10.7 4H13.3C14.7912 4 16 5.20883 16 6.7V18.3C16 19.7912 14.7912 21 13.3 21H10.7C9.20883 21 8 19.7912 8 18.3V6.7C8 5.20883 9.20883 4 10.7 4Z" stroke="#23294A" stroke-width="1.5" stroke-linecap="round"/>
<path d="M16 7L18.3778 7.89168C19.3536 8.25759 20 9.19039 20 10.2325V14.7675C20 15.8096 19.3536 16.7424 18.3778 17.1083L16 18" stroke="#23294A" stroke-width="1.5" stroke-linecap="round"/>
<path d="M8 18L5.20943 17.0698C4.18857 16.7295 3.5 15.7742 3.5 14.6981V10.3019C3.5 9.22582 4.18858 8.27047 5.20943 7.93019L8 7" stroke="#23294A" stroke-width="1.5" stroke-linecap="round"/>
</svg>
