<svg width="24" height="24" viewBox="0 0 24 24" fill="none" xmlns="http://www.w3.org/2000/svg">
<path d="M10.992 5.30717C11.3762 4.42769 12.6238 4.42769 13.008 5.30717L14.5639 8.86847C14.6749 9.12242 14.8776 9.32513 15.1315 9.43608L18.6928 10.992C19.5723 11.3762 19.5723 12.6238 18.6928 13.008L15.1315 14.5639C14.8776 14.6749 14.6749 14.8776 14.5639 15.1315L13.008 18.6928C12.6238 19.5723 11.3762 19.5723 10.992 18.6928L9.43608 15.1315C9.32513 14.8776 9.12242 14.6749 8.86848 14.5639L5.30717 13.008C4.42769 12.6238 4.42769 11.3762 5.30717 10.992L8.86847 9.43608C9.12242 9.32513 9.32513 9.12242 9.43608 8.86848L10.992 5.30717Z" stroke="#23294A" stroke-width="1.5"/>
</svg>
