<svg width="24" height="24" viewBox="0 0 24 24" fill="none" xmlns="http://www.w3.org/2000/svg">
<path d="M10.6277 4.87678C11.3068 3.94797 12.6932 3.94797 13.3723 4.87678L14.9572 7.04434C15.167 7.33131 15.4615 7.54527 15.7992 7.65615L18.3505 8.49364C19.4437 8.85251 19.8721 10.171 19.1986 11.1039L17.6269 13.281C17.4188 13.5693 17.3063 13.9155 17.3052 14.2709L17.2971 16.9561C17.2936 18.1067 16.172 18.9216 15.0767 18.5693L12.5204 17.7473C12.182 17.6385 11.818 17.6385 11.4796 17.7473L8.9233 18.5693C7.82794 18.9216 6.70636 18.1067 6.70288 16.9561L6.69475 14.2709C6.69367 13.9155 6.58118 13.5693 6.3731 13.281L4.80138 11.1039C4.1279 10.171 4.5563 8.85251 5.64951 8.49364L8.20074 7.65615C8.53849 7.54527 8.83299 7.33131 9.04281 7.04434L10.6277 4.87678Z" stroke="#23294A" stroke-width="1.5"/>
</svg>
