<svg width="24" height="24" viewBox="0 0 24 24" fill="none" xmlns="http://www.w3.org/2000/svg">
<path d="M15.0836 4.09743C15.433 3.2979 16.567 3.2979 16.9164 4.09743L17.6674 5.81655C17.7683 6.04741 17.9526 6.2317 18.1834 6.33256L19.9026 7.08364C20.7021 7.43295 20.7021 8.56705 19.9026 8.91636L18.1834 9.66744C17.9526 9.7683 17.7683 9.95259 17.6674 10.1834L16.9164 11.9026C16.567 12.7021 15.433 12.7021 15.0836 11.9026L14.3326 10.1834C14.2317 9.95259 14.0474 9.7683 13.8166 9.66744L12.0974 8.91636C11.2979 8.56705 11.2979 7.43295 12.0974 7.08364L13.8166 6.33256C14.0474 6.2317 14.2317 6.04741 14.3326 5.81655L15.0836 4.09743Z" stroke="#23294A" stroke-width="1.5"/>
<path d="M6.67528 9.88769C6.98966 9.16811 8.01034 9.16811 8.32472 9.88769L8.72705 10.8085C8.81782 11.0163 8.98368 11.1822 9.19145 11.273L10.1123 11.6753C10.8319 11.9897 10.8319 13.0103 10.1123 13.3247L9.19145 13.727C8.98368 13.8178 8.81782 13.9837 8.72705 14.1915L8.32472 15.1123C8.01034 15.8319 6.98966 15.8319 6.67528 15.1123L6.27295 14.1915C6.18218 13.9837 6.01632 13.8178 5.80855 13.727L4.88769 13.3247C4.16811 13.0103 4.16811 11.9897 4.88769 11.6753L5.80855 11.273C6.01632 11.1822 6.18218 11.0163 6.27295 10.8085L6.67528 9.88769Z" stroke="#23294A" stroke-width="1.5"/>
<path d="M13.5782 15.6628C13.7747 15.3541 14.2253 15.3541 14.4218 15.6628L15.1071 16.7396C15.1464 16.8013 15.1987 16.8536 15.2604 16.8929L16.3372 17.5782C16.6459 17.7747 16.6459 18.2253 16.3372 18.4218L15.2604 19.1071C15.1987 19.1464 15.1464 19.1987 15.1071 19.2604L14.4218 20.3372C14.2253 20.6459 13.7747 20.6459 13.5782 20.3372L12.8929 19.2604C12.8536 19.1987 12.8013 19.1464 12.7396 19.1071L11.6628 18.4218C11.3541 18.2253 11.3541 17.7747 11.6628 17.5782L12.7396 16.8929C12.8013 16.8536 12.8536 16.8013 12.8929 16.7396L13.5782 15.6628Z" stroke="#23294A" stroke-width="1.5"/>
</svg>
