<svg width="24" height="24" viewBox="0 0 24 24" fill="none" xmlns="http://www.w3.org/2000/svg">
<path d="M10.0132 10.3664C10.0045 10.2454 10 10.1232 10 10C10 7.23858 12.2386 5 15 5C17.7614 5 20 7.23858 20 10C20 12.7614 17.7614 15 15 15C14.7873 15 14.5777 14.9867 14.3719 14.9609" stroke="#23294A" stroke-width="1.5"/>
<circle cx="9" cy="15" r="5" stroke="#23294A" stroke-width="1.5"/>
<path d="M4 3.6L4 7.77546C4 7.86204 4.10254 7.90771 4.1669 7.84979L8.8063 3.67433C8.87442 3.61302 8.83105 3.5 8.7394 3.5L4.1 3.5C4.04477 3.5 4 3.54477 4 3.6Z" stroke="#23294A" stroke-width="1.5" stroke-linecap="round"/>
<path d="M20 16.2245V20.4C20 20.4552 19.9552 20.5 19.9 20.5H15.2606C15.1689 20.5 15.1256 20.387 15.1937 20.3257L19.8331 16.1502C19.8975 16.0923 20 16.138 20 16.2245Z" stroke="#23294A" stroke-width="1.5" stroke-linecap="round"/>
</svg>
