<svg width="24" height="24" viewBox="0 0 24 24" fill="none" xmlns="http://www.w3.org/2000/svg">
<circle cx="11" cy="9" r="4" stroke="#23294A" stroke-width="1.5"/>
<path d="M17 19.9999C16.7973 19.5944 16.5265 19.2532 16.204 18.9538C13.5414 16.4816 8.45857 16.4816 5.79602 18.9538C5.47354 19.2532 5.20272 19.5944 5 19.9999" stroke="#23294A" stroke-width="1.5" stroke-linecap="round"/>
<path d="M20 9C20 10.6583 18.6712 12 17.0345 12C16.2462 12 15.533 11.691 15 11.1784C15.4129 10.5452 15.6381 9.79899 15.6381 9C15.6381 8.201 15.4129 7.45477 15 6.82161C15.533 6.30905 16.2462 6 17.0345 6C18.6712 6 20 7.34171 20 9Z" stroke="#23294A" stroke-width="1.5" stroke-linecap="round" stroke-linejoin="round"/>
</svg>
