<svg width="24" height="24" viewBox="0 0 24 24" fill="none" xmlns="http://www.w3.org/2000/svg">
<path d="M20.5858 13.4144C21.3668 12.6334 21.3668 11.367 20.5858 10.586L19.5858 9.58597C19.2107 9.2109 19 8.70219 19 8.17176V7.00019C19 5.89562 18.1046 5.00019 17 5.00019H15.8284C15.298 5.00019 14.7893 4.78947 14.4142 4.4144L13.4142 3.4144C12.6332 2.63335 11.3668 2.63335 10.5858 3.4144L9.58579 4.4144C9.21072 4.78947 8.70201 5.00019 8.17158 5.00019H7C5.89543 5.00019 5 5.89562 5 7.00019V8.17176C5 8.70219 4.78929 9.2109 4.41422 9.58597L3.41422 10.586C2.63317 11.367 2.63317 12.6334 3.41422 13.4144L4.41422 14.4144C4.78929 14.7895 5 15.2982 5 15.8286V17.0002C5 18.1048 5.89543 19.0002 7 19.0002H8.17158C8.70201 19.0002 9.21072 19.2109 9.58579 19.586L10.5858 20.586C11.3668 21.367 12.6332 21.367 13.4142 20.586L14.4142 19.586C14.7893 19.2109 15.298 19.0002 15.8284 19.0002H17C18.1046 19.0002 19 18.1048 19 17.0002V15.8286C19 15.2982 19.2107 14.7895 19.5858 14.4144L20.5858 13.4144Z" stroke="#23294A" stroke-width="1.5" stroke-linecap="round"/>
<path d="M9.5 12.4092L10.6694 13.5786C10.7014 13.6106 10.7532 13.6106 10.7851 13.5786L14 10.3638" stroke="#23294A" stroke-width="1.5" stroke-linecap="round"/>
</svg>
