<svg width="24" height="24" viewBox="0 0 24 24" fill="none" xmlns="http://www.w3.org/2000/svg">
<path d="M3 8C3 5.23858 5.23858 3 8 3H16C18.7614 3 21 5.23858 21 8V16C21 18.7614 18.7614 21 16 21H8C5.23858 21 3 18.7614 3 16V8Z" stroke="#23294A" stroke-width="1.5" stroke-linecap="round"/>
<path d="M20.5 9.5H3.5" stroke="#23294A" stroke-width="1.5" stroke-linecap="round"/>
<path d="M16 2.99992L12.8393 9.2686" stroke="#23294A" stroke-width="1.5" stroke-linecap="round"/>
<path d="M10.4468 2.99988L6.83926 9.26856" stroke="#23294A" stroke-width="1.5" stroke-linecap="round"/>
<path d="M11.8861 17.7555C10.8825 18.3266 9.63708 17.597 9.64439 16.4423L9.66084 13.8443C9.66815 12.6896 10.9227 11.9758 11.919 12.5595L14.1607 13.8728C15.1571 14.4564 15.1479 15.8998 14.1443 16.4708L11.8861 17.7555Z" stroke="#23294A" stroke-width="1.5"/>
</svg>
