<svg width="24" height="24" viewBox="0 0 24 24" fill="none" xmlns="http://www.w3.org/2000/svg">
<path d="M9 11V6C9 4.34315 10.3431 3 12 3C13.6569 3 15 4.34315 15 6V11C15 12.6569 13.6569 14 12 14C10.3431 14 9 12.6569 9 11Z" stroke="#23294A" stroke-width="1.5" stroke-linecap="round"/>
<path d="M17.5 12C17.9142 12 18.2548 12.3371 18.2032 12.7481C18.0379 14.0635 17.4401 15.2952 16.4926 16.2426C15.3674 17.3679 13.5913 18 12 18C10.4087 18 8.88258 17.3679 7.75736 16.2426C6.80955 15.2948 6.0342 14.0626 5.81328 12.7465C5.74471 12.338 6.08579 12 6.5 12C6.91421 12 7.24396 12.34 7.34014 12.7428C7.5593 13.6608 8.15127 14.5152 8.81802 15.182C9.66193 16.0259 10.8065 16.5 12 16.5C13.1935 16.5 14.3381 16.0259 15.182 15.182C15.8302 14.5337 16.4078 13.5939 16.6408 12.7396C16.7498 12.34 17.0858 12 17.5 12Z" fill="#23294A"/>
<path d="M12 18L12 21" stroke="#23294A" stroke-width="1.5" stroke-linecap="round"/>
<path d="M15 7H13" stroke="#23294A" stroke-width="1.5" stroke-linecap="round"/>
<path d="M15 10L12 10" stroke="#23294A" stroke-width="1.5" stroke-linecap="round"/>
</svg>
