<svg width="24" height="24" viewBox="0 0 24 24" fill="none" xmlns="http://www.w3.org/2000/svg">
<path d="M10 17H10.4148C10.9095 17 11.3886 17.1729 11.7693 17.4888C13.4519 18.8852 16 17.6886 16 15.502V9.75M6 15.9042C5.62986 15.6579 5.29023 15.3628 5 15.0118C4.75524 14.7157 4.54561 14.3799 4.38245 14C4.13989 13.4353 4 12.7733 4 12C4 11.6435 4.02974 11.3106 4.08556 11C4.15082 10.6369 4.25172 10.3043 4.38245 10C4.54561 9.62012 4.75524 9.28428 5 8.98823C5.30567 8.61849 5.66614 8.31082 6.05933 8.05693C6.35729 7.86453 6.67405 7.70301 7 7.56879C7.32731 7.434 7.66388 7.32674 8 7.24334C8.33706 7.15971 8.67367 7.10009 9 7.0608C9.34909 7.01877 9.68642 7 10 7H10.43C10.9149 7 11.3845 6.8305 11.7576 6.52083C12.1632 6.18424 12.6737 6 13.2007 6H13.5" stroke="#23294A" stroke-width="1.5" stroke-linecap="round"/>
<path d="M15 4L5 19" stroke="#23294A" stroke-width="1.5" stroke-linecap="round"/>
</svg>
