<svg width="24" height="24" viewBox="0 0 24 24" fill="none" xmlns="http://www.w3.org/2000/svg">
<path d="M6.6 7H7.4C8.28366 7 9 7.71634 9 8.6V15.4C9 16.2837 8.28366 17 7.4 17H6.6C5.71634 17 5 16.2837 5 15.4V8.6C5 7.71634 5.71634 7 6.6 7Z" stroke="#23294A" stroke-width="1.5" stroke-linecap="round"/>
<path d="M16.6 7H17.4C18.2837 7 19 7.71634 19 8.6V15.4C19 16.2837 18.2837 17 17.4 17H16.6C15.7163 17 15 16.2837 15 15.4V8.6C15 7.71634 15.7163 7 16.6 7Z" stroke="#23294A" stroke-width="1.5" stroke-linecap="round"/>
<path d="M13 12H11" stroke="#23294A" stroke-width="1.5" stroke-linecap="round"/>
<path d="M21 14V10" stroke="#23294A" stroke-width="1.5" stroke-linecap="round"/>
<path d="M3 14V10" stroke="#23294A" stroke-width="1.5" stroke-linecap="round"/>
</svg>
