<svg width="24" height="24" viewBox="0 0 24 24" fill="none" xmlns="http://www.w3.org/2000/svg">
<path d="M8.70021 12.3668C9.57538 11.4917 10.7624 11 12 11C13.2377 11 14.4247 11.4917 15.2999 12.3668" stroke="#23294A" stroke-width="1.5" stroke-linecap="round"/>
<path d="M10.35 14.3499C10.7876 13.9123 11.3811 13.6665 12 13.6665C12.6188 13.6665 13.2123 13.9123 13.6499 14.3499" stroke="#23294A" stroke-width="1.5" stroke-linecap="round"/>
<circle cx="11.9999" cy="16.7778" r="0.777778" fill="#23294A"/>
<path d="M7.05025 10.0503C8.36301 8.7375 10.1435 8 12 8C13.8565 8 15.637 8.7375 16.9497 10.0503" stroke="#23294A" stroke-width="1.5" stroke-linecap="round"/>
<path d="M3 8C3 5.23858 5.23858 3 8 3H16C18.7614 3 21 5.23858 21 8V16C21 18.7614 18.7614 21 16 21H8C5.23858 21 3 18.7614 3 16V8Z" stroke="#23294A" stroke-width="1.5" stroke-linecap="round"/>
</svg>
