<svg width="24" height="24" viewBox="0 0 24 24" fill="none" xmlns="http://www.w3.org/2000/svg">
<path d="M4.03558 14.3626C4.29742 16.4162 5.97256 18 8 18L8.02616 17.9999L8.02759 18H15.9724L15.9738 17.9999L16 18C18.2091 18 20 16.1196 20 13.8L19.9999 13.7725L20 13.771V10.229L19.9999 10.2275L20 10.2C20 7.8804 18.2091 6 16 6L15.9738 6.00009L15.9724 6H8.02759L8.02616 6.00009L8 6C5.97256 6 4.29742 7.5838 4.03558 9.63736L4.01951 9.62049C4.01231 9.61293 4 9.61828 4 9.62897L4.03558 14.3626ZM4.03558 14.3626C4.03558 14.3733 4.02838 14.3702 4.03558 14.3626ZM4.03558 14.3626V13.5" stroke="#23294A" stroke-width="1.5" stroke-linecap="round"/>
<path d="M10 11.0215V12.9786C10 13.8895 10.975 14.4683 11.7746 14.0321L13.5686 13.0535C14.4025 12.5987 14.4025 11.4014 13.5686 10.9466L11.7746 9.96804C10.975 9.53187 10 10.1106 10 11.0215Z" stroke="#23294A" stroke-width="1.5"/>
</svg>
