<svg width="24" height="24" viewBox="0 0 24 24" fill="none" xmlns="http://www.w3.org/2000/svg">
<path d="M3 8C3 5.23858 5.23858 3 8 3H16C18.7614 3 21 5.23858 21 8V16C21 18.7614 18.7614 21 16 21H8C5.23858 21 3 18.7614 3 16V8Z" fill="#23294A"/>
<path fill-rule="evenodd" clip-rule="evenodd" d="M10.744 11.8047C10.64 11.7007 10.4693 11.7085 10.3751 11.8214L8.57617 13.9802C8.311 14.2984 7.83807 14.3414 7.51987 14.0762C7.20166 13.811 7.15866 13.3381 7.42384 13.0199L9.22282 10.8611C9.8816 10.0706 11.077 10.0164 11.8046 10.744L13.756 12.6954C13.86 12.7994 14.0307 12.7916 14.1249 12.6787L15.9238 10.5199C16.189 10.2017 16.6619 10.1587 16.9801 10.4239C17.2983 10.6891 17.3413 11.162 17.0762 11.4802L15.2772 13.639C14.6184 14.4295 13.423 14.4837 12.6954 13.7561L10.744 11.8047Z" fill="#9D9EA5"/>
</svg>
