<svg width="24" height="24" viewBox="0 0 24 24" fill="none" xmlns="http://www.w3.org/2000/svg">
<path d="M15 9C15 11.7614 12.7614 14 10 14C7.23858 14 5 11.7614 5 9C5 6.23858 7.23858 4 10 4C12.7614 4 15 6.23858 15 9Z" fill="#23294A"/>
<path fill-rule="evenodd" clip-rule="evenodd" d="M10 15.3496C12.0795 15.3496 14.2139 16.0109 15.7143 17.4041C16.0931 17.7559 16.4224 18.1676 16.6709 18.6645C16.8561 19.035 16.7059 19.4855 16.3355 19.6707C15.965 19.8559 15.5145 19.7058 15.3292 19.3353C15.1722 19.0212 14.9599 18.7505 14.6937 18.5034C13.5316 17.4244 11.7933 16.8496 10 16.8496C8.20682 16.8496 6.46845 17.4244 5.30638 18.5034C5.0402 18.7505 4.82789 19.0212 4.67086 19.3353C4.48562 19.7058 4.03512 19.8559 3.66463 19.6707C3.29415 19.4855 3.14398 19.035 3.32922 18.6645C3.57764 18.1676 3.90696 17.7559 4.28574 17.4041C5.78623 16.0109 7.92056 15.3496 10 15.3496Z" fill="#23294A"/>
<path fill-rule="evenodd" clip-rule="evenodd" d="M19 10.25C19.4142 10.25 19.75 10.5858 19.75 11V15C19.75 15.4142 19.4142 15.75 19 15.75C18.5858 15.75 18.25 15.4142 18.25 15V11C18.25 10.5858 18.5858 10.25 19 10.25Z" fill="#9D9EA5"/>
<path fill-rule="evenodd" clip-rule="evenodd" d="M16.25 13C16.25 12.5858 16.5858 12.25 17 12.25H21C21.4142 12.25 21.75 12.5858 21.75 13C21.75 13.4142 21.4142 13.75 21 13.75H17C16.5858 13.75 16.25 13.4142 16.25 13Z" fill="#9D9EA5"/>
</svg>
