<svg width="24" height="24" viewBox="0 0 24 24" fill="none" xmlns="http://www.w3.org/2000/svg">
<path d="M9.8 6H14.2C16.2987 6 18 7.70132 18 9.8V14.2C18 16.2987 16.2987 18 14.2 18H9.8C7.70132 18 6 16.2987 6 14.2V9.8C6 7.70132 7.70132 6 9.8 6Z" fill="#23294A"/>
<path fill-rule="evenodd" clip-rule="evenodd" d="M20 8.25C20.4142 8.25 20.75 8.58579 20.75 9V10C20.75 10.4142 20.4142 10.75 20 10.75C19.5858 10.75 19.25 10.4142 19.25 10V9C19.25 8.58579 19.5858 8.25 20 8.25Z" fill="#9D9EA5"/>
<path fill-rule="evenodd" clip-rule="evenodd" d="M20 11.25C20.4142 11.25 20.75 11.5858 20.75 12V14C20.75 14.4142 20.4142 14.75 20 14.75C19.5858 14.75 19.25 14.4142 19.25 14V12C19.25 11.5858 19.5858 11.25 20 11.25Z" fill="#9D9EA5"/>
<path fill-rule="evenodd" clip-rule="evenodd" d="M15.5 16.75C15.9142 16.75 16.25 17.0858 16.25 17.5V19.5C16.25 19.9142 15.9142 20.25 15.5 20.25C15.0858 20.25 14.75 19.9142 14.75 19.5V17.5C14.75 17.0858 15.0858 16.75 15.5 16.75Z" fill="#23294A"/>
<path fill-rule="evenodd" clip-rule="evenodd" d="M15.5 3.75C15.9142 3.75 16.25 4.08579 16.25 4.5V6.5C16.25 6.91421 15.9142 7.25 15.5 7.25C15.0858 7.25 14.75 6.91421 14.75 6.5V4.5C14.75 4.08579 15.0858 3.75 15.5 3.75Z" fill="#23294A"/>
<path fill-rule="evenodd" clip-rule="evenodd" d="M8.5 16.75C8.91421 16.75 9.25 17.0858 9.25 17.5V19.5C9.25 19.9142 8.91421 20.25 8.5 20.25C8.08579 20.25 7.75 19.9142 7.75 19.5V17.5C7.75 17.0858 8.08579 16.75 8.5 16.75Z" fill="#23294A"/>
<path fill-rule="evenodd" clip-rule="evenodd" d="M8.5 3.75C8.91421 3.75 9.25 4.08579 9.25 4.5V6.5C9.25 6.91421 8.91421 7.25 8.5 7.25C8.08579 7.25 7.75 6.91421 7.75 6.5V4.5C7.75 4.08579 8.08579 3.75 8.5 3.75Z" fill="#23294A"/>
<path fill-rule="evenodd" clip-rule="evenodd" d="M12 9.25C12.4142 9.25 12.75 9.58579 12.75 10V12.1893L13.5303 12.9697C13.8232 13.2626 13.8232 13.7374 13.5303 14.0303C13.2374 14.3232 12.7626 14.3232 12.4697 14.0303L11.6161 13.1768C11.3817 12.9424 11.25 12.6244 11.25 12.2929V10C11.25 9.58579 11.5858 9.25 12 9.25Z" fill="#9D9EA5"/>
</svg>
