<svg width="24" height="24" viewBox="0 0 24 24" fill="none" xmlns="http://www.w3.org/2000/svg">
<path d="M21 12C21 16.9706 16.9706 21 12 21C7.02944 21 3 16.9706 3 12C3 7.02944 7.02944 3 12 3C16.9706 3 21 7.02944 21 12Z" fill="#23294A"/>
<path fill-rule="evenodd" clip-rule="evenodd" d="M10.4697 15.5303C10.1768 15.2374 10.1768 14.7626 10.4697 14.4697L12.7626 12.1768C12.8602 12.0791 12.8602 11.9209 12.7626 11.8232L10.4697 9.53033C10.1768 9.23744 10.1768 8.76256 10.4697 8.46967C10.7626 8.17678 11.2375 8.17678 11.5304 8.46967L13.8233 10.7626C14.5067 11.446 14.5067 12.554 13.8233 13.2374L11.5304 15.5303C11.2375 15.8232 10.7626 15.8232 10.4697 15.5303Z" fill="#9D9EA5"/>
</svg>
