<svg width="24" height="24" viewBox="0 0 24 24" fill="none" xmlns="http://www.w3.org/2000/svg">
<path fill-rule="evenodd" clip-rule="evenodd" d="M9.94253 6.99828C10.2196 6.6904 10.6938 6.66544 11.0017 6.94254L15.1758 10.6992C15.9483 11.3944 15.9483 12.6056 15.1758 13.3008L11.0017 17.0575C10.6938 17.3346 10.2196 17.3096 9.94253 17.0017C9.66543 16.6938 9.69039 16.2196 9.99828 15.9425L14.1724 12.1858C14.2827 12.0865 14.2827 11.9135 14.1724 11.8142L9.99828 8.05748C9.69039 7.78038 9.66543 7.30617 9.94253 6.99828Z" fill="#23294A"/>
<path fill-rule="evenodd" clip-rule="evenodd" d="M14.8075 11.3767C14.5304 11.6846 14.0562 11.7096 13.7483 11.4325L9.99828 8.05746C9.69039 7.78037 9.66544 7.30615 9.94253 6.99827C10.2196 6.69039 10.6938 6.66543 11.0017 6.94252L14.7517 10.3175C15.0596 10.5946 15.0846 11.0688 14.8075 11.3767Z" fill="#9D9EA5"/>
</svg>
