<svg width="24" height="24" viewBox="0 0 24 24" fill="none" xmlns="http://www.w3.org/2000/svg">
<path d="M3 8C3 5.23858 5.23858 3 8 3H16C18.7614 3 21 5.23858 21 8V16C21 18.7614 18.7614 21 16 21H8C5.23858 21 3 18.7614 3 16V8Z" fill="#23294A"/>
<path fill-rule="evenodd" clip-rule="evenodd" d="M12 7.25C12.4142 7.25 12.75 7.58579 12.75 8L12.75 15C12.75 15.4142 12.4142 15.75 12 15.75C11.5858 15.75 11.25 15.4142 11.25 15L11.25 8C11.25 7.58579 11.5858 7.25 12 7.25Z" fill="#9D9EA5"/>
<path fill-rule="evenodd" clip-rule="evenodd" d="M15.5303 12.4697C15.8232 12.7626 15.8232 13.2374 15.5303 13.5303L12.8839 16.1768C12.3957 16.6649 11.6043 16.6649 11.1161 16.1768L8.46967 13.5303C8.17678 13.2374 8.17678 12.7626 8.46967 12.4697C8.76256 12.1768 9.23744 12.1768 9.53033 12.4697L12 14.9393L14.4697 12.4697C14.7626 12.1768 15.2374 12.1768 15.5303 12.4697Z" fill="#9D9EA5"/>
</svg>
