<svg width="24" height="24" viewBox="0 0 24 24" fill="none" xmlns="http://www.w3.org/2000/svg">
<path fill-rule="evenodd" clip-rule="evenodd" d="M6.99828 9.44254C7.30616 9.16544 7.78038 9.1904 8.05747 9.49828L11.8142 13.6724C11.9135 13.7827 12.0865 13.7827 12.1858 13.6724L15.9425 9.49828C16.2196 9.1904 16.6938 9.16544 17.0017 9.44254C17.3096 9.71963 17.3346 10.1938 17.0575 10.5017L13.3008 14.6758C12.6056 15.4483 11.3944 15.4483 10.6992 14.6758L6.94253 10.5017C6.66543 10.1938 6.69039 9.71963 6.99828 9.44254Z" fill="#23294A"/>
<path fill-rule="evenodd" clip-rule="evenodd" d="M12.6233 14.3075C12.3154 14.0304 12.2904 13.5562 12.5675 13.2483L15.9425 9.49827C16.2196 9.19039 16.6938 9.16543 17.0017 9.44252C17.3096 9.71962 17.3346 10.1938 17.0575 10.5017L13.6825 14.2517C13.4054 14.5596 12.9312 14.5846 12.6233 14.3075Z" fill="#9D9EA5"/>
</svg>
