<svg width="24" height="24" viewBox="0 0 24 24" fill="none" xmlns="http://www.w3.org/2000/svg">
<path d="M3 8C3 5.23858 5.23858 3 8 3H16C18.7614 3 21 5.23858 21 8V16C21 18.7614 18.7614 21 16 21H8C5.23858 21 3 18.7614 3 16V8Z" fill="#23294A"/>
<path fill-rule="evenodd" clip-rule="evenodd" d="M8.46967 8.46967C8.76256 8.17678 9.23744 8.17678 9.53033 8.46967L12.1768 11.1161C12.6649 11.6043 12.6649 12.3957 12.1768 12.8839L9.53033 15.5303C9.23744 15.8232 8.76256 15.8232 8.46967 15.5303C8.17678 15.2374 8.17678 14.7626 8.46967 14.4697L10.9393 12L8.46967 9.53033C8.17678 9.23744 8.17678 8.76256 8.46967 8.46967Z" fill="#9D9EA5"/>
<path fill-rule="evenodd" clip-rule="evenodd" d="M12.4697 8.46967C12.7626 8.17678 13.2374 8.17678 13.5303 8.46967L16.1768 11.1161C16.6649 11.6043 16.6649 12.3957 16.1768 12.8839L13.5303 15.5303C13.2374 15.8232 12.7626 15.8232 12.4697 15.5303C12.1768 15.2374 12.1768 14.7626 12.4697 14.4697L14.9393 12L12.4697 9.53033C12.1768 9.23744 12.1768 8.76256 12.4697 8.46967Z" fill="#9D9EA5"/>
</svg>
