<svg width="24" height="24" viewBox="0 0 24 24" fill="none" xmlns="http://www.w3.org/2000/svg">
<path fill-rule="evenodd" clip-rule="evenodd" d="M10.6992 9.32443C11.3944 8.55201 12.6056 8.55201 13.3008 9.32443L17.0575 13.4985C17.3346 13.8064 17.3096 14.2806 17.0017 14.5577C16.6938 14.8348 16.2196 14.8099 15.9425 14.502L12.1858 10.3279C12.0865 10.2175 11.9135 10.2175 11.8142 10.3279L8.05748 14.502C7.78038 14.8099 7.30617 14.8348 6.99828 14.5577C6.6904 14.2806 6.66544 13.8064 6.94254 13.4985L10.6992 9.32443Z" fill="#23294A"/>
<path fill-rule="evenodd" clip-rule="evenodd" d="M17.0017 14.5575C16.6938 14.8346 16.2196 14.8096 15.9425 14.5017L12.5675 10.7517C12.2904 10.4438 12.3154 9.96963 12.6233 9.69254C12.9312 9.41544 13.4054 9.4404 13.6825 9.74828L17.0575 13.4983C17.3346 13.8062 17.3096 14.2804 17.0017 14.5575Z" fill="#9D9EA5"/>
</svg>
