<svg width="24" height="24" viewBox="0 0 24 24" fill="none" xmlns="http://www.w3.org/2000/svg">
<path d="M20.8412 10.3075C20.864 10.4273 20.809 10.5483 20.7041 10.6105C19.3639 11.4049 17.7909 11.9836 16.1085 12.339C15.9273 12.3773 15.7573 12.2404 15.7567 12.0551C15.7487 9.69679 16.2536 7.33712 17.2716 5.14815C17.351 4.97725 17.5682 4.92576 17.7137 5.0455C19.306 6.35532 20.4406 8.20138 20.8412 10.3075Z" fill="#23294A"/>
<path d="M20.9746 12.6808C20.9918 12.4517 20.7479 12.3017 20.5421 12.4037C19.1963 13.0711 17.7033 13.5557 16.1467 13.862C15.9913 13.8926 15.884 14.0371 15.9054 14.1941C16.1227 15.7893 16.5781 17.3597 17.2716 18.8509C17.3511 19.0218 17.5682 19.0733 17.7137 18.9535C19.5562 17.438 20.7858 15.2044 20.9746 12.6808Z" fill="#23294A"/>
<path d="M8.6879 12.1459C8.68546 12.3271 8.52094 12.4616 8.34274 12.4285C6.49067 12.0847 4.75535 11.4755 3.29601 10.6105C3.19106 10.5483 3.13605 10.4273 3.15885 10.3075C3.58905 8.04597 4.86547 6.08433 6.64617 4.76445C6.7948 4.65428 7.00492 4.71207 7.08316 4.87973L7.16485 5.0548C8.21144 7.29748 8.72055 9.72301 8.6879 12.1459Z" fill="#23294A"/>
<path d="M8.27168 13.9398C8.43118 13.9677 8.54218 14.1154 8.51878 14.2757C8.32801 15.5818 7.97711 16.8711 7.4654 18.1139L7.06385 19.089C6.9912 19.2655 6.77426 19.3303 6.62135 19.2161C4.59379 17.7025 3.22557 15.3545 3.02545 12.6809C3.0083 12.4518 3.25217 12.3017 3.45795 12.4037C4.92387 13.1307 6.56446 13.6407 8.27168 13.9398Z" fill="#23294A"/>
<path d="M13.9912 12.6637C14.1474 12.6484 14.2632 12.5135 14.2601 12.3566C14.2031 9.51846 14.8265 6.66974 16.1304 4.06196C16.1437 4.03541 16.1333 4.00311 16.1069 3.98955C14.8756 3.357 13.4794 3 11.9999 3C10.766 3 9.59001 3.24833 8.5193 3.69775C8.36594 3.76213 8.30042 3.94179 8.37076 4.09252L8.52402 4.42094C9.69981 6.94049 10.2545 9.67132 10.1832 12.3929C10.179 12.5531 10.2989 12.6905 10.4587 12.7025C10.9694 12.7409 11.4841 12.7602 11.9999 12.7602C12.6676 12.7602 13.3336 12.7279 13.9912 12.6637Z" fill="#9D9EA5"/>
<path d="M10.0077 14.4598C10.0307 14.3002 10.1736 14.1852 10.3344 14.1973C10.8884 14.2393 11.4447 14.2602 11.9999 14.2602C12.6971 14.2602 13.396 14.2272 14.0897 14.161C14.2533 14.1454 14.4004 14.2621 14.4228 14.425C14.6841 16.3206 15.2533 18.1839 16.1304 19.938C16.1437 19.9646 16.1333 19.9969 16.1069 20.0104C14.8756 20.643 13.4794 21 11.9999 21C10.7589 21 9.57658 20.7488 8.50096 20.2945C8.35276 20.2319 8.28598 20.0608 8.34723 19.9121L8.8523 18.6855C9.41558 17.3175 9.80047 15.8979 10.0077 14.4598Z" fill="#9D9EA5"/>
</svg>
