<svg width="24" height="24" viewBox="0 0 24 24" fill="none" xmlns="http://www.w3.org/2000/svg">
<path d="M21 12C21 16.9706 16.9706 21 12 21C7.02944 21 3 16.9706 3 12C3 7.02944 7.02944 3 12 3C16.9706 3 21 7.02944 21 12Z" fill="#23294A"/>
<path d="M14.3997 10.4994L12.9603 9.29982C12.404 8.83626 11.596 8.83626 11.0397 9.29982L9.60027 10.4994C9.23536 10.8035 9.08417 11.2942 9.21466 11.7509L9.75134 13.6293C9.89853 14.1444 10.3694 14.4996 10.9052 14.4996H13.0948C13.6306 14.4996 14.1015 14.1444 14.2487 13.6293L14.7853 11.7509C14.9158 11.2942 14.7646 10.8035 14.3997 10.4994Z" fill="#9D9EA5"/>
<path fill-rule="evenodd" clip-rule="evenodd" d="M20.0303 9.46967C20.3232 9.76256 20.3232 10.2374 20.0303 10.5303L19.091 11.4697C18.7981 11.7626 18.7981 12.2374 19.091 12.5303L20.0303 13.4697C20.3232 13.7626 20.3232 14.2374 20.0303 14.5303C19.7374 14.8232 19.2626 14.8232 18.9697 14.5303L18.0303 13.591C17.1517 12.7123 17.1517 11.2877 18.0303 10.409L18.9697 9.46967C19.2626 9.17678 19.7374 9.17678 20.0303 9.46967Z" fill="#9D9EA5"/>
<path fill-rule="evenodd" clip-rule="evenodd" d="M3.96967 9.46967C4.26256 9.17678 4.73744 9.17678 5.03033 9.46967L5.96967 10.409C6.84835 11.2877 6.84835 12.7123 5.96967 13.591L5.03033 14.5303C4.73744 14.8232 4.26256 14.8232 3.96967 14.5303C3.67678 14.2374 3.67678 13.7626 3.96967 13.4697L4.90901 12.5303C5.2019 12.2374 5.2019 11.7626 4.90901 11.4697L3.96967 10.5303C3.67678 10.2374 3.67678 9.76256 3.96967 9.46967Z" fill="#9D9EA5"/>
<path fill-rule="evenodd" clip-rule="evenodd" d="M9.46967 20.0303C9.17678 19.7374 9.17678 19.2626 9.46967 18.9697L10.409 18.0303C11.2877 17.1517 12.7123 17.1516 13.591 18.0303L14.5303 18.9697C14.8232 19.2626 14.8232 19.7374 14.5303 20.0303C14.2374 20.3232 13.7626 20.3232 13.4697 20.0303L12.5303 19.091C12.2374 18.7981 11.7626 18.7981 11.4697 19.091L10.5303 20.0303C10.2374 20.3232 9.76256 20.3232 9.46967 20.0303Z" fill="#9D9EA5"/>
<path fill-rule="evenodd" clip-rule="evenodd" d="M14.5303 3.96967C14.8232 4.26256 14.8232 4.73744 14.5303 5.03033L13.591 5.96967C12.7123 6.84835 11.2877 6.84835 10.409 5.96967L9.46967 5.03033C9.17678 4.73744 9.17678 4.26256 9.46967 3.96967C9.76256 3.67678 10.2374 3.67678 10.5303 3.96967L11.4697 4.90901C11.7626 5.2019 12.2374 5.2019 12.5303 4.90901L13.4697 3.96967C13.7626 3.67678 14.2374 3.67678 14.5303 3.96967Z" fill="#9D9EA5"/>
</svg>
