<svg width="24" height="24" viewBox="0 0 24 24" fill="none" xmlns="http://www.w3.org/2000/svg">
<path d="M7.5 7H15.5C17.433 7 19 8.567 19 10.5V13.5C19 15.433 17.433 17 15.5 17H7.5C5.567 17 4 15.433 4 13.5V10.5C4 8.567 5.567 7 7.5 7Z" fill="#23294A"/>
<path fill-rule="evenodd" clip-rule="evenodd" d="M13.1468 9.42385C13.465 9.68903 13.508 10.1619 13.2428 10.4802L12.4913 11.382C13.1565 11.7282 13.3836 12.6771 12.7798 13.2808L11.5303 14.5303C11.2374 14.8232 10.7626 14.8232 10.4697 14.5303C10.1768 14.2375 10.1768 13.7626 10.4697 13.4697L11.3448 12.5946C10.7449 12.2495 10.5218 11.4023 11.0247 10.7988L12.0905 9.51988C12.3557 9.20167 12.8286 9.15868 13.1468 9.42385Z" fill="#9D9EA5"/>
<path fill-rule="evenodd" clip-rule="evenodd" d="M21 9.25C21.4142 9.25 21.75 9.58579 21.75 10L21.75 14C21.75 14.4142 21.4142 14.75 21 14.75C20.5858 14.75 20.25 14.4142 20.25 14L20.25 10C20.25 9.58579 20.5858 9.25 21 9.25Z" fill="#9D9EA5"/>
</svg>
