<svg width="24" height="24" viewBox="0 0 24 24" fill="none" xmlns="http://www.w3.org/2000/svg">
<path d="M7.5 7H15.5C17.433 7 19 8.567 19 10.5V13.5C19 15.433 17.433 17 15.5 17H7.5C5.567 17 4 15.433 4 13.5V10.5C4 8.567 5.567 7 7.5 7Z" fill="#23294A"/>
<path fill-rule="evenodd" clip-rule="evenodd" d="M21 9.25C21.4142 9.25 21.75 9.58579 21.75 10L21.75 14C21.75 14.4142 21.4142 14.75 21 14.75C20.5858 14.75 20.25 14.4142 20.25 14L20.25 10C20.25 9.58579 20.5858 9.25 21 9.25Z" fill="#9D9EA5"/>
<path fill-rule="evenodd" clip-rule="evenodd" d="M7 9.25C7.41421 9.25 7.75 9.58579 7.75 10L7.75 14C7.75 14.4142 7.41421 14.75 7 14.75C6.58579 14.75 6.25 14.4142 6.25 14L6.25 10C6.25 9.58579 6.58579 9.25 7 9.25Z" fill="#9D9EA5"/>
<path fill-rule="evenodd" clip-rule="evenodd" d="M10 9.25C10.4142 9.25 10.75 9.58579 10.75 10L10.75 14C10.75 14.4142 10.4142 14.75 10 14.75C9.58579 14.75 9.25 14.4142 9.25 14L9.25 10C9.25 9.58579 9.58579 9.25 10 9.25Z" fill="#9D9EA5"/>
</svg>
