<svg width="24" height="24" viewBox="0 0 24 24" fill="none" xmlns="http://www.w3.org/2000/svg">
<path d="M16.976 13.0409L16.0526 14.3653C15.317 15.4202 14.9241 16.6631 14.9241 17.9351C14.9241 18.5232 14.4306 19 13.8218 19H10.1812C9.56763 19 9.07023 18.5194 9.07023 17.9267C9.07023 16.6405 8.67165 15.3839 7.92585 14.3186L7.02994 13.0389C5.22659 10.4629 5.84985 6.97099 8.44202 5.12735C10.5565 3.62344 13.4394 3.62461 15.554 5.12851C18.1454 6.97161 18.7738 10.4625 16.976 13.0409Z" fill="#23294A"/>
<path fill-rule="evenodd" clip-rule="evenodd" d="M9.75 21C9.75 20.5858 10.0858 20.25 10.5 20.25H13.5C13.9142 20.25 14.25 20.5858 14.25 21C14.25 21.4142 13.9142 21.75 13.5 21.75H10.5C10.0858 21.75 9.75 21.4142 9.75 21Z" fill="#9D9EA5"/>
<path fill-rule="evenodd" clip-rule="evenodd" d="M13.0303 6.96967C13.3232 7.26256 13.3232 7.73744 13.0303 8.03033L12.3209 8.73976C12.3117 8.74898 12.3084 8.75614 12.3067 8.76172C12.3046 8.76861 12.3036 8.77779 12.3053 8.78818C12.307 8.79857 12.3108 8.80698 12.315 8.81284C12.3184 8.81759 12.3238 8.82335 12.3354 8.82918C13.2852 9.3041 13.4907 10.57 12.7398 11.3209L12.0303 12.0303C11.7374 12.3232 11.2626 12.3232 10.9697 12.0303C10.6768 11.7374 10.6768 11.2626 10.9697 10.9697L11.6791 10.2602C11.6883 10.251 11.6916 10.2439 11.6933 10.2383C11.6954 10.2314 11.6964 10.2222 11.6947 10.2118C11.693 10.2014 11.6892 10.193 11.685 10.1872C11.6816 10.1824 11.6762 10.1767 11.6646 10.1708C10.7148 9.6959 10.5093 8.43001 11.2602 7.6791L11.9697 6.96967C12.2626 6.67678 12.7374 6.67678 13.0303 6.96967Z" fill="#9D9EA5"/>
</svg>
