<svg width="24" height="24" viewBox="0 0 24 24" fill="none" xmlns="http://www.w3.org/2000/svg">
<path d="M16.2526 13.2322L15.4639 14.403C14.8356 15.3356 14.5 16.4345 14.5 17.559C14.5 18.079 14.0785 18.5005 13.5585 18.5005H10.4489C9.92484 18.5005 9.49999 18.0756 9.49999 17.5516C9.49999 16.4145 9.15956 15.3036 8.52254 14.3617L7.75732 13.2304C6.21701 10.953 6.74936 7.86585 8.96342 6.23593C10.7695 4.90635 13.2319 4.90738 15.038 6.23696C17.2514 7.86641 17.7881 10.9527 16.2526 13.2322Z" fill="#23294A"/>
<path fill-rule="evenodd" clip-rule="evenodd" d="M12 9.75C12.4142 9.75 12.75 10.0858 12.75 10.5V18.5H11.25V10.5C11.25 10.0858 11.5858 9.75 12 9.75Z" fill="#9D9EA5"/>
<path fill-rule="evenodd" clip-rule="evenodd" d="M9.75 11.5C9.75 11.0858 10.0858 10.75 10.5 10.75H13.5C13.9142 10.75 14.25 11.0858 14.25 11.5C14.25 11.9142 13.9142 12.25 13.5 12.25H10.5C10.0858 12.25 9.75 11.9142 9.75 11.5Z" fill="#9D9EA5"/>
<path fill-rule="evenodd" clip-rule="evenodd" d="M9.75 20.5C9.75 20.0858 10.0858 19.75 10.5 19.75H13.5C13.9142 19.75 14.25 20.0858 14.25 20.5C14.25 20.9142 13.9142 21.25 13.5 21.25H10.5C10.0858 21.25 9.75 20.9142 9.75 20.5Z" fill="#9D9EA5"/>
<path fill-rule="evenodd" clip-rule="evenodd" d="M18.75 9C18.75 8.58579 19.0858 8.25 19.5 8.25H20.5C20.9142 8.25 21.25 8.58579 21.25 9C21.25 9.41421 20.9142 9.75 20.5 9.75H19.5C19.0858 9.75 18.75 9.41421 18.75 9Z" fill="#23294A"/>
<path fill-rule="evenodd" clip-rule="evenodd" d="M2.75 9C2.75 8.58579 3.08579 8.25 3.5 8.25H4.5C4.91421 8.25 5.25 8.58579 5.25 9C5.25 9.41421 4.91421 9.75 4.5 9.75H3.5C3.08579 9.75 2.75 9.41421 2.75 9Z" fill="#23294A"/>
<path fill-rule="evenodd" clip-rule="evenodd" d="M12 1.25C12.4142 1.25 12.75 1.58579 12.75 2V2.5C12.75 2.91421 12.4142 3.25 12 3.25C11.5858 3.25 11.25 2.91421 11.25 2.5V2C11.25 1.58579 11.5858 1.25 12 1.25Z" fill="#23294A"/>
<path fill-rule="evenodd" clip-rule="evenodd" d="M4.96967 3.96967C5.26256 3.67678 5.73744 3.67678 6.03033 3.96967L6.53033 4.46967C6.82322 4.76256 6.82322 5.23744 6.53033 5.53033C6.23744 5.82322 5.76256 5.82322 5.46967 5.53033L4.96967 5.03033C4.67678 4.73744 4.67678 4.26256 4.96967 3.96967Z" fill="#23294A"/>
<path fill-rule="evenodd" clip-rule="evenodd" d="M19.0303 3.96967C19.3232 4.26256 19.3232 4.73744 19.0303 5.03033L18.5303 5.53033C18.2374 5.82322 17.7626 5.82322 17.4697 5.53033C17.1768 5.23744 17.1768 4.76256 17.4697 4.46967L17.9697 3.96967C18.2626 3.67678 18.7374 3.67678 19.0303 3.96967Z" fill="#23294A"/>
</svg>
