<svg width="24" height="24" viewBox="0 0 24 24" fill="none" xmlns="http://www.w3.org/2000/svg">
<path d="M8.5 3H15.5C17.433 3 19 4.567 19 6.5V17.9669C19 19.4028 17.5319 20.3708 16.2122 19.8052L13.1818 18.5065C12.4271 18.183 11.5729 18.183 10.8182 18.5065L7.78784 19.8052C6.4681 20.3708 5 19.4028 5 17.9669V6.5C5 4.567 6.567 3 8.5 3Z" fill="#23294A"/>
<path d="M16.2122 19.8052L13.1818 18.5065C12.8044 18.3448 12.4022 18.2639 12 18.2639V3H15.5C17.433 3 19 4.567 19 6.5V17.9669C19 19.4028 17.5319 20.3708 16.2122 19.8052Z" fill="#9D9EA5"/>
</svg>
