<svg width="24" height="24" viewBox="0 0 24 24" fill="none" xmlns="http://www.w3.org/2000/svg">
<path d="M8.5 3H15.5C17.433 3 19 4.567 19 6.5V17.9669C19 19.4028 17.5319 20.3708 16.2122 19.8052L13.1818 18.5065C12.4271 18.183 11.5729 18.183 10.8182 18.5065L7.78784 19.8052C6.4681 20.3708 5 19.4028 5 17.9669V6.5C5 4.567 6.567 3 8.5 3Z" fill="#23294A"/>
<path fill-rule="evenodd" clip-rule="evenodd" d="M14.5303 8.46967C14.8232 8.76256 14.8232 9.23744 14.5303 9.53033L11.601 12.4596C11.2691 12.7916 10.7309 12.7916 10.399 12.4596L9.46967 11.5303C9.17678 11.2374 9.17678 10.7626 9.46967 10.4697C9.76256 10.1768 10.2374 10.1768 10.5303 10.4697L11 10.9393L13.4697 8.46967C13.7626 8.17678 14.2374 8.17678 14.5303 8.46967Z" fill="#9D9EA5"/>
</svg>
