<svg width="24" height="24" viewBox="0 0 24 24" fill="none" xmlns="http://www.w3.org/2000/svg">
<path fill-rule="evenodd" clip-rule="evenodd" d="M13.25 6C13.25 5.58579 13.5858 5.25 14 5.25H16C18.0711 5.25 19.75 6.92893 19.75 9C19.75 11.0711 18.0711 12.75 16 12.75H10.5C10.0858 12.75 9.75 13.0858 9.75 13.5C9.75 13.9142 9.41421 14.25 9 14.25C8.58579 14.25 8.25 13.9142 8.25 13.5C8.25 12.2574 9.25736 11.25 10.5 11.25H16C17.2426 11.25 18.25 10.2426 18.25 9C18.25 7.75736 17.2426 6.75 16 6.75H14C13.5858 6.75 13.25 6.41421 13.25 6Z" fill="#23294A"/>
<path d="M5.25 4.32232C5.25 4.19036 5.12388 4.09464 5.00353 4.14875C4.41193 4.41478 4 5.00928 4 5.7V7.3C4 8.23888 4.76112 9 5.7 9H12.3C13.2389 9 14 8.23888 14 7.3V5.7C14 4.76112 13.2389 4 12.3 4C12.2724 4 12.25 4.02239 12.25 4.05V5.5C12.25 5.91421 11.9142 6.25 11.5 6.25C11.0858 6.25 10.75 5.91421 10.75 5.5V4.2C10.75 4.08954 10.6605 4 10.55 4H9.95C9.83954 4 9.75 4.08954 9.75 4.2V5.5C9.75 5.91421 9.41421 6.25 9 6.25C8.58579 6.25 8.25 5.91421 8.25 5.5V4.2C8.25 4.08954 8.16046 4 8.05 4H6.95C6.83954 4 6.75 4.08954 6.75 4.2V5.5C6.75 5.91421 6.41421 6.25 6 6.25C5.58579 6.25 5.25 5.91421 5.25 5.5V4.32232Z" fill="#9D9EA5"/>
<path d="M9.8305 21H8.16929C7.75904 21 7.384 20.7682 7.20053 20.4013C7.07206 20.1443 7.05093 19.8469 7.14176 19.5744L7.28907 19.1325C7.42592 18.7219 7.42592 18.2781 7.28907 17.8675L7.21071 17.6325C7.07387 17.2219 7.07387 16.7781 7.21071 16.3675L7.35577 15.9324C7.44805 15.6555 7.42658 15.3534 7.29607 15.0924C6.93028 14.3608 7.46227 13.5 8.2802 13.5H9.71958C10.5375 13.5 11.0695 14.3608 10.7037 15.0924C10.5732 15.3534 10.5517 15.6555 10.644 15.9324L10.7891 16.3675C10.9259 16.7781 10.9259 17.2219 10.7891 17.6325L10.7107 17.8675C10.5739 18.2781 10.5739 18.7219 10.7107 19.1325L10.858 19.5744C10.9489 19.8469 10.9277 20.1443 10.7993 20.4013C10.6158 20.7682 10.2407 21 9.8305 21Z" fill="#23294A"/>
</svg>
