<svg width="24" height="24" viewBox="0 0 24 24" fill="none" xmlns="http://www.w3.org/2000/svg">
<path d="M21 7.5C21 9.98528 18.9853 12 16.5 12C14.0147 12 12 9.98528 12 7.5C12 5.01472 14.0147 3 16.5 3C18.9853 3 21 5.01472 21 7.5Z" fill="#23294A"/>
<path d="M10.5 13.25C10.5 15.0449 9.04493 16.5 7.25 16.5C5.45507 16.5 4 15.0449 4 13.25C4 11.4551 5.45507 10 7.25 10C9.04493 10 10.5 11.4551 10.5 13.25Z" fill="#9D9EA5"/>
<path d="M19.5 17.75C19.5 19.2688 18.2688 20.5 16.75 20.5C15.2312 20.5 14 19.2688 14 17.75C14 16.2312 15.2312 15 16.75 15C18.2688 15 19.5 16.2312 19.5 17.75Z" fill="#23294A"/>
</svg>
