<svg width="24" height="24" viewBox="0 0 24 24" fill="none" xmlns="http://www.w3.org/2000/svg">
<path d="M3 8C3 5.23858 5.23858 3 8 3H16C18.7614 3 21 5.23858 21 8V16C21 18.7614 18.7614 21 16 21H8C5.23858 21 3 18.7614 3 16V8Z" fill="#23294A"/>
<path fill-rule="evenodd" clip-rule="evenodd" d="M3.96967 18.9697L18.9697 3.96973L20.0303 5.03039L5.03033 20.0304L3.96967 18.9697Z" fill="#9D9EA5"/>
<path fill-rule="evenodd" clip-rule="evenodd" d="M13.75 16C13.75 15.5858 14.0858 15.25 14.5 15.25H18C18.4142 15.25 18.75 15.5858 18.75 16C18.75 16.4142 18.4142 16.75 18 16.75H14.5C14.0858 16.75 13.75 16.4142 13.75 16Z" fill="#9D9EA5"/>
<path fill-rule="evenodd" clip-rule="evenodd" d="M5.25 8C5.25 7.58579 5.58579 7.25 6 7.25H10C10.4142 7.25 10.75 7.58579 10.75 8C10.75 8.41421 10.4142 8.75 10 8.75H6C5.58579 8.75 5.25 8.41421 5.25 8Z" fill="#9D9EA5"/>
<path fill-rule="evenodd" clip-rule="evenodd" d="M8 5.25C8.41421 5.25 8.75 5.58579 8.75 6V10C8.75 10.4142 8.41421 10.75 8 10.75C7.58579 10.75 7.25 10.4142 7.25 10V6C7.25 5.58579 7.58579 5.25 8 5.25Z" fill="#9D9EA5"/>
</svg>
