<svg width="24" height="24" viewBox="0 0 24 24" fill="none" xmlns="http://www.w3.org/2000/svg">
<path d="M7.75 4.28776C7.75 4.16495 7.64013 4.07086 7.51997 4.09628C6.22345 4.37058 5.13553 5.2101 4.52619 6.34489C4.42513 6.53311 4.56914 6.75 4.78278 6.75H19.2172C19.4309 6.75 19.5749 6.53311 19.4738 6.34489C18.8645 5.2101 17.7766 4.37058 16.48 4.09628C16.3599 4.07086 16.25 4.16495 16.25 4.28776V5C16.25 5.41421 15.9142 5.75 15.5 5.75C15.0858 5.75 14.75 5.41421 14.75 5V4.2C14.75 4.08954 14.6605 4 14.55 4H9.45C9.33954 4 9.25 4.08954 9.25 4.2V5C9.25 5.41421 8.91421 5.75 8.5 5.75C8.08579 5.75 7.75 5.41421 7.75 5V4.28776Z" fill="#23294A"/>
<path fill-rule="evenodd" clip-rule="evenodd" d="M4.19868 8.25C4.08993 8.25 4 8.3357 4 8.44444L-nan -nanL4 8.44444V15.5556C4 18.0102 5.98985 20 8.44444 20H15.5556C18.0102 20 20 18.0102 20 15.5556V8.44444L-nan -nanL20 8.44444C20 8.3357 19.9101 8.25 19.8013 8.25H4.19868ZM15.75 13.5C15.75 13.0858 16.0858 12.75 16.5 12.75H17.5C17.9142 12.75 18.25 13.0858 18.25 13.5C18.25 13.9142 17.9142 14.25 17.5 14.25H16.5C16.0858 14.25 15.75 13.9142 15.75 13.5ZM10.5 12.75C10.0858 12.75 9.75 13.0858 9.75 13.5C9.75 13.9142 10.0858 14.25 10.5 14.25H13.5C13.9142 14.25 14.25 13.9142 14.25 13.5C14.25 13.0858 13.9142 12.75 13.5 12.75H10.5ZM6.25 13.5C6.25 13.0858 6.58579 12.75 7 12.75H7.5C7.91421 12.75 8.25 13.0858 8.25 13.5C8.25 13.9142 7.91421 14.25 7.5 14.25H7C6.58579 14.25 6.25 13.9142 6.25 13.5ZM15.5 15.75C15.0858 15.75 14.75 16.0858 14.75 16.5C14.75 16.9142 15.0858 17.25 15.5 17.25H17.5C17.9142 17.25 18.25 16.9142 18.25 16.5C18.25 16.0858 17.9142 15.75 17.5 15.75H15.5ZM6.25 16.5C6.25 16.0858 6.58579 15.75 7 15.75H8C8.41421 15.75 8.75 16.0858 8.75 16.5C8.75 16.9142 8.41421 17.25 8 17.25H7C6.58579 17.25 6.25 16.9142 6.25 16.5ZM10.5 15.75C10.0858 15.75 9.75 16.0858 9.75 16.5C9.75 16.9142 10.0858 17.25 10.5 17.25H13.5C13.9142 17.25 14.25 16.9142 14.25 16.5C14.25 16.0858 13.9142 15.75 13.5 15.75H10.5Z" fill="#23294A"/>
<path d="M7.75 4.28776C7.75 4.16495 7.64012 4.07086 7.51997 4.09628C6.22344 4.37058 5.13553 5.2101 4.52619 6.34489C4.42512 6.53311 4.56914 6.75 4.78278 6.75H19.2172C19.4309 6.75 19.5749 6.53311 19.4738 6.34489C18.8645 5.2101 17.7766 4.37058 16.48 4.09628C16.3599 4.07086 16.25 4.16495 16.25 4.28776V5C16.25 5.41421 15.9142 5.75 15.5 5.75C15.0858 5.75 14.75 5.41421 14.75 5V4.2C14.75 4.08954 14.6605 4 14.55 4H9.45C9.33954 4 9.25 4.08954 9.25 4.2V5C9.25 5.41421 8.91421 5.75 8.5 5.75C8.08578 5.75 7.75 5.41421 7.75 5V4.28776Z" fill="#9D9EA5"/>
<path fill-rule="evenodd" clip-rule="evenodd" d="M15.75 13.5C15.75 13.0858 16.0858 12.75 16.5 12.75H17.5C17.9142 12.75 18.25 13.0858 18.25 13.5C18.25 13.9142 17.9142 14.25 17.5 14.25H16.5C16.0858 14.25 15.75 13.9142 15.75 13.5ZM10.5 12.75C10.0858 12.75 9.75 13.0858 9.75 13.5C9.75 13.9142 10.0858 14.25 10.5 14.25H13.5C13.9142 14.25 14.25 13.9142 14.25 13.5C14.25 13.0858 13.9142 12.75 13.5 12.75H10.5ZM6.25 13.5C6.25 13.0858 6.58578 12.75 7 12.75H7.5C7.91421 12.75 8.25 13.0858 8.25 13.5C8.25 13.9142 7.91421 14.25 7.5 14.25H7C6.58578 14.25 6.25 13.9142 6.25 13.5ZM15.5 15.75C15.0858 15.75 14.75 16.0858 14.75 16.5C14.75 16.9142 15.0858 17.25 15.5 17.25H17.5C17.9142 17.25 18.25 16.9142 18.25 16.5C18.25 16.0858 17.9142 15.75 17.5 15.75H15.5ZM6.25 16.5C6.25 16.0858 6.58578 15.75 7 15.75H8C8.41421 15.75 8.75 16.0858 8.75 16.5C8.75 16.9142 8.41421 17.25 8 17.25H7C6.58578 17.25 6.25 16.9142 6.25 16.5ZM10.5 15.75C10.0858 15.75 9.75 16.0858 9.75 16.5C9.75 16.9142 10.0858 17.25 10.5 17.25H13.5C13.9142 17.25 14.25 16.9142 14.25 16.5C14.25 16.0858 13.9142 15.75 13.5 15.75H10.5Z" fill="#9D9EA5"/>
</svg>
