<svg width="24" height="24" viewBox="0 0 24 24" fill="none" xmlns="http://www.w3.org/2000/svg">
<path d="M7.2 20H16.8C19.1196 20 21 18.1196 21 15.8V10.215C21 8.67456 19.8993 7.35412 18.384 7.07681L18.3267 7.06632C17.506 6.91613 16.8283 6.33863 16.5497 5.55219C16.2202 4.62183 15.3403 4 14.3533 4H9.64667C8.65968 4 7.77977 4.62183 7.45026 5.55219C7.17174 6.33863 6.49399 6.91613 5.67332 7.06632L5.61601 7.07681C4.10072 7.35412 3 8.67456 3 10.215V15.8C3 18.1196 4.8804 20 7.2 20Z" fill="#23294A"/>
<path d="M15 13C15 14.6569 13.6569 16 12 16C10.3431 16 9 14.6569 9 13C9 11.3431 10.3431 10 12 10C13.6569 10 15 11.3431 15 13Z" fill="#9D9EA5"/>
</svg>
