<svg width="24" height="24" viewBox="0 0 24 24" fill="none" xmlns="http://www.w3.org/2000/svg">
<path d="M4.5 15.5C4.5 17.1568 5.84315 18.5 7.5 18.5C9.15685 18.5 10.5 17.1568 10.5 15.5C10.5 13.8431 9.15684 12.5 7.49998 12.5C5.84314 12.5 4.5 13.8431 4.5 15.5Z" fill="#23294A"/>
<path d="M4.5 7.5C4.5 9.15685 5.84315 10.5 7.5 10.5C9.15685 10.5 10.5 9.15685 10.5 7.5C10.5 5.84315 9.15685 4.5 7.5 4.5C5.84315 4.5 4.5 5.84315 4.5 7.5Z" fill="#9D9EA5"/>
<path d="M13.5 15.5C13.5 17.1569 14.8431 18.5 16.5 18.5C18.1569 18.5 19.5 17.1569 19.5 15.5C19.5 13.8431 18.1569 12.5 16.5 12.5C14.8431 12.5 13.5 13.8431 13.5 15.5Z" fill="#23294A"/>
<path d="M13.5 7.50744C13.5 9.17014 14.8523 10.5232 16.515 10.5149C18.166 10.5067 19.5 9.15849 19.5 7.50748C19.5 5.85062 18.1569 4.5 16.5 4.5C14.8431 4.5 13.5 5.85059 13.5 7.50744Z" fill="#23294A"/>
</svg>
