<svg width="24" height="24" viewBox="0 0 24 24" fill="none" xmlns="http://www.w3.org/2000/svg">
<path d="M3 8C3 5.23858 5.23858 3 8 3H16C18.7614 3 21 5.23858 21 8V16C21 18.7614 18.7614 21 16 21H8C5.23858 21 3 18.7614 3 16V8Z" fill="#23294A"/>
<path fill-rule="evenodd" clip-rule="evenodd" d="M9.20654 7.17383C9.82856 6.67621 10.75 7.11907 10.75 7.91565V14.9995C10.75 15.4137 10.4142 15.7495 10 15.7495C9.58578 15.7495 9.25 15.4137 9.25 14.9995V9.05999L7.96852 10.0852C7.64507 10.3439 7.1731 10.2915 6.91435 9.96805C6.65559 9.6446 6.70803 9.17263 7.03148 8.91387L9.20654 7.17383Z" fill="#9D9EA5"/>
<path fill-rule="evenodd" clip-rule="evenodd" d="M14 8.25C14.4142 8.25 14.75 8.58579 14.75 9V14.9395L16.0315 13.9143C16.3549 13.6556 16.8269 13.708 17.0857 14.0315C17.3444 14.3549 17.292 14.8269 16.9685 15.0857L14.7935 16.8257L14.3249 16.24L14.7935 16.8257C14.1714 17.3233 13.25 16.8805 13.25 16.0839V9C13.25 8.58579 13.5858 8.25 14 8.25Z" fill="#9D9EA5"/>
</svg>
