<svg width="24" height="24" viewBox="0 0 24 24" fill="none" xmlns="http://www.w3.org/2000/svg">
<path d="M3 8C3 5.23858 5.23858 3 8 3H16C18.7614 3 21 5.23858 21 8V16C21 18.7614 18.7614 21 16 21H8C5.23858 21 3 18.7614 3 16V8Z" fill="#23294A"/>
<path fill-rule="evenodd" clip-rule="evenodd" d="M8 14.25C8.41421 14.25 8.75 14.5858 8.75 15L8.75 17C8.75 17.4142 8.41421 17.75 8 17.75C7.58579 17.75 7.25 17.4142 7.25 17L7.25 15C7.25 14.5858 7.58579 14.25 8 14.25Z" fill="#9D9EA5"/>
<path fill-rule="evenodd" clip-rule="evenodd" d="M12 11.25C12.4142 11.25 12.75 11.5858 12.75 12L12.75 17C12.75 17.4142 12.4142 17.75 12 17.75C11.5858 17.75 11.25 17.4142 11.25 17L11.25 12C11.25 11.5858 11.5858 11.25 12 11.25Z" fill="#9D9EA5"/>
<path fill-rule="evenodd" clip-rule="evenodd" d="M16 7.25C16.4142 7.25 16.75 7.58579 16.75 8L16.75 17C16.75 17.4142 16.4142 17.75 16 17.75C15.5858 17.75 15.25 17.4142 15.25 17L15.25 8C15.25 7.58579 15.5858 7.25 16 7.25Z" fill="#9D9EA5"/>
</svg>
