<svg width="24" height="24" viewBox="0 0 24 24" fill="none" xmlns="http://www.w3.org/2000/svg">
<path fill-rule="evenodd" clip-rule="evenodd" d="M12 14.75C12.4142 14.75 12.75 15.0858 12.75 15.5V17.5C12.75 17.9142 12.4142 18.25 12 18.25C11.5858 18.25 11.25 17.9142 11.25 17.5V15.5C11.25 15.0858 11.5858 14.75 12 14.75Z" fill="#9D9EA5"/>
<path d="M18.5 7.7V9.8C18.5 11.5673 17.0673 13 15.3 13H8.7C6.93269 13 5.5 11.5673 5.5 9.8V7.7C5.5 5.93269 6.93269 4.5 8.7 4.5H15.3C17.0673 4.5 18.5 5.93269 18.5 7.7Z" fill="#23294A"/>
<path d="M11.5 15.5H12.5C13.8807 15.5 15 13.8807 15 12.5C15 12.2239 14.7761 12 14.5 12H9.5C9.22386 12 9 12.2239 9 12.5C9 13.8807 10.1193 15.5 11.5 15.5Z" fill="#23294A"/>
<path fill-rule="evenodd" clip-rule="evenodd" d="M12.95 5.90004C13.2814 6.14857 13.3485 6.61867 13.1 6.95004L12.4175 7.86011C13.1267 8.18881 13.3816 9.1791 12.7569 9.80383L11.5303 11.0304C11.2374 11.3233 10.7626 11.3233 10.4697 11.0304C10.1768 10.7375 10.1768 10.2626 10.4697 9.96971L11.3322 9.10723C10.7248 8.77822 10.477 7.94741 10.9437 7.32511L11.9 6.05004C12.1485 5.71867 12.6186 5.65152 12.95 5.90004Z" fill="#9D9EA5"/>
</svg>
