<svg width="24" height="24" viewBox="0 0 24 24" fill="none" xmlns="http://www.w3.org/2000/svg">
<path d="M12 21C16.9706 21 21 16.9706 21 12C21 7.02944 16.9706 3 12 3C7.02944 3 3 7.02944 3 12C3 13.6607 3.44978 15.2163 4.23418 16.5517C4.27422 16.6199 4.28705 16.7008 4.26858 16.7777L3.56272 19.7152C3.38285 20.4636 4.08071 21.1262 4.81885 20.9077L7.76179 20.0366C7.83598 20.0146 7.91569 20.0224 7.98491 20.057C9.19362 20.6605 10.5572 21 12 21Z" fill="#23294A"/>
<path fill-rule="evenodd" clip-rule="evenodd" d="M13.25 12C13.25 11.5858 13.5858 11.25 14 11.25H16C16.4142 11.25 16.75 11.5858 16.75 12C16.75 12.4142 16.4142 12.75 16 12.75H14C13.5858 12.75 13.25 12.4142 13.25 12Z" fill="#9D9EA5"/>
<path fill-rule="evenodd" clip-rule="evenodd" d="M7.25 12C7.25 11.5858 7.58579 11.25 8 11.25H10C10.4142 11.25 10.75 11.5858 10.75 12C10.75 12.4142 10.4142 12.75 10 12.75H8C7.58579 12.75 7.25 12.4142 7.25 12Z" fill="#9D9EA5"/>
</svg>
