<svg width="24" height="24" viewBox="0 0 24 24" fill="none" xmlns="http://www.w3.org/2000/svg">
<path d="M12 21C16.9706 21 21 16.9706 21 12C21 7.02944 16.9706 3 12 3C7.02944 3 3 7.02944 3 12C3 13.6607 3.44978 15.2163 4.23418 16.5517C4.27422 16.6199 4.28705 16.7008 4.26858 16.7777L3.56272 19.7152C3.38285 20.4636 4.08071 21.1262 4.81885 20.9077L7.76179 20.0366C7.83598 20.0146 7.91569 20.0224 7.98491 20.057C9.19362 20.6605 10.5572 21 12 21Z" fill="#23294A"/>
<path d="M17 12C17 12.5523 16.5523 13 16 13C15.4477 13 15 12.5523 15 12C15 11.4477 15.4477 11 16 11C16.5523 11 17 11.4477 17 12Z" fill="#9D9EA5"/>
<path d="M13 12C13 12.5523 12.5523 13 12 13C11.4477 13 11 12.5523 11 12C11 11.4477 11.4477 11 12 11C12.5523 11 13 11.4477 13 12Z" fill="#9D9EA5"/>
<path d="M9 12C9 12.5523 8.55228 13 8 13C7.44772 13 7 12.5523 7 12C7 11.4477 7.44772 11 8 11C8.55228 11 9 11.4477 9 12Z" fill="#9D9EA5"/>
</svg>
