<svg width="24" height="24" viewBox="0 0 24 24" fill="none" xmlns="http://www.w3.org/2000/svg">
<path d="M7.2 4H16.8C19.1196 4 21 5.8804 21 8.2V14.8C21 17.1196 19.1196 19 16.8 19H16.2426C15.447 19 14.6839 19.3161 14.1213 19.8787L12.8485 21.1515C12.3799 21.6201 11.6201 21.6201 11.1515 21.1515L9.87868 19.8787C9.31607 19.3161 8.55301 19 7.75736 19H7.2C4.8804 19 3 17.1196 3 14.8V8.2C3 5.8804 4.8804 4 7.2 4Z" fill="#23294A"/>
<path d="M17 12C17 12.5523 16.5523 13 16 13C15.4477 13 15 12.5523 15 12C15 11.4477 15.4477 11 16 11C16.5523 11 17 11.4477 17 12Z" fill="#9D9EA5"/>
<path d="M13 12C13 12.5523 12.5523 13 12 13C11.4477 13 11 12.5523 11 12C11 11.4477 11.4477 11 12 11C12.5523 11 13 11.4477 13 12Z" fill="#9D9EA5"/>
<path d="M9 12C9 12.5523 8.55228 13 8 13C7.44772 13 7 12.5523 7 12C7 11.4477 7.44772 11 8 11C8.55228 11 9 11.4477 9 12Z" fill="#9D9EA5"/>
</svg>
