<svg width="24" height="24" viewBox="0 0 24 24" fill="none" xmlns="http://www.w3.org/2000/svg">
<path d="M21 12C21 16.9706 16.9706 21 12 21C7.02944 21 3 16.9706 3 12C3 7.02944 7.02944 3 12 3C16.9706 3 21 7.02944 21 12Z" fill="#23294A"/>
<path fill-rule="evenodd" clip-rule="evenodd" d="M12 8.25C12.4142 8.25 12.75 8.58579 12.75 9V12.1395L14.9685 13.9143C15.292 14.1731 15.3444 14.6451 15.0857 14.9685C14.8269 15.292 14.3549 15.3444 14.0315 15.0857L11.7191 13.2358C11.4226 12.9986 11.25 12.6394 11.25 12.2597V9C11.25 8.58579 11.5858 8.25 12 8.25Z" fill="#9D9EA5"/>
</svg>
