<svg width="24" height="24" viewBox="0 0 24 24" fill="none" xmlns="http://www.w3.org/2000/svg">
<path d="M3 8C3 5.23858 5.23858 3 8 3H16C18.7614 3 21 5.23858 21 8V16C21 18.7614 18.7614 21 16 21H8C5.23858 21 3 18.7614 3 16V8Z" fill="#23294A"/>
<path fill-rule="evenodd" clip-rule="evenodd" d="M12 8.25C12.4142 8.25 12.75 8.58579 12.75 9V12.1395L14.9685 13.9143C15.292 14.1731 15.3444 14.6451 15.0857 14.9685C14.8269 15.292 14.3549 15.3444 14.0315 15.0857L11.7191 13.2358C11.4226 12.9986 11.25 12.6394 11.25 12.2597V9C11.25 8.58579 11.5858 8.25 12 8.25Z" fill="#9D9EA5"/>
</svg>
