<svg width="24" height="24" viewBox="0 0 24 24" fill="none" xmlns="http://www.w3.org/2000/svg">
<path d="M3 8C3 5.23858 5.23858 3 8 3H16C18.7614 3 21 5.23858 21 8V16C21 18.7614 18.7614 21 16 21H8C5.23858 21 3 18.7614 3 16V8Z" fill="#23294A"/>
<path fill-rule="evenodd" clip-rule="evenodd" d="M14.6517 9.34869C14.9445 9.64158 14.9445 10.1165 14.6517 10.4093L10.409 14.652C10.1161 14.9449 9.64125 14.9449 9.34835 14.652C9.05546 14.3591 9.05546 13.8842 9.34835 13.5913L13.591 9.34869C13.8839 9.0558 14.3588 9.0558 14.6517 9.34869Z" fill="#9D9EA5"/>
<path fill-rule="evenodd" clip-rule="evenodd" d="M9.34835 9.34858C9.64125 9.05568 10.1161 9.05568 10.409 9.34858L14.6517 13.5912C14.9445 13.8841 14.9445 14.359 14.6517 14.6519C14.3588 14.9448 13.8839 14.9448 13.591 14.6519L9.34835 10.4092C9.05546 10.1163 9.05546 9.64147 9.34835 9.34858Z" fill="#9D9EA5"/>
</svg>
