<svg width="24" height="24" viewBox="0 0 24 24" fill="none" xmlns="http://www.w3.org/2000/svg">
<path d="M21 12C21 16.9706 16.9706 21 12 21C7.02944 21 3 16.9706 3 12C3 7.02944 7.02944 3 12 3C16.9706 3 21 7.02944 21 12Z" fill="#23294A"/>
<path fill-rule="evenodd" clip-rule="evenodd" d="M14.6517 9.34869C14.9445 9.64158 14.9445 10.1165 14.6517 10.4093L10.409 14.652C10.1161 14.9449 9.64125 14.9449 9.34835 14.652C9.05546 14.3591 9.05546 13.8842 9.34835 13.5913L13.591 9.34869C13.8839 9.0558 14.3588 9.0558 14.6517 9.34869Z" fill="#9D9EA5"/>
<path fill-rule="evenodd" clip-rule="evenodd" d="M9.34835 9.34858C9.64125 9.05568 10.1161 9.05568 10.409 9.34858L14.6517 13.5912C14.9445 13.8841 14.9445 14.359 14.6517 14.6519C14.3588 14.9448 13.8839 14.9448 13.591 14.6519L9.34835 10.4092C9.05546 10.1163 9.05546 9.64147 9.34835 9.34858Z" fill="#9D9EA5"/>
</svg>
