<svg width="24" height="24" viewBox="0 0 24 24" fill="none" xmlns="http://www.w3.org/2000/svg">
<path d="M21 12C21 15.866 17.9779 19 14.25 19H7.5C5.01472 19 3 16.9107 3 14.3333C3 11.756 5.01472 9.66667 7.5 9.66667C7.60091 9.66667 7.70105 9.67011 7.80031 9.67689C7.84628 9.68003 7.88892 9.65209 7.90416 9.60861C8.84641 6.9202 11.332 5 14.25 5C17.9779 5 21 8.13401 21 12Z" fill="#23294A"/>
<path d="M21 12C21 15.866 17.9779 19 14.25 19H7.5C6.57493 19 5.71505 18.7105 5 18.2142L20.097 8.5C20.6713 9.52961 21 10.725 21 12Z" fill="#9D9EA5"/>
</svg>
