<svg width="24" height="24" viewBox="0 0 24 24" fill="none" xmlns="http://www.w3.org/2000/svg">
<path d="M8.02114 18L15.0691 18L15.0719 17.9996C18.9048 17.9611 22 14.842 22 11C22 7.13401 18.866 4 15 4C13.0433 4 11.2741 4.80285 10.0038 6.09711C9.89434 6.20867 9.73242 6.25175 9.58161 6.21065C9.07772 6.07331 8.54742 6 8 6C4.68629 6 2 8.68629 2 12C2 15.3137 4.68629 18 8 18C8.00705 18 8.0141 18 8.02114 18Z" fill="#23294A"/>
<path d="M15.0719 17.9996L15.0691 18L8.02114 18L8 18C6.47833 18 5.08896 17.4335 4.03126 16.5C3.63833 16.1532 3.29117 15.7557 3 15.3178L20.7453 7C21.5362 8.13383 22 9.51275 22 11C22 14.842 18.9048 17.9611 15.0719 17.9996Z" fill="#9D9EA5"/>
</svg>
