<svg width="24" height="24" viewBox="0 0 24 24" fill="none" xmlns="http://www.w3.org/2000/svg">
<path d="M4 10.6111C4 8.61675 5.74112 7 7.88889 7H14.1111C16.2589 7 18 8.61675 18 10.6111V16.3889C18 18.3832 16.2589 20 14.1111 20H7.88889C5.74112 20 4 18.3832 4 16.3889V10.6111Z" fill="#23294A"/>
<path d="M18 16.3893C18 18.3837 16.2589 20.0004 14.1111 20.0004H7.88889C5.74112 20.0004 4 18.3837 4 16.3893V13.5004L5.01562 12.7387C5.55928 12.331 6.33054 12.4412 6.73828 12.9848C7.15506 13.5405 7.94892 13.6413 8.49133 13.2074L9.20391 12.6373C9.6844 12.2529 10.3509 12.201 10.8852 12.5062L12.6148 13.4946C13.1491 13.7999 13.8156 13.748 14.2961 13.3636L15.0926 12.7264C15.6268 12.299 16.3824 12.2872 16.9296 12.6977L18 13.5004V16.3893Z" fill="#9D9EA5"/>
<path fill-rule="evenodd" clip-rule="evenodd" d="M14 2.75C14.4142 2.75 14.75 3.08579 14.75 3.5V5C14.75 5.41421 14.4142 5.75 14 5.75C13.5858 5.75 13.25 5.41421 13.25 5V3.5C13.25 3.08579 13.5858 2.75 14 2.75Z" fill="#23294A"/>
<path fill-rule="evenodd" clip-rule="evenodd" d="M11 2.75C11.4142 2.75 11.75 3.08579 11.75 3.5V5C11.75 5.41421 11.4142 5.75 11 5.75C10.5858 5.75 10.25 5.41421 10.25 5V3.5C10.25 3.08579 10.5858 2.75 11 2.75Z" fill="#23294A"/>
<path fill-rule="evenodd" clip-rule="evenodd" d="M8 2.75C8.41421 2.75 8.75 3.08579 8.75 3.5V5C8.75 5.41421 8.41421 5.75 8 5.75C7.58579 5.75 7.25 5.41421 7.25 5V3.5C7.25 3.08579 7.58579 2.75 8 2.75Z" fill="#23294A"/>
<path d="M18.5 9.375V14.625C18.5 14.8321 18.6679 15 18.875 15C20.3247 15 21.5 13.8247 21.5 12.375V11.625C21.5 10.1753 20.3247 9 18.875 9C18.6679 9 18.5 9.16789 18.5 9.375Z" fill="#23294A"/>
</svg>
