<svg width="24" height="24" viewBox="0 0 24 24" fill="none" xmlns="http://www.w3.org/2000/svg">
<path d="M15.8 4H12.2C9.8804 4 8 5.8804 8 8.2V11.8C8 14.1196 9.8804 16 12.2 16H15.8C18.1196 16 20 14.1196 20 11.8V8.2C20 5.8804 18.1196 4 15.8 4Z" fill="#9D9EA5"/>
<path d="M10.75 17H13.25C13.9404 17 14.5 17.5596 14.5 18.25C14.5 18.9404 13.9404 19.5 13.25 19.5H8C5.79086 19.5 4 17.7091 4 15.5V9.5C4 8.67157 4.67157 8 5.5 8C6.32843 8 7 8.67157 7 9.5V13.25C7 15.3211 8.67893 17 10.75 17Z" fill="#23294A"/>
</svg>
