<svg width="24" height="24" viewBox="0 0 24 24" fill="none" xmlns="http://www.w3.org/2000/svg">
<path d="M20 14.4997V5.82385C20 5.18231 19.2089 4.87872 18.7797 5.35557L16.1163 8.31492C15.8065 8.65908 15.254 8.61309 15.0054 8.22246L12.8437 4.82543C12.4507 4.20793 11.5493 4.20793 11.1563 4.82543L8.99459 8.22246C8.74601 8.61309 8.19346 8.65908 7.88372 8.31492L5.22031 5.35557C4.79114 4.87872 4 5.18231 4 5.82385V14.4997C4 16.7088 5.79086 18.4997 8 18.4997H16C18.2091 18.4997 20 16.7088 20 14.4997Z" fill="#23294A"/>
<path fill-rule="evenodd" clip-rule="evenodd" d="M8.75 16C8.75 15.5858 9.08579 15.25 9.5 15.25H14.5C14.9142 15.25 15.25 15.5858 15.25 16C15.25 16.4142 14.9142 16.75 14.5 16.75H9.5C9.08579 16.75 8.75 16.4142 8.75 16Z" fill="#9D9EA5"/>
</svg>
