<svg width="24" height="24" viewBox="0 0 24 24" fill="none" xmlns="http://www.w3.org/2000/svg">
<path d="M10.6502 5.77943C11.4856 5.29712 12.5148 5.29712 13.3502 5.77943L16.7124 7.72058C16.8368 7.79238 16.8357 7.96577 16.7185 8.04864L12.4438 11.0694C12.2749 11.1888 12.0499 11.1918 11.8779 11.0771L7.28598 8.01587C7.17764 7.94365 7.17529 7.78568 7.28805 7.72058L10.6502 5.77943Z" fill="#23294A"/>
<path d="M12.9117 12.4531L17.3347 9.32748C17.593 9.14489 17.9569 9.24698 18.0156 9.55787C18.0464 9.72137 18.0624 9.88897 18.0624 10.0588V13.9412C18.0624 14.9058 17.5478 15.7971 16.7124 16.2794L13.3502 18.2206C13.3347 18.2296 13.3191 18.2384 13.3034 18.247C13.0154 18.4057 12.7002 18.167 12.7002 17.8382V12.8614C12.7002 12.699 12.7791 12.5468 12.9117 12.4531Z" fill="#23294A"/>
<path d="M6.66492 9.28457C6.40746 9.11294 6.0539 9.21532 5.99201 9.51849C5.95612 9.69435 5.9375 9.87516 5.9375 10.0586V13.9409C5.9375 14.9056 6.45212 15.7969 7.2875 16.2792L10.6497 18.2204C10.6652 18.2293 10.6808 18.2381 10.6965 18.2468C10.9845 18.4055 11.2997 18.1668 11.2997 17.838V12.8612C11.2997 12.8262 11.3006 12.7913 11.3026 12.7566C11.3141 12.5466 11.2374 12.3329 11.0624 12.2162L6.66492 9.28457Z" fill="#9D9EA5"/>
</svg>
