<svg width="24" height="24" viewBox="0 0 24 24" fill="none" xmlns="http://www.w3.org/2000/svg">
<path fill-rule="evenodd" clip-rule="evenodd" d="M7.87182 8.09039C8.09809 7.74344 8.56278 7.64561 8.90973 7.87188L20.4097 15.3719C20.7567 15.5982 20.8545 16.0628 20.6282 16.4098C20.402 16.7567 19.9373 16.8546 19.5903 16.6283L8.09032 9.12829C7.74338 8.90202 7.64555 8.43734 7.87182 8.09039Z" fill="#23294A"/>
<path fill-rule="evenodd" clip-rule="evenodd" d="M20.6031 7.55425C20.8493 7.88736 20.7789 8.35698 20.4458 8.60318L8.94578 17.1032C8.61268 17.3494 8.14306 17.2789 7.89686 16.9458C7.65065 16.6127 7.72109 16.1431 8.05419 15.8969L19.5542 7.39692C19.8873 7.15071 20.3569 7.22115 20.6031 7.55425Z" fill="#23294A"/>
<path d="M9 7C9 8.65685 7.65685 10 6 10C4.34315 10 3 8.65685 3 7C3 5.34315 4.34315 4 6 4C7.65685 4 9 5.34315 9 7Z" fill="#9D9EA5"/>
<path d="M9 17C9 18.6569 7.65685 20 6 20C4.34315 20 3 18.6569 3 17C3 15.3431 4.34315 14 6 14C7.65685 14 9 15.3431 9 17Z" fill="#9D9EA5"/>
</svg>
