<svg width="24" height="24" viewBox="0 0 24 24" fill="none" xmlns="http://www.w3.org/2000/svg">
<path d="M19.5239 15.5434L14.6225 6.7208C13.4795 4.66338 10.5206 4.66338 9.37754 6.72081L4.47608 15.5434C3.3652 17.543 4.8111 20.0004 7.09855 20.0004H16.9015C19.1889 20.0004 20.6348 17.543 19.5239 15.5434Z" fill="#23294A"/>
<path fill-rule="evenodd" clip-rule="evenodd" d="M12 13.75C11.5858 13.75 11.25 13.4142 11.25 13L11.25 10C11.25 9.58579 11.5858 9.25 12 9.25C12.4142 9.25 12.75 9.58579 12.75 10L12.75 13C12.75 13.4142 12.4142 13.75 12 13.75Z" fill="#9D9EA5"/>
<path d="M13 16C13 16.5523 12.5523 17 12 17C11.4477 17 11 16.5523 11 16C11 15.4477 11.4477 15 12 15C12.5523 15 13 15.4477 13 16Z" fill="#9D9EA5"/>
</svg>
