<svg width="24" height="24" viewBox="0 0 24 24" fill="none" xmlns="http://www.w3.org/2000/svg">
<path d="M7.8 20H16.2C17.7464 20 19 18.7464 19 17.2V8.70246C19 7.96749 18.711 7.26199 18.1954 6.73821L16.3227 4.83575C15.7964 4.30109 15.0775 4 14.3273 4H7.8C6.2536 4 5 5.2536 5 6.8V17.2C5 18.7464 6.2536 20 7.8 20Z" fill="#23294A"/>
<path fill-rule="evenodd" clip-rule="evenodd" d="M7.25 11C7.25 10.5858 7.58579 10.25 8 10.25H10C10.4142 10.25 10.75 10.5858 10.75 11C10.75 11.4142 10.4142 11.75 10 11.75H8C7.58579 11.75 7.25 11.4142 7.25 11Z" fill="#9D9EA5"/>
<path fill-rule="evenodd" clip-rule="evenodd" d="M7.25 14C7.25 13.5858 7.58579 13.25 8 13.25H12C12.4142 13.25 12.75 13.5858 12.75 14C12.75 14.4142 12.4142 14.75 12 14.75H8C7.58579 14.75 7.25 14.4142 7.25 14Z" fill="#9D9EA5"/>
<path fill-rule="evenodd" clip-rule="evenodd" d="M7.25 17C7.25 16.5858 7.58579 16.25 8 16.25H16C16.4142 16.25 16.75 16.5858 16.75 17C16.75 17.4142 16.4142 17.75 16 17.75H8C7.58579 17.75 7.25 17.4142 7.25 17Z" fill="#9D9EA5"/>
</svg>
