<svg width="24" height="24" viewBox="0 0 24 24" fill="none" xmlns="http://www.w3.org/2000/svg">
<path d="M7 21H16.5C18.1569 21 19.5 19.6569 19.5 18V9.89208C19.5 9.3139 19.3073 8.75222 18.9523 8.29583L15.614 4.00375C15.1214 3.37043 14.3641 3 13.5617 3H7C5.34315 3 4 4.34315 4 6V18C4 19.6569 5.34315 21 7 21Z" fill="#23294A"/>
<path fill-rule="evenodd" clip-rule="evenodd" d="M13.75 3V7.5C13.75 8.4665 14.5335 9.25 15.5 9.25H19.5V10.75H15.5C13.7051 10.75 12.25 9.29493 12.25 7.5V3H13.75Z" fill="#9D9EA5"/>
<path fill-rule="evenodd" clip-rule="evenodd" d="M6.25 11C6.25 10.5858 6.58579 10.25 7 10.25H9C9.41421 10.25 9.75 10.5858 9.75 11C9.75 11.4142 9.41421 11.75 9 11.75H7C6.58579 11.75 6.25 11.4142 6.25 11Z" fill="#9D9EA5"/>
<path fill-rule="evenodd" clip-rule="evenodd" d="M6.25 14C6.25 13.5858 6.58579 13.25 7 13.25H11C11.4142 13.25 11.75 13.5858 11.75 14C11.75 14.4142 11.4142 14.75 11 14.75H7C6.58579 14.75 6.25 14.4142 6.25 14Z" fill="#9D9EA5"/>
<path fill-rule="evenodd" clip-rule="evenodd" d="M6.25 17C6.25 16.5858 6.58579 16.25 7 16.25H15C15.4142 16.25 15.75 16.5858 15.75 17C15.75 17.4142 15.4142 17.75 15 17.75H7C6.58579 17.75 6.25 17.4142 6.25 17Z" fill="#9D9EA5"/>
</svg>
