<svg width="24" height="24" viewBox="0 0 24 24" fill="none" xmlns="http://www.w3.org/2000/svg">
<path d="M21 12C21 16.9706 16.9706 21 12 21C7.02944 21 3 16.9706 3 12C3 7.02944 7.02944 3 12 3C16.9706 3 21 7.02944 21 12Z" fill="#23294A"/>
<path fill-rule="evenodd" clip-rule="evenodd" d="M8.75 9.66667C8.75 8.33198 9.83198 7.25 11.1667 7.25H12.5C14.0188 7.25 15.25 8.48122 15.25 10C15.25 10.4142 14.9142 10.75 14.5 10.75C14.0858 10.75 13.75 10.4142 13.75 10C13.75 9.30964 13.1904 8.75 12.5 8.75H11.1667C10.6604 8.75 10.25 9.16041 10.25 9.66667C10.25 10.0052 10.4366 10.3162 10.7353 10.4755L13.9706 12.201C14.7581 12.621 15.25 13.4408 15.25 14.3333C15.25 15.668 14.168 16.75 12.8333 16.75H11.5833C10.0185 16.75 8.75 15.4815 8.75 13.9167V13.3333C8.75 12.9191 9.08579 12.5833 9.5 12.5833C9.91421 12.5833 10.25 12.9191 10.25 13.3333V13.9167C10.25 14.653 10.847 15.25 11.5833 15.25H12.8333C13.3396 15.25 13.75 14.8396 13.75 14.3333C13.75 13.9948 13.5634 13.6838 13.2647 13.5245L13.5682 12.9555L13.2647 13.5245L10.0294 11.799C9.24191 11.379 8.75 10.5592 8.75 9.66667Z" fill="#9D9EA5"/>
<path fill-rule="evenodd" clip-rule="evenodd" d="M12 6.25C12.4142 6.25 12.75 6.58579 12.75 7V17C12.75 17.4142 12.4142 17.75 12 17.75C11.5858 17.75 11.25 17.4142 11.25 17V7C11.25 6.58579 11.5858 6.25 12 6.25Z" fill="#9D9EA5"/>
</svg>
