<svg width="24" height="24" viewBox="0 0 24 24" fill="none" xmlns="http://www.w3.org/2000/svg">
<path d="M17.5 9H15.8571H8.14286H6.5C4.567 9 3 10.567 3 12.5V16.5C3 18.433 4.567 20 6.5 20H17.5C19.433 20 21 18.433 21 16.5V12.5C21 10.567 19.433 9 17.5 9Z" fill="#23294A"/>
<path fill-rule="evenodd" clip-rule="evenodd" d="M12 5.25C12.4142 5.25 12.75 5.58579 12.75 6V14C12.75 14.4142 12.4142 14.75 12 14.75C11.5858 14.75 11.25 14.4142 11.25 14V6C11.25 5.58579 11.5858 5.25 12 5.25Z" fill="#9D9EA5"/>
<path fill-rule="evenodd" clip-rule="evenodd" d="M9.46967 12.4697C9.76256 12.1768 10.2374 12.1768 10.5303 12.4697L12 13.9393L13.4697 12.4697C13.7626 12.1768 14.2374 12.1768 14.5303 12.4697C14.8232 12.7626 14.8232 13.2374 14.5303 13.5303L12.6718 15.3889C12.3008 15.7599 11.6992 15.7599 11.3282 15.3889L9.46967 13.5303C9.17678 13.2374 9.17678 12.7626 9.46967 12.4697Z" fill="#9D9EA5"/>
</svg>
