<svg width="24" height="24" viewBox="0 0 24 24" fill="none" xmlns="http://www.w3.org/2000/svg">
<path d="M20.9474 12.9787C20.9604 12.8588 20.8623 12.757 20.7419 12.7625L17.9316 12.8902C16.8354 12.9401 15.7591 13.1076 14.7187 13.3838C14.6005 13.4152 14.5399 13.5454 14.5895 13.6572C15.4154 15.5219 16.0699 17.4664 16.5402 19.4675C16.5713 19.5998 16.722 19.6645 16.8366 19.5913C19.0805 18.1587 20.6468 15.7584 20.9474 12.9787Z" fill="#23294A"/>
<path d="M13.9974 12.0271C13.9045 12.0539 13.8055 12.0115 13.7612 11.9255C13.4512 11.3229 13.1226 10.73 12.776 10.1476C12.7172 10.0488 12.7528 9.92066 12.8539 9.86574C14.3991 9.02642 15.819 7.936 17.0493 6.61778L18.0179 5.57997C18.0934 5.49909 18.2204 5.4947 18.2994 5.57215C19.799 7.04191 20.7864 9.03222 20.9692 11.2506L20.9659 11.2508L17.8635 11.3918C16.5407 11.4519 15.2442 11.668 13.9974 12.0271Z" fill="#23294A"/>
<path d="M12.2038 12.6563C12.3127 12.611 12.3607 12.4824 12.3059 12.378C12.0169 11.8276 11.7116 11.2859 11.3904 10.7536C11.3395 10.6692 11.2345 10.6352 11.1431 10.672C8.66388 11.6716 5.94742 12.0685 3.22119 11.7804C3.10414 11.7681 3.00035 11.8575 3.00003 11.9752C3.00001 11.9835 3 11.9917 3 12C3 14.2197 3.80358 16.2517 5.13569 17.821C5.21711 17.917 5.36579 17.9106 5.44313 17.8114C7.23076 15.5177 9.5681 13.753 12.2038 12.6563Z" fill="#23294A"/>
<path d="M6.54518 19.1592C6.45962 19.0939 6.44372 18.9719 6.5088 18.8862C8.17479 16.6919 10.3874 15.0145 12.8896 13.9961C12.988 13.9561 13.1001 14.0014 13.1437 14.0983C14.0272 16.0619 14.7107 18.1197 15.178 20.2415C15.1992 20.3379 15.1466 20.4352 15.0538 20.4687C14.1003 20.8126 13.072 21 12 21C9.94922 21 8.05865 20.3141 6.54518 19.1592Z" fill="#23294A"/>
<path d="M12 3C13.7549 3 15.3926 3.50229 16.7769 4.37095C16.8816 4.4366 16.8984 4.58109 16.8141 4.67139L15.9527 5.59431C14.8022 6.82704 13.4693 7.84069 12.0178 8.61222C11.9279 8.65999 11.8168 8.63115 11.7598 8.54682C10.7024 6.98239 9.50834 5.50554 8.18771 4.13478C8.09349 4.03698 8.12075 3.8755 8.24414 3.81876C9.38724 3.29312 10.6594 3 12 3Z" fill="#23294A"/>
<path d="M6.54247 4.84291C6.6209 4.78301 6.73138 4.79152 6.80084 4.86163C8.10659 6.17967 9.28737 7.60459 10.3331 9.11762C10.4059 9.22306 10.361 9.36857 10.241 9.41359C8.08049 10.2241 5.7348 10.5373 3.38104 10.289C3.26544 10.2768 3.1859 10.1676 3.21092 10.0541C3.6761 7.9435 4.88216 6.11089 6.54247 4.84291Z" fill="#23294A"/>
<path d="M13.9974 12.0271C13.9045 12.0539 13.8055 12.0115 13.7612 11.9255C13.4512 11.323 13.1226 10.73 12.776 10.1476C12.7172 10.0488 12.7528 9.92066 12.8539 9.86574C14.3991 9.02642 15.819 7.936 17.0493 6.61779L18.0179 5.57997C18.0934 5.49909 18.2204 5.49471 18.2994 5.57215C19.799 7.04191 20.7864 9.03223 20.9692 11.2506L20.9659 11.2508L17.8635 11.3918C16.5407 11.4519 15.2442 11.668 13.9974 12.0271Z" fill="#9D9EA5"/>
<path d="M12.2038 12.6564C12.3127 12.611 12.3607 12.4824 12.3059 12.378C12.0169 11.8276 11.7116 11.2859 11.3904 10.7536C11.3395 10.6692 11.2345 10.6352 11.1431 10.672C8.66388 11.6716 5.94742 12.0685 3.22119 11.7804C3.10414 11.7681 3.00035 11.8575 3.00003 11.9752C3.00001 11.9835 3 11.9917 3 12C3 14.2197 3.80358 16.2517 5.13569 17.821C5.21711 17.917 5.36579 17.9107 5.44313 17.8114C7.23076 15.5177 9.5681 13.753 12.2038 12.6564Z" fill="#9D9EA5"/>
</svg>
