<svg width="24" height="24" viewBox="0 0 24 24" fill="none" xmlns="http://www.w3.org/2000/svg">
<path d="M5.672 5.62877C5.43699 5.351 5.00188 5.42369 5.00002 5.78754C4.99974 5.84237 5.00193 5.89785 5.00668 5.95387L5.54224 12.2637C5.62178 13.2007 6.1361 14.0463 6.93162 14.5478L10.8957 17.0468C10.9959 17.11 11.0922 17.179 11.184 17.2533C11.397 17.4258 11.7077 17.4504 11.9147 17.2708L17.2362 12.6568C17.4351 12.4843 17.4619 12.1888 17.3375 11.9567C17.2925 11.8727 17.2514 11.7864 17.2145 11.6983L15.4045 7.37586C15.0413 6.50843 14.2923 5.86151 13.3813 5.6283L7.24662 4.05786C7.19279 4.04408 7.13907 4.03287 7.08557 4.02413C6.72639 3.96547 6.58249 4.38259 6.81756 4.66043L9.48559 7.81386C9.7532 8.13002 9.71385 8.60326 9.39769 8.87087C9.08153 9.13848 8.60829 9.09913 8.34068 8.78297L5.672 5.62877Z" fill="#23294A"/>
<path d="M15.3886 19.3532L18.747 16.5105C19.5058 15.8682 19.6003 14.7324 18.958 13.9736L18.8824 13.8844C18.7025 13.6718 18.3837 13.6472 18.1733 13.8296L12.8841 18.4157C12.6772 18.595 12.6531 18.9075 12.83 19.1165L12.8518 19.1422C13.4941 19.901 14.6299 19.9955 15.3886 19.3532Z" fill="#23294A"/>
<path d="M15.3887 19.3528L18.7471 16.5101C19.5059 15.8678 19.6003 14.7321 18.958 13.9733L18.8825 13.884C18.7026 13.6715 18.3837 13.6468 18.1733 13.8293L12.8841 18.4153C12.6772 18.5947 12.6531 18.9071 12.83 19.1161L12.8518 19.1419C13.4941 19.9006 14.6299 19.9951 15.3887 19.3528Z" fill="#9D9EA5"/>
</svg>
