<svg width="24" height="24" viewBox="0 0 24 24" fill="none" xmlns="http://www.w3.org/2000/svg">
<path d="M21 12C21 16.9706 16.9706 21 12 21C7.02944 21 3 16.9706 3 12C3 7.02944 7.02944 3 12 3C16.9706 3 21 7.02944 21 12Z" fill="#23294A"/>
<path d="M11.0064 8.88366L15.2728 9.3605C15.9793 9.43946 16.3801 10.2096 16.0395 10.8335L13.9822 14.6015C13.7876 14.9579 13.3969 15.1612 12.9934 15.1161L8.72695 14.6393C8.02049 14.5603 7.61967 13.7902 7.96032 13.1663L10.0176 9.39826C10.2122 9.04191 10.6029 8.83856 11.0064 8.88366Z" fill="#9D9EA5"/>
</svg>
