<svg width="24" height="24" viewBox="0 0 24 24" fill="none" xmlns="http://www.w3.org/2000/svg">
<path d="M12 4H14.75C16.2688 4 17.5 5.23122 17.5 6.75C17.5 8.26878 16.2688 9.5 14.75 9.5H12V4Z" fill="#23294A"/>
<path d="M12 12.3639V12.3C12 10.7536 13.2536 9.5 14.8 9.5C16.3464 9.5 17.6 10.7536 17.6 12.3V12.3639C17.6 13.9103 16.3464 15.1639 14.8 15.1639C13.2536 15.1639 12 13.9103 12 12.3639Z" fill="#23294A"/>
<path d="M8.75 4H12V9.5H8.75C7.23122 9.5 6 8.26878 6 6.75C6 5.23122 7.23122 4 8.75 4Z" fill="#23294A"/>
<path d="M8.75 9.5H12V15H8.75C7.23122 15 6 13.7688 6 12.25C6 10.7312 7.23122 9.5 8.75 9.5Z" fill="#23294A"/>
<path d="M8.75 15H12V17.5C12 19.1569 10.6569 20.5 9 20.5H8.75C7.23122 20.5 6 19.2688 6 17.75C6 16.2312 7.23122 15 8.75 15Z" fill="#9D9EA5"/>
</svg>
