<svg width="24" height="24" viewBox="0 0 24 24" fill="none" xmlns="http://www.w3.org/2000/svg">
<path d="M8.48983 12.5104L6.52294 12.5303C5.61719 12.5394 5.1669 11.436 5.82045 10.8088L7.69223 9.01265C8.08486 8.52056 8.84709 8.56822 9.17537 9.10539L13.1415 15.5954C13.66 16.4438 13.6095 17.5225 13.014 18.3188L11.2233 20.1948C10.6004 20.8474 9.49993 20.4065 9.49993 19.5043V13.5104C9.49993 12.9541 9.04603 12.5048 8.48983 12.5104Z" fill="#23294A"/>
<path d="M15.9999 11.0002H17.6629C18.5427 11.0002 18.9937 12.0543 18.3863 12.6907L16.7974 14.3552C16.6632 14.4959 16.5547 14.6671 16.3922 14.7738C16.0813 14.9778 15.6355 14.9038 15.4226 14.5554L11.2451 7.71952C10.8013 6.99335 10.8785 6.06351 11.4358 5.42036L13.3076 3.62421C13.9432 3.01422 14.9999 3.46474 14.9999 4.34574V10.0002C14.9999 10.5525 15.4476 11.0002 15.9999 11.0002Z" fill="#23294A"/>
<path d="M8.48983 12.5101L6.52294 12.5299C5.61719 12.5391 5.1669 11.4356 5.82045 10.8084L7.69223 9.0123C8.08486 8.5202 8.84709 8.56786 9.17537 9.10504L13.1415 15.5951C13.66 16.4435 13.6095 17.5221 13.014 18.3184L11.2233 20.1944C10.6004 20.847 9.49993 20.4061 9.49993 19.504V13.51C9.49993 12.9538 9.04603 12.5044 8.48983 12.5101Z" fill="#9D9EA5"/>
<path fill-rule="evenodd" clip-rule="evenodd" d="M7.61075 4.35902C7.96482 4.14405 8.42611 4.25681 8.64108 4.61088L17.1411 18.6109C17.356 18.9649 17.2433 19.4262 16.8892 19.6412C16.5352 19.8562 16.0739 19.7434 15.8589 19.3893L7.3589 5.38934C7.14393 5.03528 7.25669 4.57399 7.61075 4.35902Z" fill="#23294A"/>
</svg>
