<svg width="24" height="24" viewBox="0 0 24 24" fill="none" xmlns="http://www.w3.org/2000/svg">
<path d="M10.9296 3H7.2C5.43269 3 4 4.43269 4 6.2V15.8C4 17.5673 5.43269 19 7.2 19H16.8C18.5673 19 20 17.5673 20 15.8V9.2C20 7.43269 18.5673 6 16.8 6H15.0704C14.4017 6 13.7772 5.6658 13.4063 5.1094L12.5937 3.8906C12.2228 3.3342 11.5983 3 10.9296 3Z" fill="#23294A"/>
<path fill-rule="evenodd" clip-rule="evenodd" d="M14 14.25C14.4142 14.25 14.75 14.5858 14.75 15V16C14.75 16.4142 14.4142 16.75 14 16.75C13.5858 16.75 13.25 16.4142 13.25 16V15C13.25 14.5858 13.5858 14.25 14 14.25Z" fill="#9D9EA5"/>
<path fill-rule="evenodd" clip-rule="evenodd" d="M10 14.25C10.4142 14.25 10.75 14.5858 10.75 15V16C10.75 16.4142 10.4142 16.75 10 16.75C9.58579 16.75 9.25 16.4142 9.25 16V15C9.25 14.5858 9.58579 14.25 10 14.25Z" fill="#9D9EA5"/>
</svg>
