<svg width="24" height="24" viewBox="0 0 24 24" fill="none" xmlns="http://www.w3.org/2000/svg">
<path d="M10.9296 3H7.2C5.43269 3 4 4.43269 4 6.2V15.8C4 17.5673 5.43269 19 7.2 19H16.8C18.5673 19 20 17.5673 20 15.8V9.2C20 7.43269 18.5673 6 16.8 6H15.0704C14.4017 6 13.7772 5.6658 13.4063 5.1094L12.5937 3.8906C12.2228 3.3342 11.5983 3 10.9296 3Z" fill="#23294A"/>
<path fill-rule="evenodd" clip-rule="evenodd" d="M6.75 12C6.75 11.5858 7.08579 11.25 7.5 11.25H12.5C12.9142 11.25 13.25 11.5858 13.25 12C13.25 12.4142 12.9142 12.75 12.5 12.75H7.5C7.08579 12.75 6.75 12.4142 6.75 12Z" fill="#9D9EA5"/>
<path fill-rule="evenodd" clip-rule="evenodd" d="M6.75 15C6.75 14.5858 7.08579 14.25 7.5 14.25H12.5C12.9142 14.25 13.25 14.5858 13.25 15C13.25 15.4142 12.9142 15.75 12.5 15.75H7.5C7.08579 15.75 6.75 15.4142 6.75 15Z" fill="#9D9EA5"/>
</svg>
