<svg width="24" height="24" viewBox="0 0 24 24" fill="none" xmlns="http://www.w3.org/2000/svg">
<path fill-rule="evenodd" clip-rule="evenodd" d="M14 3.25C14.4142 3.25 14.75 3.58579 14.75 4V7.5C14.75 8.4665 15.5335 9.25 16.5 9.25H20C20.4142 9.25 20.75 9.58579 20.75 10C20.75 10.4142 20.4142 10.75 20 10.75H16.5C14.7051 10.75 13.25 9.29493 13.25 7.5V4C13.25 3.58579 13.5858 3.25 14 3.25Z" fill="#9D9EA5"/>
<path fill-rule="evenodd" clip-rule="evenodd" d="M10 3.25C10.4142 3.25 10.75 3.58579 10.75 4V7.5C10.75 9.29493 9.29493 10.75 7.5 10.75H4C3.58579 10.75 3.25 10.4142 3.25 10C3.25 9.58579 3.58579 9.25 4 9.25H7.5C8.4665 9.25 9.25 8.4665 9.25 7.5V4C9.25 3.58579 9.58579 3.25 10 3.25Z" fill="#23294A"/>
<path fill-rule="evenodd" clip-rule="evenodd" d="M13.25 16.5C13.25 14.7051 14.7051 13.25 16.5 13.25H20C20.4142 13.25 20.75 13.5858 20.75 14C20.75 14.4142 20.4142 14.75 20 14.75H16.5C15.5335 14.75 14.75 15.5335 14.75 16.5V20C14.75 20.4142 14.4142 20.75 14 20.75C13.5858 20.75 13.25 20.4142 13.25 20V16.5Z" fill="#23294A"/>
<path fill-rule="evenodd" clip-rule="evenodd" d="M3.25 14C3.25 13.5858 3.58579 13.25 4 13.25H7.5C9.29493 13.25 10.75 14.7051 10.75 16.5V20C10.75 20.4142 10.4142 20.75 10 20.75C9.58579 20.75 9.25 20.4142 9.25 20V16.5C9.25 15.5335 8.4665 14.75 7.5 14.75H4C3.58579 14.75 3.25 14.4142 3.25 14Z" fill="#9D9EA5"/>
</svg>
