<svg width="24" height="24" viewBox="0 0 24 24" fill="none" xmlns="http://www.w3.org/2000/svg">
<path d="M7.7 5H16.3C18.8957 5 21 7.10426 21 9.7V14.3C21 16.8957 18.8957 19 16.3 19H7.7C5.10426 19 3 16.8957 3 14.3V9.7C3 7.10426 5.10426 5 7.7 5Z" fill="#23294A"/>
<path fill-rule="evenodd" clip-rule="evenodd" d="M8 9.25C8.41421 9.25 8.75 9.58579 8.75 10V14C8.75 14.4142 8.41421 14.75 8 14.75C7.58579 14.75 7.25 14.4142 7.25 14V10C7.25 9.58579 7.58579 9.25 8 9.25Z" fill="#9D9EA5"/>
<path fill-rule="evenodd" clip-rule="evenodd" d="M5.25 12C5.25 11.5858 5.58579 11.25 6 11.25H10C10.4142 11.25 10.75 11.5858 10.75 12C10.75 12.4142 10.4142 12.75 10 12.75H6C5.58579 12.75 5.25 12.4142 5.25 12Z" fill="#9D9EA5"/>
<path d="M16 10C16 10.5523 15.5523 11 15 11C14.4477 11 14 10.5523 14 10C14 9.44772 14.4477 9 15 9C15.5523 9 16 9.44772 16 10Z" fill="#9D9EA5"/>
<path d="M18 13C18 13.5523 17.5523 14 17 14C16.4477 14 16 13.5523 16 13C16 12.4477 16.4477 12 17 12C17.5523 12 18 12.4477 18 13Z" fill="#9D9EA5"/>
<path fill-rule="evenodd" clip-rule="evenodd" d="M14.124 2.08405C14.3538 2.4287 14.2607 2.89435 13.916 3.12412L13.6641 3.29207C13.093 3.67279 12.75 4.31373 12.75 5.00008C12.75 5.41429 12.4142 5.75008 12 5.75008C11.5858 5.75008 11.25 5.41429 11.25 5.00008C11.25 3.8122 11.8437 2.70291 12.832 2.04399L13.084 1.87604C13.4286 1.64628 13.8943 1.73941 14.124 2.08405Z" fill="#23294A"/>
</svg>
