<svg width="24" height="24" viewBox="0 0 24 24" fill="none" xmlns="http://www.w3.org/2000/svg">
<path d="M3 16.0455V10.2608C3 7.90764 4.90764 6 7.26084 6C7.41992 6 7.57863 6.01514 7.73484 6.04523L8.97413 6.28391C10.973 6.66888 13.027 6.66888 15.0259 6.28391L16.2652 6.04523C16.4214 6.01514 16.5801 6 16.7392 6C19.0924 6 21 7.90764 21 10.2608V16.0455C21 17.6772 19.6772 19 18.0455 19H17.8306C16.6979 19 15.6513 18.3955 15.0852 17.4144L14.9994 17.2657C14.381 16.1938 13.2375 15.5333 12 15.5333C10.7625 15.5333 9.61898 16.1938 9.00055 17.2657L8.91477 17.4144C8.34874 18.3955 7.30214 19 6.16944 19H5.95455C4.3228 19 3 17.6772 3 16.0455Z" fill="#23294A"/>
<path fill-rule="evenodd" clip-rule="evenodd" d="M7.5 9.25C7.91421 9.25 8.25 9.58579 8.25 10V13C8.25 13.4142 7.91421 13.75 7.5 13.75C7.08579 13.75 6.75 13.4142 6.75 13V10C6.75 9.58579 7.08579 9.25 7.5 9.25Z" fill="#9D9EA5"/>
<path fill-rule="evenodd" clip-rule="evenodd" d="M5.25 11.5C5.25 11.0858 5.58579 10.75 6 10.75H9C9.41421 10.75 9.75 11.0858 9.75 11.5C9.75 11.9142 9.41421 12.25 9 12.25H6C5.58579 12.25 5.25 11.9142 5.25 11.5Z" fill="#9D9EA5"/>
<path d="M16 10C16 10.5523 15.5523 11 15 11C14.4477 11 14 10.5523 14 10C14 9.44772 14.4477 9 15 9C15.5523 9 16 9.44772 16 10Z" fill="#9D9EA5"/>
<path d="M18 13C18 13.5523 17.5523 14 17 14C16.4477 14 16 13.5523 16 13C16 12.4477 16.4477 12 17 12C17.5523 12 18 12.4477 18 13Z" fill="#9D9EA5"/>
</svg>
