<svg width="24" height="24" viewBox="0 0 24 24" fill="none" xmlns="http://www.w3.org/2000/svg">
<path d="M7.82 4H16.18C17.069 4 17.8852 4.4914 18.3011 5.27707L20.2402 8.93989C20.6992 9.80674 20.5844 10.8656 19.9505 11.614L13.8313 18.838C12.8727 19.9697 11.1273 19.9697 10.1687 18.838L4.04955 11.614C3.41559 10.8656 3.30085 9.80675 3.75977 8.93989L5.69891 5.27707C6.11486 4.4914 6.93102 4 7.82 4Z" fill="#23294A"/>
<path fill-rule="evenodd" clip-rule="evenodd" d="M8.01985 11.4239C8.33806 11.1587 8.81098 11.2017 9.07615 11.5199L11.5762 14.5199C11.8413 14.8381 11.7983 15.311 11.4801 15.5762C11.1619 15.8414 10.689 15.7984 10.4238 15.4802L7.92382 12.4802C7.65865 12.1619 7.70164 11.689 8.01985 11.4239Z" fill="#9D9EA5"/>
<path d="M8 10C8 10.5523 7.55228 11 7 11C6.44772 11 6 10.5523 6 10C6 9.44772 6.44772 9 7 9C7.55228 9 8 9.44772 8 10Z" fill="#9D9EA5"/>
</svg>
