<svg width="24" height="24" viewBox="0 0 24 24" fill="none" xmlns="http://www.w3.org/2000/svg">
<path d="M7.82 4H16.18C17.069 4 17.8852 4.4914 18.3011 5.27707L20.2402 8.93989C20.6992 9.80674 20.5844 10.8656 19.9505 11.614L13.8313 18.838C12.8727 19.9697 11.1273 19.9697 10.1687 18.838L4.04955 11.614C3.41559 10.8656 3.30085 9.80675 3.75977 8.93989L5.69891 5.27707C6.11486 4.4914 6.93102 4 7.82 4Z" fill="#23294A"/>
<path fill-rule="evenodd" clip-rule="evenodd" d="M15.9801 11.4239C16.2983 11.689 16.3413 12.1619 16.0762 12.4802L13.5762 15.4802C13.311 15.7984 12.8381 15.8414 12.5198 15.5762C12.2016 15.311 12.1586 14.8381 12.4238 14.5199L14.9238 11.5199C15.189 11.2017 15.6619 11.1587 15.9801 11.4239Z" fill="#9D9EA5"/>
<path d="M18 10C18 10.5523 17.5523 11 17 11C16.4477 11 16 10.5523 16 10C16 9.44772 16.4477 9 17 9C17.5523 9 18 9.44772 18 10Z" fill="#9D9EA5"/>
</svg>
