<svg width="24" height="24" viewBox="0 0 24 24" fill="none" xmlns="http://www.w3.org/2000/svg">
<path d="M19 11V17.7372C19 19.1298 17.2379 19.7344 16.3829 18.6351C15.9022 18.0171 15.0026 17.9264 14.4082 18.4359L13.1714 19.4959C12.4973 20.0737 11.5027 20.0737 10.8286 19.4959L9.59185 18.4359C8.99743 17.9264 8.09778 18.0171 7.61713 18.6351C6.76213 19.7344 5 19.1298 5 17.7372V11C5 7.13401 8.13401 4 12 4C15.866 4 19 7.13401 19 11Z" fill="#23294A"/>
<path d="M14 10C14 11.1046 13.1046 12 12 12C10.8954 12 10 11.1046 10 10C10 8.89543 10.8954 8 12 8C13.1046 8 14 8.89543 14 10Z" fill="#9D9EA5"/>
<path fill-rule="evenodd" clip-rule="evenodd" d="M9.32919 14.6648C9.51443 14.2943 9.96494 14.1441 10.3354 14.3293L10.9938 14.6585C11.6272 14.9752 12.3728 14.9752 13.0062 14.6585L13.6646 14.3293C14.0351 14.1441 14.4856 14.2943 14.6708 14.6648C14.8561 15.0352 14.7059 15.4857 14.3354 15.671L13.6771 16.0002C12.6213 16.528 11.3787 16.528 10.323 16.0002L9.6646 15.671C9.29412 15.4857 9.14395 15.0352 9.32919 14.6648Z" fill="#9D9EA5"/>
</svg>
