<svg width="24" height="24" viewBox="0 0 24 24" fill="none" xmlns="http://www.w3.org/2000/svg">
<g clip-path="url(#clip0_6_12342)">
<path d="M8.02258 3.92652C12.4814 1.72989 17.8768 3.56379 20.0734 8.02263C22.27 12.4815 20.4361 17.8768 15.9773 20.0734C11.5184 22.2701 6.12309 20.4362 3.92646 15.9773C1.72984 11.5185 3.56373 6.12315 8.02258 3.92652Z" fill="#23294A"/>
<path fill-rule="evenodd" clip-rule="evenodd" d="M12 9C10.3431 9 9 10.3431 9 12C9 13.6569 10.3431 15 12 15C13.6569 15 15 13.6569 15 12C15 10.3431 13.6569 9 12 9ZM7 12C7 9.23858 9.23858 7 12 7C14.7614 7 17 9.23858 17 12C17 14.7614 14.7614 17 12 17C9.23858 17 7 14.7614 7 12Z" fill="#9D9EA5"/>
<path d="M4.472 7.92179C4.32154 7.6121 4.34098 7.24678 4.52346 6.9548L4.61926 6.80151C4.64759 6.75619 4.6795 6.71322 4.71469 6.673L5.26613 6.04278L9.04326 13.4406C9.24675 13.8636 9.06876 14.3715 8.64572 14.575C8.22267 14.7785 7.71476 14.6005 7.51127 14.1775L4.472 7.92179Z" fill="#9D9EA5"/>
<path d="M19.4547 7C19.4896 7 19.5219 7.01818 19.5401 7.04796L20.0246 7.84309C20.0274 7.84769 20.0298 7.85251 20.0319 7.85749L20.3741 8.7H12.1155C11.6461 8.7 11.2655 8.31944 11.2655 7.85C11.2655 7.38056 11.6461 7 12.1155 7L19.4547 7Z" fill="#9D9EA5"/>
<path d="M11.9137 20.9781L10.8777 20.8918L9.92809 20.734L14.7215 13.8516C14.9863 13.4639 15.5152 13.3643 15.9028 13.629C16.2905 13.8938 16.3901 14.4227 16.1254 14.8103L11.9137 20.9781Z" fill="#9D9EA5"/>
</g>
<defs>
<clipPath id="clip0_6_12342">
<rect width="24" height="24" fill="white"/>
</clipPath>
</defs>
</svg>
