<svg width="24" height="24" viewBox="0 0 24 24" fill="none" xmlns="http://www.w3.org/2000/svg">
<path d="M8.02259 3.9266C12.4814 1.72997 17.8768 3.56387 20.0734 8.02271C22.27 12.4816 20.4361 17.8769 15.9773 20.0735C11.5184 22.2701 6.12311 20.4363 3.92648 15.9774C1.72985 11.5186 3.56374 6.12323 8.02259 3.9266Z" fill="#23294A"/>
<path fill-rule="evenodd" clip-rule="evenodd" d="M13.8609 8.45924C13.0875 8.05275 12.2022 7.91069 11.3405 8.05476C10.4787 8.19883 9.68777 8.62111 9.08861 9.25706C8.48946 9.89301 8.11501 10.7076 8.02249 11.5765C7.92998 12.4453 8.12449 13.3205 8.57629 14.0684C9.0281 14.8162 9.71235 15.3956 10.5245 15.7179C11.3366 16.0402 12.2319 16.0878 13.0736 15.8532C13.9153 15.6187 14.657 15.1151 15.1855 14.4193C15.7139 13.7235 16 12.8737 16 12C16 11.4477 16.4477 11 17 11C17.5523 11 18 11.4477 18 12C18 13.3106 17.5709 14.5852 16.7782 15.6289C15.9855 16.6726 14.8729 17.4281 13.6104 17.7799C12.3479 18.1316 11.0049 18.0603 9.7867 17.5769C8.56852 17.0934 7.54215 16.2244 6.86444 15.1026C6.18673 13.9808 5.89496 12.668 6.03374 11.3647C6.17251 10.0615 6.73418 8.83951 7.63292 7.88558C8.53165 6.93165 9.71801 6.29824 11.0107 6.08213C12.3034 5.86603 13.6312 6.07913 14.7914 6.68886C15.2802 6.9458 15.4683 7.5504 15.2113 8.03928C14.9544 8.52815 14.3498 8.71618 13.8609 8.45924Z" fill="#9D9EA5"/>
<path fill-rule="evenodd" clip-rule="evenodd" d="M11 12C11 11.4477 11.4477 11 12 11L17 11C17.5523 11 18 11.4477 18 12C18 12.5523 17.5523 13 17 13L12 13C11.4477 13 11 12.5523 11 12Z" fill="#9D9EA5"/>
</svg>
