<svg width="24" height="24" viewBox="0 0 24 24" fill="none" xmlns="http://www.w3.org/2000/svg">
<path d="M3 8C3 5.23858 5.23858 3 8 3H16C18.7614 3 21 5.23858 21 8V16C21 18.7614 18.7614 21 16 21H8C5.23858 21 3 18.7614 3 16V8Z" fill="#23294A"/>
<path fill-rule="evenodd" clip-rule="evenodd" d="M16.6 3L16.6 21L15.4 21L15.4 3L16.6 3Z" fill="#9D9EA5"/>
<path fill-rule="evenodd" clip-rule="evenodd" d="M3 7.39961L21 7.39961V8.59961L3 8.59961V7.39961Z" fill="#9D9EA5"/>
<path fill-rule="evenodd" clip-rule="evenodd" d="M3 11.3996L21 11.3996V12.5996L3 12.5996V11.3996Z" fill="#9D9EA5"/>
<path fill-rule="evenodd" clip-rule="evenodd" d="M3 15.3996L21 15.3996V16.5996H3V15.3996Z" fill="#9D9EA5"/>
<path fill-rule="evenodd" clip-rule="evenodd" d="M12.6 3L12.6 21L11.4 21L11.4 3L12.6 3Z" fill="#9D9EA5"/>
<path fill-rule="evenodd" clip-rule="evenodd" d="M8.6 3L8.6 21L7.4 21L7.4 3L8.6 3Z" fill="#9D9EA5"/>
</svg>
