<svg width="24" height="24" viewBox="0 0 24 24" fill="none" xmlns="http://www.w3.org/2000/svg">
<path fill-rule="evenodd" clip-rule="evenodd" d="M4.5 3.25C4.91421 3.25 5.25 3.58579 5.25 4V20C5.25 20.4142 4.91421 20.75 4.5 20.75C4.08579 20.75 3.75 20.4142 3.75 20V4C3.75 3.58579 4.08579 3.25 4.5 3.25Z" fill="#23294A"/>
<path d="M18.5 7.5V6C18.5 4.89543 17.6046 4 16.5 4H10C8.89543 4 8 4.89543 8 6V7.5C8 8.60457 8.89543 9.5 10 9.5H16.5C17.6046 9.5 18.5 8.60457 18.5 7.5Z" fill="#9D9EA5"/>
<path d="M21 17V15C21 13.8954 20.1046 13 19 13H10C8.89543 13 8 13.8954 8 15V17C8 18.1046 8.89543 19 10 19H19C20.1046 19 21 18.1046 21 17Z" fill="#23294A"/>
</svg>
