<svg width="24" height="24" viewBox="0 0 24 24" fill="none" xmlns="http://www.w3.org/2000/svg">
<path fill-rule="evenodd" clip-rule="evenodd" d="M15.1059 5.57637C14.1083 5.00505 12.9724 4.71998 11.8232 4.7525C10.674 4.78503 9.55602 5.1339 8.59228 5.76073C7.62854 6.38757 6.85637 7.26808 6.36071 8.3054C5.86505 9.34272 5.66511 10.4967 5.78288 11.6403C5.90066 12.7839 6.33158 13.8728 7.02825 14.7874L5.83503 15.6963C4.97116 14.5623 4.43681 13.212 4.29078 11.7939C4.14474 10.3758 4.39266 8.94497 5.00728 7.65869C5.6219 6.37242 6.57939 5.28058 7.77443 4.50331C8.96946 3.72604 10.3557 3.29344 11.7807 3.2531C13.2057 3.21277 14.6143 3.56626 15.8513 4.2747C17.0884 4.98313 18.1061 6.01906 18.7925 7.26851C19.4789 8.51796 19.8074 9.93253 19.7418 11.3566C19.6762 12.7807 19.2191 14.159 18.4208 15.3401L17.178 14.5001C17.8218 13.5476 18.1905 12.436 18.2434 11.2876C18.2963 10.1391 18.0314 8.99836 17.4779 7.99073C16.9243 6.98311 16.1036 6.14769 15.1059 5.57637Z" fill="#23294A"/>
<path d="M8.33753 15.2686L9.19436 16.6266C9.63642 17.3272 9.42682 18.2535 8.72619 18.6956C8.02557 19.1377 7.09924 18.9281 6.65718 18.2274L5.80035 16.8694C5.35829 16.1688 5.56789 15.2425 6.26852 14.8004C6.96914 14.3584 7.89547 14.568 8.33753 15.2686Z" fill="#9D9EA5"/>
<path fill-rule="evenodd" clip-rule="evenodd" d="M14.376 19.084L15.376 17.584L16.6241 18.416L15.6241 19.916C15.3943 20.2607 14.9286 20.3538 14.584 20.124C14.2393 19.8943 14.1462 19.4286 14.376 19.084Z" fill="#23294A"/>
<path d="M15.348 16.411L16.2047 15.053C16.6467 14.3524 17.573 14.1427 18.2737 14.5847C18.9743 15.0267 19.184 15.953 18.742 16.6537L17.8852 18.0117C17.4432 18.7124 16.5169 18.9221 15.8162 18.48C15.1156 18.038 14.9059 17.1117 15.348 16.411Z" fill="#9D9EA5"/>
</svg>
