<svg width="24" height="24" viewBox="0 0 24 24" fill="none" xmlns="http://www.w3.org/2000/svg">
<path d="M21 10.2136C21 13.0266 19.2637 15.1019 17 17.0002C16.1255 17.7335 15.1591 18.4269 14.2086 19.1516C12.9284 20.1278 11.0733 20.1258 9.79369 19.1488C8.83697 18.4184 7.87175 17.7286 7 17.0002C4.72535 15.0996 3 13.0442 3 10.2136C3 5.49998 8.17524 2.53219 11.8579 5.86758C11.9374 5.93963 12.0626 5.93963 12.1421 5.86758C15.8248 2.53219 21 5.49998 21 10.2136Z" fill="#23294A"/>
<path fill-rule="evenodd" clip-rule="evenodd" d="M15.2411 7.74743C15.3808 7.32828 15.8338 7.10175 16.253 7.24147L16.33 7.26712C17.5064 7.65929 18.3 8.76028 18.3 10.0004C18.3 10.4422 17.9418 10.8004 17.5 10.8004C17.0582 10.8004 16.7 10.4422 16.7 10.0004C16.7 9.44897 16.3471 8.9594 15.824 8.78502L15.747 8.75936C15.3279 8.61964 15.1013 8.16658 15.2411 7.74743Z" fill="#9D9EA5"/>
</svg>
