<svg width="24" height="24" viewBox="0 0 24 24" fill="none" xmlns="http://www.w3.org/2000/svg">
<path d="M21 10.2136C21 13.0266 19.2637 15.1019 17 17.0002C16.1255 17.7335 15.1591 18.4269 14.2086 19.1516C12.9284 20.1278 11.0733 20.1258 9.79369 19.1488C8.83697 18.4184 7.87175 17.7286 7 17.0002C4.72535 15.0996 3 13.0442 3 10.2136C3 5.49998 8.17524 2.53219 11.8579 5.86758C11.9374 5.93963 12.0626 5.93963 12.1421 5.86758C15.8248 2.53219 21 5.49998 21 10.2136Z" fill="#9D9EA5"/>
<path d="M11.8579 5.86758C8.17524 2.53219 3 5.49998 3 10.2136C3 11.2334 3.22397 12.1526 3.6169 13.0002C3.91938 13.6527 4.32199 14.2628 4.79963 14.8436C5.42366 15.6025 6.17577 16.3115 7 17.0002C7.36281 17.3033 7.74181 17.5998 8.12965 17.8953L19.6713 6.42556C19.0212 5.63308 18.178 5.04001 17.2465 4.71793C15.628 4.15832 13.7428 4.41684 12.1406 5.86902C12.061 5.94109 11.9374 5.93963 11.8579 5.86758Z" fill="#23294A"/>
</svg>
