<svg width="24" height="24" viewBox="0 0 24 24" fill="none" xmlns="http://www.w3.org/2000/svg">
<path d="M7.2 21.9997H16.8C19.1196 21.9997 21 20.1193 21 17.7997V10.4991C21 9.13031 20.333 7.84741 19.2126 7.06115L14.4126 3.69273C12.9647 2.67664 11.0353 2.67664 9.58741 3.69273L4.78741 7.06115C3.66699 7.8474 3 9.13031 3 10.4991V17.7997C3 20.1193 4.8804 21.9997 7.2 21.9997Z" fill="#23294A"/>
<path fill-rule="evenodd" clip-rule="evenodd" d="M15 19.75C14.5858 19.75 14.25 19.4142 14.25 19L14.25 16.5C14.25 16.0858 14.5858 15.75 15 15.75C15.4142 15.75 15.75 16.0858 15.75 16.5L15.75 19C15.75 19.4142 15.4142 19.75 15 19.75Z" fill="#9D9EA5"/>
<path fill-rule="evenodd" clip-rule="evenodd" d="M9 19.75C8.58579 19.75 8.25 19.4142 8.25 19L8.25 16.5C8.25 16.0858 8.58579 15.75 9 15.75C9.41421 15.75 9.75 16.0858 9.75 16.5L9.75 19C9.75 19.4142 9.41421 19.75 9 19.75Z" fill="#9D9EA5"/>
</svg>
