<svg width="24" height="24" viewBox="0 0 24 24" fill="none" xmlns="http://www.w3.org/2000/svg">
<path d="M7.2 21.9997H16.8C19.1196 21.9997 21 20.1193 21 17.7997V10.4991C21 9.13031 20.333 7.84741 19.2126 7.06115L14.4126 3.69273C12.9647 2.67664 11.0353 2.67664 9.58741 3.69273L4.78741 7.06115C3.66699 7.8474 3 9.13031 3 10.4991V17.7997C3 20.1193 4.8804 21.9997 7.2 21.9997Z" fill="#23294A"/>
<path fill-rule="evenodd" clip-rule="evenodd" d="M8.25 18C8.25 17.5858 8.58579 17.25 9 17.25H15C15.4142 17.25 15.75 17.5858 15.75 18C15.75 18.4142 15.4142 18.75 15 18.75H9C8.58579 18.75 8.25 18.4142 8.25 18Z" fill="#9D9EA5"/>
</svg>
