<svg width="24" height="24" viewBox="0 0 24 24" fill="none" xmlns="http://www.w3.org/2000/svg">
<path d="M7.2 21.9997H16.8C19.1196 21.9997 21 20.1193 21 17.7997V10.4991C21 9.13031 20.333 7.84741 19.2126 7.06115L14.4126 3.69273C12.9647 2.67664 11.0353 2.67664 9.58741 3.69273L4.78741 7.06115C3.66699 7.8474 3 9.13031 3 10.4991V17.7997C3 20.1193 4.8804 21.9997 7.2 21.9997Z" fill="#23294A"/>
<path fill-rule="evenodd" clip-rule="evenodd" d="M12 19.75C11.5858 19.75 11.25 19.4142 11.25 19L11.25 16.5C11.25 16.0858 11.5858 15.75 12 15.75C12.4142 15.75 12.75 16.0858 12.75 16.5L12.75 19C12.75 19.4142 12.4142 19.75 12 19.75Z" fill="#9D9EA5"/>
</svg>
