<svg width="24" height="24" viewBox="0 0 24 24" fill="none" xmlns="http://www.w3.org/2000/svg">
<path d="M6.5 19.9996H17.5C18.6046 19.9996 19.5 19.1042 19.5 17.9996V10.8687C19.5 10.3143 19.2699 9.78483 18.8646 9.40658L13.3646 4.27324C12.5962 3.55606 11.4038 3.55605 10.6354 4.27324L5.13536 9.40657C4.73009 9.78483 4.5 10.3143 4.5 10.8687V17.9996C4.5 19.1042 5.39543 19.9996 6.5 19.9996Z" fill="#23294A"/>
<path d="M14.5 12.5C14.5 13.8807 13.3807 15 12 15C10.6193 15 9.5 13.8807 9.5 12.5C9.5 11.1193 10.6193 10 12 10C13.3807 10 14.5 11.1193 14.5 12.5Z" fill="#9D9EA5"/>
</svg>
