<svg width="24" height="24" viewBox="0 0 24 24" fill="none" xmlns="http://www.w3.org/2000/svg">
<path d="M3 8C3 5.23858 5.23858 3 8 3H16C18.7614 3 21 5.23858 21 8V16C21 18.7614 18.7614 21 16 21H8C5.23858 21 3 18.7614 3 16V8Z" fill="#23294A"/>
<path d="M6.76029 15.1835L5.95627 16.4699C5.53999 17.1359 6.01884 17.9999 6.80427 17.9999H17.6915C18.4142 17.9999 19 17.414 19 16.6913C19 16.4994 18.9578 16.3098 18.8763 16.136L17.5226 13.2479C16.894 11.907 15.0054 11.8565 14.3061 13.1619L13.1844 15.2557C12.6028 16.3414 11.127 16.5353 10.2846 15.6368L9.59985 14.9064C8.79178 14.0444 7.38648 14.1816 6.76029 15.1835Z" fill="#9D9EA5"/>
<path d="M11 8C11 9.10457 10.1046 10 9 10C7.89543 10 7 9.10457 7 8C7 6.89543 7.89543 6 9 6C10.1046 6 11 6.89543 11 8Z" fill="#9D9EA5"/>
</svg>
