<svg width="24" height="24" viewBox="0 0 24 24" fill="none" xmlns="http://www.w3.org/2000/svg">
<path d="M3 8C3 5.23858 5.23858 3 8 3H16C18.7614 3 21 5.23858 21 8V16C21 18.7614 18.7614 21 16 21H8C5.23858 21 3 18.7614 3 16V8Z" fill="#23294A"/>
<path d="M6.65892 13.2714L4.74065 16.1399C4.58375 16.3745 4.5 16.6504 4.5 16.9327C4.5 18.3505 5.64932 19.4998 7.06709 19.4998H15.4459C17.6849 19.4998 19.5 17.6847 19.5 15.4457V12.4674C19.5 12.1638 19.4018 11.8684 19.22 11.6252L18.9144 11.2165C18.0982 10.1248 16.453 10.1515 15.6727 11.2691L13.4906 14.3946C12.6731 15.5654 10.9274 15.5271 10.1621 14.3214L9.51729 13.3055C8.85669 12.2647 7.34418 12.2466 6.65892 13.2714Z" fill="#9D9EA5"/>
<path d="M11 8C11 9.10457 10.1046 10 9 10C7.89543 10 7 9.10457 7 8C7 6.89543 7.89543 6 9 6C10.1046 6 11 6.89543 11 8Z" fill="#9D9EA5"/>
</svg>
