<svg width="24" height="24" viewBox="0 0 24 24" fill="none" xmlns="http://www.w3.org/2000/svg">
<path d="M3 8C3 5.23858 5.23858 3 8 3H16C18.7614 3 21 5.23858 21 8V16C21 18.7614 18.7614 21 16 21H8C5.23858 21 3 18.7614 3 16V8Z" fill="#23294A"/>
<path fill-rule="evenodd" clip-rule="evenodd" d="M21 13.75L3 13.75L3 12.25L21 12.25V13.75Z" fill="#9D9EA5"/>
<path fill-rule="evenodd" clip-rule="evenodd" d="M9 12.25C9.41421 12.25 9.75 12.5858 9.75 13V14.5C9.75 15.4665 10.5335 16.25 11.5 16.25H12.5C13.4665 16.25 14.25 15.4665 14.25 14.5V13C14.25 12.5858 14.5858 12.25 15 12.25C15.4142 12.25 15.75 12.5858 15.75 13V14.5C15.75 16.2949 14.2949 17.75 12.5 17.75H11.5C9.70507 17.75 8.25 16.2949 8.25 14.5V13C8.25 12.5858 8.58579 12.25 9 12.25Z" fill="#9D9EA5"/>
<path fill-rule="evenodd" clip-rule="evenodd" d="M9.25 10C9.25 9.58579 9.58579 9.25 10 9.25H14C14.4142 9.25 14.75 9.58579 14.75 10C14.75 10.4142 14.4142 10.75 14 10.75H10C9.58579 10.75 9.25 10.4142 9.25 10Z" fill="#9D9EA5"/>
<path fill-rule="evenodd" clip-rule="evenodd" d="M10.25 7C10.25 6.58579 10.5858 6.25 11 6.25H13C13.4142 6.25 13.75 6.58579 13.75 7C13.75 7.41421 13.4142 7.75 13 7.75H11C10.5858 7.75 10.25 7.41421 10.25 7Z" fill="#9D9EA5"/>
</svg>
