<svg width="24" height="24" viewBox="0 0 24 24" fill="none" xmlns="http://www.w3.org/2000/svg">
<path d="M9.8836 5.37539C9.27414 6.53145 8.84226 8.21004 8.51109 10.235C8.42331 10.7717 8.37587 11.3138 8.36877 11.8564C8.36678 12.0085 8.48246 12.1353 8.6338 12.1503C10.8725 12.3714 13.1275 12.3714 15.3662 12.1503C15.5175 12.1353 15.6332 12.0084 15.6312 11.8564C15.6241 11.3138 15.5767 10.7717 15.4889 10.235C15.1577 8.21004 14.7259 6.53145 14.1164 5.37539C13.5149 4.23439 12.8299 3.74971 12 3.74971C11.1701 3.74971 10.4851 4.23439 9.8836 5.37539Z" fill="#23294A"/>
<path d="M15.4889 13.7644C15.4989 13.7032 15.448 13.6495 15.3862 13.6554C13.1338 13.8697 10.8662 13.8697 8.61381 13.6554C8.55204 13.6495 8.50108 13.7032 8.51109 13.7644C8.84226 15.7894 9.27414 17.468 9.8836 18.624C10.4851 19.765 11.1701 20.2497 12 20.2497C12.8299 20.2497 13.5149 19.765 14.1164 18.624C14.7259 17.468 15.1577 15.7894 15.4889 13.7644Z" fill="#23294A"/>
<path d="M6.65828 11.897C6.76882 11.9144 6.8685 11.8291 6.87104 11.7172C6.88413 11.1402 6.93738 10.5639 7.03076 9.99289C7.36737 7.93464 7.82905 6.05612 8.55669 4.67587C8.63471 4.52788 8.71678 4.38398 8.80309 4.24499C8.96511 3.98407 8.7111 3.61392 8.42923 3.73588C5.51238 4.99795 3.3954 7.75912 3.04973 11.048C3.03341 11.2032 3.14369 11.3421 3.29789 11.3664L6.65828 11.897Z" fill="#23294A"/>
<path d="M3.08308 13.2277C3.05662 13.0338 3.22703 12.8738 3.42035 12.9043L6.42434 13.3786C6.52457 13.3945 6.62485 13.4099 6.72518 13.4248C6.85977 13.4449 6.96432 13.5523 6.98278 13.6871C6.99738 13.7938 7.01338 13.9002 7.03076 14.0065C7.36737 16.0648 7.82905 17.9433 8.55669 19.3236C8.63471 19.4715 8.71678 19.6154 8.80309 19.7544C8.96511 20.0154 8.7111 20.3855 8.42922 20.2635C5.59442 19.037 3.51512 16.3944 3.08308 13.2277Z" fill="#23294A"/>
<path d="M17.0172 13.6871C17.0357 13.5523 17.1402 13.4449 17.2748 13.4248C17.3751 13.4099 17.4754 13.3945 17.5757 13.3786L20.5796 12.9043C20.773 12.8738 20.9434 13.0338 20.9169 13.2277C20.4849 16.3944 18.4056 19.037 15.5708 20.2635C15.2889 20.3855 15.0349 20.0154 15.1969 19.7544C15.2832 19.6154 15.3653 19.4715 15.4433 19.3236C16.171 17.9433 16.6326 16.0648 16.9692 14.0065C16.9866 13.9002 17.0026 13.7938 17.0172 13.6871Z" fill="#23294A"/>
<path d="M20.9503 11.048C20.9666 11.2032 20.8563 11.3421 20.7021 11.3664L17.3417 11.897C17.2312 11.9144 17.1315 11.8291 17.129 11.7172C17.1159 11.1402 17.0626 10.5639 16.9692 9.99289C16.6326 7.93464 16.171 6.05612 15.4433 4.67587C15.3653 4.52787 15.2832 4.38398 15.1969 4.24498C15.0349 3.98406 15.2889 3.61392 15.5708 3.73588C18.4876 4.99795 20.6046 7.75912 20.9503 11.048Z" fill="#23294A"/>
<path d="M9.8836 5.37568C9.27414 6.53174 8.84226 8.21033 8.5111 10.2353C8.42332 10.772 8.37587 11.3141 8.36877 11.8567C8.36678 12.0087 8.48246 12.1356 8.6338 12.1506C10.8725 12.3717 13.1275 12.3717 15.3662 12.1506C15.5175 12.1356 15.6332 12.0087 15.6312 11.8567C15.6241 11.3141 15.5767 10.772 15.4889 10.2353C15.1577 8.21033 14.7259 6.53174 14.1164 5.37568C13.5149 4.23468 12.8299 3.75 12 3.75C11.1701 3.75 10.4851 4.23468 9.8836 5.37568Z" fill="#9D9EA5"/>
<path d="M15.4889 13.7647C15.4989 13.7035 15.448 13.6498 15.3862 13.6557C13.1338 13.87 10.8662 13.87 8.61381 13.6557C8.55204 13.6498 8.50108 13.7035 8.5111 13.7647C8.84226 15.7897 9.27414 17.4683 9.8836 18.6243C10.4851 19.7653 11.1701 20.25 12 20.25C12.8299 20.25 13.5149 19.7653 14.1164 18.6243C14.7259 17.4683 15.1577 15.7897 15.4889 13.7647Z" fill="#9D9EA5"/>
</svg>
