<svg width="24" height="24" viewBox="0 0 24 24" fill="none" xmlns="http://www.w3.org/2000/svg">
<path d="M8.5 3H15.5C17.433 3 19 4.567 19 6.5V17.5C19 19.433 17.433 21 15.5 21H8.5C6.567 21 5 19.433 5 17.5V6.5C5 4.567 6.567 3 8.5 3Z" fill="#23294A"/>
<path d="M14 17C14 18.1046 13.1046 19 12 19C10.8954 19 10 18.1046 10 17C10 15.8954 10.8954 15 12 15C13.1046 15 14 15.8954 14 17Z" fill="#9D9EA5"/>
<path fill-rule="evenodd" clip-rule="evenodd" d="M11.25 6C11.25 5.58579 11.5858 5.25 12 5.25L15 5.25C15.4142 5.25 15.75 5.58579 15.75 6C15.75 6.41421 15.4142 6.75 15 6.75L12 6.75C11.5858 6.75 11.25 6.41421 11.25 6Z" fill="#9D9EA5"/>
<path d="M10 6C10 6.55228 9.55228 7 9 7C8.44772 7 8 6.55228 8 6C8 5.44772 8.44772 5 9 5C9.55228 5 10 5.44772 10 6Z" fill="#9D9EA5"/>
</svg>
