<svg width="24" height="24" viewBox="0 0 24 24" fill="none" xmlns="http://www.w3.org/2000/svg">
<path d="M3 8C3 5.23858 5.23858 3 8 3H16C18.7614 3 21 5.23858 21 8V16C21 18.7614 18.7614 21 16 21H8C5.23858 21 3 18.7614 3 16V8Z" fill="#23294A"/>
<path d="M10.5 12C10.5 13.1046 9.60457 14 8.5 14C7.39543 14 6.5 13.1046 6.5 12C6.5 10.8954 7.39543 10 8.5 10C9.60457 10 10.5 10.8954 10.5 12Z" fill="#9D9EA5"/>
<path fill-rule="evenodd" clip-rule="evenodd" d="M9.25 12C9.25 11.5858 9.58579 11.25 10 11.25L17 11.25C17.4142 11.25 17.75 11.5858 17.75 12C17.75 12.4142 17.4142 12.75 17 12.75L10 12.75C9.58579 12.75 9.25 12.4142 9.25 12Z" fill="#9D9EA5"/>
<path fill-rule="evenodd" clip-rule="evenodd" d="M17 11.25C17.4142 11.25 17.75 11.5858 17.75 12V14C17.75 14.4142 17.4142 14.75 17 14.75C16.5858 14.75 16.25 14.4142 16.25 14V12C16.25 11.5858 16.5858 11.25 17 11.25Z" fill="#9D9EA5"/>
<path fill-rule="evenodd" clip-rule="evenodd" d="M14 11.25C14.4142 11.25 14.75 11.5858 14.75 12V13C14.75 13.4142 14.4142 13.75 14 13.75C13.5858 13.75 13.25 13.4142 13.25 13V12C13.25 11.5858 13.5858 11.25 14 11.25Z" fill="#9D9EA5"/>
</svg>
