<svg width="24" height="24" viewBox="0 0 24 24" fill="none" xmlns="http://www.w3.org/2000/svg">
<path fill-rule="evenodd" clip-rule="evenodd" d="M8.25 12C8.25 11.5858 8.58579 11.25 9 11.25L20 11.25C20.4142 11.25 20.75 11.5858 20.75 12C20.75 12.4142 20.4142 12.75 20 12.75L9 12.75C8.58579 12.75 8.25 12.4142 8.25 12Z" fill="#23294A"/>
<path fill-rule="evenodd" clip-rule="evenodd" d="M20 11.25C20.4142 11.25 20.75 11.5858 20.75 12V15C20.75 15.4142 20.4142 15.75 20 15.75C19.5858 15.75 19.25 15.4142 19.25 15V12C19.25 11.5858 19.5858 11.25 20 11.25Z" fill="#23294A"/>
<path fill-rule="evenodd" clip-rule="evenodd" d="M15 11.25C15.4142 11.25 15.75 11.5858 15.75 12V14C15.75 14.4142 15.4142 14.75 15 14.75C14.5858 14.75 14.25 14.4142 14.25 14V12C14.25 11.5858 14.5858 11.25 15 11.25Z" fill="#23294A"/>
<path d="M9.25 12.25C9.25 13.7688 8.01878 15 6.5 15C4.98122 15 3.75 13.7688 3.75 12.25C3.75 10.7312 4.98122 9.5 6.5 9.5C8.01878 9.5 9.25 10.7312 9.25 12.25Z" fill="#9D9EA5"/>
</svg>
