<svg width="24" height="24" viewBox="0 0 24 24" fill="none" xmlns="http://www.w3.org/2000/svg">
<path d="M6 7.2V8V16V16.8C6 19.1196 7.8804 21 10.2 21H14.8C17.1196 21 19 19.1196 19 16.8V7.2C19 4.8804 17.1196 3 14.8 3H10.2C7.8804 3 6 4.8804 6 7.2Z" fill="#23294A"/>
<path fill-rule="evenodd" clip-rule="evenodd" d="M2.25 12C2.25 11.5858 2.58579 11.25 3 11.25L11 11.25C11.4142 11.25 11.75 11.5858 11.75 12C11.75 12.4142 11.4142 12.75 11 12.75L3 12.75C2.58579 12.75 2.25 12.4142 2.25 12Z" fill="#9D9EA5"/>
<path fill-rule="evenodd" clip-rule="evenodd" d="M9.46967 9.46967C9.76256 9.17678 10.2374 9.17678 10.5303 9.46967L12.3889 11.3282C12.7599 11.6992 12.7599 12.3008 12.3889 12.6718L10.5303 14.5303C10.2374 14.8232 9.76256 14.8232 9.46967 14.5303C9.17678 14.2374 9.17678 13.7626 9.46967 13.4697L10.9393 12L9.46967 10.5303C9.17678 10.2374 9.17678 9.76256 9.46967 9.46967Z" fill="#9D9EA5"/>
</svg>
