<svg width="24" height="24" viewBox="0 0 24 24" fill="none" xmlns="http://www.w3.org/2000/svg">
<path d="M17 16.8V16V8V7.2C17 4.8804 15.1196 3 12.8 3H8.2C5.8804 3 4 4.88041 4 7.2L4 16.8C4 19.1196 5.8804 21 8.2 21H12.8C15.1196 21 17 19.1196 17 16.8Z" fill="#23294A"/>
<path fill-rule="evenodd" clip-rule="evenodd" d="M11.25 12C11.25 11.5858 11.5858 11.25 12 11.25L20 11.25C20.4142 11.25 20.75 11.5858 20.75 12C20.75 12.4142 20.4142 12.75 20 12.75L12 12.75C11.5858 12.75 11.25 12.4142 11.25 12Z" fill="#9D9EA5"/>
<path fill-rule="evenodd" clip-rule="evenodd" d="M18.4697 9.46967C18.7626 9.17678 19.2374 9.17678 19.5303 9.46967L21.3889 11.3282C21.7599 11.6992 21.7599 12.3008 21.3889 12.6718L19.5303 14.5303C19.2374 14.8232 18.7626 14.8232 18.4697 14.5303C18.1768 14.2374 18.1768 13.7626 18.4697 13.4697L19.9393 12L18.4697 10.5303C18.1768 10.2374 18.1768 9.76256 18.4697 9.46967Z" fill="#9D9EA5"/>
</svg>
