<svg width="24" height="24" viewBox="0 0 24 24" fill="none" xmlns="http://www.w3.org/2000/svg">
<path d="M5.39706 15.7642L11.0155 10.0186C11.8329 9.18268 13.1756 9.17517 14.0023 10.0019C14.8276 10.8272 14.8217 12.167 13.9892 12.985L8.25716 18.6174C7.46632 19.3945 6.19694 19.3889 5.41295 18.6049C4.6303 17.8223 4.62322 16.5556 5.39706 15.7642Z" fill="#9D9EA5"/>
<path fill-rule="evenodd" clip-rule="evenodd" d="M10.8181 3.77257C11.2199 3.67211 11.6271 3.91643 11.7276 4.31828L12.2276 6.31828C12.3281 6.72012 12.0837 7.12732 11.6819 7.22778C11.28 7.32825 10.8728 7.08393 10.7724 6.68208L10.2724 4.68208C10.1719 4.28023 10.4162 3.87303 10.8181 3.77257Z" fill="#23294A"/>
<path fill-rule="evenodd" clip-rule="evenodd" d="M16.0104 4.25526C16.4164 4.33758 16.6787 4.7334 16.5964 5.13935L16.1866 7.15978C16.1043 7.56573 15.7085 7.82808 15.3026 7.74576C14.8966 7.66343 14.6342 7.26761 14.7166 6.86166L15.1263 4.84123C15.2086 4.43528 15.6045 4.17293 16.0104 4.25526Z" fill="#23294A"/>
<path fill-rule="evenodd" clip-rule="evenodd" d="M20.7216 8.79914C20.8326 9.19822 20.599 9.61168 20.1999 9.72262L18.2137 10.2748C17.8146 10.3858 17.4012 10.1522 17.2902 9.75309C17.1793 9.35402 17.4128 8.94056 17.8119 8.82961L19.7981 8.27743C20.1972 8.16648 20.6107 8.40006 20.7216 8.79914Z" fill="#23294A"/>
<path fill-rule="evenodd" clip-rule="evenodd" d="M20.7092 13.1847C20.5987 13.5839 20.1856 13.818 19.7864 13.7075L17.7994 13.1579C17.4002 13.0474 17.1661 12.6343 17.2766 12.235C17.387 11.8358 17.8002 11.6017 18.1994 11.7122L20.1863 12.2618C20.5855 12.3723 20.8196 12.7854 20.7092 13.1847Z" fill="#23294A"/>
</svg>
