<svg width="24" height="24" viewBox="0 0 24 24" fill="none" xmlns="http://www.w3.org/2000/svg">
<path d="M8.5 21H15.5C16.6046 21 17.5 20.1046 17.5 19V12.8284C17.5 12.298 17.2893 11.7893 16.9142 11.4142L15.5858 10.0858C15.2107 9.71071 15 9.20201 15 8.67157V6C15 5.72386 14.7761 5.5 14.5 5.5H9.5C9.22386 5.5 9 5.72386 9 6V8.67157C9 9.20201 8.78929 9.71071 8.41421 10.0858L7.08579 11.4142C6.71071 11.7893 6.5 12.298 6.5 12.8284V19C6.5 20.1046 7.39543 21 8.5 21Z" fill="#23294A"/>
<path d="M9 6H15C15.5523 6 16 5.55228 16 5V4C16 3.44772 15.5523 3 15 3H9C8.44772 3 8 3.44772 8 4V5C8 5.55228 8.44772 6 9 6Z" fill="#9D9EA5"/>
<path d="M12.5446 13.3737L13.0981 13.0416C13.6598 12.7046 14.3548 12.6779 14.9408 12.9708C15.5899 13.2954 16 13.9589 16 14.6847V17.0004C16 18.105 15.1046 19.0004 14 19.0004H10C8.89543 19.0004 8 18.105 8 17.0004V14.2768C8 13.7918 8.24241 13.3388 8.64599 13.0698C9.15776 12.7286 9.82905 12.7472 10.3211 13.1163L10.5254 13.2695C11.1147 13.7115 11.913 13.7527 12.5446 13.3737Z" fill="#9D9EA5"/>
</svg>
