<svg width="24" height="24" viewBox="0 0 24 24" fill="none" xmlns="http://www.w3.org/2000/svg">
<path d="M20.9843 9.35685C20.9947 9.23929 21 9.12027 21 9C21 6.79086 19.2091 5 17 5H7C4.79086 5 3 6.79086 3 9C3 9.12026 3.00531 9.23929 3.0157 9.35685C3.00531 9.46984 3 9.5843 3 9.7V14.3C3 14.4157 3.00531 14.5302 3.0157 14.6431C3.00531 14.7607 3 14.8797 3 15C3 17.2091 4.79086 19 7 19H17C19.2091 19 21 17.2091 21 15C21 14.8797 20.9947 14.7607 20.9843 14.6432C20.9947 14.5302 21 14.4157 21 14.3V9.7C21 9.5843 20.9947 9.46985 20.9843 9.35685Z" fill="#23294A"/>
<path d="M9.5 12C9.5 13.3807 10.6193 14.5 12 14.5C13.3807 14.5 14.5 13.3807 14.5 12C14.5 10.6193 13.3807 9.5 12 9.5C10.6193 9.5 9.5 10.6193 9.5 12Z" fill="#9D9EA5"/>
<path fill-rule="evenodd" clip-rule="evenodd" d="M14.75 8C14.75 7.58579 15.0858 7.25 15.5 7.25L18 7.25C18.4142 7.25 18.75 7.58579 18.75 8C18.75 8.41421 18.4142 8.75 18 8.75H15.5C15.0858 8.75 14.75 8.41421 14.75 8Z" fill="#9D9EA5"/>
<path fill-rule="evenodd" clip-rule="evenodd" d="M5.25 16C5.25 15.5858 5.58579 15.25 6 15.25H8.5C8.91421 15.25 9.25 15.5858 9.25 16C9.25 16.4142 8.91421 16.75 8.5 16.75H6C5.58579 16.75 5.25 16.4142 5.25 16Z" fill="#9D9EA5"/>
</svg>
