<svg width="24" height="24" viewBox="0 0 24 24" fill="none" xmlns="http://www.w3.org/2000/svg">
<path d="M21 12C21 16.9706 16.9706 21 12 21C7.02944 21 3 16.9706 3 12C3 7.02944 7.02944 3 12 3C16.9706 3 21 7.02944 21 12Z" fill="#23294A"/>
<path d="M15.4023 10.0088L9.96637 8.04633C8.77139 7.61491 7.61473 8.77157 8.04615 9.96656L10.0086 15.4024C10.4875 16.7289 12.3662 16.7214 12.8344 15.3911L13.2613 14.1783C13.4122 13.7496 13.7494 13.4124 14.1782 13.2615L15.3909 12.8346C16.7212 12.3663 16.7288 10.4877 15.4023 10.0088Z" fill="#9D9EA5"/>
</svg>
