<svg width="24" height="24" viewBox="0 0 24 24" fill="none" xmlns="http://www.w3.org/2000/svg">
<path fill-rule="evenodd" clip-rule="evenodd" d="M17.2597 4.72132C18.6917 5.2655 19.5 6.7517 19.5 8.49982V16.9998C19.5 19.209 17.7091 20.9998 15.5 20.9998H8.5C6.29086 20.9998 4.5 19.209 4.5 16.9998V8.49982C4.5 6.7517 5.3083 5.2655 6.74029 4.72132C7.40406 4.46908 8 5.07545 8 5.78553C8 6.7323 8.76751 7.49982 9.71429 7.49982H14.2857C15.2325 7.49982 16 6.7323 16 5.78553C16 5.07545 16.5959 4.46908 17.2597 4.72132ZM7.25 16.4998C7.25 16.0856 7.58579 15.7498 8 15.7498H13C13.4142 15.7498 13.75 16.0856 13.75 16.4998C13.75 16.914 13.4142 17.2498 13 17.2498H8C7.58579 17.2498 7.25 16.914 7.25 16.4998ZM8 12.7498C7.58579 12.7498 7.25 13.0856 7.25 13.4998C7.25 13.914 7.58579 14.2498 8 14.2498H11.5C11.9142 14.2498 12.25 13.914 12.25 13.4998C12.25 13.0856 11.9142 12.7498 11.5 12.7498H8Z" fill="#23294A"/>
<path d="M15 4.3V5.2C15 5.91797 14.418 6.5 13.7 6.5H10.3C9.58203 6.5 9 5.91797 9 5.2V4.3C9 3.58203 9.58203 3 10.3 3H13.7C14.418 3 15 3.58203 15 4.3Z" fill="#9D9EA5"/>
<path fill-rule="evenodd" clip-rule="evenodd" d="M7.25 16.5C7.25 16.0858 7.58579 15.75 8 15.75H13C13.4142 15.75 13.75 16.0858 13.75 16.5C13.75 16.9142 13.4142 17.25 13 17.25H8C7.58579 17.25 7.25 16.9142 7.25 16.5Z" fill="#9D9EA5"/>
<path fill-rule="evenodd" clip-rule="evenodd" d="M7.25 13.5C7.25 13.0858 7.58579 12.75 8 12.75H11.5C11.9142 12.75 12.25 13.0858 12.25 13.5C12.25 13.9142 11.9142 14.25 11.5 14.25H8C7.58579 14.25 7.25 13.9142 7.25 13.5Z" fill="#9D9EA5"/>
</svg>
