<svg width="24" height="24" viewBox="0 0 24 24" fill="none" xmlns="http://www.w3.org/2000/svg">
<path fill-rule="evenodd" clip-rule="evenodd" d="M8.75 4.15098C8.75 4.0676 8.6824 4 8.59902 4H8.5C5.97527 4 4 6.0467 4 8.57143L4.00007 8.59767L4 8.59902V15.401L4.00007 15.4023L4 15.4286C4 17.9533 6.0467 20 8.57143 20L8.59767 19.9999L8.59902 20H15.401L15.4023 19.9999L15.4286 20C17.9533 20 20 17.9533 20 15.4286L19.9999 15.4023L20 15.401V8.59902L19.9999 8.59767L20 8.57143C20 6.0467 18.0247 4 15.5 4L15.4023 4.00007C15.3189 4.00007 15.25 4.0676 15.25 4.15098V6C15.25 6.41421 14.9142 6.75 14.5 6.75C14.0858 6.75 13.75 6.41421 13.75 6V4.3C13.75 4.13431 13.6157 4 13.45 4H10.55C10.3843 4 10.25 4.13431 10.25 4.3V6C10.25 6.41421 9.91421 6.75 9.5 6.75C9.08579 6.75 8.75 6.41421 8.75 6V4.15098ZM7.25 12C7.25 11.5858 7.58579 11.25 8 11.25H11C11.4142 11.25 11.75 11.5858 11.75 12C11.75 12.4142 11.4142 12.75 11 12.75H8C7.58579 12.75 7.25 12.4142 7.25 12ZM8 14.25C7.58579 14.25 7.25 14.5858 7.25 15C7.25 15.4142 7.58579 15.75 8 15.75H13C13.4142 15.75 13.75 15.4142 13.75 15C13.75 14.5858 13.4142 14.25 13 14.25H8Z" fill="#23294A"/>
<path fill-rule="evenodd" clip-rule="evenodd" d="M7.25 12C7.25 11.5858 7.58579 11.25 8 11.25H11C11.4142 11.25 11.75 11.5858 11.75 12C11.75 12.4142 11.4142 12.75 11 12.75H8C7.58579 12.75 7.25 12.4142 7.25 12Z" fill="#9D9EA5"/>
<path fill-rule="evenodd" clip-rule="evenodd" d="M7.25 15C7.25 14.5858 7.58579 14.25 8 14.25L13 14.25C13.4142 14.25 13.75 14.5858 13.75 15C13.75 15.4142 13.4142 15.75 13 15.75L8 15.75C7.58579 15.75 7.25 15.4142 7.25 15Z" fill="#9D9EA5"/>
</svg>
