<svg width="24" height="24" viewBox="0 0 24 24" fill="none" xmlns="http://www.w3.org/2000/svg">
<path d="M12 3C15.9559 3 17.9223 6.05422 17.9223 8.58824V11.1512C17.9223 11.562 18.0323 11.9653 18.2409 12.3191L18.5115 12.7782C19.6117 14.6447 18.266 17 16.0993 17H7.82556C5.67551 17 4.3277 14.6772 5.39464 12.8105L5.68129 12.309C5.87996 11.9614 5.98446 11.568 5.98446 11.1677V8.58824C5.98446 6.05422 8.04416 3 12 3Z" fill="#23294A"/>
<path fill-rule="evenodd" clip-rule="evenodd" d="M9.25 19.5C9.25 19.0858 9.58579 18.75 10 18.75H14C14.4142 18.75 14.75 19.0858 14.75 19.5C14.75 19.9142 14.4142 20.25 14 20.25H10C9.58579 20.25 9.25 19.9142 9.25 19.5Z" fill="#9D9EA5"/>
</svg>
