<svg width="24" height="24" viewBox="0 0 24 24" fill="none" xmlns="http://www.w3.org/2000/svg">
<path d="M11.9999 3C15.9558 3 17.9222 6.05422 17.9222 8.58824V11.1512C17.9222 11.562 18.0322 11.9653 18.2408 12.3191L18.5114 12.7782C19.6116 14.6447 18.266 17 16.0993 17H7.8255C5.67545 17 4.32764 14.6772 5.39458 12.8105L5.68123 12.309C5.8799 11.9614 5.9844 11.568 5.9844 11.1677V8.58824C5.9844 6.05422 8.0441 3 11.9999 3Z" fill="#23294A"/>
<path fill-rule="evenodd" clip-rule="evenodd" d="M9.25 19.5C9.25 19.0858 9.58579 18.75 10 18.75H14C14.4142 18.75 14.75 19.0858 14.75 19.5C14.75 19.9142 14.4142 20.25 14 20.25H10C9.58579 20.25 9.25 19.9142 9.25 19.5Z" fill="#9D9EA5"/>
<path fill-rule="evenodd" clip-rule="evenodd" d="M12 5.25C12.4142 5.25 12.75 5.58579 12.75 6V8C12.75 8.41421 12.4142 8.75 12 8.75C11.5858 8.75 11.25 8.41421 11.25 8V6C11.25 5.58579 11.5858 5.25 12 5.25Z" fill="#9D9EA5"/>
</svg>
