<svg width="24" height="24" viewBox="0 0 24 24" fill="none" xmlns="http://www.w3.org/2000/svg">
<path d="M12 3C15.9559 3 17.9223 6.05422 17.9223 8.58824V11.1512C17.9223 11.562 18.0323 11.9653 18.2409 12.3191L18.5115 12.7782C19.6117 14.6447 18.266 17 16.0993 17H7.82556C5.67551 17 4.3277 14.6772 5.39464 12.8105L5.68129 12.309C5.87996 11.9614 5.98446 11.568 5.98446 11.1677V8.58824C5.98446 6.05422 8.04416 3 12 3Z" fill="#23294A"/>
<path fill-rule="evenodd" clip-rule="evenodd" d="M9.32919 18.6648C9.51443 18.2943 9.96494 18.1441 10.3354 18.3293C11.3833 18.8533 12.6167 18.8533 13.6646 18.3293C14.0351 18.1441 14.4856 18.2943 14.6708 18.6648C14.8561 19.0352 14.7059 19.4857 14.3354 19.671C12.8652 20.4061 11.1348 20.4061 9.6646 19.671C9.29412 19.4857 9.14395 19.0352 9.32919 18.6648Z" fill="#9D9EA5"/>
</svg>
