<svg width="24" height="24" viewBox="0 0 24 24" fill="none" xmlns="http://www.w3.org/2000/svg">
<path d="M4.64769 15.2372L14.8882 4.99669C16.0088 3.8761 17.8256 3.8761 18.9462 4.99669C20.0668 6.11727 20.0668 7.9341 18.9462 9.05469L8.70569 19.2952C8.54035 19.4605 8.32557 19.5674 8.09397 19.5996L4.78621 20.0592C4.26049 20.1322 3.81069 19.6824 3.88373 19.1567L4.3433 15.8489C4.37548 15.6173 4.48235 15.4025 4.64769 15.2372Z" fill="#23294A"/>
<path fill-rule="evenodd" clip-rule="evenodd" d="M14.4697 9.53033C14.1768 9.23744 14.1768 8.76256 14.4697 8.46967L15.4697 7.46967C15.7626 7.17678 16.2374 7.17678 16.5303 7.46967C16.8232 7.76256 16.8232 8.23744 16.5303 8.53033L15.5303 9.53033C15.2374 9.82322 14.7626 9.82322 14.4697 9.53033Z" fill="#9D9EA5"/>
</svg>
