<svg width="24" height="24" viewBox="0 0 24 24" fill="none" xmlns="http://www.w3.org/2000/svg">
<path d="M5.35189 14.6304L15.1351 5.02835C16.216 3.96745 17.9523 3.98367 19.0132 5.06458C20.0741 6.1455 20.0579 7.88179 18.9769 8.94269L9.19377 18.5448C9.03462 18.701 8.82858 18.8006 8.60731 18.8284L5.50076 19.2184C4.97664 19.2843 4.53375 18.833 4.60933 18.3102L5.05734 15.2115C5.08925 14.9908 5.19273 14.7866 5.35189 14.6304Z" fill="#23294A"/>
<path d="M15.135 5.02835C16.216 3.96745 17.9522 3.98367 19.0132 5.06458C20.0741 6.1455 20.0578 7.88179 18.9769 8.94269L17.39 10.5002L13.5 6.63313L15.135 5.02835Z" fill="#9D9EA5"/>
</svg>
