<svg width="24" height="24" viewBox="0 0 24 24" fill="none" xmlns="http://www.w3.org/2000/svg">
<g clip-path="url(#clip0_6_12377)">
<path fill-rule="evenodd" clip-rule="evenodd" d="M6.5519 3.55034C6.8688 3.81706 6.90948 4.29019 6.64275 4.6071C4.06439 7.67052 4.45761 12.2441 7.52103 14.8225C10.5845 17.4008 15.158 17.0076 17.7364 13.9442C18.0031 13.6273 18.4762 13.5866 18.7932 13.8533C19.1101 14.1201 19.1507 14.5932 18.884 14.9101C15.7722 18.6073 10.2524 19.0819 6.55513 15.9701C2.85789 12.8583 2.38332 7.33843 5.49514 3.64119C5.76186 3.32429 6.23499 3.28361 6.5519 3.55034Z" fill="#23294A"/>
<path d="M17 9C17 11.7614 14.7614 14 12 14C9.23858 14 7 11.7614 7 9C7 6.23858 9.23858 4 12 4C14.7614 4 17 6.23858 17 9Z" fill="#9D9EA5"/>
<path fill-rule="evenodd" clip-rule="evenodd" d="M12 16.75C12.4142 16.75 12.75 17.0858 12.75 17.5V20C12.75 20.4142 12.4142 20.75 12 20.75C11.5858 20.75 11.25 20.4142 11.25 20V17.5C11.25 17.0858 11.5858 16.75 12 16.75Z" fill="#23294A"/>
<path fill-rule="evenodd" clip-rule="evenodd" d="M8.25 20C8.25 19.5858 8.58579 19.25 9 19.25H15C15.4142 19.25 15.75 19.5858 15.75 20C15.75 20.4142 15.4142 20.75 15 20.75H9C8.58579 20.75 8.25 20.4142 8.25 20Z" fill="#23294A"/>
</g>
<defs>
<clipPath id="clip0_6_12377">
<rect width="24" height="24" fill="white"/>
</clipPath>
</defs>
</svg>
