<svg width="24" height="24" viewBox="0 0 24 24" fill="none" xmlns="http://www.w3.org/2000/svg">
<path fill-rule="evenodd" clip-rule="evenodd" d="M7.58059 6.51947C7.87348 6.81237 7.87348 7.28724 7.58059 7.58013C6.70651 8.45421 6.11125 9.56786 5.8701 10.7802C5.62894 11.9926 5.75271 13.2493 6.22576 14.3913C6.6988 15.5334 7.49988 16.5095 8.52769 17.1962C9.5555 17.883 10.7639 18.2496 12 18.2496C13.2361 18.2496 14.4445 17.883 15.4723 17.1962C16.5001 16.5095 17.3012 15.5334 17.7743 14.3913C18.2473 13.2493 18.3711 11.9926 18.1299 10.7802C17.8888 9.56786 17.2935 8.45421 16.4194 7.58014C16.1265 7.28724 16.1265 6.81237 16.4194 6.51948C16.7123 6.22658 17.1872 6.22658 17.4801 6.51948C18.5639 7.60333 19.3021 8.98425 19.6011 10.4876C19.9001 11.991 19.7466 13.5492 19.1601 14.9654C18.5735 16.3815 17.5802 17.5919 16.3057 18.4434C15.0312 19.295 13.5328 19.7496 12 19.7496C10.4672 19.7496 8.96881 19.295 7.69433 18.4434C6.41985 17.5919 5.42652 16.3815 4.83994 14.9653C4.25336 13.5492 4.09988 11.991 4.39892 10.4876C4.69795 8.98425 5.43607 7.60333 6.51993 6.51947C6.81282 6.22658 7.28769 6.22658 7.58059 6.51947Z" fill="#23294A"/>
<path fill-rule="evenodd" clip-rule="evenodd" d="M12 4.25C12.4142 4.25 12.75 4.58579 12.75 5V12C12.75 12.4142 12.4142 12.75 12 12.75C11.5858 12.75 11.25 12.4142 11.25 12V5C11.25 4.58579 11.5858 4.25 12 4.25Z" fill="#9D9EA5"/>
</svg>
