<svg width="24" height="24" viewBox="0 0 24 24" fill="none" xmlns="http://www.w3.org/2000/svg">
<path d="M6.8 7H17.2C19.2987 7 21 8.70132 21 10.8V15.2C21 17.2987 19.2987 19 17.2 19H6.8C4.70132 19 3 17.2987 3 15.2V10.8C3 8.70132 4.70132 7 6.8 7Z" fill="#23294A"/>
<path d="M10 13C10 14.1046 9.10457 15 8 15C6.89543 15 6 14.1046 6 13C6 11.8954 6.89543 11 8 11C9.10457 11 10 11.8954 10 13Z" fill="#9D9EA5"/>
<path fill-rule="evenodd" clip-rule="evenodd" d="M14.25 10C14.25 9.58579 14.5858 9.25 15 9.25H17C17.4142 9.25 17.75 9.58579 17.75 10C17.75 10.4142 17.4142 10.75 17 10.75H15C14.5858 10.75 14.25 10.4142 14.25 10Z" fill="#9D9EA5"/>
<path fill-rule="evenodd" clip-rule="evenodd" d="M14.25 13C14.25 12.5858 14.5858 12.25 15 12.25H17C17.4142 12.25 17.75 12.5858 17.75 13C17.75 13.4142 17.4142 13.75 17 13.75H15C14.5858 13.75 14.25 13.4142 14.25 13Z" fill="#9D9EA5"/>
<path fill-rule="evenodd" clip-rule="evenodd" d="M14.25 16C14.25 15.5858 14.5858 15.25 15 15.25H17C17.4142 15.25 17.75 15.5858 17.75 16C17.75 16.4142 17.4142 16.75 17 16.75H15C14.5858 16.75 14.25 16.4142 14.25 16Z" fill="#9D9EA5"/>
<path fill-rule="evenodd" clip-rule="evenodd" d="M16.0303 2.96967C16.3232 3.26256 16.3232 3.73744 16.0303 4.03033L12.0303 8.03033C11.7374 8.32322 11.2626 8.32322 10.9697 8.03033C10.6768 7.73744 10.6768 7.26256 10.9697 6.96967L14.9697 2.96967C15.2626 2.67678 15.7374 2.67678 16.0303 2.96967Z" fill="#23294A"/>
</svg>
