<svg width="24" height="24" viewBox="0 0 24 24" fill="none" xmlns="http://www.w3.org/2000/svg">
<path d="M13.763 9.21112L16.6923 13.4064C17.892 15.1245 17.7121 17.4506 16.2626 18.9639C14.5832 20.7172 11.8004 20.7772 10.0471 19.0978C8.53373 17.6483 8.2539 15.3321 9.37847 13.5639L12.1244 9.24641C12.5016 8.65336 13.3607 8.63485 13.763 9.21112Z" fill="#23294A"/>
<path d="M18.1551 4.52388L19.4217 6.33799C19.9405 7.08095 19.8627 8.08679 19.2359 8.74118C18.5097 9.49936 17.3064 9.52528 16.5482 8.79907C15.8938 8.17228 15.7728 7.17072 16.2591 6.40611L17.4465 4.53914C17.6096 4.28269 17.9811 4.27469 18.1551 4.52388Z" fill="#23294A"/>
<path d="M6.52995 3.82611L8.52677 6.68594C9.34457 7.85718 9.22197 9.44283 8.23386 10.4744C7.08903 11.6697 5.19204 11.7105 3.99681 10.5657C2.9652 9.57759 2.77444 7.99869 3.54105 6.79333L5.41289 3.85017C5.67 3.44589 6.25566 3.43327 6.52995 3.82611Z" fill="#9D9EA5"/>
</svg>
