<svg width="24" height="24" viewBox="0 0 24 24" fill="none" xmlns="http://www.w3.org/2000/svg">
<path fill-rule="evenodd" clip-rule="evenodd" d="M16.4547 4.93346L19.6129 8.09163C20.2973 8.77599 20.318 9.87899 19.6598 10.5886L14.1627 16.5147C14.0085 16.6809 13.747 16.6858 13.5866 16.5255L8.23472 11.1736C8.07851 11.0174 8.07851 10.7641 8.23472 10.6079L13.9092 4.93346C14.6121 4.23051 15.7518 4.23051 16.4547 4.93346ZM16.0303 6.9692C15.7374 6.67631 15.2626 6.67631 14.9697 6.9692C14.6768 7.2621 14.6768 7.73697 14.9697 8.02986L15.9697 9.02986C16.2626 9.32276 16.7374 9.32276 17.0303 9.02986C17.3232 8.73697 17.3232 8.2621 17.0303 7.9692L16.0303 6.9692Z" fill="#23294A"/>
<path d="M6.60838 12.2342C6.76459 12.078 7.01785 12.078 7.17406 12.2342L12.587 17.6472C12.7391 17.7993 12.7437 18.0444 12.5974 18.2021L11.5936 19.2843C11.2151 19.6923 10.6838 19.9241 10.1273 19.9241L7.8876 19.9241C7.32248 19.9241 6.78375 19.6851 6.40459 19.266L4.31002 16.9512C3.66644 16.2399 3.69368 15.1489 4.37194 14.4707L6.60838 12.2342Z" fill="#23294A"/>
<path fill-rule="evenodd" clip-rule="evenodd" d="M16.0303 6.96967C15.7374 6.67678 15.2626 6.67678 14.9697 6.96967C14.6768 7.26256 14.6768 7.73744 14.9697 8.03033L15.9697 9.03033C16.2626 9.32322 16.7374 9.32322 17.0303 9.03033C17.3232 8.73744 17.3232 8.26256 17.0303 7.96967L16.0303 6.96967Z" fill="#9D9EA5"/>
<path d="M6.60838 12.2347C6.76459 12.0785 7.01785 12.0785 7.17406 12.2347L12.587 17.6477C12.7391 17.7998 12.7437 18.0449 12.5974 18.2025L11.5936 19.2847C11.2151 19.6927 10.6838 19.9246 10.1273 19.9246L7.8876 19.9246C7.32248 19.9246 6.78375 19.6855 6.40459 19.2665L4.31002 16.9516C3.66644 16.2404 3.69368 15.1494 4.37194 14.4712L6.60838 12.2347Z" fill="#9D9EA5"/>
</svg>
