<svg width="24" height="24" viewBox="0 0 24 24" fill="none" xmlns="http://www.w3.org/2000/svg">
<path d="M21 12C21 16.9706 16.9706 21 12 21C7.02944 21 3 16.9706 3 12C3 7.02944 7.02944 3 12 3C16.9706 3 21 7.02944 21 12Z" fill="#23294A"/>
<path fill-rule="evenodd" clip-rule="evenodd" d="M14.9429 17.1691C15.22 17.4766 15.694 17.5014 16.0017 17.2245C16.3096 16.9474 16.3346 16.4731 16.0575 16.1653L15.5 16.667C16.0575 16.1653 16.0576 16.1655 16.0575 16.1653L16.0559 16.1635L16.0537 16.1611L16.0478 16.1546L16.0291 16.1346C16.0138 16.1183 15.9926 16.0961 15.9658 16.0689C15.9122 16.0145 15.8359 15.9398 15.7389 15.8516C15.5455 15.6758 15.266 15.4429 14.916 15.2096C14.2258 14.7495 13.2051 14.2503 12 14.2503C10.7949 14.2503 9.77414 14.7495 9.08397 15.2096C8.73401 15.4429 8.4545 15.6758 8.26111 15.8516C8.16408 15.9398 8.0878 16.0145 8.03422 16.0689C8.00741 16.0961 7.9862 16.1183 7.97086 16.1346L7.95223 16.1546L7.94625 16.1611L7.94411 16.1635L7.94324 16.1645C7.94307 16.1647 7.94252 16.1653 8.49999 16.667L7.94252 16.1653C7.66543 16.4731 7.69039 16.9474 7.99827 17.2245C8.30604 17.5014 8.78002 17.4766 9.05716 17.1691L9.05648 17.1698C9.05632 17.17 9.05595 17.1704 9.05648 17.1698L9.0638 17.162C9.0714 17.1539 9.08438 17.1402 9.10248 17.1219C9.13875 17.0851 9.19528 17.0296 9.27012 16.9615C9.42048 16.8248 9.64098 16.6411 9.91602 16.4577C10.4758 16.0845 11.2051 15.7503 12 15.7503C12.7949 15.7503 13.5241 16.0845 14.084 16.4577C14.359 16.6411 14.5795 16.8248 14.7299 16.9615C14.8047 17.0296 14.8612 17.0851 14.8975 17.1219C14.9156 17.1402 14.9286 17.1539 14.9362 17.162L14.9429 17.1691Z" fill="#9D9EA5"/>
<path d="M16 10C16 10.5523 15.5523 11 15 11C14.4477 11 14 10.5523 14 10C14 9.44772 14.4477 9 15 9C15.5523 9 16 9.44772 16 10Z" fill="#9D9EA5"/>
<path d="M10 10C10 10.5523 9.55228 11 9 11C8.44772 11 8 10.5523 8 10C8 9.44772 8.44772 9 9 9C9.55228 9 10 9.44772 10 10Z" fill="#9D9EA5"/>
</svg>
