<svg width="24" height="24" viewBox="0 0 24 24" fill="none" xmlns="http://www.w3.org/2000/svg">
<path d="M17.9577 6.24989L13.5323 3.83605C12.5772 3.31507 11.4228 3.31507 10.4677 3.83605L6.0423 6.24989C5.39977 6.60036 5 7.27379 5 8.00568V12.7515C5 15.168 6.24631 17.4135 8.29694 18.6918C10.5635 20.1047 13.4365 20.1047 15.7031 18.6918C17.7537 17.4135 19 15.168 19 12.7515V8.00568C19 7.27379 18.6002 6.60036 17.9577 6.24989Z" fill="#23294A"/>
<path d="M12.75 12.459C12.75 12.4153 12.7785 12.3768 12.8197 12.3625C13.7978 12.0232 14.5 11.0936 14.5 10C14.5 8.61929 13.3807 7.5 12 7.5C10.6193 7.5 9.5 8.61929 9.5 10C9.5 11.0936 10.2022 12.0232 11.1803 12.3625C11.2215 12.3768 11.25 12.4153 11.25 12.459V16C11.25 16.4142 11.5858 16.75 12 16.75C12.4142 16.75 12.75 16.4142 12.75 16V12.459Z" fill="#9D9EA5"/>
</svg>
