<svg width="24" height="24" viewBox="0 0 24 24" fill="none" xmlns="http://www.w3.org/2000/svg">
<path d="M7.94029 5.47035L17.2434 10.1219C18.7912 10.8958 18.7912 13.1046 17.2434 13.8785L7.9403 18.5301C6.21317 19.3936 4.3342 17.6647 5.05135 15.8718L6.3326 12.6687C6.50426 12.2396 6.50425 11.7608 6.3326 11.3317L5.05135 8.12856C4.3342 6.33569 6.21317 4.60678 7.94029 5.47035Z" fill="#23294A"/>
<path fill-rule="evenodd" clip-rule="evenodd" d="M6.25 12C6.25 11.5858 6.58579 11.25 7 11.25H13C13.4142 11.25 13.75 11.5858 13.75 12C13.75 12.4142 13.4142 12.75 13 12.75H7C6.58579 12.75 6.25 12.4142 6.25 12Z" fill="#9D9EA5"/>
</svg>
