<svg width="24" height="24" viewBox="0 0 24 24" fill="none" xmlns="http://www.w3.org/2000/svg">
<path d="M6.23997 7.9816L16.1074 4.69245C17.7491 4.14522 19.311 5.70707 18.7637 7.34876L15.4746 17.2162C14.864 19.0481 12.3128 19.1542 11.5521 17.3794L10.1932 14.2084C10.0111 13.7836 9.67259 13.4451 9.24776 13.263L6.07683 11.904C4.30197 11.1434 4.40808 8.59223 6.23997 7.9816Z" fill="#23294A"/>
<path fill-rule="evenodd" clip-rule="evenodd" d="M9.56398 13.7003C9.27108 13.4074 9.27108 12.9325 9.56398 12.6396L13.8066 8.39695C14.0995 8.10406 14.5744 8.10406 14.8673 8.39695C15.1602 8.68984 15.1602 9.16472 14.8673 9.45761L10.6246 13.7003C10.3317 13.9931 9.85687 13.9931 9.56398 13.7003Z" fill="#9D9EA5"/>
</svg>
