<svg width="24" height="24" viewBox="0 0 24 24" fill="none" xmlns="http://www.w3.org/2000/svg">
<path d="M10.5681 4.8802C11.2885 3.93446 12.7115 3.93447 13.4319 4.8802L14.0999 5.75715C14.4489 6.21532 14.996 6.47882 15.5718 6.46601L16.674 6.44149C17.8625 6.41504 18.7498 7.52765 18.4595 8.68052L18.1904 9.74954C18.0498 10.3081 18.1849 10.9001 18.5539 11.3423L19.2602 12.1887C20.022 13.1015 19.7053 14.4889 18.623 14.9807L17.6194 15.4368C17.095 15.6751 16.7164 16.1499 16.6007 16.7141L16.3794 17.7941C16.1407 18.9587 14.8586 19.5761 13.7992 19.0366L12.8169 18.5363C12.3036 18.275 11.6963 18.275 11.1831 18.5363L10.2008 19.0366C9.14142 19.5761 7.85927 18.9587 7.62058 17.7941L7.39924 16.7141C7.28361 16.1499 6.90496 15.6751 6.38062 15.4368L5.37701 14.9807C4.29469 14.4889 3.97803 13.1015 4.73975 12.1887L5.44608 11.3423C5.8151 10.9001 5.95024 10.3081 5.80962 9.74954L5.54047 8.68051C5.25021 7.52765 6.13749 6.41504 7.32604 6.44149L8.42815 6.46601C9.00395 6.47882 9.55111 6.21532 9.9001 5.75715L10.5681 4.8802Z" fill="#23294A"/>
<path d="M14.5 12C14.5 13.3807 13.3807 14.5 12 14.5C10.6193 14.5 9.5 13.3807 9.5 12C9.5 10.6193 10.6193 9.5 12 9.5C13.3807 9.5 14.5 10.6193 14.5 12Z" fill="#9D9EA5"/>
</svg>
