<svg width="24" height="24" viewBox="0 0 24 24" fill="none" xmlns="http://www.w3.org/2000/svg">
<path d="M14.1855 5.4843C14.0795 4.63634 13.3587 4 12.5041 4H11.4958C10.6413 4 9.92044 4.63634 9.81444 5.4843L9.7884 5.69261C9.7291 6.16701 9.41162 6.56435 8.99788 6.80391C8.58371 7.04372 8.08472 7.11734 7.64377 6.93131L7.45001 6.84956C6.66256 6.51733 5.75095 6.82346 5.32362 7.56362L4.82025 8.43548C4.39257 9.17624 4.58342 10.1195 5.2654 10.6358L5.43265 10.7624C5.8139 11.051 5.99998 11.5218 5.99998 12C5.99998 12.4783 5.81386 12.9492 5.43254 13.2379L5.26547 13.3644C4.58354 13.8806 4.39271 14.8238 4.82035 15.5645L5.32379 16.4365C5.75112 17.1766 6.66271 17.4827 7.45015 17.1505L7.64396 17.0687C8.08486 16.8827 8.5838 16.9563 8.99793 17.1961C9.41164 17.4357 9.7291 17.833 9.7884 18.3073L9.81444 18.5157C9.92044 19.3637 10.6413 20 11.4958 20H12.5041C13.3587 20 14.0795 19.3637 14.1855 18.5157L14.2116 18.3073C14.2709 17.8329 14.5883 17.4357 15.002 17.1961C15.4161 16.9564 15.915 16.8828 16.3558 17.0688L16.5497 17.1506C17.3371 17.4828 18.2487 17.1767 18.676 16.4365L19.1795 15.5645C19.6071 14.8238 19.4163 13.8807 18.7344 13.3645L18.5675 13.2381C18.1861 12.9494 18 12.4783 18 12C18 11.5218 18.1861 11.0508 18.5674 10.7621L18.7345 10.6356C19.4165 10.1194 19.6073 9.1762 19.1796 8.43549L18.6762 7.56354C18.2489 6.82338 17.3373 6.51726 16.5498 6.84948L16.356 6.93126C15.9151 7.11727 15.4162 7.04366 15.002 6.80388C14.5883 6.56434 14.2709 6.16703 14.2116 5.69267L14.1855 5.4843Z" fill="#23294A"/>
<path d="M14.5 12C14.5 13.3807 13.3807 14.5 12 14.5C10.6193 14.5 9.5 13.3807 9.5 12C9.5 10.6193 10.6193 9.5 12 9.5C13.3807 9.5 14.5 10.6193 14.5 12Z" fill="#9D9EA5"/>
</svg>
