<svg width="24" height="24" viewBox="0 0 24 24" fill="none" xmlns="http://www.w3.org/2000/svg">
<path d="M10.75 4.72166C11.5235 4.27507 12.4765 4.27507 13.25 4.72166L17.6782 7.27828C18.4517 7.72486 18.9282 8.55018 18.9282 9.44334V14.5566C18.9282 15.4498 18.4517 16.2751 17.6782 16.7217L13.25 19.2783C12.4765 19.7249 11.5235 19.7249 10.75 19.2783L6.32181 16.7217C5.54831 16.2751 5.07181 15.4498 5.07181 14.5566V9.44334C5.07181 8.55018 5.54831 7.72486 6.32181 7.27828L10.75 4.72166Z" fill="#23294A"/>
<path d="M14.5 12C14.5 13.3807 13.3807 14.5 12 14.5C10.6193 14.5 9.5 13.3807 9.5 12C9.5 10.6193 10.6193 9.5 12 9.5C13.3807 9.5 14.5 10.6193 14.5 12Z" fill="#9D9EA5"/>
</svg>
