<svg width="24" height="24" viewBox="0 0 24 24" fill="none" xmlns="http://www.w3.org/2000/svg">
<path d="M14.5 12C14.5 13.3807 13.3807 14.5 12 14.5C10.6193 14.5 9.5 13.3807 9.5 12C9.5 10.6193 10.6193 9.5 12 9.5C13.3807 9.5 14.5 10.6193 14.5 12Z" fill="#9D9EA5"/>
<path fill-rule="evenodd" clip-rule="evenodd" d="M19.0073 12.2426C19.0073 10.8503 18.4542 9.5149 17.4696 8.53033C17.1767 8.23744 17.1767 7.76256 17.4696 7.46967C17.7625 7.17678 18.2374 7.17678 18.5303 7.46967C19.7962 8.73554 20.5073 10.4524 20.5073 12.2426C20.5073 14.0329 19.7962 15.7497 18.5303 17.0156C18.2374 17.3085 17.7625 17.3085 17.4696 17.0156C17.1767 16.7227 17.1767 16.2478 17.4696 15.955C18.4542 14.9704 19.0073 13.635 19.0073 12.2426Z" fill="#23294A"/>
<path fill-rule="evenodd" clip-rule="evenodd" d="M4.75 12.2427C4.75 13.6351 5.30312 14.9705 6.28769 15.955C6.58058 16.2479 6.58058 16.7228 6.28769 17.0157C5.9948 17.3086 5.51992 17.3086 5.22703 17.0157C3.96116 15.7498 3.25 14.0329 3.25 12.2427C3.25 10.4525 3.96116 8.73561 5.22703 7.46974C5.51992 7.17685 5.9948 7.17685 6.28769 7.46974C6.58058 7.76263 6.58058 8.23751 6.28769 8.5304C5.30312 9.51497 4.75 10.8503 4.75 12.2427Z" fill="#23294A"/>
<path fill-rule="evenodd" clip-rule="evenodd" d="M16.1287 12.1213C16.1287 11.5246 15.8916 10.9523 15.4697 10.5303C15.1768 10.2374 15.1768 9.76256 15.4697 9.46967C15.7625 9.17678 16.2374 9.17678 16.5303 9.46967C17.2336 10.1729 17.6287 11.1268 17.6287 12.1213C17.6287 13.1159 17.2336 14.0697 16.5303 14.773C16.2374 15.0659 15.7625 15.0659 15.4697 14.773C15.1768 14.4801 15.1768 14.0052 15.4697 13.7123C15.8916 13.2904 16.1287 12.7181 16.1287 12.1213Z" fill="#23294A"/>
<path fill-rule="evenodd" clip-rule="evenodd" d="M7.75 12.1209C7.75 12.7176 7.98705 13.2899 8.40901 13.7119C8.7019 14.0048 8.7019 14.4796 8.40901 14.7725C8.11612 15.0654 7.64124 15.0654 7.34835 14.7725C6.64509 14.0693 6.25 13.1154 6.25 12.1209C6.25 11.1263 6.64509 10.1725 7.34835 9.46922C7.64124 9.17632 8.11612 9.17632 8.40901 9.46922C8.7019 9.76211 8.7019 10.237 8.40901 10.5299C7.98705 10.9518 7.75 11.5241 7.75 12.1209Z" fill="#23294A"/>
</svg>
