<svg width="24" height="24" viewBox="0 0 24 24" fill="none" xmlns="http://www.w3.org/2000/svg">
<path d="M17.9577 6.24989L13.5323 3.83605C12.5772 3.31507 11.4228 3.31507 10.4677 3.83605L6.0423 6.24989C5.39977 6.60036 5 7.27379 5 8.00568V12.7515C5 15.168 6.24631 17.4135 8.29694 18.6918C10.5635 20.1047 13.4365 20.1047 15.7031 18.6918C17.7537 17.4135 19 15.168 19 12.7515V8.00568C19 7.27379 18.6002 6.60036 17.9577 6.24989Z" fill="#23294A"/>
<path fill-rule="evenodd" clip-rule="evenodd" d="M14.9339 9.56645C15.1735 9.80609 15.1735 10.1946 14.9339 10.4343L11.719 13.6491C11.4474 13.9207 11.0071 13.9207 10.7355 13.6491L9.56608 12.4797C9.32644 12.2401 9.32644 11.8515 9.56608 11.6119C9.80572 11.3723 10.1943 11.3723 10.4339 11.6119L11.2273 12.4053L14.0661 9.56645C14.3057 9.32681 14.6943 9.32681 14.9339 9.56645Z" fill="#9D9EA5"/>
</svg>
