<svg width="24" height="24" viewBox="0 0 24 24" fill="none" xmlns="http://www.w3.org/2000/svg">
<path d="M17.9577 6.24989L13.5323 3.83605C12.5772 3.31507 11.4228 3.31507 10.4677 3.83605L6.0423 6.24989C5.39977 6.60036 5 7.27379 5 8.00568V12.7515C5 15.168 6.24631 17.4135 8.29694 18.6918C10.5635 20.1047 13.4365 20.1047 15.7031 18.6918C17.7537 17.4135 19 15.168 19 12.7515V8.00568C19 7.27379 18.6002 6.60036 17.9577 6.24989Z" fill="#23294A"/>
<path fill-rule="evenodd" clip-rule="evenodd" d="M14.5 9.5C14.7761 9.77614 14.7761 10.2238 14.5 10.5L10.5 14.5C10.2239 14.7761 9.77618 14.7761 9.50004 14.5C9.2239 14.2238 9.2239 13.7761 9.50004 13.5L13.5 9.5C13.7761 9.22386 14.2239 9.22386 14.5 9.5Z" fill="#9D9EA5"/>
<path fill-rule="evenodd" clip-rule="evenodd" d="M9.5 9.5C9.77614 9.22386 10.2238 9.22386 10.5 9.5L14.5 13.5C14.7761 13.7761 14.7761 14.2238 14.5 14.5C14.2238 14.7761 13.7761 14.7761 13.5 14.5L9.5 10.5C9.22386 10.2239 9.22386 9.77614 9.5 9.5Z" fill="#9D9EA5"/>
</svg>
