<svg width="24" height="24" viewBox="0 0 24 24" fill="none" xmlns="http://www.w3.org/2000/svg">
<path d="M17.9577 6.24989L13.5323 3.83605C12.5772 3.31507 11.4228 3.31507 10.4677 3.83605L6.0423 6.24989C5.39977 6.60036 5 7.27379 5 8.00568V12.7515C5 15.168 6.24631 17.4135 8.29694 18.6918C10.5635 20.1047 13.4365 20.1047 15.7031 18.6918C17.7537 17.4135 19 15.168 19 12.7515V8.00568C19 7.27379 18.6002 6.60036 17.9577 6.24989Z" fill="#23294A"/>
<path d="M17.9577 6.24989L13.5323 3.83605C13.0548 3.57556 12.5274 3.44531 12 3.44531V19.7515C13.2849 19.7515 14.5698 19.3983 15.7031 18.6918C17.7537 17.4135 19 15.168 19 12.7515V8.00568C19 7.27379 18.6002 6.60036 17.9577 6.24989Z" fill="#9D9EA5"/>
</svg>
