<svg width="24" height="24" viewBox="0 0 24 24" fill="none" xmlns="http://www.w3.org/2000/svg">
<path d="M9.61337 5H14.3866C15.9367 5 17.3021 6.01952 17.7424 7.50569L19.402 13.1068C20.1996 15.7986 18.1825 18.5 15.3751 18.5H8.62493C5.81747 18.5 3.80041 15.7986 4.59798 13.1068L6.25757 7.50569C6.69792 6.01952 8.06333 5 9.61337 5Z" fill="#23294A"/>
<path fill-rule="evenodd" clip-rule="evenodd" d="M8.46967 7.46967C8.76256 7.17678 9.23744 7.17678 9.53033 7.46967L10.7626 8.7019C11.446 9.38532 12.554 9.38532 13.2374 8.7019L14.4697 7.46967C14.7626 7.17678 15.2374 7.17678 15.5303 7.46967C15.8232 7.76256 15.8232 8.23744 15.5303 8.53033L14.2981 9.76256C13.0289 11.0318 10.9711 11.0318 9.7019 9.76256L8.46967 8.53033C8.17678 8.23744 8.17678 7.76256 8.46967 7.46967Z" fill="#9D9EA5"/>
</svg>
