<svg width="24" height="24" viewBox="0 0 24 24" fill="none" xmlns="http://www.w3.org/2000/svg">
<path d="M19.5005 8.86407C20.8949 10.6906 20.8949 13.3093 19.5005 15.1359C18.4271 16.542 16.9225 17.6028 15.1305 18.2704C13.1237 19.0179 10.8763 19.0179 8.8695 18.2704C7.07754 17.6028 5.57288 16.542 4.49946 15.1359C3.10508 13.3093 3.10508 10.6906 4.49946 8.86407C5.57288 7.45794 7.07754 6.39712 8.8695 5.72961C10.8763 4.98206 13.1237 4.98206 15.1305 5.72961C16.9225 6.39713 18.4271 7.45794 19.5005 8.86407Z" fill="#23294A"/>
<path d="M15 12C15 13.6569 13.6569 15 12 15C10.3431 15 9 13.6569 9 12C9 10.3431 10.3431 9 12 9C13.6569 9 15 10.3431 15 12Z" fill="#9D9EA5"/>
</svg>
