<svg width="24" height="24" viewBox="0 0 24 24" fill="none" xmlns="http://www.w3.org/2000/svg">
<path d="M13.586 4H8C6.34315 4 5 5.34315 5 7V18C5 19.6569 6.34315 21 8 21H16.5C18.1569 21 19.5 19.6569 19.5 18V10.0144C19.5 9.36388 19.2465 8.739 18.7932 8.27241L15.3792 4.75804C14.9085 4.27344 14.2616 4 13.586 4Z" fill="#23294A"/>
<path fill-rule="evenodd" clip-rule="evenodd" d="M9.75 9.5C9.75 9.08579 10.0858 8.75 10.5 8.75H13.5C13.9142 8.75 14.25 9.08579 14.25 9.5C14.25 9.91421 13.9142 10.25 13.5 10.25H10.5C10.0858 10.25 9.75 9.91421 9.75 9.5Z" fill="#9D9EA5"/>
<path d="M10.5 13H13.5C14.3284 13 15 13.6716 15 14.5V16.5C15 17.3284 14.3284 18 13.5 18H10.5C9.67157 18 9 17.3284 9 16.5V14.5C9 13.6716 9.67157 13 10.5 13Z" fill="#9D9EA5"/>
</svg>
