<svg width="24" height="24" viewBox="0 0 24 24" fill="none" xmlns="http://www.w3.org/2000/svg">
<path d="M12 21C16.9706 21 21 16.9706 21 12C21 9.90185 20.282 7.97139 19.0784 6.44091C18.9699 6.30297 18.7659 6.29478 18.6418 6.41887L6.41887 18.6418C6.29478 18.7659 6.30297 18.9699 6.44091 19.0784C7.97139 20.282 9.90185 21 12 21Z" fill="#23294A"/>
<path d="M4.92163 17.5591C5.03011 17.697 5.23412 17.7052 5.35821 17.5811L17.5811 5.35821C17.7052 5.23412 17.697 5.03011 17.5591 4.92163C16.0286 3.71797 14.0982 3 12 3C7.02944 3 3 7.02944 3 12C3 14.0982 3.71797 16.0286 4.92163 17.5591Z" fill="#23294A"/>
<path d="M4.92163 17.5591C5.03011 17.697 5.23412 17.7052 5.35821 17.5811L17.5811 5.35821C17.7052 5.23412 17.697 5.03011 17.5591 4.92163C16.0286 3.71797 14.0982 3 12 3C7.02944 3 3 7.02944 3 12C3 14.0982 3.71797 16.0286 4.92163 17.5591Z" fill="#9D9EA5"/>
</svg>
