<svg width="24" height="24" viewBox="0 0 24 24" fill="none" xmlns="http://www.w3.org/2000/svg">
<path d="M7.5 4H16.5C18.9853 4 21 6.01472 21 8.5V15.5C21 17.9853 18.9853 20 16.5 20H7.5C5.01472 20 3 17.9853 3 15.5V8.5C3 6.01472 5.01472 4 7.5 4Z" fill="#23294A"/>
<path fill-rule="evenodd" clip-rule="evenodd" d="M7.42382 8.35289C7.689 8.03468 8.16192 7.99169 8.48013 8.25686L10.5596 9.98973C11.394 10.6851 12.606 10.6851 13.4404 9.98973L15.5198 8.25686C15.8381 7.99169 16.311 8.03468 16.5762 8.35289C16.8413 8.6711 16.7983 9.14402 16.4801 9.40919L14.4007 11.1421C13.01 12.301 10.99 12.301 9.5993 11.1421L7.51985 9.40919C7.20164 9.14402 7.15865 8.6711 7.42382 8.35289Z" fill="#9D9EA5"/>
</svg>
