<svg width="24" height="24" viewBox="0 0 24 24" fill="none" xmlns="http://www.w3.org/2000/svg">
<path d="M10.6277 4.87727C11.3068 3.94846 12.6932 3.94846 13.3723 4.87727L14.9572 7.04483C15.167 7.33179 15.4615 7.54576 15.7992 7.65664L18.3505 8.49413C19.4437 8.853 19.8721 10.1715 19.1986 11.1044L17.6269 13.2815C17.4188 13.5697 17.3063 13.9159 17.3052 14.2714L17.2971 16.9566C17.2936 18.1072 16.172 18.9221 15.0767 18.5698L12.5204 17.7478C12.182 17.639 11.818 17.639 11.4796 17.7478L8.9233 18.5698C7.82794 18.9221 6.70636 18.1072 6.70288 16.9566L6.69475 14.2714C6.69367 13.9159 6.58118 13.5697 6.3731 13.2815L4.80138 11.1044C4.1279 10.1715 4.5563 8.853 5.64951 8.49413L8.20074 7.65664C8.53849 7.54576 8.83299 7.33179 9.04281 7.04483L10.6277 4.87727Z" fill="#23294A"/>
</svg>
