<svg width="24" height="24" viewBox="0 0 24 24" fill="none" xmlns="http://www.w3.org/2000/svg">
<path d="M9.38356 5H15.8C18.1196 5 20 6.8804 20 9.2V15.8C20 18.1196 18.1196 20 15.8 20H9.55107C8.14173 20 6.82633 19.2931 6.04856 18.1178L3.64097 14.4797C2.65772 12.9939 2.71891 11.0494 3.79365 9.62838L6.03372 6.66651C6.82757 5.61686 8.06752 5 9.38356 5Z" fill="#23294A"/>
<path fill-rule="evenodd" clip-rule="evenodd" d="M14.5303 9.46967C14.8232 9.76256 14.8232 10.2374 14.5303 10.5303L10.5303 14.5303C10.2374 14.8232 9.76256 14.8232 9.46967 14.5303C9.17678 14.2374 9.17678 13.7626 9.46967 13.4697L13.4697 9.46967C13.7626 9.17678 14.2374 9.17678 14.5303 9.46967Z" fill="#9D9EA5"/>
<path fill-rule="evenodd" clip-rule="evenodd" d="M9.46967 9.46967C9.76256 9.17678 10.2374 9.17678 10.5303 9.46967L14.5303 13.4697C14.8232 13.7626 14.8232 14.2374 14.5303 14.5303C14.2374 14.8232 13.7626 14.8232 13.4697 14.5303L9.46967 10.5303C9.17678 10.2374 9.17678 9.76256 9.46967 9.46967Z" fill="#9D9EA5"/>
</svg>
