<svg width="24" height="24" viewBox="0 0 24 24" fill="none" xmlns="http://www.w3.org/2000/svg">
<path d="M3 8C3 5.23858 5.23858 3 8 3H16C18.7614 3 21 5.23858 21 8V16C21 18.7614 18.7614 21 16 21H8C5.23858 21 3 18.7614 3 16V8Z" fill="#23294A"/>
<path fill-rule="evenodd" clip-rule="evenodd" d="M12 8.25C12.4142 8.25 12.75 8.58579 12.75 9V17C12.75 17.4142 12.4142 17.75 12 17.75C11.5858 17.75 11.25 17.4142 11.25 17V9C11.25 8.58579 11.5858 8.25 12 8.25Z" fill="#9D9EA5"/>
<path fill-rule="evenodd" clip-rule="evenodd" d="M7.75 8.5C7.75 8.08579 8.08579 7.75 8.5 7.75H15.5C15.9142 7.75 16.25 8.08579 16.25 8.5C16.25 8.91421 15.9142 9.25 15.5 9.25H8.5C8.08579 9.25 7.75 8.91421 7.75 8.5Z" fill="#9D9EA5"/>
</svg>
