<svg width="24" height="24" viewBox="0 0 24 24" fill="none" xmlns="http://www.w3.org/2000/svg">
<path d="M3 8C3 5.23858 5.23858 3 8 3H16C18.7614 3 21 5.23858 21 8V16C21 18.7614 18.7614 21 16 21H8C5.23858 21 3 18.7614 3 16V8Z" fill="#23294A"/>
<path fill-rule="evenodd" clip-rule="evenodd" d="M15.0303 9.46967C15.3232 9.76256 15.3232 10.2374 15.0303 10.5303L11.101 14.4596C10.7691 14.7916 10.2309 14.7916 9.89896 14.4596L8.46967 13.0303C8.17678 12.7374 8.17678 12.2626 8.46967 11.9697C8.76256 11.6768 9.23744 11.6768 9.53033 11.9697L10.5 12.9393L13.9697 9.46967C14.2626 9.17678 14.7374 9.17678 15.0303 9.46967Z" fill="#9D9EA5"/>
</svg>
