<svg width="24" height="24" viewBox="0 0 24 24" fill="none" xmlns="http://www.w3.org/2000/svg">
<path d="M14 15C14 17.7614 11.7614 20 9 20C6.23858 20 4 17.7614 4 15C4 12.2386 6.23858 10 9 10C11.7614 10 14 12.2386 14 15Z" fill="#9D9EA5"/>
<path d="M20 10C20 12.7614 17.7614 15 15 15C12.2386 15 10 12.7614 10 10C10 7.23858 12.2386 5 15 5C17.7614 5 20 7.23858 20 10Z" fill="#9D9EA5"/>
<path d="M4 4V7.86338C4 8.29843 4.51716 8.52594 4.83786 8.23196L9.05246 4.36858C9.38861 4.06044 9.1706 3.5 8.7146 3.5H4.5C4.22386 3.5 4 3.72386 4 4Z" fill="#23294A"/>
<path d="M20 16.1367V20.0001C20 20.2763 19.7761 20.5001 19.5 20.5001H15.2854C14.8294 20.5001 14.6114 19.9397 14.9475 19.6315L19.1621 15.7682C19.4828 15.4742 20 15.7017 20 16.1367Z" fill="#23294A"/>
</svg>
