<svg width="24" height="24" viewBox="0 0 24 24" fill="none" xmlns="http://www.w3.org/2000/svg">
<path d="M16.7738 17.8101L17.8314 9.34884C17.9209 8.63262 17.3625 8 16.6407 8H7.35936C6.63756 8 6.0791 8.63262 6.16862 9.34884L7.22628 17.8101C7.38266 19.0612 8.44617 20 9.70697 20H14.2931C15.5539 20 16.6174 19.0612 16.7738 17.8101Z" fill="#23294A"/>
<path fill-rule="evenodd" clip-rule="evenodd" d="M4.75 6C4.75 5.58579 5.08579 5.25 5.5 5.25H18.5C18.9142 5.25 19.25 5.58579 19.25 6C19.25 6.41421 18.9142 6.75 18.5 6.75H5.5C5.08579 6.75 4.75 6.41421 4.75 6Z" fill="#23294A"/>
<path fill-rule="evenodd" clip-rule="evenodd" d="M8.37356 3.70588C8.85149 2.80976 9.78442 2.25 10.8 2.25H13.2C14.2156 2.25 15.1486 2.80976 15.6265 3.70588L16.6618 5.64706C16.8567 6.01254 16.7184 6.46684 16.353 6.66176C15.9875 6.85669 15.5332 6.71842 15.3383 6.35294L14.303 4.41176C14.0857 4.00443 13.6617 3.75 13.2 3.75H10.8C10.3384 3.75 9.91433 4.00443 9.69708 4.41176L8.66179 6.35294C8.46687 6.71842 8.01257 6.85669 7.64708 6.66176C7.2816 6.46684 7.14334 6.01254 7.33826 5.64706L8.37356 3.70588Z" fill="#23294A"/>
<path fill-rule="evenodd" clip-rule="evenodd" d="M13.5 11.25C13.9142 11.25 14.25 11.5858 14.25 12V14C14.25 14.4142 13.9142 14.75 13.5 14.75C13.0858 14.75 12.75 14.4142 12.75 14V12C12.75 11.5858 13.0858 11.25 13.5 11.25Z" fill="#9D9EA5"/>
<path fill-rule="evenodd" clip-rule="evenodd" d="M10.5 11.25C10.9142 11.25 11.25 11.5858 11.25 12V14C11.25 14.4142 10.9142 14.75 10.5 14.75C10.0858 14.75 9.75 14.4142 9.75 14V12C9.75 11.5858 10.0858 11.25 10.5 11.25Z" fill="#9D9EA5"/>
</svg>
