<svg width="24" height="24" viewBox="0 0 24 24" fill="none" xmlns="http://www.w3.org/2000/svg">
<path fill-rule="evenodd" clip-rule="evenodd" d="M13.2008 3.91862C13.2448 3.80476 13.188 3.67324 13.0695 3.64397C12.0916 3.40248 11.0461 3.53659 10.1493 4.04104L6.03895 6.35312C4.77945 7.06159 4 8.39433 4 9.83942V14.1606C4 15.6057 4.77945 16.9385 6.03896 17.6469L10.039 19.8969C11.2566 20.5819 12.7434 20.5819 13.961 19.8969L17.961 17.6469C19.2206 16.9385 20 15.6057 20 14.1606V9.79473C20 8.64241 19.4947 7.56292 18.642 6.82603C18.5549 6.7508 18.4235 6.77229 18.352 6.86245C17.8025 7.55548 16.9532 8 16 8C14.3431 8 13 6.65685 13 5C13 4.61875 13.0711 4.25411 13.2008 3.91862ZM9.75 10C9.75 9.58582 9.41421 9.25003 9 9.25003C8.58579 9.25003 8.25 9.58582 8.25 10V13.1076C8.25 13.8061 8.57446 14.4651 9.12815 14.891C9.93692 15.5131 11.0631 15.5131 11.8718 14.891C12.4255 14.4651 12.75 13.8061 12.75 13.1076V10C12.75 9.58582 12.4142 9.25003 12 9.25003C11.5858 9.25003 11.25 9.58582 11.25 10V13.1076C11.25 13.3404 11.1418 13.5601 10.9573 13.702C10.6877 13.9094 10.3123 13.9094 10.0427 13.702C9.85815 13.5601 9.75 13.3404 9.75 13.1076V10ZM15 9.25003C15.4142 9.25003 15.75 9.58582 15.75 10V14.5C15.75 14.9142 15.4142 15.25 15 15.25C14.5858 15.25 14.25 14.9142 14.25 14.5V10C14.25 9.58582 14.5858 9.25003 15 9.25003Z" fill="#23294A"/>
<path d="M18 5C18 6.10457 17.1046 7 16 7C14.8954 7 14 6.10457 14 5C14 3.89543 14.8954 3 16 3C17.1046 3 18 3.89543 18 5Z" fill="#9D9EA5"/>
<path fill-rule="evenodd" clip-rule="evenodd" d="M9 9.25C9.41421 9.25 9.75 9.58579 9.75 10V13.1076C9.75 13.3404 9.85815 13.56 10.0427 13.702C10.3123 13.9094 10.6877 13.9094 10.9573 13.702C11.1418 13.56 11.25 13.3404 11.25 13.1076V10C11.25 9.58579 11.5858 9.25 12 9.25C12.4142 9.25 12.75 9.58579 12.75 10V13.1076C12.75 13.8061 12.4255 14.465 11.8718 14.891C11.0631 15.5131 9.93692 15.5131 9.12815 14.891C8.57446 14.465 8.25 13.8061 8.25 13.1076V10C8.25 9.58579 8.58579 9.25 9 9.25Z" fill="#9D9EA5"/>
<path fill-rule="evenodd" clip-rule="evenodd" d="M15 9.25C15.4142 9.25 15.75 9.58579 15.75 10V14.5C15.75 14.9142 15.4142 15.25 15 15.25C14.5858 15.25 14.25 14.9142 14.25 14.5V10C14.25 9.58579 14.5858 9.25 15 9.25Z" fill="#9D9EA5"/>
</svg>
