<svg width="24" height="24" viewBox="0 0 24 24" fill="none" xmlns="http://www.w3.org/2000/svg">
<path fill-rule="evenodd" clip-rule="evenodd" d="M12 18.75C11.5858 18.75 11.25 18.4142 11.25 18L11.25 6C11.25 5.58579 11.5858 5.25 12 5.25C12.4142 5.25 12.75 5.58579 12.75 6L12.75 18C12.75 18.4142 12.4142 18.75 12 18.75Z" fill="#23294A"/>
<path fill-rule="evenodd" clip-rule="evenodd" d="M15.5303 15.4697C15.8232 15.7626 15.8232 16.2374 15.5303 16.5303L12.8839 19.1768C12.3957 19.6649 11.6043 19.6649 11.1161 19.1768L8.46967 16.5303C8.17678 16.2374 8.17678 15.7626 8.46967 15.4697C8.76256 15.1768 9.23744 15.1768 9.53033 15.4697L12 17.9393L14.4697 15.4697C14.7626 15.1768 15.2374 15.1768 15.5303 15.4697Z" fill="#9D9EA5"/>
<path fill-rule="evenodd" clip-rule="evenodd" d="M8.46967 8.53033C8.17678 8.23744 8.17678 7.76256 8.46967 7.46967L11.1161 4.82322C11.6043 4.33507 12.3957 4.33507 12.8839 4.82322L15.5303 7.46967C15.8232 7.76256 15.8232 8.23744 15.5303 8.53033C15.2374 8.82322 14.7626 8.82322 14.4697 8.53033L12 6.06066L9.53033 8.53033C9.23744 8.82322 8.76256 8.82322 8.46967 8.53033Z" fill="#9D9EA5"/>
</svg>
