<svg width="24" height="24" viewBox="0 0 24 24" fill="none" xmlns="http://www.w3.org/2000/svg">
<path d="M21 12C21 16.9706 16.9706 21 12 21C7.02944 21 3 16.9706 3 12C3 7.02944 7.02944 3 12 3C16.9706 3 21 7.02944 21 12Z" fill="#23294A"/>
<path d="M15 10C15 11.6569 13.6569 13 12 13C10.3431 13 9 11.6569 9 10C9 8.34315 10.3431 7 12 7C13.6569 7 15 8.34315 15 10Z" fill="#9D9EA5"/>
<path fill-rule="evenodd" clip-rule="evenodd" d="M8.46967 15.7123C10.4194 13.7626 13.5806 13.7626 15.5303 15.7123C15.8232 16.0052 15.8232 16.4801 15.5303 16.773C15.2374 17.0659 14.7626 17.0659 14.4697 16.773C13.1057 15.409 10.8943 15.409 9.53033 16.773C9.23744 17.0659 8.76256 17.0659 8.46967 16.773C8.17678 16.4801 8.17678 16.0052 8.46967 15.7123Z" fill="#9D9EA5"/>
</svg>
