<svg width="24" height="24" viewBox="0 0 24 24" fill="none" xmlns="http://www.w3.org/2000/svg">
<path d="M15 9C15 11.2091 13.2091 13 11 13C8.79086 13 7 11.2091 7 9C7 6.79086 8.79086 5 11 5C13.2091 5 15 6.79086 15 9Z" fill="#9D9EA5"/>
<path d="M20 9C20 10.6583 18.6712 12 17.0345 12C16.2462 12 15.533 11.691 15 11.1784C15.4129 10.5452 15.6381 9.79899 15.6381 9C15.6381 8.201 15.4129 7.45477 15 6.82161C15.533 6.30905 16.2462 6 17.0345 6C18.6712 6 20 7.34171 20 9Z" fill="#23294A"/>
<path fill-rule="evenodd" clip-rule="evenodd" d="M11 14.3496C13.0795 14.3496 15.2139 15.0109 16.7143 16.4041C17.0931 16.7559 17.4224 17.1676 17.6709 17.6645C17.8561 18.035 17.7059 18.4855 17.3355 18.6707C16.965 18.8559 16.5145 18.7058 16.3292 18.3353C16.1722 18.0212 15.9599 17.7505 15.6937 17.5034C14.5316 16.4244 12.7933 15.8496 11 15.8496C9.20682 15.8496 7.46845 16.4244 6.30638 17.5034C6.0402 17.7505 5.82789 18.0212 5.67086 18.3353C5.48562 18.7058 5.03512 18.8559 4.66463 18.6707C4.29415 18.4855 4.14398 18.035 4.32922 17.6645C4.57764 17.1676 4.90696 16.7559 5.28574 16.4041C6.78623 15.0109 8.92056 14.3496 11 14.3496Z" fill="#23294A"/>
</svg>
