<svg width="24" height="24" viewBox="0 0 24 24" fill="none" xmlns="http://www.w3.org/2000/svg">
<path d="M20.5858 13.4139C21.3668 12.6329 21.3668 11.3665 20.5858 10.5855L19.5858 9.58548C19.2107 9.21041 19 8.7017 19 8.17127V6.9997C19 5.89513 18.1046 4.9997 17 4.9997H15.8284C15.298 4.9997 14.7893 4.78898 14.4142 4.41391L13.4142 3.41391C12.6332 2.63286 11.3668 2.63286 10.5858 3.41391L9.58579 4.41391C9.21072 4.78898 8.70201 4.9997 8.17158 4.9997H7C5.89543 4.9997 5 5.89513 5 6.9997V8.17127C5 8.7017 4.78929 9.21041 4.41422 9.58548L3.41422 10.5855C2.63317 11.3665 2.63317 12.6329 3.41422 13.4139L4.41422 14.4139C4.78929 14.789 5 15.2977 5 15.8281V16.9997C5 18.1043 5.89543 18.9997 7 18.9997H8.17158C8.70201 18.9997 9.21072 19.2104 9.58579 19.5855L10.5858 20.5855C11.3668 21.3665 12.6332 21.3665 13.4142 20.5855L14.4142 19.5855C14.7893 19.2104 15.298 18.9997 15.8284 18.9997H17C18.1046 18.9997 19 18.1043 19 16.9997V15.8281C19 15.2977 19.2107 14.789 19.5858 14.4139L20.5858 13.4139Z" fill="#23294A"/>
<path fill-rule="evenodd" clip-rule="evenodd" d="M14.5303 9.83295C14.8232 10.1258 14.8232 10.6007 14.5303 10.8936L11.3155 14.1085C10.9906 14.4333 10.4639 14.4333 10.1391 14.1085L8.96967 12.9391C8.67678 12.6462 8.67678 12.1713 8.96967 11.8784C9.26256 11.5855 9.73744 11.5855 10.0303 11.8784L10.7273 12.5753L13.4697 9.83295C13.7626 9.54006 14.2374 9.54006 14.5303 9.83295Z" fill="#9D9EA5"/>
</svg>
