<svg width="24" height="24" viewBox="0 0 24 24" fill="none" xmlns="http://www.w3.org/2000/svg">
<path d="M7 5H12C14.2091 5 16 6.79086 16 9V15C16 17.2091 14.2091 19 12 19H7C4.79086 19 3 17.2091 3 15V9C3 6.79086 4.79086 5 7 5Z" fill="#23294A"/>
<path d="M18.8303 7.95248L16.331 10.2019C16.1203 10.3915 16 10.6617 16 10.9452V13.0544C16 13.3379 16.1203 13.6081 16.331 13.7977L18.8303 16.0471C19.6669 16.8 21 16.2063 21 15.0808V8.91876C21 7.79326 19.6669 7.19956 18.8303 7.95248Z" fill="#9D9EA5"/>
</svg>
