<svg width="24" height="24" viewBox="0 0 24 24" fill="none" xmlns="http://www.w3.org/2000/svg">
<path d="M3 8C3 5.23858 5.23858 3 8 3H16C18.7614 3 21 5.23858 21 8V16C21 18.7614 18.7614 21 16 21H8C5.23858 21 3 18.7614 3 16V8Z" fill="#23294A"/>
<path fill-rule="evenodd" clip-rule="evenodd" d="M2.75 9.5C2.75 9.08579 3.08579 8.75 3.5 8.75H20.5C20.9142 8.75 21.25 9.08579 21.25 9.5C21.25 9.91421 20.9142 10.25 20.5 10.25H3.5C3.08579 10.25 2.75 9.91421 2.75 9.5Z" fill="#9D9EA5"/>
<path fill-rule="evenodd" clip-rule="evenodd" d="M16.3377 2.33003C16.7076 2.51652 16.8562 2.96753 16.6697 3.33738L13.509 9.60607C13.3225 9.97593 12.8715 10.1246 12.5016 9.93809C12.1318 9.75161 11.9831 9.3006 12.1696 8.93074L15.3304 2.66206C15.5168 2.2922 15.9678 2.14355 16.3377 2.33003Z" fill="#9D9EA5"/>
<path fill-rule="evenodd" clip-rule="evenodd" d="M10.8208 2.34962C11.1799 2.55622 11.3034 3.01474 11.0968 3.37375L7.48927 9.64243C7.28267 10.0014 6.82415 10.125 6.46514 9.91839C6.10613 9.71178 5.98258 9.25326 6.18918 8.89425L9.79671 2.62557C10.0033 2.26656 10.4618 2.14301 10.8208 2.34962Z" fill="#9D9EA5"/>
<path d="M11.8861 17.7556C10.8825 18.3266 9.63709 17.5971 9.6444 16.4424L9.66084 13.8444C9.66815 12.6897 10.9227 11.9759 11.919 12.5596L14.1608 13.8728C15.1571 14.4565 15.1479 15.8999 14.1443 16.4709L11.8861 17.7556Z" fill="#9D9EA5"/>
</svg>
