<svg width="24" height="24" viewBox="0 0 24 24" fill="none" xmlns="http://www.w3.org/2000/svg">
<path d="M4 12C4 8.04413 7.66091 6.99998 10 6.99998H10.4148C10.9095 6.99998 11.3886 6.82706 11.7693 6.51115C13.4519 5.11474 16 6.31136 16 8.49793V15.502C16 17.6886 13.4519 18.8852 11.7693 17.4888C11.3886 17.1729 10.9095 17 10.4148 17H10C7.66091 17 4 15.9558 4 12Z" fill="#23294A"/>
<path fill-rule="evenodd" clip-rule="evenodd" d="M19.55 9.40004C19.8814 9.15152 20.3515 9.21867 20.6 9.55004C21.6889 11.0019 21.6889 12.9982 20.6 14.45C20.3515 14.7814 19.8814 14.8486 19.55 14.6C19.2186 14.3515 19.1515 13.8814 19.4 13.55C20.0889 12.6315 20.0889 11.3686 19.4 10.45C19.1515 10.1187 19.2186 9.64857 19.55 9.40004Z" fill="#9D9EA5"/>
<path fill-rule="evenodd" clip-rule="evenodd" d="M17.584 9.87604C17.9286 9.64628 18.3943 9.73941 18.6241 10.0841C19.3976 11.2443 19.3976 12.7559 18.6241 13.9161C18.3943 14.2608 17.9286 14.3539 17.584 14.1241C17.2393 13.8944 17.1462 13.4287 17.376 13.0841C17.8136 12.4277 17.8136 11.5725 17.376 10.9161C17.1462 10.5715 17.2393 10.1058 17.584 9.87604Z" fill="#9D9EA5"/>
</svg>
