<svg width="24" height="24" viewBox="0 0 24 24" fill="none" xmlns="http://www.w3.org/2000/svg">
<path d="M16.4484 6.52801C16.5727 6.38457 16.534 6.16216 16.3574 6.09278C15.5393 5.77156 14.5589 5.85578 13.7693 6.51115C13.3886 6.82706 12.9095 6.99998 12.4148 6.99998H12C9.66091 6.99998 6 8.04413 6 12C6 13.9077 6.85143 15.1383 7.99543 15.9011C8.11663 15.9819 8.27791 15.9555 8.37332 15.8454L16.4484 6.52801Z" fill="#23294A"/>
<path d="M11.2779 15.9592C10.8153 16.4929 11.0437 17.316 11.7423 17.4195C12.1731 17.4833 12.5903 17.5112 12.9722 17.5112H13.387C13.8817 17.5112 14.3608 17.6841 14.7415 18C16.4241 19.3964 18.9722 18.1998 18.9722 16.0132V9.00913C18.9722 8.93827 18.9695 8.86844 18.9643 8.79971C18.9142 8.1422 18.1187 8.06599 17.6868 8.56431L11.2779 15.9592Z" fill="#23294A"/>
<path d="M11.2779 15.9587C10.8153 16.4924 11.0437 17.3156 11.7423 17.4191C12.1731 17.4829 12.5903 17.5107 12.9722 17.5107H13.387C13.8817 17.5107 14.3608 17.6836 14.7415 17.9995C16.424 19.396 18.9722 18.1993 18.9722 16.0128V9.00867C18.9722 8.93781 18.9695 8.86798 18.9643 8.79926C18.9142 8.14174 18.1187 8.06553 17.6868 8.56385L11.2779 15.9587Z" fill="#9D9EA5"/>
<path fill-rule="evenodd" clip-rule="evenodd" d="M20.4962 2.43763C20.8068 2.71168 20.8364 3.18563 20.5624 3.49623L5.56239 20.4962C5.28833 20.8068 4.81439 20.8364 4.50379 20.5624C4.1932 20.2883 4.16358 19.8144 4.43763 19.5038L19.4376 2.50379C19.7117 2.1932 20.1856 2.16358 20.4962 2.43763Z" fill="#23294A"/>
</svg>
