<svg width="24" height="24" viewBox="0 0 24 24" fill="none" xmlns="http://www.w3.org/2000/svg">
<path d="M3 8C3 5.23858 5.23858 3 8 3H16C18.7614 3 21 5.23858 21 8V16C21 18.7614 18.7614 21 16 21H8C5.23858 21 3 18.7614 3 16V8Z" fill="#23294A"/>
<path fill-rule="evenodd" clip-rule="evenodd" d="M12.25 12.5C12.25 10.7051 13.7051 9.25 15.5 9.25H21V10.75H15.5C14.5335 10.75 13.75 11.5335 13.75 12.5V13.5C13.75 14.4665 14.5335 15.25 15.5 15.25H21V16.75H15.5C13.7051 16.75 12.25 15.2949 12.25 13.5V12.5Z" fill="#9D9EA5"/>
<path fill-rule="evenodd" clip-rule="evenodd" d="M15.25 13C15.25 12.5858 15.5858 12.25 16 12.25H17C17.4142 12.25 17.75 12.5858 17.75 13C17.75 13.4142 17.4142 13.75 17 13.75H16C15.5858 13.75 15.25 13.4142 15.25 13Z" fill="#9D9EA5"/>
<path fill-rule="evenodd" clip-rule="evenodd" d="M6.25 7C6.25 6.58579 6.58579 6.25 7 6.25H17C17.4142 6.25 17.75 6.58579 17.75 7C17.75 7.41421 17.4142 7.75 17 7.75H7C6.58579 7.75 6.25 7.41421 6.25 7Z" fill="#9D9EA5"/>
</svg>
