<svg width="24" height="24" viewBox="0 0 24 24" fill="none" xmlns="http://www.w3.org/2000/svg">
<path d="M3 8C3 5.23858 5.23858 3 8 3H16C18.7614 3 21 5.23858 21 8V16C21 18.7614 18.7614 21 16 21H8C5.23858 21 3 18.7614 3 16V8Z" fill="#23294A"/>
<path fill-rule="evenodd" clip-rule="evenodd" d="M12.25 12.5C12.25 10.7051 13.7051 9.25 15.5 9.25H21V10.75H15.5C14.5335 10.75 13.75 11.5335 13.75 12.5V13.5C13.75 14.4665 14.5335 15.25 15.5 15.25H21V16.75H15.5C13.7051 16.75 12.25 15.2949 12.25 13.5V12.5Z" fill="#9D9EA5"/>
<path d="M18 13C18 13.5523 17.5523 14 17 14C16.4477 14 16 13.5523 16 13C16 12.4477 16.4477 12 17 12C17.5523 12 18 12.4477 18 13Z" fill="#9D9EA5"/>
<path d="M14 7C14 7.55228 13.5523 8 13 8C12.4477 8 12 7.55228 12 7C12 6.44772 12.4477 6 13 6C13.5523 6 14 6.44772 14 7Z" fill="#9D9EA5"/>
<path fill-rule="evenodd" clip-rule="evenodd" d="M5.25 7C5.25 6.58579 5.58579 6.25 6 6.25H10C10.4142 6.25 10.75 6.58579 10.75 7C10.75 7.41421 10.4142 7.75 10 7.75H6C5.58579 7.75 5.25 7.41421 5.25 7Z" fill="#9D9EA5"/>
</svg>
