<svg width="24" height="24" viewBox="0 0 24 24" fill="none" xmlns="http://www.w3.org/2000/svg">
<path fill-rule="evenodd" clip-rule="evenodd" d="M12 18C15.3137 18 18 15.3137 18 12C18 8.68629 15.3137 6 12 6C8.68629 6 6 8.68629 6 12C6 15.3137 8.68629 18 12 18ZM12.75 9.5C12.75 9.08579 12.4142 8.75 12 8.75C11.5858 8.75 11.25 9.08579 11.25 9.5V11.7929C11.25 12.1244 11.3817 12.4424 11.6161 12.6768L12.4697 13.5303C12.7626 13.8232 13.2374 13.8232 13.5303 13.5303C13.8232 13.2374 13.8232 12.7626 13.5303 12.4697L12.75 11.6893V9.5Z" fill="#23294A"/>
<path d="M8.23637 2.41999L7.54038 4.71674C7.30906 5.48011 8.02074 6.19378 8.78475 5.96457L10.2759 5.51723C11.4005 5.17984 12.5995 5.17984 13.7241 5.51723L15.2152 5.96457C15.9793 6.19378 16.6909 5.48011 16.4596 4.71674L15.7636 2.41999C15.5081 1.57669 14.7307 1 13.8496 1H10.1504C9.26925 1 8.49191 1.57669 8.23637 2.41999Z" fill="#9D9EA5"/>
<path d="M15.9019 21.5262L16.4716 19.4374C16.6888 18.641 15.902 17.9392 15.1355 18.2458L14.2283 18.6087C12.7979 19.1808 11.2021 19.1808 9.77166 18.6087L8.86454 18.2458C8.09804 17.9392 7.31117 18.641 7.52839 19.4374L8.09807 21.5262C8.33537 22.3964 9.12569 23 10.0276 23H13.9724C14.8743 23 15.6646 22.3964 15.9019 21.5262Z" fill="#9D9EA5"/>
<path fill-rule="evenodd" clip-rule="evenodd" d="M12 8.75C12.4142 8.75 12.75 9.08579 12.75 9.5V11.6893L13.5303 12.4697C13.8232 12.7626 13.8232 13.2374 13.5303 13.5303C13.2374 13.8232 12.7626 13.8232 12.4697 13.5303L11.6161 12.6768C11.3817 12.4424 11.25 12.1244 11.25 11.7929V9.5C11.25 9.08579 11.5858 8.75 12 8.75Z" fill="#9D9EA5"/>
</svg>
