<svg width="24" height="24" viewBox="0 0 24 24" fill="none" xmlns="http://www.w3.org/2000/svg">
<path d="M12 21C16.9706 21 21 16.9706 21 12C21 7.02944 16.9706 3 12 3C7.02944 3 3 7.02944 3 12C3 13.6607 3.44978 15.2163 4.23418 16.5517C4.27422 16.6199 4.28705 16.7008 4.26858 16.7777L3.56272 19.7152C3.38285 20.4636 4.08071 21.1262 4.81885 20.9077L7.76179 20.0366C7.83598 20.0146 7.91569 20.0224 7.98491 20.057C9.19362 20.6605 10.5572 21 12 21Z" fill="#23294A"/>
<path d="M9.43387 8C9.13799 8 8.85348 8.12502 8.60313 8.37502C8.38691 8.57956 8.23898 8.79547 8.14794 9.04547C8.0569 9.2841 8 9.54546 8 9.81819C8 10.2386 8.09104 10.6705 8.2845 11.125C8.47795 11.5795 8.73969 12.0341 9.0697 12.4886C9.39972 12.9432 9.77526 13.375 10.1849 13.7955C10.606 14.2045 11.0384 14.5796 11.4936 14.9091C11.9488 15.2386 12.4154 15.5 12.8706 15.7045C13.3257 15.9091 13.7696 16 14.1793 16C14.4638 16 14.7141 15.9432 14.9644 15.8523C15.2034 15.75 15.4196 15.6023 15.6245 15.3864C15.7383 15.2614 15.8293 15.125 15.8976 14.9773C15.9659 14.8296 16 14.6818 16 14.5455C16 14.4318 15.9772 14.3296 15.9317 14.2387C15.8862 14.1364 15.8179 14.0568 15.7155 13.9887L14.3954 13.0455C14.293 12.9773 14.202 12.9205 14.1109 12.8864C14.0199 12.8523 13.9403 12.8295 13.872 12.8295C13.7696 12.8295 13.6785 12.8523 13.5875 12.9091C13.4964 12.9545 13.394 13.0341 13.303 13.1364L12.9958 13.4318C12.9958 13.4318 12.9047 13.5 12.8364 13.5C12.8023 13.5 12.7681 13.5 12.734 13.4886C12.7112 13.4773 12.6771 13.4659 12.6657 13.4546C12.5292 13.3864 12.3585 13.2614 12.1537 13.0909C11.9374 12.9091 11.7326 12.7159 11.5164 12.5C11.3115 12.2841 11.1181 12.0796 10.936 11.8637C10.7653 11.6591 10.6401 11.4886 10.5605 11.3523C10.5605 11.3296 10.5377 11.3068 10.5263 11.2727C10.5263 11.2386 10.515 11.2159 10.515 11.1818C10.515 11.1137 10.5377 11.0682 10.5832 11.0227L10.8905 10.7045C10.9815 10.6136 11.0612 10.5114 11.1181 10.4205C11.175 10.3295 11.1977 10.2273 11.1977 10.1364C11.1977 10.0568 11.175 9.97729 11.1408 9.89774C11.1067 9.80683 11.0498 9.71592 10.9815 9.61365L10.0484 8.30684C9.98011 8.20457 9.88904 8.13637 9.77525 8.07955C9.67283 8.0341 9.55903 8.01137 9.45661 8.01137L9.43387 8Z" fill="#9D9EA5"/>
</svg>
