<svg width="24" height="24" viewBox="0 0 24 24" fill="none" xmlns="http://www.w3.org/2000/svg">
<path d="M3 8C3 5.23858 5.23858 3 8 3H16C18.7614 3 21 5.23858 21 8V16C21 18.7614 18.7614 21 16 21H8C5.23858 21 3 18.7614 3 16V8Z" fill="#23294A"/>
<path fill-rule="evenodd" clip-rule="evenodd" d="M12 11.75C10.9613 11.75 9.96504 12.1626 9.23053 12.8972C8.93763 13.1901 8.46276 13.1901 8.16987 12.8972C7.87697 12.6043 7.87697 12.1294 8.16987 11.8365C9.18569 10.8207 10.5634 10.25 12 10.25C13.4366 10.25 14.8144 10.8207 15.8302 11.8365C16.1231 12.1294 16.1231 12.6043 15.8302 12.8972C15.5373 13.1901 15.0624 13.1901 14.7695 12.8972C14.035 12.1626 13.0388 11.75 12 11.75Z" fill="#9D9EA5"/>
<path fill-rule="evenodd" clip-rule="evenodd" d="M12 14.417C11.5801 14.417 11.1774 14.5838 10.8804 14.8807C10.5875 15.1736 10.1127 15.1736 9.81977 14.8807C9.52687 14.5878 9.52687 14.113 9.81977 13.8201C10.398 13.2418 11.1823 12.917 12 12.917C12.8178 12.917 13.602 13.2418 14.1803 13.8201C14.4732 14.113 14.4732 14.5878 14.1803 14.8807C13.8874 15.1736 13.4125 15.1736 13.1196 14.8807C12.8227 14.5838 12.4199 14.417 12 14.417Z" fill="#9D9EA5"/>
<path d="M12.7777 16.7778C12.7777 17.2073 12.4295 17.5556 11.9999 17.5556C11.5704 17.5556 11.2222 17.2073 11.2222 16.7778C11.2222 16.3482 11.5704 16 11.9999 16C12.4295 16 12.7777 16.3482 12.7777 16.7778Z" fill="#9D9EA5"/>
<path fill-rule="evenodd" clip-rule="evenodd" d="M12 8.75C10.3424 8.75 8.75273 9.40848 7.58062 10.5806C7.28773 10.8735 6.81286 10.8735 6.51996 10.5806C6.22707 10.2877 6.22707 9.81282 6.51996 9.51992C7.97337 8.06652 9.94461 7.25 12 7.25C14.0555 7.25 16.0267 8.06652 17.4801 9.51992C17.773 9.81281 17.773 10.2877 17.4801 10.5806C17.1872 10.8735 16.7124 10.8735 16.4195 10.5806C15.2474 9.40848 13.6576 8.75 12 8.75Z" fill="#9D9EA5"/>
</svg>
