<svg width="24" height="24" viewBox="0 0 24 24" fill="none" xmlns="http://www.w3.org/2000/svg">
<path fill-rule="evenodd" clip-rule="evenodd" d="M13.0094 7.81856C12.6734 7.939 12.2885 8.07693 11.9343 8.16414C11.7632 8.20624 11.5592 8.22669 11.3407 8.18797C11.0139 8.13004 10.6503 7.98872 10.3472 7.87092C10.2678 7.84007 10.1926 7.81084 10.1233 7.78513C9.75258 7.64771 9.38456 7.53594 8.97336 7.50831C7.99914 7.56869 7.2737 7.9533 6.75893 8.53266C6.22645 9.13196 5.88103 9.98513 5.78034 11.0109C5.57878 13.0641 6.37791 15.6666 8.32424 17.7558C8.62789 18.0419 8.83387 18.1403 9.02348 18.1676C9.23093 18.1974 9.54897 18.1606 10.1087 17.9107L10.1166 17.9072L10.1166 17.9072C11.2962 17.3967 12.3701 17.4174 13.4922 17.9084L13.5011 17.9123L13.5011 17.9124C13.8924 18.0897 14.2157 18.1713 14.4902 18.1575C14.7365 18.1452 15.0028 18.054 15.2998 17.7555L15.5654 18.0157L15.3129 17.7434C16.0884 17.0243 16.6256 16.0689 17.0608 15.0077C14.8546 13.5773 14.2966 10.192 16.5019 8.2023C16.0348 7.78601 15.4183 7.53586 14.616 7.46921C14.2503 7.44271 13.874 7.52521 13.4237 7.67365C13.3001 7.7144 13.1596 7.76473 13.0094 7.81856ZM16.337 18.8394C17.4953 17.7635 18.1735 16.345 18.6699 15.0093C18.8329 14.5706 18.61 14.1121 18.22 13.9362C16.3611 13.0983 15.9092 10.3182 17.9118 9.0047C18.2835 8.76091 18.4411 8.22427 18.1415 7.80209C17.3514 6.68841 16.177 6.09276 14.736 5.97401L14.736 5.97398L14.7298 5.97352C14.0666 5.9244 13.4645 6.08078 12.954 6.24907C12.7468 6.3174 12.5659 6.38269 12.3976 6.44343C12.111 6.5469 11.8609 6.63716 11.5795 6.70669C11.4173 6.67488 11.2496 6.61013 10.9981 6.51306C10.8959 6.4736 10.7799 6.42879 10.6447 6.37869C10.2097 6.21741 9.6646 6.04305 9.0148 6.00811L8.97504 6.00597L8.93528 6.00805C7.55566 6.08036 6.43624 6.63749 5.6376 7.53635C4.84959 8.42325 4.41181 9.59816 4.28751 10.8643C4.0396 13.3897 5.01861 16.4183 7.24404 18.7969L7.25879 18.8126L7.27442 18.8275C7.69951 19.2324 8.18408 19.5623 8.80987 19.6523C9.41969 19.74 10.0432 19.5822 10.716 19.2823C11.5047 18.9418 12.1433 18.9564 12.8868 19.2808C13.3773 19.5025 13.9522 19.6863 14.565 19.6557C15.1976 19.6241 15.8006 19.3676 16.337 18.8394Z" fill="#23294A"/>
<path fill-rule="evenodd" clip-rule="evenodd" d="M11.542 5.64893C11.4005 5.66664 11.2624 5.59772 11.1914 5.47397C10.9058 4.97581 10.8979 4.26133 11.2249 3.60597C11.552 2.95061 12.1276 2.52731 12.6974 2.45602C12.8389 2.43831 12.9771 2.50723 13.048 2.63098C13.3336 3.12913 13.3415 3.84362 13.0145 4.49898C12.6875 5.15434 12.1118 5.57764 11.542 5.64893Z" fill="#23294A"/>
</svg>
