<svg width="24" height="24" viewBox="0 0 24 24" fill="none" xmlns="http://www.w3.org/2000/svg">
<path fill-rule="evenodd" clip-rule="evenodd" d="M5.25 9.8C5.25 7.2871 7.2871 5.25 9.8 5.25H14.2C16.7129 5.25 18.75 7.2871 18.75 9.8V14.2C18.75 16.7129 16.7129 18.75 14.2 18.75H9.8C7.2871 18.75 5.25 16.7129 5.25 14.2V9.8ZM9.8 6.75C8.11553 6.75 6.75 8.11553 6.75 9.8V14.2C6.75 15.8845 8.11553 17.25 9.8 17.25H14.2C15.8845 17.25 17.25 15.8845 17.25 14.2V9.8C17.25 8.11553 15.8845 6.75 14.2 6.75H9.8Z" fill="#23294A"/>
<path fill-rule="evenodd" clip-rule="evenodd" d="M20 8.25C20.4142 8.25 20.75 8.58579 20.75 9V10C20.75 10.4142 20.4142 10.75 20 10.75C19.5858 10.75 19.25 10.4142 19.25 10V9C19.25 8.58579 19.5858 8.25 20 8.25Z" fill="#23294A"/>
<path fill-rule="evenodd" clip-rule="evenodd" d="M20 11.25C20.4142 11.25 20.75 11.5858 20.75 12V14C20.75 14.4142 20.4142 14.75 20 14.75C19.5858 14.75 19.25 14.4142 19.25 14V12C19.25 11.5858 19.5858 11.25 20 11.25Z" fill="#23294A"/>
<path fill-rule="evenodd" clip-rule="evenodd" d="M15.5 17.25C15.9142 17.25 16.25 17.5858 16.25 18V20C16.25 20.4142 15.9142 20.75 15.5 20.75C15.0858 20.75 14.75 20.4142 14.75 20V18C14.75 17.5858 15.0858 17.25 15.5 17.25Z" fill="#23294A"/>
<path fill-rule="evenodd" clip-rule="evenodd" d="M15.5 3.25C15.9142 3.25 16.25 3.58579 16.25 4V6C16.25 6.41421 15.9142 6.75 15.5 6.75C15.0858 6.75 14.75 6.41421 14.75 6V4C14.75 3.58579 15.0858 3.25 15.5 3.25Z" fill="#23294A"/>
<path fill-rule="evenodd" clip-rule="evenodd" d="M8.5 17.25C8.91421 17.25 9.25 17.5858 9.25 18V20C9.25 20.4142 8.91421 20.75 8.5 20.75C8.08579 20.75 7.75 20.4142 7.75 20V18C7.75 17.5858 8.08579 17.25 8.5 17.25Z" fill="#23294A"/>
<path fill-rule="evenodd" clip-rule="evenodd" d="M8.5 3.25C8.91421 3.25 9.25 3.58579 9.25 4V6C9.25 6.41421 8.91421 6.75 8.5 6.75C8.08579 6.75 7.75 6.41421 7.75 6V4C7.75 3.58579 8.08579 3.25 8.5 3.25Z" fill="#23294A"/>
<path fill-rule="evenodd" clip-rule="evenodd" d="M12 9.25C12.4142 9.25 12.75 9.58579 12.75 10V12.1893L13.5303 12.9697C13.8232 13.2626 13.8232 13.7374 13.5303 14.0303C13.2374 14.3232 12.7626 14.3232 12.4697 14.0303L11.6161 13.1768C11.3817 12.9424 11.25 12.6244 11.25 12.2929V10C11.25 9.58579 11.5858 9.25 12 9.25Z" fill="#23294A"/>
</svg>
