<svg width="24" height="24" viewBox="0 0 24 24" fill="none" xmlns="http://www.w3.org/2000/svg">
<path fill-rule="evenodd" clip-rule="evenodd" d="M2.25 8C2.25 4.82436 4.82436 2.25 8 2.25H16C19.1756 2.25 21.75 4.82436 21.75 8V16C21.75 19.1756 19.1756 21.75 16 21.75H8C4.82436 21.75 2.25 19.1756 2.25 16V8ZM8 3.75C5.65279 3.75 3.75 5.65279 3.75 8V16C3.75 18.3472 5.65279 20.25 8 20.25H16C18.3472 20.25 20.25 18.3472 20.25 16V8C20.25 5.65279 18.3472 3.75 16 3.75H8Z" fill="#23294A"/>
<path fill-rule="evenodd" clip-rule="evenodd" d="M16.75 12C16.75 12.4142 16.4142 12.75 16 12.75L9 12.75C8.58579 12.75 8.25 12.4142 8.25 12C8.25 11.5858 8.58579 11.25 9 11.25L16 11.25C16.4142 11.25 16.75 11.5858 16.75 12Z" fill="#23294A"/>
<path fill-rule="evenodd" clip-rule="evenodd" d="M11.5303 15.5303C11.2374 15.8232 10.7626 15.8232 10.4697 15.5303L7.82322 12.8839C7.33507 12.3957 7.33507 11.6043 7.82322 11.1161L10.4697 8.46967C10.7626 8.17678 11.2374 8.17678 11.5303 8.46967C11.8232 8.76256 11.8232 9.23744 11.5303 9.53033L9.06066 12L11.5303 14.4697C11.8232 14.7626 11.8232 15.2374 11.5303 15.5303Z" fill="#23294A"/>
</svg>
