<svg width="24" height="24" viewBox="0 0 24 24" fill="none" xmlns="http://www.w3.org/2000/svg">
<path fill-rule="evenodd" clip-rule="evenodd" d="M2.25 8C2.25 4.82436 4.82436 2.25 8 2.25H16C19.1756 2.25 21.75 4.82436 21.75 8V16C21.75 19.1756 19.1756 21.75 16 21.75H8C4.82436 21.75 2.25 19.1756 2.25 16V8ZM8 3.75C5.65279 3.75 3.75 5.65279 3.75 8V16C3.75 18.3472 5.65279 20.25 8 20.25H16C18.3472 20.25 20.25 18.3472 20.25 16V8C20.25 5.65279 18.3472 3.75 16 3.75H8Z" fill="#23294A"/>
<path fill-rule="evenodd" clip-rule="evenodd" d="M12 16.75C11.5858 16.75 11.25 16.4142 11.25 16L11.25 9C11.25 8.58579 11.5858 8.25 12 8.25C12.4142 8.25 12.75 8.58579 12.75 9L12.75 16C12.75 16.4142 12.4142 16.75 12 16.75Z" fill="#23294A"/>
<path fill-rule="evenodd" clip-rule="evenodd" d="M8.46967 11.5303C8.17678 11.2374 8.17678 10.7626 8.46967 10.4697L11.1161 7.82322C11.6043 7.33507 12.3957 7.33507 12.8839 7.82322L15.5303 10.4697C15.8232 10.7626 15.8232 11.2374 15.5303 11.5303C15.2374 11.8232 14.7626 11.8232 14.4697 11.5303L12 9.06066L9.53033 11.5303C9.23744 11.8232 8.76256 11.8232 8.46967 11.5303Z" fill="#23294A"/>
</svg>
