<svg width="24" height="24" viewBox="0 0 24 24" fill="none" xmlns="http://www.w3.org/2000/svg">
<path fill-rule="evenodd" clip-rule="evenodd" d="M12 3.75C7.44365 3.75 3.75 7.44365 3.75 12C3.75 16.5563 7.44365 20.25 12 20.25C16.5563 20.25 20.25 16.5563 20.25 12C20.25 7.44365 16.5563 3.75 12 3.75ZM2.25 12C2.25 6.61522 6.61522 2.25 12 2.25C17.3848 2.25 21.75 6.61522 21.75 12C21.75 17.3848 17.3848 21.75 12 21.75C6.61522 21.75 2.25 17.3848 2.25 12Z" fill="#23294A"/>
<path fill-rule="evenodd" clip-rule="evenodd" d="M16.8172 3.82054C17.1925 3.99571 17.3548 4.44199 17.1796 4.81734L17.0345 5.12829C15.0018 9.48407 15.0018 14.5163 17.0345 18.8721L17.1796 19.183C17.3548 19.5584 17.1925 20.0047 16.8172 20.1798C16.4418 20.355 15.9955 20.1927 15.8204 19.8173L15.6753 19.5064C13.4549 14.7485 13.4549 9.25182 15.6753 4.49396L15.8204 4.18301C15.9955 3.80766 16.4418 3.64538 16.8172 3.82054Z" fill="#23294A"/>
<path fill-rule="evenodd" clip-rule="evenodd" d="M7.16459 3.82934C7.53507 3.6441 7.98558 3.79427 8.17082 4.16475C10.4881 8.7993 10.6271 14.2237 8.55022 18.9708L8.18712 19.8008C8.02109 20.1803 7.57887 20.3533 7.19939 20.1873C6.8199 20.0213 6.64686 19.579 6.81288 19.1995L7.17598 18.3696C9.07442 14.0303 8.94737 9.07195 6.82918 4.83557C6.64394 4.46509 6.79411 4.01459 7.16459 3.82934Z" fill="#23294A"/>
<path fill-rule="evenodd" clip-rule="evenodd" d="M2.87032 10.5927C3.09535 10.2449 3.55968 10.1454 3.90744 10.3704C8.83198 13.5569 15.168 13.5569 20.0926 10.3704C20.4403 10.1454 20.9047 10.2449 21.1297 10.5927C21.3547 10.9404 21.2552 11.4047 20.9074 11.6298C15.487 15.1371 8.51297 15.1371 3.09256 11.6298C2.7448 11.4047 2.6453 10.9404 2.87032 10.5927Z" fill="#23294A"/>
</svg>
