<svg width="24" height="24" viewBox="0 0 24 24" fill="none" xmlns="http://www.w3.org/2000/svg">
<path fill-rule="evenodd" clip-rule="evenodd" d="M3.25 10.5C3.25 8.15279 5.15279 6.25 7.5 6.25H15.5C17.8472 6.25 19.75 8.15279 19.75 10.5V13.5C19.75 15.8472 17.8472 17.75 15.5 17.75H7.5C5.15279 17.75 3.25 15.8472 3.25 13.5V10.5ZM7.5 7.75C5.98122 7.75 4.75 8.98122 4.75 10.5V13.5C4.75 15.0188 5.98122 16.25 7.5 16.25H15.5C17.0188 16.25 18.25 15.0188 18.25 13.5V10.5C18.25 8.98122 17.0188 7.75 15.5 7.75H7.5Z" fill="#23294A"/>
<path fill-rule="evenodd" clip-rule="evenodd" d="M21 9.25C21.4142 9.25 21.75 9.58579 21.75 10L21.75 14C21.75 14.4142 21.4142 14.75 21 14.75C20.5858 14.75 20.25 14.4142 20.25 14L20.25 10C20.25 9.58579 20.5858 9.25 21 9.25Z" fill="#23294A"/>
<path fill-rule="evenodd" clip-rule="evenodd" d="M7 9.25C7.41421 9.25 7.75 9.58579 7.75 10L7.75 14C7.75 14.4142 7.41421 14.75 7 14.75C6.58579 14.75 6.25 14.4142 6.25 14L6.25 10C6.25 9.58579 6.58579 9.25 7 9.25Z" fill="#23294A"/>
</svg>
