<svg width="24" height="24" viewBox="0 0 24 24" fill="none" xmlns="http://www.w3.org/2000/svg">
<path fill-rule="evenodd" clip-rule="evenodd" d="M5.7 4.75C5.17533 4.75 4.75 5.17533 4.75 5.7V7.3C4.75 7.82467 5.17533 8.25 5.7 8.25H12.3C12.8247 8.25 13.25 7.82467 13.25 7.3V5.7C13.25 5.17533 12.8247 4.75 12.3 4.75H5.7ZM3.25 5.7C3.25 4.3469 4.3469 3.25 5.7 3.25H12.3C13.6531 3.25 14.75 4.3469 14.75 5.7V7.3C14.75 8.6531 13.6531 9.75 12.3 9.75H5.7C4.3469 9.75 3.25 8.6531 3.25 7.3V5.7Z" fill="#23294A"/>
<path fill-rule="evenodd" clip-rule="evenodd" d="M13.25 6C13.25 5.58579 13.5858 5.25 14 5.25H16C18.0711 5.25 19.75 6.92893 19.75 9C19.75 11.0711 18.0711 12.75 16 12.75H10.5C10.0858 12.75 9.75 13.0858 9.75 13.5C9.75 13.9142 9.41421 14.25 9 14.25C8.58579 14.25 8.25 13.9142 8.25 13.5C8.25 12.2574 9.25736 11.25 10.5 11.25H16C17.2426 11.25 18.25 10.2426 18.25 9C18.25 7.75736 17.2426 6.75 16 6.75H14C13.5858 6.75 13.25 6.41421 13.25 6Z" fill="#23294A"/>
<path fill-rule="evenodd" clip-rule="evenodd" d="M11.5 3.25C11.9142 3.25 12.25 3.58579 12.25 4V6C12.25 6.41421 11.9142 6.75 11.5 6.75C11.0858 6.75 10.75 6.41421 10.75 6V4C10.75 3.58579 11.0858 3.25 11.5 3.25Z" fill="#23294A"/>
<path fill-rule="evenodd" clip-rule="evenodd" d="M9 3.25C9.41421 3.25 9.75 3.58579 9.75 4V6C9.75 6.41421 9.41421 6.75 9 6.75C8.58579 6.75 8.25 6.41421 8.25 6V4C8.25 3.58579 8.58579 3.25 9 3.25Z" fill="#23294A"/>
<path fill-rule="evenodd" clip-rule="evenodd" d="M6 3.25C6.41421 3.25 6.75 3.58579 6.75 4V6C6.75 6.41421 6.41421 6.75 6 6.75C5.58579 6.75 5.25 6.41421 5.25 6V4C5.25 3.58579 5.58579 3.25 6 3.25Z" fill="#23294A"/>
<path fill-rule="evenodd" clip-rule="evenodd" d="M8.28021 14.25C8.0198 14.25 7.85044 14.524 7.96689 14.7569C8.18635 15.1959 8.22246 15.704 8.06728 16.1695L7.92222 16.6047C7.8367 16.8613 7.8367 17.1387 7.92222 17.3953L8.00059 17.6304L7.28907 17.8675L8.00059 17.6304C8.18875 18.1949 8.18875 18.8051 8.00059 19.3696L7.85328 19.8116C7.82534 19.8954 7.83184 19.9868 7.87135 20.0659C7.92778 20.1787 8.04312 20.25 8.16929 20.25H9.8305C9.95667 20.25 10.072 20.1787 10.1284 20.0659C10.1679 19.9868 10.1744 19.8954 10.1465 19.8116L9.9992 19.3696L10.7107 19.1325L9.9992 19.3696C9.81104 18.8051 9.81104 18.1949 9.9992 17.6304L10.7107 17.8675L9.9992 17.6304L10.0776 17.3953C10.1631 17.1387 10.1631 16.8613 10.0776 16.6047L9.9325 16.1695C9.77732 15.704 9.81343 15.1959 10.0329 14.7569C10.1493 14.524 9.97998 14.25 9.71958 14.25H8.28021ZM6.62525 15.4278C6.01012 14.1975 6.90473 12.75 8.28021 12.75H9.71958C11.0951 12.75 11.9897 14.1975 11.3745 15.4278C11.333 15.5109 11.3261 15.6071 11.3555 15.6952L11.5006 16.1304L10.7891 16.3675L11.5006 16.1304C11.6887 16.6949 11.6887 17.3051 11.5006 17.8696L11.4222 18.1047C11.3367 18.3613 11.3367 18.6387 11.4222 18.8953L11.5695 19.3372C11.7233 19.7984 11.6875 20.3018 11.4701 20.7367C11.1596 21.3577 10.5248 21.75 9.8305 21.75H8.16929C7.47496 21.75 6.84022 21.3577 6.52971 20.7367L7.20053 20.4013L6.52971 20.7367C6.31229 20.3018 6.27651 19.7984 6.43025 19.3372L6.57756 18.8953C6.66309 18.6387 6.66309 18.3613 6.57756 18.1047L6.4992 17.8696L7.21071 17.6325L6.4992 17.8696C6.31104 17.3051 6.31104 16.6949 6.4992 16.1304L6.64426 15.6952C6.67364 15.6071 6.6668 15.5109 6.62525 15.4278Z" fill="#23294A"/>
</svg>
