<svg width="24" height="24" viewBox="0 0 24 24" fill="none" xmlns="http://www.w3.org/2000/svg">
<path fill-rule="evenodd" clip-rule="evenodd" d="M3.25 8.44444C3.25 5.57563 5.57563 3.25 8.44444 3.25H15.5556C18.4244 3.25 20.75 5.57563 20.75 8.44444V15.5556C20.75 18.4244 18.4244 20.75 15.5556 20.75H8.44444C5.57563 20.75 3.25 18.4244 3.25 15.5556V8.44444ZM8.44444 4.75C6.40406 4.75 4.75 6.40406 4.75 8.44444V15.5556C4.75 17.5959 6.40406 19.25 8.44444 19.25H15.5556C17.5959 19.25 19.25 17.5959 19.25 15.5556V8.44444C19.25 6.40406 17.5959 4.75 15.5556 4.75H8.44444Z" fill="#23294A"/>
<path fill-rule="evenodd" clip-rule="evenodd" d="M3.75 7.5C3.75 7.08579 4.08579 6.75 4.5 6.75H19.5C19.9142 6.75 20.25 7.08579 20.25 7.5C20.25 7.91421 19.9142 8.25 19.5 8.25H4.5C4.08579 8.25 3.75 7.91421 3.75 7.5Z" fill="#23294A"/>
<path fill-rule="evenodd" clip-rule="evenodd" d="M15.75 13.5C15.75 13.0858 16.0858 12.75 16.5 12.75H17.5C17.9142 12.75 18.25 13.0858 18.25 13.5C18.25 13.9142 17.9142 14.25 17.5 14.25H16.5C16.0858 14.25 15.75 13.9142 15.75 13.5Z" fill="#23294A"/>
<path fill-rule="evenodd" clip-rule="evenodd" d="M9.75 13.5C9.75 13.0858 10.0858 12.75 10.5 12.75H13.5C13.9142 12.75 14.25 13.0858 14.25 13.5C14.25 13.9142 13.9142 14.25 13.5 14.25H10.5C10.0858 14.25 9.75 13.9142 9.75 13.5Z" fill="#23294A"/>
<path fill-rule="evenodd" clip-rule="evenodd" d="M6.25 13.5C6.25 13.0858 6.58579 12.75 7 12.75H7.5C7.91421 12.75 8.25 13.0858 8.25 13.5C8.25 13.9142 7.91421 14.25 7.5 14.25H7C6.58579 14.25 6.25 13.9142 6.25 13.5Z" fill="#23294A"/>
<path fill-rule="evenodd" clip-rule="evenodd" d="M14.75 16.5C14.75 16.0858 15.0858 15.75 15.5 15.75H17.5C17.9142 15.75 18.25 16.0858 18.25 16.5C18.25 16.9142 17.9142 17.25 17.5 17.25H15.5C15.0858 17.25 14.75 16.9142 14.75 16.5Z" fill="#23294A"/>
<path fill-rule="evenodd" clip-rule="evenodd" d="M6.25 16.5C6.25 16.0858 6.58579 15.75 7 15.75H8C8.41421 15.75 8.75 16.0858 8.75 16.5C8.75 16.9142 8.41421 17.25 8 17.25H7C6.58579 17.25 6.25 16.9142 6.25 16.5Z" fill="#23294A"/>
<path fill-rule="evenodd" clip-rule="evenodd" d="M9.75 16.5C9.75 16.0858 10.0858 15.75 10.5 15.75H13.5C13.9142 15.75 14.25 16.0858 14.25 16.5C14.25 16.9142 13.9142 17.25 13.5 17.25H10.5C10.0858 17.25 9.75 16.9142 9.75 16.5Z" fill="#23294A"/>
<path fill-rule="evenodd" clip-rule="evenodd" d="M15.5 1.75C15.9142 1.75 16.25 2.08579 16.25 2.5V5.5C16.25 5.91421 15.9142 6.25 15.5 6.25C15.0858 6.25 14.75 5.91421 14.75 5.5V2.5C14.75 2.08579 15.0858 1.75 15.5 1.75Z" fill="#23294A"/>
<path fill-rule="evenodd" clip-rule="evenodd" d="M8.5 1.75C8.91421 1.75 9.25 2.08579 9.25 2.5V5.5C9.25 5.91421 8.91421 6.25 8.5 6.25C8.08579 6.25 7.75 5.91421 7.75 5.5V2.5C7.75 2.08579 8.08579 1.75 8.5 1.75Z" fill="#23294A"/>
</svg>
