<svg width="24" height="24" viewBox="0 0 24 24" fill="none" xmlns="http://www.w3.org/2000/svg">
<path fill-rule="evenodd" clip-rule="evenodd" d="M18.5303 5.96967C18.8232 6.26256 18.8232 6.73744 18.5303 7.03033L15.5303 10.0303C15.2374 10.3232 14.7626 10.3232 14.4697 10.0303C14.1768 9.73744 14.1768 9.26256 14.4697 8.96967L17.4697 5.96967C17.7626 5.67678 18.2374 5.67678 18.5303 5.96967Z" fill="#23294A"/>
<path fill-rule="evenodd" clip-rule="evenodd" d="M14.4697 5.96967C14.7626 5.67678 15.2374 5.67678 15.5303 5.96967L18.5303 8.96967C18.8232 9.26256 18.8232 9.73744 18.5303 10.0303C18.2374 10.3232 17.7626 10.3232 17.4697 10.0303L14.4697 7.03033C14.1768 6.73744 14.1768 6.26256 14.4697 5.96967Z" fill="#23294A"/>
<path fill-rule="evenodd" clip-rule="evenodd" d="M5.88407 3.50907C7.16682 2.6539 8.90187 3.02015 9.72956 4.32081L11.2714 6.74368C11.9634 7.83109 11.8073 9.25322 10.8959 10.1646L10.3894 10.6711L10.4622 10.8411C11.1553 12.4584 12.377 13.7898 13.9237 14.6196L14.4741 14.2067C15.3686 13.5359 16.5802 13.4734 17.539 14.0486L19.806 15.4088C21.0337 16.1454 21.4318 17.7379 20.6952 18.9656L20.6636 19.0182L20.0205 18.6324L20.6636 19.0182C20.2503 19.7071 19.6491 20.2638 18.9305 20.6231L18.5923 20.7922C17.9495 21.1136 17.216 21.2056 16.5137 21.053L16.673 20.3201L16.5137 21.053L16.2484 20.9953C9.6911 19.5698 4.72445 14.1969 3.81778 7.54798C3.76464 7.15829 3.78634 6.76205 3.88173 6.3805L3.93862 6.15295C4.19862 5.11293 4.83694 4.20716 5.72892 3.61251L5.88407 3.50907ZM8.46407 5.12612C8.08784 4.53491 7.29919 4.36844 6.71612 4.75715L6.56097 4.86058C5.97946 5.24825 5.56334 5.83874 5.39383 6.51675L5.33695 6.7443C5.28784 6.94072 5.27667 7.1447 5.30402 7.34531C6.12554 13.3697 10.6257 18.2379 16.5671 19.5295L16.4078 20.2624L16.5671 19.5295L16.8323 19.5872C17.2003 19.6672 17.5846 19.619 17.9215 19.4506L18.2597 19.2815L18.5951 19.9523L18.2597 19.2815C18.7231 19.0498 19.1108 18.6907 19.3773 18.2465L19.4089 18.1939L20.0299 18.5664L19.4089 18.1939C19.7193 17.6765 19.5516 17.0055 19.0342 16.6951L16.7673 15.3349C16.3315 15.0734 15.7807 15.1018 15.3741 15.4067L14.6411 15.9565L14.1911 15.3565L14.6411 15.9565C14.2967 16.2148 13.8359 16.2564 13.4509 16.0638L13.7863 15.393L13.4509 16.0638C11.4931 15.085 9.9457 13.4438 9.08348 11.432L8.92687 11.0665C8.73585 10.6208 8.83543 10.1037 9.17832 9.76085L9.8352 9.10397C10.2495 8.68969 10.3204 8.04327 10.0059 7.54899L8.46407 5.12612Z" fill="#23294A"/>
</svg>
