<svg width="24" height="24" viewBox="0 0 24 24" fill="none" xmlns="http://www.w3.org/2000/svg">
<path fill-rule="evenodd" clip-rule="evenodd" d="M2.25 9.7C2.25 7.24233 4.24233 5.25 6.7 5.25H17.3C19.7577 5.25 21.75 7.24233 21.75 9.7V16.3C21.75 18.7577 19.7577 20.75 17.3 20.75H6.7C4.24233 20.75 2.25 18.7577 2.25 16.3V9.7ZM6.7 6.75C5.07076 6.75 3.75 8.07076 3.75 9.7V16.3C3.75 17.9292 5.07076 19.25 6.7 19.25H17.3C18.9292 19.25 20.25 17.9292 20.25 16.3V9.7C20.25 8.07076 18.9292 6.75 17.3 6.75H6.7Z" fill="#23294A"/>
<path fill-rule="evenodd" clip-rule="evenodd" d="M8 11.75C7.30964 11.75 6.75 12.3096 6.75 13C6.75 13.6904 7.30964 14.25 8 14.25C8.69036 14.25 9.25 13.6904 9.25 13C9.25 12.3096 8.69036 11.75 8 11.75ZM5.25 13C5.25 11.4812 6.48122 10.25 8 10.25C9.51878 10.25 10.75 11.4812 10.75 13C10.75 14.5188 9.51878 15.75 8 15.75C6.48122 15.75 5.25 14.5188 5.25 13Z" fill="#23294A"/>
<path fill-rule="evenodd" clip-rule="evenodd" d="M7.25 4C7.25 3.58579 7.58579 3.25 8 3.25H17C17.4142 3.25 17.75 3.58579 17.75 4C17.75 4.41421 17.4142 4.75 17 4.75H8C7.58579 4.75 7.25 4.41421 7.25 4Z" fill="#23294A"/>
<path fill-rule="evenodd" clip-rule="evenodd" d="M14.25 9C14.25 8.58579 14.5858 8.25 15 8.25H17C17.4142 8.25 17.75 8.58579 17.75 9C17.75 9.41421 17.4142 9.75 17 9.75H15C14.5858 9.75 14.25 9.41421 14.25 9Z" fill="#23294A"/>
</svg>
