<svg width="24" height="24" viewBox="0 0 24 24" fill="none" xmlns="http://www.w3.org/2000/svg">
<path fill-rule="evenodd" clip-rule="evenodd" d="M5.25 5.7C5.25 4.3469 6.3469 3.25 7.7 3.25H9.3C10.6531 3.25 11.75 4.3469 11.75 5.7V7.3C11.75 8.6531 10.6531 9.75 9.3 9.75H7.7C6.3469 9.75 5.25 8.6531 5.25 7.3V5.7ZM7.7 4.75C7.17533 4.75 6.75 5.17533 6.75 5.7V7.3C6.75 7.82467 7.17533 8.25 7.7 8.25H9.3C9.82467 8.25 10.25 7.82467 10.25 7.3V5.7C10.25 5.17533 9.82467 4.75 9.3 4.75H7.7Z" fill="#23294A"/>
<path fill-rule="evenodd" clip-rule="evenodd" d="M5.25 12.7C5.25 11.3469 6.3469 10.25 7.7 10.25H9.3C10.6531 10.25 11.75 11.3469 11.75 12.7V18.3C11.75 19.6531 10.6531 20.75 9.3 20.75H7.7C6.3469 20.75 5.25 19.6531 5.25 18.3V12.7ZM7.7 11.75C7.17533 11.75 6.75 12.1753 6.75 12.7V18.3C6.75 18.8247 7.17533 19.25 7.7 19.25H9.3C9.82467 19.25 10.25 18.8247 10.25 18.3V12.7C10.25 12.1753 9.82467 11.75 9.3 11.75H7.7Z" fill="#23294A"/>
<path fill-rule="evenodd" clip-rule="evenodd" d="M13.25 5.7C13.25 4.3469 14.3469 3.25 15.7 3.25H17.3C18.6531 3.25 19.75 4.3469 19.75 5.7V11.3C19.75 12.6531 18.6531 13.75 17.3 13.75H15.7C14.3469 13.75 13.25 12.6531 13.25 11.3V5.7ZM15.7 4.75C15.1753 4.75 14.75 5.17533 14.75 5.7V11.3C14.75 11.8247 15.1753 12.25 15.7 12.25H17.3C17.8247 12.25 18.25 11.8247 18.25 11.3V5.7C18.25 5.17533 17.8247 4.75 17.3 4.75H15.7Z" fill="#23294A"/>
<path fill-rule="evenodd" clip-rule="evenodd" d="M13.25 16.7C13.25 15.3469 14.3469 14.25 15.7 14.25H17.3C18.6531 14.25 19.75 15.3469 19.75 16.7V18.3C19.75 19.6531 18.6531 20.75 17.3 20.75H15.7C14.3469 20.75 13.25 19.6531 13.25 18.3V16.7ZM15.7 15.75C15.1753 15.75 14.75 16.1753 14.75 16.7V18.3C14.75 18.8247 15.1753 19.25 15.7 19.25H17.3C17.8247 19.25 18.25 18.8247 18.25 18.3V16.7C18.25 16.1753 17.8247 15.75 17.3 15.75H15.7Z" fill="#23294A"/>
</svg>
