<svg width="24" height="24" viewBox="0 0 24 24" fill="none" xmlns="http://www.w3.org/2000/svg">
<path fill-rule="evenodd" clip-rule="evenodd" d="M2.25 8C2.25 4.82436 4.82436 2.25 8 2.25H16C19.1756 2.25 21.75 4.82436 21.75 8V16C21.75 19.1756 19.1756 21.75 16 21.75H8C4.82436 21.75 2.25 19.1756 2.25 16V8ZM8 3.75C5.65279 3.75 3.75 5.65279 3.75 8V16C3.75 18.3472 5.65279 20.25 8 20.25H16C18.3472 20.25 20.25 18.3472 20.25 16V8C20.25 5.65279 18.3472 3.75 16 3.75H8Z" fill="#23294A"/>
<path fill-rule="evenodd" clip-rule="evenodd" d="M9.20654 7.17431C9.82856 6.67669 10.75 7.11956 10.75 7.91614V15C10.75 15.4142 10.4142 15.75 10 15.75C9.58578 15.75 9.25 15.4142 9.25 15V9.06048L7.96852 10.0857C7.64507 10.3444 7.1731 10.292 6.91435 9.96854C6.65559 9.64509 6.70803 9.17312 7.03148 8.91436L9.20654 7.17431Z" fill="#23294A"/>
<path fill-rule="evenodd" clip-rule="evenodd" d="M14 8.25C14.4142 8.25 14.75 8.58579 14.75 9V14.9395L16.0315 13.9143C16.3549 13.6556 16.8269 13.708 17.0857 14.0315C17.3444 14.3549 17.292 14.8269 16.9685 15.0857L14.7935 16.8257L14.3249 16.24L14.7935 16.8257C14.1714 17.3233 13.25 16.8805 13.25 16.0839V9C13.25 8.58579 13.5858 8.25 14 8.25Z" fill="#23294A"/>
</svg>
