<svg width="24" height="24" viewBox="0 0 24 24" fill="none" xmlns="http://www.w3.org/2000/svg">
<path fill-rule="evenodd" clip-rule="evenodd" d="M2.25 8.2C2.25 5.46619 4.46619 3.25 7.2 3.25H16.8C19.5338 3.25 21.75 5.46619 21.75 8.2V14.8C21.75 17.5338 19.5338 19.75 16.8 19.75H16.2426C15.6459 19.75 15.0736 19.9871 14.6516 20.409L13.3789 21.6818C12.6173 22.4433 11.3827 22.4433 10.6211 21.6818L9.34835 20.409C8.92639 19.9871 8.3541 19.75 7.75736 19.75H7.2C4.46619 19.75 2.25 17.5338 2.25 14.8V8.2ZM7.2 4.75C5.29462 4.75 3.75 6.29462 3.75 8.2V14.8C3.75 16.7054 5.29462 18.25 7.2 18.25H7.75736C8.75192 18.25 9.70575 18.6451 10.409 19.3483L11.6818 20.6211C11.8575 20.7969 12.1425 20.7969 12.3182 20.6211L13.591 19.3484C14.2943 18.6451 15.2481 18.25 16.2426 18.25H16.8C18.7054 18.25 20.25 16.7054 20.25 14.8V8.2C20.25 6.29462 18.7054 4.75 16.8 4.75H7.2Z" fill="#23294A"/>
<path fill-rule="evenodd" clip-rule="evenodd" d="M13.25 12C13.25 11.5858 13.5858 11.25 14 11.25H16C16.4142 11.25 16.75 11.5858 16.75 12C16.75 12.4142 16.4142 12.75 16 12.75H14C13.5858 12.75 13.25 12.4142 13.25 12Z" fill="#23294A"/>
<path fill-rule="evenodd" clip-rule="evenodd" d="M7.25 12C7.25 11.5858 7.58579 11.25 8 11.25H10C10.4142 11.25 10.75 11.5858 10.75 12C10.75 12.4142 10.4142 12.75 10 12.75H8C7.58579 12.75 7.25 12.4142 7.25 12Z" fill="#23294A"/>
</svg>
