<svg width="24" height="24" viewBox="0 0 24 24" fill="none" xmlns="http://www.w3.org/2000/svg">
<path fill-rule="evenodd" clip-rule="evenodd" d="M12 3.75C7.44365 3.75 3.75 7.44365 3.75 12C3.75 16.5563 7.44365 20.25 12 20.25C16.5563 20.25 20.25 16.5563 20.25 12C20.25 7.44365 16.5563 3.75 12 3.75ZM2.25 12C2.25 6.61522 6.61522 2.25 12 2.25C17.3848 2.25 21.75 6.61522 21.75 12C21.75 17.3848 17.3848 21.75 12 21.75C6.61522 21.75 2.25 17.3848 2.25 12Z" fill="#23294A"/>
<path fill-rule="evenodd" clip-rule="evenodd" d="M12 8.25C12.4142 8.25 12.75 8.58579 12.75 9V12.1395L14.9685 13.9143C15.292 14.1731 15.3444 14.6451 15.0857 14.9685C14.8269 15.292 14.3549 15.3444 14.0315 15.0857L11.7191 13.2358C11.4226 12.9986 11.25 12.6394 11.25 12.2597V9C11.25 8.58579 11.5858 8.25 12 8.25Z" fill="#23294A"/>
</svg>
