<svg width="24" height="24" viewBox="0 0 24 24" fill="none" xmlns="http://www.w3.org/2000/svg">
<path fill-rule="evenodd" clip-rule="evenodd" d="M3.25 10.6111C3.25 8.15116 5.38021 6.25 7.88889 6.25H14.1111C16.6198 6.25 18.75 8.15116 18.75 10.6111V16.3889C18.75 18.8488 16.6198 20.75 14.1111 20.75H7.88889C5.38021 20.75 3.25 18.8488 3.25 16.3889V10.6111ZM7.88889 7.75C6.10202 7.75 4.75 9.08234 4.75 10.6111V16.3889C4.75 17.9177 6.10202 19.25 7.88889 19.25H14.1111C15.898 19.25 17.25 17.9177 17.25 16.3889V10.6111C17.25 9.08234 15.898 7.75 14.1111 7.75H7.88889Z" fill="#23294A"/>
<path fill-rule="evenodd" clip-rule="evenodd" d="M3.25 11C3.25 10.5858 3.58579 10.25 4 10.25L18 10.25C18.4142 10.25 18.75 10.5858 18.75 11C18.75 11.4142 18.4142 11.75 18 11.75L4 11.75C3.58579 11.75 3.25 11.4142 3.25 11Z" fill="#23294A"/>
<path fill-rule="evenodd" clip-rule="evenodd" d="M18.75 10.3246V14.6754C19.6151 14.435 20.25 13.6417 20.25 12.7V12.3C20.25 11.3583 19.6151 10.565 18.75 10.3246ZM17.25 9.7C17.25 9.17533 17.6753 8.75 18.2 8.75C20.1606 8.75 21.75 10.3394 21.75 12.3V12.7C21.75 14.6606 20.1606 16.25 18.2 16.25C17.6753 16.25 17.25 15.8247 17.25 15.3V9.7Z" fill="#23294A"/>
<path fill-rule="evenodd" clip-rule="evenodd" d="M14 2.75C14.4142 2.75 14.75 3.08579 14.75 3.5V5C14.75 5.41421 14.4142 5.75 14 5.75C13.5858 5.75 13.25 5.41421 13.25 5V3.5C13.25 3.08579 13.5858 2.75 14 2.75Z" fill="#23294A"/>
<path fill-rule="evenodd" clip-rule="evenodd" d="M11 2.75C11.4142 2.75 11.75 3.08579 11.75 3.5V5C11.75 5.41421 11.4142 5.75 11 5.75C10.5858 5.75 10.25 5.41421 10.25 5V3.5C10.25 3.08579 10.5858 2.75 11 2.75Z" fill="#23294A"/>
<path fill-rule="evenodd" clip-rule="evenodd" d="M8 2.75C8.41421 2.75 8.75 3.08579 8.75 3.5V5C8.75 5.41421 8.41421 5.75 8 5.75C7.58579 5.75 7.25 5.41421 7.25 5V3.5C7.25 3.08579 7.58579 2.75 8 2.75Z" fill="#23294A"/>
</svg>
