<svg width="24" height="24" viewBox="0 0 24 24" fill="none" xmlns="http://www.w3.org/2000/svg">
<path fill-rule="evenodd" clip-rule="evenodd" d="M4.25 6.8C4.25 5.39167 5.39167 4.25 6.8 4.25H8.2C9.60833 4.25 10.75 5.39167 10.75 6.8V8.75H13.25V6.8C13.25 5.39167 14.3917 4.25 15.8 4.25H17.2C18.6083 4.25 19.75 5.39167 19.75 6.8V7.7C19.75 9.10833 18.6083 10.25 17.2 10.25H14.75V13.75H17.2C18.6083 13.75 19.75 14.8917 19.75 16.3V17.2C19.75 18.6083 18.6083 19.75 17.2 19.75H15.8C14.3917 19.75 13.25 18.6083 13.25 17.2V15.25H10.75V17.2C10.75 18.6083 9.60833 19.75 8.2 19.75H6.8C5.39167 19.75 4.25 18.6083 4.25 17.2V16.3C4.25 14.8917 5.39167 13.75 6.8 13.75H9.25V10.25H6.8C5.39167 10.25 4.25 9.10833 4.25 7.7V6.8ZM9.25 8.75V6.8C9.25 6.2201 8.7799 5.75 8.2 5.75H6.8C6.2201 5.75 5.75 6.2201 5.75 6.8V7.7C5.75 8.2799 6.2201 8.75 6.8 8.75H9.25ZM10.75 10.25V13.75H13.25V10.25H10.75ZM9.25 15.25H6.8C6.2201 15.25 5.75 15.7201 5.75 16.3V17.2C5.75 17.7799 6.2201 18.25 6.8 18.25H8.2C8.7799 18.25 9.25 17.7799 9.25 17.2V15.25ZM14.75 15.25V17.2C14.75 17.7799 15.2201 18.25 15.8 18.25H17.2C17.7799 18.25 18.25 17.7799 18.25 17.2V16.3C18.25 15.7201 17.7799 15.25 17.2 15.25H14.75ZM14.75 8.75H17.2C17.7799 8.75 18.25 8.2799 18.25 7.7V6.8C18.25 6.2201 17.7799 5.75 17.2 5.75H15.8C15.2201 5.75 14.75 6.2201 14.75 6.8V8.75Z" fill="#23294A"/>
</svg>
