<svg width="24" height="24" viewBox="0 0 24 24" fill="none" xmlns="http://www.w3.org/2000/svg">
<path fill-rule="evenodd" clip-rule="evenodd" d="M12.2109 5.22857C12.1127 5.0742 11.8873 5.0742 11.7891 5.22858L9.62734 8.6256C9.11242 9.43476 7.96786 9.53003 7.32625 8.81713L4.75 5.95463V14.5002C4.75 16.2951 6.20507 17.7502 8 17.7502H16C17.7949 17.7502 19.25 16.2951 19.25 14.5002V5.95463L16.6737 8.81713C16.0321 9.53003 14.8876 9.43476 14.3727 8.6256L12.2109 5.22857L12.8377 4.8297L12.2109 5.22857ZM10.5236 4.42326C11.2113 3.34264 12.7887 3.34263 13.4764 4.42326L15.6028 7.76478L18.2222 4.85434C19.1112 3.86657 20.75 4.49543 20.75 5.82433V14.5002C20.75 17.1235 18.6234 19.2502 16 19.2502H8C5.37665 19.2502 3.25 17.1235 3.25 14.5002V5.82433C3.25 4.49543 4.88879 3.86657 5.77778 4.85433L8.39717 7.76478L10.5236 4.42326Z" fill="#23294A"/>
</svg>
