<svg width="24" height="24" viewBox="0 0 24 24" fill="none" xmlns="http://www.w3.org/2000/svg">
<path fill-rule="evenodd" clip-rule="evenodd" d="M10.275 5.12969C11.3424 4.51341 12.6576 4.51341 13.725 5.12969L17.0872 7.07085C18.1546 7.68713 18.8122 8.82607 18.8122 10.0586V13.9409C18.8122 15.1735 18.1546 16.3124 17.0872 16.9287L13.725 18.8699C12.6576 19.4862 11.3424 19.4862 10.275 18.8699L6.91284 16.9287C5.8454 16.3124 5.18784 15.1735 5.18784 13.9409V10.0586C5.18784 8.82607 5.8454 7.68713 6.91284 7.07085L10.275 5.12969ZM12.975 6.42873C12.3717 6.0804 11.6283 6.0804 11.025 6.42873L7.66284 8.36989C7.0595 8.71822 6.68784 9.36197 6.68784 10.0586V13.9409C6.68784 14.6376 7.0595 15.2814 7.66284 15.6297L11.025 17.5708C11.6283 17.9192 12.3717 17.9192 12.975 17.5708L16.3372 15.6297C16.9405 15.2814 17.3122 14.6376 17.3122 13.9409V10.0586C17.3122 9.36197 16.9405 8.71822 16.3372 8.36989L12.975 6.42873Z" fill="#23294A"/>
<path fill-rule="evenodd" clip-rule="evenodd" d="M17.7133 8.53777C17.9686 8.93173 17.8562 9.45805 17.4622 9.71333L13.0097 12.5986C12.9101 12.6631 12.85 12.7737 12.85 12.8923V18C12.85 18.4694 12.4694 18.85 12 18.85C11.5306 18.85 11.15 18.4694 11.15 18V12.8923C11.15 12.1974 11.502 11.5498 12.0852 11.1719L16.5378 8.28667C16.9317 8.03139 17.458 8.14381 17.7133 8.53777Z" fill="#23294A"/>
<path fill-rule="evenodd" clip-rule="evenodd" d="M6.27113 8.56271C6.51266 8.16017 7.03478 8.02964 7.43732 8.27116L12.4373 11.2712C12.8399 11.5127 12.9704 12.0348 12.7289 12.4374C12.4873 12.8399 11.9652 12.9704 11.5627 12.7289L6.56268 9.7289C6.16014 9.48737 6.02961 8.96525 6.27113 8.56271Z" fill="#23294A"/>
</svg>
