<svg width="24" height="24" viewBox="0 0 24 24" fill="none" xmlns="http://www.w3.org/2000/svg">
<path fill-rule="evenodd" clip-rule="evenodd" d="M8.7219 6.35609C10.1507 3.7843 13.8493 3.7843 15.2781 6.35608L20.1795 15.1787C21.5681 17.6782 19.7608 20.7499 16.9014 20.7499H7.09853C4.23922 20.7499 2.43184 17.6782 3.82044 15.1787L8.7219 6.35609ZM13.9668 7.08455C13.1096 5.54148 10.8904 5.54148 10.0331 7.08455L5.13168 15.9072C4.29852 17.4069 5.38294 19.2499 7.09853 19.2499H16.9014C18.617 19.2499 19.7015 17.4069 18.8683 15.9072L13.9668 7.08455Z" fill="#23294A"/>
<path fill-rule="evenodd" clip-rule="evenodd" d="M12 13.75C11.5858 13.75 11.25 13.4142 11.25 13L11.25 10C11.25 9.58579 11.5858 9.25 12 9.25C12.4142 9.25 12.75 9.58579 12.75 10L12.75 13C12.75 13.4142 12.4142 13.75 12 13.75Z" fill="#23294A"/>
<path d="M13 16C13 16.5523 12.5523 17 12 17C11.4477 17 11 16.5523 11 16C11 15.4477 11.4477 15 12 15C12.5523 15 13 15.4477 13 16Z" fill="#23294A"/>
</svg>
