<svg width="24" height="24" viewBox="0 0 24 24" fill="none" xmlns="http://www.w3.org/2000/svg">
<path fill-rule="evenodd" clip-rule="evenodd" d="M7.8 4.75C6.66782 4.75 5.75 5.66782 5.75 6.8V17.2C5.75 18.3322 6.66782 19.25 7.8 19.25H16.2C17.3322 19.25 18.25 18.3322 18.25 17.2V8.70246C18.25 8.16436 18.0384 7.64783 17.6609 7.26435L18.1954 6.73821L17.6609 7.26435L15.7882 5.36189C15.4029 4.97044 14.8766 4.75 14.3273 4.75H7.8ZM4.25 6.8C4.25 4.83939 5.83939 3.25 7.8 3.25H14.3273C15.2785 3.25 16.1899 3.63173 16.8572 4.30961L18.7299 6.21207C19.3836 6.87615 19.75 7.77062 19.75 8.70246V17.2C19.75 19.1606 18.1606 20.75 16.2 20.75H7.8C5.83939 20.75 4.25 19.1606 4.25 17.2V6.8Z" fill="#23294A"/>
<path fill-rule="evenodd" clip-rule="evenodd" d="M7.25 11C7.25 10.5858 7.58579 10.25 8 10.25H10C10.4142 10.25 10.75 10.5858 10.75 11C10.75 11.4142 10.4142 11.75 10 11.75H8C7.58579 11.75 7.25 11.4142 7.25 11Z" fill="#23294A"/>
<path fill-rule="evenodd" clip-rule="evenodd" d="M7.25 14C7.25 13.5858 7.58579 13.25 8 13.25H12C12.4142 13.25 12.75 13.5858 12.75 14C12.75 14.4142 12.4142 14.75 12 14.75H8C7.58579 14.75 7.25 14.4142 7.25 14Z" fill="#23294A"/>
<path fill-rule="evenodd" clip-rule="evenodd" d="M7.25 17C7.25 16.5858 7.58579 16.25 8 16.25H16C16.4142 16.25 16.75 16.5858 16.75 17C16.75 17.4142 16.4142 17.75 16 17.75H8C7.58579 17.75 7.25 17.4142 7.25 17Z" fill="#23294A"/>
</svg>
