<svg width="24" height="24" viewBox="0 0 24 24" fill="none" xmlns="http://www.w3.org/2000/svg">
<path fill-rule="evenodd" clip-rule="evenodd" d="M12 3.75C7.44365 3.75 3.75 7.44365 3.75 12C3.75 16.5563 7.44365 20.25 12 20.25C16.5563 20.25 20.25 16.5563 20.25 12C20.25 7.44365 16.5563 3.75 12 3.75ZM2.25 12C2.25 6.61522 6.61522 2.25 12 2.25C17.3848 2.25 21.75 6.61522 21.75 12C21.75 17.3848 17.3848 21.75 12 21.75C6.61522 21.75 2.25 17.3848 2.25 12Z" fill="#23294A"/>
<path fill-rule="evenodd" clip-rule="evenodd" d="M9.35932 9.03886C9.69981 8.41525 10.3836 8.05939 11.0897 8.13831L15.3562 8.61515C16.5925 8.75333 17.2939 10.1011 16.6977 11.1929L14.6405 14.9609C14.3 15.5846 13.6162 15.9404 12.9101 15.8615L8.64365 15.3847C7.40733 15.2465 6.70591 13.8987 7.30205 12.8069L9.35932 9.03886ZM10.9231 9.62903C10.8222 9.61776 10.7245 9.66859 10.6759 9.75768L8.6186 13.5257C8.53344 13.6817 8.63364 13.8742 8.81026 13.8939L13.0767 14.3708C13.1776 14.3821 13.2753 14.3312 13.3239 14.2421L15.3812 10.4741C15.4664 10.3181 15.3662 10.1256 15.1895 10.1059L10.9231 9.62903Z" fill="#23294A"/>
</svg>
