<svg width="24" height="24" viewBox="0 0 24 24" fill="none" xmlns="http://www.w3.org/2000/svg">
<path fill-rule="evenodd" clip-rule="evenodd" d="M14.25 4.34577C14.25 4.12552 13.9858 4.01289 13.8269 4.16539L11.4872 6.41057C11.1883 6.69737 10.7136 6.68758 10.4268 6.38871C10.14 6.08984 10.1498 5.61507 10.4486 5.32827L12.7883 3.08309C13.9008 2.01561 15.75 2.80402 15.75 4.34577V10.0002C15.75 10.1383 15.8619 10.2502 16 10.2502H17.663C19.2026 10.2502 19.9919 12.0949 18.9289 13.2086L16.6904 15.5536C16.4044 15.8532 15.9297 15.8643 15.6301 15.5783C15.3305 15.2923 15.3194 14.8175 15.6054 14.5179L17.8439 12.1729C17.9957 12.0138 17.8829 11.7502 17.663 11.7502H16C15.0335 11.7502 14.25 10.9667 14.25 10.0002V4.34577ZM8.7014 8.04436C8.98819 8.34323 8.9784 8.818 8.67953 9.10479L6.33981 11.35C6.17643 11.5068 6.28899 11.7826 6.51544 11.7803L8.48233 11.7605C9.45569 11.7506 10.25 12.537 10.25 13.5104V19.5043C10.25 19.7299 10.5251 19.8401 10.6808 19.677L12.9193 17.3319C13.2053 17.0323 13.68 17.0213 13.9797 17.3073C14.2793 17.5933 14.2903 18.068 14.0043 18.3676L11.7659 20.7127C10.6758 21.8547 8.75001 21.0831 8.75001 19.5043V13.5104C8.75001 13.3713 8.63653 13.259 8.49748 13.2604L6.53059 13.2803C4.94554 13.2963 4.15751 11.3652 5.30124 10.2677L7.64096 8.02249C7.93983 7.7357 8.4146 7.74549 8.7014 8.04436Z" fill="#23294A"/>
<path fill-rule="evenodd" clip-rule="evenodd" d="M7.61075 4.35902C7.96482 4.14405 8.42611 4.25681 8.64108 4.61088L17.1411 18.6109C17.356 18.9649 17.2433 19.4262 16.8892 19.6412C16.5352 19.8562 16.0739 19.7434 15.8589 19.3893L7.3589 5.38934C7.14393 5.03528 7.25669 4.57399 7.61075 4.35902Z" fill="#23294A"/>
</svg>
