<svg width="24" height="24" viewBox="0 0 24 24" fill="none" xmlns="http://www.w3.org/2000/svg">
<path fill-rule="evenodd" clip-rule="evenodd" d="M14.25 4.34577C14.25 4.12552 13.9858 4.01289 13.8269 4.16539L6.33981 11.35C6.17643 11.5068 6.28899 11.7826 6.51544 11.7803L8.48233 11.7605C9.45569 11.7506 10.25 12.537 10.25 13.5104V19.5043C10.25 19.7299 10.5251 19.8401 10.6808 19.677L17.8439 12.1729C17.9957 12.0138 17.8829 11.7502 17.663 11.7502H16C15.0335 11.7502 14.25 10.9667 14.25 10.0002V4.34577ZM12.7883 3.08309C13.9008 2.01561 15.75 2.80402 15.75 4.34577V10.0002C15.75 10.1383 15.8619 10.2502 16 10.2502H17.663C19.2026 10.2502 19.9919 12.0949 18.9289 13.2086L11.7659 20.7127C10.6758 21.8547 8.75001 21.0831 8.75001 19.5043V13.5104C8.75001 13.3713 8.63653 13.259 8.49748 13.2604L6.53059 13.2803C4.94554 13.2963 4.15751 11.3652 5.30124 10.2677L12.7883 3.08309Z" fill="#23294A"/>
</svg>
