<svg width="24" height="24" viewBox="0 0 24 24" fill="none" xmlns="http://www.w3.org/2000/svg">
<path fill-rule="evenodd" clip-rule="evenodd" d="M3.25 6.2C3.25 4.01848 5.01848 2.25 7.2 2.25H10.9296C11.8491 2.25 12.7077 2.70953 13.2178 3.47457L14.0303 4.69338C14.2621 5.04112 14.6524 5.25 15.0704 5.25H16.8C18.9815 5.25 20.75 7.01848 20.75 9.2V15.8C20.75 17.9815 18.9815 19.75 16.8 19.75H7.2C5.01848 19.75 3.25 17.9815 3.25 15.8V6.2ZM7.2 3.75C5.8469 3.75 4.75 4.8469 4.75 6.2V15.8C4.75 17.1531 5.8469 18.25 7.2 18.25H16.8C18.1531 18.25 19.25 17.1531 19.25 15.8V9.2C19.25 7.8469 18.1531 6.75 16.8 6.75H15.0704C14.1509 6.75 13.2923 6.29047 12.7822 5.52543L11.9697 4.30662C11.7379 3.95888 11.3476 3.75 10.9296 3.75H7.2Z" fill="#23294A"/>
<path fill-rule="evenodd" clip-rule="evenodd" d="M6.75 12C6.75 11.5858 7.08579 11.25 7.5 11.25H12.5C12.9142 11.25 13.25 11.5858 13.25 12C13.25 12.4142 12.9142 12.75 12.5 12.75H7.5C7.08579 12.75 6.75 12.4142 6.75 12Z" fill="#23294A"/>
<path fill-rule="evenodd" clip-rule="evenodd" d="M6.75 15C6.75 14.5858 7.08579 14.25 7.5 14.25H12.5C12.9142 14.25 13.25 14.5858 13.25 15C13.25 15.4142 12.9142 15.75 12.5 15.75H7.5C7.08579 15.75 6.75 15.4142 6.75 15Z" fill="#23294A"/>
</svg>
