<svg width="24" height="24" viewBox="0 0 24 24" fill="none" xmlns="http://www.w3.org/2000/svg">
<path fill-rule="evenodd" clip-rule="evenodd" d="M4.97974 5.03258C5.56033 3.93591 6.69955 3.25 7.94043 3.25H16.0596C17.3005 3.25 18.4397 3.93591 19.0203 5.03258L20.8398 8.46938C21.4804 9.67937 21.3202 11.1574 20.4353 12.2021L14.0984 19.6831C13 20.9799 11.0001 20.9799 9.90164 19.6831L3.56474 12.2021C2.67984 11.1574 2.51967 9.67937 3.16025 8.46938L4.97974 5.03258ZM7.94043 4.75C7.25517 4.75 6.62604 5.12879 6.30542 5.73441L4.48593 9.17121C4.13218 9.83941 4.22063 10.6556 4.70931 11.2325L11.0462 18.7136C11.5455 19.303 12.4545 19.303 12.9538 18.7136L19.2907 11.2325C19.7794 10.6556 19.8679 9.83941 19.5141 9.17121L17.6946 5.73441C17.374 5.12878 16.7449 4.75 16.0596 4.75H7.94043Z" fill="#23294A"/>
<path fill-rule="evenodd" clip-rule="evenodd" d="M3.25 10C3.25 9.58579 3.58579 9.25 4 9.25H20C20.4142 9.25 20.75 9.58579 20.75 10C20.75 10.4142 20.4142 10.75 20 10.75H4C3.58579 10.75 3.25 10.4142 3.25 10Z" fill="#23294A"/>
<path fill-rule="evenodd" clip-rule="evenodd" d="M12.2794 3.28337C12.6753 3.16155 13.095 3.38374 13.2168 3.77964L15.0399 9.70446C15.1986 10.2203 15.202 10.7714 15.0497 11.2892L12.7195 19.2118C12.6027 19.6092 12.1858 19.8366 11.7884 19.7197C11.391 19.6028 11.1636 19.186 11.2805 18.7886L13.6107 10.8659C13.6799 10.6306 13.6783 10.3801 13.6062 10.1456L11.7832 4.22076C11.6614 3.82487 11.8836 3.40518 12.2794 3.28337Z" fill="#23294A"/>
</svg>
