<svg width="24" height="24" viewBox="0 0 24 24" fill="none" xmlns="http://www.w3.org/2000/svg">
<path fill-rule="evenodd" clip-rule="evenodd" d="M4.25 11C4.25 6.71979 7.71979 3.25 12 3.25C16.2802 3.25 19.75 6.71979 19.75 11V17.7372C19.75 19.8439 17.0843 20.7585 15.7909 19.0956C15.5731 18.8156 15.1655 18.7745 14.8962 19.0053L13.6595 20.0654C12.7046 20.8839 11.2954 20.8839 10.3405 20.0654L9.10375 19.0053C8.83446 18.7745 8.42689 18.8156 8.20914 19.0956C6.91572 20.7585 4.25 19.8439 4.25 17.7372V11ZM12 4.75C8.54822 4.75 5.75 7.54822 5.75 11V17.7372C5.75 18.4157 6.60854 18.7103 7.02511 18.1747C7.76867 17.2187 9.16039 17.0782 10.0799 17.8664L11.3167 18.9265C11.7099 19.2635 12.2901 19.2635 12.6833 18.9265L13.9201 17.8664C14.8396 17.0782 16.2313 17.2187 16.9749 18.1747C17.3915 18.7103 18.25 18.4157 18.25 17.7372V11C18.25 7.54822 15.4518 4.75 12 4.75Z" fill="#23294A"/>
<path fill-rule="evenodd" clip-rule="evenodd" d="M12 8.75C11.3096 8.75 10.75 9.30964 10.75 10C10.75 10.6904 11.3096 11.25 12 11.25C12.6904 11.25 13.25 10.6904 13.25 10C13.25 9.30964 12.6904 8.75 12 8.75ZM9.25 10C9.25 8.48122 10.4812 7.25 12 7.25C13.5188 7.25 14.75 8.48122 14.75 10C14.75 11.5188 13.5188 12.75 12 12.75C10.4812 12.75 9.25 11.5188 9.25 10Z" fill="#23294A"/>
<path fill-rule="evenodd" clip-rule="evenodd" d="M9.32919 14.6648C9.51443 14.2943 9.96494 14.1441 10.3354 14.3293L10.9938 14.6585C11.6272 14.9752 12.3728 14.9752 13.0062 14.6585L13.6646 14.3293C14.0351 14.1441 14.4856 14.2943 14.6708 14.6648C14.8561 15.0352 14.7059 15.4857 14.3354 15.671L13.6771 16.0002C12.6213 16.528 11.3787 16.528 10.323 16.0002L9.6646 15.671C9.29412 15.4857 9.14395 15.0352 9.32919 14.6648Z" fill="#23294A"/>
</svg>
