<svg width="24" height="24" viewBox="0 0 24 24" fill="none" xmlns="http://www.w3.org/2000/svg">
<g clip-path="url(#clip0_6_1246)">
<path fill-rule="evenodd" clip-rule="evenodd" d="M4.59929 15.646C6.61286 19.7333 11.5586 21.4144 15.6459 19.4008C19.7331 17.3872 21.4142 12.4415 19.4006 8.35424C17.3871 4.26696 12.4413 2.58589 8.35406 4.59947C4.26678 6.61304 2.58571 11.5588 4.59929 15.646ZM16.3087 20.7464C11.4783 23.1261 5.63339 21.1393 3.25371 16.3089C0.874031 11.4785 2.86075 5.63357 7.69117 3.25389C12.5216 0.874213 18.3665 2.86093 20.7462 7.69135C23.1259 12.5218 21.1392 18.3667 16.3087 20.7464Z" fill="#23294A"/>
<path fill-rule="evenodd" clip-rule="evenodd" d="M12 9C10.3431 9 9 10.3431 9 12C9 13.6569 10.3431 15 12 15C13.6569 15 15 13.6569 15 12C15 10.3431 13.6569 9 12 9ZM7 12C7 9.23858 9.23858 7 12 7C14.7614 7 17 9.23858 17 12C17 14.7614 14.7614 17 12 17C9.23858 17 7 14.7614 7 12Z" fill="#23294A"/>
<path d="M4.05334 6.98877L5.58533 6.25187L9.0433 13.4408C9.24679 13.8639 9.06881 14.3718 8.64576 14.5753C8.22271 14.7788 7.71481 14.6008 7.51132 14.1777L4.05334 6.98877Z" fill="#23294A"/>
<path d="M20.0929 7V8.7H12.1155C11.6461 8.7 11.2655 8.31944 11.2655 7.85C11.2655 7.38056 11.6461 7 12.1155 7L20.0929 7Z" fill="#23294A"/>
<path d="M11.6265 21.3984L10.2226 20.4397L14.7215 13.8519C14.9862 13.4643 15.5151 13.3646 15.9028 13.6294C16.2905 13.8941 16.3901 14.423 16.1254 14.8107L11.6265 21.3984Z" fill="#23294A"/>
</g>
<defs>
<clipPath id="clip0_6_1246">
<rect width="24" height="24" fill="white"/>
</clipPath>
</defs>
</svg>
