<svg width="24" height="24" viewBox="0 0 24 24" fill="none" xmlns="http://www.w3.org/2000/svg">
<path fill-rule="evenodd" clip-rule="evenodd" d="M4.5 3.25C4.91421 3.25 5.25 3.58579 5.25 4V20C5.25 20.4142 4.91421 20.75 4.5 20.75C4.08579 20.75 3.75 20.4142 3.75 20V4C3.75 3.58579 4.08579 3.25 4.5 3.25Z" fill="#23294A"/>
<path fill-rule="evenodd" clip-rule="evenodd" d="M10 4.75C9.30964 4.75 8.75 5.30964 8.75 6V7.5C8.75 8.19036 9.30964 8.75 10 8.75H16.5C17.1904 8.75 17.75 8.19036 17.75 7.5V6C17.75 5.30964 17.1904 4.75 16.5 4.75H10ZM7.25 6C7.25 4.48122 8.48122 3.25 10 3.25H16.5C18.0188 3.25 19.25 4.48122 19.25 6V7.5C19.25 9.01878 18.0188 10.25 16.5 10.25H10C8.48122 10.25 7.25 9.01878 7.25 7.5V6Z" fill="#23294A"/>
<path fill-rule="evenodd" clip-rule="evenodd" d="M10 13.75C9.30964 13.75 8.75 14.3096 8.75 15V17C8.75 17.6904 9.30964 18.25 10 18.25H19C19.6904 18.25 20.25 17.6904 20.25 17V15C20.25 14.3096 19.6904 13.75 19 13.75H10ZM7.25 15C7.25 13.4812 8.48122 12.25 10 12.25H19C20.5188 12.25 21.75 13.4812 21.75 15V17C21.75 18.5188 20.5188 19.75 19 19.75H10C8.48122 19.75 7.25 18.5188 7.25 17V15Z" fill="#23294A"/>
</svg>
