<svg width="24" height="24" viewBox="0 0 24 24" fill="none" xmlns="http://www.w3.org/2000/svg">
<path fill-rule="evenodd" clip-rule="evenodd" d="M2.25 8C2.25 4.82436 4.82436 2.25 8 2.25H16C19.1756 2.25 21.75 4.82436 21.75 8V16C21.75 19.1756 19.1756 21.75 16 21.75H8C4.82436 21.75 2.25 19.1756 2.25 16V8ZM8 3.75C5.65279 3.75 3.75 5.65279 3.75 8V16C3.75 18.3472 5.65279 20.25 8 20.25H16C18.3472 20.25 20.25 18.3472 20.25 16V8C20.25 5.65279 18.3472 3.75 16 3.75H8Z" fill="#23294A"/>
<path fill-rule="evenodd" clip-rule="evenodd" d="M16 2.3999C16.3314 2.3999 16.6 2.66853 16.6 2.9999L16.6 20.9999C16.6 21.3313 16.3314 21.5999 16 21.5999C15.6686 21.5999 15.4 21.3313 15.4 20.9999L15.4 2.9999C15.4 2.66853 15.6686 2.3999 16 2.3999Z" fill="#23294A"/>
<path fill-rule="evenodd" clip-rule="evenodd" d="M2.4 8.0001C2.4 7.66873 2.66863 7.4001 3 7.4001L21 7.4001C21.3314 7.4001 21.6 7.66873 21.6 8.0001C21.6 8.33147 21.3314 8.6001 21 8.6001L3 8.6001C2.66863 8.6001 2.4 8.33147 2.4 8.0001Z" fill="#23294A"/>
<path fill-rule="evenodd" clip-rule="evenodd" d="M2.4 12.0001C2.4 11.6687 2.66863 11.4001 3 11.4001L21 11.4001C21.3314 11.4001 21.6 11.6687 21.6 12.0001C21.6 12.3315 21.3314 12.6001 21 12.6001L3 12.6001C2.66863 12.6001 2.4 12.3315 2.4 12.0001Z" fill="#23294A"/>
<path fill-rule="evenodd" clip-rule="evenodd" d="M2.4 16.0001C2.4 15.6687 2.66863 15.4001 3 15.4001L21 15.4001C21.3314 15.4001 21.6 15.6687 21.6 16.0001C21.6 16.3315 21.3314 16.6001 21 16.6001H3C2.66863 16.6001 2.4 16.3315 2.4 16.0001Z" fill="#23294A"/>
<path fill-rule="evenodd" clip-rule="evenodd" d="M12 2.3999C12.3314 2.3999 12.6 2.66853 12.6 2.9999L12.6 20.9999C12.6 21.3313 12.3314 21.5999 12 21.5999C11.6686 21.5999 11.4 21.3313 11.4 20.9999L11.4 2.9999C11.4 2.66853 11.6686 2.3999 12 2.3999Z" fill="#23294A"/>
<path fill-rule="evenodd" clip-rule="evenodd" d="M8 2.3999C8.33137 2.3999 8.6 2.66853 8.6 2.9999L8.6 20.9999C8.6 21.3313 8.33137 21.5999 8 21.5999C7.66863 21.5999 7.4 21.3313 7.4 20.9999L7.4 2.9999C7.4 2.66853 7.66863 2.3999 8 2.3999Z" fill="#23294A"/>
</svg>
