<svg width="24" height="24" viewBox="0 0 24 24" fill="none" xmlns="http://www.w3.org/2000/svg">
<path fill-rule="evenodd" clip-rule="evenodd" d="M17.6054 5.68715C16.1171 4.91146 14.244 4.97562 12.6456 6.42332C12.2803 6.75419 11.7197 6.75419 11.3544 6.42332C9.75596 4.97562 7.88292 4.91146 6.39458 5.68715C4.88529 6.47377 3.75 8.1396 3.75 10.2134C3.75 12.693 5.24385 14.5553 7.48089 16.4245C8.07321 16.9194 8.70102 17.3894 9.3576 17.8809C9.6492 18.0992 9.94647 18.3217 10.2488 18.5526C11.2603 19.3248 12.7428 19.326 13.7539 18.5551C14.0358 18.3401 14.3141 18.1315 14.5882 17.9261C15.2617 17.4213 15.909 16.9361 16.5181 16.4254C18.7454 14.5576 20.25 12.6754 20.25 10.2134C20.25 8.1396 19.1147 6.47377 17.6054 5.68715ZM18.2987 4.35697C20.2977 5.3988 21.75 7.57366 21.75 10.2134C21.75 13.3776 19.7821 15.6459 17.4819 17.5747C16.8394 18.1135 16.1409 18.637 15.4543 19.1517C15.1875 19.3517 14.9226 19.5503 14.6634 19.7479C13.114 20.9293 10.8863 20.9265 9.33855 19.7448C9.06214 19.5338 8.77948 19.3221 8.49539 19.1094C7.82337 18.6063 7.14334 18.0972 6.51911 17.5756C4.20686 15.6436 2.25 13.3951 2.25 10.2134C2.25 7.57366 3.70233 5.3988 5.70131 4.35697C7.60595 3.36431 9.98709 3.41402 12 5.00547C14.0129 3.41402 16.394 3.36431 18.2987 4.35697Z" fill="#23294A"/>
</svg>
