<svg width="24" height="24" viewBox="0 0 24 24" fill="none" xmlns="http://www.w3.org/2000/svg">
<path fill-rule="evenodd" clip-rule="evenodd" d="M2.25 8C2.25 4.82436 4.82436 2.25 8 2.25H16C19.1756 2.25 21.75 4.82436 21.75 8V16C21.75 19.1756 19.1756 21.75 16 21.75H8C4.82436 21.75 2.25 19.1756 2.25 16V8ZM8 3.75C5.65279 3.75 3.75 5.65279 3.75 8V16C3.75 18.3472 5.65279 20.25 8 20.25H16C18.3472 20.25 20.25 18.3472 20.25 16V8C20.25 5.65279 18.3472 3.75 16 3.75H8Z" fill="#23294A"/>
<path fill-rule="evenodd" clip-rule="evenodd" d="M19.0497 12.1103C18.5229 11.5835 17.6552 11.6315 17.1898 12.2133L14.2231 15.9216C13.0897 17.3384 10.9189 17.2885 9.85172 15.8212L8.84574 14.4379C8.37824 13.7951 7.43741 13.7461 6.9057 14.3369L4.05748 17.5016C3.78038 17.8095 3.30617 17.8345 2.99828 17.5574C2.6904 17.2803 2.66544 16.8061 2.94254 16.4982L5.79076 13.3335C6.96053 12.0338 9.03035 12.1415 10.0588 13.5557L11.0648 14.9389C11.5499 15.6059 12.5366 15.6286 13.0518 14.9845L16.0185 11.2763C17.0423 9.9964 18.9514 9.89066 20.1104 11.0496L21.5303 12.4696C21.8232 12.7625 21.8232 13.2373 21.5303 13.5302C21.2374 13.8231 20.7626 13.8231 20.4697 13.5302L19.0497 12.1103Z" fill="#23294A"/>
<path fill-rule="evenodd" clip-rule="evenodd" d="M9 6.75C8.30964 6.75 7.75 7.30964 7.75 8C7.75 8.69036 8.30964 9.25 9 9.25C9.69036 9.25 10.25 8.69036 10.25 8C10.25 7.30964 9.69036 6.75 9 6.75ZM6.25 8C6.25 6.48122 7.48122 5.25 9 5.25C10.5188 5.25 11.75 6.48122 11.75 8C11.75 9.51878 10.5188 10.75 9 10.75C7.48122 10.75 6.25 9.51878 6.25 8Z" fill="#23294A"/>
</svg>
