<svg width="24" height="24" viewBox="0 0 24 24" fill="none" xmlns="http://www.w3.org/2000/svg">
<path fill-rule="evenodd" clip-rule="evenodd" d="M2.25 8C2.25 4.82436 4.82436 2.25 8 2.25H16C19.1756 2.25 21.75 4.82436 21.75 8V16C21.75 19.1756 19.1756 21.75 16 21.75H8C4.82436 21.75 2.25 19.1756 2.25 16V8ZM8 3.75C5.65279 3.75 3.75 5.65279 3.75 8V16C3.75 18.3472 5.65279 20.25 8 20.25H16C18.3472 20.25 20.25 18.3472 20.25 16V8C20.25 5.65279 18.3472 3.75 16 3.75H8Z" fill="#23294A"/>
<path fill-rule="evenodd" clip-rule="evenodd" d="M16.8333 13.3436C16.4583 12.5935 15.3986 12.5641 14.9825 13.2923L13.8204 15.3259C12.9862 16.7858 10.9922 17.0528 9.80329 15.8639L9.02225 15.0829C8.55372 14.6143 7.77367 14.6916 7.40613 15.2429L5.62406 17.916C5.39429 18.2606 4.92864 18.3538 4.58399 18.124C4.23935 17.8942 4.14622 17.4286 4.37598 17.0839L6.15805 14.4108C7.05066 13.0719 8.94505 12.8843 10.0829 14.0222L10.8639 14.8032C11.3535 15.2928 12.1746 15.1828 12.5181 14.5817L13.6802 12.5481C14.6906 10.7797 17.2641 10.8512 18.175 12.6728L19.6708 15.6646C19.8561 16.035 19.7059 16.4855 19.3354 16.6708C18.9649 16.856 18.5144 16.7059 18.3292 16.3354L16.8333 13.3436Z" fill="#23294A"/>
<path fill-rule="evenodd" clip-rule="evenodd" d="M9 6.75C8.30964 6.75 7.75 7.30964 7.75 8C7.75 8.69036 8.30964 9.25 9 9.25C9.69036 9.25 10.25 8.69036 10.25 8C10.25 7.30964 9.69036 6.75 9 6.75ZM6.25 8C6.25 6.48122 7.48122 5.25 9 5.25C10.5188 5.25 11.75 6.48122 11.75 8C11.75 9.51878 10.5188 10.75 9 10.75C7.48122 10.75 6.25 9.51878 6.25 8Z" fill="#23294A"/>
</svg>
