<svg width="24" height="24" viewBox="0 0 24 24" fill="none" xmlns="http://www.w3.org/2000/svg">
<path fill-rule="evenodd" clip-rule="evenodd" d="M2.25 8C2.25 4.82436 4.82436 2.25 8 2.25H16C19.1756 2.25 21.75 4.82436 21.75 8V16C21.75 19.1756 19.1756 21.75 16 21.75H8C4.82436 21.75 2.25 19.1756 2.25 16V8ZM8 3.75C5.65279 3.75 3.75 5.65279 3.75 8V16C3.75 18.3472 5.65279 20.25 8 20.25H16C18.3472 20.25 20.25 18.3472 20.25 16V8C20.25 5.65279 18.3472 3.75 16 3.75H8Z" fill="#23294A"/>
<path fill-rule="evenodd" clip-rule="evenodd" d="M12 9.75C10.7574 9.75 9.75 10.7574 9.75 12C9.75 13.2426 10.7574 14.25 12 14.25C13.2426 14.25 14.25 13.2426 14.25 12C14.25 10.7574 13.2426 9.75 12 9.75ZM8.25 12C8.25 9.92893 9.92893 8.25 12 8.25C14.0711 8.25 15.75 9.92893 15.75 12C15.75 14.0711 14.0711 15.75 12 15.75C9.92893 15.75 8.25 14.0711 8.25 12Z" fill="#23294A"/>
<path d="M18 7C18 7.55228 17.5523 8 17 8C16.4477 8 16 7.55228 16 7C16 6.44772 16.4477 6 17 6C17.5523 6 18 6.44772 18 7Z" fill="#23294A"/>
</svg>
