<svg width="24" height="24" viewBox="0 0 24 24" fill="none" xmlns="http://www.w3.org/2000/svg">
<path fill-rule="evenodd" clip-rule="evenodd" d="M4.25 6.5C4.25 4.15279 6.15279 2.25 8.5 2.25H15.5C17.8472 2.25 19.75 4.15279 19.75 6.5V17.5C19.75 19.8472 17.8472 21.75 15.5 21.75H8.5C6.15279 21.75 4.25 19.8472 4.25 17.5V6.5ZM8.5 3.75C6.98122 3.75 5.75 4.98122 5.75 6.5V17.5C5.75 19.0188 6.98122 20.25 8.5 20.25H15.5C17.0188 20.25 18.25 19.0188 18.25 17.5V6.5C18.25 4.98122 17.0188 3.75 15.5 3.75H8.5Z" fill="#23294A"/>
<path fill-rule="evenodd" clip-rule="evenodd" d="M8.75 18C8.75 17.5858 9.08579 17.25 9.5 17.25H14.5C14.9142 17.25 15.25 17.5858 15.25 18C15.25 18.4142 14.9142 18.75 14.5 18.75H9.5C9.08579 18.75 8.75 18.4142 8.75 18Z" fill="#23294A"/>
</svg>
