<svg width="24" height="24" viewBox="0 0 24 24" fill="none" xmlns="http://www.w3.org/2000/svg">
<path fill-rule="evenodd" clip-rule="evenodd" d="M4.25 6.5C4.25 4.15279 6.15279 2.25 8.5 2.25H15.5C17.8472 2.25 19.75 4.15279 19.75 6.5V17.5C19.75 19.8472 17.8472 21.75 15.5 21.75H8.5C6.15279 21.75 4.25 19.8472 4.25 17.5V6.5ZM8.5 3.75C6.98122 3.75 5.75 4.98122 5.75 6.5V17.5C5.75 19.0188 6.98122 20.25 8.5 20.25H15.5C17.0188 20.25 18.25 19.0188 18.25 17.5V6.5C18.25 4.98122 17.0188 3.75 15.5 3.75H8.5Z" fill="#23294A"/>
<path fill-rule="evenodd" clip-rule="evenodd" d="M12 15.5999C11.2268 15.5999 10.6 16.2267 10.6 16.9999C10.6 17.7731 11.2268 18.3999 12 18.3999C12.7732 18.3999 13.4 17.7731 13.4 16.9999C13.4 16.2267 12.7732 15.5999 12 15.5999ZM9.39999 16.9999C9.39999 15.564 10.5641 14.3999 12 14.3999C13.4359 14.3999 14.6 15.564 14.6 16.9999C14.6 18.4358 13.4359 19.5999 12 19.5999C10.5641 19.5999 9.39999 18.4358 9.39999 16.9999Z" fill="#23294A"/>
<path fill-rule="evenodd" clip-rule="evenodd" d="M11.25 6C11.25 5.58579 11.5858 5.25 12 5.25L15 5.25C15.4142 5.25 15.75 5.58579 15.75 6C15.75 6.41421 15.4142 6.75 15 6.75L12 6.75C11.5858 6.75 11.25 6.41421 11.25 6Z" fill="#23294A"/>
<path d="M10 6C10 6.55228 9.55228 7 9 7C8.44772 7 8 6.55228 8 6C8 5.44772 8.44772 5 9 5C9.55228 5 10 5.44772 10 6Z" fill="#23294A"/>
</svg>
