<svg width="24" height="24" viewBox="0 0 24 24" fill="none" xmlns="http://www.w3.org/2000/svg">
<path fill-rule="evenodd" clip-rule="evenodd" d="M11.0482 3.19626C11.634 2.84474 12.3659 2.84474 12.9518 3.19626L12.5659 3.83937L12.9518 3.19626L18.2199 6.35712C19.453 7.09696 19.4075 8.89913 18.1387 9.57584L12.8706 12.3855C12.3265 12.6757 11.6735 12.6757 11.1294 12.3855L5.86129 9.57584C4.59247 8.89913 4.54699 7.09696 5.78006 6.35712L11.0482 3.19626ZM12.1801 4.48249C12.0692 4.41599 11.9308 4.41599 11.8199 4.48249L6.55181 7.64336C6.31852 7.78333 6.32713 8.12428 6.56717 8.25231L11.8353 11.062C11.9382 11.1169 12.0618 11.1169 12.1647 11.062L17.4328 8.25231C17.6729 8.12428 17.6815 7.78333 17.4482 7.64336L12.1801 4.48249Z" fill="#23294A"/>
<path fill-rule="evenodd" clip-rule="evenodd" d="M4.60386 11.5222C4.79878 11.1567 5.25308 11.0185 5.61856 11.2134L8.67008 12.8409L11.8331 14.5564C11.9372 14.6129 12.0628 14.6129 12.1669 14.5564L15.3345 12.8384L18.3814 11.2134C18.7469 11.0185 19.2012 11.1567 19.3961 11.5222C19.5911 11.8877 19.4528 12.342 19.0873 12.5369L16.0428 14.1607L12.882 15.875C12.3319 16.1734 11.6681 16.1734 11.118 15.875L7.95723 14.1607L4.91268 12.5369C4.5472 12.342 4.40893 11.8877 4.60386 11.5222Z" fill="#23294A"/>
<path fill-rule="evenodd" clip-rule="evenodd" d="M4.54136 14.6472C4.73628 14.2817 5.19058 14.1435 5.55606 14.3384L11.8353 17.6873C11.9382 17.7422 12.0618 17.7422 12.1647 17.6873L18.4439 14.3384C18.8094 14.1435 19.2637 14.2817 19.4586 14.6472C19.6536 15.0127 19.5153 15.467 19.1498 15.6619L12.8706 19.0108C12.3265 19.301 11.6735 19.301 11.1294 19.0108L4.85018 15.6619C4.4847 15.467 4.34643 15.0127 4.54136 14.6472Z" fill="#23294A"/>
</svg>
