<svg width="24" height="24" viewBox="0 0 24 24" fill="none" xmlns="http://www.w3.org/2000/svg">
<path fill-rule="evenodd" clip-rule="evenodd" d="M16.9631 6.02353C14.2221 3.28252 9.77801 3.28252 7.037 6.02353C4.71468 8.34585 4.33472 12.0145 6.10382 14.7945C6.39074 15.2454 6.72946 15.6686 7.10648 16.0456L7.92618 16.8653C8.75859 17.6977 9.6712 18.4459 10.6507 19.0989L11.4992 19.6646C11.8025 19.8667 12.1976 19.8667 12.5009 19.6646L13.3494 19.0989C14.3289 18.4459 15.2415 17.6977 16.0739 16.8653L16.8936 16.0456C17.2706 15.6686 17.6093 15.2454 17.8963 14.7945C19.6654 12.0145 19.2854 8.34585 16.9631 6.02353ZM5.97634 4.96287C9.30313 1.63607 14.6969 1.63607 18.0237 4.96287C20.8509 7.79002 21.3024 12.2359 19.1618 15.5998C18.8167 16.142 18.4095 16.651 17.9543 17.1063L17.1346 17.926C16.2323 18.8282 15.2431 19.6392 14.1814 20.347L13.3329 20.9126C12.5258 21.4507 11.4743 21.4507 10.6672 20.9126L9.81865 20.347C8.75696 19.6392 7.76778 18.8282 6.86552 17.926L6.04582 17.1063C5.59053 16.651 5.18334 16.142 4.83832 15.5998C2.69765 12.2359 3.14919 7.79002 5.97634 4.96287Z" fill="#23294A"/>
<path fill-rule="evenodd" clip-rule="evenodd" d="M8.25 9.99999C8.25 7.92892 9.92894 6.25 12 6.25C14.0711 6.25 15.75 7.92893 15.75 9.99999C15.75 12.0711 14.0711 13.75 12 13.75C9.92894 13.75 8.25 12.0711 8.25 9.99999ZM12 7.75C10.7574 7.75 9.75 8.75736 9.75 9.99999C9.75 11.2426 10.7574 12.25 12 12.25C13.2426 12.25 14.25 11.2426 14.25 9.99999C14.25 8.75736 13.2426 7.75 12 7.75Z" fill="#23294A"/>
</svg>
