<svg width="24" height="24" viewBox="0 0 24 24" fill="none" xmlns="http://www.w3.org/2000/svg">
<path fill-rule="evenodd" clip-rule="evenodd" d="M10.2 3.75C8.29462 3.75 6.75 5.29462 6.75 7.2V8C6.75 8.41421 6.41421 8.75 6 8.75C5.58579 8.75 5.25 8.41421 5.25 8V7.2C5.25 4.46619 7.46619 2.25 10.2 2.25H14.8C17.5338 2.25 19.75 4.46619 19.75 7.2V16.8C19.75 19.5338 17.5338 21.75 14.8 21.75H10.2C7.46619 21.75 5.25 19.5338 5.25 16.8V16C5.25 15.5858 5.58579 15.25 6 15.25C6.41421 15.25 6.75 15.5858 6.75 16V16.8C6.75 18.7054 8.29462 20.25 10.2 20.25H14.8C16.7054 20.25 18.25 18.7054 18.25 16.8V7.2C18.25 5.29462 16.7054 3.75 14.8 3.75H10.2Z" fill="#23294A"/>
<path fill-rule="evenodd" clip-rule="evenodd" d="M2.25 12C2.25 11.5858 2.58579 11.25 3 11.25L11 11.25C11.4142 11.25 11.75 11.5858 11.75 12C11.75 12.4142 11.4142 12.75 11 12.75L3 12.75C2.58579 12.75 2.25 12.4142 2.25 12Z" fill="#23294A"/>
<path fill-rule="evenodd" clip-rule="evenodd" d="M9.46967 9.46967C9.76256 9.17678 10.2374 9.17678 10.5303 9.46967L12.3889 11.3282C12.7599 11.6992 12.7599 12.3008 12.3889 12.6718L10.5303 14.5303C10.2374 14.8232 9.76256 14.8232 9.46967 14.5303C9.17678 14.2374 9.17678 13.7626 9.46967 13.4697L10.9393 12L9.46967 10.5303C9.17678 10.2374 9.17678 9.76256 9.46967 9.46967Z" fill="#23294A"/>
</svg>
