<svg width="24" height="24" viewBox="0 0 24 24" fill="none" xmlns="http://www.w3.org/2000/svg">
<path fill-rule="evenodd" clip-rule="evenodd" d="M9.75 6.25V8.67157C9.75 9.40092 9.46027 10.1004 8.94454 10.6161L7.61612 11.9445C7.3817 12.179 7.25 12.4969 7.25 12.8284V19C7.25 19.6904 7.80964 20.25 8.5 20.25H15.5C16.1904 20.25 16.75 19.6904 16.75 19V12.8284C16.75 12.4969 16.6183 12.179 16.3839 11.9445L15.0555 10.6161C14.5397 10.1004 14.25 9.40092 14.25 8.67157V6.25H9.75ZM8.25 6C8.25 5.30964 8.80964 4.75 9.5 4.75H14.5C15.1904 4.75 15.75 5.30964 15.75 6V8.67157C15.75 9.00309 15.8817 9.32104 16.1161 9.55546L17.4445 10.8839C17.9603 11.3996 18.25 12.0991 18.25 12.8284V19C18.25 20.5188 17.0188 21.75 15.5 21.75H8.5C6.98122 21.75 5.75 20.5188 5.75 19V12.8284C5.75 12.0991 6.03973 11.3996 6.55546 10.8839L7.88388 9.55546C8.1183 9.32104 8.25 9.00309 8.25 8.67157V6Z" fill="#23294A"/>
<path fill-rule="evenodd" clip-rule="evenodd" d="M9 3.75C8.86193 3.75 8.75 3.86193 8.75 4V4.5C8.75 4.63807 8.86193 4.75 9 4.75H15C15.1381 4.75 15.25 4.63807 15.25 4.5V4C15.25 3.86193 15.1381 3.75 15 3.75H9ZM7.25 4C7.25 3.0335 8.0335 2.25 9 2.25H15C15.9665 2.25 16.75 3.0335 16.75 4V4.5C16.75 5.4665 15.9665 6.25 15 6.25H9C8.0335 6.25 7.25 5.4665 7.25 4.5V4Z" fill="#23294A"/>
<path fill-rule="evenodd" clip-rule="evenodd" d="M12.8253 13.3304C13.5137 12.9173 14.3482 12.8257 15.1098 13.0796L17.2372 13.7887C17.6301 13.9197 17.8425 14.3444 17.7115 14.7374C17.5805 15.1304 17.1558 15.3427 16.7628 15.2117L14.6355 14.5026C14.2893 14.3872 13.91 14.4289 13.5971 14.6166L12.9148 15.026C12.044 15.5485 10.956 15.5485 10.0851 15.026L9.46479 14.6538C9.12982 14.4528 8.72014 14.4199 8.35743 14.565L6.77853 15.1966C6.39394 15.3504 5.95746 15.1634 5.80363 14.7788C5.64979 14.3942 5.83686 13.9577 6.22144 13.8039L7.80035 13.1723C8.5983 12.8531 9.49959 12.9253 10.2365 13.3675L10.8569 13.7397C11.2527 13.9772 11.7473 13.9772 12.1431 13.7397L12.8253 13.3304Z" fill="#23294A"/>
</svg>
