<svg width="24" height="24" viewBox="0 0 24 24" fill="none" xmlns="http://www.w3.org/2000/svg">
<path fill-rule="evenodd" clip-rule="evenodd" d="M7 5.75C5.20507 5.75 3.75 7.20507 3.75 9C3.75 9.09819 3.75433 9.19518 3.76279 9.2908L3.76874 9.35818L3.76255 9.42553C3.75426 9.51572 3.75 9.60726 3.75 9.7V14.3C3.75 14.3927 3.75426 14.4843 3.76255 14.5745L3.76874 14.6418L3.76279 14.7092C3.75433 14.8048 3.75 14.9018 3.75 15C3.75 16.7949 5.20507 18.25 7 18.25H17C18.7949 18.25 20.25 16.7949 20.25 15C20.25 14.9018 20.2457 14.8048 20.2372 14.7092L20.2313 14.6418L20.2374 14.5745C20.2457 14.4843 20.25 14.3927 20.25 14.3V9.7C20.25 9.60726 20.2457 9.51573 20.2374 9.42554L20.2313 9.35818L20.2372 9.29081C20.2457 9.19517 20.25 9.09819 20.25 9C20.25 7.20507 18.7949 5.75 17 5.75H7ZM2.25 15V9C2.25 6.37665 4.37665 4.25 7 4.25H17C19.6234 4.25 21.75 6.37665 21.75 9C21.75 9.11954 21.7456 9.23818 21.7368 9.35574C21.7456 9.46948 21.75 9.58429 21.75 9.7V14.3C21.75 14.4157 21.7456 14.5305 21.7368 14.6443C21.7456 14.7618 21.75 14.8805 21.75 15C21.75 17.6234 19.6234 19.75 17 19.75H7C4.37665 19.75 2.25 17.6234 2.25 15Z" fill="#23294A"/>
<path fill-rule="evenodd" clip-rule="evenodd" d="M12 10.75C11.3096 10.75 10.75 11.3096 10.75 12C10.75 12.6904 11.3096 13.25 12 13.25C12.6904 13.25 13.25 12.6904 13.25 12C13.25 11.3096 12.6904 10.75 12 10.75ZM9.25 12C9.25 10.4812 10.4812 9.25 12 9.25C13.5188 9.25 14.75 10.4812 14.75 12C14.75 13.5188 13.5188 14.75 12 14.75C10.4812 14.75 9.25 13.5188 9.25 12Z" fill="#23294A"/>
<path fill-rule="evenodd" clip-rule="evenodd" d="M14.75 8C14.75 7.58579 15.0858 7.25 15.5 7.25L18 7.25C18.4142 7.25 18.75 7.58579 18.75 8C18.75 8.41421 18.4142 8.75 18 8.75H15.5C15.0858 8.75 14.75 8.41421 14.75 8Z" fill="#23294A"/>
<path fill-rule="evenodd" clip-rule="evenodd" d="M5.25 16C5.25 15.5858 5.58579 15.25 6 15.25H8.5C8.91421 15.25 9.25 15.5858 9.25 16C9.25 16.4142 8.91421 16.75 8.5 16.75H6C5.58579 16.75 5.25 16.4142 5.25 16Z" fill="#23294A"/>
</svg>
