<svg width="24" height="24" viewBox="0 0 24 24" fill="none" xmlns="http://www.w3.org/2000/svg">
<path fill-rule="evenodd" clip-rule="evenodd" d="M12 3.75C7.44365 3.75 3.75 7.44365 3.75 12C3.75 16.5563 7.44365 20.25 12 20.25C16.5563 20.25 20.25 16.5563 20.25 12C20.25 7.44365 16.5563 3.75 12 3.75ZM2.25 12C2.25 6.61522 6.61522 2.25 12 2.25C17.3848 2.25 21.75 6.61522 21.75 12C21.75 17.3848 17.3848 21.75 12 21.75C6.61522 21.75 2.25 17.3848 2.25 12Z" fill="#23294A"/>
<path fill-rule="evenodd" clip-rule="evenodd" d="M7.34074 10.2208C6.69361 8.42835 8.42859 6.69337 10.2211 7.34049L15.657 9.30296C17.6467 10.0213 17.6354 12.8393 15.64 13.5416L14.4272 13.9685C14.2128 14.044 14.0442 14.2126 13.9688 14.427L13.2613 14.1779L13.9688 14.427L13.5419 15.6397C12.8395 17.6352 10.0216 17.6465 9.30321 15.6567L7.34074 10.2208ZM9.71172 8.75136C9.11423 8.53566 8.5359 9.11398 8.75161 9.71148L10.7141 15.1474C10.9535 15.8106 11.8929 15.8069 12.127 15.1417L12.5538 13.9289C12.7802 13.2858 13.286 12.78 13.9292 12.5536L14.1782 13.2611L13.9292 12.5536L15.1419 12.1267C15.8071 11.8926 15.8109 10.9533 15.1476 10.7138L9.71172 8.75136Z" fill="#23294A"/>
</svg>
