<svg width="24" height="24" viewBox="0 0 24 24" fill="none" xmlns="http://www.w3.org/2000/svg">
<path fill-rule="evenodd" clip-rule="evenodd" d="M5.25 9.5C5.25 6.04822 8.04822 3.25 11.5 3.25H12.5C15.9518 3.25 18.75 6.04822 18.75 9.5V14.5C18.75 17.9518 15.9518 20.75 12.5 20.75H11.5C8.04822 20.75 5.25 17.9518 5.25 14.5V9.5ZM11.5 4.75C8.87665 4.75 6.75 6.87665 6.75 9.5V14.5C6.75 17.1234 8.87665 19.25 11.5 19.25H12.5C15.1234 19.25 17.25 17.1234 17.25 14.5V9.5C17.25 6.87665 15.1234 4.75 12.5 4.75H11.5Z" fill="#23294A"/>
<path fill-rule="evenodd" clip-rule="evenodd" d="M12 6.25C12.4142 6.25 12.75 6.58579 12.75 7V10C12.75 10.4142 12.4142 10.75 12 10.75C11.5858 10.75 11.25 10.4142 11.25 10V7C11.25 6.58579 11.5858 6.25 12 6.25Z" fill="#23294A"/>
</svg>
