<svg width="24" height="24" viewBox="0 0 24 24" fill="none" xmlns="http://www.w3.org/2000/svg">
<path fill-rule="evenodd" clip-rule="evenodd" d="M8.5 5.25C6.70507 5.25 5.25 6.70507 5.25 8.5V17C5.25 18.7949 6.70507 20.25 8.5 20.25H15.5C17.2949 20.25 18.75 18.7949 18.75 17V8.5C18.75 6.70507 17.2949 5.25 15.5 5.25H15.0625C14.6483 5.25 14.3125 4.91421 14.3125 4.5C14.3125 4.08579 14.6483 3.75 15.0625 3.75H15.5C18.1234 3.75 20.25 5.87665 20.25 8.5V17C20.25 19.6234 18.1234 21.75 15.5 21.75H8.5C5.87665 21.75 3.75 19.6234 3.75 17V8.5C3.75 5.87665 5.87665 3.75 8.5 3.75H8.9375C9.35171 3.75 9.6875 4.08579 9.6875 4.5C9.6875 4.91421 9.35171 5.25 8.9375 5.25H8.5Z" fill="#23294A"/>
<path fill-rule="evenodd" clip-rule="evenodd" d="M10.5 3.75C10.0858 3.75 9.75 4.08579 9.75 4.5V5C9.75 5.41421 10.0858 5.75 10.5 5.75H13.5C13.9142 5.75 14.25 5.41421 14.25 5V4.5C14.25 4.08579 13.9142 3.75 13.5 3.75H10.5ZM8.25 4.5C8.25 3.25736 9.25736 2.25 10.5 2.25H13.5C14.7426 2.25 15.75 3.25736 15.75 4.5V5C15.75 6.24264 14.7426 7.25 13.5 7.25H10.5C9.25736 7.25 8.25 6.24264 8.25 5V4.5Z" fill="#23294A"/>
<path fill-rule="evenodd" clip-rule="evenodd" d="M7.25 16.5C7.25 16.0858 7.58579 15.75 8 15.75H13C13.4142 15.75 13.75 16.0858 13.75 16.5C13.75 16.9142 13.4142 17.25 13 17.25H8C7.58579 17.25 7.25 16.9142 7.25 16.5Z" fill="#23294A"/>
<path fill-rule="evenodd" clip-rule="evenodd" d="M7.25 13.5C7.25 13.0858 7.58579 12.75 8 12.75H11.5C11.9142 12.75 12.25 13.0858 12.25 13.5C12.25 13.9142 11.9142 14.25 11.5 14.25H8C7.58579 14.25 7.25 13.9142 7.25 13.5Z" fill="#23294A"/>
</svg>
