<svg width="24" height="24" viewBox="0 0 24 24" fill="none" xmlns="http://www.w3.org/2000/svg">
<path fill-rule="evenodd" clip-rule="evenodd" d="M12 3.75C7.44365 3.75 3.75 7.44365 3.75 12C3.75 16.5563 7.44365 20.25 12 20.25C16.5563 20.25 20.25 16.5563 20.25 12C20.25 7.44365 16.5563 3.75 12 3.75ZM2.25 12C2.25 6.61522 6.61522 2.25 12 2.25C17.3848 2.25 21.75 6.61522 21.75 12C21.75 17.3848 17.3848 21.75 12 21.75C6.61522 21.75 2.25 17.3848 2.25 12Z" fill="#23294A"/>
<path fill-rule="evenodd" clip-rule="evenodd" d="M8.25 11C8.25 9.48122 9.48122 8.25 11 8.25H13C14.5188 8.25 15.75 9.48122 15.75 11V13C15.75 14.5188 14.5188 15.75 13 15.75H11C9.48122 15.75 8.25 14.5188 8.25 13V11ZM11 9.75C10.3096 9.75 9.75 10.3096 9.75 11V13C9.75 13.6904 10.3096 14.25 11 14.25H13C13.6904 14.25 14.25 13.6904 14.25 13V11C14.25 10.3096 13.6904 9.75 13 9.75H11Z" fill="#23294A"/>
</svg>
