<svg width="24" height="24" viewBox="0 0 24 24" fill="none" xmlns="http://www.w3.org/2000/svg">
<path fill-rule="evenodd" clip-rule="evenodd" d="M14.3579 4.46636C15.7714 3.05288 18.0631 3.05288 19.4765 4.46636C20.89 5.87984 20.89 8.17154 19.4765 9.58502L9.23603 19.8255C8.95524 20.1063 8.5905 20.2878 8.19719 20.3425L4.88943 20.802C3.87084 20.9436 2.99935 20.0721 3.14087 19.0535L3.60044 15.7457C3.65509 15.3524 3.83658 14.9877 4.11737 14.7069L14.3579 4.46636ZM18.4159 5.52702C17.5882 4.69933 16.2462 4.69933 15.4185 5.52702L5.17803 15.7675C5.12813 15.8174 5.09588 15.8822 5.08617 15.9521L4.6266 19.2599C4.62503 19.2712 4.62646 19.2779 4.62813 19.2827C4.6302 19.2886 4.63424 19.2956 4.64077 19.3021C4.64729 19.3087 4.65429 19.3127 4.66023 19.3148C4.66501 19.3164 4.67171 19.3179 4.683 19.3163L4.78622 20.0592L4.683 19.3163L7.99077 18.8567C8.06066 18.847 8.12547 18.8148 8.17537 18.7649L18.4159 8.52436C19.2436 7.69667 19.2436 6.35471 18.4159 5.52702Z" fill="#23294A"/>
<path fill-rule="evenodd" clip-rule="evenodd" d="M14.4697 9.53033C14.1768 9.23744 14.1768 8.76256 14.4697 8.46967L15.4697 7.46967C15.7626 7.17678 16.2374 7.17678 16.5303 7.46967C16.8232 7.76256 16.8232 8.23744 16.5303 8.53033L15.5303 9.53033C15.2374 9.82322 14.7626 9.82322 14.4697 9.53033Z" fill="#23294A"/>
</svg>
