<svg width="24" height="24" viewBox="0 0 24 24" fill="none" xmlns="http://www.w3.org/2000/svg">
<path fill-rule="evenodd" clip-rule="evenodd" d="M8.22648 5.30162C9.72285 4.71547 11.8565 4.94924 14.8996 6.86528C16.2296 7.70268 17.2484 8.44352 17.96 9.14781C18.6716 9.85211 19.1417 10.5842 19.2442 11.4072L18.5 11.5L19.2442 11.4072C19.2634 11.5607 19.2692 11.8009 19.2692 12C19.2692 12.199 19.2634 12.4392 19.2442 12.5927L18.5 12.5L19.2442 12.5927C19.1417 13.4157 18.6716 14.1478 17.96 14.8521C17.2484 15.5564 16.2296 16.2972 14.8996 17.1346C11.8565 19.0507 9.72285 19.2844 8.22648 18.6983C7.96163 18.5945 7.71155 18.4565 7.48265 18.2876L7.92785 17.6841L7.48265 18.2876C6.80146 17.7852 6.36767 17.0681 6.10673 16.0569C5.85231 15.0709 5.75003 13.7598 5.75003 11.9999C5.75003 10.2401 5.85231 8.92897 6.10673 7.943C6.36767 6.93176 6.80146 6.21473 7.48265 5.71227C7.71156 5.54343 7.96164 5.40536 8.22648 5.30162L8.50003 5.99995L8.22648 5.30162ZM14.1004 8.13463C11.2378 6.33225 9.62823 6.36351 8.77358 6.69829C8.63097 6.75415 8.49631 6.82849 8.37306 6.91941C8.03825 7.16637 7.75813 7.54667 7.55916 8.31778C7.35366 9.11416 7.25003 10.2704 7.25003 11.9999C7.25003 13.7295 7.35366 14.8857 7.55916 15.6821C7.75813 16.4532 8.03825 16.8335 8.37305 17.0805C8.49631 17.1714 8.63097 17.2458 8.77358 17.3016L8.50478 17.9878L8.77358 17.3016C9.62823 17.6364 11.2378 17.6677 14.1004 15.8653C15.4032 15.045 16.3112 14.3735 16.9048 13.786C17.4983 13.1985 17.7118 12.7595 17.7558 12.4072C17.7622 12.3553 17.7692 12.1982 17.7692 12C17.7692 11.8017 17.7622 11.6446 17.7558 11.5927C17.7118 11.2404 17.4983 10.8014 16.9048 10.2139C16.3112 9.62647 15.4032 8.95493 14.1004 8.13463Z" fill="#23294A"/>
</svg>
