<svg width="24" height="24" viewBox="0 0 24 24" fill="none" xmlns="http://www.w3.org/2000/svg">
<path fill-rule="evenodd" clip-rule="evenodd" d="M7.58059 6.51996C7.87348 6.81286 7.87348 7.28773 7.58059 7.58062C6.70651 8.4547 6.11125 9.56834 5.8701 10.7807C5.62894 11.9931 5.75271 13.2498 6.22576 14.3918C6.6988 15.5339 7.49988 16.51 8.52769 17.1967C9.5555 17.8835 10.7639 18.25 12 18.25C13.2361 18.25 14.4445 17.8835 15.4723 17.1967C16.5001 16.51 17.3012 15.5339 17.7743 14.3918C18.2473 13.2498 18.3711 11.9931 18.1299 10.7807C17.8888 9.56835 17.2935 8.4547 16.4194 7.58062C16.1265 7.28773 16.1265 6.81286 16.4194 6.51996C16.7123 6.22707 17.1872 6.22707 17.4801 6.51996C18.5639 7.60382 19.3021 8.98474 19.6011 10.4881C19.9001 11.9914 19.7466 13.5497 19.1601 14.9658C18.5735 16.382 17.5802 17.5924 16.3057 18.4439C15.0312 19.2955 13.5328 19.75 12 19.75C10.4672 19.75 8.96881 19.2955 7.69433 18.4439C6.41985 17.5923 5.42652 16.382 4.83994 14.9658C4.25336 13.5497 4.09988 11.9914 4.39892 10.4881C4.69795 8.98474 5.43607 7.60382 6.51993 6.51996C6.81282 6.22707 7.28769 6.22707 7.58059 6.51996Z" fill="#23294A"/>
<path fill-rule="evenodd" clip-rule="evenodd" d="M12 4.25C12.4142 4.25 12.75 4.58579 12.75 5V12C12.75 12.4142 12.4142 12.75 12 12.75C11.5858 12.75 11.25 12.4142 11.25 12V5C11.25 4.58579 11.5858 4.25 12 4.25Z" fill="#23294A"/>
</svg>
