<svg width="24" height="24" viewBox="0 0 24 24" fill="none" xmlns="http://www.w3.org/2000/svg">
<path fill-rule="evenodd" clip-rule="evenodd" d="M11.4915 8.84393C12.1559 7.79928 13.6692 7.76669 14.378 8.78176L17.3072 12.977C18.7116 14.9883 18.501 17.7112 16.8042 19.4827C14.8383 21.5352 11.5807 21.6053 9.52827 19.6394C7.75676 17.9426 7.42919 15.2313 8.74562 13.1614L11.4915 8.84393ZM13.1481 9.64049C13.0521 9.50303 12.8472 9.50744 12.7572 9.64891L10.0113 13.9664C9.07861 15.4329 9.3107 17.3539 10.5658 18.5562C12.0201 19.949 14.3281 19.8993 15.721 18.4451C16.9232 17.19 17.0724 15.2608 16.0774 13.8357L13.1481 9.64049Z" fill="#23294A"/>
<path fill-rule="evenodd" clip-rule="evenodd" d="M16.8136 4.13665C17.2639 3.42861 18.2896 3.40653 18.77 4.09452L20.0367 5.90862C20.7601 6.94471 20.6516 8.3474 19.7775 9.25997C18.7648 10.3173 17.0867 10.3534 16.0294 9.3407C15.1168 8.46661 14.9481 7.0699 15.6262 6.00362L16.8136 4.13665ZM17.8184 5.35184L16.8919 6.8086C16.5975 7.27154 16.6708 7.87795 17.067 8.25745C17.526 8.69714 18.2546 8.68145 18.6943 8.2224C19.0738 7.82619 19.1209 7.21719 18.8068 6.76736L17.8184 5.35184Z" fill="#23294A"/>
<path fill-rule="evenodd" clip-rule="evenodd" d="M4.78003 3.44719C5.32436 2.59132 6.5642 2.56462 7.14488 3.39625L9.14171 6.25609C10.1642 7.72046 10.0109 9.70295 8.77549 10.9927C7.34414 12.4871 4.97238 12.5382 3.47802 11.1068C2.18822 9.87144 1.94973 7.89739 2.90819 6.39035L4.78003 3.44719ZM5.98249 4.35162L4.1739 7.19533C3.59915 8.09903 3.74217 9.28278 4.51559 10.0236C5.41169 10.8819 6.83392 10.8513 7.69223 9.95517C8.43305 9.18174 8.52496 7.99294 7.91184 7.11482L5.98249 4.35162Z" fill="#23294A"/>
</svg>
