<svg width="24" height="24" viewBox="0 0 24 24" fill="none" xmlns="http://www.w3.org/2000/svg">
<path fill-rule="evenodd" clip-rule="evenodd" d="M13.3788 4.40362C14.3747 3.40778 15.9892 3.40778 16.9851 4.40362L20.1433 7.56179C21.1128 8.53129 21.1421 10.0939 20.2097 11.0991L12.1435 19.7948C11.6231 20.3558 10.8925 20.6746 10.1273 20.6746H7.8876C7.11057 20.6746 6.36981 20.3459 5.84846 19.7697L3.75389 17.4549C2.84216 16.4473 2.88074 14.9017 3.84161 13.9408L13.3788 4.40362ZM15.9244 5.46428C15.5144 5.05423 14.8495 5.05423 14.4395 5.46428L4.90227 15.0015C4.50662 15.3972 4.49073 16.0336 4.86615 16.4485L6.96072 18.7633C7.19769 19.0252 7.5344 19.1746 7.8876 19.1746L10.1273 19.1746C10.4751 19.1746 10.8072 19.0297 11.0437 18.7747L19.1099 10.079C19.4939 9.66508 19.4818 9.02166 19.0826 8.62245L15.9244 5.46428Z" fill="#23294A"/>
<path fill-rule="evenodd" clip-rule="evenodd" d="M7.46967 11.4697C7.76256 11.1768 8.23744 11.1768 8.53033 11.4697L13.5303 16.4697C13.8232 16.7626 13.8232 17.2374 13.5303 17.5303C13.2374 17.8232 12.7626 17.8232 12.4697 17.5303L7.46967 12.5303C7.17678 12.2374 7.17678 11.7626 7.46967 11.4697Z" fill="#23294A"/>
<path fill-rule="evenodd" clip-rule="evenodd" d="M14.9697 6.96967C15.2626 6.67678 15.7374 6.67678 16.0303 6.96967L17.0303 7.96967C17.3232 8.26256 17.3232 8.73744 17.0303 9.03033C16.7374 9.32322 16.2626 9.32322 15.9697 9.03033L14.9697 8.03033C14.6768 7.73744 14.6768 7.26256 14.9697 6.96967Z" fill="#23294A"/>
</svg>
