<svg width="24" height="24" viewBox="0 0 24 24" fill="none" xmlns="http://www.w3.org/2000/svg">
<path fill-rule="evenodd" clip-rule="evenodd" d="M12 3.75C7.44365 3.75 3.75 7.44365 3.75 12C3.75 16.5563 7.44365 20.25 12 20.25C16.5563 20.25 20.25 16.5563 20.25 12C20.25 7.44365 16.5563 3.75 12 3.75ZM2.25 12C2.25 6.61522 6.61522 2.25 12 2.25C17.3848 2.25 21.75 6.61522 21.75 12C21.75 17.3848 17.3848 21.75 12 21.75C6.61522 21.75 2.25 17.3848 2.25 12Z" fill="#23294A"/>
<path fill-rule="evenodd" clip-rule="evenodd" d="M14.9429 17.1686C15.22 17.4761 15.694 17.5009 16.0017 17.224C16.3096 16.9469 16.3346 16.4727 16.0575 16.1648L15.5 16.6665C16.0575 16.1648 16.0576 16.165 16.0575 16.1648L16.0559 16.163L16.0537 16.1607L16.0478 16.1541L16.0291 16.1341C16.0138 16.1178 15.9926 16.0956 15.9658 16.0684C15.9122 16.014 15.8359 15.9393 15.7389 15.8511C15.5455 15.6753 15.266 15.4424 14.916 15.2091C14.2258 14.749 13.2051 14.2498 12 14.2498C10.7949 14.2498 9.77414 14.749 9.08397 15.2091C8.73401 15.4424 8.4545 15.6753 8.26111 15.8511C8.16408 15.9393 8.0878 16.014 8.03422 16.0684C8.00741 16.0956 7.9862 16.1178 7.97086 16.1341L7.95223 16.1541L7.94625 16.1607L7.94411 16.163L7.94324 16.164C7.94307 16.1642 7.94252 16.1648 8.49999 16.6665L7.94252 16.1648C7.66543 16.4727 7.69039 16.9469 7.99827 17.224C8.30604 17.501 8.78002 17.4761 9.05716 17.1686L9.05648 17.1693C9.05632 17.1695 9.05595 17.1699 9.05648 17.1693L9.0638 17.1615C9.0714 17.1534 9.08438 17.1398 9.10248 17.1214C9.13875 17.0846 9.19528 17.0291 9.27012 16.961C9.42048 16.8243 9.64098 16.6406 9.91602 16.4572C10.4758 16.084 11.2051 15.7498 12 15.7498C12.7949 15.7498 13.5241 16.084 14.084 16.4572C14.359 16.6406 14.5795 16.8243 14.7299 16.961C14.8047 17.0291 14.8612 17.0846 14.8975 17.1214C14.9156 17.1398 14.9286 17.1534 14.9362 17.1615L14.9429 17.1686Z" fill="#23294A"/>
<path d="M16 10C16 10.5523 15.5523 11 15 11C14.4477 11 14 10.5523 14 10C14 9.44772 14.4477 9 15 9C15.5523 9 16 9.44772 16 10Z" fill="#23294A"/>
<path d="M10 10C10 10.5523 9.55228 11 9 11C8.44772 11 8 10.5523 8 10C8 9.44772 8.44772 9 9 9C9.55228 9 10 9.44772 10 10Z" fill="#23294A"/>
</svg>
