<svg width="24" height="24" viewBox="0 0 24 24" fill="none" xmlns="http://www.w3.org/2000/svg">
<path fill-rule="evenodd" clip-rule="evenodd" d="M4.35499 8.40683C3.38171 5.97365 5.93174 3.62727 8.2757 4.79925L17.5788 9.45081C19.6794 10.5011 19.6794 13.4987 17.5788 14.549L8.2757 19.2006C5.93175 20.3726 3.38171 18.0262 4.35499 15.593L5.63624 12.3899L6.3326 12.6684L5.63624 12.3899C5.73637 12.1396 5.73637 11.8603 5.63624 11.61L4.35499 8.40683ZM7.60488 6.14089C6.49459 5.58574 5.28668 6.69718 5.7477 7.84975L7.02895 11.0529C7.27213 11.6608 7.27213 12.339 7.02896 12.947L5.7477 16.1501C5.28668 17.3027 6.49459 18.4141 7.60488 17.859L16.908 13.2074C17.903 12.7099 17.903 11.29 16.908 10.7924L7.60488 6.14089Z" fill="#23294A"/>
<path fill-rule="evenodd" clip-rule="evenodd" d="M6.25 12C6.25 11.5858 6.58579 11.25 7 11.25H13C13.4142 11.25 13.75 11.5858 13.75 12C13.75 12.4142 13.4142 12.75 13 12.75H7C6.58579 12.75 6.25 12.4142 6.25 12Z" fill="#23294A"/>
</svg>
