<svg width="24" height="24" viewBox="0 0 24 24" fill="none" xmlns="http://www.w3.org/2000/svg">
<path fill-rule="evenodd" clip-rule="evenodd" d="M10.1085 3.17762C11.2875 2.53454 12.7125 2.53454 13.8915 3.17763L18.3168 5.59147C19.2003 6.07336 19.75 6.99933 19.75 8.00568V12.7515C19.75 15.4269 18.3702 17.913 16.0998 19.3283C13.5904 20.8926 10.4096 20.8926 7.90019 19.3283C5.62985 17.913 4.25 15.4269 4.25 12.7515V8.00568C4.25 6.99934 4.79969 6.07336 5.68316 5.59147L6.0423 6.24989L5.68316 5.59147L10.1085 3.17762ZM13.1732 4.49447C12.4419 4.09559 11.5581 4.09559 10.8268 4.49447L6.40143 6.90831C5.99986 7.12735 5.75 7.54825 5.75 8.00568V12.7515C5.75 14.909 6.86278 16.914 8.6937 18.0554C10.7174 19.3169 13.2826 19.3169 15.3063 18.0554C17.1372 16.914 18.25 14.909 18.25 12.7515V8.00568C18.25 7.54825 18.0001 7.12735 17.5986 6.90831L13.1732 4.49447Z" fill="#23294A"/>
<path fill-rule="evenodd" clip-rule="evenodd" d="M14.9339 9.56596C15.1735 9.8056 15.1735 10.1941 14.9339 10.4338L11.719 13.6486C11.4474 13.9202 11.0071 13.9202 10.7355 13.6486L9.56608 12.4792C9.32644 12.2396 9.32644 11.8511 9.56608 11.6114C9.80572 11.3718 10.1943 11.3718 10.4339 11.6114L11.2273 12.4048L14.0661 9.56596C14.3057 9.32632 14.6943 9.32632 14.9339 9.56596Z" fill="#23294A"/>
</svg>
