<svg width="24" height="24" viewBox="0 0 24 24" fill="none" xmlns="http://www.w3.org/2000/svg">
<path fill-rule="evenodd" clip-rule="evenodd" d="M7.25 6.7C7.25 4.79462 8.79462 3.25 10.7 3.25H13.3C15.2054 3.25 16.75 4.79462 16.75 6.7V18.3C16.75 20.2054 15.2054 21.75 13.3 21.75H10.7C8.79462 21.75 7.25 20.2054 7.25 18.3V6.7ZM10.7 4.75C9.62304 4.75 8.75 5.62304 8.75 6.7V18.3C8.75 19.377 9.62304 20.25 10.7 20.25H13.3C14.377 20.25 15.25 19.377 15.25 18.3V6.7C15.25 5.62304 14.377 4.75 13.3 4.75H10.7Z" fill="#23294A"/>
<path fill-rule="evenodd" clip-rule="evenodd" d="M15.2978 6.73686C15.4432 6.34902 15.8755 6.15252 16.2633 6.29796L18.6412 7.18963C19.9096 7.66532 20.75 8.87796 20.75 10.2327V14.7677C20.75 16.1224 19.9096 17.3351 18.6412 17.8108L16.2633 18.7024C15.8755 18.8479 15.4432 18.6514 15.2978 18.2635C15.1523 17.8757 15.3488 17.4434 15.7367 17.298L18.1145 16.4063C18.7975 16.1501 19.25 15.4972 19.25 14.7677V10.2327C19.25 9.50323 18.7975 8.85027 18.1145 8.59413L15.7367 7.70245C15.3488 7.55701 15.1523 7.1247 15.2978 6.73686Z" fill="#23294A"/>
<path fill-rule="evenodd" clip-rule="evenodd" d="M8.71151 6.76303C8.8425 7.15599 8.63013 7.58073 8.23717 7.71172L5.4466 8.64191L5.20943 7.93039L5.4466 8.64191C4.732 8.88011 4.25 9.54885 4.25 10.3021V14.6983C4.25 15.4516 4.732 16.1203 5.4466 16.3585L8.23717 17.2887C8.63013 17.4197 8.8425 17.8444 8.71151 18.2374C8.58053 18.6303 8.15579 18.8427 7.76283 18.7117L4.97226 17.7815C3.64515 17.3392 2.75 16.0972 2.75 14.6983V10.3021C2.75 8.9032 3.64515 7.66125 4.97226 7.21888L7.76283 6.28869C8.15579 6.15771 8.58053 6.37008 8.71151 6.76303Z" fill="#23294A"/>
</svg>
