<svg width="24" height="24" viewBox="0 0 24 24" fill="none" xmlns="http://www.w3.org/2000/svg">
<path fill-rule="evenodd" clip-rule="evenodd" d="M10.3048 5.0068C10.951 3.52768 13.0491 3.52768 13.6953 5.0068L15.2512 8.56811C15.2865 8.64891 15.351 8.71341 15.4318 8.74871L18.9931 10.3046C20.4722 10.9509 20.4722 13.0489 18.9931 13.6952L15.4318 15.2511C15.351 15.2864 15.2865 15.3509 15.2512 15.4317L13.6953 18.993C13.0491 20.4721 10.951 20.4721 10.3048 18.993L8.74883 15.4317C8.71353 15.3509 8.64903 15.2864 8.56823 15.2511L5.00693 13.6952C3.5278 13.0489 3.5278 10.9509 5.00693 10.3046L8.56823 8.74871C8.64903 8.71341 8.71353 8.64891 8.74883 8.56811L10.3048 5.0068ZM12.3207 5.60734C12.1985 5.3275 11.8016 5.3275 11.6793 5.60734L10.1234 9.16864C9.93678 9.59573 9.59585 9.93666 9.16876 10.1233L5.60746 11.6792C5.32762 11.8014 5.32762 12.1984 5.60746 12.3206L9.16876 13.8765C9.59585 14.0631 9.93678 14.4041 10.1234 14.8312L11.6793 18.3925C11.8016 18.6723 12.1985 18.6723 12.3207 18.3925L13.8767 14.8312C14.0633 14.4041 14.4042 14.0631 14.8313 13.8765L18.3926 12.3206C18.6724 12.1984 18.6724 11.8014 18.3926 11.6792L14.8313 10.1233C14.4042 9.93666 14.0633 9.59573 13.8767 9.16864L12.3207 5.60734Z" fill="#23294A"/>
</svg>
