<svg width="24" height="24" viewBox="0 0 24 24" fill="none" xmlns="http://www.w3.org/2000/svg">
<path fill-rule="evenodd" clip-rule="evenodd" d="M10.3951 20.8876C10.2879 21.2877 9.87661 21.5251 9.47651 21.4179C8.95995 21.2795 8.45834 21.0996 7.97609 20.8811C7.5988 20.7101 7.43153 20.2657 7.60248 19.8884C7.77343 19.5111 8.21787 19.3438 8.59516 19.5148C9.00319 19.6997 9.42762 19.8519 9.86474 19.969C10.2648 20.0763 10.5023 20.4875 10.3951 20.8876ZM10.3951 3.11271C10.5023 3.51281 10.2648 3.92406 9.86474 4.03127C9.42762 4.1484 9.00319 4.30064 8.59516 4.48552C8.21787 4.65647 7.77343 4.4892 7.60248 4.11191C7.43153 3.73462 7.5988 3.29018 7.97609 3.11923C8.45834 2.90072 8.95995 2.7208 9.47651 2.58238C9.87661 2.47518 10.2879 2.71261 10.3951 3.11271ZM6.39506 4.91868C6.67822 5.221 6.66267 5.69562 6.36035 5.97877C6.0334 6.28499 5.73033 6.61885 5.45483 6.97788C5.17934 7.33691 4.9353 7.71606 4.72414 8.11113C4.52888 8.47643 4.07446 8.61428 3.70915 8.41903C3.34385 8.22377 3.206 7.76935 3.40125 7.40404C3.65083 6.93712 3.93925 6.48901 4.2648 6.06474C4.59036 5.64046 4.94855 5.24589 5.33497 4.88397C5.63729 4.60082 6.11191 4.61636 6.39506 4.91868ZM6.39506 19.0816C6.11191 19.384 5.63729 19.3995 5.33497 19.1163C4.94855 18.7544 4.59036 18.3599 4.2648 17.9356C3.93925 17.5113 3.65083 17.0632 3.40125 16.5963C3.206 16.231 3.34385 15.7765 3.70915 15.5813C4.07446 15.386 4.52888 15.5239 4.72414 15.8892C4.9353 16.2843 5.17934 16.6634 5.45483 17.0224C5.73033 17.3815 6.0334 17.7153 6.36035 18.0215C6.66267 18.3047 6.67822 18.7793 6.39506 19.0816ZM3.24237 9.79411C3.65105 9.86159 3.92766 10.2476 3.86018 10.6563C3.78721 11.0982 3.75 11.5476 3.75 12.0002C3.75 12.4527 3.78721 12.9021 3.86018 13.344C3.92766 13.7527 3.65105 14.1387 3.24237 14.2062C2.83369 14.2737 2.44769 13.9971 2.38022 13.5884C2.29397 13.066 2.25 12.5349 2.25 12.0002C2.25 11.4654 2.29397 10.9343 2.38022 10.4119C2.44769 10.0032 2.83369 9.72664 3.24237 9.79411Z" fill="#23294A"/>
<path fill-rule="evenodd" clip-rule="evenodd" d="M11.25 3C11.25 2.58579 11.5858 2.25 12 2.25C17.3848 2.25 21.75 6.61522 21.75 12C21.75 17.3848 17.3848 21.75 12 21.75C11.5858 21.75 11.25 21.4142 11.25 21C11.25 20.5858 11.5858 20.25 12 20.25C16.5563 20.25 20.25 16.5563 20.25 12C20.25 7.44365 16.5563 3.75 12 3.75C11.5858 3.75 11.25 3.41421 11.25 3Z" fill="#23294A"/>
</svg>
