<svg width="24" height="24" viewBox="0 0 24 24" fill="none" xmlns="http://www.w3.org/2000/svg">
<path fill-rule="evenodd" clip-rule="evenodd" d="M5.43553 6.2141C6.37114 4.97702 7.83251 4.25 9.38356 4.25H15.8C18.5338 4.25 20.75 6.46619 20.75 9.2V15.8C20.75 18.5338 18.5338 20.75 15.8 20.75H9.55107C7.89006 20.75 6.33977 19.9169 5.42311 18.5317L3.01552 14.8936C1.85669 13.1425 1.92881 10.8508 3.19546 9.17597L5.43553 6.2141ZM9.38356 5.75C8.30253 5.75 7.284 6.25671 6.6319 7.11892L4.39183 10.0808C3.50902 11.2481 3.45875 12.8453 4.26642 14.0658L6.67401 17.7039C7.31289 18.6694 8.3934 19.25 9.55107 19.25H15.8C17.7054 19.25 19.25 17.7054 19.25 15.8V9.2C19.25 7.29462 17.7054 5.75 15.8 5.75H9.38356Z" fill="#23294A"/>
<path fill-rule="evenodd" clip-rule="evenodd" d="M14.5303 9.96967C14.8232 10.2626 14.8232 10.7374 14.5303 11.0303L10.5303 15.0303C10.2374 15.3232 9.76256 15.3232 9.46967 15.0303C9.17678 14.7374 9.17678 14.2626 9.46967 13.9697L13.4697 9.96967C13.7626 9.67678 14.2374 9.67678 14.5303 9.96967Z" fill="#23294A"/>
<path fill-rule="evenodd" clip-rule="evenodd" d="M9.46967 9.96967C9.76256 9.67678 10.2374 9.67678 10.5303 9.96967L14.5303 13.9697C14.8232 14.2626 14.8232 14.7374 14.5303 15.0303C14.2374 15.3232 13.7626 15.3232 13.4697 15.0303L9.46967 11.0303C9.17678 10.7374 9.17678 10.2626 9.46967 9.96967Z" fill="#23294A"/>
</svg>
