<svg width="24" height="24" viewBox="0 0 24 24" fill="none" xmlns="http://www.w3.org/2000/svg">
<path fill-rule="evenodd" clip-rule="evenodd" d="M12 6.75C8.54822 6.75 5.75 9.54822 5.75 13C5.75 16.4518 8.54822 19.25 12 19.25C15.4518 19.25 18.25 16.4518 18.25 13C18.25 9.54822 15.4518 6.75 12 6.75ZM4.25 13C4.25 8.71979 7.71979 5.25 12 5.25C16.2802 5.25 19.75 8.71979 19.75 13C19.75 17.2802 16.2802 20.75 12 20.75C7.71979 20.75 4.25 17.2802 4.25 13Z" fill="#23294A"/>
<path fill-rule="evenodd" clip-rule="evenodd" d="M16.4697 3.46967C16.7626 3.17678 17.2374 3.17678 17.5303 3.46967L20.5303 6.46967C20.8232 6.76256 20.8232 7.23744 20.5303 7.53033C20.2374 7.82322 19.7626 7.82322 19.4697 7.53033L16.4697 4.53033C16.1768 4.23744 16.1768 3.76256 16.4697 3.46967Z" fill="#23294A"/>
<path fill-rule="evenodd" clip-rule="evenodd" d="M3.46967 7.53033C3.17678 7.23744 3.17678 6.76256 3.46967 6.46967L6.46967 3.46967C6.76256 3.17678 7.23744 3.17678 7.53033 3.46967C7.82322 3.76256 7.82322 4.23744 7.53033 4.53033L4.53033 7.53033C4.23744 7.82322 3.76256 7.82322 3.46967 7.53033Z" fill="#23294A"/>
<path fill-rule="evenodd" clip-rule="evenodd" d="M12 10.25C12.4142 10.25 12.75 10.5858 12.75 11V12.8668L14.0594 13.9143C14.3829 14.1731 14.4353 14.6451 14.1766 14.9685C13.9178 15.292 13.4458 15.3444 13.1224 15.0857L11.7191 13.963C11.4226 13.7258 11.25 13.3667 11.25 12.987V11C11.25 10.5858 11.5858 10.25 12 10.25Z" fill="#23294A"/>
</svg>
