<svg width="24" height="24" viewBox="0 0 24 24" fill="none" xmlns="http://www.w3.org/2000/svg">
<path fill-rule="evenodd" clip-rule="evenodd" d="M5.90699 7.25587C6.31801 7.20449 6.69285 7.49604 6.74423 7.90705L7.97049 17.7171C8.07996 18.5929 8.82441 19.2501 9.70697 19.2501H14.2931C15.1756 19.2501 15.9201 18.5929 16.0295 17.7171L17.2558 7.90705C17.3072 7.49604 17.682 7.20449 18.093 7.25587C18.5041 7.30725 18.7956 7.68209 18.7442 8.09311L17.518 17.9032C17.3147 19.5296 15.9321 20.7501 14.2931 20.7501H9.70697C8.06792 20.7501 6.68537 19.5296 6.48207 17.9032L5.25581 8.09311C5.20443 7.68209 5.49598 7.30725 5.90699 7.25587Z" fill="#23294A"/>
<path fill-rule="evenodd" clip-rule="evenodd" d="M4.25 6C4.25 5.58579 4.58579 5.25 5 5.25H19C19.4142 5.25 19.75 5.58579 19.75 6C19.75 6.41421 19.4142 6.75 19 6.75H5C4.58579 6.75 4.25 6.41421 4.25 6Z" fill="#23294A"/>
<path fill-rule="evenodd" clip-rule="evenodd" d="M8.37356 3.70588C8.85149 2.80976 9.78442 2.25 10.8 2.25H13.2C14.2156 2.25 15.1486 2.80976 15.6265 3.70588L16.6618 5.64706C16.8567 6.01254 16.7184 6.46684 16.353 6.66177C15.9875 6.85669 15.5332 6.71842 15.3383 6.35294L14.303 4.41176C14.0857 4.00444 13.6617 3.75 13.2 3.75H10.8C10.3384 3.75 9.91433 4.00443 9.69708 4.41176L8.66179 6.35294C8.46687 6.71842 8.01257 6.85669 7.64708 6.66176C7.2816 6.46684 7.14334 6.01254 7.33826 5.64706L8.37356 3.70588Z" fill="#23294A"/>
<path fill-rule="evenodd" clip-rule="evenodd" d="M10.25 15C10.25 14.5858 10.5858 14.25 11 14.25H13C13.4142 14.25 13.75 14.5858 13.75 15C13.75 15.4142 13.4142 15.75 13 15.75H11C10.5858 15.75 10.25 15.4142 10.25 15Z" fill="#23294A"/>
<path fill-rule="evenodd" clip-rule="evenodd" d="M10.25 12C10.25 11.5858 10.5858 11.25 11 11.25H13C13.4142 11.25 13.75 11.5858 13.75 12C13.75 12.4142 13.4142 12.75 13 12.75H11C10.5858 12.75 10.25 12.4142 10.25 12Z" fill="#23294A"/>
</svg>
