<svg width="24" height="24" viewBox="0 0 24 24" fill="none" xmlns="http://www.w3.org/2000/svg">
<path fill-rule="evenodd" clip-rule="evenodd" d="M3.25 12C3.25 9.37665 5.37665 7.25 8 7.25H17C19.6234 7.25 21.75 9.37665 21.75 12C21.75 14.6234 19.6234 16.75 17 16.75H8C5.37665 16.75 3.25 14.6234 3.25 12ZM8 8.75C6.20507 8.75 4.75 10.2051 4.75 12C4.75 13.7949 6.20507 15.25 8 15.25H17C18.7949 15.25 20.25 13.7949 20.25 12C20.25 10.2051 18.7949 8.75 17 8.75H8Z" fill="#23294A"/>
<path fill-rule="evenodd" clip-rule="evenodd" d="M8 8.75C6.20507 8.75 4.75 10.2051 4.75 12C4.75 13.7949 6.20507 15.25 8 15.25C9.79493 15.25 11.25 13.7949 11.25 12C11.25 10.2051 9.79493 8.75 8 8.75ZM3.25 12C3.25 9.37665 5.37665 7.25 8 7.25C10.6234 7.25 12.75 9.37665 12.75 12C12.75 14.6234 10.6234 16.75 8 16.75C5.37665 16.75 3.25 14.6234 3.25 12Z" fill="#23294A"/>
</svg>
