<svg width="24" height="24" viewBox="0 0 24 24" fill="none" xmlns="http://www.w3.org/2000/svg">
<path fill-rule="evenodd" clip-rule="evenodd" d="M3.25 9.8C3.25 7.2871 5.2871 5.25 7.8 5.25H16.2C18.7129 5.25 20.75 7.2871 20.75 9.8V13.2C20.75 15.7129 18.7129 17.75 16.2 17.75H7.8C5.2871 17.75 3.25 15.7129 3.25 13.2V9.8ZM7.8 6.75C6.11553 6.75 4.75 8.11553 4.75 9.8V13.2C4.75 14.8845 6.11553 16.25 7.8 16.25H16.2C17.8845 16.25 19.25 14.8845 19.25 13.2V9.8C19.25 8.11553 17.8845 6.75 16.2 6.75H7.8Z" fill="#23294A"/>
<path fill-rule="evenodd" clip-rule="evenodd" d="M12.4697 16.4697C12.7626 16.1768 13.2374 16.1768 13.5303 16.4697L16.5303 19.4697C16.8232 19.7626 16.8232 20.2374 16.5303 20.5303C16.2374 20.8232 15.7626 20.8232 15.4697 20.5303L12.4697 17.5303C12.1768 17.2374 12.1768 16.7626 12.4697 16.4697Z" fill="#23294A"/>
<path fill-rule="evenodd" clip-rule="evenodd" d="M11.5303 16.4697C11.8232 16.7626 11.8232 17.2374 11.5303 17.5303L8.53033 20.5303C8.23744 20.8232 7.76256 20.8232 7.46967 20.5303C7.17678 20.2374 7.17678 19.7626 7.46967 19.4697L10.4697 16.4697C10.7626 16.1768 11.2374 16.1768 11.5303 16.4697Z" fill="#23294A"/>
</svg>
