<svg width="24" height="24" viewBox="0 0 24 24" fill="none" xmlns="http://www.w3.org/2000/svg">
<path fill-rule="evenodd" clip-rule="evenodd" d="M5.25 12C5.25 11.5858 5.58579 11.25 6 11.25L18 11.25C18.4142 11.25 18.75 11.5858 18.75 12C18.75 12.4142 18.4142 12.75 18 12.75L6 12.75C5.58579 12.75 5.25 12.4142 5.25 12Z" fill="#23294A"/>
<path fill-rule="evenodd" clip-rule="evenodd" d="M8.53033 15.5303C8.23744 15.8232 7.76256 15.8232 7.46967 15.5303L4.82322 12.8839C4.33507 12.3957 4.33507 11.6043 4.82322 11.1161L7.46967 8.46967C7.76256 8.17678 8.23744 8.17678 8.53033 8.46967C8.82322 8.76256 8.82322 9.23744 8.53033 9.53033L6.06066 12L8.53033 14.4697C8.82322 14.7626 8.82322 15.2374 8.53033 15.5303Z" fill="#23294A"/>
<path fill-rule="evenodd" clip-rule="evenodd" d="M15.4697 8.46967C15.7626 8.17678 16.2374 8.17678 16.5303 8.46967L19.1768 11.1161C19.6649 11.6043 19.6649 12.3957 19.1768 12.8839L16.5303 15.5303C16.2374 15.8232 15.7626 15.8232 15.4697 15.5303C15.1768 15.2374 15.1768 14.7626 15.4697 14.4697L17.9393 12L15.4697 9.53033C15.1768 9.23744 15.1768 8.76256 15.4697 8.46967Z" fill="#23294A"/>
</svg>
