<svg width="24" height="24" viewBox="0 0 24 24" fill="none" xmlns="http://www.w3.org/2000/svg">
<path fill-rule="evenodd" clip-rule="evenodd" d="M12.8839 3.94473C12.3957 3.45657 11.6043 3.45657 11.1161 3.94473L10.1161 4.94473C9.6004 5.46045 8.90092 5.75019 8.17158 5.75019H7C6.30965 5.75019 5.75 6.30983 5.75 7.00019V8.17176C5.75 8.9011 5.46027 9.60058 4.94455 10.1163L3.94455 11.1163C3.45639 11.6045 3.45639 12.3959 3.94455 12.8841L4.94455 13.8841C5.46027 14.3998 5.75 15.0993 5.75 15.8286V17.0002C5.75 17.6905 6.30965 18.2502 7 18.2502H8.17158C8.90092 18.2502 9.60039 18.5399 10.1161 19.0556L11.1161 20.0556C11.6043 20.5438 12.3957 20.5438 12.8839 20.0556L13.8839 19.0556C14.3996 18.5399 15.0991 18.2502 15.8284 18.2502H17C17.6904 18.2502 18.25 17.6905 18.25 17.0002V15.8286C18.25 15.0993 18.5397 14.3998 19.0555 13.8841L20.0555 12.8841C20.5436 12.3959 20.5436 11.6045 20.0555 11.1163L19.0555 10.1163C18.5397 9.60058 18.25 8.9011 18.25 8.17176V7.00019C18.25 6.30983 17.6904 5.75019 17 5.75019H15.8284C15.0991 5.75019 14.3996 5.46045 13.8839 4.94473L12.8839 3.94473ZM10.0555 2.88407C11.1294 1.81013 12.8706 1.81013 13.9445 2.88407L14.9445 3.88407C15.179 4.11849 15.4969 4.25019 15.8284 4.25019H17C18.5188 4.25019 19.75 5.4814 19.75 7.00019V8.17176C19.75 8.50328 19.8817 8.82122 20.1161 9.05564L21.1161 10.0556C22.1901 11.1296 22.1901 12.8708 21.1161 13.9447L20.1161 14.9447C19.8817 15.1791 19.75 15.4971 19.75 15.8286V17.0002C19.75 18.519 18.5188 19.7502 17 19.7502H15.8284C15.4969 19.7502 15.179 19.8819 14.9445 20.1163L13.9445 21.1163C12.8706 22.1902 11.1294 22.1902 10.0555 21.1163L9.05546 20.1163C8.82104 19.8819 8.5031 19.7502 8.17158 19.7502H7C5.48122 19.7502 4.25 18.519 4.25 17.0002V15.8286C4.25 15.4971 4.11831 15.1791 3.88389 14.9447L2.88389 13.9447C1.80994 12.8708 1.80995 11.1296 2.88389 10.0556L3.88389 9.05564C4.11831 8.82122 4.25 8.50328 4.25 8.17176V7.00019C4.25 5.4814 5.48122 4.25019 7 4.25019H8.17158C8.5031 4.25019 8.82104 4.11849 9.05546 3.88407L10.0555 2.88407Z" fill="#23294A"/>
<path fill-rule="evenodd" clip-rule="evenodd" d="M14.5303 9.83344C14.8232 10.1263 14.8232 10.6012 14.5303 10.8941L11.3155 14.109C10.9906 14.4338 10.4639 14.4338 10.1391 14.109L8.96967 12.9396C8.67678 12.6467 8.67678 12.1718 8.96967 11.8789C9.26256 11.586 9.73744 11.586 10.0303 11.8789L10.7273 12.5758L13.4697 9.83344C13.7626 9.54055 14.2374 9.54055 14.5303 9.83344Z" fill="#23294A"/>
</svg>
