<svg width="24" height="24" viewBox="0 0 24 24" fill="none" xmlns="http://www.w3.org/2000/svg">
<path fill-rule="evenodd" clip-rule="evenodd" d="M13.2007 6.75C12.8486 6.75 12.5076 6.87309 12.2366 7.09797C11.7289 7.51935 11.0898 7.75 10.43 7.75H10C9.71589 7.75 9.4085 7.76703 9.08966 7.80542L9 7.0608L9.08965 7.80542C8.79165 7.8413 8.48555 7.89561 8.18061 7.97127C7.87647 8.04673 7.57534 8.14297 7.28558 8.26229L7 7.56879L7.28558 8.26229C6.99702 8.38112 6.72154 8.5221 6.46617 8.68699C6.12948 8.9044 5.82904 9.16251 5.57804 9.46611C5.37732 9.7089 5.20566 9.9838 5.07156 10.296C4.96401 10.5464 4.87921 10.8241 4.82373 11.1327C4.77624 11.3969 4.75 11.6853 4.75 12C4.75 12.681 4.87276 13.2412 5.07156 13.704C5.20566 14.0162 5.37732 14.2911 5.57804 14.5339C5.81638 14.8222 6.09926 15.0694 6.41543 15.2797C6.76029 15.5092 6.85387 15.9747 6.62444 16.3196C6.395 16.6645 5.92944 16.7581 5.58457 16.5286C5.16047 16.2465 4.76409 15.9035 4.42196 15.4897L4.98735 15.0222L4.42196 15.4897C4.13316 15.1403 3.88556 14.7436 3.69333 14.296C3.40702 13.6294 3.25 12.8656 3.25 12C3.25 11.6017 3.28324 11.2243 3.34739 10.8673C3.42243 10.4498 3.53943 10.0623 3.69333 9.704C3.88556 9.25645 4.13316 8.85966 4.42196 8.51034C4.78231 8.07448 5.2028 7.71724 5.65248 7.42687L5.65248 7.42686C5.99305 7.20696 6.35109 7.02491 6.71442 6.87529C7.07927 6.72504 7.4513 6.60674 7.81939 6.51541C8.18857 6.42381 8.55569 6.35888 8.91034 6.31617C9.28967 6.2705 9.65695 6.25 10 6.25H10.43C10.7399 6.25 11.0401 6.14165 11.2787 5.9437L11.7576 6.52083L11.2787 5.9437C11.8188 5.49539 12.4988 5.25 13.2007 5.25H13.5C13.9142 5.25 14.25 5.58579 14.25 6C14.25 6.41421 13.9142 6.75 13.5 6.75H13.2007ZM16 9C16.4142 9 16.75 9.33579 16.75 9.75V15.502C16.75 18.3238 13.4617 19.868 11.2903 18.066C11.0443 17.8618 10.7346 17.75 10.4148 17.75H10C9.58579 17.75 9.25 17.4142 9.25 17C9.25 16.5858 9.58579 16.25 10 16.25H10.4148C11.0844 16.25 11.733 16.4841 12.2482 16.9117C13.4421 17.9025 15.25 17.0534 15.25 15.502V9.75C15.25 9.33579 15.5858 9 16 9Z" fill="#23294A"/>
<path fill-rule="evenodd" clip-rule="evenodd" d="M15.416 3.37604C15.7607 3.60581 15.8538 4.07146 15.6241 4.4161L5.62406 19.4161C5.39429 19.7608 4.92864 19.8539 4.58399 19.6241C4.23935 19.3944 4.14622 18.9287 4.37598 18.5841L14.376 3.58405C14.6057 3.23941 15.0714 3.14628 15.416 3.37604Z" fill="#23294A"/>
</svg>
