<svg width="24" height="24" viewBox="0 0 24 24" fill="none" xmlns="http://www.w3.org/2000/svg">
<path fill-rule="evenodd" clip-rule="evenodd" d="M15.25 8.4979C15.25 6.9465 13.4421 6.09748 12.2482 7.08825C11.733 7.51588 11.0844 7.74994 10.4148 7.74994H10C8.91915 7.74994 7.57148 7.99487 6.52063 8.65232C5.51231 9.28315 4.75 10.303 4.75 11.9999C4.75 13.6968 5.51231 14.7167 6.52063 15.3476C7.57148 16.005 8.91915 16.2499 10 16.2499H10.4148C11.0844 16.2499 11.733 16.484 12.2482 16.9116C13.4421 17.9024 15.25 17.0534 15.25 15.502V8.4979ZM11.2903 5.93398C13.4617 4.13193 16.75 5.67616 16.75 8.4979V15.502C16.75 18.3237 13.4617 19.868 11.2903 18.0659C11.0443 17.8617 10.7346 17.7499 10.4148 17.7499H10C8.74176 17.7499 7.08943 17.4728 5.72505 16.6192C4.31814 15.739 3.25 14.2589 3.25 11.9999C3.25 9.74099 4.31814 8.26089 5.72505 7.38068C7.08943 6.52709 8.74176 6.24994 10 6.24994H10.4148C10.7346 6.24994 11.0443 6.13818 11.2903 5.93398Z" fill="#23294A"/>
<path fill-rule="evenodd" clip-rule="evenodd" d="M17.25 12C17.25 11.5858 17.5858 11.25 18 11.25H21C21.4142 11.25 21.75 11.5858 21.75 12C21.75 12.4142 21.4142 12.75 21 12.75H18C17.5858 12.75 17.25 12.4142 17.25 12Z" fill="#23294A"/>
</svg>
