<svg width="24" height="24" viewBox="0 0 24 24" fill="none" xmlns="http://www.w3.org/2000/svg">
<path fill-rule="evenodd" clip-rule="evenodd" d="M12 6.75C9.10051 6.75 6.75 9.10051 6.75 12C6.75 14.8995 9.10051 17.25 12 17.25C14.8995 17.25 17.25 14.8995 17.25 12C17.25 9.10051 14.8995 6.75 12 6.75ZM5.25 12C5.25 8.27208 8.27208 5.25 12 5.25C15.7279 5.25 18.75 8.27208 18.75 12C18.75 15.7279 15.7279 18.75 12 18.75C8.27208 18.75 5.25 15.7279 5.25 12Z" fill="#23294A"/>
<path fill-rule="evenodd" clip-rule="evenodd" d="M12 8.75C12.4142 8.75 12.75 9.08579 12.75 9.5V11.6893L13.5303 12.4697C13.8232 12.7626 13.8232 13.2374 13.5303 13.5303C13.2374 13.8232 12.7626 13.8232 12.4697 13.5303L11.6161 12.6768C11.3817 12.4424 11.25 12.1244 11.25 11.7929V9.5C11.25 9.08579 11.5858 8.75 12 8.75Z" fill="#23294A"/>
<path fill-rule="evenodd" clip-rule="evenodd" d="M10.8267 3.75C10.2731 3.75 9.78545 4.11412 9.62819 4.64489L8.7191 7.71307C8.60142 8.11021 8.18408 8.33677 7.78693 8.2191C7.38978 8.10143 7.16323 7.68408 7.2809 7.28693L8.18999 4.21876C8.53598 3.05105 9.6088 2.25 10.8267 2.25H13.1733C14.3912 2.25 15.464 3.05105 15.81 4.21876L16.7191 7.28693C16.8368 7.68408 16.6102 8.10143 16.2131 8.2191C15.8159 8.33677 15.3986 8.11021 15.2809 7.71307L14.3718 4.64489C14.2145 4.11412 13.7269 3.75 13.1733 3.75H10.8267Z" fill="#23294A"/>
<path fill-rule="evenodd" clip-rule="evenodd" d="M7.78693 15.7811C8.18408 15.6634 8.60142 15.89 8.7191 16.2871L9.62819 19.3553C9.78545 19.8861 10.2731 20.2502 10.8267 20.2502H13.1733C13.7269 20.2502 14.2145 19.8861 14.3718 19.3553L15.2809 16.2871C15.3986 15.89 15.8159 15.6634 16.2131 15.7811C16.6102 15.8988 16.8368 16.3161 16.7191 16.7133L15.81 19.7814C15.464 20.9491 14.3912 21.7502 13.1733 21.7502H10.8267C9.6088 21.7502 8.53598 20.9491 8.18999 19.7814L7.2809 16.7133C7.16323 16.3161 7.38978 15.8988 7.78693 15.7811Z" fill="#23294A"/>
</svg>
