<svg width="24" height="24" viewBox="0 0 24 24" fill="none" xmlns="http://www.w3.org/2000/svg">
<path fill-rule="evenodd" clip-rule="evenodd" d="M8.5 7.25C6.70507 7.25 5.25 8.70507 5.25 10.5V13.5C5.25 15.2949 6.70507 16.75 8.5 16.75H15.5C17.2949 16.75 18.75 15.2949 18.75 13.5V10.5C18.75 8.70507 17.2949 7.25 15.5 7.25H8.5ZM3.75 10.5C3.75 7.87665 5.87665 5.75 8.5 5.75H15.5C18.1234 5.75 20.25 7.87665 20.25 10.5V13.5C20.25 16.1234 18.1234 18.25 15.5 18.25H8.5C5.87665 18.25 3.75 16.1234 3.75 13.5V10.5Z" fill="#23294A"/>
<path fill-rule="evenodd" clip-rule="evenodd" d="M11.023 10.8232C10.8526 10.9152 10.7613 11.0648 10.7602 11.2317L10.75 12.7632C10.7489 12.9299 10.838 13.0801 11.0066 13.1738C11.1769 13.2685 11.3916 13.2814 11.5845 13.1772L12.9872 12.4198C13.3358 12.2316 13.3373 11.792 12.9934 11.6008L11.6009 10.8266C11.4098 10.7204 11.1949 10.7304 11.023 10.8232ZM9.26026 11.2217C9.27082 9.6386 11.0268 8.79123 12.3297 9.51558L13.7222 10.2897C15.1034 11.0576 15.0891 12.9897 13.6999 13.7397L12.2971 14.4971C10.9856 15.2053 9.23948 14.3376 9.25005 12.7532L9.26026 11.2217Z" fill="#23294A"/>
</svg>
